<?xml version="1.0" encoding="utf-8"?>
<!-- Generator: Adobe Illustrator 16.0.0, SVG Export Plug-In . SVG Version: 6.00 Build 0)  -->
<!DOCTYPE svg PUBLIC "-//W3C//DTD SVG 1.1//EN" "http://www.w3.org/Graphics/SVG/1.1/DTD/svg11.dtd">
<svg version="1.1" id="Layer_1" xmlns="http://www.w3.org/2000/svg" xmlns:xlink="http://www.w3.org/1999/xlink" x="0px" y="0px"
	 width="538px" height="62px" viewBox="0 0 538 62" enable-background="new 0 0 538 62" xml:space="preserve">
<g>
	<g>
		<g>
			<path fill="#F58759" d="M8.778,16.727l1.249-1.49c0.864,0.711,1.77,1.162,2.867,1.162c0.864,0,1.385-0.342,1.385-0.902v-0.027
				c0-0.533-0.329-0.807-1.934-1.217c-1.934-0.492-3.183-1.025-3.183-2.926v-0.027c0-1.736,1.399-2.885,3.361-2.885
				c1.399,0,2.593,0.438,3.566,1.217l-1.097,1.586c-0.851-0.588-1.688-0.943-2.497-0.943c-0.81,0-1.235,0.369-1.235,0.834v0.027
				c0,0.629,0.412,0.834,2.071,1.258c1.948,0.506,3.045,1.203,3.045,2.871v0.027c0,1.9-1.454,2.967-3.525,2.967
				C11.398,18.258,9.931,17.752,8.778,16.727z"/>
			<path fill="#F58759" d="M18.57,8.551h2.112v3.787h3.896V8.551h2.112v9.57h-2.112V14.28h-3.896v3.842H18.57V8.551z"/>
			<path fill="#F58759" d="M33.023,8.483h1.948l4.115,9.639h-2.208L36,15.975H31.94l-0.878,2.146h-2.154L33.023,8.483z
				 M35.246,14.116l-1.276-3.104l-1.276,3.104H35.246z"/>
			<path fill="#F58759" d="M40.894,8.551h4.39c1.221,0,2.167,0.342,2.798,0.971c0.535,0.533,0.823,1.285,0.823,2.188v0.027
				c0,1.545-0.837,2.516-2.058,2.967l2.346,3.418h-2.469l-2.058-3.063h-1.66v3.063h-2.112V8.551z M45.146,13.2
				c1.029,0,1.619-0.547,1.619-1.354v-0.027c0-0.902-0.631-1.367-1.66-1.367h-2.099V13.2H45.146z"/>
			<path fill="#F58759" d="M51.644,8.551h2.112v9.57h-2.112V8.551z"/>
			<path fill="#F58759" d="M56.622,8.551h1.948l4.5,5.893V8.551h2.085v9.57h-1.797l-4.65-6.084v6.084h-2.085V8.551z"/>
			<path fill="#F58759" d="M67.358,13.364v-0.027c0-2.721,2.126-4.949,5.034-4.949c1.729,0,2.771,0.465,3.772,1.313l-1.331,1.6
				c-0.741-0.615-1.399-0.971-2.51-0.971c-1.537,0-2.757,1.354-2.757,2.98v0.027c0,1.75,1.207,3.035,2.908,3.035
				c0.768,0,1.454-0.191,1.989-0.574V14.43h-2.126v-1.818h4.17v4.156c-0.988,0.834-2.346,1.518-4.102,1.518
				C69.416,18.286,67.358,16.194,67.358,13.364z"/>
		</g>
	</g>
	<g>
		<g>
			<g>
				<path fill="#F58759" d="M12.729,24.694h1.948l4.115,9.638h-2.208l-0.878-2.146h-4.061l-0.878,2.146H8.614L12.729,24.694z
					 M14.952,30.327l-1.276-3.104L12.4,30.327H14.952z"/>
				<path fill="#F58759" d="M20.599,24.762h3.745c3.018,0,5.103,2.064,5.103,4.758v0.027c0,2.693-2.085,4.785-5.103,4.785h-3.745
					V24.762z M22.711,26.663v5.769h1.632c1.729,0,2.895-1.162,2.895-2.857v-0.027c0-1.695-1.166-2.885-2.895-2.885H22.711z"/>
				<path fill="#F58759" d="M30.444,24.762h2.332l2.51,6.74l2.511-6.74h2.277L36.192,34.4h-1.866L30.444,24.762z"/>
				<path fill="#F58759" d="M43.706,24.694h1.948l4.115,9.638h-2.208l-0.878-2.146h-4.061l-0.878,2.146H39.59L43.706,24.694z
					 M45.928,30.327l-1.276-3.104l-1.276,3.104H45.928z"/>
				<path fill="#F58759" d="M51.576,24.762h1.948l4.5,5.893v-5.893h2.085v9.57h-1.797l-4.65-6.083v6.083h-2.085V24.762z"/>
				<path fill="#F58759" d="M62.313,29.575v-0.027c0-2.721,2.058-4.949,5.007-4.949c1.811,0,2.895,0.602,3.786,1.477l-1.344,1.545
					c-0.741-0.67-1.495-1.08-2.456-1.08c-1.619,0-2.785,1.34-2.785,2.98v0.027c0,1.641,1.139,3.007,2.785,3.007
					c1.098,0,1.77-0.438,2.524-1.121l1.345,1.353c-0.988,1.053-2.085,1.709-3.937,1.709C64.411,34.496,62.313,32.322,62.313,29.575z
					"/>
				<path fill="#F58759" d="M73.392,24.762h7.243v1.873h-5.144v1.941h4.527v1.873h-4.527v2.009h5.213v1.873h-7.312V24.762z"/>
				<path fill="#F58759" d="M83.032,24.762h3.745c3.018,0,5.103,2.064,5.103,4.758v0.027c0,2.693-2.085,4.785-5.103,4.785h-3.745
					V24.762z M85.145,26.663v5.769h1.632c1.729,0,2.895-1.162,2.895-2.857v-0.027c0-1.695-1.166-2.885-2.895-2.885H85.145z"/>
			</g>
		</g>
		<g>
			<g>
				<g>
					<path fill="#F58759" d="M9.012,45.777V45.75c0-2.721,2.058-4.949,5.007-4.949c1.811,0,2.895,0.602,3.786,1.477l-1.344,1.545
						c-0.741-0.67-1.495-1.08-2.456-1.08c-1.619,0-2.785,1.34-2.785,2.98v0.027c0,1.641,1.139,3.008,2.785,3.008
						c1.098,0,1.77-0.438,2.524-1.121l1.345,1.354c-0.988,1.053-2.085,1.709-3.937,1.709C11.11,50.699,9.012,48.525,9.012,45.777z"
						/>
					<path fill="#F58759" d="M23.384,40.896h1.948l4.115,9.639h-2.208l-0.878-2.146H22.3l-0.878,2.146h-2.154L23.384,40.896z
						 M25.606,46.529l-1.276-3.104l-1.276,3.104H25.606z"/>
					<path fill="#F58759" d="M31.253,40.965h3.923c2.291,0,3.676,1.354,3.676,3.309v0.027c0,2.215-1.729,3.363-3.882,3.363h-1.605
						v2.871h-2.112V40.965z M35.04,45.791c1.056,0,1.673-0.629,1.673-1.449v-0.027c0-0.943-0.658-1.449-1.715-1.449h-1.632v2.926
						H35.04z"/>
					<path fill="#F58759" d="M43.185,40.896h1.948l4.115,9.639H47.04l-0.878-2.146h-4.061l-0.878,2.146h-2.154L43.185,40.896z
						 M45.407,46.529l-1.276-3.104l-1.276,3.104H45.407z"/>
					<path fill="#F58759" d="M51.054,40.965h4.458c1.098,0,1.962,0.301,2.511,0.848c0.438,0.438,0.658,0.971,0.658,1.627v0.027
						c0,1.08-0.576,1.682-1.262,2.064c1.111,0.424,1.797,1.066,1.797,2.352v0.027c0,1.75-1.427,2.625-3.594,2.625h-4.568V40.965z
						 M56.583,43.795c0-0.629-0.494-0.984-1.386-0.984h-2.085v2.023h1.948c0.933,0,1.523-0.301,1.523-1.012V43.795z M55.554,46.584
						h-2.442v2.105h2.51c0.933,0,1.495-0.328,1.495-1.039v-0.027C57.117,46.98,56.637,46.584,55.554,46.584z"/>
					<path fill="#F58759" d="M61.298,40.965h2.112v9.57h-2.112V40.965z"/>
					<path fill="#F58759" d="M66.275,40.965h2.112v7.656h4.788v1.914h-6.9V40.965z"/>
					<path fill="#F58759" d="M75.504,40.965h2.112v9.57h-2.112V40.965z"/>
					<path fill="#F58759" d="M82.717,42.906h-2.922v-1.941h7.957v1.941H84.83v7.629h-2.113V42.906z"/>
					<path fill="#F58759" d="M89.71,40.965h2.112v9.57H89.71V40.965z"/>
					<path fill="#F58759" d="M94.688,40.965h7.243v1.873h-5.144v1.941h4.527v1.873h-4.527v2.01h5.213v1.873h-7.312V40.965z"/>
					<path fill="#F58759" d="M103.668,49.141l1.249-1.49c0.864,0.711,1.77,1.162,2.867,1.162c0.864,0,1.386-0.342,1.386-0.902
						v-0.027c0-0.533-0.329-0.807-1.934-1.217c-1.934-0.492-3.183-1.025-3.183-2.926v-0.027c0-1.736,1.399-2.885,3.361-2.885
						c1.399,0,2.593,0.438,3.566,1.217l-1.097,1.586c-0.851-0.588-1.688-0.943-2.497-0.943c-0.81,0-1.235,0.369-1.235,0.834v0.027
						c0,0.629,0.412,0.834,2.072,1.258c1.948,0.506,3.045,1.203,3.045,2.871v0.027c0,1.9-1.454,2.967-3.525,2.967
						C106.289,50.672,104.821,50.166,103.668,49.141z"/>
				</g>
			</g>
			<g>
				<g>
					<g>
						<path fill="#F58759" d="M201.485,10.493h-2.922V8.551h7.957v1.941h-2.922v7.629h-2.113V10.493z"/>
						<path fill="#F58759" d="M210.673,8.483h1.948l4.115,9.639h-2.208l-0.878-2.146h-4.061l-0.878,2.146h-2.154L210.673,8.483z
							 M212.896,14.116l-1.276-3.104l-1.276,3.104H212.896z"/>
						<path fill="#F58759" d="M218.543,8.551h2.112v7.656h4.788v1.914h-6.9V8.551z"/>
						<path fill="#F58759" d="M227.675,8.551h7.243v1.873h-5.144v1.941h4.527v1.873h-4.527v2.01h5.213v1.873h-7.312V8.551z"/>
						<path fill="#F58759" d="M237.315,8.551h1.948l4.5,5.893V8.551h2.085v9.57h-1.797l-4.65-6.084v6.084h-2.085V8.551z"/>
						<path fill="#F58759" d="M250.713,10.493h-2.922V8.551h7.957v1.941h-2.922v7.629h-2.113V10.493z"/>
					</g>
				</g>
				<g>
					<g>
						<g>
							<path fill="#F58759" d="M202.542,24.694h1.948l4.115,9.638h-2.208l-0.878-2.146h-4.061l-0.878,2.146h-2.154L202.542,24.694z
								 M204.764,30.327l-1.276-3.104l-1.276,3.104H204.764z"/>
							<path fill="#F58759" d="M211.646,26.704h-2.922v-1.941h7.957v1.941h-2.922v7.628h-2.113V26.704z"/>
							<path fill="#F58759" d="M220.779,26.704h-2.922v-1.941h7.957v1.941h-2.922v7.628h-2.113V26.704z"/>
							<path fill="#F58759" d="M227.675,24.762h4.39c1.221,0,2.167,0.342,2.798,0.971c0.535,0.533,0.823,1.285,0.823,2.188v0.027
								c0,1.545-0.837,2.516-2.058,2.967l2.346,3.417h-2.469l-2.058-3.062h-1.66v3.062h-2.112V24.762z M231.928,29.411
								c1.029,0,1.619-0.547,1.619-1.354V28.03c0-0.902-0.631-1.367-1.66-1.367h-2.099v2.748H231.928z"/>
							<path fill="#F58759" d="M241.622,24.694h1.948l4.115,9.638h-2.208l-0.878-2.146h-4.061l-0.878,2.146h-2.154L241.622,24.694z
								 M243.845,30.327l-1.276-3.104l-1.276,3.104H243.845z"/>
							<path fill="#F58759" d="M248.573,29.575v-0.027c0-2.721,2.058-4.949,5.007-4.949c1.811,0,2.895,0.602,3.786,1.477
								l-1.344,1.545c-0.741-0.67-1.495-1.08-2.456-1.08c-1.619,0-2.785,1.34-2.785,2.98v0.027c0,1.641,1.139,3.007,2.785,3.007
								c1.098,0,1.77-0.438,2.524-1.121l1.345,1.353c-0.988,1.053-2.085,1.709-3.937,1.709
								C250.672,34.496,248.573,32.322,248.573,29.575z"/>
							<path fill="#F58759" d="M261.889,26.704h-2.922v-1.941h7.957v1.941h-2.922v7.628h-2.113V26.704z"/>
							<path fill="#F58759" d="M268.881,24.762h2.113v9.57h-2.113V24.762z"/>
							<path fill="#F58759" d="M273.434,29.575v-0.027c0-2.721,2.154-4.949,5.117-4.949s5.088,2.201,5.088,4.922v0.027
								c0,2.72-2.152,4.949-5.115,4.949S273.434,32.295,273.434,29.575z M281.432,29.575v-0.027c0-1.641-1.207-3.008-2.908-3.008
								s-2.881,1.34-2.881,2.98v0.027c0,1.641,1.207,3.007,2.908,3.007S281.432,31.215,281.432,29.575z"/>
							<path fill="#F58759" d="M286.035,24.762h1.949l4.498,5.893v-5.893h2.086v9.57h-1.797l-4.65-6.083v6.083h-2.086V24.762z"/>
						</g>
					</g>
					<g>
						<g>
							<g>
								<path fill="#F58759" d="M204.599,49.605c-0.782,0.643-1.701,1.066-2.812,1.066c-1.838,0-3.224-1.066-3.224-2.762v-0.027
									c0-1.217,0.659-2.078,1.866-2.625c-0.466-0.656-0.672-1.258-0.672-1.914v-0.027c0-1.313,1.057-2.516,2.908-2.516
									c1.632,0,2.703,1.066,2.703,2.406v0.027c0,1.285-0.823,2.037-2.017,2.502l1.276,1.271c0.315-0.492,0.631-1.053,0.933-1.641
									l1.55,0.848c-0.371,0.67-0.782,1.381-1.262,2.023l1.413,1.408l-1.55,1.08L204.599,49.605z M203.419,48.402l-1.838-1.859
									c-0.631,0.328-0.892,0.793-0.892,1.258v0.027c0,0.67,0.563,1.121,1.344,1.121C202.514,48.949,202.98,48.744,203.419,48.402z
									 M203.529,43.357V43.33c0-0.547-0.37-0.889-0.905-0.889c-0.563,0-0.933,0.396-0.933,0.971v0.027
									c0,0.424,0.165,0.738,0.562,1.189C203.09,44.314,203.529,43.959,203.529,43.357z"/>
								<path fill="#F58759" d="M213.963,40.965h4.39c1.221,0,2.167,0.342,2.798,0.971c0.535,0.533,0.823,1.285,0.823,2.188v0.027
									c0,1.545-0.837,2.516-2.058,2.967l2.346,3.418h-2.469l-2.058-3.063h-1.66v3.063h-2.112V40.965z M218.215,45.613
									c1.029,0,1.619-0.547,1.619-1.354v-0.027c0-0.902-0.631-1.367-1.66-1.367h-2.099v2.748H218.215z"/>
								<path fill="#F58759" d="M224.618,40.965h7.243v1.873h-5.144v1.941h4.527v1.873h-4.527v2.01h5.213v1.873h-7.312V40.965z"/>
								<path fill="#F58759" d="M236.493,42.906h-2.922v-1.941h7.957v1.941h-2.922v7.629h-2.113V42.906z"/>
								<path fill="#F58759" d="M243.39,40.965h7.243v1.873h-5.144v1.941h4.527v1.873h-4.527v2.01h5.213v1.873h-7.312V40.965z"/>
								<path fill="#F58759" d="M253.03,40.965h1.948l4.5,5.893v-5.893h2.085v9.57h-1.797l-4.65-6.084v6.084h-2.085V40.965z"/>
								<path fill="#F58759" d="M266.428,42.906h-2.922v-1.941h7.957v1.941h-2.922v7.629h-2.113V42.906z"/>
								<path fill="#F58759" d="M273.42,40.965h2.113v9.57h-2.113V40.965z"/>
								<path fill="#F58759" d="M277.973,45.777V45.75c0-2.721,2.154-4.949,5.117-4.949s5.088,2.201,5.088,4.922v0.027
									c0,2.721-2.152,4.949-5.115,4.949S277.973,48.498,277.973,45.777z M285.971,45.777V45.75c0-1.641-1.207-3.008-2.908-3.008
									s-2.881,1.34-2.881,2.98v0.027c0,1.641,1.207,3.008,2.908,3.008S285.971,47.418,285.971,45.777z"/>
								<path fill="#F58759" d="M290.574,40.965h1.949l4.498,5.893v-5.893h2.086v9.57h-1.797l-4.65-6.084v6.084h-2.086V40.965z"/>
							</g>
						</g>
						<g>
							<g>
								<g>
									<path fill="#F58759" d="M387.033,8.483h1.949l4.115,9.639h-2.209l-0.879-2.146h-4.061l-0.877,2.146h-2.154L387.033,8.483z
										 M389.256,14.116l-1.275-3.104l-1.275,3.104H389.256z"/>
									<path fill="#F58759" d="M399.551,13.364v-0.027c0-2.721,2.059-4.949,5.008-4.949c1.811,0,2.895,0.602,3.787,1.477
										L407,11.409c-0.74-0.67-1.494-1.08-2.455-1.08c-1.619,0-2.785,1.34-2.785,2.98v0.027c0,1.641,1.139,3.008,2.785,3.008
										c1.098,0,1.77-0.438,2.523-1.121l1.346,1.354c-0.988,1.053-2.086,1.709-3.938,1.709
										C401.65,18.286,399.551,16.112,399.551,13.364z"/>
									<path fill="#F58759" d="M410.48,14.02V8.551h2.113v5.414c0,1.559,0.781,2.365,2.07,2.365s2.072-0.779,2.072-2.297V8.551
										h2.111v5.4c0,2.898-1.633,4.32-4.211,4.32S410.48,16.836,410.48,14.02z"/>
									<path fill="#F58759" d="M421.287,8.551h2.111v7.656h4.789v1.914h-6.9V8.551z"/>
									<path fill="#F58759" d="M431.146,10.493h-2.922V8.551h7.957v1.941h-2.922v7.629h-2.113V10.493z"/>
									<path fill="#F58759" d="M437.891,14.02V8.551h2.113v5.414c0,1.559,0.781,2.365,2.072,2.365c1.289,0,2.07-0.779,2.07-2.297
										V8.551h2.113v5.4c0,2.898-1.633,4.32-4.211,4.32C439.469,18.272,437.891,16.836,437.891,14.02z"/>
									<path fill="#F58759" d="M448.697,8.551h4.391c1.221,0,2.166,0.342,2.799,0.971c0.533,0.533,0.822,1.285,0.822,2.188v0.027
										c0,1.545-0.838,2.516-2.059,2.967l2.346,3.418h-2.469l-2.057-3.063h-1.66v3.063h-2.113V8.551z M452.949,13.2
										c1.029,0,1.619-0.547,1.619-1.354v-0.027c0-0.902-0.631-1.367-1.66-1.367h-2.098V13.2H452.949z"/>
									<path fill="#F58759" d="M459.352,8.551h7.244v1.873h-5.145v1.941h4.527v1.873h-4.527v2.01h5.213v1.873h-7.313V8.551z"/>
									<path fill="#F58759" d="M474.146,13.364v-0.027c0-2.721,2.154-4.949,5.117-4.949s5.09,2.201,5.09,4.922v0.027
										c0,2.721-2.154,4.949-5.117,4.949S474.146,16.084,474.146,13.364z M482.145,13.364v-0.027c0-1.641-1.207-3.008-2.908-3.008
										s-2.881,1.34-2.881,2.98v0.027c0,1.641,1.207,3.008,2.908,3.008S482.145,15.004,482.145,13.364z"/>
									<path fill="#F58759" d="M486.75,8.551h7.311v1.914h-5.199v2.037h4.582v1.914h-4.582v3.705h-2.111V8.551z"/>
								</g>
							</g>
							<g>
								<g>
									<g>
										<path fill="#F58759" d="M383.742,24.762h3.922c2.291,0,3.678,1.354,3.678,3.309v0.027c0,2.215-1.729,3.363-3.883,3.363
											h-1.605v2.871h-2.111V24.762z M387.527,29.588c1.057,0,1.674-0.629,1.674-1.449v-0.027c0-0.943-0.658-1.449-1.715-1.449
											h-1.633v2.926H387.527z"/>
										<path fill="#F58759" d="M393.381,24.762h4.391c1.221,0,2.166,0.342,2.799,0.971c0.533,0.533,0.822,1.285,0.822,2.188
											v0.027c0,1.545-0.838,2.516-2.059,2.967l2.346,3.417h-2.469l-2.057-3.062h-1.66v3.062h-2.113V24.762z M397.633,29.411
											c1.029,0,1.619-0.547,1.619-1.354V28.03c0-0.902-0.631-1.367-1.66-1.367h-2.098v2.748H397.633z"/>
										<path fill="#F58759" d="M403.611,29.575v-0.027c0-2.721,2.154-4.949,5.117-4.949s5.088,2.201,5.088,4.922v0.027
											c0,2.72-2.152,4.949-5.115,4.949S403.611,32.295,403.611,29.575z M411.609,29.575v-0.027c0-1.641-1.207-3.008-2.908-3.008
											s-2.881,1.34-2.881,2.98v0.027c0,1.641,1.207,3.007,2.908,3.007S411.609,31.215,411.609,29.575z"/>
										<path fill="#F58759" d="M418.998,24.694h1.947l4.115,9.638h-2.209l-0.877-2.146h-4.061l-0.879,2.146h-2.152
											L418.998,24.694z M421.221,30.327l-1.277-3.104l-1.275,3.104H421.221z"/>
										<path fill="#F58759" d="M425.947,29.575v-0.027c0-2.721,2.059-4.949,5.008-4.949c1.811,0,2.895,0.602,3.787,1.477
											l-1.346,1.545c-0.74-0.67-1.494-1.08-2.455-1.08c-1.619,0-2.785,1.34-2.785,2.98v0.027c0,1.641,1.139,3.007,2.785,3.007
											c1.098,0,1.77-0.438,2.523-1.121l1.346,1.353c-0.988,1.053-2.086,1.709-3.938,1.709
											C428.047,34.496,425.947,32.322,425.947,29.575z"/>
										<path fill="#F58759" d="M439.266,26.704h-2.922v-1.941h7.955v1.941h-2.922v7.628h-2.111V26.704z"/>
										<path fill="#F58759" d="M446.256,24.762h2.113v9.57h-2.113V24.762z"/>
										<path fill="#F58759" d="M450.412,24.762h2.332l2.51,6.74l2.51-6.74h2.277L456.16,34.4h-1.867L450.412,24.762z"/>
										<path fill="#F58759" d="M461.889,24.762h7.244v1.873h-5.145v1.941h4.527v1.873h-4.527v2.009h5.213v1.873h-7.313V24.762z"
											/>
									</g>
								</g>
								<g>
									<g>
										<g>
											<path fill="#F58759" d="M383.838,40.965h2.111v9.57h-2.111V40.965z"/>
											<path fill="#F58759" d="M388.814,40.965h1.949l4.498,5.893v-5.893h2.086v9.57h-1.797l-4.65-6.084v6.084h-2.086V40.965z"
												/>
											<path fill="#F58759" d="M399.977,40.965h1.949l4.498,5.893v-5.893h2.086v9.57h-1.797l-4.65-6.084v6.084h-2.086V40.965z"
												/>
											<path fill="#F58759" d="M410.713,45.777V45.75c0-2.721,2.154-4.949,5.117-4.949s5.09,2.201,5.09,4.922v0.027
												c0,2.721-2.154,4.949-5.117,4.949S410.713,48.498,410.713,45.777z M418.711,45.777V45.75
												c0-1.641-1.207-3.008-2.908-3.008s-2.881,1.34-2.881,2.98v0.027c0,1.641,1.207,3.008,2.908,3.008
												S418.711,47.418,418.711,45.777z"/>
											<path fill="#F58759" d="M421.984,40.965h2.332l2.512,6.74l2.51-6.74h2.277l-3.883,9.639h-1.865L421.984,40.965z"/>
											<path fill="#F58759" d="M435.246,40.896h1.949l4.115,9.639h-2.209l-0.879-2.146h-4.061l-0.877,2.146h-2.154
												L435.246,40.896z M437.469,46.529l-1.275-3.104l-1.275,3.104H437.469z"/>
											<path fill="#F58759" d="M444.352,42.906h-2.922v-1.941h7.957v1.941h-2.922v7.629h-2.113V42.906z"/>
											<path fill="#F58759" d="M451.344,40.965h2.113v9.57h-2.113V40.965z"/>
											<path fill="#F58759" d="M455.896,45.777V45.75c0-2.721,2.154-4.949,5.117-4.949s5.088,2.201,5.088,4.922v0.027
												c0,2.721-2.152,4.949-5.115,4.949S455.896,48.498,455.896,45.777z M463.895,45.777V45.75
												c0-1.641-1.207-3.008-2.908-3.008s-2.881,1.34-2.881,2.98v0.027c0,1.641,1.207,3.008,2.908,3.008
												S463.895,47.418,463.895,45.777z"/>
											<path fill="#F58759" d="M468.498,40.965h1.949l4.498,5.893v-5.893h2.086v9.57h-1.797l-4.65-6.084v6.084h-2.086V40.965z"
												/>
										</g>
									</g>
								</g>
							</g>
						</g>
					</g>
				</g>
			</g>
		</g>
	</g>
</g>
</svg>
