<svg version="1.1" id="Layer_3" xmlns="http://www.w3.org/2000/svg" xmlns:xlink="http://www.w3.org/1999/xlink" x="0px"
    y="0px" width="24px" height="440px" viewBox="0 0 24 440" enable-background="new 0 0 24 440" xml:space="preserve">;
    <g>
        <path
            d="M2.337,14.567c0.558-1.893,1.313-3.412,2.268-4.556c0.953-1.144,2.063-1.961,3.33-2.451c1.267-0.491,2.608-0.736,4.025-0.736c1.443,0,2.798,0.245,4.065,0.736c1.267,0.49,2.384,1.307,3.351,2.451s1.729,2.663,2.288,4.556c0.558,1.894,0.838,4.229,0.838,7.007c0,2.86-0.28,5.25-0.838,7.17c-0.559,1.92-1.321,3.453-2.288,4.597s-2.084,1.961-3.351,2.452c-1.267,0.49-2.622,0.735-4.065,0.735c-1.417,0-2.758-0.245-4.025-0.735c-1.267-0.491-2.376-1.308-3.33-2.452c-0.954-1.144-1.71-2.676-2.268-4.597c-0.559-1.92-0.838-4.311-0.838-7.17C1.5,18.796,1.779,16.461,2.337,14.567z M7.383,24.537c0.054,1.158,0.225,2.274,0.511,3.35c0.286,1.076,0.742,1.996,1.369,2.758c0.626,0.763,1.525,1.144,2.697,1.144c1.199,0,2.118-0.381,2.757-1.144c0.64-0.762,1.104-1.682,1.39-2.758c0.286-1.076,0.456-2.192,0.511-3.35c0.054-1.158,0.082-2.146,0.082-2.962c0-0.49-0.008-1.083-0.021-1.777c-0.015-0.695-0.068-1.41-0.164-2.145s-0.231-1.464-0.408-2.186c-0.178-0.721-0.443-1.369-0.797-1.941c-0.354-0.572-0.804-1.035-1.349-1.389c-0.545-0.354-1.212-0.531-2.001-0.531c-0.791,0-1.451,0.177-1.982,0.531c-0.531,0.354-0.967,0.817-1.307,1.389c-0.341,0.572-0.606,1.22-0.797,1.941c-0.191,0.722-0.327,1.451-0.409,2.186s-0.129,1.45-0.143,2.145c-0.014,0.694-0.021,1.287-0.021,1.777C7.301,22.392,7.328,23.379,7.383,24.537z">
        </path>
    </g>
    <g>
        <path
            d="M10.856,79.998V61.448H3.665v-4.372c1.007,0.027,1.981-0.047,2.921-0.225c0.94-0.177,1.784-0.49,2.533-0.94c0.749-0.449,1.382-1.042,1.9-1.777c0.517-0.735,0.858-1.647,1.021-2.737h4.617v28.601H10.856z">
        </path>
    </g>
    <g>
        <path
            d="M2.726,102.166c0.435-1.402,1.089-2.628,1.961-3.677c0.872-1.048,1.968-1.865,3.289-2.452c1.321-0.585,2.84-0.878,4.556-0.878c1.308,0,2.554,0.205,3.738,0.613c1.186,0.408,2.227,0.995,3.126,1.757c0.898,0.763,1.614,1.703,2.145,2.819c0.531,1.117,0.797,2.37,0.797,3.759c0,1.444-0.231,2.683-0.694,3.718c-0.464,1.036-1.076,1.955-1.839,2.758c-0.763,0.804-1.628,1.532-2.594,2.186c-0.968,0.654-1.941,1.301-2.922,1.941c-0.98,0.64-1.934,1.328-2.86,2.063c-0.926,0.735-1.744,1.593-2.452,2.574h13.524v4.985H1.5c0-1.661,0.238-3.105,0.715-4.331c0.476-1.226,1.124-2.322,1.94-3.289c0.817-0.966,1.777-1.859,2.88-2.676c1.104-0.817,2.268-1.647,3.494-2.492c0.626-0.436,1.293-0.878,2.002-1.328c0.708-0.449,1.354-0.946,1.94-1.491c0.586-0.544,1.076-1.157,1.472-1.838c0.395-0.681,0.592-1.457,0.592-2.329c0-1.389-0.402-2.472-1.205-3.248c-0.804-0.776-1.832-1.165-3.085-1.165c-0.844,0-1.56,0.198-2.145,0.592c-0.586,0.396-1.056,0.913-1.41,1.553c-0.354,0.64-0.606,1.348-0.756,2.125c-0.15,0.776-0.225,1.546-0.225,2.309H2.153C2.099,105.087,2.29,103.569,2.726,102.166z">
        </path>
    </g>
    <g>
        <path
            d="M11.959,151.293c0.708-0.055,1.369-0.211,1.981-0.47c0.613-0.258,1.117-0.633,1.513-1.124c0.395-0.49,0.592-1.144,0.592-1.961c0-1.226-0.408-2.166-1.226-2.819s-1.757-0.98-2.819-0.98c-1.471,0-2.581,0.484-3.33,1.45c-0.75,0.967-1.11,2.186-1.083,3.657H2.072c0.054-1.471,0.32-2.812,0.796-4.024c0.477-1.211,1.144-2.253,2.002-3.125c0.858-0.872,1.886-1.546,3.084-2.022c1.198-0.477,2.533-0.715,4.004-0.715c1.144,0,2.288,0.171,3.432,0.511c1.144,0.341,2.172,0.852,3.085,1.532c0.912,0.681,1.654,1.512,2.227,2.493c0.572,0.98,0.857,2.111,0.857,3.391c0,1.389-0.334,2.615-1.001,3.677c-0.667,1.062-1.669,1.784-3.003,2.166v0.082c1.58,0.354,2.819,1.117,3.719,2.288c0.898,1.171,1.348,2.574,1.348,4.208c0,1.498-0.293,2.833-0.878,4.004c-0.586,1.171-1.369,2.152-2.35,2.942c-0.98,0.79-2.111,1.389-3.392,1.798c-1.28,0.408-2.615,0.613-4.004,0.613c-1.607,0-3.071-0.232-4.392-0.695c-1.321-0.463-2.445-1.137-3.371-2.022c-0.927-0.885-1.642-1.967-2.145-3.248c-0.504-1.28-0.743-2.751-0.715-4.413h5.516c0.027,0.763,0.149,1.491,0.368,2.186c0.218,0.694,0.531,1.294,0.939,1.797c0.409,0.504,0.919,0.906,1.532,1.206c0.613,0.3,1.341,0.449,2.186,0.449c1.308,0,2.411-0.401,3.309-1.205c0.899-0.803,1.349-1.9,1.349-3.289c0-1.089-0.211-1.92-0.633-2.493c-0.423-0.572-0.961-0.987-1.614-1.246c-0.653-0.258-1.369-0.409-2.145-0.449c-0.776-0.041-1.519-0.062-2.227-0.062v-4.085C10.583,151.348,11.25,151.348,11.959,151.293z">
        </path>
    </g>
    <g>
        <path
            d="M1.295,205.212V199.9l12.42-16.67h5.189v17.201h3.8v4.78h-3.8v6.619h-5.517v-6.619H1.295z M13.267,190.503l-7.395,9.929h7.517v-9.929H13.267z">
        </path>
    </g>
    <g>
        <path
            d="M9.263,232.844l-1.144,6.496l0.082,0.082c0.79-0.789,1.634-1.354,2.533-1.695c0.899-0.34,1.92-0.511,3.064-0.511c1.416,0,2.669,0.259,3.759,0.776c1.089,0.518,2.009,1.212,2.758,2.084c0.749,0.871,1.321,1.899,1.717,3.084c0.395,1.186,0.592,2.445,0.592,3.779c0,1.471-0.286,2.84-0.857,4.106c-0.572,1.267-1.343,2.364-2.309,3.289c-0.968,0.927-2.091,1.642-3.371,2.146s-2.643,0.742-4.086,0.715c-1.389,0-2.717-0.184-3.983-0.552s-2.39-0.933-3.371-1.695c-0.98-0.763-1.764-1.71-2.349-2.84c-0.586-1.13-0.893-2.444-0.919-3.942h5.802c0.136,1.307,0.626,2.35,1.471,3.125c0.844,0.776,1.92,1.164,3.228,1.164c0.762,0,1.451-0.156,2.063-0.469c0.613-0.313,1.131-0.722,1.553-1.227c0.422-0.504,0.749-1.089,0.98-1.756c0.231-0.668,0.348-1.355,0.348-2.064c0-0.734-0.109-1.43-0.327-2.084c-0.218-0.653-0.545-1.225-0.98-1.715s-0.953-0.872-1.553-1.145c-0.6-0.271-1.293-0.408-2.083-0.408c-1.035,0-1.879,0.184-2.533,0.551c-0.654,0.368-1.267,0.947-1.838,1.736h-5.23l2.819-15.812H21.07v4.78H9.263z">
        </path>
    </g>
    <g>
        <path
            d="M15.188,276.592c-0.682-0.707-1.526-1.062-2.534-1.062c-1.036,0-1.9,0.306-2.594,0.919c-0.695,0.613-1.247,1.363-1.655,2.248c-0.409,0.885-0.709,1.832-0.899,2.839c-0.191,1.009-0.3,1.907-0.327,2.696l0.082,0.082c0.79-1.144,1.716-1.961,2.778-2.451c1.062-0.49,2.288-0.735,3.677-0.735c1.227,0,2.425,0.266,3.596,0.796c1.171,0.531,2.166,1.247,2.982,2.146c0.763,0.872,1.321,1.866,1.676,2.983c0.354,1.117,0.531,2.246,0.531,3.391c0,1.471-0.239,2.84-0.715,4.106c-0.478,1.267-1.158,2.37-2.043,3.31c-0.886,0.939-1.941,1.675-3.167,2.206s-2.588,0.797-4.086,0.797c-2.152,0-3.936-0.429-5.352-1.287c-1.417-0.858-2.547-1.981-3.392-3.37c-0.844-1.39-1.43-2.963-1.757-4.72c-0.327-1.757-0.49-3.548-0.49-5.373c0-1.771,0.205-3.54,0.613-5.312c0.409-1.77,1.063-3.371,1.961-4.801s2.056-2.594,3.473-3.493c1.416-0.899,3.146-1.349,5.189-1.349c1.226,0,2.37,0.178,3.433,0.531c1.062,0.354,2.002,0.865,2.819,1.532c0.816,0.668,1.483,1.491,2.002,2.472c0.517,0.98,0.857,2.111,1.021,3.392h-5.517C16.304,278.132,15.867,277.301,15.188,276.592z M10.305,285.929c-0.586,0.286-1.069,0.674-1.451,1.165c-0.382,0.49-0.667,1.055-0.858,1.695c-0.191,0.641-0.286,1.314-0.286,2.021c0,0.654,0.102,1.302,0.307,1.941c0.204,0.641,0.503,1.213,0.899,1.716c0.395,0.505,0.878,0.906,1.45,1.206c0.572,0.299,1.226,0.449,1.961,0.449c0.708,0,1.328-0.15,1.859-0.449c0.53-0.3,0.986-0.695,1.368-1.186c0.381-0.49,0.667-1.049,0.858-1.676c0.19-0.625,0.286-1.266,0.286-1.92c0-0.68-0.089-1.341-0.266-1.981c-0.178-0.64-0.443-1.212-0.797-1.716c-0.354-0.504-0.811-0.912-1.369-1.227c-0.559-0.313-1.205-0.469-1.94-0.469C11.564,285.5,10.89,285.643,10.305,285.929z">
        </path>
    </g>
    <g>
        <path
            d="M17.948,325.036c-1.158,1.907-2.124,3.937-2.9,6.088c-0.776,2.152-1.376,4.331-1.798,6.538c-0.423,2.205-0.647,4.263-0.674,6.169h-6.21c0.327-4.276,1.328-8.39,3.003-12.339c1.675-3.949,3.875-7.572,6.599-10.869H2.402v-5.393h19.531v4.984C20.434,321.522,19.106,323.13,17.948,325.036z">
        </path>
    </g>
    <g>
        <path
            d="M3.423,363.571c0.572-0.981,1.314-1.798,2.227-2.452c0.912-0.653,1.94-1.144,3.084-1.471c1.144-0.326,2.302-0.49,3.473-0.49c1.771,0,3.269,0.273,4.494,0.817c1.226,0.546,2.213,1.205,2.963,1.981c0.748,0.776,1.286,1.607,1.613,2.492c0.327,0.886,0.49,1.683,0.49,2.391c0,1.416-0.347,2.656-1.042,3.718c-0.694,1.063-1.736,1.825-3.125,2.288v0.082c1.716,0.382,3.036,1.191,3.963,2.431c0.926,1.24,1.39,2.759,1.39,4.556c0,1.525-0.307,2.847-0.92,3.963c-0.612,1.117-1.424,2.043-2.431,2.779c-1.008,0.734-2.152,1.287-3.433,1.654s-2.588,0.552-3.922,0.552c-1.389,0-2.731-0.171-4.025-0.511c-1.294-0.34-2.451-0.879-3.473-1.613c-1.021-0.736-1.839-1.662-2.452-2.779c-0.613-1.116-0.919-2.451-0.919-4.004c0-1.824,0.47-3.35,1.41-4.576c0.94-1.226,2.268-2.043,3.984-2.451v-0.082c-1.389-0.381-2.438-1.104-3.146-2.166c-0.709-1.062-1.063-2.301-1.063-3.717C2.565,365.682,2.852,364.552,3.423,363.571z M7.591,381.672c0.272,0.599,0.633,1.109,1.083,1.531c0.449,0.423,0.987,0.75,1.614,0.98c0.626,0.232,1.28,0.348,1.961,0.348c0.708,0,1.354-0.115,1.94-0.348c0.586-0.23,1.104-0.558,1.553-0.98c0.449-0.422,0.797-0.933,1.042-1.531c0.245-0.6,0.367-1.254,0.367-1.962c0-0.681-0.129-1.3-0.388-1.858s-0.613-1.043-1.063-1.451s-0.967-0.721-1.553-0.939c-0.586-0.218-1.219-0.327-1.899-0.327c-1.417,0-2.615,0.388-3.596,1.165c-0.98,0.775-1.471,1.899-1.471,3.37C7.183,380.404,7.318,381.072,7.591,381.672z M9.144,370.292c0.872,0.641,1.893,0.96,3.064,0.96c1.226,0,2.247-0.319,3.064-0.96c0.817-0.64,1.226-1.573,1.226-2.798c0-0.382-0.055-0.797-0.163-1.247c-0.109-0.449-0.32-0.878-0.634-1.286c-0.313-0.409-0.749-0.75-1.308-1.021c-0.559-0.272-1.286-0.409-2.186-0.409c-0.572,0-1.124,0.089-1.655,0.266s-1.001,0.429-1.41,0.756s-0.729,0.735-0.96,1.226c-0.232,0.49-0.348,1.063-0.348,1.717C7.836,368.719,8.271,369.652,9.144,370.292z">
        </path>
    </g>
    <g>
        <path
            d="M8.98,427.469c0.681,0.709,1.525,1.063,2.533,1.063c1.063,0,1.934-0.307,2.615-0.92c0.681-0.612,1.227-1.361,1.635-2.246s0.701-1.832,0.878-2.84c0.178-1.008,0.293-1.906,0.348-2.697l-0.082-0.082c-0.79,1.145-1.716,1.962-2.778,2.452c-1.062,0.49-2.288,0.735-3.677,0.735c-1.226,0-2.425-0.266-3.596-0.797c-1.171-0.531-2.166-1.246-2.982-2.145c-0.763-0.871-1.322-1.865-1.675-2.982c-0.354-1.117-0.531-2.248-0.531-3.392c0-1.472,0.238-2.84,0.715-4.106c0.476-1.267,1.157-2.369,2.042-3.31c0.885-0.939,1.941-1.681,3.167-2.227c1.226-0.544,2.588-0.817,4.086-0.817c2.179,0,3.97,0.43,5.373,1.287c1.402,0.857,2.526,1.988,3.371,3.391c0.844,1.404,1.43,2.99,1.757,4.761c0.326,1.771,0.49,3.555,0.49,5.353c0,1.771-0.205,3.541-0.613,5.312s-1.063,3.37-1.961,4.801c-0.899,1.43-2.057,2.588-3.473,3.473c-1.417,0.885-3.146,1.328-5.189,1.328c-1.226,0-2.37-0.171-3.432-0.511c-1.062-0.34-2.002-0.852-2.819-1.532c-0.817-0.681-1.485-1.512-2.002-2.492c-0.518-0.981-0.858-2.097-1.021-3.351h5.516C7.863,425.93,8.299,426.761,8.98,427.469z M13.883,418.133c0.572-0.286,1.049-0.674,1.431-1.164c0.381-0.49,0.667-1.056,0.857-1.695c0.19-0.641,0.286-1.314,0.286-2.023c0-0.653-0.102-1.301-0.307-1.94c-0.204-0.64-0.504-1.212-0.898-1.716c-0.396-0.504-0.879-0.905-1.45-1.205c-0.572-0.3-1.226-0.449-1.961-0.449c-0.681,0-1.294,0.149-1.839,0.449s-1.008,0.694-1.389,1.185s-0.667,1.049-0.858,1.675c-0.191,0.627-0.286,1.268-0.286,1.92c0,0.682,0.088,1.343,0.266,1.982c0.177,0.641,0.442,1.213,0.797,1.716c0.354,0.505,0.81,0.913,1.369,1.226c0.558,0.313,1.206,0.471,1.941,0.471C12.63,418.563,13.312,418.419,13.883,418.133z">
        </path>
    </g>
</svg>
