<?xml version="1.0" encoding="utf-8"?>
<!-- Generator: Adobe Illustrator 16.0.0, SVG Export Plug-In . SVG Version: 6.00 Build 0)  -->
<!DOCTYPE svg PUBLIC "-//W3C//DTD SVG 1.1//EN" "http://www.w3.org/Graphics/SVG/1.1/DTD/svg11.dtd">
<svg version="1.1" id="Layer_1" xmlns="http://www.w3.org/2000/svg" xmlns:xlink="http://www.w3.org/1999/xlink" x="0px" y="0px"
	 width="482px" height="202px" viewBox="0 0 482 202" enable-background="new 0 0 482 202" xml:space="preserve">
<g>
	<g>
		<g>
			<g>
				<path fill="#FFFFFF" d="M52.205,41.313h2.003L42.543,70.242h-2.4l0.932-21.647l0.317-4.729l-1.567,4.69l-8.452,21.687h-2.4
					l0.516-28.929h2.003l-0.536,19.926c-0.093,2.784-0.211,5.053-0.357,6.807l0.516-1.464l1.964-5.264l7.717-20.005h2.143
					l-0.635,19.194c-0.146,3.337-0.311,5.851-0.496,7.539c1.124-3.179,1.964-5.448,2.52-6.807L52.205,41.313z"/>
				<path fill="#FFFFFF" d="M60.263,70.242l3.413-16.127c0.132-0.527,0.198-1.082,0.198-1.662c0-1.491-0.662-2.236-1.984-2.236
					c-1.389,0-2.553,0.666-3.492,1.999s-1.7,3.41-2.281,6.233l-2.52,11.793h-1.865l6.527-30.79h1.885l-1.964,8.984l-0.813,3.324
					h0.079c1.23-2.269,2.83-3.404,4.801-3.404c1.111,0,1.971,0.32,2.579,0.96c0.608,0.64,0.913,1.56,0.913,2.76
					c0,0.739-0.092,1.537-0.277,2.395l-3.333,15.771H60.263z"/>
				<path fill="#FFFFFF" d="M72.309,70.638c-2.646,0-3.968-1.86-3.968-5.58c0-2.757,0.413-5.487,1.24-8.192
					c0.827-2.704,1.898-4.798,3.214-6.283c1.316-1.484,2.754-2.226,4.315-2.226c1.772,0,2.923,0.99,3.452,2.968h0.119l0.773-2.553
					h1.587l-4.543,21.47h-1.507l0.357-3.087h-0.08C75.761,69.477,74.107,70.638,72.309,70.638z M72.686,68.996
					c1.19,0,2.301-0.686,3.333-2.058c1.032-1.372,1.904-3.376,2.619-6.015c0.714-2.638,1.071-5.125,1.071-7.46
					c0-1.095-0.235-1.922-0.704-2.483c-0.47-0.561-1.128-0.841-1.974-0.841c-1.164,0-2.242,0.669-3.234,2.008
					c-0.992,1.339-1.825,3.301-2.5,5.887c-0.675,2.586-1.012,5.02-1.012,7.302c0,1.201,0.175,2.111,0.525,2.73
					C71.162,68.686,71.787,68.996,72.686,68.996z"/>
				<path fill="#FFFFFF" d="M88.736,68.659v1.583c-0.741,0.264-1.436,0.396-2.083,0.396c-1.68,0-2.52-0.996-2.52-2.988
					c0-0.501,0.086-1.161,0.258-1.979l3.233-15.236h-1.944l0.238-1.108l2.043-0.554l1.587-5.105h1.369l-1.091,5.105h2.837
					l-0.357,1.663H89.47l-3.135,14.702c-0.185,0.844-0.277,1.543-0.277,2.097c0,0.594,0.109,1.019,0.327,1.276
					s0.565,0.386,1.042,0.386C87.836,68.896,88.273,68.817,88.736,68.659z"/>
				<path fill="#FFFFFF" d="M108.541,70.242l0.575-14.544l0.238-4.512c-0.529,1.557-0.886,2.599-1.071,3.126
					c-0.186,0.528-2.222,5.837-6.11,15.929h-2.321l0.397-21.47h1.885l-0.258,12.506c-0.053,2.322-0.198,4.499-0.437,6.53h0.08
					c0.105-0.369,0.367-1.127,0.784-2.275c0.417-1.147,2.562-6.734,6.438-16.76h2.163l-0.317,12.506
					c-0.04,1.188-0.139,2.916-0.298,5.185l-0.079,1.345h0.079l1.19-3.106l6.209-15.929h1.905l-8.65,21.47H108.541z"/>
				<path fill="#FFFFFF" d="M123.504,70.638c-1.416,0-2.5-0.527-3.253-1.583c-0.754-1.056-1.131-2.553-1.131-4.492
					c0-1.873,0.238-3.885,0.714-6.035c0.476-2.15,1.098-3.974,1.865-5.471c0.767-1.497,1.667-2.655,2.698-3.473
					c1.031-0.818,2.182-1.227,3.452-1.227c1.402,0,2.497,0.544,3.283,1.633c0.787,1.088,1.181,2.622,1.181,4.601
					c0,1.833-0.242,3.803-0.724,5.906c-0.483,2.104-1.114,3.912-1.895,5.422c-0.781,1.511-1.693,2.675-2.738,3.493
					C125.912,70.229,124.761,70.638,123.504,70.638z M121.064,64.939c0,2.665,0.893,3.997,2.678,3.997
					c1.177,0,2.262-0.669,3.253-2.008c0.992-1.339,1.802-3.229,2.43-5.669c0.628-2.44,0.942-4.795,0.942-7.064
					c0-2.704-0.919-4.056-2.757-4.056c-1.111,0-2.153,0.646-3.125,1.939c-0.972,1.293-1.785,3.179-2.44,5.659
					C121.392,60.217,121.064,62.618,121.064,64.939z"/>
				<path fill="#FFFFFF" d="M139.867,48.772l-3.214,14.94c-0.238,1.029-0.357,1.919-0.357,2.671c0,1.623,0.622,2.434,1.865,2.434
					c2.764,0,4.728-2.75,5.892-8.251l2.52-11.793h1.865l-4.583,21.47h-1.468l0.159-2.671h-0.08
					c-1.336,2.045-2.916,3.067-4.741,3.067c-2.169,0-3.254-1.306-3.254-3.917c0-1.042,0.132-2.137,0.397-3.285l3.135-14.663H139.867
					z"/>
				<path fill="#FFFFFF" d="M151.039,70.242h-1.865l6.567-30.79h1.885L151.039,70.242z"/>
				<path fill="#FFFFFF" d="M161.182,70.638c-2.646,0-3.968-1.86-3.968-5.58c0-2.757,0.413-5.487,1.24-8.192
					c0.827-2.704,1.898-4.798,3.214-6.283c1.316-1.484,2.754-2.226,4.315-2.226c0.913,0,1.677,0.277,2.292,0.831
					c0.615,0.554,1.002,1.28,1.161,2.177h0.119l2.48-11.912h1.884l-6.547,30.79h-1.507l0.357-3.087h-0.08
					C164.634,69.477,162.98,70.638,161.182,70.638z M161.559,68.996c1.19,0,2.301-0.676,3.333-2.028
					c1.032-1.352,1.904-3.331,2.619-5.936s1.071-5.102,1.071-7.49c0-1.121-0.212-1.969-0.635-2.542
					c-0.423-0.574-1.104-0.861-2.043-0.861c-1.164,0-2.242,0.669-3.234,2.008c-0.992,1.339-1.825,3.301-2.5,5.887
					c-0.675,2.586-1.012,5.02-1.012,7.302c0,1.201,0.175,2.111,0.525,2.73C160.035,68.686,160.66,68.996,161.559,68.996z"/>
				<path fill="#FFFFFF" d="M184.051,70.638c-2.646,0-3.968-1.86-3.968-5.58c0-2.757,0.413-5.487,1.24-8.192
					c0.827-2.704,1.898-4.798,3.214-6.283c1.316-1.484,2.754-2.226,4.315-2.226c1.772,0,2.923,0.99,3.452,2.968h0.119l0.773-2.553
					h1.587l-4.543,21.47h-1.507l0.357-3.087h-0.08C187.503,69.477,185.85,70.638,184.051,70.638z M184.428,68.996
					c1.19,0,2.301-0.686,3.333-2.058c1.032-1.372,1.904-3.376,2.619-6.015c0.714-2.638,1.071-5.125,1.071-7.46
					c0-1.095-0.235-1.922-0.704-2.483c-0.47-0.561-1.128-0.841-1.974-0.841c-1.164,0-2.242,0.669-3.234,2.008
					c-0.992,1.339-1.825,3.301-2.5,5.887c-0.675,2.586-1.012,5.02-1.012,7.302c0,1.201,0.175,2.111,0.525,2.73
					C182.904,68.686,183.529,68.996,184.428,68.996z"/>
				<path fill="#FFFFFF" d="M205.135,70.638c-0.741,0-1.515-0.092-2.321-0.277c-0.807-0.185-1.356-0.389-1.647-0.613v-2.177
					c0.317,0.317,0.85,0.61,1.597,0.88c0.747,0.271,1.498,0.406,2.251,0.406c1.283,0,2.282-0.373,2.996-1.118
					c0.714-0.745,1.071-1.804,1.071-3.176c0-0.58-0.073-1.111-0.218-1.593c-0.146-0.481-0.334-0.927-0.565-1.335
					c-0.232-0.409-0.744-1.049-1.538-1.919c-0.86-0.937-1.442-1.646-1.746-2.127c-0.304-0.481-0.542-0.999-0.714-1.553
					c-0.172-0.554-0.258-1.194-0.258-1.919c0-1.715,0.529-3.103,1.587-4.165s2.427-1.593,4.106-1.593
					c1.799,0,3.247,0.409,4.345,1.227l-1.012,1.702c-0.939-0.765-2.077-1.147-3.412-1.147c-1.084,0-1.981,0.34-2.688,1.019
					c-0.708,0.679-1.062,1.586-1.062,2.721c0,0.778,0.142,1.484,0.426,2.117c0.285,0.633,0.824,1.385,1.617,2.256
					c0.952,1.029,1.597,1.808,1.934,2.335c0.337,0.528,0.605,1.102,0.804,1.722c0.198,0.62,0.297,1.306,0.297,2.058
					c0,2.005-0.506,3.552-1.518,4.64S207.013,70.638,205.135,70.638z"/>
				<path fill="#FFFFFF" d="M218.802,68.659v1.583c-0.741,0.264-1.436,0.396-2.083,0.396c-1.68,0-2.52-0.996-2.52-2.988
					c0-0.501,0.086-1.161,0.258-1.979l3.233-15.236h-1.944l0.238-1.108l2.043-0.554l1.587-5.105h1.369l-1.091,5.105h2.837
					l-0.357,1.663h-2.837l-3.135,14.702c-0.185,0.844-0.277,1.543-0.277,2.097c0,0.594,0.109,1.019,0.327,1.276
					s0.565,0.386,1.042,0.386C217.902,68.896,218.339,68.817,218.802,68.659z"/>
				<path fill="#FFFFFF" d="M231.958,48.357c0.516,0,0.998,0.08,1.448,0.238l-0.516,1.919c-0.396-0.198-0.833-0.297-1.309-0.297
					c-1.125,0-2.169,0.771-3.135,2.315s-1.733,3.654-2.301,6.332l-2.44,11.378h-1.865l4.543-21.47h1.389l-0.576,3.76h0.08
					C228.44,49.749,230.001,48.357,231.958,48.357z"/>
				<path fill="#FFFFFF" d="M236.303,70.638c-1.416,0-2.5-0.527-3.253-1.583c-0.754-1.056-1.131-2.553-1.131-4.492
					c0-1.873,0.238-3.885,0.714-6.035c0.476-2.15,1.098-3.974,1.865-5.471c0.767-1.497,1.667-2.655,2.698-3.473
					c1.031-0.818,2.182-1.227,3.452-1.227c1.401,0,2.496,0.544,3.283,1.633s1.181,2.622,1.181,4.601
					c0,1.833-0.241,3.803-0.725,5.906c-0.482,2.104-1.114,3.912-1.895,5.422c-0.78,1.511-1.693,2.675-2.737,3.493
					C238.71,70.229,237.559,70.638,236.303,70.638z M233.863,64.939c0,2.665,0.893,3.997,2.678,3.997
					c1.177,0,2.262-0.669,3.253-2.008c0.992-1.339,1.802-3.229,2.43-5.669s0.942-4.795,0.942-7.064c0-2.704-0.919-4.056-2.757-4.056
					c-1.111,0-2.153,0.646-3.125,1.939c-0.972,1.293-1.785,3.179-2.44,5.659C234.19,60.217,233.863,62.618,233.863,64.939z"/>
				<path fill="#FFFFFF" d="M254.788,70.242l3.412-16.127c0.133-0.527,0.198-1.082,0.198-1.662c0-1.491-0.661-2.236-1.983-2.236
					c-1.389,0-2.553,0.666-3.491,1.999c-0.939,1.333-1.7,3.41-2.282,6.233l-2.52,11.793h-1.864l4.543-21.47h1.587l-0.496,2.988
					h0.079c1.23-2.269,2.83-3.404,4.802-3.404c1.11,0,1.97,0.32,2.579,0.96c0.607,0.64,0.912,1.56,0.912,2.76
					c0,0.739-0.093,1.537-0.277,2.395l-3.333,15.771H254.788z"/>
				<path fill="#FFFFFF" d="M276.834,48.772l-0.278,1.326l-2.718,0.336c0.396,0.751,0.595,1.695,0.595,2.83
					c0,1.438-0.294,2.918-0.883,4.442c-0.588,1.524-1.368,2.718-2.341,3.582c-0.972,0.864-2.047,1.296-3.224,1.296h-0.496
					l-0.437-0.04c-1.653,1.147-2.479,2.19-2.479,3.126c0,0.304,0.053,0.551,0.158,0.742c0.106,0.191,0.271,0.35,0.496,0.475
					c0.225,0.125,1.005,0.393,2.341,0.801c1.667,0.515,2.838,1.165,3.512,1.949c0.675,0.785,1.012,1.837,1.012,3.156
					c0,2.124-0.701,3.852-2.103,5.184c-1.402,1.333-3.207,1.999-5.416,1.999c-1.746,0-3.099-0.442-4.057-1.326
					c-0.959-0.884-1.438-2.13-1.438-3.74c0-1.385,0.43-2.648,1.289-3.79c0.859-1.141,2.083-2.067,3.67-2.78
					c-0.833-0.554-1.249-1.299-1.249-2.236c0-0.686,0.211-1.352,0.635-1.999c0.423-0.646,1.184-1.358,2.281-2.137
					c-1.138-0.95-1.706-2.328-1.706-4.136c0-1.623,0.327-3.209,0.981-4.759c0.655-1.55,1.481-2.724,2.48-3.522
					c0.998-0.798,2.105-1.197,3.323-1.197c0.846,0,1.494,0.139,1.943,0.416H276.834z M260.863,74.773c0,1.293,0.327,2.226,0.982,2.8
					c0.654,0.574,1.616,0.861,2.886,0.861c1.614,0,2.953-0.488,4.018-1.464s1.598-2.249,1.598-3.819
					c0-0.844-0.269-1.577-0.804-2.196c-0.536-0.62-1.353-1.088-2.45-1.405l-1.785-0.475c-1.271,0.422-2.328,1.167-3.175,2.236
					C261.286,72.379,260.863,73.533,260.863,74.773z M265.823,58.132c0,0.976,0.188,1.718,0.565,2.226s0.922,0.762,1.637,0.762
					c0.819,0,1.563-0.346,2.231-1.039c0.668-0.692,1.221-1.734,1.656-3.126c0.437-1.392,0.655-2.728,0.655-4.007
					c0-2.031-0.714-3.047-2.143-3.047c-0.807,0-1.551,0.37-2.232,1.108c-0.681,0.739-1.246,1.824-1.696,3.255
					C266.048,55.695,265.823,56.984,265.823,58.132z"/>
				<path fill="#FFFFFF" d="M281.157,70.638c-1.587,0-2.823-0.55-3.709-1.652c-0.887-1.102-1.33-2.642-1.33-4.621
					c0-2.823,0.4-5.471,1.201-7.945c0.8-2.473,1.884-4.436,3.253-5.887c1.369-1.451,2.808-2.177,4.315-2.177
					c1.15,0,2.04,0.333,2.668,1s0.942,1.672,0.942,3.018c0,1.623-0.394,3.041-1.181,4.254c-0.787,1.214-1.911,2.117-3.372,2.711
					c-1.462,0.594-3.204,0.89-5.228,0.89h-0.238c-0.277,1.306-0.417,2.619-0.417,3.938c0,3.179,1.217,4.769,3.65,4.769
					c0.622,0,1.207-0.085,1.756-0.257s1.174-0.462,1.875-0.871v1.9C284.232,70.328,282.837,70.638,281.157,70.638z M284.57,50.099
					c-1.178,0-2.295,0.778-3.354,2.335c-1.058,1.557-1.891,3.614-2.499,6.173c5.277,0,7.915-2.09,7.915-6.272
					c0-0.699-0.148-1.247-0.446-1.643C285.89,50.296,285.351,50.099,284.57,50.099z"/>
				<path fill="#FFFFFF" d="M299.525,48.357c0.516,0,0.999,0.08,1.448,0.238l-0.516,1.919c-0.396-0.198-0.833-0.297-1.31-0.297
					c-1.124,0-2.169,0.771-3.134,2.315c-0.966,1.543-1.733,3.654-2.302,6.332l-2.44,11.378h-1.864l4.543-21.47h1.389l-0.575,3.76
					h0.079C296.008,49.749,297.568,48.357,299.525,48.357z"/>
				<path fill="#FFFFFF" d="M316.754,48.357c0.516,0,0.999,0.08,1.448,0.238l-0.516,1.919c-0.396-0.198-0.833-0.297-1.31-0.297
					c-1.124,0-2.169,0.771-3.134,2.315c-0.966,1.543-1.733,3.654-2.302,6.332l-2.44,11.378h-1.864l4.543-21.47h1.389l-0.575,3.76
					h0.079C313.236,49.749,314.797,48.357,316.754,48.357z"/>
				<path fill="#FFFFFF" d="M321.753,70.638c-1.587,0-2.823-0.55-3.709-1.652c-0.887-1.102-1.33-2.642-1.33-4.621
					c0-2.823,0.4-5.471,1.201-7.945c0.8-2.473,1.884-4.436,3.253-5.887c1.369-1.451,2.808-2.177,4.315-2.177
					c1.15,0,2.04,0.333,2.668,1s0.942,1.672,0.942,3.018c0,1.623-0.394,3.041-1.181,4.254c-0.787,1.214-1.911,2.117-3.372,2.711
					c-1.462,0.594-3.204,0.89-5.228,0.89h-0.238c-0.277,1.306-0.417,2.619-0.417,3.938c0,3.179,1.217,4.769,3.65,4.769
					c0.622,0,1.207-0.085,1.756-0.257s1.174-0.462,1.875-0.871v1.9C324.828,70.328,323.433,70.638,321.753,70.638z M325.166,50.099
					c-1.178,0-2.295,0.778-3.354,2.335c-1.058,1.557-1.891,3.614-2.499,6.173c5.277,0,7.915-2.09,7.915-6.272
					c0-0.699-0.148-1.247-0.446-1.643C326.485,50.296,325.946,50.099,325.166,50.099z"/>
				<path fill="#FFFFFF" d="M331.868,70.242h-1.864l6.566-30.79h1.885L331.868,70.242z"/>
				<path fill="#FFFFFF" d="M342.011,70.638c-2.645,0-3.968-1.86-3.968-5.58c0-2.757,0.414-5.487,1.24-8.192
					c0.826-2.704,1.897-4.798,3.214-6.283c1.316-1.484,2.754-2.226,4.315-2.226c1.771,0,2.923,0.99,3.451,2.968h0.119l0.774-2.553
					h1.587l-4.543,21.47h-1.508l0.356-3.087h-0.079C345.463,69.477,343.81,70.638,342.011,70.638z M342.388,68.996
					c1.19,0,2.302-0.686,3.333-2.058c1.032-1.372,1.905-3.376,2.619-6.015c0.714-2.638,1.071-5.125,1.071-7.46
					c0-1.095-0.235-1.922-0.704-2.483c-0.47-0.561-1.128-0.841-1.975-0.841c-1.163,0-2.241,0.669-3.233,2.008
					s-1.825,3.301-2.5,5.887c-0.674,2.586-1.012,5.02-1.012,7.302c0,1.201,0.176,2.111,0.526,2.73
					C340.863,68.686,341.488,68.996,342.388,68.996z"/>
				<path fill="#FFFFFF" d="M358.438,68.659v1.583c-0.74,0.264-1.435,0.396-2.083,0.396c-1.68,0-2.52-0.996-2.52-2.988
					c0-0.501,0.086-1.161,0.258-1.979l3.234-15.236h-1.944l0.238-1.108l2.043-0.554l1.587-5.105h1.369l-1.091,5.105h2.837
					l-0.357,1.663h-2.837l-3.135,14.702c-0.186,0.844-0.277,1.543-0.277,2.097c0,0.594,0.109,1.019,0.327,1.276
					s0.565,0.386,1.042,0.386C357.539,68.896,357.976,68.817,358.438,68.659z"/>
				<path fill="#FFFFFF" d="M363.263,70.242h-1.865l4.583-21.47h1.865L363.263,70.242z M366.913,43.41
					c0-0.673,0.152-1.253,0.456-1.741c0.305-0.488,0.694-0.732,1.171-0.732c0.621,0,0.933,0.382,0.933,1.147
					c0,0.752-0.146,1.372-0.437,1.86c-0.291,0.488-0.675,0.732-1.151,0.732C367.237,44.677,366.913,44.254,366.913,43.41z"/>
				<path fill="#FFFFFF" d="M373.901,70.638c-1.415,0-2.5-0.527-3.254-1.583c-0.754-1.056-1.131-2.553-1.131-4.492
					c0-1.873,0.238-3.885,0.715-6.035c0.476-2.15,1.098-3.974,1.864-5.471c0.768-1.497,1.667-2.655,2.698-3.473
					c1.032-0.818,2.183-1.227,3.452-1.227c1.401,0,2.496,0.544,3.283,1.633s1.181,2.622,1.181,4.601
					c0,1.833-0.241,3.803-0.725,5.906c-0.482,2.104-1.114,3.912-1.895,5.422c-0.78,1.511-1.692,2.675-2.737,3.493
					S375.158,70.638,373.901,70.638z M371.461,64.939c0,2.665,0.894,3.997,2.679,3.997c1.177,0,2.262-0.669,3.254-2.008
					c0.991-1.339,1.802-3.229,2.43-5.669s0.942-4.795,0.942-7.064c0-2.704-0.919-4.056-2.758-4.056c-1.11,0-2.152,0.646-3.124,1.939
					c-0.973,1.293-1.786,3.179-2.44,5.659C371.789,60.217,371.461,62.618,371.461,64.939z"/>
				<path fill="#FFFFFF" d="M392.386,70.242l3.412-16.127c0.133-0.527,0.198-1.082,0.198-1.662c0-1.491-0.661-2.236-1.983-2.236
					c-1.389,0-2.553,0.666-3.491,1.999c-0.939,1.333-1.7,3.41-2.282,6.233l-2.52,11.793h-1.864l4.543-21.47h1.587l-0.496,2.988
					h0.079c1.23-2.269,2.83-3.404,4.802-3.404c1.11,0,1.97,0.32,2.579,0.96c0.607,0.64,0.912,1.56,0.912,2.76
					c0,0.739-0.093,1.537-0.277,2.395l-3.333,15.771H392.386z"/>
				<path fill="#FFFFFF" d="M402.688,70.638c-0.741,0-1.515-0.092-2.321-0.277s-1.355-0.389-1.646-0.613v-2.177
					c0.317,0.317,0.85,0.61,1.597,0.88c0.747,0.271,1.498,0.406,2.252,0.406c1.283,0,2.281-0.373,2.996-1.118
					c0.714-0.745,1.071-1.804,1.071-3.176c0-0.58-0.073-1.111-0.219-1.593c-0.146-0.481-0.334-0.927-0.565-1.335
					s-0.743-1.049-1.537-1.919c-0.86-0.937-1.441-1.646-1.746-2.127c-0.304-0.481-0.542-0.999-0.714-1.553s-0.258-1.194-0.258-1.919
					c0-1.715,0.528-3.103,1.587-4.165c1.058-1.062,2.427-1.593,4.106-1.593c1.799,0,3.247,0.409,4.345,1.227l-1.012,1.702
					c-0.939-0.765-2.076-1.147-3.412-1.147c-1.085,0-1.98,0.34-2.688,1.019c-0.707,0.679-1.062,1.586-1.062,2.721
					c0,0.778,0.143,1.484,0.427,2.117s0.823,1.385,1.617,2.256c0.952,1.029,1.597,1.808,1.935,2.335
					c0.337,0.528,0.604,1.102,0.803,1.722s0.298,1.306,0.298,2.058c0,2.005-0.506,3.552-1.518,4.64S404.565,70.638,402.688,70.638z"
					/>
				<path fill="#FFFFFF" d="M419.846,70.242l3.412-16.127c0.132-0.527,0.198-1.082,0.198-1.662c0-1.491-0.661-2.236-1.983-2.236
					c-1.389,0-2.553,0.666-3.492,1.999s-1.699,3.41-2.281,6.233l-2.52,11.793h-1.865l6.527-30.79h1.885l-1.964,8.984l-0.813,3.324
					h0.079c1.23-2.269,2.83-3.404,4.801-3.404c1.111,0,1.971,0.32,2.579,0.96c0.608,0.64,0.913,1.56,0.913,2.76
					c0,0.739-0.093,1.537-0.278,2.395l-3.333,15.771H419.846z"/>
				<path fill="#FFFFFF" d="M428.777,70.242h-1.865l4.583-21.47h1.865L428.777,70.242z M432.428,43.41
					c0-0.673,0.152-1.253,0.456-1.741c0.305-0.488,0.694-0.732,1.171-0.732c0.621,0,0.933,0.382,0.933,1.147
					c0,0.752-0.146,1.372-0.437,1.86c-0.291,0.488-0.675,0.732-1.151,0.732C432.752,44.677,432.428,44.254,432.428,43.41z"/>
				<path fill="#FFFFFF" d="M444.851,48.357c2.659,0,3.988,1.867,3.988,5.6c0,2.77-0.417,5.504-1.25,8.202s-1.904,4.785-3.214,6.263
					s-2.745,2.216-4.306,2.216c-0.899,0-1.659-0.271-2.281-0.811c-0.621-0.541-1.012-1.267-1.17-2.177h-0.119l-2.48,11.912h-1.885
					l6.547-30.79h1.627l-0.496,3.067h0.1C441.419,49.518,443.065,48.357,444.851,48.357z M444.494,50.02
					c-1.243,0-2.388,0.689-3.433,2.067c-1.045,1.379-1.904,3.318-2.579,5.818c-0.674,2.5-1.012,4.95-1.012,7.351
					c0,2.454,0.893,3.68,2.679,3.68c1.163,0,2.245-0.683,3.243-2.048c0.999-1.365,1.832-3.341,2.5-5.926s1.002-5.02,1.002-7.302
					c0-1.2-0.176-2.107-0.526-2.721S445.394,50.02,444.494,50.02z"/>
			</g>
		</g>
		<g>
			<g>
				<g>
					<path fill="#FFFFFF" d="M37.048,96.99c2.658,0,3.987,1.867,3.987,5.6c0,2.783-0.417,5.524-1.25,8.222
						c-0.833,2.698-1.908,4.782-3.224,6.253s-2.748,2.206-4.295,2.206c-0.9,0-1.66-0.271-2.282-0.812
						c-0.622-0.54-1.012-1.266-1.17-2.176h-0.139l-0.893,2.592h-1.448l6.487-30.79h1.885l-2.361,10.982l-0.417,1.603h0.08
						c0.688-1.2,1.468-2.114,2.341-2.741C35.223,97.303,36.122,96.99,37.048,96.99z M36.69,98.652c-1.243,0-2.387,0.689-3.432,2.067
						c-1.045,1.379-1.904,3.318-2.579,5.817c-0.674,2.5-1.012,4.95-1.012,7.352c0,2.453,0.893,3.681,2.678,3.681
						c1.164,0,2.245-0.683,3.244-2.048c0.999-1.366,1.832-3.341,2.5-5.927c0.667-2.586,1.001-5.02,1.001-7.302
						c0-1.2-0.175-2.107-0.525-2.721C38.215,98.959,37.59,98.652,36.69,98.652z"/>
					<path fill="#FFFFFF" d="M48.074,119.271c-1.587,0-2.824-0.551-3.71-1.652c-0.886-1.101-1.329-2.642-1.329-4.62
						c0-2.823,0.4-5.472,1.2-7.944c0.8-2.474,1.885-4.436,3.253-5.887c1.369-1.451,2.808-2.177,4.315-2.177
						c1.151,0,2.04,0.333,2.668,1c0.628,0.666,0.942,1.672,0.942,3.018c0,1.623-0.394,3.041-1.18,4.254
						c-0.787,1.214-1.912,2.118-3.373,2.711c-1.461,0.594-3.204,0.891-5.228,0.891h-0.238c-0.278,1.307-0.417,2.619-0.417,3.938
						c0,3.18,1.216,4.77,3.65,4.77c0.621,0,1.207-0.086,1.755-0.258c0.549-0.171,1.174-0.461,1.875-0.87v1.899
						C51.149,118.961,49.754,119.271,48.074,119.271z M51.486,98.731c-1.177,0-2.294,0.778-3.353,2.335s-1.892,3.614-2.5,6.174
						c5.277,0,7.916-2.091,7.916-6.273c0-0.699-0.149-1.247-0.446-1.643C52.806,98.929,52.267,98.731,51.486,98.731z"/>
					<path fill="#FFFFFF" d="M61.403,117.292v1.583c-0.741,0.264-1.436,0.396-2.083,0.396c-1.68,0-2.52-0.996-2.52-2.987
						c0-0.502,0.086-1.161,0.258-1.979l3.233-15.236h-1.944l0.238-1.108l2.043-0.554l1.587-5.105h1.369l-1.091,5.105h2.837
						l-0.357,1.663h-2.837l-3.135,14.702c-0.185,0.845-0.277,1.544-0.277,2.098c0,0.594,0.109,1.02,0.327,1.276
						s0.565,0.386,1.042,0.386C60.503,117.529,60.94,117.45,61.403,117.292z"/>
					<path fill="#FFFFFF" d="M75.075,118.875l0.575-14.544l0.238-4.512c-0.529,1.558-0.886,2.6-1.071,3.127
						c-0.186,0.527-2.222,5.837-6.11,15.929h-2.321l0.397-21.47h1.885l-0.258,12.506c-0.053,2.322-0.198,4.499-0.437,6.53h0.08
						c0.105-0.369,0.367-1.128,0.784-2.275c0.417-1.148,2.562-6.734,6.438-16.761h2.163l-0.317,12.506
						c-0.04,1.188-0.139,2.916-0.298,5.185l-0.079,1.346h0.079l1.19-3.106l6.209-15.93h1.905l-8.65,21.47H75.075z"/>
					<path fill="#FFFFFF" d="M90.693,119.271c-1.587,0-2.824-0.551-3.71-1.652c-0.886-1.101-1.329-2.642-1.329-4.62
						c0-2.823,0.4-5.472,1.2-7.944c0.8-2.474,1.885-4.436,3.253-5.887c1.369-1.451,2.808-2.177,4.315-2.177
						c1.151,0,2.04,0.333,2.668,1c0.628,0.666,0.942,1.672,0.942,3.018c0,1.623-0.394,3.041-1.18,4.254
						c-0.787,1.214-1.912,2.118-3.373,2.711c-1.461,0.594-3.204,0.891-5.228,0.891h-0.238c-0.278,1.307-0.417,2.619-0.417,3.938
						c0,3.18,1.216,4.77,3.65,4.77c0.621,0,1.207-0.086,1.755-0.258c0.549-0.171,1.174-0.461,1.875-0.87v1.899
						C93.768,118.961,92.373,119.271,90.693,119.271z M94.105,98.731c-1.177,0-2.294,0.778-3.353,2.335s-1.892,3.614-2.5,6.174
						c5.277,0,7.916-2.091,7.916-6.273c0-0.699-0.149-1.247-0.446-1.643C95.424,98.929,94.885,98.731,94.105,98.731z"/>
					<path fill="#FFFFFF" d="M104.915,119.271c-1.587,0-2.824-0.551-3.71-1.652c-0.886-1.101-1.329-2.642-1.329-4.62
						c0-2.823,0.4-5.472,1.2-7.944c0.8-2.474,1.885-4.436,3.253-5.887c1.369-1.451,2.808-2.177,4.315-2.177
						c1.151,0,2.04,0.333,2.668,1c0.628,0.666,0.942,1.672,0.942,3.018c0,1.623-0.394,3.041-1.18,4.254
						c-0.787,1.214-1.912,2.118-3.373,2.711c-1.461,0.594-3.204,0.891-5.228,0.891h-0.238c-0.278,1.307-0.417,2.619-0.417,3.938
						c0,3.18,1.216,4.77,3.65,4.77c0.621,0,1.207-0.086,1.755-0.258c0.549-0.171,1.174-0.461,1.875-0.87v1.899
						C107.99,118.961,106.594,119.271,104.915,119.271z M108.327,98.731c-1.177,0-2.294,0.778-3.353,2.335s-1.892,3.614-2.5,6.174
						c5.277,0,7.916-2.091,7.916-6.273c0-0.699-0.149-1.247-0.446-1.643C109.646,98.929,109.107,98.731,108.327,98.731z"/>
					<path fill="#FFFFFF" d="M121.695,118.875l3.413-16.127c0.132-0.527,0.198-1.082,0.198-1.662c0-1.491-0.662-2.236-1.984-2.236
						c-1.389,0-2.553,0.666-3.492,1.999c-0.939,1.332-1.7,3.41-2.281,6.233l-2.52,11.793h-1.865l4.543-21.47h1.587l-0.496,2.988
						h0.08c1.23-2.269,2.83-3.404,4.801-3.404c1.111,0,1.971,0.32,2.579,0.96c0.608,0.64,0.913,1.56,0.913,2.76
						c0,0.739-0.093,1.537-0.278,2.395l-3.333,15.771H121.695z"/>
					<path fill="#FFFFFF" d="M140.402,119.271c-2.646,0-3.968-1.859-3.968-5.58c0-2.757,0.413-5.487,1.24-8.191
						s1.898-4.799,3.214-6.283c1.316-1.484,2.754-2.226,4.315-2.226c0.913,0,1.677,0.277,2.292,0.831
						c0.615,0.554,1.002,1.28,1.161,2.177h0.119l2.48-11.912h1.884l-6.547,30.79h-1.507l0.357-3.087h-0.08
						C143.854,118.11,142.201,119.271,140.402,119.271z M140.779,117.628c1.19,0,2.301-0.676,3.333-2.027
						c1.032-1.353,1.904-3.331,2.619-5.937s1.071-5.102,1.071-7.49c0-1.121-0.212-1.968-0.635-2.542
						c-0.423-0.574-1.104-0.861-2.043-0.861c-1.164,0-2.242,0.669-3.234,2.008c-0.992,1.339-1.825,3.302-2.5,5.887
						c-0.675,2.586-1.012,5.02-1.012,7.302c0,1.2,0.175,2.11,0.525,2.73S139.88,117.628,140.779,117.628z"/>
					<path fill="#FFFFFF" d="M157.723,119.271c-1.587,0-2.824-0.551-3.71-1.652c-0.886-1.101-1.329-2.642-1.329-4.62
						c0-2.823,0.4-5.472,1.2-7.944c0.8-2.474,1.885-4.436,3.253-5.887c1.369-1.451,2.808-2.177,4.315-2.177
						c1.151,0,2.04,0.333,2.668,1c0.628,0.666,0.942,1.672,0.942,3.018c0,1.623-0.394,3.041-1.18,4.254
						c-0.787,1.214-1.912,2.118-3.373,2.711c-1.461,0.594-3.204,0.891-5.228,0.891h-0.238c-0.278,1.307-0.417,2.619-0.417,3.938
						c0,3.18,1.216,4.77,3.65,4.77c0.621,0,1.207-0.086,1.755-0.258c0.549-0.171,1.174-0.461,1.875-0.87v1.899
						C160.798,118.961,159.402,119.271,157.723,119.271z M161.135,98.731c-1.177,0-2.294,0.778-3.353,2.335s-1.892,3.614-2.5,6.174
						c5.277,0,7.916-2.091,7.916-6.273c0-0.699-0.149-1.247-0.446-1.643C162.454,98.929,161.915,98.731,161.135,98.731z"/>
					<path fill="#FFFFFF" d="M169.087,119.271c-0.741,0-1.515-0.092-2.321-0.276c-0.807-0.185-1.356-0.39-1.647-0.614v-2.176
						c0.317,0.316,0.85,0.61,1.597,0.88c0.747,0.271,1.498,0.406,2.251,0.406c1.283,0,2.282-0.373,2.996-1.118
						c0.714-0.745,1.071-1.804,1.071-3.176c0-0.581-0.073-1.111-0.218-1.593c-0.146-0.481-0.334-0.927-0.565-1.336
						c-0.232-0.409-0.744-1.049-1.538-1.92c-0.86-0.937-1.442-1.646-1.746-2.127s-0.542-0.999-0.714-1.553
						c-0.172-0.555-0.258-1.194-0.258-1.92c0-1.715,0.529-3.103,1.587-4.165s2.427-1.593,4.106-1.593
						c1.799,0,3.247,0.409,4.345,1.227l-1.012,1.702c-0.939-0.765-2.077-1.147-3.412-1.147c-1.084,0-1.981,0.34-2.688,1.019
						c-0.708,0.679-1.062,1.587-1.062,2.721c0,0.778,0.142,1.484,0.426,2.117c0.285,0.633,0.824,1.385,1.617,2.256
						c0.952,1.029,1.597,1.808,1.934,2.335s0.605,1.102,0.804,1.722c0.198,0.62,0.297,1.306,0.297,2.058
						c0,2.006-0.506,3.552-1.518,4.641C172.41,118.727,170.965,119.271,169.087,119.271z"/>
					<path fill="#FFFFFF" d="M179.461,118.875h-1.865l4.583-21.47h1.865L179.461,118.875z M183.111,92.043
						c0-0.673,0.152-1.253,0.456-1.741c0.304-0.488,0.694-0.732,1.171-0.732c0.621,0,0.932,0.382,0.932,1.147
						c0,0.752-0.146,1.372-0.437,1.86c-0.291,0.488-0.674,0.732-1.15,0.732C183.435,93.31,183.111,92.887,183.111,92.043z"/>
					<path fill="#FFFFFF" d="M199.642,97.405l-0.278,1.326l-2.718,0.336c0.397,0.751,0.595,1.695,0.595,2.83
						c0,1.438-0.294,2.919-0.883,4.442c-0.589,1.523-1.369,2.718-2.341,3.581c-0.972,0.864-2.047,1.296-3.224,1.296h-0.496
						l-0.436-0.039c-1.654,1.147-2.48,2.189-2.48,3.126c0,0.304,0.053,0.552,0.159,0.742c0.105,0.191,0.271,0.35,0.496,0.476
						c0.225,0.125,1.005,0.393,2.341,0.801c1.667,0.515,2.837,1.164,3.511,1.949c0.675,0.785,1.012,1.837,1.012,3.156
						c0,2.124-0.701,3.852-2.103,5.185c-1.402,1.332-3.208,1.998-5.416,1.998c-1.746,0-3.098-0.442-4.057-1.325
						c-0.959-0.885-1.438-2.131-1.438-3.74c0-1.385,0.43-2.648,1.29-3.789c0.86-1.142,2.083-2.068,3.67-2.78
						c-0.833-0.555-1.25-1.3-1.25-2.236c0-0.686,0.211-1.352,0.635-1.998s1.184-1.359,2.282-2.138
						c-1.138-0.949-1.706-2.328-1.706-4.136c0-1.622,0.327-3.208,0.982-4.759c0.655-1.55,1.481-2.724,2.48-3.522
						c0.998-0.798,2.106-1.197,3.323-1.197c0.846,0,1.495,0.139,1.944,0.416H199.642z M183.671,123.406
						c0,1.293,0.327,2.227,0.982,2.8c0.655,0.574,1.617,0.861,2.887,0.861c1.613,0,2.953-0.488,4.017-1.465
						c1.065-0.977,1.597-2.249,1.597-3.818c0-0.845-0.268-1.577-0.803-2.197s-1.353-1.088-2.45-1.404l-1.786-0.475
						c-1.27,0.422-2.328,1.167-3.174,2.235C184.095,121.012,183.671,122.166,183.671,123.406z M188.631,106.765
						c0,0.977,0.188,1.719,0.565,2.227c0.376,0.508,0.922,0.762,1.636,0.762c0.82,0,1.564-0.347,2.232-1.039s1.22-1.734,1.657-3.126
						s0.655-2.728,0.655-4.008c0-2.031-0.714-3.047-2.143-3.047c-0.807,0-1.551,0.37-2.232,1.108
						c-0.682,0.739-1.247,1.823-1.696,3.255S188.631,105.617,188.631,106.765z"/>
					<path fill="#FFFFFF" d="M206.525,118.875l3.413-16.127c0.132-0.527,0.198-1.082,0.198-1.662c0-1.491-0.662-2.236-1.984-2.236
						c-1.389,0-2.553,0.666-3.492,1.999c-0.939,1.332-1.7,3.41-2.281,6.233l-2.52,11.793h-1.865l4.543-21.47h1.587l-0.496,2.988
						h0.08c1.23-2.269,2.83-3.404,4.801-3.404c1.111,0,1.971,0.32,2.579,0.96c0.608,0.64,0.913,1.56,0.913,2.76
						c0,0.739-0.093,1.537-0.278,2.395l-3.333,15.771H206.525z"/>
					<path fill="#FFFFFF" d="M225.232,119.271c-2.646,0-3.968-1.859-3.968-5.58c0-2.757,0.413-5.487,1.24-8.191
						s1.898-4.799,3.214-6.283c1.316-1.484,2.754-2.226,4.315-2.226c1.772,0,2.923,0.99,3.452,2.968h0.119l0.773-2.553h1.587
						l-4.543,21.47h-1.507l0.357-3.087h-0.08C228.684,118.11,227.03,119.271,225.232,119.271z M225.609,117.628
						c1.19,0,2.301-0.686,3.333-2.058s1.904-3.377,2.619-6.016c0.714-2.638,1.071-5.125,1.071-7.46c0-1.095-0.235-1.922-0.704-2.483
						c-0.47-0.561-1.128-0.841-1.974-0.841c-1.164,0-2.242,0.669-3.234,2.008c-0.992,1.339-1.825,3.302-2.5,5.887
						c-0.675,2.586-1.012,5.02-1.012,7.302c0,1.2,0.175,2.11,0.525,2.73S224.709,117.628,225.609,117.628z"/>
					<path fill="#FFFFFF" d="M245.111,118.875l3.412-16.127c0.133-0.527,0.198-1.082,0.198-1.662c0-1.491-0.661-2.236-1.983-2.236
						c-1.389,0-2.553,0.666-3.491,1.999c-0.939,1.332-1.7,3.41-2.282,6.233l-2.52,11.793h-1.865l4.543-21.47h1.587l-0.496,2.988
						h0.079c1.23-2.269,2.83-3.404,4.802-3.404c1.11,0,1.97,0.32,2.579,0.96c0.607,0.64,0.912,1.56,0.912,2.76
						c0,0.739-0.093,1.537-0.277,2.395l-3.333,15.771H245.111z"/>
					<path fill="#FFFFFF" d="M257.197,119.271c-2.645,0-3.968-1.859-3.968-5.58c0-2.757,0.414-5.487,1.24-8.191
						s1.897-4.799,3.214-6.283c1.316-1.484,2.754-2.226,4.315-2.226c0.912,0,1.676,0.277,2.291,0.831
						c0.615,0.554,1.002,1.28,1.16,2.177h0.119l2.48-11.912h1.885l-6.547,30.79h-1.508l0.356-3.087h-0.079
						C260.649,118.11,258.996,119.271,257.197,119.271z M257.574,117.628c1.19,0,2.302-0.676,3.333-2.027
						c1.032-1.353,1.905-3.331,2.619-5.937s1.071-5.102,1.071-7.49c0-1.121-0.212-1.968-0.635-2.542
						c-0.424-0.574-1.104-0.861-2.044-0.861c-1.163,0-2.241,0.669-3.233,2.008s-1.825,3.302-2.5,5.887
						c-0.674,2.586-1.012,5.02-1.012,7.302c0,1.2,0.176,2.11,0.526,2.73C256.05,117.318,256.675,117.628,257.574,117.628z"/>
					<path fill="#FFFFFF" d="M280.246,117.292v1.583c-0.74,0.264-1.435,0.396-2.083,0.396c-1.68,0-2.52-0.996-2.52-2.987
						c0-0.502,0.086-1.161,0.258-1.979l3.234-15.236h-1.944l0.238-1.108l2.043-0.554l1.587-5.105h1.369l-1.091,5.105h2.837
						l-0.357,1.663h-2.837l-3.135,14.702c-0.186,0.845-0.277,1.544-0.277,2.098c0,0.594,0.109,1.02,0.327,1.276
						s0.565,0.386,1.042,0.386C279.347,117.529,279.783,117.45,280.246,117.292z"/>
					<path fill="#FFFFFF" d="M289.255,119.271c-1.587,0-2.823-0.551-3.709-1.652c-0.887-1.101-1.33-2.642-1.33-4.62
						c0-2.823,0.4-5.472,1.201-7.944c0.8-2.474,1.884-4.436,3.253-5.887c1.369-1.451,2.808-2.177,4.315-2.177
						c1.15,0,2.04,0.333,2.668,1s0.942,1.672,0.942,3.018c0,1.623-0.394,3.041-1.181,4.254c-0.787,1.214-1.911,2.118-3.372,2.711
						c-1.462,0.594-3.204,0.891-5.228,0.891h-0.238c-0.277,1.307-0.417,2.619-0.417,3.938c0,3.18,1.217,4.77,3.65,4.77
						c0.622,0,1.207-0.086,1.756-0.258c0.549-0.171,1.174-0.461,1.875-0.87v1.899C292.33,118.961,290.935,119.271,289.255,119.271z
						 M292.668,98.731c-1.178,0-2.295,0.778-3.354,2.335c-1.058,1.557-1.891,3.614-2.499,6.174c5.277,0,7.915-2.091,7.915-6.273
						c0-0.699-0.148-1.247-0.446-1.643C293.987,98.929,293.448,98.731,292.668,98.731z"/>
					<path fill="#FFFFFF" d="M303.18,119.271c-1.534,0-2.708-0.527-3.521-1.583c-0.813-1.055-1.221-2.579-1.221-4.57
						c0-2.862,0.417-5.591,1.25-8.183c0.834-2.592,1.911-4.564,3.234-5.917c1.322-1.352,2.804-2.028,4.443-2.028
						c1.138,0,2.09,0.218,2.857,0.653l-0.774,1.702c-0.701-0.382-1.448-0.574-2.241-0.574c-1.218,0-2.331,0.64-3.343,1.919
						c-1.012,1.279-1.846,3.106-2.5,5.48c-0.654,2.375-0.982,4.703-0.982,6.985c0,2.942,1.059,4.413,3.175,4.413
						c0.833,0,1.778-0.264,2.837-0.792v1.702C305.401,119.007,304.33,119.271,303.18,119.271z"/>
					<path fill="#FFFFFF" d="M317.741,118.875l3.412-16.127c0.132-0.527,0.198-1.082,0.198-1.662c0-1.491-0.661-2.236-1.983-2.236
						c-1.389,0-2.553,0.666-3.492,1.999c-0.939,1.332-1.699,3.41-2.281,6.233l-2.52,11.793h-1.865l6.527-30.79h1.885l-1.964,8.984
						l-0.813,3.324h0.079c1.23-2.269,2.83-3.404,4.801-3.404c1.111,0,1.971,0.32,2.579,0.96c0.608,0.64,0.913,1.56,0.913,2.76
						c0,0.739-0.093,1.537-0.278,2.395l-3.333,15.771H317.741z"/>
					<path fill="#FFFFFF" d="M333.418,118.875l3.412-16.127c0.133-0.527,0.198-1.082,0.198-1.662c0-1.491-0.661-2.236-1.983-2.236
						c-1.389,0-2.553,0.666-3.491,1.999c-0.939,1.332-1.7,3.41-2.282,6.233l-2.52,11.793h-1.864l4.543-21.47h1.587l-0.496,2.988
						h0.079c1.23-2.269,2.83-3.404,4.802-3.404c1.11,0,1.97,0.32,2.579,0.96c0.607,0.64,0.912,1.56,0.912,2.76
						c0,0.739-0.093,1.537-0.277,2.395l-3.333,15.771H333.418z"/>
					<path fill="#FFFFFF" d="M345.921,119.271c-1.415,0-2.5-0.527-3.254-1.583c-0.754-1.055-1.131-2.553-1.131-4.491
						c0-1.873,0.238-3.885,0.715-6.035c0.476-2.15,1.098-3.975,1.864-5.472c0.768-1.497,1.667-2.655,2.698-3.473
						c1.032-0.818,2.183-1.227,3.452-1.227c1.401,0,2.496,0.544,3.283,1.633s1.181,2.622,1.181,4.6c0,1.834-0.241,3.803-0.725,5.907
						c-0.482,2.104-1.114,3.911-1.895,5.422s-1.692,2.675-2.737,3.492C348.328,118.862,347.178,119.271,345.921,119.271z
						 M343.48,113.572c0,2.664,0.894,3.997,2.679,3.997c1.177,0,2.262-0.67,3.254-2.009c0.991-1.339,1.802-3.229,2.43-5.669
						s0.942-4.795,0.942-7.064c0-2.704-0.919-4.056-2.758-4.056c-1.11,0-2.152,0.646-3.124,1.939
						c-0.973,1.293-1.786,3.18-2.44,5.659C343.809,108.85,343.48,111.25,343.48,113.572z"/>
					<path fill="#FFFFFF" d="M357.74,118.875h-1.864l6.566-30.79h1.885L357.74,118.875z"/>
					<path fill="#FFFFFF" d="M368.3,119.271c-1.415,0-2.5-0.527-3.254-1.583c-0.754-1.055-1.131-2.553-1.131-4.491
						c0-1.873,0.238-3.885,0.715-6.035c0.476-2.15,1.098-3.975,1.864-5.472c0.768-1.497,1.667-2.655,2.698-3.473
						c1.032-0.818,2.183-1.227,3.452-1.227c1.401,0,2.496,0.544,3.283,1.633s1.181,2.622,1.181,4.6c0,1.834-0.241,3.803-0.725,5.907
						c-0.482,2.104-1.114,3.911-1.895,5.422s-1.692,2.675-2.737,3.492C370.707,118.862,369.557,119.271,368.3,119.271z
						 M365.859,113.572c0,2.664,0.894,3.997,2.679,3.997c1.177,0,2.262-0.67,3.254-2.009c0.991-1.339,1.802-3.229,2.43-5.669
						s0.942-4.795,0.942-7.064c0-2.704-0.919-4.056-2.758-4.056c-1.11,0-2.152,0.646-3.124,1.939
						c-0.973,1.293-1.786,3.18-2.44,5.659C366.188,108.85,365.859,111.25,365.859,113.572z"/>
					<path fill="#FFFFFF" d="M393.114,97.405l-0.278,1.326l-2.718,0.336c0.396,0.751,0.595,1.695,0.595,2.83
						c0,1.438-0.294,2.919-0.883,4.442c-0.588,1.523-1.368,2.718-2.341,3.581c-0.972,0.864-2.047,1.296-3.224,1.296h-0.496
						l-0.437-0.039c-1.653,1.147-2.479,2.189-2.479,3.126c0,0.304,0.053,0.552,0.158,0.742c0.106,0.191,0.271,0.35,0.496,0.476
						c0.225,0.125,1.005,0.393,2.341,0.801c1.667,0.515,2.838,1.164,3.512,1.949c0.675,0.785,1.012,1.837,1.012,3.156
						c0,2.124-0.701,3.852-2.103,5.185c-1.402,1.332-3.207,1.998-5.416,1.998c-1.746,0-3.099-0.442-4.057-1.325
						c-0.959-0.885-1.438-2.131-1.438-3.74c0-1.385,0.43-2.648,1.289-3.789c0.859-1.142,2.083-2.068,3.67-2.78
						c-0.833-0.555-1.249-1.3-1.249-2.236c0-0.686,0.211-1.352,0.635-1.998c0.423-0.646,1.184-1.359,2.281-2.138
						c-1.138-0.949-1.706-2.328-1.706-4.136c0-1.622,0.327-3.208,0.981-4.759c0.655-1.55,1.481-2.724,2.48-3.522
						c0.998-0.798,2.105-1.197,3.323-1.197c0.846,0,1.494,0.139,1.943,0.416H393.114z M377.144,123.406
						c0,1.293,0.327,2.227,0.982,2.8c0.654,0.574,1.616,0.861,2.886,0.861c1.614,0,2.953-0.488,4.018-1.465s1.598-2.249,1.598-3.818
						c0-0.845-0.269-1.577-0.804-2.197c-0.536-0.62-1.353-1.088-2.45-1.404l-1.785-0.475c-1.271,0.422-2.328,1.167-3.175,2.235
						S377.144,122.166,377.144,123.406z M382.104,106.765c0,0.977,0.188,1.719,0.565,2.227s0.922,0.762,1.637,0.762
						c0.819,0,1.563-0.347,2.231-1.039s1.221-1.734,1.656-3.126c0.437-1.392,0.655-2.728,0.655-4.008
						c0-2.031-0.714-3.047-2.143-3.047c-0.807,0-1.551,0.37-2.232,1.108c-0.681,0.739-1.246,1.823-1.696,3.255
						C382.328,104.328,382.104,105.617,382.104,106.765z"/>
					<path fill="#FFFFFF" d="M388.689,128.61c-0.608,0-1.204-0.125-1.786-0.376v-1.701c0.489,0.21,1.071,0.316,1.746,0.316
						c0.714,0,1.326-0.287,1.835-0.861c0.509-0.573,1.134-1.718,1.875-3.433l1.408-3.364l-0.158-21.786h1.864v12.645
						c0,2.124-0.079,4.254-0.237,6.392h0.118c0.701-2.071,1.343-3.813,1.925-5.225l5.714-13.812h1.964l-11.149,26.298
						c-0.768,1.82-1.534,3.094-2.302,3.819C390.739,128.247,389.8,128.61,388.689,128.61z"/>
				</g>
			</g>
			<g>
				<g>
					<g>
						<path fill="#FFFFFF" d="M36.968,167.469l0.575-14.544l0.238-4.512c-0.529,1.557-0.886,2.6-1.071,3.127
							c-0.186,0.527-2.222,5.837-6.11,15.929h-2.321l0.397-21.47h1.885l-0.258,12.506c-0.053,2.322-0.198,4.499-0.437,6.53h0.08
							c0.105-0.369,0.367-1.128,0.784-2.275c0.417-1.148,2.562-6.734,6.438-16.761h2.163l-0.317,12.506
							c-0.04,1.188-0.139,2.916-0.298,5.185l-0.079,1.346h0.079l1.19-3.106l6.209-15.93h1.905l-8.65,21.47H36.968z"/>
						<path fill="#FFFFFF" d="M48.4,167.469h-1.865l4.583-21.47h1.865L48.4,167.469z M52.051,140.637
							c0-0.673,0.152-1.253,0.456-1.741s0.694-0.732,1.171-0.732c0.621,0,0.932,0.383,0.932,1.148c0,0.751-0.146,1.372-0.437,1.859
							c-0.291,0.488-0.674,0.732-1.15,0.732C52.375,141.903,52.051,141.481,52.051,140.637z"/>
						<path fill="#FFFFFF" d="M58.801,165.886v1.583c-0.741,0.264-1.436,0.396-2.083,0.396c-1.68,0-2.52-0.996-2.52-2.987
							c0-0.502,0.086-1.161,0.258-1.979l3.233-15.236h-1.944l0.238-1.107l2.043-0.555l1.587-5.104h1.369l-1.091,5.104h2.837
							l-0.357,1.662h-2.837L56.4,162.363c-0.185,0.845-0.277,1.544-0.277,2.098c0,0.594,0.109,1.02,0.327,1.276
							s0.565,0.386,1.042,0.386C57.901,166.123,58.337,166.044,58.801,165.886z"/>
						<path fill="#FFFFFF" d="M70.409,167.469l3.413-16.127c0.132-0.527,0.198-1.081,0.198-1.662c0-1.49-0.662-2.236-1.984-2.236
							c-1.389,0-2.553,0.667-3.492,1.999s-1.7,3.41-2.281,6.233l-2.52,11.793h-1.865l6.527-30.789h1.885l-1.964,8.983l-0.813,3.324
							h0.079c1.23-2.269,2.83-3.403,4.801-3.403c1.111,0,1.971,0.319,2.579,0.959c0.608,0.641,0.913,1.561,0.913,2.761
							c0,0.739-0.092,1.537-0.277,2.395l-3.333,15.771H70.409z"/>
						<path fill="#FFFFFF" d="M79.34,167.469h-1.865l4.583-21.47h1.865L79.34,167.469z M82.991,140.637
							c0-0.673,0.152-1.253,0.456-1.741s0.694-0.732,1.171-0.732c0.621,0,0.932,0.383,0.932,1.148c0,0.751-0.146,1.372-0.437,1.859
							c-0.291,0.488-0.674,0.732-1.15,0.732C83.314,141.903,82.991,141.481,82.991,140.637z"/>
						<path fill="#FFFFFF" d="M93.192,167.469l3.413-16.127c0.132-0.527,0.198-1.081,0.198-1.662c0-1.49-0.662-2.236-1.984-2.236
							c-1.389,0-2.553,0.667-3.492,1.999c-0.939,1.332-1.7,3.41-2.281,6.233l-2.52,11.793h-1.865l4.543-21.47h1.587l-0.496,2.988
							h0.08c1.23-2.269,2.83-3.403,4.801-3.403c1.111,0,1.971,0.319,2.579,0.959c0.608,0.641,0.913,1.561,0.913,2.761
							c0,0.739-0.093,1.537-0.278,2.395l-3.333,15.771H93.192z"/>
					</g>
				</g>
				<g>
					<g>
						<g>
							<path fill="#FFFFFF" d="M117.429,152.807h5.853l-3.016,14.009c-1.812,0.699-3.716,1.049-5.713,1.049
								c-4.828,0-7.241-3.021-7.241-9.063c0-2.427,0.337-4.993,1.012-7.697c0.675-2.704,1.59-5.059,2.748-7.064
								c1.157-2.005,2.473-3.499,3.948-4.481c1.475-0.982,3.065-1.475,4.771-1.475c2.249,0,4.239,0.62,5.972,1.86l-1.27,1.741
								c-0.9-0.659-1.723-1.108-2.47-1.346s-1.531-0.356-2.351-0.356c-1.468,0-2.82,0.476-4.057,1.425
								c-1.237,0.95-2.328,2.325-3.273,4.126c-0.946,1.801-1.696,3.918-2.252,6.352c-0.555,2.435-0.833,4.779-0.833,7.035
								c0,2.52,0.453,4.337,1.359,5.451c0.906,1.115,2.285,1.672,4.136,1.672c1.323,0,2.592-0.185,3.809-0.554l2.321-10.824h-3.849
								L117.429,152.807z"/>
							<path fill="#FFFFFF" d="M130.644,167.864c-1.416,0-2.5-0.527-3.253-1.583c-0.754-1.055-1.131-2.553-1.131-4.491
								c0-1.873,0.238-3.885,0.714-6.035s1.098-3.975,1.865-5.472c0.767-1.497,1.667-2.654,2.698-3.473
								c1.031-0.817,2.182-1.227,3.452-1.227c1.402,0,2.497,0.544,3.283,1.632c0.787,1.089,1.181,2.622,1.181,4.601
								c0,1.834-0.242,3.803-0.724,5.907c-0.483,2.104-1.114,3.911-1.895,5.422c-0.781,1.511-1.693,2.675-2.738,3.492
								C133.051,167.456,131.9,167.864,130.644,167.864z M128.204,162.166c0,2.664,0.893,3.997,2.678,3.997
								c1.177,0,2.262-0.67,3.253-2.009c0.992-1.339,1.802-3.229,2.43-5.669c0.628-2.44,0.942-4.795,0.942-7.064
								c0-2.704-0.919-4.057-2.757-4.057c-1.111,0-2.153,0.646-3.125,1.939s-1.785,3.18-2.44,5.659
								C128.531,157.443,128.204,159.844,128.204,162.166z"/>
							<path fill="#FFFFFF" d="M149.128,167.469l3.413-16.127c0.132-0.527,0.198-1.081,0.198-1.662c0-1.49-0.662-2.236-1.984-2.236
								c-1.389,0-2.553,0.667-3.492,1.999c-0.939,1.332-1.7,3.41-2.281,6.233l-2.52,11.793h-1.865l4.543-21.47h1.587l-0.496,2.988
								h0.08c1.23-2.269,2.83-3.403,4.801-3.403c1.111,0,1.971,0.319,2.579,0.959c0.608,0.641,0.913,1.561,0.913,2.761
								c0,0.739-0.093,1.537-0.278,2.395l-3.333,15.771H149.128z"/>
							<path fill="#FFFFFF" d="M171.174,145.999l-0.278,1.326l-2.718,0.336c0.397,0.752,0.595,1.695,0.595,2.83
								c0,1.438-0.294,2.919-0.883,4.442c-0.589,1.523-1.369,2.718-2.341,3.581c-0.972,0.864-2.047,1.296-3.224,1.296h-0.496
								l-0.436-0.039c-1.654,1.147-2.48,2.189-2.48,3.126c0,0.304,0.053,0.552,0.159,0.742c0.105,0.191,0.271,0.35,0.496,0.476
								c0.225,0.125,1.005,0.393,2.341,0.801c1.667,0.515,2.837,1.164,3.511,1.949c0.675,0.785,1.012,1.837,1.012,3.156
								c0,2.124-0.701,3.852-2.103,5.185c-1.402,1.332-3.208,1.998-5.416,1.998c-1.746,0-3.098-0.442-4.057-1.325
								c-0.959-0.885-1.438-2.131-1.438-3.74c0-1.385,0.43-2.648,1.29-3.789c0.86-1.142,2.083-2.068,3.67-2.78
								c-0.833-0.555-1.25-1.3-1.25-2.236c0-0.686,0.211-1.352,0.635-1.998s1.184-1.359,2.282-2.138
								c-1.138-0.949-1.706-2.328-1.706-4.136c0-1.622,0.327-3.208,0.982-4.759c0.655-1.55,1.481-2.724,2.48-3.521
								c0.998-0.799,2.106-1.197,3.323-1.197c0.846,0,1.495,0.139,1.944,0.415H171.174z M155.204,172c0,1.293,0.327,2.227,0.982,2.8
								c0.655,0.574,1.617,0.861,2.887,0.861c1.613,0,2.953-0.488,4.017-1.465c1.065-0.977,1.597-2.249,1.597-3.818
								c0-0.845-0.268-1.577-0.803-2.197s-1.353-1.088-2.45-1.404l-1.786-0.475c-1.27,0.422-2.328,1.167-3.174,2.235
								C155.627,169.605,155.204,170.76,155.204,172z M160.164,155.358c0,0.977,0.188,1.719,0.565,2.227
								c0.376,0.508,0.922,0.762,1.636,0.762c0.82,0,1.564-0.347,2.232-1.039s1.22-1.734,1.657-3.126s0.655-2.728,0.655-4.007
								c0-2.031-0.714-3.048-2.143-3.048c-0.807,0-1.551,0.37-2.232,1.108c-0.682,0.739-1.247,1.824-1.696,3.255
								C160.388,152.922,160.164,154.211,160.164,155.358z"/>
							<path fill="#FFFFFF" d="M174.843,167.864c-1.416,0-2.5-0.527-3.253-1.583c-0.754-1.055-1.131-2.553-1.131-4.491
								c0-1.873,0.238-3.885,0.714-6.035s1.098-3.975,1.865-5.472c0.767-1.497,1.667-2.654,2.698-3.473
								c1.031-0.817,2.182-1.227,3.452-1.227c1.402,0,2.497,0.544,3.283,1.632c0.787,1.089,1.181,2.622,1.181,4.601
								c0,1.834-0.242,3.803-0.724,5.907c-0.483,2.104-1.114,3.911-1.895,5.422c-0.781,1.511-1.693,2.675-2.738,3.492
								C177.25,167.456,176.1,167.864,174.843,167.864z M172.403,162.166c0,2.664,0.893,3.997,2.678,3.997
								c1.177,0,2.262-0.67,3.253-2.009c0.992-1.339,1.802-3.229,2.43-5.669c0.628-2.44,0.942-4.795,0.942-7.064
								c0-2.704-0.919-4.057-2.757-4.057c-1.111,0-2.153,0.646-3.125,1.939s-1.785,3.18-2.44,5.659
								C172.73,157.443,172.403,159.844,172.403,162.166z"/>
							<path fill="#FFFFFF" d="M187.912,167.864c-0.741,0-1.515-0.092-2.321-0.276c-0.807-0.185-1.356-0.39-1.647-0.614v-2.176
								c0.317,0.316,0.85,0.61,1.597,0.88c0.747,0.271,1.498,0.406,2.251,0.406c1.283,0,2.282-0.373,2.996-1.118
								c0.714-0.745,1.071-1.804,1.071-3.176c0-0.581-0.073-1.111-0.218-1.593c-0.146-0.481-0.334-0.927-0.565-1.336
								c-0.232-0.409-0.744-1.049-1.538-1.92c-0.86-0.937-1.442-1.646-1.746-2.127s-0.542-0.999-0.714-1.553
								c-0.172-0.555-0.258-1.194-0.258-1.92c0-1.715,0.529-3.104,1.587-4.165s2.427-1.593,4.106-1.593
								c1.799,0,3.247,0.409,4.345,1.227l-1.012,1.702c-0.939-0.766-2.077-1.148-3.412-1.148c-1.084,0-1.981,0.34-2.688,1.02
								c-0.708,0.68-1.062,1.586-1.062,2.721c0,0.778,0.142,1.484,0.426,2.117c0.285,0.633,0.824,1.385,1.617,2.256
								c0.952,1.029,1.597,1.808,1.934,2.335s0.605,1.102,0.804,1.722c0.198,0.62,0.297,1.306,0.297,2.058
								c0,2.006-0.506,3.552-1.518,4.641C191.235,167.32,189.79,167.864,187.912,167.864z"/>
						</g>
					</g>
					<g>
						<g>
							<g>
								<path fill="#FFFFFF" d="M219.833,167.469l3.413-16.087c0.132-0.62,0.198-1.175,0.198-1.662c0-1.518-0.622-2.276-1.865-2.276
									c-1.085,0-2.05,0.473-2.896,1.415c-0.847,0.943-1.429,2.187-1.746,3.73l-3.115,14.88h-1.865l3.333-15.811
									c0.159-0.765,0.238-1.411,0.238-1.938c0-1.518-0.655-2.276-1.964-2.276c-1.336,0-2.447,0.634-3.333,1.9
									c-0.886,1.266-1.64,3.377-2.261,6.332l-2.52,11.793h-1.865l4.543-21.47h1.587l-0.496,2.988h0.08
									c1.203-2.269,2.791-3.403,4.761-3.403c0.965,0,1.723,0.237,2.271,0.712s0.889,1.227,1.022,2.256
									c0.674-0.989,1.382-1.731,2.123-2.226c0.741-0.495,1.607-0.742,2.599-0.742c1.019,0,1.806,0.33,2.361,0.989
									c0.556,0.659,0.833,1.643,0.833,2.948c0,0.752-0.093,1.55-0.278,2.395l-3.293,15.553H219.833z"/>
								<path fill="#FFFFFF" d="M232.909,167.864c-1.587,0-2.824-0.551-3.71-1.652c-0.886-1.101-1.329-2.642-1.329-4.62
									c0-2.823,0.4-5.472,1.2-7.944c0.8-2.474,1.885-4.436,3.253-5.887c1.369-1.451,2.808-2.177,4.315-2.177
									c1.151,0,2.04,0.333,2.668,0.999c0.628,0.666,0.942,1.672,0.942,3.018c0,1.623-0.394,3.041-1.18,4.254
									c-0.787,1.214-1.912,2.118-3.373,2.711c-1.461,0.594-3.204,0.891-5.228,0.891h-0.238c-0.278,1.307-0.417,2.619-0.417,3.938
									c0,3.18,1.216,4.77,3.65,4.77c0.621,0,1.207-0.086,1.755-0.258c0.549-0.171,1.174-0.461,1.875-0.87v1.899
									C235.984,167.555,234.589,167.864,232.909,167.864z M236.321,147.325c-1.177,0-2.294,0.778-3.353,2.335
									s-1.892,3.614-2.5,6.174c5.277,0,7.916-2.091,7.916-6.273c0-0.698-0.149-1.246-0.446-1.642
									C237.641,147.522,237.102,147.325,236.321,147.325z"/>
								<path fill="#FFFFFF" d="M246.059,167.864c-2.645,0-3.967-1.859-3.967-5.58c0-2.757,0.414-5.487,1.24-8.191
									s1.896-4.799,3.213-6.283c1.316-1.483,2.754-2.226,4.316-2.226c1.771,0,2.922,0.989,3.451,2.968h0.119l0.773-2.553h1.588
									l-4.543,21.47h-1.508l0.355-3.087h-0.078C249.512,166.704,247.857,167.864,246.059,167.864z M246.436,166.222
									c1.191,0,2.303-0.686,3.334-2.058s1.904-3.377,2.619-6.016c0.713-2.638,1.07-5.125,1.07-7.46
									c0-1.095-0.234-1.922-0.703-2.483c-0.471-0.561-1.129-0.841-1.975-0.841c-1.164,0-2.242,0.67-3.234,2.009
									s-1.824,3.302-2.5,5.887c-0.674,2.586-1.012,5.02-1.012,7.302c0,1.2,0.176,2.11,0.527,2.73
									C244.912,165.912,245.537,166.222,246.436,166.222z"/>
								<path fill="#FFFFFF" d="M265.938,167.469l3.412-16.127c0.133-0.527,0.198-1.081,0.198-1.662c0-1.49-0.661-2.236-1.983-2.236
									c-1.389,0-2.553,0.667-3.491,1.999c-0.939,1.332-1.7,3.41-2.282,6.233l-2.52,11.793h-1.864l4.543-21.47h1.587l-0.496,2.988
									h0.079c1.23-2.269,2.83-3.403,4.802-3.403c1.11,0,1.97,0.319,2.579,0.959c0.607,0.641,0.912,1.561,0.912,2.761
									c0,0.739-0.093,1.537-0.277,2.395l-3.333,15.771H265.938z"/>
								<path fill="#FFFFFF" d="M276.075,177.204c-0.674,0-1.256-0.072-1.745-0.218v-1.82c0.489,0.158,1.045,0.237,1.666,0.237
									c0.622,0,1.104-0.175,1.448-0.524s0.658-0.934,0.942-1.751c0.284-0.818,0.599-2.045,0.942-3.681l4.682-21.786h-2.4
									l0.198-1.068l2.6-0.812l0.416-1.938c0.384-1.887,0.804-3.357,1.26-4.413c0.457-1.055,0.989-1.813,1.598-2.275
									c0.607-0.462,1.441-0.692,2.499-0.692c0.873,0,1.607,0.165,2.202,0.494l-0.813,1.741c-0.555-0.276-1.098-0.415-1.626-0.415
									c-0.622,0-1.102,0.175-1.438,0.524c-0.338,0.35-0.648,0.939-0.933,1.771s-0.718,2.639-1.3,5.422h2.857l-0.377,1.662h-2.837
									l-4.762,21.905c-0.45,2.11-0.88,3.687-1.289,4.729c-0.41,1.041-0.894,1.787-1.448,2.235
									C277.861,176.979,277.081,177.204,276.075,177.204z"/>
								<path fill="#FFFFFF" d="M293.157,167.864c-1.415,0-2.5-0.527-3.254-1.583c-0.754-1.055-1.131-2.553-1.131-4.491
									c0-1.873,0.238-3.885,0.715-6.035c0.476-2.15,1.098-3.975,1.864-5.472c0.768-1.497,1.667-2.654,2.698-3.473
									c1.032-0.817,2.183-1.227,3.452-1.227c1.401,0,2.496,0.544,3.283,1.632c0.787,1.089,1.181,2.622,1.181,4.601
									c0,1.834-0.241,3.803-0.725,5.907c-0.482,2.104-1.114,3.911-1.895,5.422s-1.692,2.675-2.737,3.492
									C295.564,167.456,294.414,167.864,293.157,167.864z M290.717,162.166c0,2.664,0.894,3.997,2.679,3.997
									c1.177,0,2.262-0.67,3.254-2.009c0.991-1.339,1.802-3.229,2.43-5.669s0.942-4.795,0.942-7.064
									c0-2.704-0.919-4.057-2.758-4.057c-1.11,0-2.152,0.646-3.124,1.939c-0.973,1.293-1.786,3.18-2.44,5.659
									C291.045,157.443,290.717,159.844,290.717,162.166z"/>
								<path fill="#FFFFFF" d="M313.229,145.584c0.516,0,0.999,0.079,1.448,0.237l-0.516,1.919
									c-0.396-0.197-0.833-0.297-1.31-0.297c-1.124,0-2.169,0.772-3.134,2.315c-0.966,1.544-1.733,3.654-2.302,6.332l-2.44,11.378
									h-1.864l4.543-21.47h1.389l-0.575,3.76h0.079C309.711,146.976,311.271,145.584,313.229,145.584z"/>
								<path fill="#FFFFFF" d="M314.125,166.42c0-0.791,0.179-1.464,0.535-2.019c0.357-0.554,0.854-0.831,1.488-0.831
									c0.357,0,0.635,0.139,0.833,0.416c0.198,0.276,0.298,0.64,0.298,1.088c0,0.805-0.182,1.458-0.546,1.959
									c-0.363,0.501-0.83,0.752-1.398,0.752c-0.331,0-0.615-0.115-0.853-0.346C314.244,167.208,314.125,166.868,314.125,166.42z
									 M321.684,166.42c0-0.791,0.179-1.464,0.535-2.019c0.357-0.554,0.854-0.831,1.488-0.831c0.357,0,0.635,0.139,0.833,0.416
									c0.198,0.276,0.298,0.64,0.298,1.088c0,0.805-0.182,1.458-0.546,1.959c-0.363,0.501-0.83,0.752-1.398,0.752
									c-0.331,0-0.615-0.115-0.853-0.346C321.803,167.208,321.684,166.868,321.684,166.42z M329.242,166.42
									c0-0.791,0.179-1.464,0.535-2.019c0.357-0.554,0.854-0.831,1.488-0.831c0.357,0,0.635,0.139,0.833,0.416
									c0.198,0.276,0.298,0.64,0.298,1.088c0,0.805-0.182,1.458-0.546,1.959c-0.363,0.501-0.83,0.752-1.398,0.752
									c-0.331,0-0.615-0.115-0.853-0.346C329.361,167.208,329.242,166.868,329.242,166.42z"/>
							</g>
						</g>
					</g>
				</g>
			</g>
		</g>
	</g>
</g>
</svg>
