<?xml version="1.0" encoding="iso-8859-1"?>
<!-- Generator: Adobe Illustrator 16.0.0, SVG Export Plug-In . SVG Version: 6.00 Build 0)  -->
<!DOCTYPE svg PUBLIC "-//W3C//DTD SVG 1.1//EN" "http://www.w3.org/Graphics/SVG/1.1/DTD/svg11.dtd">
<svg version="1.1" id="Layer_1" xmlns="http://www.w3.org/2000/svg" xmlns:xlink="http://www.w3.org/1999/xlink" x="0px" y="0px"
	 width="275px" height="126px" viewBox="0 0 275 126" style="enable-background:new 0 0 275 126;" xml:space="preserve">
<g>
	<g>
		<g>
			<g>
				<path style="fill:#FFFFFF;" d="M6.185,6.514c0,3.931-1.23,5.896-3.69,5.896H0.432V0.839h2.111c1.196,0,2.102,0.481,2.718,1.444
					C5.877,3.247,6.185,4.657,6.185,6.514z M5.368,6.562c0-1.63-0.241-2.873-0.722-3.728S3.453,1.551,2.511,1.551H1.209v10.147
					h1.238c1.005,0,1.743-0.438,2.214-1.314C5.132,9.509,5.368,8.234,5.368,6.562z"/>
				<path style="fill:#FFFFFF;" d="M8.829,1.44c0-0.237,0.049-0.422,0.147-0.554c0.098-0.132,0.223-0.198,0.377-0.198
					c0.143,0,0.256,0.066,0.341,0.198C9.778,1.019,9.821,1.203,9.821,1.44c0,0.227-0.042,0.408-0.127,0.542
					C9.609,2.117,9.495,2.185,9.353,2.185c-0.154,0-0.279-0.067-0.377-0.202C8.877,1.848,8.829,1.667,8.829,1.44z M9.693,12.411
					H8.94V3.823h0.753V12.411z"/>
				<path style="fill:#FFFFFF;" d="M13.443,12.411l-2.031-8.588h0.762l1.286,5.525c0.148,0.638,0.291,1.335,0.428,2.089h0.063
					c0.037-0.274,0.09-0.58,0.159-0.918s0.59-2.57,1.563-6.696h0.762l-2.095,8.588H13.443z"/>
				<path style="fill:#FFFFFF;" d="M20.499,12.569c-0.91,0-1.609-0.386-2.099-1.16c-0.489-0.773-0.734-1.851-0.734-3.233
					c0-1.467,0.218-2.587,0.655-3.36s1.064-1.16,1.885-1.16c0.714,0,1.277,0.339,1.69,1.017c0.413,0.678,0.619,1.592,0.619,2.743
					v0.696h-4.079c0.01,1.25,0.188,2.188,0.532,2.81c0.344,0.623,0.865,0.934,1.563,0.934c0.54,0,1.108-0.177,1.706-0.53v0.729
					C21.686,12.397,21.107,12.569,20.499,12.569z M20.157,4.337c-1.037,0-1.605,1.032-1.706,3.095h3.309
					c0-0.944-0.144-1.696-0.433-2.256C21.04,4.617,20.649,4.337,20.157,4.337z"/>
				<path style="fill:#FFFFFF;" d="M27.546,3.657c0.27,0,0.521,0.037,0.754,0.111L28.118,4.52c-0.191-0.079-0.386-0.119-0.587-0.119
					c-0.291,0-0.562,0.149-0.813,0.447c-0.251,0.298-0.448,0.714-0.591,1.247c-0.143,0.533-0.214,1.122-0.214,1.765v4.551h-0.753
					V3.823h0.619l0.08,1.504h0.055C26.314,4.213,26.859,3.657,27.546,3.657z"/>
				<path style="fill:#FFFFFF;" d="M33.608,10.258c0,0.723-0.19,1.289-0.571,1.698c-0.381,0.409-0.931,0.613-1.651,0.613
					c-0.392,0-0.735-0.05-1.031-0.15c-0.296-0.1-0.527-0.211-0.69-0.333v-0.878c0.195,0.195,0.455,0.352,0.777,0.471
					c0.323,0.119,0.653,0.178,0.992,0.178c0.444,0,0.793-0.145,1.047-0.435s0.381-0.678,0.381-1.164c0-0.38-0.091-0.701-0.274-0.962
					c-0.182-0.261-0.53-0.558-1.043-0.89c-0.587-0.37-0.988-0.665-1.202-0.887s-0.381-0.469-0.5-0.744
					c-0.119-0.274-0.178-0.601-0.178-0.981c0-0.617,0.209-1.127,0.627-1.531c0.417-0.404,0.949-0.605,1.595-0.605
					c0.693,0,1.272,0.164,1.738,0.491l-0.389,0.657c-0.434-0.29-0.894-0.435-1.381-0.435c-0.444,0-0.799,0.13-1.063,0.392
					c-0.264,0.261-0.396,0.605-0.396,1.033c0,0.38,0.09,0.698,0.27,0.954c0.18,0.256,0.561,0.566,1.143,0.93
					c0.571,0.375,0.962,0.674,1.174,0.898c0.211,0.225,0.369,0.473,0.472,0.744C33.557,9.592,33.608,9.904,33.608,10.258z"/>
				<path style="fill:#FFFFFF;" d="M35.69,1.44c0-0.237,0.049-0.422,0.147-0.554c0.098-0.132,0.223-0.198,0.377-0.198
					c0.143,0,0.256,0.066,0.341,0.198c0.085,0.132,0.127,0.317,0.127,0.554c0,0.227-0.042,0.408-0.127,0.542
					c-0.084,0.135-0.198,0.202-0.341,0.202c-0.154,0-0.279-0.067-0.377-0.202C35.739,1.848,35.69,1.667,35.69,1.44z M36.555,12.411
					h-0.753V3.823h0.753V12.411z"/>
				<path style="fill:#FFFFFF;" d="M41.542,4.488h-1.349v7.923h-0.746V4.488h-1.095V4.06l1.095-0.324V3.087
					c0-1.092,0.129-1.878,0.389-2.359c0.259-0.48,0.709-0.72,1.349-0.72c0.37,0,0.706,0.066,1.008,0.198l-0.262,0.697
					c-0.281-0.132-0.535-0.198-0.762-0.198c-0.259,0-0.455,0.077-0.587,0.23c-0.132,0.153-0.23,0.401-0.293,0.744
					c-0.063,0.343-0.096,0.818-0.096,1.425v0.72h1.349V4.488z"/>
				<path style="fill:#FFFFFF;" d="M44.473,12.395l-2.15-8.572h0.762l1.301,5.358c0.153,0.644,0.302,1.37,0.444,2.177h0.063
					c0.101-0.702,0.241-1.433,0.421-2.192l1.27-5.343h0.762l-2.516,10.21c-0.185,0.754-0.427,1.322-0.726,1.702
					s-0.697,0.57-1.194,0.57c-0.201,0-0.428-0.045-0.683-0.134V15.49c0.212,0.074,0.418,0.111,0.619,0.111
					c0.317,0,0.569-0.136,0.754-0.408c0.185-0.272,0.349-0.708,0.492-1.31L44.473,12.395z"/>
				<path style="fill:#FFFFFF;" d="M58.317,12.411l-1.19-5.817c-0.011-0.042-0.02-0.087-0.028-0.135s-0.091-0.554-0.25-1.52h-0.016
					l-0.111,0.673L56.54,6.593l-1.23,5.817h-0.896l-1.873-8.588h0.754l1.071,5.002l0.5,2.612h0.047
					c0.095-0.754,0.249-1.63,0.46-2.628l1.071-4.986h0.793l1.079,5.002c0.085,0.375,0.235,1.245,0.453,2.612h0.047
					c0.016-0.174,0.094-0.612,0.234-1.314c0.14-0.702,0.588-2.802,1.345-6.3h0.746l-1.936,8.588H58.317z"/>
				<path style="fill:#FFFFFF;" d="M63.056,1.44c0-0.237,0.049-0.422,0.147-0.554c0.098-0.132,0.223-0.198,0.377-0.198
					c0.143,0,0.256,0.066,0.341,0.198c0.085,0.132,0.127,0.317,0.127,0.554c0,0.227-0.042,0.408-0.127,0.542
					c-0.084,0.135-0.198,0.202-0.341,0.202c-0.154,0-0.279-0.067-0.377-0.202C63.105,1.848,63.056,1.667,63.056,1.44z
					 M63.921,12.411h-0.753V3.823h0.753V12.411z"/>
				<path style="fill:#FFFFFF;" d="M68.289,11.873c0.232,0,0.439-0.032,0.619-0.095v0.633c-0.233,0.105-0.532,0.158-0.896,0.158
					c-0.889,0-1.333-0.662-1.333-1.987V4.488H65.9V4.044l0.762-0.222l0.246-2.042h0.523v2.042h1.365v0.665h-1.365v5.881
					c0,0.581,0.063,0.976,0.191,1.187C67.75,11.767,67.972,11.873,68.289,11.873z"/>
				<path style="fill:#FFFFFF;" d="M74.649,12.411V6.49c0-0.776-0.102-1.326-0.306-1.65c-0.204-0.324-0.536-0.487-0.996-0.487
					c-0.608,0-1.066,0.269-1.373,0.808c-0.307,0.538-0.46,1.388-0.46,2.548v4.702h-0.753V0.095h0.753v3.997
					c0,0.364-0.01,0.668-0.032,0.91h0.063c0.169-0.427,0.425-0.758,0.766-0.993s0.697-0.352,1.067-0.352
					c0.73,0,1.249,0.237,1.555,0.712c0.307,0.475,0.46,1.182,0.46,2.121v5.92H74.649z"/>
			</g>
		</g>
		<g>
			<g>
				<g>
					<path style="fill:#FFFFFF;" d="M2.527,32.334c-0.862,0-1.512-0.373-1.948-1.12c-0.437-0.747-0.655-1.843-0.655-3.289
						c0-1.467,0.221-2.584,0.663-3.352c0.442-0.768,1.094-1.151,1.956-1.151c0.535,0,0.979,0.098,1.333,0.293L3.582,24.38
						c-0.354-0.164-0.68-0.245-0.976-0.245c-1.264,0-1.896,1.258-1.896,3.775c0,2.496,0.632,3.744,1.896,3.744
						c0.376,0,0.783-0.084,1.222-0.253v0.633c-0.174,0.095-0.389,0.169-0.643,0.222S2.712,32.334,2.527,32.334z"/>
					<path style="fill:#FFFFFF;" d="M6.61,23.588v5.604c0,0.85,0.102,1.47,0.306,1.86c0.204,0.391,0.517,0.586,0.94,0.586
						c0.651,0,1.128-0.263,1.433-0.788c0.304-0.525,0.456-1.374,0.456-2.545v-4.717h0.746v8.588H9.856L9.76,30.973H9.697
						c-0.185,0.438-0.441,0.774-0.77,1.009s-0.685,0.352-1.071,0.352c-0.693,0-1.2-0.245-1.52-0.736
						c-0.32-0.491-0.48-1.293-0.48-2.406v-5.604H6.61z"/>
					<path style="fill:#FFFFFF;" d="M15.879,23.422c0.27,0,0.521,0.037,0.754,0.111l-0.182,0.752
						c-0.191-0.079-0.386-0.119-0.587-0.119c-0.291,0-0.562,0.149-0.813,0.447c-0.251,0.298-0.448,0.714-0.591,1.247
						c-0.143,0.533-0.214,1.122-0.214,1.765v4.551h-0.753v-8.588h0.619l0.08,1.504h0.055C14.647,23.979,15.192,23.422,15.879,23.422
						z"/>
					<path style="fill:#FFFFFF;" d="M20.949,23.422c0.27,0,0.521,0.037,0.754,0.111l-0.182,0.752
						c-0.191-0.079-0.386-0.119-0.587-0.119c-0.291,0-0.562,0.149-0.813,0.447c-0.251,0.298-0.448,0.714-0.591,1.247
						c-0.143,0.533-0.214,1.122-0.214,1.765v4.551h-0.753v-8.588h0.619l0.08,1.504h0.055C19.717,23.979,20.262,23.422,20.949,23.422
						z"/>
					<path style="fill:#FFFFFF;" d="M25.571,32.334c-0.91,0-1.609-0.386-2.099-1.16c-0.489-0.773-0.734-1.851-0.734-3.233
						c0-1.467,0.218-2.587,0.655-3.36s1.064-1.16,1.885-1.16c0.714,0,1.277,0.339,1.69,1.017c0.413,0.678,0.619,1.592,0.619,2.743
						v0.696h-4.079c0.01,1.25,0.188,2.188,0.532,2.81c0.344,0.623,0.865,0.934,1.563,0.934c0.54,0,1.108-0.177,1.706-0.53v0.729
						C26.758,32.163,26.179,32.334,25.571,32.334z M25.229,24.103c-1.037,0-1.605,1.032-1.706,3.095h3.309
						c0-0.944-0.144-1.696-0.433-2.256C26.112,24.383,25.722,24.103,25.229,24.103z"/>
					<path style="fill:#FFFFFF;" d="M34.119,32.176v-5.92c0-1.425-0.423-2.137-1.27-2.137c-0.646,0-1.118,0.267-1.417,0.799
						c-0.299,0.533-0.449,1.38-0.449,2.541v4.717H30.23v-8.588h0.635l0.063,1.195H31c0.18-0.433,0.439-0.768,0.778-1.005
						c0.338-0.237,0.701-0.356,1.087-0.356c0.667,0,1.167,0.223,1.5,0.669c0.333,0.446,0.5,1.162,0.5,2.149v5.936H34.119z"/>
					<path style="fill:#FFFFFF;" d="M39.412,31.638c0.232,0,0.439-0.032,0.619-0.095v0.633c-0.233,0.105-0.532,0.158-0.896,0.158
						c-0.889,0-1.333-0.662-1.333-1.987v-6.094h-0.778V23.81l0.762-0.222l0.246-2.042h0.523v2.042h1.365v0.665h-1.365v5.881
						c0,0.581,0.063,0.976,0.191,1.187C38.873,31.533,39.095,31.638,39.412,31.638z"/>
					<path style="fill:#FFFFFF;" d="M48.161,32.334c-0.862,0-1.512-0.373-1.948-1.12c-0.437-0.747-0.655-1.843-0.655-3.289
						c0-1.467,0.221-2.584,0.663-3.352c0.442-0.768,1.094-1.151,1.956-1.151c0.535,0,0.979,0.098,1.333,0.293l-0.294,0.665
						c-0.354-0.164-0.68-0.245-0.976-0.245c-1.264,0-1.896,1.258-1.896,3.775c0,2.496,0.632,3.744,1.896,3.744
						c0.376,0,0.783-0.084,1.222-0.253v0.633c-0.174,0.095-0.389,0.169-0.643,0.222S48.346,32.334,48.161,32.334z"/>
					<path style="fill:#FFFFFF;" d="M52.275,32.176h-0.753V19.86h0.753V32.176z"/>
					<path style="fill:#FFFFFF;" d="M54.953,21.206c0-0.237,0.049-0.422,0.147-0.554c0.098-0.132,0.223-0.198,0.377-0.198
						c0.143,0,0.256,0.066,0.341,0.198c0.085,0.132,0.127,0.317,0.127,0.554c0,0.227-0.042,0.408-0.127,0.542
						c-0.084,0.135-0.198,0.202-0.341,0.202c-0.154,0-0.279-0.067-0.377-0.202C55.002,21.614,54.953,21.433,54.953,21.206z
						 M55.818,32.176h-0.753v-8.588h0.753V32.176z"/>
					<path style="fill:#FFFFFF;" d="M61.051,32.334c-0.91,0-1.609-0.386-2.099-1.16c-0.489-0.773-0.734-1.851-0.734-3.233
						c0-1.467,0.218-2.587,0.655-3.36s1.064-1.16,1.885-1.16c0.714,0,1.277,0.339,1.69,1.017c0.413,0.678,0.619,1.592,0.619,2.743
						v0.696h-4.079c0.01,1.25,0.188,2.188,0.532,2.81c0.344,0.623,0.865,0.934,1.563,0.934c0.54,0,1.108-0.177,1.706-0.53v0.729
						C62.239,32.163,61.66,32.334,61.051,32.334z M60.71,24.103c-1.037,0-1.605,1.032-1.706,3.095h3.309
						c0-0.944-0.144-1.696-0.433-2.256C61.592,24.383,61.202,24.103,60.71,24.103z"/>
					<path style="fill:#FFFFFF;" d="M69.599,32.176v-5.92c0-1.425-0.423-2.137-1.27-2.137c-0.646,0-1.118,0.267-1.417,0.799
						c-0.299,0.533-0.449,1.38-0.449,2.541v4.717h-0.753v-8.588h0.635l0.063,1.195h0.071c0.18-0.433,0.439-0.768,0.778-1.005
						c0.338-0.237,0.701-0.356,1.087-0.356c0.667,0,1.167,0.223,1.5,0.669c0.333,0.446,0.5,1.162,0.5,2.149v5.936H69.599z"/>
					<path style="fill:#FFFFFF;" d="M74.893,31.638c0.232,0,0.439-0.032,0.619-0.095v0.633c-0.233,0.105-0.532,0.158-0.896,0.158
						c-0.889,0-1.333-0.662-1.333-1.987v-6.094h-0.778V23.81l0.762-0.222l0.246-2.042h0.523v2.042H75.4v0.665h-1.365v5.881
						c0,0.581,0.063,0.976,0.191,1.187C74.353,31.533,74.575,31.638,74.893,31.638z"/>
					<path style="fill:#FFFFFF;" d="M80.745,30.023c0,0.723-0.19,1.289-0.571,1.698c-0.381,0.409-0.931,0.613-1.651,0.613
						c-0.392,0-0.735-0.05-1.031-0.15c-0.296-0.1-0.527-0.211-0.69-0.333v-0.878c0.195,0.195,0.455,0.352,0.777,0.471
						c0.323,0.119,0.653,0.178,0.992,0.178c0.444,0,0.793-0.145,1.047-0.435s0.381-0.678,0.381-1.164
						c0-0.38-0.091-0.701-0.274-0.962c-0.182-0.261-0.53-0.558-1.043-0.89c-0.587-0.37-0.988-0.665-1.202-0.887
						s-0.381-0.469-0.5-0.744c-0.119-0.274-0.178-0.601-0.178-0.981c0-0.617,0.209-1.127,0.627-1.531
						c0.417-0.404,0.949-0.605,1.595-0.605c0.693,0,1.272,0.164,1.738,0.491l-0.389,0.657c-0.434-0.29-0.894-0.435-1.381-0.435
						c-0.444,0-0.799,0.13-1.063,0.392c-0.264,0.261-0.396,0.605-0.396,1.033c0,0.38,0.09,0.698,0.27,0.954
						c0.18,0.256,0.561,0.566,1.143,0.93c0.571,0.375,0.962,0.674,1.174,0.898c0.211,0.225,0.369,0.473,0.472,0.744
						C80.693,29.357,80.745,29.67,80.745,30.023z"/>
				</g>
			</g>
			<g>
				<g>
					<g>
						<path style="fill:#FFFFFF;" d="M162.085,4.163c0,1.193-0.273,2.069-0.821,2.628c-0.547,0.56-1.358,0.839-2.432,0.839h-0.825
							v4.781h-0.778V0.839h1.587c1.133,0,1.96,0.267,2.484,0.799C161.823,2.171,162.085,3.013,162.085,4.163z M158.007,6.917h0.777
							c0.91,0,1.556-0.213,1.937-0.641c0.381-0.427,0.571-1.132,0.571-2.113c0-0.934-0.197-1.603-0.592-2.006
							c-0.394-0.404-1.004-0.605-1.829-0.605h-0.864V6.917z"/>
						<path style="fill:#FFFFFF;" d="M164.937,3.823v5.604c0,0.85,0.102,1.47,0.306,1.86c0.203,0.391,0.517,0.586,0.94,0.586
							c0.65,0,1.128-0.263,1.432-0.788c0.305-0.525,0.456-1.374,0.456-2.545V3.823h0.746v8.588h-0.635l-0.095-1.203h-0.063
							c-0.186,0.438-0.442,0.774-0.77,1.009c-0.328,0.235-0.686,0.352-1.071,0.352c-0.693,0-1.2-0.245-1.521-0.736
							c-0.319-0.491-0.479-1.293-0.479-2.406V3.823H164.937z"/>
						<path style="fill:#FFFFFF;" d="M174.205,3.657c0.27,0,0.521,0.037,0.754,0.111l-0.183,0.752
							c-0.19-0.079-0.386-0.119-0.587-0.119c-0.291,0-0.563,0.149-0.813,0.447c-0.251,0.298-0.448,0.714-0.591,1.247
							c-0.144,0.533-0.215,1.122-0.215,1.765v4.551h-0.754V3.823h0.619l0.079,1.504h0.056
							C172.973,4.213,173.518,3.657,174.205,3.657z"/>
						<path style="fill:#FFFFFF;" d="M179.656,12.569c-0.434,0-0.829-0.12-1.187-0.36c-0.356-0.24-0.628-0.569-0.813-0.985h-0.071
							l0.056,0.941v4.14h-0.754V3.823h0.619l0.079,1.179h0.071c0.212-0.433,0.483-0.765,0.813-0.997
							c0.331-0.232,0.692-0.348,1.084-0.348c1.682,0,2.523,1.48,2.523,4.44c0,1.43-0.207,2.533-0.619,3.308
							C181.045,12.181,180.444,12.569,179.656,12.569z M179.506,4.369c-0.63,0-1.098,0.277-1.404,0.831
							c-0.308,0.554-0.461,1.422-0.461,2.604v0.245c0,1.319,0.156,2.289,0.469,2.909c0.312,0.62,0.788,0.93,1.428,0.93
							c0.593,0,1.033-0.307,1.321-0.922c0.289-0.615,0.433-1.571,0.433-2.869c0-1.24-0.135-2.171-0.404-2.794
							C180.616,4.68,180.156,4.369,179.506,4.369z"/>
						<path style="fill:#FFFFFF;" d="M189.342,8.097c0,1.446-0.229,2.552-0.687,3.32c-0.457,0.768-1.112,1.151-1.964,1.151
							c-0.841,0-1.485-0.384-1.933-1.151c-0.446-0.768-0.67-1.875-0.67-3.32c0-2.96,0.878-4.44,2.635-4.44
							c0.825,0,1.468,0.388,1.928,1.164C189.112,5.596,189.342,6.688,189.342,8.097z M184.874,8.097c0,1.24,0.148,2.176,0.444,2.81
							c0.297,0.633,0.76,0.95,1.389,0.95c1.233,0,1.85-1.253,1.85-3.759c0-2.485-0.616-3.728-1.85-3.728
							c-0.646,0-1.112,0.311-1.4,0.934C185.019,5.926,184.874,6.857,184.874,8.097z"/>
						<path style="fill:#FFFFFF;" d="M194.977,10.258c0,0.723-0.19,1.289-0.571,1.698c-0.381,0.409-0.932,0.613-1.65,0.613
							c-0.392,0-0.735-0.05-1.032-0.15c-0.296-0.1-0.526-0.211-0.69-0.333v-0.878c0.196,0.195,0.455,0.352,0.778,0.471
							c0.322,0.119,0.653,0.178,0.991,0.178c0.444,0,0.794-0.145,1.048-0.435s0.381-0.678,0.381-1.164
							c0-0.38-0.091-0.701-0.273-0.962s-0.53-0.558-1.044-0.89c-0.587-0.37-0.988-0.665-1.202-0.887s-0.381-0.469-0.5-0.744
							c-0.119-0.274-0.179-0.601-0.179-0.981c0-0.617,0.209-1.127,0.627-1.531s0.95-0.605,1.596-0.605
							c0.692,0,1.271,0.164,1.737,0.491l-0.389,0.657c-0.434-0.29-0.895-0.435-1.381-0.435c-0.444,0-0.799,0.13-1.063,0.392
							s-0.396,0.605-0.396,1.033c0,0.38,0.09,0.698,0.27,0.954s0.561,0.566,1.143,0.93c0.571,0.375,0.963,0.674,1.175,0.898
							c0.212,0.225,0.369,0.473,0.472,0.744C194.925,9.592,194.977,9.904,194.977,10.258z"/>
						<path style="fill:#FFFFFF;" d="M199.613,12.569c-0.91,0-1.609-0.386-2.099-1.16c-0.489-0.773-0.734-1.851-0.734-3.233
							c0-1.467,0.219-2.587,0.654-3.36c0.437-0.773,1.065-1.16,1.885-1.16c0.715,0,1.278,0.339,1.69,1.017
							c0.413,0.678,0.619,1.592,0.619,2.743v0.696h-4.079c0.011,1.25,0.188,2.188,0.532,2.81s0.864,0.934,1.563,0.934
							c0.539,0,1.107-0.177,1.706-0.53v0.729C200.801,12.397,200.222,12.569,199.613,12.569z M199.272,4.337
							c-1.037,0-1.606,1.032-1.706,3.095h3.309c0-0.944-0.145-1.696-0.433-2.256C200.154,4.617,199.764,4.337,199.272,4.337z"/>
						<path style="fill:#FFFFFF;" d="M206.471,4.488h-1.349v7.923h-0.746V4.488h-1.095V4.06l1.095-0.324V3.087
							c0-1.092,0.13-1.878,0.389-2.359c0.259-0.48,0.709-0.72,1.349-0.72c0.371,0,0.707,0.066,1.008,0.198l-0.262,0.697
							c-0.28-0.132-0.534-0.198-0.762-0.198c-0.259,0-0.455,0.077-0.587,0.23c-0.133,0.153-0.23,0.401-0.294,0.744
							c-0.063,0.343-0.095,0.818-0.095,1.425v0.72h1.349V4.488z"/>
						<path style="fill:#FFFFFF;" d="M209.045,3.823v5.604c0,0.85,0.102,1.47,0.306,1.86c0.203,0.391,0.517,0.586,0.94,0.586
							c0.65,0,1.128-0.263,1.432-0.788c0.305-0.525,0.456-1.374,0.456-2.545V3.823h0.746v8.588h-0.635l-0.095-1.203h-0.063
							c-0.186,0.438-0.442,0.774-0.77,1.009c-0.328,0.235-0.686,0.352-1.071,0.352c-0.693,0-1.2-0.245-1.521-0.736
							c-0.319-0.491-0.479-1.293-0.479-2.406V3.823H209.045z"/>
						<path style="fill:#FFFFFF;" d="M216.68,12.411h-0.754V0.095h0.754V12.411z"/>
						<path style="fill:#FFFFFF;" d="M220.222,12.411h-0.754V0.095h0.754V12.411z"/>
						<path style="fill:#FFFFFF;" d="M224.09,12.395l-2.15-8.572h0.762l1.302,5.358c0.153,0.644,0.302,1.37,0.444,2.177h0.063
							c0.101-0.702,0.241-1.433,0.421-2.192l1.27-5.343h0.762l-2.516,10.21c-0.186,0.754-0.427,1.322-0.726,1.702
							c-0.3,0.38-0.697,0.57-1.194,0.57c-0.201,0-0.429-0.045-0.683-0.134V15.49c0.211,0.074,0.418,0.111,0.619,0.111
							c0.317,0,0.568-0.136,0.754-0.408c0.185-0.272,0.349-0.708,0.491-1.31L224.09,12.395z"/>
						<path style="fill:#FFFFFF;" d="M236.042,3.657c0.27,0,0.521,0.037,0.754,0.111l-0.183,0.752
							c-0.19-0.079-0.386-0.119-0.587-0.119c-0.291,0-0.563,0.149-0.813,0.447c-0.251,0.298-0.448,0.714-0.591,1.247
							c-0.144,0.533-0.215,1.122-0.215,1.765v4.551h-0.754V3.823h0.619l0.079,1.504h0.056C234.81,4.213,235.354,3.657,236.042,3.657
							z"/>
						<path style="fill:#FFFFFF;" d="M240.663,12.569c-0.91,0-1.609-0.386-2.099-1.16c-0.489-0.773-0.734-1.851-0.734-3.233
							c0-1.467,0.219-2.587,0.654-3.36c0.437-0.773,1.065-1.16,1.885-1.16c0.715,0,1.278,0.339,1.69,1.017
							c0.413,0.678,0.619,1.592,0.619,2.743v0.696H238.6c0.011,1.25,0.188,2.188,0.532,2.81s0.864,0.934,1.563,0.934
							c0.539,0,1.107-0.177,1.706-0.53v0.729C241.851,12.397,241.271,12.569,240.663,12.569z M240.322,4.337
							c-1.037,0-1.606,1.032-1.706,3.095h3.309c0-0.944-0.145-1.696-0.433-2.256C241.204,4.617,240.813,4.337,240.322,4.337z"/>
						<path style="fill:#FFFFFF;" d="M248.655,12.411l-0.095-1.203h-0.032c-0.412,0.908-1.037,1.361-1.873,1.361
							c-0.561,0-1.012-0.223-1.353-0.669c-0.341-0.446-0.512-1.043-0.512-1.792c0-0.818,0.246-1.465,0.738-1.943
							c0.491-0.478,1.182-0.737,2.07-0.779l0.929-0.048V6.625c0-0.802-0.101-1.387-0.302-1.753s-0.534-0.55-0.999-0.55
							c-0.492,0-0.995,0.161-1.508,0.483l-0.326-0.594c0.599-0.369,1.225-0.554,1.881-0.554c0.709,0,1.22,0.223,1.532,0.669
							c0.312,0.446,0.468,1.191,0.468,2.236v5.849H248.655z M246.822,11.928c0.54,0,0.959-0.265,1.258-0.795
							s0.448-1.281,0.448-2.252V7.986l-0.896,0.047c-0.693,0.037-1.208,0.228-1.544,0.574s-0.504,0.851-0.504,1.516
							c0,0.623,0.111,1.079,0.334,1.37C246.14,11.783,246.441,11.928,246.822,11.928z"/>
						<path style="fill:#FFFFFF;" d="M254.132,12.569c-0.862,0-1.512-0.373-1.948-1.12c-0.436-0.747-0.654-1.843-0.654-3.289
							c0-1.467,0.221-2.584,0.663-3.352c0.441-0.768,1.094-1.151,1.956-1.151c0.534,0,0.979,0.098,1.333,0.293l-0.294,0.665
							c-0.354-0.164-0.68-0.245-0.976-0.245c-1.265,0-1.896,1.258-1.896,3.775c0,2.496,0.632,3.744,1.896,3.744
							c0.375,0,0.782-0.084,1.222-0.253v0.633c-0.175,0.095-0.389,0.169-0.643,0.222S254.317,12.569,254.132,12.569z"/>
						<path style="fill:#FFFFFF;" d="M261.382,12.411V6.49c0-0.776-0.102-1.326-0.306-1.65c-0.203-0.324-0.535-0.487-0.996-0.487
							c-0.608,0-1.065,0.269-1.372,0.808c-0.308,0.538-0.461,1.388-0.461,2.548v4.702h-0.754V0.095h0.754v3.997
							c0,0.364-0.011,0.668-0.031,0.91h0.063c0.169-0.427,0.424-0.758,0.766-0.993c0.341-0.235,0.697-0.352,1.067-0.352
							c0.729,0,1.248,0.237,1.556,0.712c0.307,0.475,0.46,1.182,0.46,2.121v5.92H261.382z"/>
					</g>
				</g>
				<g>
					<g>
						<g>
							<path style="fill:#FFFFFF;" d="M160.442,32.176l-0.095-1.203h-0.032c-0.412,0.908-1.037,1.361-1.873,1.361
								c-0.561,0-1.012-0.223-1.353-0.669c-0.341-0.446-0.512-1.043-0.512-1.792c0-0.818,0.246-1.465,0.738-1.943
								c0.491-0.478,1.182-0.737,2.07-0.779l0.929-0.048v-0.712c0-0.802-0.101-1.387-0.302-1.753s-0.534-0.55-0.999-0.55
								c-0.492,0-0.995,0.161-1.508,0.483l-0.326-0.594c0.599-0.369,1.225-0.554,1.881-0.554c0.709,0,1.22,0.223,1.532,0.669
								c0.312,0.446,0.468,1.191,0.468,2.236v5.849H160.442z M158.609,31.693c0.54,0,0.959-0.265,1.258-0.795
								s0.448-1.281,0.448-2.252v-0.894l-0.896,0.047c-0.693,0.037-1.208,0.228-1.544,0.574s-0.504,0.851-0.504,1.516
								c0,0.623,0.111,1.079,0.334,1.37C157.927,31.548,158.229,31.693,158.609,31.693z"/>
							<path style="fill:#FFFFFF;" d="M167.086,30.023c0,0.723-0.19,1.289-0.571,1.698c-0.381,0.409-0.932,0.613-1.65,0.613
								c-0.392,0-0.735-0.05-1.032-0.15c-0.296-0.1-0.526-0.211-0.69-0.333v-0.878c0.196,0.195,0.455,0.352,0.778,0.471
								c0.322,0.119,0.653,0.178,0.991,0.178c0.444,0,0.794-0.145,1.048-0.435s0.381-0.678,0.381-1.164
								c0-0.38-0.091-0.701-0.273-0.962s-0.53-0.558-1.044-0.89c-0.587-0.37-0.988-0.665-1.202-0.887s-0.381-0.469-0.5-0.744
								c-0.119-0.274-0.179-0.601-0.179-0.981c0-0.617,0.209-1.127,0.627-1.531s0.95-0.605,1.596-0.605
								c0.692,0,1.271,0.164,1.737,0.491l-0.389,0.657c-0.434-0.29-0.895-0.435-1.381-0.435c-0.444,0-0.799,0.13-1.063,0.392
								s-0.396,0.605-0.396,1.033c0,0.38,0.09,0.698,0.27,0.954s0.561,0.566,1.143,0.93c0.571,0.375,0.963,0.674,1.175,0.898
								c0.212,0.225,0.369,0.473,0.472,0.744C167.034,29.357,167.086,29.67,167.086,30.023z"/>
							<path style="fill:#FFFFFF;" d="M172.048,32.334c-0.434,0-0.829-0.12-1.187-0.36c-0.356-0.24-0.628-0.569-0.813-0.985h-0.071
								l0.056,0.941v4.14h-0.754V23.588h0.619l0.079,1.179h0.071c0.212-0.433,0.483-0.765,0.813-0.997
								c0.331-0.232,0.692-0.348,1.084-0.348c1.682,0,2.523,1.48,2.523,4.44c0,1.43-0.207,2.533-0.619,3.308
								C173.437,31.947,172.836,32.334,172.048,32.334z M171.897,24.135c-0.63,0-1.098,0.277-1.404,0.831
								c-0.308,0.554-0.461,1.422-0.461,2.604v0.245c0,1.319,0.156,2.289,0.469,2.909c0.312,0.62,0.788,0.93,1.428,0.93
								c0.593,0,1.033-0.307,1.321-0.922c0.289-0.615,0.433-1.571,0.433-2.869c0-1.24-0.135-2.171-0.404-2.794
								C173.008,24.446,172.548,24.135,171.897,24.135z"/>
							<path style="fill:#FFFFFF;" d="M176.774,21.206c0-0.237,0.049-0.422,0.146-0.554c0.098-0.132,0.224-0.198,0.377-0.198
								c0.143,0,0.257,0.066,0.341,0.198c0.085,0.132,0.127,0.317,0.127,0.554c0,0.227-0.042,0.408-0.127,0.542
								c-0.084,0.135-0.198,0.202-0.341,0.202c-0.153,0-0.279-0.067-0.377-0.202C176.823,21.614,176.774,21.433,176.774,21.206z
								 M177.639,32.176h-0.754v-8.588h0.754V32.176z"/>
							<path style="fill:#FFFFFF;" d="M182.816,23.422c0.27,0,0.521,0.037,0.754,0.111l-0.183,0.752
								c-0.19-0.079-0.386-0.119-0.587-0.119c-0.291,0-0.563,0.149-0.813,0.447c-0.251,0.298-0.448,0.714-0.591,1.247
								c-0.144,0.533-0.215,1.122-0.215,1.765v4.551h-0.754v-8.588h0.619l0.079,1.504h0.056
								C181.584,23.979,182.129,23.422,182.816,23.422z"/>
							<path style="fill:#FFFFFF;" d="M188.326,32.176l-0.095-1.203h-0.032c-0.412,0.908-1.037,1.361-1.873,1.361
								c-0.561,0-1.012-0.223-1.353-0.669c-0.341-0.446-0.512-1.043-0.512-1.792c0-0.818,0.246-1.465,0.738-1.943
								c0.491-0.478,1.182-0.737,2.07-0.779l0.929-0.048v-0.712c0-0.802-0.101-1.387-0.302-1.753s-0.534-0.55-0.999-0.55
								c-0.492,0-0.995,0.161-1.508,0.483l-0.326-0.594c0.599-0.369,1.225-0.554,1.881-0.554c0.709,0,1.22,0.223,1.532,0.669
								c0.312,0.446,0.468,1.191,0.468,2.236v5.849H188.326z M186.493,31.693c0.54,0,0.959-0.265,1.258-0.795
								s0.448-1.281,0.448-2.252v-0.894l-0.896,0.047c-0.693,0.037-1.208,0.228-1.544,0.574s-0.504,0.851-0.504,1.516
								c0,0.623,0.111,1.079,0.334,1.37C185.811,31.548,186.112,31.693,186.493,31.693z"/>
							<path style="fill:#FFFFFF;" d="M193.168,31.638c0.233,0,0.439-0.032,0.619-0.095v0.633c-0.232,0.105-0.531,0.158-0.896,0.158
								c-0.889,0-1.333-0.662-1.333-1.987v-6.094h-0.778V23.81l0.763-0.222l0.245-2.042h0.524v2.042h1.364v0.665h-1.364v5.881
								c0,0.581,0.063,0.976,0.19,1.187C192.629,31.533,192.851,31.638,193.168,31.638z"/>
							<path style="fill:#FFFFFF;" d="M195.528,21.206c0-0.237,0.049-0.422,0.146-0.554c0.098-0.132,0.224-0.198,0.377-0.198
								c0.143,0,0.257,0.066,0.341,0.198c0.085,0.132,0.127,0.317,0.127,0.554c0,0.227-0.042,0.408-0.127,0.542
								c-0.084,0.135-0.198,0.202-0.341,0.202c-0.153,0-0.279-0.067-0.377-0.202C195.577,21.614,195.528,21.433,195.528,21.206z
								 M196.393,32.176h-0.754v-8.588h0.754V32.176z"/>
							<path style="fill:#FFFFFF;" d="M204.03,27.863c0,1.446-0.229,2.552-0.687,3.32c-0.457,0.768-1.112,1.151-1.964,1.151
								c-0.841,0-1.485-0.384-1.933-1.151c-0.446-0.768-0.67-1.875-0.67-3.32c0-2.96,0.878-4.44,2.635-4.44
								c0.825,0,1.468,0.388,1.928,1.164C203.801,25.361,204.03,26.454,204.03,27.863z M199.563,27.863
								c0,1.24,0.148,2.176,0.444,2.81c0.297,0.633,0.76,0.95,1.389,0.95c1.233,0,1.85-1.253,1.85-3.759
								c0-2.485-0.616-3.728-1.85-3.728c-0.646,0-1.112,0.311-1.4,0.934C199.707,25.691,199.563,26.623,199.563,27.863z"/>
							<path style="fill:#FFFFFF;" d="M210.173,32.176v-5.92c0-1.425-0.423-2.137-1.27-2.137c-0.646,0-1.118,0.267-1.417,0.799
								c-0.299,0.533-0.448,1.38-0.448,2.541v4.717h-0.754v-8.588h0.635l0.063,1.195h0.071c0.181-0.433,0.439-0.768,0.778-1.005
								c0.338-0.237,0.701-0.356,1.087-0.356c0.667,0,1.167,0.223,1.5,0.669c0.333,0.446,0.5,1.162,0.5,2.149v5.936H210.173z"/>
							<path style="fill:#FFFFFF;" d="M217.221,32.176l-0.095-1.203h-0.032c-0.412,0.908-1.037,1.361-1.873,1.361
								c-0.561,0-1.012-0.223-1.353-0.669c-0.341-0.446-0.512-1.043-0.512-1.792c0-0.818,0.246-1.465,0.738-1.943
								c0.491-0.478,1.182-0.737,2.07-0.779l0.929-0.048v-0.712c0-0.802-0.101-1.387-0.302-1.753s-0.534-0.55-0.999-0.55
								c-0.492,0-0.995,0.161-1.508,0.483l-0.326-0.594c0.599-0.369,1.225-0.554,1.881-0.554c0.709,0,1.22,0.223,1.532,0.669
								c0.312,0.446,0.468,1.191,0.468,2.236v5.849H217.221z M215.388,31.693c0.54,0,0.959-0.265,1.258-0.795
								s0.448-1.281,0.448-2.252v-0.894l-0.896,0.047c-0.693,0.037-1.208,0.228-1.544,0.574s-0.504,0.851-0.504,1.516
								c0,0.623,0.111,1.079,0.334,1.37C214.705,31.548,215.007,31.693,215.388,31.693z"/>
							<path style="fill:#FFFFFF;" d="M221.236,32.176h-0.754V19.86h0.754V32.176z"/>
							<path style="fill:#FFFFFF;" d="M232.333,32.334c-0.862,0-1.512-0.373-1.948-1.12c-0.436-0.747-0.654-1.843-0.654-3.289
								c0-1.467,0.221-2.584,0.663-3.352c0.441-0.768,1.094-1.151,1.956-1.151c0.534,0,0.979,0.098,1.333,0.293l-0.294,0.665
								c-0.354-0.164-0.68-0.245-0.976-0.245c-1.265,0-1.896,1.258-1.896,3.775c0,2.496,0.632,3.744,1.896,3.744
								c0.375,0,0.782-0.084,1.222-0.253v0.633c-0.175,0.095-0.389,0.169-0.643,0.222S232.519,32.334,232.333,32.334z"/>
							<path style="fill:#FFFFFF;" d="M236.449,32.176h-0.754V19.86h0.754V32.176z"/>
							<path style="fill:#FFFFFF;" d="M239.127,21.206c0-0.237,0.049-0.422,0.146-0.554c0.098-0.132,0.224-0.198,0.377-0.198
								c0.143,0,0.257,0.066,0.341,0.198c0.085,0.132,0.127,0.317,0.127,0.554c0,0.227-0.042,0.408-0.127,0.542
								c-0.084,0.135-0.198,0.202-0.341,0.202c-0.153,0-0.279-0.067-0.377-0.202C239.176,21.614,239.127,21.433,239.127,21.206z
								 M239.991,32.176h-0.754v-8.588h0.754V32.176z"/>
							<path style="fill:#FFFFFF;" d="M245.225,32.334c-0.91,0-1.609-0.386-2.099-1.16c-0.489-0.773-0.734-1.851-0.734-3.233
								c0-1.467,0.219-2.587,0.654-3.36c0.437-0.773,1.065-1.16,1.885-1.16c0.715,0,1.278,0.339,1.69,1.017
								c0.413,0.678,0.619,1.592,0.619,2.743v0.696h-4.079c0.011,1.25,0.188,2.188,0.532,2.81s0.864,0.934,1.563,0.934
								c0.539,0,1.107-0.177,1.706-0.53v0.729C246.412,32.163,245.833,32.334,245.225,32.334z M244.884,24.103
								c-1.037,0-1.606,1.032-1.706,3.095h3.309c0-0.944-0.145-1.696-0.433-2.256C245.766,24.383,245.375,24.103,244.884,24.103z"/>
							<path style="fill:#FFFFFF;" d="M253.772,32.176v-5.92c0-1.425-0.423-2.137-1.27-2.137c-0.646,0-1.118,0.267-1.417,0.799
								c-0.299,0.533-0.448,1.38-0.448,2.541v4.717h-0.754v-8.588h0.635l0.063,1.195h0.071c0.181-0.433,0.439-0.768,0.778-1.005
								c0.338-0.237,0.701-0.356,1.087-0.356c0.667,0,1.167,0.223,1.5,0.669c0.333,0.446,0.5,1.162,0.5,2.149v5.936H253.772z"/>
							<path style="fill:#FFFFFF;" d="M259.065,31.638c0.233,0,0.439-0.032,0.619-0.095v0.633c-0.232,0.105-0.531,0.158-0.896,0.158
								c-0.889,0-1.333-0.662-1.333-1.987v-6.094h-0.778V23.81l0.763-0.222l0.245-2.042h0.524v2.042h1.364v0.665h-1.364v5.881
								c0,0.581,0.063,0.976,0.19,1.187C258.526,31.533,258.748,31.638,259.065,31.638z"/>
							<path style="fill:#FFFFFF;" d="M264.918,30.023c0,0.723-0.19,1.289-0.571,1.698c-0.381,0.409-0.932,0.613-1.65,0.613
								c-0.392,0-0.735-0.05-1.032-0.15c-0.296-0.1-0.526-0.211-0.69-0.333v-0.878c0.196,0.195,0.455,0.352,0.778,0.471
								c0.322,0.119,0.653,0.178,0.991,0.178c0.444,0,0.794-0.145,1.048-0.435s0.381-0.678,0.381-1.164
								c0-0.38-0.091-0.701-0.273-0.962s-0.53-0.558-1.044-0.89c-0.587-0.37-0.988-0.665-1.202-0.887s-0.381-0.469-0.5-0.744
								c-0.119-0.274-0.179-0.601-0.179-0.981c0-0.617,0.209-1.127,0.627-1.531s0.95-0.605,1.596-0.605
								c0.692,0,1.271,0.164,1.737,0.491l-0.389,0.657c-0.434-0.29-0.895-0.435-1.381-0.435c-0.444,0-0.799,0.13-1.063,0.392
								s-0.396,0.605-0.396,1.033c0,0.38,0.09,0.698,0.27,0.954s0.561,0.566,1.143,0.93c0.571,0.375,0.963,0.674,1.175,0.898
								c0.212,0.225,0.369,0.473,0.472,0.744C264.866,29.357,264.918,29.67,264.918,30.023z"/>
						</g>
					</g>
					<g>
						<g>
							<g>
								<path style="fill:#FFFFFF;" d="M3.709,72.088c-0.873,0-1.567,0.461-2.083,1.381c-0.516,0.922-0.773,2.197-0.773,3.828
									c0,1.061,0.119,1.984,0.357,2.77c0.238,0.787,0.579,1.391,1.024,1.813c0.444,0.422,0.96,0.633,1.547,0.633
									c0.603,0,1.122-0.107,1.555-0.324V82.9c-0.413,0.238-0.955,0.355-1.627,0.355c-0.735,0-1.379-0.236-1.932-0.711
									c-0.553-0.477-0.98-1.162-1.282-2.063c-0.301-0.9-0.452-1.967-0.452-3.201c0-1.848,0.329-3.299,0.988-4.354
									c0.659-1.057,1.557-1.584,2.694-1.584c0.709,0,1.328,0.164,1.857,0.492l-0.357,0.68C4.78,72.23,4.275,72.088,3.709,72.088z"
									/>
								<path style="fill:#FFFFFF;" d="M9.802,74.344c0.27,0,0.521,0.037,0.754,0.111l-0.182,0.752
									c-0.191-0.08-0.386-0.119-0.587-0.119c-0.291,0-0.562,0.148-0.813,0.447s-0.448,0.715-0.591,1.246
									c-0.143,0.533-0.214,1.121-0.214,1.766v4.551H7.414V74.51h0.619l0.08,1.504h0.055C8.57,74.9,9.115,74.344,9.802,74.344z"/>
								<path style="fill:#FFFFFF;" d="M14.424,83.256c-0.91,0-1.609-0.387-2.099-1.158c-0.489-0.773-0.734-1.852-0.734-3.234
									c0-1.467,0.218-2.586,0.655-3.359s1.064-1.16,1.885-1.16c0.714,0,1.277,0.34,1.69,1.018
									c0.413,0.678,0.619,1.592,0.619,2.742v0.697h-4.079c0.01,1.25,0.188,2.188,0.532,2.809c0.344,0.623,0.865,0.936,1.563,0.936
									c0.54,0,1.108-0.178,1.706-0.531v0.729C15.611,83.086,15.032,83.256,14.424,83.256z M14.083,75.025
									c-1.037,0-1.605,1.031-1.706,3.094h3.309c0-0.943-0.144-1.695-0.433-2.256C14.965,75.305,14.575,75.025,14.083,75.025z"/>
								<path style="fill:#FFFFFF;" d="M22.416,83.098l-0.095-1.203h-0.032c-0.413,0.908-1.037,1.361-1.873,1.361
									c-0.561,0-1.012-0.223-1.353-0.668s-0.512-1.043-0.512-1.793c0-0.818,0.246-1.465,0.738-1.943
									c0.492-0.477,1.183-0.736,2.071-0.779l0.928-0.047v-0.713c0-0.803-0.101-1.387-0.301-1.754
									c-0.201-0.365-0.535-0.549-1-0.549c-0.492,0-0.995,0.16-1.508,0.482l-0.325-0.594c0.598-0.369,1.225-0.555,1.881-0.555
									c0.708,0,1.219,0.223,1.531,0.67c0.312,0.445,0.468,1.191,0.468,2.234v5.85H22.416z M20.583,82.615
									c0.54,0,0.959-0.266,1.258-0.795c0.299-0.531,0.448-1.281,0.448-2.252v-0.895l-0.896,0.047
									c-0.693,0.037-1.208,0.229-1.543,0.574s-0.504,0.852-0.504,1.516c0,0.623,0.111,1.08,0.333,1.369
									C19.9,82.471,20.202,82.615,20.583,82.615z"/>
								<path style="fill:#FFFFFF;" d="M27.258,82.561c0.232,0,0.439-0.033,0.619-0.096v0.633c-0.233,0.105-0.532,0.158-0.896,0.158
									c-0.889,0-1.333-0.662-1.333-1.986v-6.094h-0.778v-0.443l0.762-0.223l0.246-2.041H26.4v2.041h1.365v0.666H26.4v5.881
									c0,0.58,0.063,0.977,0.191,1.188C26.718,82.455,26.94,82.561,27.258,82.561z"/>
								<path style="fill:#FFFFFF;" d="M32.173,83.256c-0.91,0-1.609-0.387-2.099-1.158c-0.489-0.773-0.734-1.852-0.734-3.234
									c0-1.467,0.218-2.586,0.655-3.359s1.064-1.16,1.885-1.16c0.714,0,1.277,0.34,1.69,1.018
									c0.413,0.678,0.619,1.592,0.619,2.742v0.697H30.11c0.01,1.25,0.188,2.188,0.532,2.809c0.344,0.623,0.865,0.936,1.563,0.936
									c0.54,0,1.108-0.178,1.706-0.531v0.729C33.36,83.086,32.781,83.256,32.173,83.256z M31.832,75.025
									c-1.037,0-1.605,1.031-1.706,3.094h3.309c0-0.943-0.144-1.695-0.433-2.256C32.714,75.305,32.324,75.025,31.832,75.025z"/>
								<path style="fill:#FFFFFF;" d="M42.979,82.561c0.232,0,0.439-0.033,0.619-0.096v0.633c-0.233,0.105-0.532,0.158-0.896,0.158
									c-0.889,0-1.333-0.662-1.333-1.986v-6.094H40.59v-0.443l0.762-0.223l0.246-2.041h0.523v2.041h1.365v0.666h-1.365v5.881
									c0,0.58,0.063,0.977,0.191,1.188C42.439,82.455,42.661,82.561,42.979,82.561z"/>
								<path style="fill:#FFFFFF;" d="M49.338,83.098v-5.92c0-0.775-0.102-1.326-0.306-1.65s-0.536-0.486-0.996-0.486
									c-0.608,0-1.066,0.27-1.373,0.807c-0.307,0.539-0.46,1.389-0.46,2.549v4.701H45.45V70.783h0.753v3.996
									c0,0.363-0.01,0.668-0.032,0.91h0.063c0.169-0.428,0.425-0.758,0.766-0.992c0.341-0.236,0.697-0.354,1.067-0.354
									c0.73,0,1.249,0.238,1.555,0.713s0.46,1.182,0.46,2.121v5.92H49.338z"/>
								<path style="fill:#FFFFFF;" d="M57.901,78.785c0,1.445-0.229,2.553-0.686,3.32c-0.458,0.768-1.112,1.15-1.964,1.15
									c-0.841,0-1.485-0.383-1.932-1.15c-0.447-0.768-0.67-1.875-0.67-3.32c0-2.961,0.878-4.441,2.634-4.441
									c0.826,0,1.468,0.389,1.929,1.164C57.671,76.283,57.901,77.375,57.901,78.785z M53.434,78.785
									c0,1.24,0.148,2.176,0.444,2.809c0.296,0.633,0.759,0.951,1.389,0.951c1.232,0,1.849-1.254,1.849-3.76
									c0-2.486-0.617-3.729-1.849-3.729c-0.646,0-1.112,0.311-1.401,0.934C53.578,76.613,53.434,77.545,53.434,78.785z"/>
								<path style="fill:#FFFFFF;" d="M60.877,74.51v5.604c0,0.85,0.102,1.471,0.306,1.861s0.517,0.586,0.94,0.586
									c0.651,0,1.128-0.264,1.433-0.789c0.304-0.523,0.456-1.373,0.456-2.543V74.51h0.746v8.588h-0.635l-0.096-1.203h-0.063
									c-0.185,0.439-0.441,0.775-0.77,1.01s-0.685,0.352-1.071,0.352c-0.693,0-1.2-0.244-1.52-0.736
									c-0.32-0.49-0.48-1.291-0.48-2.406V74.51H60.877z"/>
								<path style="fill:#FFFFFF;" d="M72.266,74.51v0.531l-1.175,0.135c0.159,0.205,0.289,0.5,0.389,0.883
									c0.1,0.381,0.15,0.773,0.15,1.174c0,0.834-0.189,1.51-0.567,2.027c-0.378,0.518-0.876,0.775-1.496,0.775h-0.19L69.21,80.02
									c-0.254,0.18-0.454,0.359-0.599,0.537c-0.146,0.18-0.218,0.389-0.218,0.627c0,0.242,0.095,0.43,0.286,0.564
									s0.447,0.203,0.77,0.203h0.54c0.767,0,1.362,0.197,1.786,0.594c0.423,0.395,0.635,0.967,0.635,1.717
									c0,0.84-0.284,1.504-0.853,1.994s-1.319,0.736-2.25,0.736c-0.778,0-1.376-0.197-1.793-0.59
									c-0.418-0.393-0.627-0.959-0.627-1.697c0-0.539,0.137-0.998,0.413-1.381c0.275-0.383,0.706-0.686,1.293-0.906
									c-0.265-0.117-0.478-0.277-0.639-0.482c-0.162-0.207-0.242-0.451-0.242-0.736c0-0.26,0.086-0.49,0.258-0.693
									s0.417-0.42,0.734-0.652c-0.439-0.201-0.771-0.525-0.996-0.975c-0.225-0.447-0.337-0.977-0.337-1.582
									c0-0.914,0.193-1.633,0.58-2.162c0.386-0.527,0.915-0.791,1.587-0.791c0.36,0,0.661,0.057,0.905,0.166H72.266z
									 M67.631,84.641c0,0.545,0.141,0.969,0.424,1.275c0.283,0.307,0.71,0.459,1.282,0.459c0.708,0,1.271-0.186,1.686-0.555
									c0.416-0.369,0.623-0.875,0.623-1.52c0-0.518-0.142-0.916-0.424-1.199c-0.283-0.281-0.695-0.424-1.234-0.424h-0.555
									c-0.519,0-0.948,0.182-1.29,0.543S67.631,84.057,67.631,84.641z M68.099,77.313c0,0.701,0.13,1.232,0.389,1.594
									c0.259,0.363,0.603,0.543,1.031,0.543c0.921,0,1.381-0.738,1.381-2.217c0-0.711-0.118-1.268-0.353-1.67
									c-0.235-0.4-0.578-0.602-1.028-0.602c-0.46,0-0.812,0.207-1.055,0.617C68.221,75.99,68.099,76.568,68.099,77.313z"/>
								<path style="fill:#FFFFFF;" d="M78.242,83.098v-5.92c0-0.775-0.102-1.326-0.306-1.65s-0.536-0.486-0.996-0.486
									c-0.608,0-1.066,0.27-1.373,0.807c-0.307,0.539-0.46,1.389-0.46,2.549v4.701h-0.753V70.783h0.753v3.996
									c0,0.363-0.01,0.668-0.032,0.91h0.063c0.169-0.428,0.425-0.758,0.766-0.992c0.341-0.236,0.697-0.354,1.067-0.354
									c0.73,0,1.249,0.238,1.555,0.713s0.46,1.182,0.46,2.121v5.92H78.242z"/>
								<path style="fill:#FFFFFF;" d="M83.535,82.561c0.232,0,0.439-0.033,0.619-0.096v0.633c-0.233,0.105-0.532,0.158-0.896,0.158
									c-0.889,0-1.333-0.662-1.333-1.986v-6.094h-0.778v-0.443l0.762-0.223l0.246-2.041h0.523v2.041h1.365v0.666h-1.365v5.881
									c0,0.58,0.063,0.977,0.191,1.188C82.996,82.455,83.218,82.561,83.535,82.561z"/>
							</g>
						</g>
						<g>
							<g>
								<g>
									<path style="fill:#FFFFFF;" d="M1.066,102.84H0.313V90.525h0.753V102.84z"/>
									<path style="fill:#FFFFFF;" d="M6.3,102.998c-0.91,0-1.609-0.387-2.099-1.158c-0.489-0.773-0.734-1.852-0.734-3.234
										c0-1.467,0.218-2.586,0.655-3.359s1.064-1.16,1.885-1.16c0.714,0,1.277,0.34,1.69,1.018
										c0.413,0.678,0.619,1.592,0.619,2.742v0.697H4.237c0.01,1.25,0.188,2.188,0.532,2.809c0.344,0.623,0.865,0.936,1.563,0.936
										c0.54,0,1.108-0.178,1.706-0.531v0.729C7.487,102.828,6.908,102.998,6.3,102.998z M5.958,94.768
										c-1.037,0-1.605,1.031-1.706,3.094h3.309c0-0.943-0.144-1.695-0.433-2.256C6.841,95.047,6.451,94.768,5.958,94.768z"/>
									<path style="fill:#FFFFFF;" d="M14.292,102.84l-0.095-1.203h-0.032c-0.413,0.908-1.037,1.361-1.873,1.361
										c-0.561,0-1.012-0.223-1.353-0.668s-0.512-1.043-0.512-1.793c0-0.818,0.246-1.465,0.738-1.943
										c0.492-0.477,1.183-0.736,2.071-0.779l0.928-0.047v-0.713c0-0.803-0.101-1.387-0.301-1.754
										c-0.201-0.365-0.535-0.549-1-0.549c-0.492,0-0.995,0.16-1.508,0.482l-0.325-0.594c0.598-0.369,1.225-0.555,1.881-0.555
										c0.708,0,1.219,0.223,1.531,0.67c0.312,0.445,0.468,1.191,0.468,2.234v5.85H14.292z M12.459,102.357
										c0.54,0,0.959-0.266,1.258-0.795c0.299-0.531,0.448-1.281,0.448-2.252v-0.895l-0.896,0.047
										c-0.693,0.037-1.208,0.229-1.543,0.574s-0.504,0.852-0.504,1.516c0,0.623,0.111,1.08,0.333,1.369
										C11.776,102.213,12.078,102.357,12.459,102.357z"/>
									<path style="fill:#FFFFFF;" d="M19.657,102.998c-1.672,0-2.507-1.48-2.507-4.439c0-1.457,0.209-2.566,0.627-3.328
										c0.417-0.764,1.034-1.145,1.849-1.145c0.386,0,0.752,0.111,1.099,0.332c0.347,0.223,0.623,0.529,0.83,0.918h0.063
										l-0.032-0.957v-3.854h0.753v12.314h-0.619l-0.063-1.203h-0.071c-0.207,0.439-0.474,0.775-0.802,1.01
										S20.081,102.998,19.657,102.998z M19.705,102.342c0.603,0,1.067-0.279,1.393-0.836s0.488-1.375,0.488-2.457v-0.49
										c0-1.299-0.158-2.25-0.472-2.854c-0.315-0.604-0.795-0.906-1.44-0.906c-0.619,0-1.063,0.322-1.333,0.969
										c-0.27,0.646-0.404,1.582-0.404,2.807c0,1.234,0.14,2.172,0.42,2.811S19.086,102.342,19.705,102.342z"/>
									<path style="fill:#FFFFFF;" d="M27.605,102.998c-0.91,0-1.609-0.387-2.099-1.158c-0.489-0.773-0.734-1.852-0.734-3.234
										c0-1.467,0.218-2.586,0.655-3.359s1.064-1.16,1.885-1.16c0.714,0,1.277,0.34,1.69,1.018
										c0.413,0.678,0.619,1.592,0.619,2.742v0.697h-4.079c0.01,1.25,0.188,2.188,0.532,2.809
										c0.344,0.623,0.865,0.936,1.563,0.936c0.54,0,1.108-0.178,1.706-0.531v0.729C28.792,102.828,28.213,102.998,27.605,102.998
										z M27.264,94.768c-1.037,0-1.605,1.031-1.706,3.094h3.309c0-0.943-0.144-1.695-0.433-2.256
										C28.146,95.047,27.756,94.768,27.264,94.768z"/>
									<path style="fill:#FFFFFF;" d="M34.653,94.086c0.27,0,0.521,0.037,0.754,0.111l-0.182,0.752
										c-0.191-0.08-0.386-0.119-0.587-0.119c-0.291,0-0.562,0.148-0.813,0.447s-0.448,0.715-0.591,1.246
										c-0.143,0.533-0.214,1.121-0.214,1.766v4.551h-0.753v-8.588h0.619l0.08,1.504h0.055
										C33.42,94.643,33.965,94.086,34.653,94.086z"/>
									<path style="fill:#FFFFFF;" d="M40.715,100.688c0,0.723-0.19,1.289-0.571,1.697c-0.381,0.41-0.931,0.613-1.651,0.613
										c-0.392,0-0.735-0.049-1.031-0.15c-0.296-0.1-0.527-0.211-0.69-0.332v-0.879c0.195,0.195,0.455,0.354,0.777,0.471
										c0.323,0.119,0.653,0.18,0.992,0.18c0.444,0,0.793-0.146,1.047-0.436c0.254-0.291,0.381-0.678,0.381-1.164
										c0-0.381-0.091-0.701-0.274-0.961c-0.182-0.262-0.53-0.559-1.043-0.891c-0.587-0.369-0.988-0.666-1.202-0.887
										c-0.214-0.223-0.381-0.471-0.5-0.744c-0.119-0.275-0.178-0.602-0.178-0.982c0-0.617,0.209-1.127,0.627-1.531
										c0.417-0.402,0.949-0.605,1.595-0.605c0.693,0,1.272,0.164,1.738,0.49l-0.389,0.658c-0.434-0.291-0.894-0.436-1.381-0.436
										c-0.444,0-0.799,0.131-1.063,0.393c-0.264,0.26-0.396,0.605-0.396,1.031c0,0.381,0.09,0.699,0.27,0.955
										c0.18,0.256,0.561,0.564,1.143,0.93c0.571,0.375,0.962,0.674,1.174,0.898c0.211,0.225,0.369,0.473,0.472,0.744
										S40.715,100.334,40.715,100.688z"/>
									<path style="fill:#FFFFFF;" d="M46.796,102.84v-5.92c0-0.775-0.102-1.326-0.306-1.65s-0.536-0.486-0.996-0.486
										c-0.608,0-1.066,0.27-1.373,0.807c-0.307,0.539-0.46,1.389-0.46,2.549v4.701h-0.753V90.525h0.753v3.996
										c0,0.363-0.01,0.668-0.032,0.91h0.063c0.169-0.428,0.425-0.758,0.766-0.992c0.341-0.236,0.697-0.354,1.067-0.354
										c0.73,0,1.249,0.238,1.555,0.713s0.46,1.182,0.46,2.121v5.92H46.796z"/>
									<path style="fill:#FFFFFF;" d="M50.399,91.869c0-0.236,0.049-0.422,0.147-0.553c0.098-0.133,0.223-0.197,0.377-0.197
										c0.143,0,0.256,0.064,0.341,0.197c0.085,0.131,0.127,0.316,0.127,0.553c0,0.229-0.042,0.408-0.127,0.543
										c-0.084,0.135-0.198,0.201-0.341,0.201c-0.154,0-0.279-0.066-0.377-0.201C50.448,92.277,50.399,92.098,50.399,91.869z
										 M51.264,102.84h-0.753v-8.588h0.753V102.84z"/>
									<path style="fill:#FFFFFF;" d="M56.822,102.998c-0.434,0-0.829-0.119-1.186-0.359c-0.357-0.24-0.628-0.568-0.813-0.986
										h-0.071l0.055,0.943v4.139h-0.753V94.252h0.619l0.08,1.18h0.071c0.211-0.432,0.483-0.766,0.813-0.996
										c0.331-0.232,0.691-0.35,1.083-0.35c1.683,0,2.523,1.48,2.523,4.441c0,1.43-0.206,2.531-0.619,3.309
										C58.211,102.611,57.611,102.998,56.822,102.998z M56.672,94.799c-0.63,0-1.098,0.277-1.405,0.83
										c-0.307,0.555-0.46,1.424-0.46,2.605v0.244c0,1.32,0.156,2.289,0.468,2.91c0.312,0.619,0.789,0.93,1.429,0.93
										c0.592,0,1.033-0.309,1.321-0.922c0.288-0.615,0.432-1.572,0.432-2.869c0-1.24-0.135-2.172-0.404-2.795
										C57.783,95.109,57.322,94.799,56.672,94.799z"/>
									<path style="fill:#FFFFFF;" d="M68.424,94.918h-1.349v7.922H66.33v-7.922h-1.095V94.49l1.095-0.324v-0.65
										c0-1.092,0.129-1.877,0.389-2.357s0.709-0.721,1.349-0.721c0.37,0,0.706,0.066,1.008,0.197l-0.262,0.697
										c-0.281-0.133-0.535-0.197-0.762-0.197c-0.259,0-0.455,0.076-0.587,0.229c-0.132,0.154-0.23,0.4-0.293,0.744
										s-0.096,0.818-0.096,1.426v0.719h1.349V94.918z"/>
									<path style="fill:#FFFFFF;" d="M75.125,98.527c0,1.445-0.229,2.553-0.686,3.32c-0.458,0.768-1.112,1.15-1.964,1.15
										c-0.841,0-1.485-0.383-1.932-1.15c-0.447-0.768-0.67-1.875-0.67-3.32c0-2.961,0.878-4.441,2.634-4.441
										c0.826,0,1.468,0.389,1.929,1.164C74.895,96.025,75.125,97.117,75.125,98.527z M70.657,98.527
										c0,1.24,0.148,2.176,0.444,2.809c0.296,0.633,0.759,0.951,1.389,0.951c1.232,0,1.849-1.254,1.849-3.76
										c0-2.486-0.617-3.729-1.849-3.729c-0.646,0-1.112,0.311-1.401,0.934C70.801,96.355,70.657,97.287,70.657,98.527z"/>
									<path style="fill:#FFFFFF;" d="M79.767,94.086c0.27,0,0.521,0.037,0.754,0.111l-0.182,0.752
										c-0.191-0.08-0.386-0.119-0.587-0.119c-0.291,0-0.562,0.148-0.813,0.447s-0.448,0.715-0.591,1.246
										c-0.143,0.533-0.214,1.121-0.214,1.766v4.551h-0.753v-8.588h0.619l0.08,1.504h0.055
										C78.535,94.643,79.08,94.086,79.767,94.086z"/>
								</g>
							</g>
							<g>
								<g>
									<g>
										<path style="fill:#FFFFFF;" d="M4.249,122.098l-3.087-10.535H1.098c0.053,1.109,0.08,1.811,0.08,2.105v8.43H0.432v-11.57
											h1.151l2.603,8.848c0.233,0.781,0.384,1.445,0.453,1.994h0.063c0.053-0.389,0.217-1.049,0.492-1.979l2.579-8.863h1.19
											v11.57H8.185v-8.365c0-0.328,0.027-1.045,0.08-2.154H8.201l-3.071,10.52H4.249z"/>
										<path style="fill:#FFFFFF;" d="M15.317,122.098l-0.095-1.203H15.19c-0.413,0.908-1.037,1.361-1.873,1.361
											c-0.561,0-1.012-0.223-1.353-0.668s-0.512-1.043-0.512-1.793c0-0.818,0.246-1.465,0.738-1.943
											c0.492-0.477,1.183-0.736,2.071-0.779l0.928-0.047v-0.713c0-0.803-0.101-1.387-0.301-1.754
											c-0.201-0.365-0.535-0.549-1-0.549c-0.492,0-0.995,0.16-1.508,0.482l-0.325-0.594c0.598-0.369,1.225-0.555,1.881-0.555
											c0.708,0,1.219,0.223,1.531,0.67c0.312,0.445,0.468,1.191,0.468,2.234v5.85H15.317z M13.484,121.615
											c0.54,0,0.959-0.266,1.258-0.795c0.299-0.531,0.448-1.281,0.448-2.252v-0.895l-0.896,0.047
											c-0.693,0.037-1.208,0.229-1.543,0.574s-0.504,0.852-0.504,1.516c0,0.623,0.111,1.08,0.333,1.369
											C12.801,121.471,13.103,121.615,13.484,121.615z"/>
										<path style="fill:#FFFFFF;" d="M20.968,113.344c0.27,0,0.521,0.037,0.754,0.111l-0.182,0.752
											c-0.191-0.08-0.386-0.119-0.587-0.119c-0.291,0-0.562,0.148-0.813,0.447s-0.448,0.715-0.591,1.246
											c-0.143,0.533-0.214,1.121-0.214,1.766v4.551H18.58v-8.588h0.619l0.08,1.504h0.055
											C19.735,113.9,20.28,113.344,20.968,113.344z"/>
										<path style="fill:#FFFFFF;" d="M24.419,117.848l0.484-0.871l2.127-3.467h0.817l-1.984,3.158l2.158,5.43h-0.793
											l-1.873-4.732l-0.953,1.25v3.482h-0.753v-12.314h0.753v6.625l-0.055,1.439H24.419z"/>
										<path style="fill:#FFFFFF;" d="M31.687,122.256c-0.91,0-1.609-0.387-2.099-1.158c-0.489-0.773-0.734-1.852-0.734-3.234
											c0-1.467,0.218-2.586,0.655-3.359s1.064-1.16,1.885-1.16c0.714,0,1.277,0.34,1.69,1.018
											c0.413,0.678,0.619,1.592,0.619,2.742v0.697h-4.079c0.01,1.25,0.188,2.188,0.532,2.809
											c0.344,0.623,0.865,0.936,1.563,0.936c0.54,0,1.108-0.178,1.706-0.531v0.729
											C32.874,122.086,32.295,122.256,31.687,122.256z M31.345,114.025c-1.037,0-1.605,1.031-1.706,3.094h3.309
											c0-0.943-0.144-1.695-0.433-2.256C32.228,114.305,31.837,114.025,31.345,114.025z"/>
										<path style="fill:#FFFFFF;" d="M37.925,121.561c0.232,0,0.439-0.033,0.619-0.096v0.633
											c-0.233,0.105-0.532,0.158-0.896,0.158c-0.889,0-1.333-0.662-1.333-1.986v-6.094h-0.778v-0.443l0.762-0.223l0.246-2.041
											h0.523v2.041h1.365v0.666h-1.365v5.881c0,0.58,0.063,0.977,0.191,1.188C37.386,121.455,37.608,121.561,37.925,121.561z"/>
										<path style="fill:#FFFFFF;" d="M40.286,111.127c0-0.236,0.049-0.422,0.147-0.553c0.098-0.133,0.223-0.197,0.377-0.197
											c0.143,0,0.256,0.064,0.341,0.197c0.085,0.131,0.127,0.316,0.127,0.553c0,0.229-0.042,0.408-0.127,0.543
											c-0.084,0.135-0.198,0.201-0.341,0.201c-0.154,0-0.279-0.066-0.377-0.201C40.334,111.535,40.286,111.355,40.286,111.127z
											 M41.15,122.098h-0.753v-8.588h0.753V122.098z"/>
										<path style="fill:#FFFFFF;" d="M47.828,122.098v-5.92c0-1.424-0.423-2.137-1.27-2.137c-0.646,0-1.118,0.266-1.417,0.799
											c-0.299,0.533-0.449,1.381-0.449,2.541v4.717h-0.753v-8.588h0.635l0.063,1.195h0.071c0.18-0.432,0.439-0.768,0.778-1.004
											c0.338-0.238,0.701-0.357,1.087-0.357c0.667,0,1.167,0.223,1.5,0.67c0.333,0.445,0.5,1.162,0.5,2.148v5.936H47.828z"/>
										<path style="fill:#FFFFFF;" d="M56.05,113.51v0.531l-1.175,0.135c0.159,0.205,0.289,0.5,0.389,0.883
											c0.1,0.381,0.15,0.773,0.15,1.174c0,0.834-0.189,1.51-0.567,2.027c-0.378,0.518-0.876,0.775-1.496,0.775h-0.19
											l-0.167-0.016c-0.254,0.18-0.454,0.359-0.599,0.537c-0.146,0.18-0.218,0.389-0.218,0.627c0,0.242,0.095,0.43,0.286,0.564
											s0.447,0.203,0.77,0.203h0.54c0.767,0,1.362,0.197,1.786,0.594c0.423,0.395,0.635,0.967,0.635,1.717
											c0,0.84-0.284,1.504-0.853,1.994s-1.319,0.736-2.25,0.736c-0.778,0-1.376-0.197-1.793-0.59
											c-0.418-0.393-0.627-0.959-0.627-1.697c0-0.539,0.137-0.998,0.413-1.381c0.275-0.383,0.706-0.686,1.293-0.906
											c-0.265-0.117-0.478-0.277-0.639-0.482c-0.162-0.207-0.242-0.451-0.242-0.736c0-0.26,0.086-0.49,0.258-0.693
											s0.417-0.42,0.734-0.652c-0.439-0.201-0.771-0.525-0.996-0.975c-0.225-0.447-0.337-0.977-0.337-1.582
											c0-0.914,0.193-1.633,0.58-2.162c0.386-0.527,0.915-0.791,1.587-0.791c0.36,0,0.661,0.057,0.905,0.166H56.05z
											 M51.416,123.641c0,0.545,0.141,0.969,0.424,1.275c0.283,0.307,0.71,0.459,1.282,0.459c0.708,0,1.271-0.186,1.686-0.555
											c0.416-0.369,0.623-0.875,0.623-1.52c0-0.518-0.142-0.916-0.424-1.199c-0.283-0.281-0.695-0.424-1.234-0.424h-0.555
											c-0.519,0-0.948,0.182-1.29,0.543S51.416,123.057,51.416,123.641z M51.883,116.313c0,0.701,0.13,1.232,0.389,1.594
											c0.259,0.363,0.603,0.543,1.031,0.543c0.921,0,1.381-0.738,1.381-2.217c0-0.711-0.118-1.268-0.353-1.67
											c-0.235-0.4-0.578-0.602-1.028-0.602c-0.46,0-0.812,0.207-1.055,0.617C52.005,114.99,51.883,115.568,51.883,116.313z"/>
										<path style="fill:#FFFFFF;" d="M64.481,116.699h-2.46v-0.648h2.46v-3.436h0.651v3.436h2.452v0.648h-2.452v3.42h-0.651
											V116.699z"/>
										<path style="fill:#FFFFFF;" d="M73.986,110.527h2.222c0.91,0,1.609,0.23,2.099,0.695c0.489,0.465,0.734,1.15,0.734,2.059
											c0,1.566-0.574,2.463-1.722,2.691v0.063c0.661,0.137,1.153,0.432,1.476,0.883s0.484,1.08,0.484,1.887
											c0,1.035-0.23,1.842-0.69,2.422c-0.46,0.582-1.105,0.871-1.936,0.871h-2.667V110.527z M74.764,115.68h1.46
											c0.725,0,1.242-0.199,1.552-0.598c0.309-0.398,0.464-1.004,0.464-1.816c0-0.654-0.17-1.156-0.512-1.504
											c-0.341-0.35-0.848-0.523-1.52-0.523h-1.444V115.68z M74.764,116.391v4.996h1.786c1.28,0,1.92-0.867,1.92-2.598
											c0-0.77-0.188-1.361-0.563-1.775c-0.376-0.416-0.902-0.623-1.579-0.623H74.764z"/>
										<path style="fill:#FFFFFF;" d="M87.344,116.201c0,3.932-1.23,5.896-3.69,5.896H81.59v-11.57h2.111
											c1.196,0,2.102,0.48,2.718,1.443C87.036,112.934,87.344,114.344,87.344,116.201z M86.526,116.248
											c0-1.629-0.241-2.873-0.722-3.727c-0.481-0.855-1.193-1.283-2.135-1.283h-1.301v10.148h1.238
											c1.005,0,1.743-0.439,2.214-1.314C86.291,119.195,86.526,117.922,86.526,116.248z"/>
									</g>
								</g>
								<g>
									<g>
										<g>
											<path style="fill:#FFFFFF;" d="M157.229,71.527h2.222c0.91,0,1.61,0.23,2.1,0.695s0.733,1.15,0.733,2.059
												c0,1.566-0.573,2.463-1.722,2.691v0.063c0.661,0.137,1.153,0.432,1.477,0.883c0.322,0.451,0.483,1.08,0.483,1.887
												c0,1.035-0.229,1.842-0.69,2.422c-0.46,0.582-1.105,0.871-1.937,0.871h-2.666V71.527z M158.007,76.68h1.46
												c0.725,0,1.241-0.199,1.551-0.598s0.465-1.004,0.465-1.816c0-0.654-0.171-1.156-0.512-1.504
												c-0.342-0.35-0.849-0.523-1.521-0.523h-1.443V76.68z M158.007,77.391v4.996h1.785c1.28,0,1.92-0.867,1.92-2.598
												c0-0.77-0.188-1.361-0.563-1.775c-0.375-0.416-0.901-0.623-1.579-0.623H158.007z"/>
											<path style="fill:#FFFFFF;" d="M165.436,74.51v5.604c0,0.85,0.102,1.471,0.306,1.861c0.203,0.391,0.517,0.586,0.94,0.586
												c0.65,0,1.128-0.264,1.432-0.789c0.305-0.523,0.456-1.373,0.456-2.543V74.51h0.746v8.588h-0.635l-0.095-1.203h-0.063
												c-0.186,0.439-0.442,0.775-0.77,1.01c-0.328,0.234-0.686,0.352-1.071,0.352c-0.693,0-1.2-0.244-1.521-0.736
												c-0.319-0.49-0.479-1.291-0.479-2.406V74.51H165.436z"/>
											<path style="fill:#FFFFFF;" d="M172.206,72.127c0-0.236,0.049-0.422,0.146-0.553c0.098-0.133,0.224-0.197,0.377-0.197
												c0.143,0,0.257,0.064,0.341,0.197c0.085,0.131,0.127,0.316,0.127,0.553c0,0.229-0.042,0.408-0.127,0.543
												c-0.084,0.135-0.198,0.201-0.341,0.201c-0.153,0-0.279-0.066-0.377-0.201S172.206,72.355,172.206,72.127z M173.07,83.098
												h-0.754V74.51h0.754V83.098z"/>
											<path style="fill:#FFFFFF;" d="M176.612,83.098h-0.754V70.783h0.754V83.098z"/>
											<path style="fill:#FFFFFF;" d="M181.505,83.256c-1.672,0-2.508-1.48-2.508-4.439c0-1.457,0.209-2.566,0.627-3.328
												c0.418-0.764,1.034-1.145,1.849-1.145c0.387,0,0.753,0.111,1.1,0.332c0.346,0.223,0.622,0.529,0.829,0.918h0.063
												l-0.032-0.957v-3.854h0.754v12.314h-0.619l-0.063-1.203h-0.071c-0.206,0.439-0.474,0.775-0.801,1.01
												C182.304,83.139,181.928,83.256,181.505,83.256z M181.552,82.6c0.604,0,1.067-0.279,1.394-0.836
												c0.325-0.557,0.487-1.375,0.487-2.457v-0.49c0-1.299-0.157-2.25-0.472-2.854c-0.315-0.604-0.795-0.906-1.44-0.906
												c-0.619,0-1.063,0.322-1.333,0.969c-0.271,0.646-0.405,1.582-0.405,2.807c0,1.234,0.141,2.172,0.421,2.811
												S180.934,82.6,181.552,82.6z"/>
											<path style="fill:#FFFFFF;" d="M191.464,72.127c0-0.236,0.049-0.422,0.146-0.553c0.098-0.133,0.224-0.197,0.377-0.197
												c0.143,0,0.257,0.064,0.341,0.197c0.085,0.131,0.127,0.316,0.127,0.553c0,0.229-0.042,0.408-0.127,0.543
												c-0.084,0.135-0.198,0.201-0.341,0.201c-0.153,0-0.279-0.066-0.377-0.201S191.464,72.355,191.464,72.127z
												 M192.328,83.098h-0.754V74.51h0.754V83.098z"/>
											<path style="fill:#FFFFFF;" d="M199.006,83.098v-5.92c0-1.424-0.423-2.137-1.27-2.137c-0.646,0-1.118,0.266-1.417,0.799
												s-0.448,1.381-0.448,2.541v4.717h-0.754V74.51h0.635l0.063,1.195h0.071c0.181-0.432,0.439-0.768,0.778-1.004
												c0.338-0.238,0.701-0.357,1.087-0.357c0.667,0,1.167,0.223,1.5,0.67c0.333,0.445,0.5,1.162,0.5,2.148v5.936H199.006z"/>
											<path style="fill:#FFFFFF;" d="M204.299,82.561c0.233,0,0.439-0.033,0.619-0.096v0.633
												c-0.232,0.105-0.531,0.158-0.896,0.158c-0.889,0-1.333-0.662-1.333-1.986v-6.094h-0.778v-0.443l0.763-0.223l0.245-2.041
												h0.524v2.041h1.364v0.666h-1.364v5.881c0,0.58,0.063,0.977,0.19,1.188S203.981,82.561,204.299,82.561z"/>
											<path style="fill:#FFFFFF;" d="M209.215,83.256c-0.91,0-1.609-0.387-2.099-1.158c-0.489-0.773-0.734-1.852-0.734-3.234
												c0-1.467,0.219-2.586,0.654-3.359c0.437-0.773,1.065-1.16,1.885-1.16c0.715,0,1.278,0.34,1.69,1.018
												c0.413,0.678,0.619,1.592,0.619,2.742v0.697h-4.079c0.011,1.25,0.188,2.188,0.532,2.809
												c0.344,0.623,0.864,0.936,1.563,0.936c0.539,0,1.107-0.178,1.706-0.531v0.729
												C210.402,83.086,209.823,83.256,209.215,83.256z M208.874,75.025c-1.037,0-1.606,1.031-1.706,3.094h3.309
												c0-0.943-0.145-1.695-0.433-2.256C209.756,75.305,209.365,75.025,208.874,75.025z"/>
											<path style="fill:#FFFFFF;" d="M216.263,74.344c0.27,0,0.521,0.037,0.754,0.111l-0.183,0.752
												c-0.19-0.08-0.386-0.119-0.587-0.119c-0.291,0-0.563,0.148-0.813,0.447s-0.448,0.715-0.591,1.246
												c-0.144,0.533-0.215,1.121-0.215,1.766v4.551h-0.754V74.51h0.619l0.079,1.504h0.056
												C215.03,74.9,215.575,74.344,216.263,74.344z"/>
											<path style="fill:#FFFFFF;" d="M222.833,83.098v-5.92c0-1.424-0.423-2.137-1.27-2.137c-0.646,0-1.118,0.266-1.417,0.799
												s-0.448,1.381-0.448,2.541v4.717h-0.754V74.51h0.635l0.063,1.195h0.071c0.181-0.432,0.439-0.768,0.778-1.004
												c0.338-0.238,0.701-0.357,1.087-0.357c0.667,0,1.167,0.223,1.5,0.67c0.333,0.445,0.5,1.162,0.5,2.148v5.936H222.833z"/>
											<path style="fill:#FFFFFF;" d="M229.88,83.098l-0.095-1.203h-0.032c-0.412,0.908-1.037,1.361-1.873,1.361
												c-0.561,0-1.012-0.223-1.353-0.668s-0.512-1.043-0.512-1.793c0-0.818,0.246-1.465,0.738-1.943
												c0.491-0.477,1.182-0.736,2.07-0.779l0.929-0.047v-0.713c0-0.803-0.101-1.387-0.302-1.754
												c-0.201-0.365-0.534-0.549-0.999-0.549c-0.492,0-0.995,0.16-1.508,0.482l-0.326-0.594
												c0.599-0.369,1.225-0.555,1.881-0.555c0.709,0,1.22,0.223,1.532,0.67c0.312,0.445,0.468,1.191,0.468,2.234v5.85H229.88z
												 M228.047,82.615c0.54,0,0.959-0.266,1.258-0.795c0.299-0.531,0.448-1.281,0.448-2.252v-0.895l-0.896,0.047
												c-0.693,0.037-1.208,0.229-1.544,0.574s-0.504,0.852-0.504,1.516c0,0.623,0.111,1.08,0.334,1.369
												C227.364,82.471,227.666,82.615,228.047,82.615z"/>
											<path style="fill:#FFFFFF;" d="M233.896,83.098h-0.754V70.783h0.754V83.098z"/>
										</g>
									</g>
									<g>
										<g>
											<g>
												<path style="fill:#FFFFFF;" d="M159.879,102.998c-0.434,0-0.829-0.119-1.187-0.359c-0.356-0.24-0.628-0.568-0.813-0.986
													h-0.071l0.056,0.943v4.139h-0.754V94.252h0.619l0.079,1.18h0.071c0.212-0.432,0.483-0.766,0.813-0.996
													c0.331-0.232,0.692-0.35,1.084-0.35c1.682,0,2.523,1.48,2.523,4.441c0,1.43-0.207,2.531-0.619,3.309
													C161.268,102.611,160.667,102.998,159.879,102.998z M159.729,94.799c-0.63,0-1.098,0.277-1.404,0.83
													c-0.308,0.555-0.461,1.424-0.461,2.605v0.244c0,1.32,0.156,2.289,0.469,2.91c0.312,0.619,0.788,0.93,1.428,0.93
													c0.593,0,1.033-0.309,1.321-0.922c0.289-0.615,0.433-1.572,0.433-2.869c0-1.24-0.135-2.172-0.404-2.795
													C160.839,95.109,160.379,94.799,159.729,94.799z"/>
												<path style="fill:#FFFFFF;" d="M169.564,98.527c0,1.445-0.229,2.553-0.687,3.32c-0.457,0.768-1.112,1.15-1.964,1.15
													c-0.841,0-1.485-0.383-1.933-1.15c-0.446-0.768-0.67-1.875-0.67-3.32c0-2.961,0.878-4.441,2.635-4.441
													c0.825,0,1.468,0.389,1.928,1.164C169.335,96.025,169.564,97.117,169.564,98.527z M165.097,98.527
													c0,1.24,0.148,2.176,0.444,2.809c0.297,0.633,0.76,0.951,1.389,0.951c1.233,0,1.85-1.254,1.85-3.76
													c0-2.486-0.616-3.729-1.85-3.729c-0.646,0-1.112,0.311-1.4,0.934S165.097,97.287,165.097,98.527z"/>
												<path style="fill:#FFFFFF;" d="M174.207,94.086c0.27,0,0.521,0.037,0.754,0.111l-0.183,0.752
													c-0.19-0.08-0.386-0.119-0.587-0.119c-0.291,0-0.563,0.148-0.813,0.447s-0.448,0.715-0.591,1.246
													c-0.144,0.533-0.215,1.121-0.215,1.766v4.551h-0.754v-8.588h0.619l0.079,1.504h0.056
													C172.975,94.643,173.52,94.086,174.207,94.086z"/>
												<path style="fill:#FFFFFF;" d="M178.468,102.303c0.233,0,0.439-0.033,0.619-0.096v0.633
													c-0.232,0.105-0.531,0.158-0.896,0.158c-0.889,0-1.333-0.662-1.333-1.986v-6.094h-0.778v-0.443l0.763-0.223l0.245-2.041
													h0.524v2.041h1.364v0.666h-1.364v5.881c0,0.58,0.063,0.977,0.19,1.188S178.15,102.303,178.468,102.303z"/>
												<path style="fill:#FFFFFF;" d="M183.138,94.918h-1.349v7.922h-0.746v-7.922h-1.095V94.49l1.095-0.324v-0.65
													c0-1.092,0.13-1.877,0.389-2.357s0.709-0.721,1.349-0.721c0.371,0,0.707,0.066,1.008,0.197l-0.262,0.697
													c-0.28-0.133-0.534-0.197-0.762-0.197c-0.259,0-0.455,0.076-0.587,0.229c-0.133,0.154-0.23,0.4-0.294,0.744
													s-0.095,0.818-0.095,1.426v0.719h1.349V94.918z"/>
												<path style="fill:#FFFFFF;" d="M189.838,98.527c0,1.445-0.229,2.553-0.687,3.32c-0.457,0.768-1.112,1.15-1.964,1.15
													c-0.841,0-1.485-0.383-1.933-1.15c-0.446-0.768-0.67-1.875-0.67-3.32c0-2.961,0.878-4.441,2.635-4.441
													c0.825,0,1.468,0.389,1.928,1.164C189.608,96.025,189.838,97.117,189.838,98.527z M185.37,98.527
													c0,1.24,0.148,2.176,0.444,2.809c0.297,0.633,0.76,0.951,1.389,0.951c1.233,0,1.85-1.254,1.85-3.76
													c0-2.486-0.616-3.729-1.85-3.729c-0.646,0-1.112,0.311-1.4,0.934S185.37,97.287,185.37,98.527z"/>
												<path style="fill:#FFFFFF;" d="M192.846,102.84h-0.754V90.525h0.754V102.84z"/>
												<path style="fill:#FFFFFF;" d="M195.524,91.869c0-0.236,0.049-0.422,0.146-0.553c0.098-0.133,0.224-0.197,0.377-0.197
													c0.143,0,0.257,0.064,0.341,0.197c0.085,0.131,0.127,0.316,0.127,0.553c0,0.229-0.042,0.408-0.127,0.543
													c-0.084,0.135-0.198,0.201-0.341,0.201c-0.153,0-0.279-0.066-0.377-0.201S195.524,92.098,195.524,91.869z
													 M196.389,102.84h-0.754v-8.588h0.754V102.84z"/>
												<path style="fill:#FFFFFF;" d="M204.025,98.527c0,1.445-0.229,2.553-0.687,3.32c-0.457,0.768-1.112,1.15-1.964,1.15
													c-0.841,0-1.485-0.383-1.933-1.15c-0.446-0.768-0.67-1.875-0.67-3.32c0-2.961,0.878-4.441,2.635-4.441
													c0.825,0,1.468,0.389,1.928,1.164C203.796,96.025,204.025,97.117,204.025,98.527z M199.558,98.527
													c0,1.24,0.148,2.176,0.444,2.809c0.297,0.633,0.76,0.951,1.389,0.951c1.233,0,1.85-1.254,1.85-3.76
													c0-2.486-0.616-3.729-1.85-3.729c-0.646,0-1.112,0.311-1.4,0.934S199.558,97.287,199.558,98.527z"/>
												<path style="fill:#FFFFFF;" d="M214.053,94.918h-1.349v7.922h-0.746v-7.922h-1.095V94.49l1.095-0.324v-0.65
													c0-1.092,0.13-1.877,0.389-2.357s0.709-0.721,1.349-0.721c0.371,0,0.707,0.066,1.008,0.197l-0.262,0.697
													c-0.28-0.133-0.534-0.197-0.762-0.197c-0.259,0-0.455,0.076-0.587,0.229c-0.133,0.154-0.23,0.4-0.294,0.744
													s-0.095,0.818-0.095,1.426v0.719h1.349V94.918z"/>
												<path style="fill:#FFFFFF;" d="M220.753,98.527c0,1.445-0.229,2.553-0.687,3.32c-0.457,0.768-1.112,1.15-1.964,1.15
													c-0.841,0-1.485-0.383-1.933-1.15c-0.446-0.768-0.67-1.875-0.67-3.32c0-2.961,0.878-4.441,2.635-4.441
													c0.825,0,1.468,0.389,1.928,1.164C220.523,96.025,220.753,97.117,220.753,98.527z M216.285,98.527
													c0,1.24,0.148,2.176,0.444,2.809c0.297,0.633,0.76,0.951,1.389,0.951c1.233,0,1.85-1.254,1.85-3.76
													c0-2.486-0.616-3.729-1.85-3.729c-0.646,0-1.112,0.311-1.4,0.934S216.285,97.287,216.285,98.527z"/>
												<path style="fill:#FFFFFF;" d="M225.396,94.086c0.27,0,0.521,0.037,0.754,0.111l-0.183,0.752
													c-0.19-0.08-0.386-0.119-0.587-0.119c-0.291,0-0.563,0.148-0.813,0.447s-0.448,0.715-0.591,1.246
													c-0.144,0.533-0.215,1.121-0.215,1.766v4.551h-0.754v-8.588h0.619l0.079,1.504h0.056
													C224.163,94.643,224.708,94.086,225.396,94.086z"/>
												<path style="fill:#FFFFFF;" d="M235.473,102.84l-0.095-1.203h-0.032c-0.412,0.908-1.037,1.361-1.873,1.361
													c-0.561,0-1.012-0.223-1.353-0.668s-0.512-1.043-0.512-1.793c0-0.818,0.246-1.465,0.738-1.943
													c0.491-0.477,1.182-0.736,2.07-0.779l0.929-0.047v-0.713c0-0.803-0.101-1.387-0.302-1.754
													c-0.201-0.365-0.534-0.549-0.999-0.549c-0.492,0-0.995,0.16-1.508,0.482l-0.326-0.594
													c0.599-0.369,1.225-0.555,1.881-0.555c0.709,0,1.22,0.223,1.532,0.67c0.312,0.445,0.468,1.191,0.468,2.234v5.85H235.473
													z M233.64,102.357c0.54,0,0.959-0.266,1.258-0.795c0.299-0.531,0.448-1.281,0.448-2.252v-0.895l-0.896,0.047
													c-0.693,0.037-1.208,0.229-1.544,0.574s-0.504,0.852-0.504,1.516c0,0.623,0.111,1.08,0.334,1.369
													C232.957,102.213,233.259,102.357,233.64,102.357z"/>
												<path style="fill:#FFFFFF;" d="M242.115,100.688c0,0.723-0.19,1.289-0.571,1.697c-0.381,0.41-0.932,0.613-1.65,0.613
													c-0.392,0-0.735-0.049-1.032-0.15c-0.296-0.1-0.526-0.211-0.69-0.332v-0.879c0.196,0.195,0.455,0.354,0.778,0.471
													c0.322,0.119,0.653,0.18,0.991,0.18c0.444,0,0.794-0.146,1.048-0.436c0.254-0.291,0.381-0.678,0.381-1.164
													c0-0.381-0.091-0.701-0.273-0.961c-0.183-0.262-0.53-0.559-1.044-0.891c-0.587-0.369-0.988-0.666-1.202-0.887
													c-0.214-0.223-0.381-0.471-0.5-0.744c-0.119-0.275-0.179-0.602-0.179-0.982c0-0.617,0.209-1.127,0.627-1.531
													c0.418-0.402,0.95-0.605,1.596-0.605c0.692,0,1.271,0.164,1.737,0.49l-0.389,0.658
													c-0.434-0.291-0.895-0.436-1.381-0.436c-0.444,0-0.799,0.131-1.063,0.393c-0.265,0.26-0.396,0.605-0.396,1.031
													c0,0.381,0.09,0.699,0.27,0.955s0.561,0.564,1.143,0.93c0.571,0.375,0.963,0.674,1.175,0.898s0.369,0.473,0.472,0.744
													C242.063,100.021,242.115,100.334,242.115,100.688z"/>
												<path style="fill:#FFFFFF;" d="M250.453,102.303c0.233,0,0.439-0.033,0.619-0.096v0.633
													c-0.232,0.105-0.531,0.158-0.896,0.158c-0.889,0-1.333-0.662-1.333-1.986v-6.094h-0.778v-0.443l0.763-0.223l0.245-2.041
													h0.524v2.041h1.364v0.666h-1.364v5.881c0,0.58,0.063,0.977,0.19,1.188S250.136,102.303,250.453,102.303z"/>
												<path style="fill:#FFFFFF;" d="M255.369,102.998c-0.91,0-1.609-0.387-2.099-1.158c-0.489-0.773-0.734-1.852-0.734-3.234
													c0-1.467,0.219-2.586,0.654-3.359c0.437-0.773,1.065-1.16,1.885-1.16c0.715,0,1.278,0.34,1.69,1.018
													c0.413,0.678,0.619,1.592,0.619,2.742v0.697h-4.079c0.011,1.25,0.188,2.188,0.532,2.809
													c0.344,0.623,0.864,0.936,1.563,0.936c0.539,0,1.107-0.178,1.706-0.531v0.729
													C256.557,102.828,255.978,102.998,255.369,102.998z M255.028,94.768c-1.037,0-1.606,1.031-1.706,3.094h3.309
													c0-0.943-0.145-1.695-0.433-2.256C255.91,95.047,255.52,94.768,255.028,94.768z"/>
												<path style="fill:#FFFFFF;" d="M263.361,102.84l-0.095-1.203h-0.032c-0.412,0.908-1.037,1.361-1.873,1.361
													c-0.561,0-1.012-0.223-1.353-0.668s-0.512-1.043-0.512-1.793c0-0.818,0.246-1.465,0.738-1.943
													c0.491-0.477,1.182-0.736,2.07-0.779l0.929-0.047v-0.713c0-0.803-0.101-1.387-0.302-1.754
													c-0.201-0.365-0.534-0.549-0.999-0.549c-0.492,0-0.995,0.16-1.508,0.482l-0.326-0.594
													c0.599-0.369,1.225-0.555,1.881-0.555c0.709,0,1.22,0.223,1.532,0.67c0.312,0.445,0.468,1.191,0.468,2.234v5.85H263.361
													z M261.528,102.357c0.54,0,0.959-0.266,1.258-0.795c0.299-0.531,0.448-1.281,0.448-2.252v-0.895l-0.896,0.047
													c-0.693,0.037-1.208,0.229-1.544,0.574s-0.504,0.852-0.504,1.516c0,0.623,0.111,1.08,0.334,1.369
													C260.846,102.213,261.147,102.357,261.528,102.357z"/>
												<path style="fill:#FFFFFF;" d="M273.94,102.84v-5.85c0-1.439-0.423-2.16-1.27-2.16c-0.582,0-1.001,0.252-1.258,0.756
													s-0.385,1.246-0.385,2.229v5.025h-0.746v-5.85c0-0.727-0.103-1.27-0.31-1.625c-0.206-0.357-0.526-0.535-0.96-0.535
													c-0.571,0-0.986,0.26-1.246,0.775c-0.259,0.518-0.389,1.357-0.389,2.518v4.717h-0.754v-8.588h0.635l0.063,1.195h0.071
													c0.345-0.906,0.929-1.361,1.754-1.361c0.477,0,0.852,0.127,1.127,0.381c0.275,0.252,0.474,0.623,0.596,1.107
													c0.206-0.527,0.46-0.908,0.762-1.139c0.302-0.232,0.692-0.35,1.174-0.35c0.651,0,1.127,0.25,1.429,0.748
													s0.452,1.297,0.452,2.395v5.611H273.94z"/>
											</g>
										</g>
										<g>
											<g>
												<g>
													<path style="fill:#FFFFFF;" d="M158.688,121.561c0.233,0,0.439-0.033,0.619-0.096v0.633
														c-0.232,0.105-0.531,0.158-0.896,0.158c-0.889,0-1.333-0.662-1.333-1.986v-6.094H156.3v-0.443l0.763-0.223l0.245-2.041
														h0.524v2.041h1.364v0.666h-1.364v5.881c0,0.58,0.063,0.977,0.19,1.188S158.371,121.561,158.688,121.561z"/>
													<path style="fill:#FFFFFF;" d="M166.009,117.785c0,1.445-0.229,2.553-0.687,3.32c-0.457,0.768-1.112,1.15-1.964,1.15
														c-0.841,0-1.485-0.383-1.933-1.15c-0.446-0.768-0.67-1.875-0.67-3.32c0-2.961,0.878-4.441,2.635-4.441
														c0.825,0,1.468,0.389,1.928,1.164C165.779,115.283,166.009,116.375,166.009,117.785z M161.541,117.785
														c0,1.24,0.148,2.176,0.444,2.809c0.297,0.633,0.76,0.951,1.389,0.951c1.233,0,1.85-1.254,1.85-3.76
														c0-2.486-0.616-3.729-1.85-3.729c-0.646,0-1.112,0.311-1.4,0.934S161.541,116.545,161.541,117.785z"/>
													<path style="fill:#FFFFFF;" d="M175.095,122.256c-0.434,0-0.829-0.119-1.187-0.359
														c-0.356-0.24-0.628-0.568-0.813-0.986h-0.071l0.056,0.943v4.139h-0.754V113.51h0.619l0.079,1.18h0.071
														c0.212-0.432,0.483-0.766,0.813-0.996c0.331-0.232,0.692-0.35,1.084-0.35c1.682,0,2.523,1.48,2.523,4.441
														c0,1.43-0.207,2.531-0.619,3.309C176.483,121.869,175.883,122.256,175.095,122.256z M174.944,114.057
														c-0.63,0-1.098,0.277-1.404,0.83c-0.308,0.555-0.461,1.424-0.461,2.605v0.244c0,1.32,0.156,2.289,0.469,2.91
														c0.312,0.619,0.788,0.93,1.428,0.93c0.593,0,1.033-0.309,1.321-0.922c0.289-0.615,0.433-1.572,0.433-2.869
														c0-1.24-0.135-2.172-0.404-2.795C176.055,114.367,175.595,114.057,174.944,114.057z"/>
													<path style="fill:#FFFFFF;" d="M182.32,113.344c0.27,0,0.521,0.037,0.754,0.111l-0.183,0.752
														c-0.19-0.08-0.386-0.119-0.587-0.119c-0.291,0-0.563,0.148-0.813,0.447s-0.448,0.715-0.591,1.246
														c-0.144,0.533-0.215,1.121-0.215,1.766v4.551h-0.754v-8.588h0.619l0.079,1.504h0.056
														C181.088,113.9,181.633,113.344,182.32,113.344z"/>
													<path style="fill:#FFFFFF;" d="M189.347,117.785c0,1.445-0.229,2.553-0.687,3.32c-0.457,0.768-1.112,1.15-1.964,1.15
														c-0.841,0-1.485-0.383-1.933-1.15c-0.446-0.768-0.67-1.875-0.67-3.32c0-2.961,0.878-4.441,2.635-4.441
														c0.825,0,1.468,0.389,1.928,1.164C189.117,115.283,189.347,116.375,189.347,117.785z M184.879,117.785
														c0,1.24,0.148,2.176,0.444,2.809c0.297,0.633,0.76,0.951,1.389,0.951c1.233,0,1.85-1.254,1.85-3.76
														c0-2.486-0.616-3.729-1.85-3.729c-0.646,0-1.112,0.311-1.4,0.934S184.879,116.545,184.879,117.785z"/>
													<path style="fill:#FFFFFF;" d="M192.074,122.098l-2.032-8.588h0.762l1.286,5.525c0.147,0.639,0.291,1.334,0.429,2.09
														h0.063c0.036-0.275,0.09-0.58,0.158-0.918s0.59-2.57,1.563-6.697h0.762l-2.095,8.588H192.074z"/>
													<path style="fill:#FFFFFF;" d="M199.13,122.256c-0.91,0-1.609-0.387-2.099-1.158c-0.489-0.773-0.734-1.852-0.734-3.234
														c0-1.467,0.219-2.586,0.654-3.359c0.437-0.773,1.065-1.16,1.885-1.16c0.715,0,1.278,0.34,1.69,1.018
														c0.413,0.678,0.619,1.592,0.619,2.742v0.697h-4.079c0.011,1.25,0.188,2.188,0.532,2.809
														c0.344,0.623,0.864,0.936,1.563,0.936c0.539,0,1.107-0.178,1.706-0.531v0.729
														C200.317,122.086,199.738,122.256,199.13,122.256z M198.789,114.025c-1.037,0-1.606,1.031-1.706,3.094h3.309
														c0-0.943-0.145-1.695-0.433-2.256C199.671,114.305,199.28,114.025,198.789,114.025z"/>
													<path style="fill:#FFFFFF;" d="M213.645,122.098l-1.19-5.816c-0.011-0.043-0.02-0.088-0.027-0.135
														c-0.008-0.049-0.092-0.555-0.25-1.52h-0.016l-0.111,0.672l-0.183,0.982l-1.23,5.816h-0.896l-1.872-8.588h0.753
														l1.071,5.002l0.5,2.613h0.048c0.096-0.756,0.249-1.631,0.46-2.629l1.072-4.986h0.793l1.079,5.002
														c0.085,0.375,0.235,1.246,0.452,2.613h0.048c0.016-0.174,0.094-0.613,0.234-1.314c0.14-0.701,0.588-2.803,1.345-6.301
														h0.746l-1.937,8.588H213.645z"/>
													<path style="fill:#FFFFFF;" d="M223.343,117.785c0,1.445-0.229,2.553-0.687,3.32c-0.457,0.768-1.112,1.15-1.964,1.15
														c-0.841,0-1.485-0.383-1.933-1.15c-0.446-0.768-0.67-1.875-0.67-3.32c0-2.961,0.878-4.441,2.635-4.441
														c0.825,0,1.468,0.389,1.928,1.164C223.113,115.283,223.343,116.375,223.343,117.785z M218.875,117.785
														c0,1.24,0.148,2.176,0.444,2.809c0.297,0.633,0.76,0.951,1.389,0.951c1.233,0,1.85-1.254,1.85-3.76
														c0-2.486-0.616-3.729-1.85-3.729c-0.646,0-1.112,0.311-1.4,0.934S218.875,116.545,218.875,117.785z"/>
													<path style="fill:#FFFFFF;" d="M227.985,113.344c0.27,0,0.521,0.037,0.754,0.111l-0.183,0.752
														c-0.19-0.08-0.386-0.119-0.587-0.119c-0.291,0-0.563,0.148-0.813,0.447s-0.448,0.715-0.591,1.246
														c-0.144,0.533-0.215,1.121-0.215,1.766v4.551h-0.754v-8.588h0.619l0.079,1.504h0.056
														C226.753,113.9,227.298,113.344,227.985,113.344z"/>
													<path style="fill:#FFFFFF;" d="M231.436,117.848l0.484-0.871l2.127-3.467h0.817l-1.984,3.158l2.159,5.43h-0.794
														l-1.873-4.732l-0.952,1.25v3.482h-0.754v-12.314h0.754v6.625l-0.056,1.439H231.436z"/>
												</g>
											</g>
										</g>
									</g>
								</g>
							</g>
						</g>
					</g>
				</g>
			</g>
		</g>
	</g>
</g>
</svg>
