<?xml version="1.0" encoding="iso-8859-1"?>
<!-- Generator: Adobe Illustrator 16.0.0, SVG Export Plug-In . SVG Version: 6.00 Build 0)  -->
<!DOCTYPE svg PUBLIC "-//W3C//DTD SVG 1.1//EN" "http://www.w3.org/Graphics/SVG/1.1/DTD/svg11.dtd">
<svg version="1.1" id="Layer_1" xmlns="http://www.w3.org/2000/svg" xmlns:xlink="http://www.w3.org/1999/xlink" x="0px" y="0px"
	 width="211px" height="169px" viewBox="0 0 211 169" style="enable-background:new 0 0 211 169;" xml:space="preserve">
<g>
	<g>
		<g>
			<g>
				<path style="fill:#4D1A34;" d="M0.343,0.563H4.99c2.714,0,4.355,1.604,4.355,3.921v0.032c0,2.625-2.047,3.987-4.599,3.987H2.845
					v3.403H0.343V0.563z M4.828,6.283c1.251,0,1.983-0.746,1.983-1.718V4.533c0-1.118-0.78-1.718-2.032-1.718H2.845v3.468H4.828z"/>
				<path style="fill:#4D1A34;" d="M11.004,6.267V6.234c0-3.225,2.551-5.866,6.062-5.866s6.029,2.609,6.029,5.834v0.032
					c0,3.225-2.551,5.866-6.062,5.866S11.004,9.492,11.004,6.267z M20.478,6.267V6.234c0-1.944-1.43-3.565-3.445-3.565
					S13.62,4.258,13.62,6.202v0.032c0,1.945,1.43,3.565,3.445,3.565S20.478,8.211,20.478,6.267z"/>
				<path style="fill:#4D1A34;" d="M27.873,2.864h-3.461V0.563h9.425v2.301h-3.461v9.042h-2.503V2.864z"/>
				<path style="fill:#4D1A34;" d="M36.389,0.563h8.58v2.22h-6.094v2.301h5.362v2.22h-5.362v2.382h6.175v2.22h-8.662V0.563z"/>
				<path style="fill:#4D1A34;" d="M47.554,0.563h2.308l5.33,6.984V0.563h2.47v11.343h-2.129l-5.509-7.211v7.211h-2.47V0.563z"/>
				<path style="fill:#4D1A34;" d="M63.399,2.864h-3.461V0.563h9.425v2.301h-3.461v9.042h-2.503V2.864z"/>
				<path style="fill:#4D1A34;" d="M72.03,0.563h2.502v11.343H72.03V0.563z"/>
				<path style="fill:#4D1A34;" d="M81.91,0.482h2.308l4.875,11.424h-2.616l-1.04-2.544h-4.81l-1.04,2.544h-2.551L81.91,0.482z
					 M84.543,7.158l-1.511-3.679L81.52,7.158H84.543z"/>
				<path style="fill:#4D1A34;" d="M91.207,0.563h2.502v9.075h5.671v2.269h-8.174V0.563z"/>
				<path style="fill:#4D1A34;" d="M109.474,0.563h2.503v9.075h5.671v2.269h-8.174V0.563z"/>
				<path style="fill:#4D1A34;" d="M120.135,0.563h8.58v2.22h-6.094v2.301h5.362v2.22h-5.362v2.382h6.175v2.22h-8.661V0.563z"/>
				<path style="fill:#4D1A34;" d="M135.2,0.482h2.308l4.875,11.424h-2.616l-1.04-2.544h-4.811l-1.04,2.544h-2.552L135.2,0.482z
					 M137.832,7.158l-1.511-3.679l-1.512,3.679H137.832z"/>
				<path style="fill:#4D1A34;" d="M144.496,0.563h5.2c1.446,0,2.567,0.405,3.314,1.15c0.634,0.632,0.976,1.523,0.976,2.593v0.032
					c0,1.832-0.991,2.982-2.438,3.517l2.778,4.051h-2.925l-2.438-3.63h-1.967v3.63h-2.502V0.563z M149.533,6.072
					c1.219,0,1.918-0.648,1.918-1.604V4.436c0-1.07-0.747-1.621-1.967-1.621h-2.486v3.257H149.533z"/>
				<path style="fill:#4D1A34;" d="M156.686,0.563h2.308l5.33,6.984V0.563h2.47v11.343h-2.129l-5.509-7.211v7.211h-2.47V0.563z"/>
				<path style="fill:#4D1A34;" d="M169.995,0.563h2.503v11.343h-2.503V0.563z"/>
				<path style="fill:#4D1A34;" d="M175.977,0.563h2.308l5.33,6.984V0.563h2.47v11.343h-2.129l-5.509-7.211v7.211h-2.47V0.563z"/>
				<path style="fill:#4D1A34;" d="M188.669,6.267V6.234c0-3.225,2.519-5.866,5.964-5.866c2.048,0,3.282,0.551,4.469,1.556
					l-1.576,1.896c-0.878-0.729-1.657-1.15-2.974-1.15c-1.82,0-3.267,1.604-3.267,3.533v0.032c0,2.074,1.43,3.598,3.445,3.598
					c0.91,0,1.723-0.227,2.356-0.681V7.531h-2.52V5.375h4.94v4.926c-1.17,0.989-2.778,1.799-4.858,1.799
					C191.106,12.101,188.669,9.622,188.669,6.267z"/>
				<path style="fill:#4D1A34;" d="M201.589,10.253l1.479-1.767c1.024,0.843,2.097,1.377,3.396,1.377
					c1.024,0,1.642-0.405,1.642-1.069V8.763c0-0.632-0.39-0.956-2.291-1.442c-2.292-0.583-3.771-1.215-3.771-3.468V3.82
					c0-2.058,1.657-3.419,3.981-3.419c1.657,0,3.071,0.519,4.226,1.442l-1.301,1.879c-1.007-0.697-1.999-1.118-2.957-1.118
					c-0.959,0-1.463,0.438-1.463,0.989v0.032c0,0.746,0.487,0.989,2.454,1.491c2.308,0.6,3.607,1.426,3.607,3.403v0.032
					c0,2.252-1.723,3.517-4.177,3.517C204.692,12.068,202.954,11.469,201.589,10.253z"/>
			</g>
		</g>
		<g>
			<g>
				<g>
					<path style="fill:#E2A4C3;" d="M3.709,61.731c0-0.554,0.197-1.026,0.591-1.417s0.866-0.586,1.417-0.586
						c0.556,0,1.03,0.195,1.424,0.586s0.591,0.863,0.591,1.417c0,0.554-0.197,1.028-0.591,1.421s-0.869,0.59-1.424,0.59
						c-0.55,0-1.022-0.197-1.417-0.59S3.709,62.285,3.709,61.731z"/>
				</g>
			</g>
			<g>
				<g>
					<g>
						<path style="fill:#E2A4C3;" d="M24.324,67.414h-0.778V56.586h-2.309v-0.744h5.396v0.744h-2.309V67.414z"/>
						<path style="fill:#E2A4C3;" d="M28.247,56.444c0-0.237,0.049-0.422,0.147-0.554c0.098-0.132,0.223-0.198,0.377-0.198
							c0.143,0,0.256,0.066,0.341,0.198c0.085,0.132,0.127,0.317,0.127,0.554c0,0.227-0.042,0.408-0.127,0.542
							c-0.084,0.135-0.198,0.202-0.341,0.202c-0.154,0-0.279-0.067-0.377-0.202C28.295,56.852,28.247,56.671,28.247,56.444z
							 M29.111,67.414h-0.753v-8.588h0.753V67.414z"/>
						<path style="fill:#E2A4C3;" d="M39.217,67.414v-5.849c0-1.44-0.423-2.161-1.27-2.161c-0.582,0-1.001,0.252-1.258,0.756
							c-0.257,0.504-0.385,1.247-0.385,2.228v5.026h-0.746v-5.849c0-0.728-0.104-1.271-0.31-1.626
							c-0.207-0.356-0.526-0.534-0.96-0.534c-0.571,0-0.986,0.258-1.246,0.775s-0.389,1.356-0.389,2.517v4.717H31.9v-8.588h0.635
							l0.063,1.195h0.071c0.344-0.908,0.928-1.361,1.754-1.361c0.476,0,0.852,0.126,1.126,0.38c0.275,0.253,0.474,0.623,0.595,1.108
							c0.207-0.527,0.46-0.907,0.762-1.14c0.301-0.232,0.693-0.348,1.174-0.348c0.65,0,1.127,0.249,1.428,0.748
							c0.302,0.499,0.453,1.297,0.453,2.394v5.612H39.217z"/>
						<path style="fill:#E2A4C3;" d="M42.454,56.444c0-0.237,0.049-0.422,0.147-0.554c0.098-0.132,0.223-0.198,0.377-0.198
							c0.143,0,0.256,0.066,0.341,0.198c0.085,0.132,0.127,0.317,0.127,0.554c0,0.227-0.042,0.408-0.127,0.542
							c-0.084,0.135-0.198,0.202-0.341,0.202c-0.154,0-0.279-0.067-0.377-0.202C42.503,56.852,42.454,56.671,42.454,56.444z
							 M43.319,67.414h-0.753v-8.588h0.753V67.414z"/>
						<path style="fill:#E2A4C3;" d="M49.997,67.414v-5.92c0-1.425-0.423-2.137-1.27-2.137c-0.646,0-1.118,0.267-1.417,0.799
							c-0.299,0.533-0.449,1.38-0.449,2.541v4.717h-0.753v-8.588h0.635l0.063,1.195h0.071c0.18-0.433,0.439-0.768,0.778-1.005
							c0.338-0.237,0.701-0.356,1.087-0.356c0.667,0,1.167,0.223,1.5,0.669c0.333,0.446,0.5,1.162,0.5,2.149v5.936H49.997z"/>
						<path style="fill:#E2A4C3;" d="M58.218,58.826v0.53l-1.175,0.135c0.159,0.206,0.289,0.5,0.389,0.882
							c0.1,0.383,0.15,0.774,0.15,1.175c0,0.834-0.189,1.509-0.567,2.026c-0.378,0.517-0.876,0.776-1.496,0.776h-0.19l-0.167-0.016
							c-0.254,0.18-0.454,0.359-0.599,0.539c-0.146,0.179-0.218,0.388-0.218,0.625c0,0.243,0.095,0.432,0.286,0.566
							c0.19,0.135,0.447,0.202,0.77,0.202h0.54c0.767,0,1.362,0.198,1.786,0.593c0.423,0.396,0.635,0.968,0.635,1.718
							c0,0.839-0.284,1.504-0.853,1.995s-1.319,0.736-2.25,0.736c-0.778,0-1.376-0.196-1.793-0.589
							c-0.418-0.394-0.627-0.959-0.627-1.698c0-0.539,0.137-0.999,0.413-1.381c0.275-0.382,0.706-0.685,1.293-0.906
							c-0.265-0.116-0.478-0.277-0.639-0.483c-0.162-0.206-0.242-0.451-0.242-0.736c0-0.259,0.086-0.49,0.258-0.693
							s0.417-0.42,0.734-0.653c-0.439-0.201-0.771-0.525-0.996-0.974c-0.225-0.448-0.337-0.976-0.337-1.583
							c0-0.913,0.193-1.633,0.58-2.161c0.386-0.528,0.915-0.792,1.587-0.792c0.36,0,0.661,0.055,0.905,0.166H58.218z M53.584,68.958
							c0,0.543,0.141,0.968,0.424,1.274c0.283,0.306,0.71,0.459,1.282,0.459c0.708,0,1.271-0.185,1.686-0.554
							c0.416-0.369,0.623-0.876,0.623-1.52c0-0.517-0.142-0.917-0.424-1.199c-0.283-0.282-0.695-0.423-1.234-0.423h-0.555
							c-0.519,0-0.948,0.181-1.29,0.542S53.584,68.372,53.584,68.958z M54.052,61.628c0,0.702,0.13,1.233,0.389,1.595
							c0.259,0.361,0.603,0.542,1.031,0.542c0.921,0,1.381-0.739,1.381-2.216c0-0.712-0.118-1.269-0.353-1.67
							s-0.578-0.602-1.028-0.602c-0.46,0-0.812,0.206-1.055,0.618C54.173,60.306,54.052,60.884,54.052,61.628z"/>
						<path style="fill:#E2A4C3;" d="M68.206,67.414l-0.095-1.203h-0.032c-0.413,0.908-1.037,1.361-1.873,1.361
							c-0.561,0-1.012-0.223-1.353-0.669c-0.341-0.446-0.512-1.043-0.512-1.792c0-0.818,0.246-1.465,0.738-1.943
							c0.492-0.478,1.183-0.737,2.071-0.779l0.928-0.048v-0.712c0-0.802-0.101-1.387-0.301-1.753c-0.201-0.367-0.535-0.55-1-0.55
							c-0.492,0-0.995,0.161-1.508,0.483l-0.325-0.594c0.598-0.369,1.225-0.554,1.881-0.554c0.708,0,1.219,0.223,1.531,0.669
							c0.312,0.446,0.468,1.191,0.468,2.236v5.849H68.206z M66.373,66.931c0.54,0,0.959-0.265,1.258-0.795s0.448-1.281,0.448-2.252
							V62.99l-0.896,0.047c-0.693,0.037-1.208,0.228-1.543,0.574s-0.504,0.851-0.504,1.516c0,0.623,0.111,1.079,0.333,1.37
							C65.69,66.786,65.992,66.931,66.373,66.931z"/>
						<path style="fill:#E2A4C3;" d="M75.356,67.414v-5.92c0-1.425-0.423-2.137-1.27-2.137c-0.646,0-1.118,0.267-1.417,0.799
							c-0.299,0.533-0.449,1.38-0.449,2.541v4.717h-0.753v-8.588h0.635l0.063,1.195h0.071c0.18-0.433,0.439-0.768,0.778-1.005
							c0.338-0.237,0.701-0.356,1.087-0.356c0.667,0,1.167,0.223,1.5,0.669c0.333,0.446,0.5,1.162,0.5,2.149v5.936H75.356z"/>
						<path style="fill:#E2A4C3;" d="M81.173,67.572c-1.672,0-2.507-1.48-2.507-4.44c0-1.456,0.209-2.565,0.627-3.328
							c0.417-0.762,1.034-1.144,1.849-1.144c0.386,0,0.752,0.111,1.099,0.333c0.347,0.221,0.623,0.527,0.83,0.918h0.063
							l-0.032-0.958v-3.855h0.753v12.316h-0.619l-0.063-1.203h-0.071c-0.207,0.438-0.474,0.774-0.802,1.009
							S81.597,67.572,81.173,67.572z M81.221,66.916c0.603,0,1.067-0.278,1.393-0.835s0.488-1.376,0.488-2.458v-0.491
							c0-1.298-0.158-2.249-0.472-2.853c-0.315-0.604-0.795-0.906-1.44-0.906c-0.619,0-1.063,0.323-1.333,0.969
							c-0.27,0.646-0.404,1.582-0.404,2.806c0,1.235,0.14,2.171,0.42,2.81C80.152,66.596,80.602,66.916,81.221,66.916z"/>
						<path style="fill:#E2A4C3;" d="M93.128,58.66c0.27,0,0.521,0.037,0.754,0.111L93.7,59.523
							c-0.191-0.079-0.386-0.119-0.587-0.119c-0.291,0-0.562,0.149-0.813,0.447c-0.251,0.298-0.448,0.714-0.591,1.247
							c-0.143,0.533-0.214,1.122-0.214,1.765v4.551H90.74v-8.588h0.619l0.08,1.504h0.055C91.896,59.217,92.441,58.66,93.128,58.66z"
							/>
						<path style="fill:#E2A4C3;" d="M97.75,67.572c-0.91,0-1.609-0.386-2.099-1.16c-0.489-0.773-0.734-1.851-0.734-3.233
							c0-1.467,0.218-2.587,0.655-3.36s1.064-1.16,1.885-1.16c0.714,0,1.277,0.339,1.69,1.017c0.413,0.678,0.619,1.592,0.619,2.743
							v0.696h-4.079c0.01,1.25,0.188,2.188,0.532,2.81c0.344,0.623,0.865,0.934,1.563,0.934c0.54,0,1.108-0.177,1.706-0.53v0.729
							C98.938,67.401,98.358,67.572,97.75,67.572z M97.409,59.341c-1.037,0-1.605,1.032-1.706,3.095h3.309
							c0-0.944-0.144-1.696-0.433-2.256C98.291,59.621,97.901,59.341,97.409,59.341z"/>
						<path style="fill:#E2A4C3;" d="M105.79,65.261c0,0.723-0.19,1.289-0.571,1.698c-0.381,0.409-0.931,0.613-1.651,0.613
							c-0.392,0-0.735-0.05-1.031-0.15c-0.296-0.1-0.527-0.211-0.69-0.333v-0.878c0.195,0.195,0.455,0.352,0.777,0.471
							c0.323,0.119,0.653,0.178,0.992,0.178c0.444,0,0.793-0.145,1.047-0.435s0.381-0.678,0.381-1.164
							c0-0.38-0.091-0.701-0.274-0.962c-0.182-0.261-0.53-0.558-1.043-0.89c-0.587-0.37-0.988-0.665-1.202-0.887
							s-0.381-0.469-0.5-0.744c-0.119-0.274-0.178-0.601-0.178-0.981c0-0.617,0.209-1.127,0.627-1.531
							c0.417-0.404,0.949-0.605,1.595-0.605c0.693,0,1.272,0.164,1.738,0.491l-0.389,0.657c-0.434-0.29-0.894-0.435-1.381-0.435
							c-0.444,0-0.799,0.13-1.063,0.392c-0.264,0.261-0.396,0.605-0.396,1.033c0,0.38,0.09,0.698,0.27,0.954
							c0.18,0.256,0.561,0.566,1.143,0.93c0.571,0.375,0.962,0.674,1.174,0.898c0.211,0.225,0.369,0.473,0.472,0.744
							C105.738,64.595,105.79,64.908,105.79,65.261z"/>
						<path style="fill:#E2A4C3;" d="M112.832,63.101c0,1.446-0.229,2.552-0.687,3.32c-0.458,0.768-1.112,1.151-1.964,1.151
							c-0.842,0-1.486-0.384-1.933-1.151c-0.447-0.768-0.671-1.875-0.671-3.32c0-2.96,0.879-4.44,2.635-4.44
							c0.826,0,1.469,0.388,1.929,1.164C112.602,60.599,112.832,61.691,112.832,63.101z M108.364,63.101
							c0,1.24,0.147,2.176,0.444,2.81c0.296,0.633,0.759,0.95,1.389,0.95c1.232,0,1.85-1.253,1.85-3.759
							c0-2.485-0.617-3.728-1.85-3.728c-0.646,0-1.112,0.311-1.4,0.934C108.508,60.929,108.364,61.86,108.364,63.101z"/>
						<path style="fill:#E2A4C3;" d="M115.808,58.826v5.604c0,0.85,0.103,1.47,0.306,1.86c0.203,0.391,0.518,0.586,0.94,0.586
							c0.651,0,1.128-0.263,1.433-0.788c0.304-0.525,0.456-1.374,0.456-2.545v-4.717h0.746v8.588h-0.635l-0.096-1.203h-0.063
							c-0.186,0.438-0.441,0.774-0.77,1.009s-0.686,0.352-1.071,0.352c-0.692,0-1.2-0.245-1.52-0.736
							c-0.32-0.491-0.479-1.293-0.479-2.406v-5.604H115.808z"/>
						<path style="fill:#E2A4C3;" d="M125.077,58.66c0.27,0,0.521,0.037,0.754,0.111l-0.183,0.752
							c-0.19-0.079-0.386-0.119-0.587-0.119c-0.291,0-0.563,0.149-0.813,0.447c-0.251,0.298-0.448,0.714-0.591,1.247
							c-0.144,0.533-0.215,1.122-0.215,1.765v4.551h-0.754v-8.588h0.619l0.079,1.504h0.056
							C123.845,59.217,124.39,58.66,125.077,58.66z"/>
						<path style="fill:#E2A4C3;" d="M129.468,67.572c-0.862,0-1.512-0.373-1.948-1.12c-0.436-0.747-0.654-1.843-0.654-3.289
							c0-1.467,0.221-2.584,0.663-3.352c0.441-0.768,1.094-1.151,1.956-1.151c0.534,0,0.979,0.098,1.333,0.293l-0.294,0.665
							c-0.354-0.164-0.68-0.245-0.976-0.245c-1.265,0-1.896,1.258-1.896,3.775c0,2.496,0.632,3.744,1.896,3.744
							c0.375,0,0.782-0.084,1.222-0.253v0.633c-0.175,0.095-0.389,0.169-0.643,0.222S129.653,67.572,129.468,67.572z"/>
						<path style="fill:#E2A4C3;" d="M135.273,67.572c-0.91,0-1.609-0.386-2.099-1.16c-0.489-0.773-0.734-1.851-0.734-3.233
							c0-1.467,0.219-2.587,0.654-3.36c0.437-0.773,1.065-1.16,1.885-1.16c0.715,0,1.278,0.339,1.69,1.017
							c0.413,0.678,0.619,1.592,0.619,2.743v0.696h-4.079c0.011,1.25,0.188,2.188,0.532,2.81s0.864,0.934,1.563,0.934
							c0.539,0,1.107-0.177,1.706-0.53v0.729C136.461,67.401,135.882,67.572,135.273,67.572z M134.933,59.341
							c-1.037,0-1.606,1.032-1.706,3.095h3.309c0-0.944-0.145-1.696-0.433-2.256C135.814,59.621,135.424,59.341,134.933,59.341z"/>
						<path style="fill:#E2A4C3;" d="M148.389,67.414v-5.92c0-1.425-0.423-2.137-1.27-2.137c-0.646,0-1.118,0.267-1.417,0.799
							c-0.299,0.533-0.448,1.38-0.448,2.541v4.717H144.5v-8.588h0.635l0.063,1.195h0.071c0.181-0.433,0.439-0.768,0.778-1.005
							c0.338-0.237,0.701-0.356,1.087-0.356c0.667,0,1.167,0.223,1.5,0.669c0.333,0.446,0.5,1.162,0.5,2.149v5.936H148.389z"/>
						<path style="fill:#E2A4C3;" d="M154.547,67.572c-0.91,0-1.609-0.386-2.099-1.16c-0.489-0.773-0.734-1.851-0.734-3.233
							c0-1.467,0.219-2.587,0.654-3.36c0.437-0.773,1.065-1.16,1.885-1.16c0.715,0,1.278,0.339,1.69,1.017
							c0.413,0.678,0.619,1.592,0.619,2.743v0.696h-4.079c0.011,1.25,0.188,2.188,0.532,2.81s0.864,0.934,1.563,0.934
							c0.539,0,1.107-0.177,1.706-0.53v0.729C155.734,67.401,155.155,67.572,154.547,67.572z M154.206,59.341
							c-1.037,0-1.606,1.032-1.706,3.095h3.309c0-0.944-0.145-1.696-0.433-2.256C155.088,59.621,154.697,59.341,154.206,59.341z"/>
						<path style="fill:#E2A4C3;" d="M161.65,67.572c-0.91,0-1.609-0.386-2.099-1.16c-0.489-0.773-0.734-1.851-0.734-3.233
							c0-1.467,0.219-2.587,0.654-3.36c0.437-0.773,1.065-1.16,1.885-1.16c0.715,0,1.278,0.339,1.69,1.017
							c0.413,0.678,0.619,1.592,0.619,2.743v0.696h-4.079c0.011,1.25,0.188,2.188,0.532,2.81s0.864,0.934,1.563,0.934
							c0.539,0,1.107-0.177,1.706-0.53v0.729C162.838,67.401,162.259,67.572,161.65,67.572z M161.31,59.341
							c-1.037,0-1.606,1.032-1.706,3.095h3.309c0-0.944-0.145-1.696-0.433-2.256C162.191,59.621,161.801,59.341,161.31,59.341z"/>
						<path style="fill:#E2A4C3;" d="M168.413,67.572c-1.672,0-2.508-1.48-2.508-4.44c0-1.456,0.209-2.565,0.627-3.328
							c0.418-0.762,1.034-1.144,1.849-1.144c0.387,0,0.753,0.111,1.1,0.333c0.346,0.221,0.622,0.527,0.829,0.918h0.063l-0.032-0.958
							v-3.855h0.754v12.316h-0.619l-0.063-1.203h-0.071c-0.206,0.438-0.474,0.774-0.801,1.009
							C169.212,67.455,168.836,67.572,168.413,67.572z M168.46,66.916c0.604,0,1.067-0.278,1.394-0.835
							c0.325-0.557,0.487-1.376,0.487-2.458v-0.491c0-1.298-0.157-2.249-0.472-2.853c-0.315-0.604-0.795-0.906-1.44-0.906
							c-0.619,0-1.063,0.323-1.333,0.969c-0.271,0.646-0.405,1.582-0.405,2.806c0,1.235,0.141,2.171,0.421,2.81
							C167.392,66.596,167.842,66.916,168.46,66.916z"/>
						<path style="fill:#E2A4C3;" d="M177.297,65.261c0,0.723-0.19,1.289-0.571,1.698c-0.381,0.409-0.932,0.613-1.65,0.613
							c-0.392,0-0.735-0.05-1.032-0.15c-0.296-0.1-0.526-0.211-0.69-0.333v-0.878c0.196,0.195,0.455,0.352,0.778,0.471
							c0.322,0.119,0.653,0.178,0.991,0.178c0.444,0,0.794-0.145,1.048-0.435s0.381-0.678,0.381-1.164
							c0-0.38-0.091-0.701-0.273-0.962s-0.53-0.558-1.044-0.89c-0.587-0.37-0.988-0.665-1.202-0.887s-0.381-0.469-0.5-0.744
							c-0.119-0.274-0.179-0.601-0.179-0.981c0-0.617,0.209-1.127,0.627-1.531s0.95-0.605,1.596-0.605
							c0.692,0,1.271,0.164,1.737,0.491l-0.389,0.657c-0.434-0.29-0.895-0.435-1.381-0.435c-0.444,0-0.799,0.13-1.063,0.392
							s-0.396,0.605-0.396,1.033c0,0.38,0.09,0.698,0.27,0.954s0.561,0.566,1.143,0.93c0.571,0.375,0.963,0.674,1.175,0.898
							c0.212,0.225,0.369,0.473,0.472,0.744C177.245,64.595,177.297,64.908,177.297,65.261z"/>
					</g>
				</g>
				<g>
					<g>
						<g>
							<path style="fill:#E2A4C3;" d="M24.475,79.233h-1.349v7.923H22.38v-7.923h-1.095v-0.428l1.095-0.324v-0.649
								c0-1.092,0.129-1.878,0.389-2.359c0.259-0.48,0.709-0.72,1.349-0.72c0.37,0,0.706,0.066,1.008,0.198l-0.262,0.697
								c-0.281-0.132-0.535-0.198-0.762-0.198c-0.259,0-0.455,0.077-0.587,0.23c-0.132,0.153-0.23,0.401-0.293,0.744
								c-0.063,0.343-0.096,0.818-0.096,1.425v0.72h1.349V79.233z"/>
							<path style="fill:#E2A4C3;" d="M31.175,82.843c0,1.446-0.229,2.553-0.686,3.32c-0.458,0.768-1.112,1.151-1.964,1.151
								c-0.841,0-1.485-0.384-1.932-1.151c-0.447-0.768-0.67-1.875-0.67-3.32c0-2.96,0.878-4.44,2.634-4.44
								c0.826,0,1.468,0.388,1.929,1.164C30.945,80.341,31.175,81.434,31.175,82.843z M26.708,82.843c0,1.24,0.148,2.177,0.444,2.81
								c0.296,0.633,0.759,0.95,1.389,0.95c1.232,0,1.849-1.254,1.849-3.76c0-2.485-0.617-3.728-1.849-3.728
								c-0.646,0-1.112,0.311-1.401,0.934C26.852,80.671,26.708,81.603,26.708,82.843z"/>
							<path style="fill:#E2A4C3;" d="M35.817,78.402c0.27,0,0.521,0.037,0.754,0.111l-0.182,0.752
								c-0.191-0.079-0.386-0.119-0.587-0.119c-0.291,0-0.562,0.149-0.813,0.447c-0.251,0.298-0.448,0.714-0.591,1.247
								c-0.143,0.533-0.214,1.122-0.214,1.765v4.551h-0.753v-8.588h0.619l0.08,1.504h0.055
								C34.585,78.959,35.13,78.402,35.817,78.402z"/>
							<path style="fill:#E2A4C3;" d="M45.895,87.156l-0.095-1.203h-0.032c-0.413,0.907-1.037,1.361-1.873,1.361
								c-0.561,0-1.012-0.223-1.353-0.669c-0.341-0.445-0.512-1.043-0.512-1.792c0-0.818,0.246-1.465,0.738-1.943
								c0.492-0.478,1.183-0.737,2.071-0.779l0.928-0.048v-0.712c0-0.802-0.101-1.387-0.301-1.753c-0.201-0.367-0.535-0.55-1-0.55
								c-0.492,0-0.995,0.161-1.508,0.483l-0.325-0.594c0.598-0.369,1.225-0.554,1.881-0.554c0.708,0,1.219,0.223,1.531,0.669
								c0.312,0.446,0.468,1.191,0.468,2.236v5.849H45.895z M44.062,86.674c0.54,0,0.959-0.266,1.258-0.796s0.448-1.281,0.448-2.252
								v-0.894l-0.896,0.047c-0.693,0.037-1.208,0.228-1.543,0.574s-0.504,0.851-0.504,1.516c0,0.623,0.111,1.08,0.333,1.37
								S43.681,86.674,44.062,86.674z"/>
							<path style="fill:#E2A4C3;" d="M51.26,87.314c-1.672,0-2.507-1.48-2.507-4.44c0-1.456,0.209-2.565,0.627-3.328
								c0.417-0.762,1.034-1.144,1.849-1.144c0.386,0,0.752,0.111,1.099,0.333c0.347,0.221,0.623,0.527,0.83,0.918h0.063
								l-0.032-0.958V74.84h0.753v12.316h-0.619l-0.063-1.203h-0.071c-0.207,0.438-0.474,0.774-0.802,1.009
								C52.059,87.197,51.683,87.314,51.26,87.314z M51.308,86.657c0.603,0,1.067-0.278,1.393-0.835s0.488-1.375,0.488-2.458v-0.491
								c0-1.298-0.158-2.249-0.472-2.853c-0.315-0.604-0.795-0.906-1.44-0.906c-0.619,0-1.063,0.323-1.333,0.969
								c-0.27,0.646-0.404,1.582-0.404,2.806c0,1.235,0.14,2.171,0.42,2.81S50.688,86.657,51.308,86.657z"/>
							<path style="fill:#E2A4C3;" d="M57.724,87.156l-2.031-8.588h0.762l1.286,5.525c0.148,0.638,0.291,1.334,0.428,2.089h0.063
								c0.037-0.274,0.09-0.58,0.159-0.918s0.59-2.57,1.563-6.696h0.762l-2.095,8.588H57.724z"/>
							<path style="fill:#E2A4C3;" d="M65.668,87.156l-0.095-1.203h-0.032c-0.413,0.907-1.037,1.361-1.873,1.361
								c-0.561,0-1.012-0.223-1.353-0.669c-0.341-0.445-0.512-1.043-0.512-1.792c0-0.818,0.246-1.465,0.738-1.943
								c0.492-0.478,1.183-0.737,2.071-0.779l0.928-0.048v-0.712c0-0.802-0.101-1.387-0.301-1.753c-0.201-0.367-0.535-0.55-1-0.55
								c-0.492,0-0.995,0.161-1.508,0.483l-0.325-0.594c0.598-0.369,1.225-0.554,1.881-0.554c0.708,0,1.219,0.223,1.531,0.669
								c0.312,0.446,0.468,1.191,0.468,2.236v5.849H65.668z M63.835,86.674c0.54,0,0.959-0.266,1.258-0.796s0.448-1.281,0.448-2.252
								v-0.894l-0.896,0.047c-0.693,0.037-1.208,0.228-1.543,0.574s-0.504,0.851-0.504,1.516c0,0.623,0.111,1.08,0.333,1.37
								S63.455,86.674,63.835,86.674z"/>
							<path style="fill:#E2A4C3;" d="M72.819,87.156v-5.92c0-1.425-0.423-2.137-1.27-2.137c-0.646,0-1.118,0.267-1.417,0.799
								c-0.299,0.533-0.449,1.38-0.449,2.541v4.717h-0.753v-8.588h0.635l0.063,1.195h0.071c0.18-0.433,0.439-0.768,0.778-1.005
								c0.338-0.237,0.701-0.356,1.087-0.356c0.667,0,1.167,0.223,1.5,0.669c0.333,0.446,0.5,1.162,0.5,2.149v5.936H72.819z"/>
							<path style="fill:#E2A4C3;" d="M78.748,87.314c-0.862,0-1.512-0.373-1.948-1.12c-0.437-0.746-0.655-1.843-0.655-3.289
								c0-1.467,0.221-2.584,0.663-3.352c0.442-0.768,1.094-1.151,1.956-1.151c0.535,0,0.979,0.098,1.333,0.293l-0.294,0.665
								c-0.354-0.164-0.68-0.245-0.976-0.245c-1.264,0-1.896,1.258-1.896,3.775c0,2.496,0.632,3.744,1.896,3.744
								c0.376,0,0.783-0.084,1.222-0.253v0.633c-0.174,0.095-0.389,0.169-0.643,0.222S78.933,87.314,78.748,87.314z"/>
							<path style="fill:#E2A4C3;" d="M84.553,87.314c-0.91,0-1.609-0.387-2.099-1.159c-0.489-0.773-0.734-1.851-0.734-3.233
								c0-1.467,0.218-2.587,0.655-3.36s1.064-1.16,1.885-1.16c0.714,0,1.277,0.339,1.69,1.017c0.413,0.678,0.619,1.592,0.619,2.743
								v0.696H82.49c0.01,1.25,0.188,2.188,0.532,2.81c0.344,0.623,0.865,0.935,1.563,0.935c0.54,0,1.108-0.177,1.706-0.53V86.8
								C85.74,87.144,85.161,87.314,84.553,87.314z M84.211,79.083c-1.037,0-1.605,1.032-1.706,3.095h3.309
								c0-0.944-0.144-1.696-0.433-2.256C85.094,79.363,84.704,79.083,84.211,79.083z"/>
							<path style="fill:#E2A4C3;" d="M91.315,87.314c-1.672,0-2.507-1.48-2.507-4.44c0-1.456,0.209-2.565,0.627-3.328
								c0.417-0.762,1.034-1.144,1.849-1.144c0.386,0,0.752,0.111,1.099,0.333c0.347,0.221,0.623,0.527,0.83,0.918h0.063
								l-0.032-0.958V74.84h0.753v12.316h-0.619l-0.063-1.203h-0.071c-0.207,0.438-0.474,0.774-0.802,1.009
								C92.114,87.197,91.738,87.314,91.315,87.314z M91.363,86.657c0.603,0,1.067-0.278,1.393-0.835s0.488-1.375,0.488-2.458
								v-0.491c0-1.298-0.158-2.249-0.472-2.853c-0.315-0.604-0.795-0.906-1.44-0.906c-0.619,0-1.063,0.323-1.333,0.969
								c-0.27,0.646-0.404,1.582-0.404,2.806c0,1.235,0.14,2.171,0.42,2.81S90.744,86.657,91.363,86.657z"/>
							<path style="fill:#E2A4C3;" d="M104.104,87.314c-0.862,0-1.512-0.373-1.948-1.12c-0.437-0.746-0.655-1.843-0.655-3.289
								c0-1.467,0.221-2.584,0.663-3.352c0.442-0.768,1.094-1.151,1.956-1.151c0.535,0,0.979,0.098,1.333,0.293l-0.294,0.665
								c-0.354-0.164-0.68-0.245-0.976-0.245c-1.264,0-1.896,1.258-1.896,3.775c0,2.496,0.632,3.744,1.896,3.744
								c0.376,0,0.783-0.084,1.222-0.253v0.633c-0.174,0.095-0.389,0.169-0.643,0.222S104.289,87.314,104.104,87.314z"/>
							<path style="fill:#E2A4C3;" d="M110.797,87.156l-0.095-1.203h-0.032c-0.412,0.907-1.036,1.361-1.872,1.361
								c-0.562,0-1.012-0.223-1.353-0.669c-0.342-0.445-0.512-1.043-0.512-1.792c0-0.818,0.245-1.465,0.737-1.943
								c0.492-0.478,1.183-0.737,2.071-0.779l0.928-0.048v-0.712c0-0.802-0.1-1.387-0.301-1.753s-0.535-0.55-1-0.55
								c-0.492,0-0.994,0.161-1.508,0.483l-0.325-0.594c0.598-0.369,1.225-0.554,1.881-0.554c0.708,0,1.22,0.223,1.531,0.669
								c0.312,0.446,0.468,1.191,0.468,2.236v5.849H110.797z M108.965,86.674c0.539,0,0.959-0.266,1.258-0.796
								s0.447-1.281,0.447-2.252v-0.894l-0.896,0.047c-0.693,0.037-1.207,0.228-1.543,0.574s-0.504,0.851-0.504,1.516
								c0,0.623,0.111,1.08,0.333,1.37S108.584,86.674,108.965,86.674z"/>
							<path style="fill:#E2A4C3;" d="M116.829,87.314c-0.434,0-0.829-0.12-1.187-0.36c-0.357-0.239-0.628-0.568-0.813-0.985h-0.072
								l0.056,0.942v4.14h-0.753V78.568h0.618l0.079,1.179h0.072c0.211-0.433,0.482-0.765,0.813-0.997
								c0.331-0.232,0.691-0.348,1.084-0.348c1.682,0,2.523,1.48,2.523,4.44c0,1.43-0.207,2.532-0.619,3.309
								C118.219,86.927,117.617,87.314,116.829,87.314z M116.679,79.115c-0.63,0-1.099,0.277-1.405,0.831
								c-0.307,0.554-0.46,1.422-0.46,2.604v0.245c0,1.319,0.156,2.289,0.468,2.909c0.313,0.62,0.789,0.93,1.43,0.93
								c0.592,0,1.032-0.308,1.32-0.922c0.289-0.615,0.433-1.571,0.433-2.869c0-1.24-0.135-2.171-0.404-2.794
								C117.789,79.426,117.329,79.115,116.679,79.115z"/>
							<path style="fill:#E2A4C3;" d="M124.999,87.156l-0.095-1.203h-0.032c-0.412,0.907-1.037,1.361-1.873,1.361
								c-0.561,0-1.012-0.223-1.353-0.669c-0.341-0.445-0.512-1.043-0.512-1.792c0-0.818,0.246-1.465,0.738-1.943
								c0.491-0.478,1.182-0.737,2.07-0.779l0.929-0.048v-0.712c0-0.802-0.101-1.387-0.302-1.753s-0.534-0.55-0.999-0.55
								c-0.492,0-0.995,0.161-1.508,0.483l-0.326-0.594c0.599-0.369,1.225-0.554,1.881-0.554c0.709,0,1.22,0.223,1.532,0.669
								c0.312,0.446,0.468,1.191,0.468,2.236v5.849H124.999z M123.166,86.674c0.54,0,0.959-0.266,1.258-0.796
								s0.448-1.281,0.448-2.252v-0.894l-0.896,0.047c-0.693,0.037-1.208,0.228-1.544,0.574s-0.504,0.851-0.504,1.516
								c0,0.623,0.111,1.08,0.334,1.37C122.483,86.528,122.785,86.674,123.166,86.674z"/>
							<path style="fill:#E2A4C3;" d="M130.929,78.418c1.682,0,2.523,1.475,2.523,4.425c0,1.456-0.209,2.565-0.627,3.328
								s-1.021,1.144-1.81,1.144c-0.413,0-0.788-0.113-1.127-0.34c-0.339-0.228-0.619-0.563-0.841-1.006h-0.063l-0.104,1.188h-0.619
								V74.84h0.754v3.823l-0.031,1.037h0.063C129.503,78.846,130.13,78.418,130.929,78.418z M130.896,79.115
								c-0.661,0-1.14,0.29-1.437,0.871c-0.296,0.581-0.444,1.533-0.444,2.857v0.198c0,2.396,0.638,3.593,1.913,3.593
								c0.581,0,1.017-0.309,1.305-0.926c0.289-0.617,0.433-1.573,0.433-2.865c0-1.24-0.14-2.171-0.42-2.794
								C131.965,79.426,131.516,79.115,130.896,79.115z"/>
							<path style="fill:#E2A4C3;" d="M135.758,76.186c0-0.237,0.049-0.422,0.146-0.554c0.098-0.132,0.224-0.198,0.377-0.198
								c0.143,0,0.257,0.066,0.341,0.198c0.085,0.132,0.127,0.317,0.127,0.554c0,0.227-0.042,0.408-0.127,0.542
								c-0.084,0.135-0.198,0.202-0.341,0.202c-0.153,0-0.279-0.067-0.377-0.202C135.807,76.594,135.758,76.413,135.758,76.186z
								 M136.622,87.156h-0.754v-8.588h0.754V87.156z"/>
							<path style="fill:#E2A4C3;" d="M140.164,87.156h-0.754V74.84h0.754V87.156z"/>
							<path style="fill:#E2A4C3;" d="M142.843,76.186c0-0.237,0.049-0.422,0.146-0.554c0.098-0.132,0.224-0.198,0.377-0.198
								c0.143,0,0.257,0.066,0.341,0.198c0.085,0.132,0.127,0.317,0.127,0.554c0,0.227-0.042,0.408-0.127,0.542
								c-0.084,0.135-0.198,0.202-0.341,0.202c-0.153,0-0.279-0.067-0.377-0.202C142.892,76.594,142.843,76.413,142.843,76.186z
								 M143.707,87.156h-0.754v-8.588h0.754V87.156z"/>
							<path style="fill:#E2A4C3;" d="M148.075,86.618c0.233,0,0.439-0.032,0.619-0.095v0.633c-0.232,0.105-0.531,0.158-0.896,0.158
								c-0.889,0-1.333-0.662-1.333-1.986v-6.095h-0.778V78.79l0.763-0.222l0.245-2.042h0.524v2.042h1.364v0.665h-1.364v5.881
								c0,0.58,0.063,0.977,0.19,1.188S147.758,86.618,148.075,86.618z"/>
							<path style="fill:#E2A4C3;" d="M150.437,76.186c0-0.237,0.049-0.422,0.146-0.554c0.098-0.132,0.224-0.198,0.377-0.198
								c0.143,0,0.257,0.066,0.341,0.198c0.085,0.132,0.127,0.317,0.127,0.554c0,0.227-0.042,0.408-0.127,0.542
								c-0.084,0.135-0.198,0.202-0.341,0.202c-0.153,0-0.279-0.067-0.377-0.202C150.485,76.594,150.437,76.413,150.437,76.186z
								 M151.301,87.156h-0.754v-8.588h0.754V87.156z"/>
							<path style="fill:#E2A4C3;" d="M156.534,87.314c-0.91,0-1.609-0.387-2.099-1.159c-0.489-0.773-0.734-1.851-0.734-3.233
								c0-1.467,0.219-2.587,0.654-3.36c0.437-0.773,1.065-1.16,1.885-1.16c0.715,0,1.278,0.339,1.69,1.017
								c0.413,0.678,0.619,1.592,0.619,2.743v0.696h-4.079c0.011,1.25,0.188,2.188,0.532,2.81c0.344,0.623,0.864,0.935,1.563,0.935
								c0.539,0,1.107-0.177,1.706-0.53V86.8C157.722,87.144,157.143,87.314,156.534,87.314z M156.193,79.083
								c-1.037,0-1.606,1.032-1.706,3.095h3.309c0-0.944-0.145-1.696-0.433-2.256C157.075,79.363,156.685,79.083,156.193,79.083z"/>
							<path style="fill:#E2A4C3;" d="M164.574,85.003c0,0.724-0.19,1.289-0.571,1.698s-0.932,0.613-1.65,0.613
								c-0.392,0-0.735-0.05-1.032-0.15c-0.296-0.1-0.526-0.211-0.69-0.332v-0.879c0.196,0.195,0.455,0.353,0.778,0.471
								c0.322,0.119,0.653,0.179,0.991,0.179c0.444,0,0.794-0.146,1.048-0.436s0.381-0.678,0.381-1.164
								c0-0.379-0.091-0.7-0.273-0.961s-0.53-0.558-1.044-0.89c-0.587-0.37-0.988-0.665-1.202-0.887s-0.381-0.469-0.5-0.744
								c-0.119-0.274-0.179-0.601-0.179-0.981c0-0.617,0.209-1.127,0.627-1.531s0.95-0.605,1.596-0.605
								c0.692,0,1.271,0.164,1.737,0.491l-0.389,0.657c-0.434-0.29-0.895-0.435-1.381-0.435c-0.444,0-0.799,0.13-1.063,0.392
								s-0.396,0.605-0.396,1.033c0,0.38,0.09,0.698,0.27,0.954s0.561,0.566,1.143,0.93c0.571,0.375,0.963,0.674,1.175,0.898
								c0.212,0.225,0.369,0.473,0.472,0.744C164.522,84.337,164.574,84.65,164.574,85.003z"/>
						</g>
					</g>
					<g>
						<g>
							<g>
								<path style="fill:#E2A4C3;" d="M3.709,100.731c0-0.555,0.197-1.026,0.591-1.417s0.866-0.586,1.417-0.586
									c0.556,0,1.03,0.195,1.424,0.586s0.591,0.862,0.591,1.417c0,0.554-0.197,1.027-0.591,1.42
									c-0.394,0.394-0.869,0.59-1.424,0.59c-0.55,0-1.022-0.196-1.417-0.59C3.907,101.759,3.709,101.285,3.709,100.731z"/>
							</g>
						</g>
						<g>
							<g>
								<g>
									<path style="fill:#E2A4C3;" d="M28.696,100.612c0,1.915-0.287,3.388-0.861,4.417c-0.574,1.028-1.403,1.543-2.488,1.543
										c-1.095,0-1.926-0.519-2.492-1.556c-0.566-1.036-0.849-2.51-0.849-4.42c0-1.995,0.28-3.48,0.841-4.456
										c0.561-0.977,1.402-1.465,2.523-1.465c1.079,0,1.903,0.514,2.472,1.54S28.696,98.708,28.696,100.612z M22.816,100.612
										c0,1.721,0.215,3.02,0.646,3.898c0.431,0.878,1.06,1.317,1.885,1.317c0.831,0,1.461-0.436,1.893-1.306
										c0.431-0.871,0.647-2.174,0.647-3.91c0-1.715-0.212-3.009-0.635-3.882c-0.423-0.874-1.05-1.311-1.881-1.311
										c-0.852,0-1.491,0.442-1.917,1.326S22.816,98.919,22.816,100.612z"/>
									<path style="fill:#E2A4C3;" d="M34.18,106.572c-0.434,0-0.829-0.12-1.186-0.36c-0.357-0.239-0.628-0.568-0.813-0.985
										h-0.071l0.055,0.942v4.14h-0.753V97.826h0.619l0.08,1.18h0.071c0.211-0.433,0.483-0.766,0.813-0.997
										c0.331-0.232,0.691-0.349,1.083-0.349c1.683,0,2.523,1.48,2.523,4.44c0,1.43-0.206,2.532-0.619,3.309
										C35.569,106.185,34.968,106.572,34.18,106.572z M34.029,98.372c-0.63,0-1.098,0.277-1.405,0.831
										c-0.307,0.555-0.46,1.423-0.46,2.604v0.245c0,1.319,0.156,2.289,0.468,2.909s0.789,0.93,1.429,0.93
										c0.592,0,1.033-0.308,1.321-0.922c0.288-0.615,0.432-1.571,0.432-2.869c0-1.24-0.135-2.172-0.404-2.794
										C35.14,98.684,34.68,98.372,34.029,98.372z"/>
									<path style="fill:#E2A4C3;" d="M40.596,105.876c0.232,0,0.439-0.032,0.619-0.095v0.633
										c-0.233,0.105-0.532,0.158-0.896,0.158c-0.889,0-1.333-0.662-1.333-1.986v-6.095h-0.778v-0.443l0.762-0.222l0.246-2.042
										h0.523v2.042h1.365v0.665h-1.365v5.881c0,0.58,0.063,0.977,0.191,1.188C40.057,105.771,40.279,105.876,40.596,105.876z"/>
									<path style="fill:#E2A4C3;" d="M42.957,95.443c0-0.237,0.049-0.422,0.147-0.554c0.098-0.132,0.223-0.197,0.377-0.197
										c0.143,0,0.256,0.065,0.341,0.197c0.085,0.132,0.127,0.316,0.127,0.554c0,0.228-0.042,0.408-0.127,0.543
										c-0.084,0.134-0.198,0.201-0.341,0.201c-0.154,0-0.279-0.067-0.377-0.201C43.005,95.852,42.957,95.671,42.957,95.443z
										 M43.821,106.414h-0.753v-8.588h0.753V106.414z"/>
									<path style="fill:#E2A4C3;" d="M53.927,106.414v-5.85c0-1.44-0.423-2.16-1.27-2.16c-0.582,0-1.001,0.252-1.258,0.756
										c-0.257,0.504-0.385,1.246-0.385,2.228v5.026h-0.746v-5.85c0-0.728-0.104-1.27-0.31-1.626
										c-0.207-0.356-0.526-0.534-0.96-0.534c-0.571,0-0.986,0.259-1.246,0.775c-0.259,0.518-0.389,1.356-0.389,2.517v4.718
										h-0.753v-8.588h0.635l0.063,1.195h0.071c0.344-0.907,0.928-1.361,1.754-1.361c0.476,0,0.852,0.127,1.126,0.38
										c0.275,0.253,0.474,0.623,0.595,1.108c0.207-0.528,0.46-0.908,0.762-1.14c0.301-0.232,0.693-0.349,1.174-0.349
										c0.65,0,1.127,0.249,1.428,0.748c0.302,0.498,0.453,1.297,0.453,2.395v5.611H53.927z"/>
									<path style="fill:#E2A4C3;" d="M57.165,95.443c0-0.237,0.049-0.422,0.147-0.554c0.098-0.132,0.223-0.197,0.377-0.197
										c0.143,0,0.256,0.065,0.341,0.197c0.085,0.132,0.127,0.316,0.127,0.554c0,0.228-0.042,0.408-0.127,0.543
										c-0.084,0.134-0.198,0.201-0.341,0.201c-0.154,0-0.279-0.067-0.377-0.201C57.213,95.852,57.165,95.671,57.165,95.443z
										 M58.029,106.414h-0.753v-8.588h0.753V106.414z"/>
									<path style="fill:#E2A4C3;" d="M63.587,106.414h-3.452v-0.602l2.539-7.321h-2.373v-0.665h3.167v0.609l-2.532,7.313h2.65
										V106.414z"/>
									<path style="fill:#E2A4C3;" d="M67.832,106.572c-0.91,0-1.609-0.387-2.099-1.159c-0.489-0.773-0.734-1.851-0.734-3.233
										c0-1.467,0.218-2.587,0.655-3.36c0.437-0.772,1.064-1.159,1.885-1.159c0.714,0,1.277,0.339,1.69,1.017
										c0.413,0.679,0.619,1.593,0.619,2.743v0.696h-4.079c0.01,1.251,0.188,2.188,0.532,2.81
										c0.344,0.623,0.865,0.935,1.563,0.935c0.54,0,1.108-0.177,1.706-0.53v0.728C69.019,106.401,68.44,106.572,67.832,106.572z
										 M67.49,98.341c-1.037,0-1.605,1.031-1.706,3.095h3.309c0-0.944-0.144-1.696-0.433-2.256
										C68.373,98.62,67.982,98.341,67.49,98.341z"/>
									<path style="fill:#E2A4C3;" d="M74.594,106.572c-1.672,0-2.507-1.48-2.507-4.44c0-1.456,0.209-2.565,0.627-3.328
										c0.417-0.763,1.034-1.144,1.849-1.144c0.386,0,0.752,0.11,1.099,0.332s0.623,0.528,0.83,0.918h0.063l-0.032-0.957v-3.854
										h0.753v12.315h-0.619l-0.063-1.203h-0.071c-0.207,0.438-0.474,0.774-0.802,1.009
										C75.393,106.455,75.017,106.572,74.594,106.572z M74.642,105.915c0.603,0,1.067-0.278,1.393-0.835s0.488-1.376,0.488-2.457
										v-0.491c0-1.298-0.158-2.249-0.472-2.854c-0.315-0.604-0.795-0.906-1.44-0.906c-0.619,0-1.063,0.323-1.333,0.97
										c-0.27,0.646-0.404,1.582-0.404,2.806c0,1.235,0.14,2.172,0.42,2.811S74.022,105.915,74.642,105.915z"/>
									<path style="fill:#E2A4C3;" d="M87.938,106.572c-0.434,0-0.829-0.12-1.186-0.36c-0.357-0.239-0.628-0.568-0.813-0.985
										h-0.071l0.055,0.942v4.14h-0.753V97.826h0.619l0.08,1.18h0.071c0.211-0.433,0.483-0.766,0.813-0.997
										c0.331-0.232,0.691-0.349,1.083-0.349c1.683,0,2.523,1.48,2.523,4.44c0,1.43-0.206,2.532-0.619,3.309
										C89.327,106.185,88.726,106.572,87.938,106.572z M87.787,98.372c-0.63,0-1.098,0.277-1.405,0.831
										c-0.307,0.555-0.46,1.423-0.46,2.604v0.245c0,1.319,0.156,2.289,0.468,2.909s0.789,0.93,1.429,0.93
										c0.592,0,1.033-0.308,1.321-0.922c0.288-0.615,0.432-1.571,0.432-2.869c0-1.24-0.135-2.172-0.404-2.794
										C88.898,98.684,88.438,98.372,87.787,98.372z"/>
									<path style="fill:#E2A4C3;" d="M95.163,97.66c0.27,0,0.521,0.037,0.754,0.11l-0.182,0.752
										c-0.191-0.079-0.386-0.118-0.587-0.118c-0.291,0-0.562,0.148-0.813,0.447c-0.251,0.298-0.448,0.714-0.591,1.246
										c-0.143,0.533-0.214,1.121-0.214,1.766v4.551h-0.753v-8.588h0.619l0.08,1.504h0.055
										C93.931,98.217,94.476,97.66,95.163,97.66z"/>
									<path style="fill:#E2A4C3;" d="M102.189,102.101c0,1.445-0.229,2.553-0.686,3.32c-0.458,0.768-1.112,1.151-1.964,1.151
										c-0.841,0-1.485-0.384-1.932-1.151c-0.447-0.768-0.67-1.875-0.67-3.32c0-2.96,0.878-4.44,2.634-4.44
										c0.826,0,1.468,0.388,1.929,1.163C101.959,99.6,102.189,100.691,102.189,102.101z M97.722,102.101
										c0,1.24,0.148,2.177,0.444,2.81c0.296,0.633,0.759,0.95,1.389,0.95c1.232,0,1.849-1.254,1.849-3.76
										c0-2.485-0.617-3.729-1.849-3.729c-0.646,0-1.112,0.312-1.401,0.935C97.866,99.929,97.722,100.86,97.722,102.101z"/>
									<path style="fill:#E2A4C3;" d="M106.657,106.572c-0.862,0-1.512-0.373-1.948-1.12c-0.437-0.746-0.655-1.843-0.655-3.288
										c0-1.467,0.221-2.585,0.663-3.353s1.094-1.151,1.956-1.151c0.534,0,0.979,0.098,1.333,0.293l-0.293,0.665
										c-0.355-0.164-0.68-0.246-0.977-0.246c-1.264,0-1.896,1.259-1.896,3.775c0,2.496,0.632,3.744,1.896,3.744
										c0.376,0,0.783-0.084,1.223-0.253v0.633c-0.175,0.095-0.389,0.169-0.643,0.222S106.842,106.572,106.657,106.572z"/>
									<path style="fill:#E2A4C3;" d="M112.463,106.572c-0.91,0-1.609-0.387-2.1-1.159c-0.488-0.773-0.733-1.851-0.733-3.233
										c0-1.467,0.218-2.587,0.655-3.36c0.436-0.772,1.064-1.159,1.885-1.159c0.713,0,1.277,0.339,1.689,1.017
										c0.413,0.679,0.619,1.593,0.619,2.743v0.696H110.4c0.01,1.251,0.188,2.188,0.531,2.81c0.344,0.623,0.865,0.935,1.563,0.935
										c0.54,0,1.109-0.177,1.707-0.53v0.728C113.65,106.401,113.071,106.572,112.463,106.572z M112.121,98.341
										c-1.036,0-1.605,1.031-1.705,3.095h3.309c0-0.944-0.145-1.696-0.433-2.256S112.613,98.341,112.121,98.341z"/>
									<path style="fill:#E2A4C3;" d="M120.503,104.261c0,0.724-0.19,1.289-0.571,1.698s-0.932,0.613-1.65,0.613
										c-0.393,0-0.736-0.05-1.031-0.15c-0.297-0.1-0.527-0.211-0.691-0.332v-0.879c0.195,0.195,0.455,0.353,0.777,0.471
										c0.323,0.119,0.654,0.179,0.992,0.179c0.445,0,0.794-0.146,1.048-0.436s0.381-0.678,0.381-1.164
										c0-0.38-0.091-0.7-0.274-0.961c-0.182-0.262-0.529-0.559-1.043-0.891c-0.587-0.369-0.988-0.665-1.202-0.887
										s-0.381-0.47-0.5-0.744c-0.118-0.274-0.179-0.602-0.179-0.981c0-0.617,0.209-1.128,0.627-1.531s0.949-0.605,1.596-0.605
										c0.692,0,1.271,0.163,1.737,0.49l-0.389,0.657c-0.434-0.29-0.894-0.436-1.381-0.436c-0.444,0-0.799,0.131-1.063,0.393
										c-0.264,0.261-0.396,0.605-0.396,1.032c0,0.38,0.09,0.698,0.27,0.954s0.561,0.565,1.143,0.93
										c0.572,0.375,0.963,0.675,1.175,0.898c0.212,0.225,0.369,0.473,0.472,0.744
										C120.451,103.595,120.503,103.908,120.503,104.261z"/>
									<path style="fill:#E2A4C3;" d="M126.076,104.261c0,0.724-0.19,1.289-0.571,1.698s-0.932,0.613-1.65,0.613
										c-0.392,0-0.735-0.05-1.032-0.15c-0.296-0.1-0.526-0.211-0.69-0.332v-0.879c0.196,0.195,0.455,0.353,0.778,0.471
										c0.322,0.119,0.653,0.179,0.991,0.179c0.444,0,0.794-0.146,1.048-0.436s0.381-0.678,0.381-1.164
										c0-0.38-0.091-0.7-0.273-0.961c-0.183-0.262-0.53-0.559-1.044-0.891c-0.587-0.369-0.988-0.665-1.202-0.887
										s-0.381-0.47-0.5-0.744s-0.179-0.602-0.179-0.981c0-0.617,0.209-1.128,0.627-1.531s0.95-0.605,1.596-0.605
										c0.692,0,1.271,0.163,1.737,0.49l-0.389,0.657c-0.434-0.29-0.895-0.436-1.381-0.436c-0.444,0-0.799,0.131-1.063,0.393
										c-0.265,0.261-0.396,0.605-0.396,1.032c0,0.38,0.09,0.698,0.27,0.954s0.561,0.565,1.143,0.93
										c0.571,0.375,0.963,0.675,1.175,0.898c0.212,0.225,0.369,0.473,0.472,0.744
										C126.024,103.595,126.076,103.908,126.076,104.261z"/>
									<path style="fill:#E2A4C3;" d="M135.537,98.491h-1.349v7.923h-0.746v-7.923h-1.095v-0.428l1.095-0.324V97.09
										c0-1.092,0.13-1.878,0.389-2.358s0.709-0.721,1.349-0.721c0.371,0,0.707,0.066,1.008,0.198l-0.262,0.696
										c-0.28-0.132-0.534-0.197-0.762-0.197c-0.259,0-0.455,0.076-0.587,0.229c-0.133,0.153-0.23,0.4-0.294,0.744
										c-0.063,0.343-0.095,0.817-0.095,1.425v0.72h1.349V98.491z M137.688,106.414h-0.754V94.099h0.754V106.414z"/>
									<path style="fill:#E2A4C3;" d="M145.325,102.101c0,1.445-0.229,2.553-0.687,3.32c-0.457,0.768-1.112,1.151-1.964,1.151
										c-0.841,0-1.485-0.384-1.933-1.151c-0.446-0.768-0.67-1.875-0.67-3.32c0-2.96,0.878-4.44,2.635-4.44
										c0.825,0,1.468,0.388,1.928,1.163C145.096,99.6,145.325,100.691,145.325,102.101z M140.857,102.101
										c0,1.24,0.148,2.177,0.444,2.81c0.297,0.633,0.76,0.95,1.389,0.95c1.233,0,1.85-1.254,1.85-3.76
										c0-2.485-0.616-3.729-1.85-3.729c-0.646,0-1.112,0.312-1.4,0.935C141.002,99.929,140.857,100.86,140.857,102.101z"/>
									<path style="fill:#E2A4C3;" d="M151.877,106.414l-1.19-5.817c-0.011-0.042-0.02-0.087-0.027-0.135s-0.092-0.554-0.25-1.52
										h-0.016l-0.111,0.673l-0.183,0.981l-1.23,5.817h-0.896l-1.872-8.588h0.753l1.071,5.002l0.5,2.612h0.048
										c0.096-0.755,0.249-1.631,0.46-2.628l1.072-4.986h0.793l1.079,5.002c0.085,0.375,0.235,1.246,0.452,2.612h0.048
										c0.016-0.174,0.094-0.612,0.234-1.313c0.14-0.702,0.588-2.803,1.345-6.301h0.746l-1.937,8.588H151.877z"/>
								</g>
							</g>
							<g>
								<g>
									<g>
										<path style="fill:#E2A4C3;" d="M3.709,119.974c0-0.555,0.197-1.026,0.591-1.417s0.866-0.586,1.417-0.586
											c0.556,0,1.03,0.195,1.424,0.586s0.591,0.862,0.591,1.417c0,0.554-0.197,1.027-0.591,1.42
											c-0.394,0.394-0.869,0.59-1.424,0.59c-0.55,0-1.022-0.196-1.417-0.59C3.907,121.001,3.709,120.527,3.709,119.974z"/>
									</g>
								</g>
								<g>
									<g>
										<g>
											<path style="fill:#E2A4C3;" d="M26.784,125.656l-1.024-4.195h-2.817l-1.008,4.195h-0.81l2.793-11.571h0.801l2.857,11.571
												H26.784z M25.578,120.678l-1.023-4.313c-0.106-0.485-0.188-0.944-0.246-1.378c-0.047,0.46-0.122,0.919-0.222,1.378
												l-0.992,4.313H25.578z"/>
											<path style="fill:#E2A4C3;" d="M32.759,123.503c0,0.724-0.19,1.289-0.571,1.698s-0.931,0.613-1.651,0.613
												c-0.392,0-0.735-0.05-1.031-0.15c-0.296-0.1-0.527-0.211-0.69-0.332v-0.879c0.195,0.195,0.455,0.353,0.777,0.471
												c0.323,0.119,0.653,0.179,0.992,0.179c0.444,0,0.793-0.146,1.047-0.436s0.381-0.678,0.381-1.164
												c0-0.38-0.091-0.7-0.274-0.961c-0.182-0.262-0.53-0.559-1.043-0.891c-0.587-0.369-0.988-0.665-1.202-0.887
												s-0.381-0.47-0.5-0.744c-0.119-0.274-0.178-0.602-0.178-0.981c0-0.617,0.209-1.128,0.627-1.531
												c0.417-0.403,0.949-0.605,1.595-0.605c0.693,0,1.272,0.163,1.738,0.49l-0.389,0.657c-0.434-0.29-0.894-0.436-1.381-0.436
												c-0.444,0-0.799,0.131-1.063,0.393c-0.264,0.261-0.396,0.605-0.396,1.032c0,0.38,0.09,0.698,0.27,0.954
												c0.18,0.256,0.561,0.565,1.143,0.93c0.571,0.375,0.962,0.675,1.174,0.898c0.211,0.225,0.369,0.473,0.472,0.744
												S32.759,123.15,32.759,123.503z"/>
											<path style="fill:#E2A4C3;" d="M38.333,123.503c0,0.724-0.19,1.289-0.571,1.698s-0.931,0.613-1.651,0.613
												c-0.392,0-0.735-0.05-1.031-0.15c-0.296-0.1-0.527-0.211-0.69-0.332v-0.879c0.195,0.195,0.455,0.353,0.777,0.471
												c0.323,0.119,0.653,0.179,0.992,0.179c0.444,0,0.793-0.146,1.047-0.436s0.381-0.678,0.381-1.164
												c0-0.38-0.091-0.7-0.274-0.961c-0.182-0.262-0.53-0.559-1.043-0.891c-0.587-0.369-0.988-0.665-1.202-0.887
												s-0.381-0.47-0.5-0.744c-0.119-0.274-0.178-0.602-0.178-0.981c0-0.617,0.209-1.128,0.627-1.531
												c0.417-0.403,0.949-0.605,1.595-0.605c0.693,0,1.272,0.163,1.738,0.49l-0.389,0.657c-0.434-0.29-0.894-0.436-1.381-0.436
												c-0.444,0-0.799,0.131-1.063,0.393c-0.264,0.261-0.396,0.605-0.396,1.032c0,0.38,0.09,0.698,0.27,0.954
												c0.18,0.256,0.561,0.565,1.143,0.93c0.571,0.375,0.962,0.675,1.174,0.898c0.211,0.225,0.369,0.473,0.472,0.744
												S38.333,123.15,38.333,123.503z"/>
											<path style="fill:#E2A4C3;" d="M42.969,125.814c-0.91,0-1.609-0.387-2.099-1.159c-0.489-0.773-0.734-1.851-0.734-3.233
												c0-1.467,0.218-2.587,0.655-3.36c0.437-0.772,1.064-1.159,1.885-1.159c0.714,0,1.277,0.339,1.69,1.017
												c0.413,0.679,0.619,1.593,0.619,2.743v0.696h-4.079c0.01,1.251,0.188,2.188,0.532,2.81
												c0.344,0.623,0.865,0.935,1.563,0.935c0.54,0,1.108-0.177,1.706-0.53v0.728
												C44.157,125.644,43.578,125.814,42.969,125.814z M42.628,117.583c-1.037,0-1.605,1.031-1.706,3.095h3.309
												c0-0.944-0.144-1.696-0.433-2.256C43.51,117.862,43.12,117.583,42.628,117.583z"/>
											<path style="fill:#E2A4C3;" d="M51.009,123.503c0,0.724-0.19,1.289-0.571,1.698s-0.931,0.613-1.651,0.613
												c-0.392,0-0.735-0.05-1.031-0.15c-0.296-0.1-0.527-0.211-0.69-0.332v-0.879c0.195,0.195,0.455,0.353,0.777,0.471
												c0.323,0.119,0.653,0.179,0.992,0.179c0.444,0,0.793-0.146,1.047-0.436s0.381-0.678,0.381-1.164
												c0-0.38-0.091-0.7-0.274-0.961c-0.182-0.262-0.53-0.559-1.043-0.891c-0.587-0.369-0.988-0.665-1.202-0.887
												s-0.381-0.47-0.5-0.744c-0.119-0.274-0.178-0.602-0.178-0.981c0-0.617,0.209-1.128,0.627-1.531
												c0.417-0.403,0.949-0.605,1.595-0.605c0.693,0,1.272,0.163,1.738,0.49l-0.389,0.657c-0.434-0.29-0.894-0.436-1.381-0.436
												c-0.444,0-0.799,0.131-1.063,0.393c-0.264,0.261-0.396,0.605-0.396,1.032c0,0.38,0.09,0.698,0.27,0.954
												c0.18,0.256,0.561,0.565,1.143,0.93c0.571,0.375,0.962,0.675,1.174,0.898c0.211,0.225,0.369,0.473,0.472,0.744
												S51.009,123.15,51.009,123.503z"/>
											<path style="fill:#E2A4C3;" d="M56.583,123.503c0,0.724-0.19,1.289-0.571,1.698s-0.931,0.613-1.651,0.613
												c-0.392,0-0.735-0.05-1.031-0.15c-0.296-0.1-0.527-0.211-0.69-0.332v-0.879c0.195,0.195,0.455,0.353,0.777,0.471
												c0.323,0.119,0.653,0.179,0.992,0.179c0.444,0,0.793-0.146,1.047-0.436s0.381-0.678,0.381-1.164
												c0-0.38-0.091-0.7-0.274-0.961c-0.182-0.262-0.53-0.559-1.043-0.891c-0.587-0.369-0.988-0.665-1.202-0.887
												s-0.381-0.47-0.5-0.744c-0.119-0.274-0.178-0.602-0.178-0.981c0-0.617,0.209-1.128,0.627-1.531
												c0.417-0.403,0.949-0.605,1.595-0.605c0.693,0,1.272,0.163,1.738,0.49l-0.389,0.657c-0.434-0.29-0.894-0.436-1.381-0.436
												c-0.444,0-0.799,0.131-1.063,0.393c-0.264,0.261-0.396,0.605-0.396,1.032c0,0.38,0.09,0.698,0.27,0.954
												c0.18,0.256,0.561,0.565,1.143,0.93c0.571,0.375,0.962,0.675,1.174,0.898c0.211,0.225,0.369,0.473,0.472,0.744
												S56.583,123.15,56.583,123.503z"/>
											<path style="fill:#E2A4C3;" d="M65.053,125.814c-0.862,0-1.512-0.373-1.948-1.12c-0.437-0.746-0.655-1.843-0.655-3.288
												c0-1.467,0.221-2.585,0.663-3.353s1.094-1.151,1.956-1.151c0.535,0,0.979,0.098,1.333,0.293l-0.294,0.665
												c-0.354-0.164-0.68-0.246-0.976-0.246c-1.264,0-1.896,1.259-1.896,3.775c0,2.496,0.632,3.744,1.896,3.744
												c0.376,0,0.783-0.084,1.222-0.253v0.633c-0.174,0.095-0.389,0.169-0.643,0.222S65.238,125.814,65.053,125.814z"/>
											<path style="fill:#E2A4C3;" d="M69.167,125.656h-0.753v-12.315h0.753V125.656z"/>
											<path style="fill:#E2A4C3;" d="M71.846,114.686c0-0.237,0.049-0.422,0.147-0.554c0.098-0.132,0.223-0.197,0.377-0.197
												c0.143,0,0.256,0.065,0.341,0.197c0.085,0.132,0.127,0.316,0.127,0.554c0,0.228-0.042,0.408-0.127,0.543
												c-0.084,0.134-0.198,0.201-0.341,0.201c-0.154,0-0.279-0.067-0.377-0.201C71.895,115.094,71.846,114.913,71.846,114.686z
												 M72.71,125.656h-0.753v-8.588h0.753V125.656z"/>
											<path style="fill:#E2A4C3;" d="M77.943,125.814c-0.91,0-1.609-0.387-2.099-1.159c-0.489-0.773-0.734-1.851-0.734-3.233
												c0-1.467,0.218-2.587,0.655-3.36c0.437-0.772,1.064-1.159,1.885-1.159c0.714,0,1.277,0.339,1.69,1.017
												c0.413,0.679,0.619,1.593,0.619,2.743v0.696H75.88c0.01,1.251,0.188,2.188,0.532,2.81
												c0.344,0.623,0.865,0.935,1.563,0.935c0.54,0,1.108-0.177,1.706-0.53v0.728
												C79.131,125.644,78.552,125.814,77.943,125.814z M77.602,117.583c-1.037,0-1.605,1.031-1.706,3.095h3.309
												c0-0.944-0.144-1.696-0.433-2.256C78.484,117.862,78.094,117.583,77.602,117.583z"/>
											<path style="fill:#E2A4C3;" d="M86.491,125.656v-5.921c0-1.424-0.423-2.137-1.27-2.137c-0.646,0-1.118,0.267-1.417,0.8
												c-0.299,0.533-0.449,1.38-0.449,2.54v4.718h-0.753v-8.588h0.635l0.063,1.195h0.071c0.18-0.433,0.439-0.768,0.778-1.005
												c0.338-0.238,0.701-0.356,1.087-0.356c0.667,0,1.167,0.223,1.5,0.669c0.333,0.445,0.5,1.162,0.5,2.148v5.937H86.491z"/>
											<path style="fill:#E2A4C3;" d="M91.785,125.118c0.232,0,0.439-0.032,0.619-0.095v0.633
												c-0.233,0.105-0.532,0.158-0.896,0.158c-0.889,0-1.333-0.662-1.333-1.986v-6.095h-0.778v-0.443l0.762-0.222l0.246-2.042
												h0.523v2.042h1.365v0.665h-1.365v5.881c0,0.58,0.063,0.977,0.191,1.188C91.246,125.013,91.468,125.118,91.785,125.118z"
												/>
											<path style="fill:#E2A4C3;" d="M102.711,125.656v-5.921c0-1.424-0.423-2.137-1.27-2.137c-0.646,0-1.118,0.267-1.417,0.8
												c-0.299,0.533-0.449,1.38-0.449,2.54v4.718h-0.753v-8.588h0.635l0.063,1.195h0.071c0.18-0.433,0.439-0.768,0.778-1.005
												c0.338-0.238,0.701-0.356,1.087-0.356c0.667,0,1.167,0.223,1.5,0.669c0.333,0.445,0.5,1.162,0.5,2.148v5.937H102.711z"/>
											<path style="fill:#E2A4C3;" d="M108.869,125.814c-0.91,0-1.609-0.387-2.099-1.159c-0.489-0.773-0.733-1.851-0.733-3.233
												c0-1.467,0.218-2.587,0.654-3.36c0.437-0.772,1.064-1.159,1.885-1.159c0.714,0,1.277,0.339,1.689,1.017
												c0.414,0.679,0.619,1.593,0.619,2.743v0.696h-4.078c0.01,1.251,0.188,2.188,0.531,2.81
												c0.344,0.623,0.865,0.935,1.563,0.935c0.54,0,1.108-0.177,1.706-0.53v0.728
												C110.057,125.644,109.479,125.814,108.869,125.814z M108.528,117.583c-1.036,0-1.605,1.031-1.706,3.095h3.309
												c0-0.944-0.144-1.696-0.432-2.256C109.41,117.862,109.021,117.583,108.528,117.583z"/>
											<path style="fill:#E2A4C3;" d="M115.973,125.814c-0.91,0-1.609-0.387-2.099-1.159c-0.489-0.773-0.733-1.851-0.733-3.233
												c0-1.467,0.218-2.587,0.654-3.36c0.437-0.772,1.064-1.159,1.885-1.159c0.714,0,1.277,0.339,1.689,1.017
												c0.414,0.679,0.619,1.593,0.619,2.743v0.696h-4.078c0.01,1.251,0.188,2.188,0.531,2.81
												c0.344,0.623,0.865,0.935,1.563,0.935c0.54,0,1.108-0.177,1.706-0.53v0.728
												C117.16,125.644,116.582,125.814,115.973,125.814z M115.632,117.583c-1.036,0-1.605,1.031-1.706,3.095h3.309
												c0-0.944-0.144-1.696-0.432-2.256C116.514,117.862,116.124,117.583,115.632,117.583z"/>
											<path style="fill:#E2A4C3;" d="M122.735,125.814c-1.672,0-2.508-1.48-2.508-4.44c0-1.456,0.209-2.565,0.627-3.328
												s1.034-1.144,1.85-1.144c0.386,0,0.752,0.11,1.099,0.332s0.623,0.528,0.829,0.918h0.063l-0.031-0.957v-3.854h0.754
												v12.315h-0.619l-0.063-1.203h-0.071c-0.207,0.438-0.474,0.774-0.802,1.009
												C123.534,125.697,123.158,125.814,122.735,125.814z M122.783,125.157c0.603,0,1.067-0.278,1.393-0.835
												s0.488-1.376,0.488-2.457v-0.491c0-1.298-0.157-2.249-0.473-2.854c-0.314-0.604-0.795-0.906-1.44-0.906
												c-0.618,0-1.063,0.323-1.333,0.97c-0.27,0.646-0.404,1.582-0.404,2.806c0,1.235,0.14,2.172,0.42,2.811
												C121.715,124.839,122.164,125.157,122.783,125.157z"/>
											<path style="fill:#E2A4C3;" d="M131.62,123.503c0,0.724-0.19,1.289-0.571,1.698s-0.932,0.613-1.65,0.613
												c-0.392,0-0.735-0.05-1.032-0.15c-0.296-0.1-0.526-0.211-0.69-0.332v-0.879c0.196,0.195,0.455,0.353,0.778,0.471
												c0.322,0.119,0.653,0.179,0.991,0.179c0.444,0,0.794-0.146,1.048-0.436s0.381-0.678,0.381-1.164
												c0-0.38-0.091-0.7-0.273-0.961c-0.183-0.262-0.53-0.559-1.044-0.891c-0.587-0.369-0.988-0.665-1.202-0.887
												s-0.381-0.47-0.5-0.744s-0.179-0.602-0.179-0.981c0-0.617,0.209-1.128,0.627-1.531s0.95-0.605,1.596-0.605
												c0.692,0,1.271,0.163,1.737,0.49l-0.389,0.657c-0.434-0.29-0.895-0.436-1.381-0.436c-0.444,0-0.799,0.131-1.063,0.393
												c-0.265,0.261-0.396,0.605-0.396,1.032c0,0.38,0.09,0.698,0.27,0.954s0.561,0.565,1.143,0.93
												c0.571,0.375,0.963,0.675,1.175,0.898c0.212,0.225,0.369,0.473,0.472,0.744
												C131.568,122.837,131.62,123.15,131.62,123.503z"/>
											<path style="fill:#E2A4C3;" d="M141.208,125.656l-0.095-1.203h-0.032c-0.412,0.907-1.037,1.361-1.873,1.361
												c-0.561,0-1.012-0.223-1.353-0.669c-0.341-0.445-0.512-1.043-0.512-1.793c0-0.817,0.246-1.465,0.738-1.942
												c0.491-0.478,1.182-0.737,2.07-0.78l0.929-0.047v-0.713c0-0.802-0.101-1.386-0.302-1.753
												c-0.201-0.366-0.534-0.55-0.999-0.55c-0.492,0-0.995,0.161-1.508,0.482l-0.326-0.594
												c0.599-0.369,1.225-0.554,1.881-0.554c0.709,0,1.22,0.223,1.532,0.669c0.312,0.445,0.468,1.191,0.468,2.235v5.85H141.208
												z M139.375,125.174c0.54,0,0.959-0.266,1.258-0.796s0.448-1.281,0.448-2.252v-0.895l-0.896,0.048
												c-0.693,0.037-1.208,0.229-1.544,0.574s-0.504,0.851-0.504,1.516c0,0.622,0.111,1.079,0.334,1.369
												C138.692,125.028,138.994,125.174,139.375,125.174z"/>
											<path style="fill:#E2A4C3;" d="M148.359,125.656v-5.921c0-1.424-0.423-2.137-1.27-2.137c-0.646,0-1.118,0.267-1.417,0.8
												s-0.448,1.38-0.448,2.54v4.718h-0.754v-8.588h0.635l0.063,1.195h0.071c0.181-0.433,0.439-0.768,0.778-1.005
												c0.338-0.238,0.701-0.356,1.087-0.356c0.667,0,1.167,0.223,1.5,0.669c0.333,0.445,0.5,1.162,0.5,2.148v5.937H148.359z"/>
											<path style="fill:#E2A4C3;" d="M154.177,125.814c-1.672,0-2.508-1.48-2.508-4.44c0-1.456,0.209-2.565,0.627-3.328
												s1.034-1.144,1.849-1.144c0.387,0,0.753,0.11,1.1,0.332c0.346,0.222,0.622,0.528,0.829,0.918h0.063l-0.032-0.957v-3.854
												h0.754v12.315h-0.619l-0.063-1.203h-0.071c-0.206,0.438-0.474,0.774-0.801,1.009
												C154.976,125.697,154.6,125.814,154.177,125.814z M154.224,125.157c0.604,0,1.067-0.278,1.394-0.835
												c0.325-0.557,0.487-1.376,0.487-2.457v-0.491c0-1.298-0.157-2.249-0.472-2.854c-0.315-0.604-0.795-0.906-1.44-0.906
												c-0.619,0-1.063,0.323-1.333,0.97c-0.271,0.646-0.405,1.582-0.405,2.806c0,1.235,0.141,2.172,0.421,2.811
												S153.605,125.157,154.224,125.157z"/>
											<path style="fill:#E2A4C3;" d="M163.632,114.686c0-0.237,0.049-0.422,0.146-0.554s0.224-0.197,0.377-0.197
												c0.143,0,0.257,0.065,0.341,0.197c0.085,0.132,0.127,0.316,0.127,0.554c0,0.228-0.042,0.408-0.127,0.543
												c-0.084,0.134-0.198,0.201-0.341,0.201c-0.153,0-0.279-0.067-0.377-0.201
												C163.681,115.094,163.632,114.913,163.632,114.686z M164.496,125.656h-0.754v-8.588h0.754V125.656z"/>
											<path style="fill:#E2A4C3;" d="M171.174,125.656v-5.921c0-1.424-0.423-2.137-1.27-2.137c-0.646,0-1.118,0.267-1.417,0.8
												s-0.448,1.38-0.448,2.54v4.718h-0.754v-8.588h0.635l0.063,1.195h0.071c0.181-0.433,0.439-0.768,0.778-1.005
												c0.338-0.238,0.701-0.356,1.087-0.356c0.667,0,1.167,0.223,1.5,0.669c0.333,0.445,0.5,1.162,0.5,2.148v5.937H171.174z"/>
											<path style="fill:#E2A4C3;" d="M176.467,125.118c0.233,0,0.439-0.032,0.619-0.095v0.633
												c-0.232,0.105-0.531,0.158-0.896,0.158c-0.889,0-1.333-0.662-1.333-1.986v-6.095h-0.778v-0.443l0.763-0.222l0.245-2.042
												h0.524v2.042h1.364v0.665h-1.364v5.881c0,0.58,0.063,0.977,0.19,1.188S176.149,125.118,176.467,125.118z"/>
											<path style="fill:#E2A4C3;" d="M181.383,125.814c-0.91,0-1.609-0.387-2.099-1.159c-0.489-0.773-0.734-1.851-0.734-3.233
												c0-1.467,0.219-2.587,0.654-3.36c0.437-0.772,1.065-1.159,1.885-1.159c0.715,0,1.278,0.339,1.69,1.017
												c0.413,0.679,0.619,1.593,0.619,2.743v0.696h-4.079c0.011,1.251,0.188,2.188,0.532,2.81
												c0.344,0.623,0.864,0.935,1.563,0.935c0.539,0,1.107-0.177,1.706-0.53v0.728
												C182.57,125.644,181.991,125.814,181.383,125.814z M181.042,117.583c-1.037,0-1.606,1.031-1.706,3.095h3.309
												c0-0.944-0.145-1.696-0.433-2.256S181.533,117.583,181.042,117.583z"/>
											<path style="fill:#E2A4C3;" d="M188.431,116.902c0.27,0,0.521,0.037,0.754,0.11l-0.183,0.752
												c-0.19-0.079-0.386-0.118-0.587-0.118c-0.291,0-0.563,0.148-0.813,0.447c-0.251,0.298-0.448,0.714-0.591,1.246
												c-0.144,0.533-0.215,1.121-0.215,1.766v4.551h-0.754v-8.588h0.619l0.079,1.504h0.056
												C187.198,117.459,187.743,116.902,188.431,116.902z"/>
											<path style="fill:#E2A4C3;" d="M193.053,125.814c-0.91,0-1.609-0.387-2.099-1.159c-0.489-0.773-0.734-1.851-0.734-3.233
												c0-1.467,0.219-2.587,0.654-3.36c0.437-0.772,1.065-1.159,1.885-1.159c0.715,0,1.278,0.339,1.69,1.017
												c0.413,0.679,0.619,1.593,0.619,2.743v0.696h-4.079c0.011,1.251,0.188,2.188,0.532,2.81
												c0.344,0.623,0.864,0.935,1.563,0.935c0.539,0,1.107-0.177,1.706-0.53v0.728
												C194.24,125.644,193.661,125.814,193.053,125.814z M192.712,117.583c-1.037,0-1.606,1.031-1.706,3.095h3.309
												c0-0.944-0.145-1.696-0.433-2.256S193.203,117.583,192.712,117.583z"/>
											<path style="fill:#E2A4C3;" d="M201.093,123.503c0,0.724-0.19,1.289-0.571,1.698s-0.932,0.613-1.65,0.613
												c-0.392,0-0.735-0.05-1.032-0.15c-0.296-0.1-0.526-0.211-0.69-0.332v-0.879c0.196,0.195,0.455,0.353,0.778,0.471
												c0.322,0.119,0.653,0.179,0.991,0.179c0.444,0,0.794-0.146,1.048-0.436s0.381-0.678,0.381-1.164
												c0-0.38-0.091-0.7-0.273-0.961c-0.183-0.262-0.53-0.559-1.044-0.891c-0.587-0.369-0.988-0.665-1.202-0.887
												s-0.381-0.47-0.5-0.744s-0.179-0.602-0.179-0.981c0-0.617,0.209-1.128,0.627-1.531s0.95-0.605,1.596-0.605
												c0.692,0,1.271,0.163,1.737,0.49l-0.389,0.657c-0.434-0.29-0.895-0.436-1.381-0.436c-0.444,0-0.799,0.131-1.063,0.393
												c-0.265,0.261-0.396,0.605-0.396,1.032c0,0.38,0.09,0.698,0.27,0.954s0.561,0.565,1.143,0.93
												c0.571,0.375,0.963,0.675,1.175,0.898c0.212,0.225,0.369,0.473,0.472,0.744
												C201.041,122.837,201.093,123.15,201.093,123.503z"/>
											<path style="fill:#E2A4C3;" d="M204.864,125.118c0.233,0,0.439-0.032,0.619-0.095v0.633
												c-0.232,0.105-0.531,0.158-0.896,0.158c-0.889,0-1.333-0.662-1.333-1.986v-6.095h-0.778v-0.443l0.763-0.222l0.245-2.042
												h0.524v2.042h1.364v0.665h-1.364v5.881c0,0.58,0.063,0.977,0.19,1.188S204.547,125.118,204.864,125.118z"/>
										</g>
									</g>
									<g>
										<g>
											<g>
												<path style="fill:#E2A4C3;" d="M3.709,139.739c0-0.555,0.197-1.026,0.591-1.417s0.866-0.586,1.417-0.586
													c0.556,0,1.03,0.195,1.424,0.586s0.591,0.862,0.591,1.417c0,0.554-0.197,1.027-0.591,1.42
													c-0.394,0.394-0.869,0.59-1.424,0.59c-0.55,0-1.022-0.196-1.417-0.59C3.907,140.767,3.709,140.293,3.709,139.739z"/>
											</g>
										</g>
										<g>
											<g>
												<g>
													<path style="fill:#E2A4C3;" d="M22.396,145.422v-11.571h0.778v11.571H22.396z"/>
													<path style="fill:#E2A4C3;" d="M30.213,145.422v-5.921c0-1.424-0.423-2.137-1.27-2.137c-0.646,0-1.118,0.267-1.417,0.8
														c-0.299,0.533-0.449,1.38-0.449,2.54v4.718h-0.753v-8.588h0.635l0.063,1.195h0.071c0.18-0.433,0.439-0.768,0.778-1.005
														c0.338-0.238,0.701-0.356,1.087-0.356c0.667,0,1.167,0.223,1.5,0.669c0.333,0.445,0.5,1.162,0.5,2.148v5.937H30.213z"
														/>
													<path style="fill:#E2A4C3;" d="M36.125,137.499h-1.349v7.923h-0.746v-7.923h-1.095v-0.428l1.095-0.324v-0.649
														c0-1.092,0.129-1.878,0.389-2.358s0.709-0.721,1.349-0.721c0.37,0,0.706,0.066,1.008,0.198l-0.262,0.696
														c-0.281-0.132-0.535-0.197-0.762-0.197c-0.259,0-0.455,0.076-0.587,0.229s-0.23,0.4-0.293,0.744
														c-0.063,0.343-0.096,0.817-0.096,1.425v0.72h1.349V137.499z"/>
													<path style="fill:#E2A4C3;" d="M42.826,141.108c0,1.445-0.229,2.553-0.686,3.32c-0.458,0.768-1.112,1.151-1.964,1.151
														c-0.841,0-1.485-0.384-1.932-1.151c-0.447-0.768-0.67-1.875-0.67-3.32c0-2.96,0.878-4.44,2.634-4.44
														c0.826,0,1.468,0.388,1.929,1.163C42.596,138.607,42.826,139.699,42.826,141.108z M38.359,141.108
														c0,1.24,0.148,2.177,0.444,2.81c0.296,0.633,0.759,0.95,1.389,0.95c1.232,0,1.849-1.254,1.849-3.76
														c0-2.485-0.617-3.729-1.849-3.729c-0.646,0-1.112,0.312-1.401,0.935C38.503,138.937,38.359,139.868,38.359,141.108z"/>
													<path style="fill:#E2A4C3;" d="M47.469,136.668c0.27,0,0.521,0.037,0.754,0.11l-0.182,0.752
														c-0.191-0.079-0.386-0.118-0.587-0.118c-0.291,0-0.562,0.148-0.813,0.447c-0.251,0.298-0.448,0.714-0.591,1.246
														c-0.143,0.533-0.214,1.121-0.214,1.766v4.551h-0.753v-8.588h0.619l0.08,1.504h0.055
														C46.236,137.225,46.781,136.668,47.469,136.668z"/>
													<path style="fill:#E2A4C3;" d="M57.467,145.422v-5.85c0-1.44-0.423-2.16-1.27-2.16c-0.582,0-1.001,0.252-1.258,0.756
														c-0.257,0.504-0.385,1.246-0.385,2.228v5.026h-0.746v-5.85c0-0.728-0.104-1.27-0.31-1.626
														c-0.207-0.356-0.526-0.534-0.96-0.534c-0.571,0-0.986,0.259-1.246,0.775c-0.259,0.518-0.389,1.356-0.389,2.517v4.718
														H50.15v-8.588h0.635l0.063,1.195h0.071c0.344-0.907,0.928-1.361,1.754-1.361c0.476,0,0.852,0.127,1.126,0.38
														c0.275,0.253,0.474,0.623,0.595,1.108c0.207-0.528,0.46-0.908,0.762-1.14c0.301-0.232,0.693-0.349,1.174-0.349
														c0.65,0,1.127,0.249,1.428,0.748c0.302,0.498,0.453,1.297,0.453,2.395v5.611H57.467z"/>
													<path style="fill:#E2A4C3;" d="M67.58,137.499H66.23v7.923h-0.746v-7.923H64.39v-0.428l1.095-0.324v-0.649
														c0-1.092,0.129-1.878,0.389-2.358s0.709-0.721,1.349-0.721c0.37,0,0.706,0.066,1.008,0.198l-0.262,0.696
														c-0.281-0.132-0.535-0.197-0.762-0.197c-0.259,0-0.455,0.076-0.587,0.229s-0.23,0.4-0.293,0.744
														c-0.063,0.343-0.096,0.817-0.096,1.425v0.72h1.349V137.499z"/>
													<path style="fill:#E2A4C3;" d="M70.153,136.834v5.604c0,0.85,0.102,1.47,0.306,1.86s0.517,0.586,0.94,0.586
														c0.651,0,1.128-0.263,1.433-0.788c0.304-0.524,0.456-1.373,0.456-2.544v-4.718h0.746v8.588h-0.635l-0.096-1.203H73.24
														c-0.185,0.438-0.441,0.774-0.77,1.009c-0.328,0.235-0.685,0.353-1.071,0.353c-0.693,0-1.2-0.245-1.52-0.736
														c-0.32-0.49-0.48-1.292-0.48-2.406v-5.604H70.153z"/>
													<path style="fill:#E2A4C3;" d="M78.614,144.884c0.232,0,0.439-0.032,0.619-0.095v0.633
														c-0.233,0.105-0.532,0.158-0.896,0.158c-0.889,0-1.333-0.662-1.333-1.986v-6.095h-0.778v-0.443l0.762-0.222
														l0.246-2.042h0.523v2.042h1.365v0.665h-1.365v5.881c0,0.58,0.063,0.977,0.191,1.188
														C78.074,144.778,78.296,144.884,78.614,144.884z"/>
													<path style="fill:#E2A4C3;" d="M81.807,136.834v5.604c0,0.85,0.102,1.47,0.306,1.86s0.517,0.586,0.94,0.586
														c0.651,0,1.128-0.263,1.433-0.788c0.304-0.524,0.456-1.373,0.456-2.544v-4.718h0.746v8.588h-0.635l-0.096-1.203h-0.063
														c-0.185,0.438-0.441,0.774-0.77,1.009c-0.328,0.235-0.685,0.353-1.071,0.353c-0.693,0-1.2-0.245-1.52-0.736
														c-0.32-0.49-0.48-1.292-0.48-2.406v-5.604H81.807z"/>
													<path style="fill:#E2A4C3;" d="M91.076,136.668c0.27,0,0.521,0.037,0.754,0.11l-0.182,0.752
														c-0.191-0.079-0.386-0.118-0.587-0.118c-0.291,0-0.562,0.148-0.813,0.447c-0.251,0.298-0.448,0.714-0.591,1.246
														c-0.143,0.533-0.214,1.121-0.214,1.766v4.551h-0.753v-8.588h0.619l0.08,1.504h0.055
														C89.844,137.225,90.389,136.668,91.076,136.668z"/>
													<path style="fill:#E2A4C3;" d="M95.698,145.58c-0.91,0-1.609-0.387-2.099-1.159c-0.489-0.773-0.734-1.851-0.734-3.233
														c0-1.467,0.218-2.587,0.655-3.36c0.437-0.772,1.064-1.159,1.885-1.159c0.714,0,1.277,0.339,1.69,1.017
														c0.413,0.679,0.619,1.593,0.619,2.743v0.696h-4.079c0.01,1.251,0.188,2.188,0.532,2.81
														c0.344,0.623,0.865,0.935,1.563,0.935c0.54,0,1.108-0.177,1.706-0.53v0.728
														C96.885,145.409,96.306,145.58,95.698,145.58z M95.356,137.349c-1.037,0-1.605,1.031-1.706,3.095h3.309
														c0-0.944-0.144-1.696-0.433-2.256C96.239,137.628,95.849,137.349,95.356,137.349z"/>
													<path style="fill:#E2A4C3;" d="M104.309,134.451c0-0.237,0.049-0.422,0.147-0.554c0.098-0.132,0.223-0.197,0.377-0.197
														c0.143,0,0.256,0.065,0.341,0.197c0.085,0.132,0.127,0.316,0.127,0.554c0,0.228-0.042,0.408-0.127,0.543
														c-0.084,0.134-0.198,0.201-0.341,0.201c-0.154,0-0.279-0.067-0.377-0.201
														C104.358,134.859,104.309,134.679,104.309,134.451z M105.174,145.422h-0.753v-8.588h0.753V145.422z"/>
													<path style="fill:#E2A4C3;" d="M111.852,145.422v-5.921c0-1.424-0.424-2.137-1.27-2.137
														c-0.646,0-1.118,0.267-1.417,0.8c-0.3,0.533-0.448,1.38-0.448,2.54v4.718h-0.754v-8.588h0.635l0.063,1.195h0.071
														c0.18-0.433,0.439-0.768,0.777-1.005c0.339-0.238,0.701-0.356,1.088-0.356c0.666,0,1.166,0.223,1.5,0.669
														c0.332,0.445,0.5,1.162,0.5,2.148v5.937H111.852z"/>
													<path style="fill:#E2A4C3;" d="M116.525,145.422l-2.031-8.588h0.762l1.286,5.524c0.147,0.639,0.29,1.335,0.429,2.09
														h0.063c0.037-0.274,0.09-0.58,0.159-0.918s0.59-2.569,1.563-6.696h0.762l-2.096,8.588H116.525z"/>
													<path style="fill:#E2A4C3;" d="M123.582,145.58c-0.91,0-1.61-0.387-2.1-1.159c-0.489-0.773-0.733-1.851-0.733-3.233
														c0-1.467,0.218-2.587,0.654-3.36c0.437-0.772,1.064-1.159,1.885-1.159c0.714,0,1.277,0.339,1.69,1.017
														c0.412,0.679,0.619,1.593,0.619,2.743v0.696h-4.079c0.011,1.251,0.188,2.188,0.531,2.81
														c0.344,0.623,0.865,0.935,1.563,0.935c0.54,0,1.108-0.177,1.706-0.53v0.728
														C124.77,145.409,124.189,145.58,123.582,145.58z M123.24,137.349c-1.037,0-1.605,1.031-1.706,3.095h3.31
														c0-0.944-0.145-1.696-0.433-2.256C124.122,137.628,123.732,137.349,123.24,137.349z"/>
													<path style="fill:#E2A4C3;" d="M131.622,143.269c0,0.724-0.19,1.289-0.571,1.698s-0.932,0.613-1.65,0.613
														c-0.392,0-0.735-0.05-1.032-0.15c-0.296-0.1-0.526-0.211-0.69-0.332v-0.879c0.196,0.195,0.455,0.353,0.778,0.471
														c0.322,0.119,0.653,0.179,0.991,0.179c0.444,0,0.794-0.146,1.048-0.436s0.381-0.678,0.381-1.164
														c0-0.38-0.091-0.7-0.273-0.961c-0.183-0.262-0.53-0.559-1.044-0.891c-0.587-0.369-0.988-0.665-1.202-0.887
														s-0.381-0.47-0.5-0.744s-0.179-0.602-0.179-0.981c0-0.617,0.209-1.128,0.627-1.531s0.95-0.605,1.596-0.605
														c0.692,0,1.271,0.163,1.737,0.49l-0.389,0.657c-0.434-0.29-0.895-0.436-1.381-0.436c-0.444,0-0.799,0.131-1.063,0.393
														c-0.265,0.261-0.396,0.605-0.396,1.032c0,0.38,0.09,0.698,0.27,0.954s0.561,0.565,1.143,0.93
														c0.571,0.375,0.963,0.675,1.175,0.898c0.212,0.225,0.369,0.473,0.472,0.744
														C131.57,142.603,131.622,142.916,131.622,143.269z"/>
													<path style="fill:#E2A4C3;" d="M135.394,144.884c0.233,0,0.439-0.032,0.619-0.095v0.633
														c-0.232,0.105-0.531,0.158-0.896,0.158c-0.889,0-1.333-0.662-1.333-1.986v-6.095h-0.778v-0.443l0.763-0.222
														l0.245-2.042h0.524v2.042h1.364v0.665h-1.364v5.881c0,0.58,0.063,0.977,0.19,1.188S135.076,144.884,135.394,144.884z"
														/>
													<path style="fill:#E2A4C3;" d="M145.182,145.422v-5.85c0-1.44-0.423-2.16-1.27-2.16c-0.582,0-1.001,0.252-1.258,0.756
														s-0.385,1.246-0.385,2.228v5.026h-0.746v-5.85c0-0.728-0.103-1.27-0.31-1.626c-0.206-0.356-0.526-0.534-0.96-0.534
														c-0.571,0-0.986,0.259-1.246,0.775c-0.259,0.518-0.389,1.356-0.389,2.517v4.718h-0.754v-8.588h0.635l0.063,1.195h0.071
														c0.345-0.907,0.929-1.361,1.754-1.361c0.477,0,0.852,0.127,1.127,0.38s0.474,0.623,0.596,1.108
														c0.206-0.528,0.46-0.908,0.762-1.14c0.302-0.232,0.692-0.349,1.174-0.349c0.651,0,1.127,0.249,1.429,0.748
														c0.302,0.498,0.452,1.297,0.452,2.395v5.611H145.182z"/>
													<path style="fill:#E2A4C3;" d="M150.975,145.58c-0.91,0-1.609-0.387-2.099-1.159c-0.489-0.773-0.734-1.851-0.734-3.233
														c0-1.467,0.219-2.587,0.654-3.36c0.437-0.772,1.065-1.159,1.885-1.159c0.715,0,1.278,0.339,1.69,1.017
														c0.413,0.679,0.619,1.593,0.619,2.743v0.696h-4.079c0.011,1.251,0.188,2.188,0.532,2.81
														c0.344,0.623,0.864,0.935,1.563,0.935c0.539,0,1.107-0.177,1.706-0.53v0.728
														C152.162,145.409,151.583,145.58,150.975,145.58z M150.634,137.349c-1.037,0-1.606,1.031-1.706,3.095h3.309
														c0-0.944-0.145-1.696-0.433-2.256S151.125,137.349,150.634,137.349z"/>
													<path style="fill:#E2A4C3;" d="M159.522,145.422v-5.921c0-1.424-0.423-2.137-1.27-2.137
														c-0.646,0-1.118,0.267-1.417,0.8s-0.448,1.38-0.448,2.54v4.718h-0.754v-8.588h0.635l0.063,1.195h0.071
														c0.181-0.433,0.439-0.768,0.778-1.005c0.338-0.238,0.701-0.356,1.087-0.356c0.667,0,1.167,0.223,1.5,0.669
														c0.333,0.445,0.5,1.162,0.5,2.148v5.937H159.522z"/>
													<path style="fill:#E2A4C3;" d="M164.815,144.884c0.233,0,0.439-0.032,0.619-0.095v0.633
														c-0.232,0.105-0.531,0.158-0.896,0.158c-0.889,0-1.333-0.662-1.333-1.986v-6.095h-0.778v-0.443l0.763-0.222
														l0.245-2.042h0.524v2.042h1.364v0.665h-1.364v5.881c0,0.58,0.063,0.977,0.19,1.188S164.498,144.884,164.815,144.884z"
														/>
													<path style="fill:#E2A4C3;" d="M172.247,134.451c0-0.237,0.049-0.422,0.146-0.554s0.224-0.197,0.377-0.197
														c0.143,0,0.257,0.065,0.341,0.197c0.085,0.132,0.127,0.316,0.127,0.554c0,0.228-0.042,0.408-0.127,0.543
														c-0.084,0.134-0.198,0.201-0.341,0.201c-0.153,0-0.279-0.067-0.377-0.201
														C172.296,134.859,172.247,134.679,172.247,134.451z M173.111,145.422h-0.754v-8.588h0.754V145.422z"/>
													<path style="fill:#E2A4C3;" d="M179.788,145.422v-5.921c0-1.424-0.423-2.137-1.27-2.137
														c-0.646,0-1.118,0.267-1.417,0.8s-0.448,1.38-0.448,2.54v4.718h-0.754v-8.588h0.635l0.063,1.195h0.071
														c0.181-0.433,0.439-0.768,0.778-1.005c0.338-0.238,0.701-0.356,1.087-0.356c0.667,0,1.167,0.223,1.5,0.669
														c0.333,0.445,0.5,1.162,0.5,2.148v5.937H179.788z"/>
												</g>
											</g>
											<g>
												<g>
													<g>
														<path style="fill:#E2A4C3;" d="M23.856,164.142c0.232,0,0.439-0.032,0.619-0.095v0.633
															c-0.233,0.105-0.532,0.158-0.896,0.158c-0.889,0-1.333-0.662-1.333-1.986v-6.095h-0.778v-0.443l0.762-0.222
															l0.246-2.042h0.523v2.042h1.365v0.665h-1.365v5.881c0,0.58,0.063,0.977,0.191,1.188
															C23.316,164.036,23.539,164.142,23.856,164.142z"/>
														<path style="fill:#E2A4C3;" d="M28.771,164.838c-0.91,0-1.609-0.387-2.099-1.159
															c-0.489-0.773-0.734-1.851-0.734-3.233c0-1.467,0.218-2.587,0.655-3.36c0.437-0.772,1.064-1.159,1.885-1.159
															c0.714,0,1.277,0.339,1.69,1.017c0.413,0.679,0.619,1.593,0.619,2.743v0.696h-4.079
															c0.01,1.251,0.188,2.188,0.532,2.81c0.344,0.623,0.865,0.935,1.563,0.935c0.54,0,1.108-0.177,1.706-0.53v0.728
															C29.959,164.667,29.38,164.838,28.771,164.838z M28.43,156.606c-1.037,0-1.605,1.031-1.706,3.095h3.309
															c0-0.944-0.144-1.696-0.433-2.256C29.313,156.886,28.922,156.606,28.43,156.606z"/>
														<path style="fill:#E2A4C3;" d="M35.645,164.838c-0.862,0-1.512-0.373-1.948-1.12
															c-0.437-0.746-0.655-1.843-0.655-3.288c0-1.467,0.221-2.585,0.663-3.353s1.094-1.151,1.956-1.151
															c0.535,0,0.979,0.098,1.333,0.293l-0.294,0.665c-0.354-0.164-0.68-0.246-0.976-0.246
															c-1.264,0-1.896,1.259-1.896,3.775c0,2.496,0.632,3.744,1.896,3.744c0.376,0,0.783-0.084,1.222-0.253v0.633
															c-0.174,0.095-0.389,0.169-0.643,0.222S35.83,164.838,35.645,164.838z"/>
														<path style="fill:#E2A4C3;" d="M42.895,164.68v-5.921c0-0.775-0.102-1.325-0.306-1.649
															c-0.204-0.325-0.536-0.487-0.996-0.487c-0.608,0-1.066,0.27-1.373,0.808s-0.46,1.388-0.46,2.549v4.701h-0.753v-12.315
															h0.753v3.997c0,0.363-0.01,0.667-0.032,0.91h0.063c0.169-0.428,0.425-0.759,0.766-0.993
															c0.341-0.235,0.697-0.353,1.067-0.353c0.73,0,1.249,0.237,1.555,0.712c0.307,0.476,0.46,1.183,0.46,2.121v5.921
															H42.895z"/>
														<path style="fill:#E2A4C3;" d="M50.497,164.68v-5.921c0-1.424-0.423-2.137-1.27-2.137c-0.646,0-1.118,0.267-1.417,0.8
															c-0.299,0.533-0.449,1.38-0.449,2.54v4.718h-0.753v-8.588h0.635l0.063,1.195h0.071
															c0.18-0.433,0.439-0.768,0.778-1.005c0.338-0.238,0.701-0.356,1.087-0.356c0.667,0,1.167,0.223,1.5,0.669
															c0.333,0.445,0.5,1.162,0.5,2.148v5.937H50.497z"/>
														<path style="fill:#E2A4C3;" d="M59.06,160.366c0,1.445-0.229,2.553-0.686,3.32c-0.458,0.768-1.112,1.151-1.964,1.151
															c-0.841,0-1.485-0.384-1.932-1.151c-0.447-0.768-0.67-1.875-0.67-3.32c0-2.96,0.878-4.44,2.634-4.44
															c0.826,0,1.468,0.388,1.929,1.163C58.83,157.865,59.06,158.957,59.06,160.366z M54.593,160.366
															c0,1.24,0.148,2.177,0.444,2.81c0.296,0.633,0.759,0.95,1.389,0.95c1.232,0,1.849-1.254,1.849-3.76
															c0-2.485-0.617-3.729-1.849-3.729c-0.646,0-1.112,0.312-1.401,0.935C54.737,158.194,54.593,159.126,54.593,160.366z"
															/>
														<path style="fill:#E2A4C3;" d="M62.068,164.68h-0.753v-12.315h0.753V164.68z"/>
														<path style="fill:#E2A4C3;" d="M69.706,160.366c0,1.445-0.229,2.553-0.686,3.32c-0.458,0.768-1.112,1.151-1.964,1.151
															c-0.841,0-1.485-0.384-1.932-1.151c-0.447-0.768-0.67-1.875-0.67-3.32c0-2.96,0.878-4.44,2.634-4.44
															c0.826,0,1.468,0.388,1.929,1.163C69.476,157.865,69.706,158.957,69.706,160.366z M65.238,160.366
															c0,1.24,0.148,2.177,0.444,2.81c0.296,0.633,0.759,0.95,1.389,0.95c1.232,0,1.849-1.254,1.849-3.76
															c0-2.485-0.617-3.729-1.849-3.729c-0.646,0-1.112,0.312-1.401,0.935C65.382,158.194,65.238,159.126,65.238,160.366z"
															/>
														<path style="fill:#E2A4C3;" d="M76.467,156.092v0.53l-1.175,0.135c0.159,0.206,0.289,0.5,0.389,0.883
															c0.1,0.382,0.15,0.774,0.15,1.175c0,0.834-0.189,1.51-0.567,2.026c-0.378,0.518-0.876,0.775-1.496,0.775h-0.19
															l-0.167-0.016c-0.254,0.18-0.454,0.359-0.599,0.538c-0.146,0.18-0.218,0.388-0.218,0.626
															c0,0.242,0.095,0.431,0.286,0.565s0.447,0.202,0.77,0.202h0.54c0.767,0,1.362,0.197,1.786,0.594
															c0.423,0.396,0.635,0.968,0.635,1.717c0,0.84-0.284,1.504-0.853,1.995c-0.569,0.49-1.319,0.736-2.25,0.736
															c-0.778,0-1.376-0.197-1.793-0.59c-0.418-0.394-0.627-0.959-0.627-1.698c0-0.538,0.137-0.998,0.413-1.381
															c0.275-0.383,0.706-0.685,1.293-0.906c-0.265-0.116-0.478-0.277-0.639-0.482c-0.162-0.206-0.242-0.451-0.242-0.736
															c0-0.259,0.086-0.489,0.258-0.692s0.417-0.421,0.734-0.653c-0.439-0.2-0.771-0.525-0.996-0.974
															c-0.225-0.448-0.337-0.977-0.337-1.583c0-0.913,0.193-1.633,0.58-2.161c0.386-0.527,0.915-0.791,1.587-0.791
															c0.36,0,0.661,0.056,0.905,0.166H76.467z M71.833,166.223c0,0.544,0.141,0.969,0.424,1.274
															c0.283,0.307,0.71,0.459,1.282,0.459c0.708,0,1.271-0.185,1.686-0.554c0.416-0.369,0.623-0.876,0.623-1.52
															c0-0.518-0.142-0.917-0.424-1.199c-0.283-0.282-0.695-0.424-1.234-0.424h-0.555c-0.519,0-0.948,0.182-1.29,0.543
															S71.833,165.638,71.833,166.223z M72.301,158.894c0,0.702,0.13,1.233,0.389,1.595
															c0.259,0.362,0.603,0.543,1.031,0.543c0.921,0,1.381-0.739,1.381-2.217c0-0.712-0.118-1.269-0.353-1.67
															s-0.578-0.602-1.028-0.602c-0.46,0-0.812,0.206-1.055,0.617C72.422,157.572,72.301,158.149,72.301,158.894z"/>
														<path style="fill:#E2A4C3;" d="M79.634,164.664l-2.15-8.572h0.762l1.301,5.358c0.153,0.644,0.302,1.369,0.444,2.177
															h0.063c0.101-0.702,0.241-1.433,0.421-2.192l1.27-5.343h0.762l-2.516,10.211c-0.185,0.754-0.427,1.321-0.726,1.701
															s-0.697,0.57-1.194,0.57c-0.201,0-0.428-0.045-0.683-0.135v-0.681c0.212,0.073,0.418,0.11,0.619,0.11
															c0.317,0,0.569-0.136,0.754-0.407s0.349-0.708,0.492-1.31L79.634,164.664z"/>
														<path style="fill:#E2A4C3;" d="M92.53,164.68l-0.095-1.203h-0.032c-0.413,0.907-1.037,1.361-1.873,1.361
															c-0.561,0-1.012-0.223-1.353-0.669c-0.341-0.445-0.512-1.043-0.512-1.793c0-0.817,0.246-1.465,0.738-1.942
															s1.183-0.737,2.071-0.78l0.928-0.047v-0.713c0-0.802-0.101-1.386-0.301-1.753c-0.201-0.366-0.535-0.55-1-0.55
															c-0.492,0-0.995,0.161-1.508,0.482l-0.325-0.594c0.598-0.369,1.225-0.554,1.881-0.554
															c0.708,0,1.219,0.223,1.531,0.669c0.312,0.445,0.468,1.191,0.468,2.235v5.85H92.53z M90.697,164.197
															c0.54,0,0.959-0.266,1.258-0.796s0.448-1.281,0.448-2.252v-0.895l-0.896,0.048c-0.693,0.037-1.208,0.229-1.543,0.574
															s-0.504,0.851-0.504,1.516c0,0.622,0.111,1.079,0.333,1.369S90.316,164.197,90.697,164.197z"/>
														<path style="fill:#E2A4C3;" d="M99.681,164.68v-5.921c0-1.424-0.423-2.137-1.27-2.137c-0.646,0-1.118,0.267-1.417,0.8
															c-0.299,0.533-0.449,1.38-0.449,2.54v4.718h-0.753v-8.588h0.635l0.063,1.195h0.071
															c0.18-0.433,0.439-0.768,0.778-1.005c0.338-0.238,0.701-0.356,1.087-0.356c0.667,0,1.167,0.223,1.5,0.669
															c0.333,0.445,0.5,1.162,0.5,2.148v5.937H99.681z"/>
														<path style="fill:#E2A4C3;" d="M105.498,164.838c-1.672,0-2.507-1.48-2.507-4.44c0-1.456,0.209-2.565,0.627-3.328
															c0.417-0.763,1.034-1.144,1.849-1.144c0.386,0,0.752,0.11,1.099,0.332s0.623,0.528,0.829,0.918h0.064l-0.032-0.957
															v-3.854h0.753v12.315h-0.618l-0.063-1.203h-0.071c-0.206,0.438-0.474,0.774-0.802,1.009
															C106.297,164.721,105.921,164.838,105.498,164.838z M105.546,164.181c0.603,0,1.067-0.278,1.393-0.835
															s0.488-1.376,0.488-2.457v-0.491c0-1.298-0.157-2.249-0.472-2.854c-0.315-0.604-0.795-0.906-1.441-0.906
															c-0.619,0-1.063,0.323-1.333,0.97c-0.27,0.646-0.404,1.582-0.404,2.806c0,1.235,0.14,2.172,0.42,2.811
															S104.927,164.181,105.546,164.181z"/>
														<path style="fill:#E2A4C3;" d="M118.953,164.68v-5.921c0-1.424-0.424-2.137-1.27-2.137
															c-0.646,0-1.117,0.267-1.416,0.8c-0.3,0.533-0.449,1.38-0.449,2.54v4.718h-0.754v-8.588h0.635l0.064,1.195h0.07
															c0.18-0.433,0.439-0.768,0.778-1.005c0.339-0.238,0.7-0.356,1.087-0.356c0.666,0,1.166,0.223,1.5,0.669
															c0.333,0.445,0.5,1.162,0.5,2.148v5.937H118.953z"/>
														<path style="fill:#E2A4C3;" d="M125.111,164.838c-0.91,0-1.609-0.387-2.099-1.159
															c-0.489-0.773-0.734-1.851-0.734-3.233c0-1.467,0.219-2.587,0.654-3.36c0.437-0.772,1.065-1.159,1.885-1.159
															c0.715,0,1.278,0.339,1.69,1.017c0.413,0.679,0.619,1.593,0.619,2.743v0.696h-4.079
															c0.011,1.251,0.188,2.188,0.532,2.81c0.344,0.623,0.864,0.935,1.563,0.935c0.539,0,1.107-0.177,1.706-0.53v0.728
															C126.299,164.667,125.72,164.838,125.111,164.838z M124.771,156.606c-1.037,0-1.606,1.031-1.706,3.095h3.309
															c0-0.944-0.145-1.696-0.433-2.256S125.262,156.606,124.771,156.606z"/>
														<path style="fill:#E2A4C3;" d="M134.052,164.68l-1.19-5.817c-0.011-0.042-0.02-0.087-0.027-0.135
															s-0.092-0.554-0.25-1.52h-0.016l-0.111,0.673l-0.183,0.981l-1.23,5.817h-0.896l-1.872-8.588h0.753l1.071,5.002
															l0.5,2.612h0.048c0.096-0.755,0.249-1.631,0.46-2.628l1.072-4.986h0.793l1.079,5.002
															c0.085,0.375,0.235,1.246,0.452,2.612h0.048c0.016-0.174,0.094-0.612,0.234-1.313c0.14-0.702,0.588-2.803,1.345-6.301
															h0.746l-1.937,8.588H134.052z"/>
														<path style="fill:#E2A4C3;" d="M146.854,164.68v-5.921c0-0.775-0.102-1.325-0.306-1.649
															c-0.203-0.325-0.535-0.487-0.996-0.487c-0.608,0-1.065,0.27-1.372,0.808c-0.308,0.538-0.461,1.388-0.461,2.549v4.701
															h-0.754v-12.315h0.754v3.997c0,0.363-0.011,0.667-0.031,0.91h0.063c0.169-0.428,0.424-0.759,0.766-0.993
															c0.341-0.235,0.697-0.353,1.067-0.353c0.729,0,1.248,0.237,1.556,0.712c0.307,0.476,0.46,1.183,0.46,2.121v5.921
															H146.854z"/>
														<path style="fill:#E2A4C3;" d="M150.457,153.709c0-0.237,0.049-0.422,0.146-0.554s0.224-0.197,0.377-0.197
															c0.143,0,0.257,0.065,0.341,0.197c0.085,0.132,0.127,0.316,0.127,0.554c0,0.228-0.042,0.408-0.127,0.543
															c-0.084,0.134-0.198,0.201-0.341,0.201c-0.153,0-0.279-0.067-0.377-0.201
															C150.506,154.117,150.457,153.937,150.457,153.709z M151.321,164.68h-0.754v-8.588h0.754V164.68z"/>
														<path style="fill:#E2A4C3;" d="M156.499,155.926c0.27,0,0.521,0.037,0.754,0.11l-0.183,0.752
															c-0.19-0.079-0.386-0.118-0.587-0.118c-0.291,0-0.563,0.148-0.813,0.447c-0.251,0.298-0.448,0.714-0.591,1.246
															c-0.144,0.533-0.215,1.121-0.215,1.766v4.551h-0.754v-8.588h0.619l0.079,1.504h0.056
															C155.267,156.482,155.812,155.926,156.499,155.926z"/>
														<path style="fill:#E2A4C3;" d="M161.12,164.838c-0.91,0-1.609-0.387-2.099-1.159
															c-0.489-0.773-0.734-1.851-0.734-3.233c0-1.467,0.219-2.587,0.654-3.36c0.437-0.772,1.065-1.159,1.885-1.159
															c0.715,0,1.278,0.339,1.69,1.017c0.413,0.679,0.619,1.593,0.619,2.743v0.696h-4.079
															c0.011,1.251,0.188,2.188,0.532,2.81c0.344,0.623,0.864,0.935,1.563,0.935c0.539,0,1.107-0.177,1.706-0.53v0.728
															C162.308,164.667,161.729,164.838,161.12,164.838z M160.779,156.606c-1.037,0-1.606,1.031-1.706,3.095h3.309
															c0-0.944-0.145-1.696-0.433-2.256S161.271,156.606,160.779,156.606z"/>
														<path style="fill:#E2A4C3;" d="M169.16,162.526c0,0.724-0.19,1.289-0.571,1.698s-0.932,0.613-1.65,0.613
															c-0.392,0-0.735-0.05-1.032-0.15c-0.296-0.1-0.526-0.211-0.69-0.332v-0.879c0.196,0.195,0.455,0.353,0.778,0.471
															c0.322,0.119,0.653,0.179,0.991,0.179c0.444,0,0.794-0.146,1.048-0.436s0.381-0.678,0.381-1.164
															c0-0.38-0.091-0.7-0.273-0.961c-0.183-0.262-0.53-0.559-1.044-0.891c-0.587-0.369-0.988-0.665-1.202-0.887
															s-0.381-0.47-0.5-0.744s-0.179-0.602-0.179-0.981c0-0.617,0.209-1.128,0.627-1.531s0.95-0.605,1.596-0.605
															c0.692,0,1.271,0.163,1.737,0.49l-0.389,0.657c-0.434-0.29-0.895-0.436-1.381-0.436c-0.444,0-0.799,0.131-1.063,0.393
															c-0.265,0.261-0.396,0.605-0.396,1.032c0,0.38,0.09,0.698,0.27,0.954s0.561,0.565,1.143,0.93
															c0.571,0.375,0.963,0.675,1.175,0.898c0.212,0.225,0.369,0.473,0.472,0.744
															C169.108,161.86,169.16,162.174,169.16,162.526z"/>
													</g>
												</g>
											</g>
										</g>
									</g>
								</g>
							</g>
						</g>
					</g>
				</g>
			</g>
		</g>
	</g>
</g>
</svg>
