<?xml version="1.0" encoding="iso-8859-1"?>
<!-- Generator: Adobe Illustrator 16.0.0, SVG Export Plug-In . SVG Version: 6.00 Build 0)  -->
<!DOCTYPE svg PUBLIC "-//W3C//DTD SVG 1.1//EN" "http://www.w3.org/Graphics/SVG/1.1/DTD/svg11.dtd">
<svg version="1.1" id="Layer_1" xmlns="http://www.w3.org/2000/svg" xmlns:xlink="http://www.w3.org/1999/xlink" x="0px" y="0px"
	 width="109px" height="22px" viewBox="0 0 109 22" style="enable-background:new 0 0 109 22;" xml:space="preserve">
<g>
	<g>
		<g>
			<g>
				<path style="fill:#FFFFFF;" d="M4.593,16.549l1.834-8.667C6.498,7.598,6.533,7.3,6.533,6.988c0-0.801-0.355-1.202-1.066-1.202
					c-0.746,0-1.372,0.358-1.876,1.074C3.085,7.576,2.677,8.693,2.364,10.21L1.01,16.549H0.007L3.516,0h1.013L3.473,4.829
					L3.036,6.615h0.043C3.74,5.396,4.6,4.786,5.659,4.786c0.597,0,1.059,0.172,1.386,0.516c0.327,0.344,0.49,0.839,0.49,1.484
					c0,0.397-0.05,0.826-0.149,1.287l-1.792,8.476H4.593z"/>
				<path style="fill:#FFFFFF;" d="M10.985,16.762c-0.761,0-1.344-0.283-1.749-0.85c-0.405-0.568-0.608-1.373-0.608-2.416
					c0-1.006,0.128-2.088,0.384-3.243c0.256-1.156,0.59-2.136,1.002-2.941c0.412-0.805,0.896-1.427,1.45-1.867
					c0.554-0.439,1.173-0.659,1.855-0.659c0.753,0,1.342,0.292,1.765,0.877s0.634,1.409,0.634,2.473
					c0,0.986-0.129,2.044-0.389,3.174c-0.259,1.131-0.599,2.104-1.018,2.914c-0.419,0.813-0.91,1.438-1.472,1.879
					C12.279,16.543,11.661,16.762,10.985,16.762z M9.674,13.699c0,1.432,0.48,2.148,1.439,2.148c0.633,0,1.216-0.359,1.749-1.08
					c0.533-0.719,0.968-1.734,1.306-3.047c0.337-1.312,0.506-2.578,0.506-3.797c0-1.454-0.494-2.181-1.482-2.181
					c-0.597,0-1.157,0.348-1.68,1.042s-0.959,1.709-1.312,3.042C9.85,11.16,9.674,12.451,9.674,13.699z"/>
				<path style="fill:#FFFFFF;" d="M19.714,5.009l-1.728,8.03c-0.128,0.553-0.192,1.031-0.192,1.436
					c0,0.873,0.334,1.309,1.002,1.309c1.486,0,2.542-1.479,3.167-4.434l1.354-6.34h1.002l-2.463,11.54h-0.789l0.085-1.436h-0.042
					c-0.718,1.1-1.567,1.648-2.548,1.648c-1.166,0-1.749-0.701-1.749-2.105c0-0.561,0.071-1.148,0.213-1.766l1.685-7.881H19.714z"/>
				<path style="fill:#FFFFFF;" d="M30.331,4.786c0.277,0,0.537,0.042,0.778,0.127l-0.277,1.032c-0.213-0.106-0.448-0.16-0.704-0.16
					c-0.604,0-1.166,0.415-1.685,1.245c-0.519,0.83-0.932,1.964-1.237,3.403l-1.312,6.115h-1.002l2.442-11.54h0.747L27.771,7.03
					h0.042C28.439,5.534,29.278,4.786,30.331,4.786z"/>
				<path style="fill:#FFFFFF;" d="M32.137,16.762c-0.398,0-0.814-0.049-1.248-0.148s-0.729-0.209-0.885-0.33v-1.17
					c0.171,0.17,0.457,0.328,0.858,0.473c0.402,0.146,0.805,0.219,1.21,0.219c0.689,0,1.226-0.199,1.61-0.602
					c0.384-0.4,0.576-0.969,0.576-1.707c0-0.311-0.039-0.596-0.117-0.855c-0.079-0.258-0.18-0.498-0.304-0.717
					c-0.125-0.221-0.4-0.564-0.826-1.033c-0.462-0.503-0.775-0.884-0.938-1.144c-0.164-0.259-0.292-0.537-0.384-0.835
					c-0.093-0.297-0.139-0.642-0.139-1.031c0-0.922,0.284-1.668,0.853-2.239c0.569-0.57,1.304-0.856,2.208-0.856
					c0.966,0,1.745,0.22,2.335,0.659L36.402,6.36c-0.504-0.411-1.116-0.617-1.834-0.617c-0.583,0-1.064,0.183-1.445,0.548
					s-0.57,0.853-0.57,1.462c0,0.418,0.076,0.798,0.229,1.138s0.443,0.745,0.869,1.212c0.512,0.553,0.858,0.972,1.04,1.255
					c0.182,0.283,0.325,0.592,0.432,0.926c0.106,0.332,0.16,0.701,0.16,1.105c0,1.078-0.271,1.908-0.815,2.494
					C33.923,16.469,33.146,16.762,32.137,16.762z"/>
				<path style="fill:#FFFFFF;" d="M45.917,4.786c1.429,0,2.143,1.003,2.143,3.01c0,1.489-0.224,2.958-0.671,4.409
					c-0.448,1.449-1.024,2.572-1.728,3.365c-0.704,0.795-1.475,1.191-2.314,1.191c-0.483,0-0.892-0.145-1.227-0.436
					c-0.334-0.291-0.543-0.682-0.629-1.17h-0.064l-1.333,6.402h-1.013L42.6,5.009h0.875l-0.267,1.649h0.053
					C44.072,5.41,44.957,4.786,45.917,4.786z M45.725,5.68c-0.668,0-1.283,0.371-1.845,1.111c-0.562,0.741-1.024,1.783-1.386,3.127
					c-0.363,1.344-0.544,2.66-0.544,3.951c0,1.318,0.48,1.979,1.439,1.979c0.625,0,1.207-0.367,1.744-1.102
					c0.537-0.734,0.984-1.795,1.343-3.186c0.359-1.389,0.539-2.697,0.539-3.924c0-0.646-0.094-1.133-0.282-1.462
					C46.544,5.844,46.208,5.68,45.725,5.68z"/>
				<path style="fill:#FFFFFF;" d="M51.975,16.762c-0.853,0-1.518-0.295-1.994-0.889c-0.477-0.592-0.714-1.42-0.714-2.482
					c0-1.518,0.215-2.941,0.645-4.271s1.013-2.384,1.749-3.164c0.735-0.78,1.509-1.17,2.319-1.17c0.618,0,1.096,0.179,1.434,0.537
					s0.506,0.899,0.506,1.622c0,0.872-0.211,1.634-0.635,2.287c-0.422,0.652-1.027,1.138-1.812,1.457
					c-0.786,0.319-1.722,0.479-2.81,0.479h-0.128c-0.149,0.701-0.224,1.406-0.224,2.115c0,1.709,0.654,2.564,1.962,2.564
					c0.334,0,0.649-0.047,0.944-0.139s0.631-0.248,1.008-0.469v1.021C53.627,16.596,52.878,16.762,51.975,16.762z M53.809,5.722
					c-0.633,0-1.233,0.418-1.802,1.255c-0.569,0.837-1.017,1.943-1.343,3.318c2.836,0,4.255-1.124,4.255-3.372
					c0-0.375-0.08-0.67-0.24-0.883C54.518,5.829,54.228,5.722,53.809,5.722z"/>
				<path style="fill:#FFFFFF;" d="M61.826,4.786c0.277,0,0.537,0.042,0.777,0.127l-0.277,1.032c-0.213-0.106-0.447-0.16-0.703-0.16
					c-0.604,0-1.166,0.415-1.686,1.245c-0.518,0.83-0.93,1.964-1.236,3.403l-1.311,6.115h-1.004l2.443-11.54h0.746L59.266,7.03
					h0.043C59.936,5.534,60.773,4.786,61.826,4.786z"/>
				<path style="fill:#FFFFFF;" d="M70.793,4.786c1.43,0,2.145,1.003,2.145,3.01c0,1.489-0.225,2.958-0.672,4.409
					c-0.447,1.449-1.023,2.572-1.729,3.365c-0.703,0.795-1.475,1.191-2.313,1.191c-0.484,0-0.893-0.145-1.227-0.436
					s-0.545-0.682-0.629-1.17h-0.064l-1.332,6.402h-1.014l3.52-16.549h0.873l-0.266,1.649h0.053
					C68.949,5.41,69.834,4.786,70.793,4.786z M70.602,5.68c-0.668,0-1.283,0.371-1.844,1.111c-0.563,0.741-1.023,1.783-1.387,3.127
					s-0.545,2.66-0.545,3.951c0,1.318,0.48,1.979,1.441,1.979c0.625,0,1.205-0.367,1.742-1.102s0.984-1.795,1.344-3.186
					c0.359-1.389,0.539-2.697,0.539-3.924c0-0.646-0.094-1.133-0.283-1.462C71.422,5.844,71.086,5.68,70.602,5.68z"/>
				<path style="fill:#FFFFFF;" d="M79.08,4.786c0.277,0,0.537,0.042,0.779,0.127l-0.277,1.032c-0.213-0.106-0.447-0.16-0.703-0.16
					c-0.605,0-1.166,0.415-1.686,1.245s-0.932,1.964-1.236,3.403l-1.313,6.115h-1.002l2.441-11.54h0.746L76.521,7.03h0.043
					C77.189,5.534,78.029,4.786,79.08,4.786z"/>
				<path style="fill:#FFFFFF;" d="M81.592,16.762c-0.762,0-1.344-0.283-1.75-0.85c-0.404-0.568-0.607-1.373-0.607-2.416
					c0-1.006,0.127-2.088,0.383-3.243c0.258-1.156,0.592-2.136,1.004-2.941s0.895-1.427,1.449-1.867
					c0.555-0.439,1.174-0.659,1.855-0.659c0.754,0,1.342,0.292,1.766,0.877c0.422,0.585,0.635,1.409,0.635,2.473
					c0,0.986-0.131,2.044-0.391,3.174c-0.26,1.131-0.598,2.104-1.018,2.914c-0.42,0.813-0.91,1.438-1.471,1.879
					C82.885,16.543,82.266,16.762,81.592,16.762z M80.279,13.699c0,1.432,0.48,2.148,1.439,2.148c0.633,0,1.215-0.359,1.748-1.08
					c0.533-0.719,0.969-1.734,1.307-3.047c0.338-1.312,0.508-2.578,0.508-3.797c0-1.454-0.494-2.181-1.482-2.181
					c-0.598,0-1.158,0.348-1.68,1.042c-0.523,0.695-0.961,1.709-1.313,3.042C80.455,11.16,80.279,12.451,80.279,13.699z"/>
				<path style="fill:#FFFFFF;" d="M89.297,5.009h1.002L87.59,17.676c-0.242,1.135-0.473,1.979-0.693,2.533
					c-0.221,0.553-0.48,0.953-0.783,1.201s-0.721,0.371-1.254,0.371c-0.361,0-0.674-0.039-0.938-0.115v-0.979
					c0.264,0.084,0.563,0.127,0.896,0.127s0.594-0.094,0.777-0.281c0.186-0.189,0.354-0.502,0.508-0.941
					c0.152-0.439,0.32-1.1,0.506-1.979L89.297,5.009z M89.797,2.127c0-0.361,0.082-0.673,0.246-0.936s0.373-0.394,0.629-0.394
					c0.334,0,0.502,0.206,0.502,0.617c0,0.404-0.08,0.737-0.236,1c-0.156,0.262-0.361,0.393-0.617,0.393
					C89.971,2.808,89.797,2.581,89.797,2.127z"/>
				<path style="fill:#FFFFFF;" d="M93.645,16.762c-0.854,0-1.518-0.295-1.994-0.889c-0.477-0.592-0.715-1.42-0.715-2.482
					c0-1.518,0.215-2.941,0.645-4.271s1.014-2.384,1.75-3.164c0.734-0.78,1.508-1.17,2.318-1.17c0.619,0,1.098,0.179,1.434,0.537
					c0.338,0.358,0.508,0.899,0.508,1.622c0,0.872-0.213,1.634-0.635,2.287c-0.424,0.652-1.027,1.138-1.813,1.457
					s-1.723,0.479-2.811,0.479h-0.127c-0.15,0.701-0.225,1.406-0.225,2.115c0,1.709,0.654,2.564,1.963,2.564
					c0.334,0,0.648-0.047,0.943-0.139s0.631-0.248,1.008-0.469v1.021C95.297,16.596,94.547,16.762,93.645,16.762z M95.479,5.722
					c-0.633,0-1.234,0.418-1.803,1.255c-0.568,0.837-1.016,1.943-1.344,3.318c2.836,0,4.256-1.124,4.256-3.372
					c0-0.375-0.08-0.67-0.24-0.883C96.188,5.829,95.896,5.722,95.479,5.722z"/>
				<path style="fill:#FFFFFF;" d="M101.105,16.762c-0.824,0-1.455-0.283-1.893-0.85c-0.438-0.568-0.656-1.387-0.656-2.457
					c0-1.539,0.225-3.005,0.672-4.399c0.449-1.393,1.027-2.453,1.738-3.18c0.711-0.727,1.508-1.09,2.389-1.09
					c0.611,0,1.123,0.117,1.535,0.351l-0.414,0.915c-0.377-0.206-0.779-0.309-1.205-0.309c-0.654,0-1.254,0.344-1.797,1.032
					c-0.545,0.688-0.992,1.67-1.344,2.946s-0.529,2.527-0.529,3.753c0,1.582,0.57,2.373,1.707,2.373
					c0.447,0,0.957-0.143,1.525-0.426v0.914C102.301,16.619,101.725,16.762,101.105,16.762z"/>
				<path style="fill:#FFFFFF;" d="M106.881,15.699v0.85c-0.398,0.143-0.771,0.213-1.119,0.213c-0.904,0-1.355-0.535-1.355-1.605
					c0-0.27,0.047-0.625,0.139-1.064l1.738-8.189h-1.045l0.129-0.596l1.098-0.298l0.854-2.744h0.736l-0.588,2.744h1.525
					l-0.191,0.894h-1.525l-1.686,7.902c-0.1,0.455-0.148,0.83-0.148,1.129c0,0.318,0.059,0.547,0.176,0.686s0.305,0.207,0.561,0.207
					C106.396,15.826,106.633,15.783,106.881,15.699z"/>
			</g>
		</g>
	</g>
</g>
</svg>
