<?xml version="1.0" encoding="iso-8859-1"?>
<!-- Generator: Adobe Illustrator 16.0.0, SVG Export Plug-In . SVG Version: 6.00 Build 0)  -->
<!DOCTYPE svg PUBLIC "-//W3C//DTD SVG 1.1//EN" "http://www.w3.org/Graphics/SVG/1.1/DTD/svg11.dtd">
<svg version="1.1" id="Layer_1" xmlns="http://www.w3.org/2000/svg" xmlns:xlink="http://www.w3.org/1999/xlink" x="0px" y="0px"
	 width="124px" height="111px" viewBox="0 0 124 111" style="enable-background:new 0 0 124 111;" xml:space="preserve">
<g>
	<g>
		<path style="fill:#7D9F3E;" d="M121.994,109.513H1.629V2.121h120.365V109.513z M2.136,109.005h119.351V2.628H2.136V109.005z"/>
		<g>
			<polygon style="fill-rule:evenodd;clip-rule:evenodd;fill:#546A30;" points="1.629,2.628 70.699,2.628 1.629,72.026 1.629,2.628 
							"/>
			<g>
				<g>
					<g>
						<path style="fill:#FFFFFF;" d="M52.844,77.197l-0.768-3.146h-2.113l-0.756,3.146h-0.606l2.095-8.679h0.602l2.143,8.679H52.844
							z M51.939,73.463l-0.768-3.234c-0.08-0.364-0.141-0.709-0.185-1.033c-0.036,0.344-0.091,0.688-0.167,1.033l-0.744,3.234
							H51.939z"/>
						<path style="fill:#FFFFFF;" d="M56.111,77.316c-1.254,0-1.881-1.11-1.881-3.331c0-1.092,0.156-1.924,0.471-2.496
							c0.313-0.571,0.775-0.857,1.387-0.857c0.289,0,0.564,0.083,0.824,0.249s0.467,0.396,0.621,0.688h0.048l-0.024-0.718V67.96
							h0.566v9.237h-0.465l-0.047-0.902h-0.055c-0.154,0.328-0.354,0.581-0.601,0.757S56.428,77.316,56.111,77.316z M56.146,76.823
							c0.453,0,0.801-0.209,1.045-0.626c0.244-0.418,0.365-1.032,0.365-1.844v-0.368c0-0.974-0.117-1.687-0.354-2.14
							s-0.596-0.68-1.08-0.68c-0.465,0-0.797,0.242-1,0.728c-0.202,0.484-0.304,1.186-0.304,2.104c0,0.926,0.105,1.628,0.315,2.107
							C55.346,76.584,55.683,76.823,56.146,76.823z"/>
						<path style="fill:#FFFFFF;" d="M65.104,77.197v-4.387c0-1.081-0.317-1.621-0.952-1.621c-0.437,0-0.751,0.189-0.943,0.567
							s-0.289,0.935-0.289,1.671v3.77h-0.56v-4.387c0-0.546-0.077-0.953-0.231-1.22c-0.155-0.268-0.396-0.401-0.721-0.401
							c-0.429,0-0.74,0.194-0.935,0.582s-0.291,1.018-0.291,1.888v3.538h-0.565v-6.44h0.476l0.048,0.896h0.054
							c0.258-0.681,0.696-1.021,1.315-1.021c0.356,0,0.639,0.095,0.845,0.285c0.206,0.189,0.355,0.467,0.446,0.831
							c0.155-0.396,0.346-0.681,0.571-0.855c0.227-0.174,0.521-0.261,0.881-0.261c0.488,0,0.846,0.187,1.071,0.561
							c0.227,0.374,0.34,0.973,0.34,1.796v4.209H65.104z"/>
						<path style="fill:#FFFFFF;" d="M67.154,68.97c0-0.178,0.037-0.316,0.11-0.416c0.073-0.099,0.168-0.148,0.283-0.148
							c0.106,0,0.192,0.05,0.256,0.148c0.063,0.1,0.095,0.238,0.095,0.416c0,0.17-0.031,0.306-0.095,0.406
							c-0.063,0.102-0.149,0.151-0.256,0.151c-0.115,0-0.21-0.05-0.283-0.151C67.191,69.275,67.154,69.14,67.154,68.97z
							 M67.804,77.197h-0.565v-6.44h0.565V77.197z"/>
						<path style="fill:#FFFFFF;" d="M72.689,77.197v-4.44c0-1.068-0.317-1.603-0.952-1.603c-0.484,0-0.838,0.2-1.063,0.6
							s-0.336,1.035-0.336,1.905v3.538h-0.565v-6.44h0.476l0.048,0.896h0.054c0.135-0.324,0.329-0.575,0.583-0.754
							c0.254-0.178,0.525-0.267,0.815-0.267c0.5,0,0.875,0.167,1.125,0.502c0.25,0.334,0.375,0.871,0.375,1.611v4.452H72.689z"/>
					</g>
				</g>
				<g>
					<path style="fill:#FFFFFF;" d="M14.13,22.786c0.402-0.414,0.659-0.868,0.769-1.361c0.11-0.494,0.092-0.98-0.055-1.459
						c-0.146-0.479-0.406-0.905-0.775-1.277l-0.012-0.011c-0.374-0.367-0.8-0.623-1.277-0.767s-0.962-0.161-1.452-0.048
						c-0.491,0.112-0.942,0.37-1.354,0.773c-0.402,0.414-0.658,0.868-0.77,1.361c-0.109,0.494-0.092,0.98,0.056,1.459
						c0.147,0.479,0.405,0.905,0.774,1.277l0.012,0.011c0.375,0.367,0.801,0.623,1.277,0.767c0.479,0.145,0.963,0.161,1.453,0.048
						S13.717,23.189,14.13,22.786L14.13,22.786z M13.871,22.506c-0.338,0.33-0.715,0.543-1.135,0.64
						c-0.418,0.096-0.838,0.083-1.256-0.042c-0.42-0.124-0.799-0.351-1.139-0.682l-0.011-0.011
						c-0.333-0.336-0.563-0.711-0.689-1.125S9.5,20.458,9.594,20.043c0.096-0.415,0.308-0.791,0.637-1.128
						c0.338-0.33,0.716-0.543,1.135-0.64c0.419-0.096,0.838-0.083,1.258,0.042c0.418,0.124,0.798,0.351,1.137,0.682l0.012,0.011
						c0.333,0.336,0.563,0.711,0.689,1.125c0.126,0.414,0.142,0.828,0.047,1.243S14.201,22.168,13.871,22.506L13.871,22.506z
						 M19.793,17.11c0.262-0.27,0.42-0.547,0.477-0.833s0.045-0.564-0.036-0.836l0.546,0.542l0.281-0.281l-2.938-2.915l-0.279,0.281
						l1.698,1.686c0.304,0.315,0.458,0.663,0.46,1.041c0.004,0.379-0.139,0.718-0.427,1.018c-0.301,0.293-0.621,0.432-0.96,0.415
						c-0.34-0.017-0.663-0.177-0.971-0.479l-1.746-1.733l-0.279,0.281l1.797,1.784c0.359,0.353,0.752,0.537,1.175,0.554
						S19.414,17.477,19.793,17.11L19.793,17.11z M23.629,13.13l0.28-0.281l-1.204-1.195c-0.316-0.32-0.525-0.646-0.627-0.979
						c-0.103-0.332-0.114-0.649-0.035-0.952c0.079-0.302,0.232-0.568,0.461-0.797l0.028-0.029l-0.31-0.308
						c-0.3,0.288-0.48,0.625-0.545,1.014c-0.063,0.388-0.02,0.774,0.129,1.158l-0.834-0.828l-0.28,0.281L23.629,13.13L23.629,13.13z
						"/>
					<g>
						<path style="fill:#FFFFFF;" d="M13.937,37.203l1.564-1.568c0.42-0.428,0.701-0.89,0.843-1.384
							c0.143-0.494,0.152-0.981,0.029-1.46c-0.124-0.479-0.375-0.91-0.755-1.292l-0.012-0.012c-0.385-0.376-0.817-0.624-1.296-0.744
							c-0.479-0.119-0.966-0.106-1.459,0.041c-0.494,0.146-0.954,0.43-1.381,0.851l-1.564,1.567L13.937,37.203L13.937,37.203z
							 M12.271,32.427c0.372-0.361,0.778-0.542,1.216-0.541c0.438,0.001,0.842,0.18,1.209,0.535l0.012,0.012
							c0.357,0.365,0.537,0.765,0.536,1.198c0,0.434-0.181,0.837-0.542,1.209l-0.682,0.684l-2.432-2.414L12.271,32.427
							L12.271,32.427z M22.045,29.215c0.412-0.422,0.686-0.885,0.82-1.391c0.133-0.505,0.135-1.005,0.004-1.5
							c-0.131-0.494-0.387-0.935-0.771-1.322l-0.011-0.012c-0.391-0.38-0.832-0.634-1.324-0.763
							c-0.492-0.128-0.988-0.124-1.491,0.012s-0.964,0.411-1.385,0.823c-0.411,0.422-0.685,0.885-0.819,1.391
							c-0.134,0.506-0.136,1.005-0.005,1.5c0.131,0.494,0.388,0.935,0.771,1.322l0.012,0.012c0.391,0.38,0.831,0.634,1.323,0.763
							c0.492,0.128,0.989,0.124,1.492-0.012S21.625,29.628,22.045,29.215L22.045,29.215z M21.24,28.393
							c-0.242,0.236-0.511,0.389-0.807,0.458s-0.59,0.061-0.884-0.025s-0.558-0.244-0.793-0.474l-0.012-0.012
							c-0.349-0.358-0.532-0.764-0.552-1.217c-0.019-0.454,0.148-0.866,0.5-1.237c0.242-0.236,0.511-0.389,0.807-0.458
							c0.295-0.069,0.59-0.061,0.884,0.025c0.294,0.086,0.558,0.244,0.793,0.474l0.011,0.011c0.35,0.358,0.533,0.764,0.553,1.217
							C21.759,27.609,21.592,28.021,21.24,28.393L21.24,28.393z M27.207,23.962l0.769-0.77l-1.731-3.526l3.543,1.711l0.768-0.77
							l-2.689-5.403l-0.922,0.925l1.897,3.542L25.2,17.853l-0.757,0.758l1.842,3.623l-3.561-1.877l-0.946,0.948L27.207,23.962
							L27.207,23.962z M34.001,17.098l0.87-0.873l-2.563-2.544l4.507,0.596l0.751-0.751l-4.031-4.002l-0.871,0.873l2.482,2.464
							l-4.363-0.579l-0.813,0.815L34.001,17.098L34.001,17.098z"/>
						<g>
							<path style="fill:#FFFFFF;" d="M24.576,40.184l0.883-0.884l-3.214-3.191l1.221-1.223l-0.817-0.812l-3.324,3.331l0.817,0.811
								l1.222-1.223L24.576,40.184L24.576,40.184z M28.698,36.054l0.882-0.884l-4.03-4.002l-0.882,0.884L28.698,36.054
								L28.698,36.054z M31.883,32.863l0.865-0.867l-2.615-2.595l2.823,0.571l0.022-0.023l-0.592-2.841l2.632,2.613l0.876-0.878
								l-4.03-4.001l-0.951,0.953l0.649,2.75l-2.76-0.635l-0.951,0.953L31.883,32.863L31.883,32.863z M38.332,26.4l3.055-3.061
								l-0.789-0.783L38.42,24.74l-0.848-0.841l1.893-1.896l-0.789-0.783l-1.892,1.896l-0.818-0.813l2.149-2.154l-0.788-0.783
								l-3.026,3.033L38.332,26.4L38.332,26.4z"/>
						</g>
					</g>
				</g>
			</g>
		</g>
	</g>
</g>
</svg>
