<?xml version="1.0" encoding="iso-8859-1"?>
<!-- Generator: Adobe Illustrator 16.0.0, SVG Export Plug-In . SVG Version: 6.00 Build 0)  -->
<!DOCTYPE svg PUBLIC "-//W3C//DTD SVG 1.1//EN" "http://www.w3.org/Graphics/SVG/1.1/DTD/svg11.dtd">
<svg version="1.1" id="Layer_1" xmlns="http://www.w3.org/2000/svg" xmlns:xlink="http://www.w3.org/1999/xlink" x="0px" y="0px"
	 width="232px" height="256px" viewBox="0 0 232 256" style="enable-background:new 0 0 232 256;" xml:space="preserve">
<g>
	<g>
		<g>
			<g>
				<path style="fill:#546A30;" d="M40.184,0.829h1.643v2.946h3.029V0.829h1.643v7.445h-1.643V5.285h-3.029v2.989h-1.643V0.829z"/>
				<path style="fill:#546A30;" d="M50.007,4.572V4.551c0-2.117,1.674-3.85,3.978-3.85c2.304,0,3.957,1.712,3.957,3.829v0.021
					c0,2.116-1.674,3.85-3.978,3.85S50.007,6.689,50.007,4.572z M56.225,4.572V4.551c0-1.276-0.939-2.34-2.261-2.34
					c-1.323,0-2.24,1.042-2.24,2.318v0.021c0,1.276,0.938,2.339,2.261,2.339C55.308,6.891,56.225,5.849,56.225,4.572z"/>
				<path style="fill:#546A30;" d="M60.426,0.829h1.76l1.546,5.041l1.674-5.062h1.408L68.49,5.87l1.547-5.041h1.717l-2.549,7.498
					h-1.429L66.09,3.456l-1.685,4.871h-1.429L60.426,0.829z"/>
				<path style="fill:#546A30;" d="M80.221,0.829h1.76l1.546,5.041l1.674-5.062h1.408l1.674,5.062l1.547-5.041h1.717L89,8.327H87.57
					l-1.686-4.871L84.2,8.327h-1.429L80.221,0.829z"/>
				<path style="fill:#546A30;" d="M95.014,0.829h5.631v1.457h-4v1.51h3.52v1.457h-3.52v1.563h4.053v1.457h-5.685V0.829z"/>
				<path style="fill:#546A30;" d="M108.719,7.188l0.971-1.159c0.672,0.553,1.376,0.904,2.229,0.904
					c0.672,0,1.077-0.266,1.077-0.702V6.21c0-0.415-0.256-0.627-1.504-0.946c-1.504-0.383-2.475-0.798-2.475-2.276V2.966
					c0-1.351,1.088-2.244,2.613-2.244c1.088,0,2.016,0.34,2.773,0.947l-0.853,1.233c-0.662-0.457-1.312-0.733-1.941-0.733
					s-0.96,0.287-0.96,0.648v0.021c0,0.489,0.32,0.648,1.61,0.979c1.515,0.394,2.368,0.936,2.368,2.233v0.021
					c0,1.479-1.131,2.308-2.741,2.308C110.756,8.38,109.615,7.986,108.719,7.188z"/>
				<path style="fill:#546A30;" d="M117.859,0.829h3.051c1.781,0,2.858,1.053,2.858,2.574v0.021c0,1.723-1.344,2.616-3.019,2.616
					h-1.248v2.233h-1.643V0.829z M120.803,4.583c0.822,0,1.302-0.489,1.302-1.127V3.435c0-0.734-0.513-1.127-1.333-1.127h-1.27
					v2.276H120.803z"/>
				<path style="fill:#546A30;" d="M126.999,0.829h5.632v1.457h-4v1.51h3.521v1.457h-3.521v1.563h4.054v1.457h-5.686V0.829z"/>
				<path style="fill:#546A30;" d="M136.139,0.829h1.515l3.499,4.584V0.829h1.621v7.445h-1.397l-3.615-4.733v4.733h-1.622V0.829z"/>
				<path style="fill:#546A30;" d="M146.805,0.829h2.912c2.347,0,3.968,1.606,3.968,3.701v0.021c0,2.095-1.621,3.722-3.968,3.722
					h-2.912V0.829z M148.447,2.307v4.488h1.27c1.344,0,2.251-0.904,2.251-2.223V4.551c0-1.319-0.907-2.244-2.251-2.244H148.447z"/>
				<path style="fill:#546A30;" d="M163.229,4.572V4.551c0-2.117,1.675-3.85,3.979-3.85s3.957,1.712,3.957,3.829v0.021
					c0,2.116-1.675,3.85-3.979,3.85S163.229,6.689,163.229,4.572z M169.447,4.572V4.551c0-1.276-0.938-2.34-2.261-2.34
					s-2.24,1.042-2.24,2.318v0.021c0,1.276,0.938,2.339,2.262,2.339C168.53,6.891,169.447,5.849,169.447,4.572z"/>
				<path style="fill:#546A30;" d="M174.608,5.083V0.829h1.643V5.04c0,1.213,0.608,1.84,1.61,1.84c1.003,0,1.611-0.606,1.611-1.787
					V0.829h1.643V5.03c0,2.254-1.27,3.361-3.274,3.361C175.835,8.391,174.608,7.274,174.608,5.083z"/>
				<path style="fill:#546A30;" d="M184.88,0.829h3.413c0.949,0,1.686,0.266,2.177,0.755c0.415,0.415,0.64,1,0.64,1.702v0.021
					c0,1.202-0.65,1.957-1.6,2.308l1.823,2.659h-1.92l-1.6-2.382h-1.291v2.382h-1.643V0.829z M188.187,4.445
					c0.8,0,1.259-0.425,1.259-1.053V3.371c0-0.702-0.49-1.063-1.291-1.063h-1.632v2.138H188.187z"/>
				<path style="fill:#546A30;" d="M201.838,2.339h-2.272v-1.51h6.187v1.51h-2.271v5.935h-1.643V2.339z"/>
				<path style="fill:#546A30;" d="M209.314,0.829h1.643v7.445h-1.643V0.829z"/>
				<path style="fill:#546A30;" d="M214.816,0.829h1.771l1.963,3.148l1.963-3.148h1.771v7.445h-1.632v-4.86l-2.102,3.18h-0.043
					l-2.079-3.148v4.829h-1.611V0.829z"/>
				<path style="fill:#546A30;" d="M225.983,0.829h5.632v1.457h-4v1.51h3.521v1.457h-3.521v1.563h4.054v1.457h-5.686V0.829z"/>
			</g>
		</g>
		<g>
			<g>
				<g>
					<path style="fill:#546A30;" d="M4.068,192.896v-2.58h0.54v2.58H4.068z"/>
				</g>
			</g>
			<g>
				<g>
					<g>
						<path style="fill:#546A30;" d="M6.142,171.437h1.061v0.472h-7.04v-0.472h3.221c-0.646-0.424-1.215-1.05-1.215-2.021
							c0-1.185,0.955-2.389,2.556-2.389h0.02c1.601,0,2.575,1.204,2.575,2.389C7.318,170.396,6.759,171.032,6.142,171.437z
							 M4.762,167.537H4.743c-1.292,0-2.122,0.896-2.122,1.926c0,1.021,0.858,2.003,2.112,2.003h0.02
							c1.263,0,2.112-0.982,2.112-2.003C6.865,168.394,6.083,167.537,4.762,167.537z"/>
						<path style="fill:#546A30;" d="M0.355,163.294v-0.587h0.646v0.587H0.355z M2.284,163.236v-0.472h4.918v0.472H2.284z"/>
						<path style="fill:#546A30;" d="M0.162,158.685v-0.472h7.04v0.472H0.162z"/>
						<path style="fill:#546A30;" d="M0.162,154.132v-0.472h7.04v0.472H0.162z"/>
						<path style="fill:#546A30;" d="M5.775,150.051H5.756c-1.022,0-1.601-0.876-1.601-2.146c0-0.684,0.087-1.156,0.212-1.628H4.155
							c-0.993,0-1.504,0.606-1.504,1.618c0,0.597,0.164,1.088,0.396,1.54l-0.415,0.174c-0.25-0.539-0.424-1.069-0.424-1.743
							c0-0.664,0.183-1.193,0.54-1.55c0.328-0.327,0.781-0.501,1.389-0.501h3.066v0.462h-0.82c0.473,0.337,0.936,0.944,0.936,1.878
							C7.318,149.069,6.797,150.051,5.775,150.051z M5.36,146.267h-0.56c-0.106,0.414-0.222,0.963-0.222,1.666
							c0,1.04,0.463,1.617,1.147,1.617h0.02c0.713,0,1.128-0.674,1.128-1.425C6.874,147.124,6.257,146.267,5.36,146.267z"/>
						<path style="fill:#546A30;" d="M6.142,141.581h1.061v0.472h-7.04v-0.472h3.221c-0.646-0.424-1.215-1.05-1.215-2.021
							c0-1.185,0.955-2.389,2.556-2.389h0.02c1.601,0,2.575,1.204,2.575,2.389C7.318,140.541,6.759,141.177,6.142,141.581z
							 M4.762,137.682H4.743c-1.292,0-2.122,0.896-2.122,1.926c0,1.021,0.858,2.003,2.112,2.003h0.02
							c1.263,0,2.112-0.982,2.112-2.003C6.865,138.538,6.083,137.682,4.762,137.682z"/>
						<path style="fill:#546A30;" d="M0.162,133.381v-0.472h7.04v0.472H0.162z"/>
						<path style="fill:#546A30;" d="M4.753,129.233h-0.02c-1.427,0-2.565-1.001-2.565-2.33c0-1.376,1.119-2.252,2.575-2.252
							c0.087,0,0.116,0,0.193,0.01v4.072c1.225-0.086,1.938-0.962,1.938-1.925c0-0.761-0.337-1.28-0.771-1.685l0.29-0.327
							c0.54,0.5,0.926,1.088,0.926,2.031C7.318,128.116,6.286,129.233,4.753,129.233z M4.512,125.161
							c-0.993,0.067-1.91,0.636-1.91,1.762c0,0.973,0.82,1.724,1.91,1.81V125.161z"/>
						<path style="fill:#546A30;" d="M2.284,118.695v-0.53l4.32-1.482l-4.34-1.483v-0.375l4.34-1.483l-4.32-1.483v-0.51l4.957,1.801
							v0.404l-4.214,1.463l4.214,1.473v0.404L2.284,118.695z"/>
						<path style="fill:#546A30;" d="M4.762,108.483H4.743c-1.379,0-2.575-1.068-2.575-2.532c0-1.454,1.177-2.513,2.556-2.513h0.02
							c1.379,0,2.575,1.068,2.575,2.532C7.318,107.424,6.142,108.483,4.762,108.483z M4.762,103.948H4.743
							c-1.187,0-2.131,0.886-2.131,2.022c0,1.165,0.955,2.002,2.112,2.002h0.02c1.186,0,2.131-0.886,2.131-2.022
							C6.874,104.786,5.919,103.948,4.762,103.948z"/>
						<path style="fill:#546A30;" d="M2.284,100.042V99.57h1.398c-0.877-0.385-1.514-1.204-1.475-2.176h0.521v0.048
							c0,1.136,0.858,2.128,2.459,2.128h2.016v0.472H2.284z"/>
						<path style="fill:#546A30;" d="M0.162,93.969v-0.472h5.275l-3.153-3.042v-0.626l2.179,2.147l2.739-2.214v0.597l-2.401,1.945
							l1.206,1.194h1.196v0.472H0.162z"/>
						<path style="fill:#546A30;" d="M4.039,70.35v2.089H3.576V70.35H1.503v-0.481h2.073v-2.089h0.463v2.089h2.073v0.481H4.039z"/>
					</g>
				</g>
				<g>
					<g>
						<g>
							<path style="fill:#546A30;" d="M40.275,251.262h2.585v0.539h-2.585V251.262z"/>
						</g>
					</g>
					<g>
						<g>
							<g>
								<path style="fill:#546A30;" d="M60.913,252.966v-0.02c0-1.021,0.877-1.599,2.151-1.599c0.685,0,1.157,0.087,1.629,0.212
									v-0.212c0-0.991-0.607-1.502-1.62-1.502c-0.598,0-1.089,0.164-1.543,0.396l-0.173-0.414c0.54-0.251,1.07-0.424,1.745-0.424
									c0.666,0,1.196,0.183,1.553,0.539c0.328,0.327,0.501,0.78,0.501,1.387v3.062h-0.463v-0.818
									c-0.337,0.472-0.945,0.934-1.88,0.934C61.896,254.506,60.913,253.986,60.913,252.966z M64.703,252.552v-0.559
									c-0.415-0.105-0.964-0.222-1.668-0.222c-1.042,0-1.62,0.463-1.62,1.146v0.019c0,0.713,0.675,1.127,1.427,1.127
									C63.844,254.063,64.703,253.447,64.703,252.552z"/>
								<path style="fill:#546A30;" d="M68.613,251.955v-0.02c0-1.599,1.206-2.571,2.392-2.571c0.984,0,1.62,0.559,2.025,1.175
									v-3.177h0.473v7.028h-0.473v-1.098c-0.424,0.646-1.051,1.213-2.025,1.213C69.818,254.506,68.613,253.553,68.613,251.955z
									 M73.059,251.945v-0.02c0-1.262-0.984-2.108-2.006-2.108c-1.07,0-1.929,0.779-1.929,2.099v0.02
									c0,1.29,0.896,2.118,1.929,2.118C72.075,254.054,73.059,253.196,73.059,251.945z"/>
								<path style="fill:#546A30;" d="M77.057,249.48h0.55l1.861,4.381l1.88-4.381h0.531l-2.208,4.948h-0.405L77.057,249.48z"/>
								<path style="fill:#546A30;" d="M84.766,252.966v-0.02c0-1.021,0.877-1.599,2.151-1.599c0.685,0,1.157,0.087,1.629,0.212
									v-0.212c0-0.991-0.607-1.502-1.62-1.502c-0.598,0-1.089,0.164-1.543,0.396l-0.173-0.414c0.54-0.251,1.07-0.424,1.745-0.424
									c0.666,0,1.196,0.183,1.553,0.539c0.328,0.327,0.501,0.78,0.501,1.387v3.062h-0.463v-0.818
									c-0.337,0.472-0.945,0.934-1.88,0.934C85.75,254.506,84.766,253.986,84.766,252.966z M88.556,252.552v-0.559
									c-0.415-0.105-0.964-0.222-1.668-0.222c-1.042,0-1.62,0.463-1.62,1.146v0.019c0,0.713,0.675,1.127,1.427,1.127
									C87.698,254.063,88.556,253.447,88.556,252.552z"/>
								<path style="fill:#546A30;" d="M92.785,249.48h0.472v0.914c0.328-0.577,0.878-1.03,1.774-1.03
									c1.244,0,1.968,0.848,1.968,2.022v3.004h-0.473v-2.917c0-1.012-0.569-1.676-1.563-1.676c-0.964,0-1.707,0.731-1.707,1.752
									v2.841h-0.472V249.48z"/>
								<path style="fill:#546A30;" d="M100.572,251.955v-0.02c0-1.377,1.099-2.571,2.507-2.571c0.926,0,1.505,0.424,1.968,0.905
									l-0.338,0.347c-0.424-0.434-0.906-0.809-1.639-0.809c-1.119,0-1.987,0.934-1.987,2.108v0.02
									c0,1.185,0.897,2.128,2.025,2.128c0.694,0,1.234-0.356,1.649-0.818l0.328,0.289c-0.501,0.567-1.099,0.972-2.006,0.972
									C101.662,254.506,100.572,253.331,100.572,251.955z"/>
								<path style="fill:#546A30;" d="M108.532,247.555h0.588v0.645h-0.588V247.555z M108.59,249.48h0.473v4.91h-0.473V249.48z"/>
								<path style="fill:#546A30;" d="M113.087,249.48h0.472v0.914c0.328-0.577,0.878-1.03,1.774-1.03
									c1.244,0,1.968,0.848,1.968,2.022v3.004h-0.473v-2.917c0-1.012-0.569-1.676-1.563-1.676c-0.964,0-1.707,0.731-1.707,1.752
									v2.841h-0.472V249.48z"/>
								<path style="fill:#546A30;" d="M120.604,255.199l0.28-0.385c0.589,0.452,1.264,0.693,1.986,0.693
									c1.129,0,1.929-0.646,1.929-1.906v-0.713c-0.424,0.606-1.08,1.136-2.054,1.136c-1.187,0-2.362-0.904-2.362-2.311v-0.02
									c0-1.415,1.176-2.33,2.362-2.33c0.983,0,1.648,0.521,2.054,1.098v-0.981h0.473v4.149c0,0.713-0.231,1.271-0.627,1.666
									c-0.424,0.424-1.061,0.654-1.784,0.654C122.041,255.95,121.279,255.7,120.604,255.199z M124.828,251.704v-0.019
									c0-1.137-1.013-1.868-2.035-1.868c-1.031,0-1.899,0.712-1.899,1.858v0.019c0,1.107,0.888,1.878,1.899,1.878
									C123.815,253.572,124.828,252.821,124.828,251.704z"/>
								<path style="fill:#546A30;" d="M132.039,251.955v-0.02c0-1.377,1.099-2.571,2.507-2.571c0.926,0,1.505,0.424,1.968,0.905
									l-0.338,0.347c-0.424-0.434-0.906-0.809-1.64-0.809c-1.118,0-1.986,0.934-1.986,2.108v0.02c0,1.185,0.896,2.128,2.025,2.128
									c0.694,0,1.234-0.356,1.648-0.818l0.328,0.289c-0.501,0.567-1.1,0.972-2.006,0.972
									C133.129,254.506,132.039,253.331,132.039,251.955z"/>
								<path style="fill:#546A30;" d="M139.585,252.966v-0.02c0-1.021,0.877-1.599,2.15-1.599c0.685,0,1.157,0.087,1.63,0.212
									v-0.212c0-0.991-0.608-1.502-1.62-1.502c-0.599,0-1.09,0.164-1.543,0.396l-0.174-0.414c0.54-0.251,1.07-0.424,1.745-0.424
									c0.666,0,1.196,0.183,1.553,0.539c0.328,0.327,0.502,0.78,0.502,1.387v3.062h-0.463v-0.818
									c-0.338,0.472-0.945,0.934-1.881,0.934C140.568,254.506,139.585,253.986,139.585,252.966z M143.374,252.552v-0.559
									c-0.414-0.105-0.964-0.222-1.668-0.222c-1.041,0-1.62,0.463-1.62,1.146v0.019c0,0.713,0.675,1.127,1.428,1.127
									C142.517,254.063,143.374,253.447,143.374,252.552z"/>
								<path style="fill:#546A30;" d="M147.604,249.48h0.473v1.098c0.425-0.646,1.052-1.214,2.025-1.214
									c1.187,0,2.392,0.953,2.392,2.552v0.02c0,1.599-1.205,2.57-2.392,2.57c-0.983,0-1.62-0.559-2.025-1.175v2.601h-0.473V249.48
									z M151.982,251.955v-0.02c0-1.29-0.897-2.118-1.929-2.118c-1.022,0-2.006,0.856-2.006,2.108v0.02
									c0,1.261,0.983,2.108,2.006,2.108C151.124,254.054,151.982,253.273,151.982,251.955z"/>
								<path style="fill:#546A30;" d="M155.825,252.966v-0.02c0-1.021,0.877-1.599,2.15-1.599c0.685,0,1.157,0.087,1.63,0.212
									v-0.212c0-0.991-0.608-1.502-1.62-1.502c-0.599,0-1.09,0.164-1.543,0.396l-0.174-0.414c0.54-0.251,1.07-0.424,1.745-0.424
									c0.666,0,1.196,0.183,1.553,0.539c0.328,0.327,0.502,0.78,0.502,1.387v3.062h-0.463v-0.818
									c-0.338,0.472-0.945,0.934-1.881,0.934C156.809,254.506,155.825,253.986,155.825,252.966z M159.614,252.552v-0.559
									c-0.414-0.105-0.964-0.222-1.668-0.222c-1.041,0-1.62,0.463-1.62,1.146v0.019c0,0.713,0.675,1.127,1.428,1.127
									C158.757,254.063,159.614,253.447,159.614,252.552z"/>
								<path style="fill:#546A30;" d="M164.315,253.331v1.06h-0.473v-7.028h0.473v3.216c0.425-0.646,1.052-1.214,2.025-1.214
									c1.187,0,2.392,0.953,2.392,2.552v0.02c0,1.599-1.205,2.57-2.392,2.57C165.357,254.506,164.721,253.947,164.315,253.331z
									 M168.222,251.955v-0.02c0-1.29-0.897-2.118-1.929-2.118c-1.022,0-2.006,0.856-2.006,2.108v0.02
									c0,1.261,0.983,2.108,2.006,2.108C167.363,254.054,168.222,253.273,168.222,251.955z"/>
								<path style="fill:#546A30;" d="M172.479,247.555h0.589v0.645h-0.589V247.555z M172.538,249.48h0.472v4.91h-0.472V249.48z"/>
								<path style="fill:#546A30;" d="M177.103,247.362h0.472v7.028h-0.472V247.362z"/>
								<path style="fill:#546A30;" d="M181.608,247.555h0.589v0.645h-0.589V247.555z M181.667,249.48h0.472v4.91h-0.472V249.48z"/>
								<path style="fill:#546A30;" d="M186.423,253.129v-3.216h-0.714v-0.433h0.714v-1.569h0.473v1.569h1.727v0.433h-1.727v3.168
									c0,0.703,0.414,0.953,0.983,0.953c0.241,0,0.443-0.048,0.724-0.173v0.442c-0.251,0.116-0.492,0.174-0.801,0.174
									C187.04,254.478,186.423,254.063,186.423,253.129z"/>
								<path style="fill:#546A30;" d="M191.749,247.555h0.589v0.645h-0.589V247.555z M191.808,249.48h0.472v4.91h-0.472V249.48z"/>
								<path style="fill:#546A30;" d="M195.967,251.945v-0.02c0-1.425,1.003-2.562,2.333-2.562c1.38,0,2.257,1.117,2.257,2.571
									c0,0.087,0,0.115-0.01,0.192h-4.079c0.087,1.223,0.965,1.936,1.929,1.936c0.762,0,1.283-0.337,1.688-0.771l0.328,0.289
									c-0.501,0.539-1.09,0.924-2.034,0.924C197.085,254.506,195.967,253.476,195.967,251.945z M200.046,251.704
									c-0.067-0.991-0.637-1.906-1.765-1.906c-0.975,0-1.727,0.818-1.813,1.906H200.046z"/>
								<path style="fill:#546A30;" d="M203.493,253.774l0.279-0.376c0.54,0.414,1.139,0.646,1.765,0.646
									c0.666,0,1.187-0.366,1.187-0.934v-0.02c0-0.578-0.617-0.789-1.302-0.982c-0.801-0.23-1.688-0.472-1.688-1.348v-0.02
									c0-0.789,0.665-1.357,1.62-1.357c0.588,0,1.254,0.212,1.745,0.539l-0.251,0.395c-0.453-0.298-0.993-0.49-1.514-0.49
									c-0.675,0-1.119,0.365-1.119,0.856v0.02c0,0.549,0.666,0.751,1.37,0.953c0.79,0.222,1.62,0.51,1.62,1.377v0.02
									c0,0.876-0.752,1.435-1.697,1.435C204.795,254.487,204.014,254.198,203.493,253.774z"/>
								<path style="fill:#546A30;" d="M225.56,251.232h-2.092v-0.462h2.092v-2.07h0.482v2.07h2.093v0.462h-2.093v2.07h-0.482
									V251.232z"/>
							</g>
						</g>
					</g>
				</g>
			</g>
		</g>
	</g>
</g>
</svg>
