<?xml version="1.0" encoding="utf-8"?>
<!-- Generator: Adobe Illustrator 16.0.0, SVG Export Plug-In . SVG Version: 6.00 Build 0)  -->
<!DOCTYPE svg PUBLIC "-//W3C//DTD SVG 1.1//EN" "http://www.w3.org/Graphics/SVG/1.1/DTD/svg11.dtd">
<svg version="1.1" id="Layer_1" xmlns="http://www.w3.org/2000/svg" xmlns:xlink="http://www.w3.org/1999/xlink" x="0px" y="0px"
	 width="258px" height="90px" viewBox="0 0 258 90" enable-background="new 0 0 258 90" xml:space="preserve">
<g>
	<g>
		<g>
			<g>
				<path fill="#FFFFFF" d="M12.888,31.422h-1.944l3.016-14.188H5.21L2.214,31.422H0.271L6.4,2.493h1.944L5.627,15.295h8.729
					l2.718-12.802h1.964L12.888,31.422z"/>
				<path fill="#FFFFFF" d="M23.997,31.817c-1.416,0-2.5-0.527-3.253-1.583c-0.754-1.056-1.131-2.553-1.131-4.492
					c0-1.873,0.238-3.885,0.714-6.035c0.476-2.15,1.098-3.974,1.865-5.471c0.767-1.497,1.667-2.655,2.698-3.473
					c1.031-0.818,2.182-1.227,3.452-1.227c1.402,0,2.497,0.544,3.283,1.633c0.787,1.088,1.181,2.622,1.181,4.601
					c0,1.833-0.242,3.803-0.724,5.906c-0.483,2.104-1.114,3.912-1.895,5.422c-0.781,1.511-1.693,2.675-2.738,3.493
					C26.404,31.409,25.253,31.817,23.997,31.817z M21.557,26.119c0,2.665,0.893,3.997,2.678,3.997c1.177,0,2.262-0.669,3.253-2.008
					c0.992-1.339,1.802-3.229,2.43-5.669c0.628-2.44,0.942-4.795,0.942-7.064c0-2.704-0.919-4.056-2.757-4.056
					c-1.111,0-2.153,0.646-3.125,1.939c-0.972,1.293-1.785,3.179-2.44,5.659C21.884,21.396,21.557,23.797,21.557,26.119z"/>
				<path fill="#FFFFFF" d="M42.481,31.422l3.413-16.127c0.132-0.527,0.198-1.082,0.198-1.662c0-1.491-0.662-2.236-1.984-2.236
					c-1.389,0-2.553,0.666-3.492,1.999c-0.939,1.333-1.7,3.41-2.281,6.233l-2.52,11.793h-1.865l4.543-21.47h1.587l-0.496,2.988h0.08
					c1.23-2.269,2.83-3.404,4.801-3.404c1.111,0,1.971,0.32,2.579,0.96c0.608,0.64,0.913,1.56,0.913,2.76
					c0,0.739-0.093,1.537-0.278,2.395l-3.333,15.771H42.481z"/>
				<path fill="#FFFFFF" d="M51.454,31.422h-1.865l4.583-21.47h1.865L51.454,31.422z M55.104,4.59c0-0.673,0.152-1.253,0.456-1.741
					c0.304-0.488,0.694-0.732,1.171-0.732c0.621,0,0.932,0.382,0.932,1.147c0,0.752-0.146,1.372-0.437,1.86
					c-0.291,0.488-0.674,0.732-1.15,0.732C55.428,5.856,55.104,5.434,55.104,4.59z"/>
				<path fill="#FFFFFF" d="M65.306,31.422l3.413-16.127c0.132-0.527,0.198-1.082,0.198-1.662c0-1.491-0.662-2.236-1.984-2.236
					c-1.389,0-2.553,0.666-3.492,1.999c-0.939,1.333-1.7,3.41-2.281,6.233l-2.52,11.793h-1.865l4.543-21.47h1.587l-0.496,2.988h0.08
					c1.23-2.269,2.83-3.404,4.801-3.404c1.111,0,1.971,0.32,2.579,0.96c0.608,0.64,0.913,1.56,0.913,2.76
					c0,0.739-0.093,1.537-0.278,2.395L67.17,31.422H65.306z"/>
				<path fill="#FFFFFF" d="M87.352,9.952l-0.278,1.326l-2.718,0.336c0.397,0.751,0.595,1.695,0.595,2.83
					c0,1.438-0.294,2.918-0.883,4.442c-0.589,1.524-1.369,2.718-2.341,3.582c-0.972,0.864-2.047,1.296-3.224,1.296h-0.496
					l-0.436-0.04c-1.654,1.147-2.48,2.19-2.48,3.126c0,0.304,0.053,0.551,0.159,0.742c0.105,0.191,0.271,0.35,0.496,0.475
					c0.225,0.125,1.005,0.393,2.341,0.801c1.667,0.515,2.837,1.165,3.511,1.949c0.675,0.785,1.012,1.837,1.012,3.156
					c0,2.124-0.701,3.852-2.103,5.184c-1.402,1.333-3.208,1.999-5.416,1.999c-1.746,0-3.098-0.442-4.057-1.326
					s-1.438-2.13-1.438-3.74c0-1.385,0.43-2.648,1.29-3.79c0.86-1.141,2.083-2.067,3.67-2.78c-0.833-0.554-1.25-1.299-1.25-2.236
					c0-0.686,0.211-1.352,0.635-1.999c0.423-0.646,1.184-1.358,2.282-2.137c-1.138-0.95-1.706-2.328-1.706-4.136
					c0-1.623,0.327-3.209,0.982-4.759c0.655-1.55,1.481-2.724,2.48-3.522c0.998-0.798,2.106-1.197,3.323-1.197
					c0.846,0,1.495,0.139,1.944,0.416H87.352z M71.381,35.953c0,1.293,0.327,2.226,0.982,2.8c0.655,0.574,1.617,0.861,2.887,0.861
					c1.613,0,2.953-0.488,4.017-1.464c1.065-0.976,1.597-2.249,1.597-3.819c0-0.844-0.268-1.577-0.803-2.196
					c-0.536-0.62-1.353-1.088-2.45-1.405l-1.786-0.475c-1.27,0.422-2.328,1.167-3.174,2.236
					C71.805,33.559,71.381,34.713,71.381,35.953z M76.341,19.312c0,0.976,0.188,1.718,0.565,2.226
					c0.376,0.508,0.922,0.762,1.636,0.762c0.82,0,1.564-0.346,2.232-1.039c0.668-0.692,1.22-1.734,1.657-3.126
					c0.437-1.392,0.655-2.728,0.655-4.007c0-2.031-0.714-3.047-2.143-3.047c-0.807,0-1.551,0.37-2.232,1.108
					c-0.682,0.739-1.247,1.824-1.696,3.255C76.566,16.875,76.341,18.164,76.341,19.312z"/>
				<path fill="#FFFFFF" d="M97.641,31.817c-1.416,0-2.5-0.527-3.253-1.583c-0.754-1.056-1.131-2.553-1.131-4.492
					c0-1.873,0.238-3.885,0.714-6.035c0.476-2.15,1.098-3.974,1.865-5.471c0.767-1.497,1.667-2.655,2.698-3.473
					c1.031-0.818,2.182-1.227,3.452-1.227c1.402,0,2.497,0.544,3.283,1.633c0.787,1.088,1.181,2.622,1.181,4.601
					c0,1.833-0.242,3.803-0.724,5.906c-0.483,2.104-1.114,3.912-1.895,5.422c-0.781,1.511-1.693,2.675-2.738,3.493
					C100.048,31.409,98.897,31.817,97.641,31.817z M95.201,26.119c0,2.665,0.893,3.997,2.678,3.997c1.177,0,2.262-0.669,3.253-2.008
					c0.992-1.339,1.802-3.229,2.43-5.669c0.628-2.44,0.942-4.795,0.942-7.064c0-2.704-0.919-4.056-2.757-4.056
					c-1.111,0-2.153,0.646-3.125,1.939c-0.972,1.293-1.785,3.179-2.44,5.659C95.528,21.396,95.201,23.797,95.201,26.119z"/>
				<path fill="#FFFFFF" d="M114.003,9.952l-3.214,14.94c-0.238,1.029-0.357,1.919-0.357,2.671c0,1.623,0.622,2.434,1.865,2.434
					c2.764,0,4.728-2.75,5.892-8.251l2.52-11.793h1.865l-4.583,21.47h-1.468l0.159-2.671h-0.08
					c-1.336,2.045-2.916,3.067-4.741,3.067c-2.169,0-3.254-1.306-3.254-3.917c0-1.042,0.132-2.137,0.397-3.285l3.135-14.663H114.003
					z"/>
				<path fill="#FFFFFF" d="M133.428,9.537c0.516,0,1,0.08,1.449,0.238l-0.516,1.919c-0.396-0.198-0.834-0.297-1.311-0.297
					c-1.123,0-2.168,0.771-3.133,2.315c-0.967,1.543-1.734,3.654-2.302,6.332l-2.44,11.378h-1.865l4.543-21.47h1.388l-0.575,3.76
					h0.079C129.91,10.929,131.471,9.537,133.428,9.537z"/>
				<path fill="#FFFFFF" d="M145.726,31.817c-1.534,0-2.708-0.527-3.521-1.583c-0.813-1.056-1.221-2.579-1.221-4.571
					c0-2.862,0.417-5.59,1.25-8.182c0.834-2.592,1.911-4.564,3.234-5.917c1.322-1.352,2.804-2.028,4.443-2.028
					c1.138,0,2.09,0.218,2.857,0.653l-0.774,1.702c-0.701-0.382-1.448-0.574-2.241-0.574c-1.218,0-2.331,0.64-3.343,1.919
					c-1.012,1.279-1.846,3.106-2.5,5.481s-0.982,4.703-0.982,6.985c0,2.942,1.059,4.413,3.175,4.413
					c0.833,0,1.778-0.264,2.837-0.792v1.702C147.947,31.554,146.876,31.817,145.726,31.817z"/>
				<path fill="#FFFFFF" d="M161.835,9.537c0.516,0,0.999,0.08,1.448,0.238l-0.516,1.919c-0.396-0.198-0.833-0.297-1.31-0.297
					c-1.124,0-2.169,0.771-3.134,2.315c-0.966,1.543-1.733,3.654-2.302,6.332l-2.44,11.378h-1.864l4.543-21.47h1.389l-0.575,3.76
					h0.079C158.317,10.929,159.878,9.537,161.835,9.537z"/>
				<path fill="#FFFFFF" d="M165.763,31.817c-2.645,0-3.968-1.86-3.968-5.58c0-2.757,0.414-5.487,1.24-8.192
					c0.826-2.704,1.897-4.798,3.214-6.283c1.316-1.484,2.754-2.226,4.315-2.226c1.771,0,2.923,0.99,3.451,2.968h0.119l0.774-2.553
					h1.587l-4.543,21.47h-1.508l0.356-3.087h-0.079C169.215,30.657,167.562,31.817,165.763,31.817z M166.14,30.175
					c1.19,0,2.302-0.686,3.333-2.058c1.032-1.372,1.905-3.376,2.619-6.015c0.714-2.638,1.071-5.125,1.071-7.46
					c0-1.095-0.235-1.922-0.704-2.483c-0.47-0.561-1.128-0.841-1.975-0.841c-1.163,0-2.241,0.669-3.233,2.008
					s-1.825,3.301-2.5,5.887c-0.674,2.586-1.012,5.02-1.012,7.302c0,1.201,0.176,2.111,0.526,2.73
					C164.615,29.865,165.24,30.175,166.14,30.175z"/>
				<path fill="#FFFFFF" d="M173.44,41.157c-0.674,0-1.256-0.073-1.745-0.218v-1.82c0.489,0.158,1.045,0.237,1.666,0.237
					c0.622,0,1.104-0.175,1.448-0.524c0.344-0.35,0.658-0.934,0.942-1.751s0.599-2.045,0.942-3.681l4.682-21.786h-2.4l0.198-1.069
					l2.6-0.811l0.416-1.939c0.384-1.886,0.804-3.357,1.26-4.413c0.457-1.055,0.989-1.813,1.598-2.275
					c0.607-0.462,1.441-0.693,2.499-0.693c0.873,0,1.607,0.166,2.202,0.495l-0.813,1.741c-0.555-0.277-1.098-0.416-1.626-0.416
					c-0.622,0-1.102,0.175-1.438,0.524c-0.338,0.35-0.648,0.94-0.933,1.771s-0.718,2.638-1.3,5.421h2.857l-0.377,1.663h-2.837
					L178.52,33.52c-0.45,2.11-0.88,3.687-1.289,4.729c-0.41,1.042-0.894,1.788-1.448,2.236
					C175.227,40.933,174.446,41.157,173.44,41.157z"/>
				<path fill="#FFFFFF" d="M190.284,29.839v1.583c-0.74,0.264-1.435,0.396-2.083,0.396c-1.68,0-2.52-0.996-2.52-2.988
					c0-0.501,0.086-1.161,0.258-1.979l3.234-15.236h-1.944l0.238-1.108l2.043-0.554l1.587-5.105h1.369l-1.091,5.105h2.837
					l-0.357,1.663h-2.837l-3.135,14.702c-0.186,0.844-0.277,1.543-0.277,2.097c0,0.594,0.109,1.019,0.327,1.276
					s0.565,0.386,1.042,0.386C189.385,30.076,189.821,29.997,190.284,29.839z"/>
			</g>
		</g>
		<g>
			<g>
				<g>
					<path fill="#FFFFFF" d="M5.468,78.472v1.583c-0.741,0.264-1.436,0.396-2.083,0.396c-1.68,0-2.52-0.996-2.52-2.987
						c0-0.502,0.086-1.161,0.258-1.979l3.233-15.236H2.413l0.238-1.107l2.043-0.555l1.587-5.104H7.65l-1.091,5.104h2.837
						l-0.357,1.662H6.202L3.067,74.949c-0.185,0.845-0.277,1.544-0.277,2.098c0,0.594,0.109,1.02,0.327,1.276
						s0.565,0.386,1.042,0.386C4.568,78.709,5.005,78.63,5.468,78.472z"/>
					<path fill="#FFFFFF" d="M17.076,80.055l3.413-16.127c0.132-0.527,0.198-1.081,0.198-1.662c0-1.49-0.662-2.236-1.984-2.236
						c-1.389,0-2.553,0.667-3.492,1.999s-1.7,3.41-2.281,6.233l-2.52,11.793H8.546l6.527-30.789h1.885l-1.964,8.983l-0.813,3.324
						h0.079c1.23-2.269,2.83-3.403,4.801-3.403c1.111,0,1.971,0.319,2.579,0.959c0.608,0.641,0.913,1.561,0.913,2.761
						c0,0.739-0.092,1.537-0.277,2.395l-3.333,15.771H17.076z"/>
					<path fill="#FFFFFF" d="M34.34,58.17c0.516,0,0.998,0.079,1.448,0.237l-0.516,1.919c-0.396-0.197-0.833-0.297-1.309-0.297
						c-1.125,0-2.169,0.772-3.135,2.315c-0.965,1.544-1.733,3.654-2.301,6.332l-2.44,11.378h-1.865l4.543-21.47h1.389l-0.576,3.76
						h0.08C30.822,59.562,32.383,58.17,34.34,58.17z"/>
					<path fill="#FFFFFF" d="M38.685,80.45c-1.416,0-2.5-0.527-3.253-1.583c-0.754-1.055-1.131-2.553-1.131-4.491
						c0-1.873,0.238-3.885,0.714-6.035s1.098-3.975,1.865-5.472c0.767-1.497,1.667-2.654,2.698-3.473
						c1.031-0.817,2.182-1.227,3.452-1.227c1.402,0,2.497,0.544,3.283,1.632c0.787,1.089,1.181,2.622,1.181,4.601
						c0,1.834-0.242,3.803-0.724,5.907c-0.483,2.104-1.114,3.911-1.895,5.422c-0.781,1.511-1.693,2.675-2.738,3.492
						C41.092,80.042,39.941,80.45,38.685,80.45z M36.245,74.752c0,2.664,0.893,3.997,2.678,3.997c1.177,0,2.262-0.67,3.253-2.009
						c0.992-1.339,1.802-3.229,2.43-5.669c0.628-2.44,0.942-4.795,0.942-7.064c0-2.704-0.919-4.057-2.757-4.057
						c-1.111,0-2.153,0.646-3.125,1.939s-1.785,3.18-2.44,5.659C36.572,70.029,36.245,72.43,36.245,74.752z"/>
					<path fill="#FFFFFF" d="M55.047,58.585l-3.214,14.939c-0.238,1.029-0.357,1.92-0.357,2.672c0,1.622,0.622,2.434,1.865,2.434
						c2.764,0,4.728-2.75,5.892-8.251l2.52-11.794h1.865l-4.583,21.47h-1.468l0.159-2.671h-0.08
						c-1.336,2.045-2.916,3.066-4.741,3.066c-2.169,0-3.254-1.306-3.254-3.918c0-1.042,0.132-2.137,0.397-3.284l3.135-14.663H55.047
						z"/>
					<path fill="#FFFFFF" d="M79.213,58.585l-0.278,1.326l-2.718,0.336c0.397,0.752,0.595,1.695,0.595,2.83
						c0,1.438-0.294,2.919-0.883,4.442c-0.589,1.523-1.369,2.718-2.341,3.581c-0.972,0.864-2.047,1.296-3.224,1.296h-0.496
						l-0.436-0.039c-1.654,1.147-2.48,2.189-2.48,3.126c0,0.304,0.053,0.552,0.159,0.742c0.105,0.191,0.271,0.35,0.496,0.476
						c0.225,0.125,1.005,0.393,2.341,0.801c1.667,0.515,2.837,1.164,3.511,1.949c0.675,0.785,1.012,1.837,1.012,3.156
						c0,2.124-0.701,3.852-2.103,5.185c-1.402,1.332-3.208,1.998-5.416,1.998c-1.746,0-3.098-0.442-4.057-1.325
						c-0.959-0.885-1.438-2.131-1.438-3.74c0-1.385,0.43-2.648,1.29-3.789c0.86-1.142,2.083-2.068,3.67-2.78
						c-0.833-0.555-1.25-1.3-1.25-2.236c0-0.686,0.211-1.352,0.635-1.998s1.184-1.359,2.282-2.138
						c-1.138-0.949-1.706-2.328-1.706-4.136c0-1.622,0.327-3.208,0.982-4.759c0.655-1.55,1.481-2.724,2.48-3.521
						c0.998-0.799,2.106-1.197,3.323-1.197c0.846,0,1.495,0.139,1.944,0.415H79.213z M63.243,84.586c0,1.293,0.327,2.227,0.982,2.8
						c0.655,0.574,1.617,0.861,2.887,0.861c1.613,0,2.953-0.488,4.017-1.465c1.065-0.977,1.597-2.249,1.597-3.818
						c0-0.845-0.268-1.577-0.803-2.197s-1.353-1.088-2.45-1.404l-1.786-0.475c-1.27,0.422-2.328,1.167-3.174,2.235
						C63.667,82.191,63.243,83.346,63.243,84.586z M68.203,67.944c0,0.977,0.188,1.719,0.565,2.227
						c0.376,0.508,0.922,0.762,1.636,0.762c0.82,0,1.564-0.347,2.232-1.039s1.22-1.734,1.657-3.126s0.655-2.728,0.655-4.007
						c0-2.031-0.714-3.048-2.143-3.048c-0.807,0-1.551,0.37-2.232,1.108c-0.682,0.739-1.247,1.824-1.696,3.255
						C68.428,65.508,68.203,66.797,68.203,67.944z"/>
					<path fill="#FFFFFF" d="M86.136,80.055l3.413-16.127c0.132-0.527,0.198-1.081,0.198-1.662c0-1.49-0.662-2.236-1.984-2.236
						c-1.389,0-2.553,0.667-3.492,1.999s-1.7,3.41-2.281,6.233l-2.52,11.793h-1.865l6.527-30.789h1.885l-1.964,8.983l-0.813,3.324
						h0.079c1.23-2.269,2.83-3.403,4.801-3.403c1.111,0,1.971,0.319,2.579,0.959c0.608,0.641,0.913,1.561,0.913,2.761
						c0,0.739-0.092,1.537-0.277,2.395l-3.333,15.771H86.136z"/>
					<path fill="#FFFFFF" d="M105.577,80.45c-1.535,0-2.708-0.527-3.521-1.583c-0.813-1.055-1.22-2.579-1.22-4.57
						c0-2.862,0.417-5.591,1.25-8.183c0.833-2.592,1.911-4.564,3.233-5.916c1.323-1.353,2.804-2.028,4.444-2.028
						c1.138,0,2.09,0.218,2.857,0.652l-0.773,1.702c-0.701-0.383-1.448-0.574-2.242-0.574c-1.217,0-2.331,0.641-3.343,1.92
						s-1.845,3.106-2.5,5.48c-0.655,2.375-0.982,4.703-0.982,6.985c0,2.942,1.058,4.413,3.174,4.413
						c0.833,0,1.779-0.264,2.837-0.792v1.702C107.798,80.187,106.727,80.45,105.577,80.45z"/>
					<path fill="#FFFFFF" d="M116.885,80.45c-1.416,0-2.5-0.527-3.253-1.583c-0.754-1.055-1.131-2.553-1.131-4.491
						c0-1.873,0.238-3.885,0.714-6.035s1.098-3.975,1.865-5.472c0.767-1.497,1.667-2.654,2.698-3.473
						c1.031-0.817,2.182-1.227,3.452-1.227c1.402,0,2.497,0.544,3.283,1.632c0.787,1.089,1.181,2.622,1.181,4.601
						c0,1.834-0.242,3.803-0.724,5.907c-0.483,2.104-1.114,3.911-1.895,5.422c-0.781,1.511-1.693,2.675-2.738,3.492
						C119.292,80.042,118.141,80.45,116.885,80.45z M114.445,74.752c0,2.664,0.893,3.997,2.678,3.997
						c1.177,0,2.262-0.67,3.253-2.009c0.992-1.339,1.802-3.229,2.43-5.669c0.628-2.44,0.942-4.795,0.942-7.064
						c0-2.704-0.919-4.057-2.757-4.057c-1.111,0-2.153,0.646-3.125,1.939s-1.785,3.18-2.44,5.659
						C114.772,70.029,114.445,72.43,114.445,74.752z"/>
					<path fill="#FFFFFF" d="M128.704,80.055h-1.865l6.567-30.789h1.885L128.704,80.055z"/>
					<path fill="#FFFFFF" d="M135.812,80.055h-1.864l6.566-30.789h1.885L135.812,80.055z"/>
					<path fill="#FFFFFF" d="M145.955,80.45c-2.645,0-3.968-1.859-3.968-5.58c0-2.757,0.414-5.487,1.24-8.191
						s1.897-4.799,3.214-6.283c1.316-1.483,2.754-2.226,4.315-2.226c1.771,0,2.923,0.989,3.451,2.968h0.119l0.774-2.553h1.587
						l-4.543,21.47h-1.508l0.356-3.087h-0.079C149.407,79.29,147.754,80.45,145.955,80.45z M146.332,78.808
						c1.19,0,2.302-0.686,3.333-2.058c1.032-1.372,1.905-3.377,2.619-6.016c0.714-2.638,1.071-5.125,1.071-7.46
						c0-1.095-0.235-1.922-0.704-2.483c-0.47-0.561-1.128-0.841-1.975-0.841c-1.163,0-2.241,0.67-3.233,2.009
						s-1.825,3.302-2.5,5.887c-0.674,2.586-1.012,5.02-1.012,7.302c0,1.2,0.176,2.11,0.526,2.73
						C144.808,78.498,145.433,78.808,146.332,78.808z"/>
					<path fill="#FFFFFF" d="M168.018,58.17c2.658,0,3.987,1.866,3.987,5.6c0,2.783-0.417,5.524-1.25,8.222
						c-0.833,2.698-1.908,4.782-3.224,6.253c-1.316,1.471-2.748,2.206-4.295,2.206c-0.899,0-1.66-0.271-2.281-0.812
						c-0.622-0.54-1.012-1.266-1.171-2.176h-0.139l-0.893,2.592h-1.448l6.487-30.789h1.885l-2.361,10.981l-0.417,1.604h0.08
						c0.688-1.201,1.468-2.114,2.341-2.741C166.192,58.483,167.092,58.17,168.018,58.17z M167.66,59.832
						c-1.243,0-2.388,0.689-3.432,2.067c-1.045,1.379-1.905,3.318-2.579,5.817c-0.675,2.5-1.012,4.95-1.012,7.352
						c0,2.453,0.893,3.681,2.678,3.681c1.164,0,2.245-0.683,3.244-2.048c0.998-1.366,1.831-3.341,2.499-5.927
						s1.002-5.02,1.002-7.302c0-1.2-0.175-2.107-0.525-2.721S168.56,59.832,167.66,59.832z"/>
					<path fill="#FFFFFF" d="M178.389,80.45c-1.415,0-2.5-0.527-3.254-1.583c-0.754-1.055-1.131-2.553-1.131-4.491
						c0-1.873,0.238-3.885,0.715-6.035c0.476-2.15,1.098-3.975,1.864-5.472c0.768-1.497,1.667-2.654,2.698-3.473
						c1.032-0.817,2.183-1.227,3.452-1.227c1.401,0,2.496,0.544,3.283,1.632c0.787,1.089,1.181,2.622,1.181,4.601
						c0,1.834-0.241,3.803-0.725,5.907c-0.482,2.104-1.114,3.911-1.895,5.422s-1.692,2.675-2.737,3.492
						C180.796,80.042,179.646,80.45,178.389,80.45z M175.948,74.752c0,2.664,0.894,3.997,2.679,3.997
						c1.177,0,2.262-0.67,3.254-2.009c0.991-1.339,1.802-3.229,2.43-5.669s0.942-4.795,0.942-7.064c0-2.704-0.919-4.057-2.758-4.057
						c-1.11,0-2.152,0.646-3.124,1.939c-0.973,1.293-1.786,3.18-2.44,5.659C176.276,70.029,175.948,72.43,175.948,74.752z"/>
					<path fill="#FFFFFF" d="M198.461,58.17c0.516,0,0.999,0.079,1.448,0.237l-0.516,1.919c-0.396-0.197-0.833-0.297-1.31-0.297
						c-1.124,0-2.169,0.772-3.134,2.315c-0.966,1.544-1.733,3.654-2.302,6.332l-2.44,11.378h-1.864l4.543-21.47h1.389l-0.575,3.76
						h0.079C194.943,59.562,196.504,58.17,198.461,58.17z"/>
					<path fill="#FFFFFF" d="M202.389,80.45c-2.645,0-3.968-1.859-3.968-5.58c0-2.757,0.414-5.487,1.24-8.191
						s1.897-4.799,3.214-6.283c1.316-1.483,2.754-2.226,4.315-2.226c1.771,0,2.923,0.989,3.451,2.968h0.119l0.774-2.553h1.587
						l-4.543,21.47h-1.508l0.356-3.087h-0.079C205.841,79.29,204.188,80.45,202.389,80.45z M202.766,78.808
						c1.19,0,2.302-0.686,3.333-2.058c1.032-1.372,1.905-3.377,2.619-6.016c0.714-2.638,1.071-5.125,1.071-7.46
						c0-1.095-0.235-1.922-0.704-2.483c-0.47-0.561-1.128-0.841-1.975-0.841c-1.163,0-2.241,0.67-3.233,2.009
						s-1.825,3.302-2.5,5.887c-0.674,2.586-1.012,5.02-1.012,7.302c0,1.2,0.176,2.11,0.526,2.73
						C201.241,78.498,201.866,78.808,202.766,78.808z"/>
					<path fill="#FFFFFF" d="M218.816,78.472v1.583c-0.74,0.264-1.435,0.396-2.083,0.396c-1.68,0-2.52-0.996-2.52-2.987
						c0-0.502,0.086-1.161,0.258-1.979l3.234-15.236h-1.944L216,59.14l2.043-0.555l1.587-5.104h1.369l-1.091,5.104h2.837
						l-0.357,1.662h-2.837l-3.135,14.702c-0.186,0.845-0.277,1.544-0.277,2.098c0,0.594,0.109,1.02,0.327,1.276
						s0.565,0.386,1.042,0.386C217.917,78.709,218.354,78.63,218.816,78.472z"/>
					<path fill="#FFFFFF" d="M223.64,80.055h-1.865l4.583-21.47h1.865L223.64,80.055z M227.29,53.223
						c0-0.673,0.152-1.253,0.456-1.741c0.305-0.488,0.694-0.732,1.171-0.732c0.621,0,0.933,0.383,0.933,1.148
						c0,0.751-0.146,1.372-0.437,1.859c-0.291,0.488-0.675,0.732-1.151,0.732C227.614,54.489,227.29,54.067,227.29,53.223z"/>
					<path fill="#FFFFFF" d="M234.278,80.45c-1.415,0-2.5-0.527-3.254-1.583c-0.754-1.055-1.131-2.553-1.131-4.491
						c0-1.873,0.238-3.885,0.715-6.035c0.476-2.15,1.098-3.975,1.864-5.472c0.768-1.497,1.667-2.654,2.698-3.473
						c1.032-0.817,2.183-1.227,3.452-1.227c1.401,0,2.496,0.544,3.283,1.632c0.787,1.089,1.181,2.622,1.181,4.601
						c0,1.834-0.241,3.803-0.725,5.907c-0.482,2.104-1.114,3.911-1.895,5.422s-1.692,2.675-2.737,3.492
						C236.686,80.042,235.535,80.45,234.278,80.45z M231.838,74.752c0,2.664,0.894,3.997,2.679,3.997
						c1.177,0,2.262-0.67,3.254-2.009c0.991-1.339,1.802-3.229,2.43-5.669s0.942-4.795,0.942-7.064c0-2.704-0.919-4.057-2.758-4.057
						c-1.11,0-2.152,0.646-3.124,1.939c-0.973,1.293-1.786,3.18-2.44,5.659C232.166,70.029,231.838,72.43,231.838,74.752z"/>
					<path fill="#FFFFFF" d="M252.764,80.055l3.412-16.127c0.133-0.527,0.198-1.081,0.198-1.662c0-1.49-0.661-2.236-1.983-2.236
						c-1.389,0-2.553,0.667-3.491,1.999c-0.939,1.332-1.7,3.41-2.282,6.233l-2.52,11.793h-1.864l4.543-21.47h1.587l-0.496,2.988
						h0.079c1.23-2.269,2.83-3.403,4.802-3.403c1.11,0,1.97,0.319,2.579,0.959c0.607,0.641,0.912,1.561,0.912,2.761
						c0,0.739-0.093,1.537-0.277,2.395l-3.333,15.771H252.764z"/>
				</g>
			</g>
		</g>
	</g>
</g>
</svg>
