<?xml version="1.0" encoding="utf-8"?>
<!-- Generator: Adobe Illustrator 16.0.0, SVG Export Plug-In . SVG Version: 6.00 Build 0)  -->
<!DOCTYPE svg PUBLIC "-//W3C//DTD SVG 1.1//EN" "http://www.w3.org/Graphics/SVG/1.1/DTD/svg11.dtd">
<svg version="1.1" id="Layer_1" xmlns="http://www.w3.org/2000/svg" xmlns:xlink="http://www.w3.org/1999/xlink" x="0px" y="0px"
	 width="229px" height="75px" viewBox="0 0 229 75" enable-background="new 0 0 229 75" xml:space="preserve">
<g>
	<g>
		<path fill-rule="evenodd" clip-rule="evenodd" fill="#9B3467" d="M25.876,16.575l-0.92,0.874l-0.552-0.524
			c0.137-0.178,0.276-0.305,0.412-0.393L25.876,16.575L25.876,16.575L25.876,16.575z"/>
		<g>
			<path fill-rule="evenodd" clip-rule="evenodd" fill="#9B3467" d="M27.863,28.191c-0.029,0.147-0.057,0.294-0.087,0.441
				l-0.287-0.191L27.863,28.191L27.863,28.191L27.863,28.191z"/>
			<g>
				<path fill-rule="evenodd" clip-rule="evenodd" fill="#9B3467" d="M23.834,18.393L23.378,19c0.063-0.356,0.133-0.668,0.205-0.939
					L23.834,18.393L23.834,18.393L23.834,18.393z"/>
				<g>
					<path fill-rule="evenodd" clip-rule="evenodd" fill="#9B3467" d="M27.912,17.361c-0.045-0.063-0.091-0.126-0.137-0.188
						C27.815,17.237,27.861,17.297,27.912,17.361L27.912,17.361z"/>
					<g>
						<path fill-rule="evenodd" clip-rule="evenodd" fill="#9B3467" d="M23.204,21.056c0.036-0.051,0.066-0.096,0.097-0.147
							L23.209,21C23.209,21.016,23.209,21.036,23.204,21.056L23.204,21.056z"/>
						<g>
							<path fill-rule="evenodd" clip-rule="evenodd" fill="#9B3467" d="M23.304,20.656c-0.002,0.006-0.002,0.013-0.003,0.02
								c-0.039,0.058-0.084,0.113-0.135,0.166c-0.066,0.066-0.139,0.12-0.215,0.167L23.304,20.656L23.304,20.656L23.304,20.656z"/>
							<g>
								<path fill-rule="evenodd" clip-rule="evenodd" fill="#9B3467" d="M28.934,27.169c-0.028,0.146-0.057,0.293-0.086,0.439
									l-0.343-0.195L28.934,27.169L28.934,27.169L28.934,27.169z"/>
								<g>
									<path fill-rule="evenodd" clip-rule="evenodd" fill="#9B3467" d="M24.229,17.173c-0.056,0.111-0.122,0.218-0.201,0.314
										C24.098,17.378,24.164,17.275,24.229,17.173L24.229,17.173z"/>
									<g>
										<path fill-rule="evenodd" clip-rule="evenodd" fill="#9B3467" d="M24.242,16.74c-0.071,0.099-0.142,0.2-0.213,0.304
											c0.061-0.119,0.107-0.246,0.14-0.377L24.242,16.74L24.242,16.74L24.242,16.74z"/>
										<g>
											<path fill-rule="evenodd" clip-rule="evenodd" fill="#9B3467" d="M23.326,20.253c0,0.093-0.091,0.185-0.269,0.266
												l-0.043,0.013c0.061-0.157,0.129-0.309,0.201-0.455C23.288,20.134,23.326,20.193,23.326,20.253L23.326,20.253z"/>
											<g>
												<path fill-rule="evenodd" clip-rule="evenodd" fill="#9B3467" d="M22.354,20.099c-0.032,0.147-0.063,0.296-0.091,0.448
													l-0.329-0.196L22.354,20.099L22.354,20.099L22.354,20.099z"/>
												<g>
													<path fill-rule="evenodd" clip-rule="evenodd" fill="#9B3467" d="M28.981,27.13c0.11-0.137,0.166-0.313,0.166-0.49
														c0-0.165-0.048-0.33-0.144-0.462c0.052,0.033,0.103,0.076,0.146,0.128l0.26,0.311L28.981,27.13L28.981,27.13
														L28.981,27.13z"/>
													<g>
														<path fill-rule="evenodd" clip-rule="evenodd" fill="#9B3467" d="M28.892,27.191
															c-0.001,0.011-0.001,0.021-0.003,0.032l-0.214,0.342l-0.195-0.311c-0.008-0.013-0.015-0.026-0.023-0.041
															c0.064,0.054,0.135,0.08,0.205,0.08C28.742,27.294,28.821,27.259,28.892,27.191L28.892,27.191z"/>
														<g>
															<path fill-rule="evenodd" clip-rule="evenodd" fill="#9B3467" d="M35.337,20.595l3.141-3.13
																c0.001-0.001,0.002-0.002,0.004-0.004c0.002-0.002,0.002-0.002,0.004-0.004l3.14-3.13l3.38-3.368
																c0.107-0.107,0.167-0.252,0.167-0.402c0-0.151-0.06-0.296-0.167-0.402l-6.131-6.111
																c-0.223-0.222-0.584-0.222-0.807,0l-9.362,9.331l0.013-0.303c0.002-0.052-0.003-0.103-0.014-0.151
																c0.917-0.74,1.525-1.852,1.581-3.116c0.034-0.801-0.228-1.535-0.503-2.313c-0.509-1.429-1.143-3.208-0.387-6.467
																c0.051-0.217-0.031-0.443-0.208-0.579s-0.419-0.155-0.616-0.049c-0.268,0.142-6.556,3.553-6.795,9.041
																c-0.049,1.133,0.347,2.217,1.116,3.053c0.082,0.087,0.166,0.171,0.254,0.252c-0.005,0.028-0.01,0.057-0.011,0.087
																l-0.123,2.833L13.95,6.631c-1.092-1.089-2.872-1.089-3.965,0L8.863,7.75c-0.53,0.527-0.821,1.229-0.821,1.976
																c0,0.747,0.292,1.448,0.821,1.976l10.76,10.725L6.291,35.713c-0.106,0.106-0.167,0.251-0.167,0.402
																s0.061,0.295,0.167,0.402l6.132,6.111c0.223,0.222,0.583,0.222,0.807,0l3.239-3.229l0.001-0.001l3.144-3.133
																l2.48-2.473c0.094,1.137,0.191,2.217,0.28,3.197c0.105,1.173,0.196,2.186,0.258,3.026
																c0.034,0.462,0.226,0.904,0.539,1.244c0.374,0.408,0.886,0.645,1.439,0.669c1.047,0.045,1.964-0.698,2.135-1.728
																c0.144-0.864,0.334-1.891,0.556-3.079c0.337-1.813,0.719-3.87,1.055-5.993l6.041,6.021
																c0.06,0.06,0.134,0.105,0.214,0.134l6.25,2.188c0.273,0.097,0.572,0.028,0.777-0.177
																c0.143-0.143,0.22-0.331,0.22-0.524c0-0.083-0.015-0.167-0.043-0.249l-2.197-6.23
																c-0.028-0.081-0.074-0.154-0.134-0.214l-7.836-7.809l0.542-0.541L35.337,20.595L35.337,20.595L35.337,20.595z
																 M22.916,9.485c0.155-3.552,3.392-6.232,5.123-7.418c-0.403,2.794,0.207,4.508,0.668,5.804
																c0.259,0.729,0.464,1.304,0.439,1.883c-0.074,1.712-1.533,3.045-3.25,2.97c-0.457-0.02-0.895-0.136-1.289-0.338
																c-0.015-0.007-0.029-0.015-0.043-0.023c-0.308-0.163-0.588-0.379-0.831-0.643
																C23.17,11.109,22.88,10.315,22.916,9.485L22.916,9.485z M24.439,15.182c-0.092-0.004-0.184,0.015-0.267,0.054
																l0.077-1.759c0.496,0.227,1.036,0.359,1.598,0.383c0.596,0.026,1.169-0.073,1.694-0.272l0.015,0l-0.042,0.973
																l-0.723,0.721L24.439,15.182L24.439,15.182L24.439,15.182z M25.695,16.374l-0.984,0.981l-0.591-0.589
																c-0.022,0.032-0.045,0.064-0.068,0.098c-0.018,0.036-0.039,0.07-0.064,0.101c0.022-0.035,0.043-0.068,0.064-0.101
																c0.02-0.038,0.034-0.079,0.045-0.121l0.023,0.023c0.147-0.2,0.296-0.342,0.441-0.441L25.695,16.374L25.695,16.374
																L25.695,16.374z M14.24,8.527l8.467,8.438l0.875,0.873l0.322,0.32l-0.585,0.584l-0.807,0.803l-0.438-0.437
																L12.85,9.914L14.24,8.527L14.24,8.527L14.24,8.527z M9.67,10.897c-0.314-0.313-0.487-0.729-0.487-1.172
																c0-0.442,0.173-0.859,0.487-1.171l1.122-1.119c0.648-0.646,1.705-0.646,2.353,0l0.289,0.289L9.96,11.187L9.67,10.897
																L9.67,10.897L9.67,10.897z M10.766,11.991l1.277-1.272l9.664,9.631l0.202-0.201c-0.015,0.118-0.03,0.237-0.044,0.359
																l-0.158-0.158l-1.277,1.272L10.766,11.991L10.766,11.991L10.766,11.991z M26.18,36.916
																c-0.221,1.194-0.414,2.225-0.559,3.1c-0.078,0.463-0.49,0.797-0.96,0.776c-0.25-0.011-0.48-0.117-0.648-0.3
																c-0.144-0.155-0.227-0.349-0.243-0.56c-0.063-0.851-0.154-1.867-0.26-3.045c-0.113-1.251-0.24-2.665-0.355-4.151
																l2.749-2.74l0.658-0.656l0.79,0.789C26.986,32.581,26.545,34.953,26.18,36.916L26.18,36.916z M34.559,35.703
																l-5.991-5.97l-1.015-1.012l-0.184-0.185l0.24-0.239l1.036-1.032l-0.25-0.25c-0.011-0.01-0.02-0.021-0.03-0.032
																c0.083,0.043,0.173,0.064,0.263,0.064c0.102,0,0.205-0.028,0.295-0.083c0,0.009-0.001,0.017-0.003,0.026
																c-0.018,0.164-0.037,0.329-0.056,0.493l6.382,6.362L34.559,35.703L34.559,35.703L34.559,35.703z M40.146,37.215
																c-0.02,0.014-0.038,0.031-0.056,0.048l-0.546,0.543l-4.027-1.411l0.834-2.255l2.397-0.893L40.146,37.215
																L40.146,37.215L40.146,37.215z M38.078,32.284l-2.027,0.755l-6.6-6.578l-0.413,0.411
																c-0.002,0.003-0.005,0.006-0.007,0.009c-0.003,0.002-0.006,0.005-0.009,0.007l0.016-0.016
																c0.106-0.109,0.16-0.251,0.16-0.393c0-0.132-0.046-0.264-0.138-0.37c-0.015-0.007-0.031-0.015-0.046-0.021
																c0-0.009,0.001-0.017,0.002-0.026l0.015,0.016c0.01,0.011,0.02,0.021,0.029,0.032
																c0.05,0.027,0.099,0.061,0.141,0.103l0.25,0.25l1.392-1.387L38.078,32.284L38.078,32.284L38.078,32.284z
																 M30.148,20.888c-0.111-0.111-0.257-0.167-0.403-0.167s-0.292,0.055-0.403,0.167
																c-0.055,0.056-0.097,0.12-0.125,0.188c0.005,0.148,0.008,0.299,0.011,0.45c0.028,0.06,0.066,0.116,0.115,0.166
																l1.641,1.636l-1.893,1.885l-0.462,0.461l-0.67-0.667l-2.267-2.26c-0.112-0.11-0.258-0.167-0.403-0.167
																c-0.147,0-0.292,0.056-0.403,0.167c-0.223,0.222-0.223,0.582,0,0.804l2.937,2.927l0.001-0.001v0.003l-0.001-0.002
																l-2.32,2.313l-1.641-1.635c-0.111-0.111-0.257-0.167-0.403-0.167c-0.146,0-0.292,0.055-0.403,0.167
																c-0.223,0.222-0.223,0.582,0,0.804l1.641,1.634l-1.65,1.644l-0.688,0.687l-0.437-0.436l-1.204-1.199
																c-0.112-0.111-0.257-0.167-0.403-0.167s-0.292,0.055-0.403,0.167c-0.222,0.223-0.222,0.582,0,0.804l1.641,1.636
																l-2.338,2.33l-2.938-2.928c-0.111-0.11-0.257-0.167-0.403-0.167s-0.292,0.056-0.403,0.167
																c-0.222,0.223-0.222,0.583,0,0.804l2.938,2.928l-2.337,2.329l-1.641-1.634c-0.111-0.111-0.257-0.167-0.403-0.167
																c-0.146,0-0.292,0.055-0.403,0.167c-0.224,0.222-0.224,0.582,0,0.804l1.641,1.635l-2.434,2.425l-5.326-5.307
																l14.236-14.188l1.257-1.253c0.02-0.176,0.042-0.347,0.064-0.51c0.024,0.063,0.036,0.13,0.036,0.198
																c0,0.104-0.029,0.207-0.086,0.299l4.178-4.164l1.448-1.443l9.838-9.805l5.325,5.308l-2.574,2.565l-1.641-1.635
																c-0.111-0.111-0.257-0.167-0.403-0.167c-0.146,0-0.292,0.055-0.403,0.167c-0.222,0.222-0.222,0.582,0,0.804
																l1.641,1.636l-2.337,2.33l-2.938-2.928c-0.112-0.11-0.258-0.167-0.403-0.167c-0.147,0-0.292,0.056-0.403,0.167
																c-0.223,0.223-0.223,0.582,0,0.804l2.938,2.928l-2.338,2.33l-1.641-1.635c-0.111-0.111-0.257-0.167-0.403-0.167
																c-0.146,0-0.292,0.055-0.403,0.167c-0.223,0.222-0.223,0.582,0,0.804l1.641,1.634l-2.338,2.331L30.148,20.888
																L30.148,20.888L30.148,20.888z"/>
															<g>
																<path fill-rule="evenodd" clip-rule="evenodd" fill="#9B3467" d="M29.269,21.491
																	c-0.203-0.127-0.213-0.272-0.033-0.401C29.251,21.223,29.261,21.356,29.269,21.491L29.269,21.491z"/>
																<g>
																	<path fill-rule="evenodd" clip-rule="evenodd" fill="#9B3467" d="M29.4,26.988
																		c-0.015,0.02-0.031,0.035-0.046,0.056c-0.02,0.015-0.041,0.03-0.056,0.045L29.4,26.988L29.4,26.988L29.4,26.988z"
																		/>
																	<g>
																		<polygon fill-rule="evenodd" clip-rule="evenodd" fill="#9B3467" points="28.292,26.988 28.292,27.008 
																			28.283,26.998 28.292,26.988 																		"/>
																		<g>
																			<path fill-rule="evenodd" clip-rule="evenodd" fill="#9B3467" d="M29.252,26.438
																				c-0.045-0.023-0.096-0.045-0.145-0.066c0.002-0.028,0.005-0.053,0.007-0.081l0.048,0.048
																				C29.194,26.373,29.225,26.405,29.252,26.438L29.252,26.438z"/>
																			<g>
																				<g>
																					<g>
																						<path fill="#F58759" d="M58.048,26.826h-2.483v-1.887h2.483v-2.461h1.948v2.461h2.483v1.887h-2.483v2.461
																							h-1.948V26.826z"/>
																					</g>
																				</g>
																				<g>
																					<g>
																						<g>
																							<defs>
																								<polygon id="SVGID_1_" points="82.752,46.871 133.031,46.871 133.031,0.773 82.752,0.773 82.752,46.871 
																																																	"/>
																							</defs>
																							<clipPath id="SVGID_2_">
																								<use xlink:href="#SVGID_1_"  overflow="visible"/>
																							</clipPath>
																							<g clip-path="url(#SVGID_2_)">
																								<defs>
																									<polygon id="SVGID_3_" points="82.752,46.871 133.03,46.871 133.03,0.773 82.752,0.773 82.752,46.871 
																																																			"/>
																								</defs>
																								<clipPath id="SVGID_4_">
																									<use xlink:href="#SVGID_3_"  overflow="visible"/>
																								</clipPath>
																								<path clip-path="url(#SVGID_4_)" fill="#9B3467" d="M114.568,0.8h-5.696c-1.636,0-2.997,1.174-3.262,2.712
																									h-2.318c-0.308,0-0.558,0.246-0.558,0.549c0,0.304,0.25,0.549,0.558,0.549h2.318
																									c0.266,1.538,1.627,2.712,3.262,2.712h5.696c1.825,0,3.31-1.463,3.31-3.262
																									C117.878,2.264,116.393,0.8,114.568,0.8L114.568,0.8z M114.568,6.225h-5.696
																									c-1.211,0-2.195-0.971-2.195-2.164c0-1.192,0.985-2.163,2.195-2.163h5.696c1.211,0,2.196,0.971,2.196,2.163
																									C116.764,5.255,115.779,6.225,114.568,6.225L114.568,6.225z"/>
																								<path clip-path="url(#SVGID_4_)" fill="#9B3467" d="M101.926,2.548c-0.147-0.103-0.335-0.13-0.505-0.072
																									l-3.142,1.066c-0.225,0.076-0.375,0.285-0.375,0.519c0,0.234,0.151,0.443,0.375,0.519l3.142,1.066
																									c0.059,0.021,0.121,0.03,0.182,0.03c0.115,0,0.228-0.034,0.324-0.102c0.146-0.104,0.233-0.27,0.233-0.447
																									V2.995C102.16,2.818,102.073,2.651,101.926,2.548L101.926,2.548z M101.045,4.358l-0.873-0.296l0.873-0.296
																									V4.358L101.045,4.358L101.045,4.358z"/>
																								<path clip-path="url(#SVGID_4_)" fill="#9B3467" d="M115.413,37.149c-1.055-0.897-2.299-1.371-3.598-1.371
																									h-0.039c-2.528,0.018-4.052,1.68-4.617,2.439h-5.087c-0.034,0-0.069,0.004-0.105,0.01
																									c-1.632,0.115-2.911,1.469-2.911,3.083s1.278,2.968,2.91,3.084c0.037,0.006,0.072,0.01,0.106,0.01h5.086
																									c0.206,0.276,0.539,0.674,1.005,1.071c1.053,0.896,2.301,1.368,3.609,1.368h0.01
																									c3.155-0.006,4.79-2.646,4.857-2.759c0.058-0.096,0.089-0.206,0.089-0.317v-0.021
																									c0-0.342-0.282-0.62-0.629-0.62h-4.494c-0.173-0.323-0.43-0.95-0.43-1.815c0-0.864,0.258-1.492,0.431-1.815
																									h4.493c0.347,0,0.629-0.278,0.629-0.62v-0.021c0-0.111-0.03-0.221-0.088-0.315
																									C116.623,38.511,116.206,37.824,115.413,37.149L115.413,37.149z M107.491,43.165h-5.868
																									c-0.823-0.246-1.397-1.006-1.397-1.854c0-0.847,0.574-1.607,1.396-1.854h5.868
																									c0.219,0,0.426-0.115,0.541-0.302c0.003-0.005,0.336-0.546,0.978-1.081
																									c0.831-0.693,1.765-1.049,2.776-1.056h0.031c0.996,0,1.921,0.353,2.75,1.048
																									c0.071,0.06,0.143,0.124,0.213,0.19h-3.525c-0.195,0-0.376,0.087-0.497,0.238
																									c-0.034,0.044-0.841,1.086-0.841,2.816c0,1.731,0.807,2.773,0.841,2.817
																									c0.121,0.151,0.301,0.238,0.496,0.238h3.516c-0.067,0.063-0.135,0.122-0.203,0.179
																									c-0.84,0.701-1.778,1.058-2.794,1.06c-1.006,0-1.935-0.352-2.762-1.046
																									c-0.636-0.534-0.973-1.083-0.976-1.089C107.921,43.282,107.713,43.165,107.491,43.165L107.491,43.165z
																									 M111.771,46.746L111.771,46.746L111.771,46.746L111.771,46.746L111.771,46.746L111.771,46.746z"/>
																								<path clip-path="url(#SVGID_4_)" fill="#9B3467" d="M104.135,20.269c-0.25-0.269-0.673-0.287-0.947-0.041
																									l-4.59,4.146c-0.139,0.125-0.218,0.301-0.218,0.486s0.079,0.362,0.218,0.487l4.59,4.146
																									c0.129,0.116,0.291,0.174,0.453,0.174c0.181,0,0.362-0.072,0.494-0.215c0.25-0.268,0.232-0.687-0.042-0.932
																									l-4.052-3.658l4.052-3.66C104.366,20.955,104.384,20.537,104.135,20.269L104.135,20.269z"/>
																								<path clip-path="url(#SVGID_4_)" fill="#9B3467" d="M112.594,20.228c-0.272-0.246-0.697-0.228-0.946,0.041
																									c-0.25,0.269-0.232,0.687,0.041,0.932l4.052,3.66l-4.052,3.658c-0.272,0.247-0.292,0.664-0.041,0.932
																									c0.132,0.143,0.312,0.215,0.494,0.215c0.162,0,0.324-0.058,0.453-0.174l4.591-4.146
																									c0.139-0.125,0.218-0.302,0.218-0.487s-0.079-0.362-0.218-0.486L112.594,20.228L112.594,20.228
																									L112.594,20.228z"/>
																								<path clip-path="url(#SVGID_4_)" fill="#9B3467" d="M109.31,20.081c-0.354-0.102-0.727,0.098-0.831,0.448
																									l-2.462,8.291c-0.104,0.35,0.1,0.717,0.456,0.819c0.063,0.018,0.126,0.027,0.188,0.027
																									c0.29,0,0.558-0.188,0.643-0.475l2.462-8.291C109.869,20.549,109.665,20.184,109.31,20.081L109.31,20.081z"
																									/>
																								<path clip-path="url(#SVGID_4_)" fill="#9B3467" d="M123.143,9.486H92.64c-1.244,0-2.254,0.996-2.254,2.221
																									v20.678c0,1.224,1.011,2.221,2.254,2.221h30.503c1.242,0,2.254-0.997,2.254-2.221V11.708
																									C125.396,10.482,124.386,9.486,123.143,9.486L123.143,9.486z M124.057,32.385
																									c0,0.497-0.41,0.901-0.914,0.901H92.64c-0.504,0-0.915-0.404-0.915-0.901V11.708
																									c0-0.497,0.411-0.901,0.915-0.901h30.503c0.504,0,0.914,0.404,0.914,0.901V32.385L124.057,32.385
																									L124.057,32.385z"/>
																								<path clip-path="url(#SVGID_4_)" fill="#9B3467" d="M121.708,15.275H94.074c-0.37,0-0.67,0.295-0.67,0.661
																									c0,0.364,0.3,0.66,0.67,0.66h27.634c0.37,0,0.67-0.296,0.67-0.66
																									C122.377,15.571,122.078,15.275,121.708,15.275L121.708,15.275z"/>
																								<path clip-path="url(#SVGID_4_)" fill="#9B3467" d="M114.438,13.819c0.37,0,0.669-0.295,0.669-0.66
																									s-0.299-0.661-0.669-0.661c-0.371,0-0.67,0.295-0.67,0.661C113.767,13.524,114.067,13.819,114.438,13.819
																									L114.438,13.819z"/>
																								<path clip-path="url(#SVGID_4_)" fill="#9B3467" d="M117.832,13.819c0.371,0,0.67-0.295,0.67-0.66
																									s-0.3-0.661-0.67-0.661s-0.669,0.295-0.669,0.661C117.163,13.524,117.463,13.819,117.832,13.819
																									L117.832,13.819z"/>
																								<path clip-path="url(#SVGID_4_)" fill="#9B3467" d="M121.229,13.819c0.369,0,0.67-0.295,0.67-0.66
																									s-0.3-0.661-0.67-0.661c-0.371,0-0.671,0.295-0.671,0.661C120.558,13.524,120.857,13.819,121.229,13.819
																									L121.229,13.819z"/>
																								<path clip-path="url(#SVGID_4_)" fill="#9B3467" d="M132.696,22.021l-0.856-0.435
																									c-0.045-0.434-0.144-0.861-0.294-1.27l0.587-0.769c0.17-0.222,0.164-0.529-0.012-0.746l-1.176-1.443
																									c-0.117-0.144-0.293-0.228-0.48-0.228c-0.089,0-0.175,0.018-0.255,0.055l-0.905,0.405
																									c-0.342-0.21-0.708-0.382-1.089-0.511l-0.241-0.933c-0.07-0.269-0.316-0.458-0.598-0.458h-0.936v1.214
																									h0.457l0.209,0.806c0.055,0.211,0.222,0.379,0.435,0.436c0.484,0.13,0.937,0.342,1.346,0.632
																									c0.173,0.123,0.42,0.147,0.614,0.06l0.781-0.35l0.577,0.707l-0.508,0.666
																									c-0.134,0.175-0.161,0.409-0.071,0.61c0.215,0.48,0.333,0.992,0.352,1.521
																									c0.007,0.219,0.135,0.418,0.334,0.519l0.74,0.375l-0.206,0.884l-0.845,0.02
																									c-0.22,0.005-0.422,0.126-0.526,0.317c-0.238,0.432-0.551,0.817-0.929,1.143
																									c-0.165,0.143-0.241,0.362-0.199,0.575l0.167,0.828l-0.831,0.391l-0.538-0.635
																									c-0.142-0.167-0.368-0.248-0.586-0.208c-0.251,0.045-0.511,0.069-0.771,0.069v1.215
																									c0.212,0,0.424-0.012,0.631-0.036l0.623,0.736c0.117,0.139,0.29,0.219,0.474,0.219
																									c0.094,0,0.183-0.02,0.266-0.059l1.694-0.797c0.254-0.12,0.394-0.394,0.339-0.667l-0.193-0.959
																									c0.284-0.279,0.536-0.589,0.751-0.924l0.98-0.023c0.281-0.006,0.522-0.2,0.585-0.47l0.422-1.803
																									C133.077,22.426,132.947,22.148,132.696,22.021L132.696,22.021z"/>
																								<path clip-path="url(#SVGID_4_)" fill="#9B3467" d="M129.521,22.145c0-1.673-1.382-3.033-3.079-3.033l0,0
																									v1.136l0,0c1.062,0,1.926,0.851,1.926,1.897s-0.864,1.897-1.926,1.897l0,0v1.137l0,0
																									C128.14,25.178,129.521,23.817,129.521,22.145L129.521,22.145z"/>
																								<path clip-path="url(#SVGID_4_)" fill="#9B3467" d="M83.086,22.021l0.856-0.435
																									c0.045-0.434,0.144-0.861,0.294-1.27l-0.587-0.769c-0.169-0.222-0.164-0.529,0.012-0.746l1.175-1.443
																									c0.118-0.144,0.293-0.228,0.481-0.228c0.089,0,0.174,0.018,0.255,0.055l0.904,0.405
																									c0.342-0.21,0.709-0.382,1.089-0.511l0.242-0.933c0.07-0.269,0.315-0.458,0.597-0.458h0.935v1.214h-0.457
																									l-0.208,0.806c-0.055,0.211-0.222,0.379-0.435,0.436c-0.484,0.13-0.936,0.342-1.345,0.632
																									c-0.174,0.123-0.42,0.147-0.615,0.06l-0.782-0.35l-0.577,0.707l0.508,0.666
																									c0.133,0.175,0.161,0.409,0.071,0.61c-0.215,0.48-0.333,0.992-0.352,1.521
																									c-0.007,0.219-0.135,0.418-0.334,0.519l-0.74,0.375l0.206,0.884l0.844,0.02
																									c0.22,0.005,0.422,0.126,0.526,0.317c0.239,0.432,0.551,0.817,0.929,1.143
																									c0.166,0.143,0.242,0.362,0.2,0.575l-0.167,0.828l0.831,0.391l0.539-0.635
																									c0.141-0.167,0.368-0.248,0.586-0.208c0.25,0.045,0.51,0.069,0.77,0.069v1.215
																									c-0.212,0-0.424-0.012-0.631-0.036l-0.623,0.736c-0.117,0.139-0.29,0.218-0.474,0.218
																									c-0.093,0-0.182-0.02-0.265-0.059l-1.694-0.797c-0.254-0.12-0.394-0.394-0.339-0.667l0.193-0.959
																									c-0.284-0.279-0.537-0.589-0.751-0.924l-0.98-0.023c-0.282-0.007-0.523-0.201-0.586-0.471L82.767,22.7
																									C82.705,22.426,82.836,22.148,83.086,22.021L83.086,22.021z"/>
																								<path clip-path="url(#SVGID_4_)" fill="#9B3467" d="M86.261,22.145c0-1.673,1.381-3.033,3.079-3.033l0,0
																									v1.136l0,0c-1.062,0-1.925,0.851-1.925,1.897s0.864,1.897,1.925,1.897l0,0v1.137l0,0
																									C87.642,25.178,86.261,23.817,86.261,22.145L86.261,22.145z"/>
																							</g>
																						</g>
																					</g>
																					<g>
																						<g>
																							<g>
																								<path fill="#F58759" d="M150.868,20.17h6.777v1.887h-6.777V20.17z M150.868,23.725h6.777v1.887h-6.777
																									V23.725z"/>
																							</g>
																						</g>
																						<g>
																							<g>
																								<g>
																									<defs>
																										<polygon id="SVGID_5_" points="170.106,46.871 209.213,46.871 209.213,0.267 170.106,0.267 
																											170.106,46.871 																										"/>
																									</defs>
																									<clipPath id="SVGID_6_">
																										<use xlink:href="#SVGID_5_"  overflow="visible"/>
																									</clipPath>
																									<g clip-path="url(#SVGID_6_)">
																										<defs>
																											<polygon id="SVGID_7_" points="170.106,46.872 209.215,46.872 209.215,0.267 170.106,0.267 
																												170.106,46.872 																											"/>
																										</defs>
																										<clipPath id="SVGID_8_">
																											<use xlink:href="#SVGID_7_"  overflow="visible"/>
																										</clipPath>
																										<path clip-path="url(#SVGID_8_)" fill="#9B3467" d="M187.524,30.152l0.302,1.782
																											c0.059,0.342,0.351,0.593,0.694,0.596l3.402,0.023c0.002,0,0.003,0,0.005,0
																											c0.341,0,0.635-0.246,0.697-0.585l0.326-1.777c0.677-0.191,1.327-0.457,1.945-0.793l1.459,1.044
																											c0.281,0.201,0.664,0.169,0.908-0.075l2.427-2.422c0.245-0.243,0.281-0.629,0.087-0.915l-1.01-1.484
																											c0.351-0.635,0.623-1.292,0.815-1.962l1.76-0.301c0.339-0.058,0.588-0.354,0.591-0.701l0.023-3.432
																											c0.002-0.347-0.241-0.645-0.579-0.708l-1.753-0.333c-0.189-0.679-0.455-1.339-0.793-1.972l1.028-1.474
																											c0.198-0.283,0.167-0.669-0.075-0.916l-2.393-2.447c-0.241-0.246-0.621-0.284-0.905-0.088l-1.475,1.017
																											c-0.616-0.347-1.263-0.621-1.936-0.818l-0.302-1.784c-0.059-0.342-0.351-0.593-0.694-0.596l-3.402-0.023
																											c-0.002,0-0.003,0-0.005,0c-0.341,0-0.635,0.246-0.697,0.586l-0.326,1.78
																											c-0.671,0.188-1.323,0.453-1.95,0.792l-1.461-1.039c-0.282-0.2-0.663-0.167-0.906,0.076l-2.422,2.413
																											c-0.245,0.243-0.281,0.63-0.087,0.916l1.014,1.488c-0.347,0.625-0.622,1.282-0.823,1.959l-1.759,0.309
																											c-0.338,0.06-0.585,0.354-0.588,0.701l-0.023,3.432c-0.003,0.348,0.242,0.647,0.581,0.709l1.755,0.326
																											c0.188,0.676,0.454,1.336,0.793,1.972l-1.032,1.47c-0.199,0.283-0.168,0.668,0.072,0.916l2.389,2.455
																											c0.241,0.248,0.624,0.285,0.907,0.088l1.476-1.024C186.207,29.678,186.855,29.952,187.524,30.152
																											L187.524,30.152z M185.154,27.893l-1.354,0.94l-1.556-1.599l0.951-1.353
																											c0.163-0.232,0.175-0.539,0.03-0.783c-0.459-0.772-0.787-1.588-0.975-2.425
																											c-0.063-0.28-0.284-0.495-0.563-0.547l-1.616-0.3l0.016-2.232l1.618-0.284
																											c0.277-0.048,0.5-0.259,0.567-0.534c0.206-0.844,0.547-1.655,1.012-2.41
																											c0.149-0.241,0.142-0.549-0.018-0.784l-0.932-1.37l1.577-1.571l1.343,0.954
																											c0.229,0.163,0.532,0.174,0.771,0.029c0.759-0.458,1.564-0.784,2.396-0.971
																											c0.277-0.063,0.491-0.286,0.543-0.569l0.301-1.642l2.215,0.015l0.278,1.646
																											c0.048,0.283,0.259,0.509,0.535,0.577c0.838,0.201,1.636,0.538,2.375,1.002
																											c0.239,0.15,0.543,0.144,0.774-0.017l1.357-0.936l1.56,1.595l-0.947,1.356
																											c-0.162,0.233-0.173,0.54-0.027,0.783c0.456,0.763,0.783,1.576,0.974,2.42
																											c0.063,0.278,0.283,0.492,0.561,0.545l1.615,0.307l-0.016,2.232l-1.625,0.278
																											c-0.282,0.048-0.508,0.263-0.572,0.544c-0.189,0.826-0.524,1.635-0.997,2.404
																											c-0.147,0.241-0.141,0.548,0.02,0.782l0.928,1.366l-1.581,1.578l-1.343-0.959
																											c-0.229-0.166-0.535-0.175-0.776-0.028c-0.742,0.453-1.547,0.781-2.392,0.975
																											c-0.276,0.063-0.488,0.287-0.54,0.568l-0.301,1.638l-2.215-0.015l-0.278-1.642
																											c-0.048-0.282-0.257-0.508-0.532-0.576c-0.833-0.204-1.636-0.543-2.386-1.01
																											C185.689,27.725,185.386,27.733,185.154,27.893L185.154,27.893z"/>
																										<path clip-path="url(#SVGID_8_)" fill="#9B3467" d="M190.303,24.202c1.867,0,3.388-1.536,3.388-3.422
																											c0-1.887-1.521-3.422-3.388-3.422c-1.868,0-3.389,1.535-3.389,3.422
																											C186.914,22.667,188.434,24.202,190.303,24.202L190.303,24.202z M190.303,18.79
																											c1.086,0,1.97,0.892,1.97,1.99c0,1.097-0.883,1.989-1.97,1.989s-1.97-0.892-1.97-1.989
																											C188.332,19.682,189.216,18.79,190.303,18.79L190.303,18.79z"/>
																										<path clip-path="url(#SVGID_8_)" fill="#9B3467" d="M193.622,24.133c-0.276,0.279-0.276,0.733,0,1.013
																											c1.383,1.396,4.891-4.807,1.003-8.734c-0.277-0.279-0.727-0.279-1.003,0c-0.276,0.28-0.276,0.733,0,1.013
																											C195.454,19.275,195.454,22.284,193.622,24.133L193.622,24.133z"/>
																										<path clip-path="url(#SVGID_8_)" fill="#9B3467" d="M186.981,25.147c0.276-0.28,0.276-0.733,0-1.013
																											c-0.887-0.896-1.376-2.087-1.376-3.354c0-1.268,0.489-2.458,1.376-3.354c0.276-0.279,0.276-0.733,0-1.013
																											c-0.276-0.279-0.726-0.279-1.003,0c-1.155,1.166-1.791,2.718-1.791,4.367
																											c0,1.649,0.636,3.201,1.791,4.367C186.256,25.426,186.704,25.426,186.981,25.147L186.981,25.147z"/>
																										<path clip-path="url(#SVGID_8_)" fill="#9B3467" d="M190.395,4.292c0.392,0,0.709-0.321,0.709-0.716
																											V1.003c0-0.396-0.318-0.716-0.709-0.716c-0.393,0-0.709,0.321-0.709,0.716v2.573
																											C189.686,3.972,190.002,4.292,190.395,4.292L190.395,4.292z"/>
																										<path clip-path="url(#SVGID_8_)" fill="#9B3467" d="M181.264,6.239c0.195,0.341,0.628,0.46,0.969,0.263
																											c0.34-0.198,0.456-0.636,0.26-0.979l-1.272-2.228c-0.196-0.343-0.63-0.46-0.969-0.262
																											c-0.339,0.198-0.456,0.635-0.26,0.979L181.264,6.239L181.264,6.239L181.264,6.239z"/>
																										<path clip-path="url(#SVGID_8_)" fill="#9B3467" d="M173.084,11.512l2.206,1.287
																											c0.341,0.199,0.773,0.078,0.969-0.263c0.195-0.343,0.079-0.78-0.26-0.979l-2.206-1.286
																											c-0.341-0.198-0.772-0.081-0.969,0.262C172.628,10.875,172.744,11.314,173.084,11.512L173.084,11.512z"/>
																										<path clip-path="url(#SVGID_8_)" fill="#9B3467" d="M207.705,30.047l-2.205-1.285
																											c-0.341-0.198-0.773-0.081-0.969,0.262c-0.196,0.343-0.08,0.781,0.26,0.979l2.205,1.286
																											c0.342,0.199,0.774,0.078,0.969-0.263C208.16,30.683,208.044,30.245,207.705,30.047L207.705,30.047z"/>
																										<path clip-path="url(#SVGID_8_)" fill="#9B3467" d="M174.071,20.78c0-0.396-0.317-0.716-0.709-0.716
																											h-2.547c-0.393,0-0.709,0.321-0.709,0.716c0,0.396,0.317,0.716,0.709,0.716h2.546
																											C173.754,21.496,174.071,21.175,174.071,20.78L174.071,20.78z"/>
																										<path clip-path="url(#SVGID_8_)" fill="#9B3467" d="M208.506,20.063h-2.368
																											c-0.393,0-0.709,0.321-0.709,0.716c0,0.396,0.317,0.716,0.709,0.716h2.368
																											c0.392,0,0.709-0.321,0.709-0.716S208.897,20.063,208.506,20.063L208.506,20.063z"/>
																										<path clip-path="url(#SVGID_8_)" fill="#9B3467" d="M175.29,28.761l-2.206,1.285
																											c-0.339,0.198-0.456,0.636-0.26,0.979c0.195,0.341,0.628,0.46,0.969,0.263l2.206-1.286
																											c0.338-0.198,0.455-0.636,0.26-0.979C176.063,28.681,175.629,28.563,175.29,28.761L175.29,28.761z"/>
																										<path clip-path="url(#SVGID_8_)" fill="#9B3467" d="M205.5,12.799l2.205-1.287
																											c0.34-0.198,0.456-0.636,0.26-0.979c-0.195-0.343-0.629-0.46-0.969-0.262l-2.205,1.286
																											c-0.34,0.198-0.456,0.636-0.26,0.979C204.726,12.877,205.158,12.997,205.5,12.799L205.5,12.799z"/>
																										<path clip-path="url(#SVGID_8_)" fill="#9B3467" d="M198.556,6.501c0.342,0.199,0.774,0.078,0.969-0.263
																											l1.274-2.228c0.195-0.343,0.079-0.781-0.26-0.979c-0.341-0.198-0.774-0.081-0.97,0.262l-1.273,2.228
																											C198.101,5.866,198.217,6.303,198.556,6.501L198.556,6.501z"/>
																										<path clip-path="url(#SVGID_8_)" fill="#9B3467" d="M200.339,36.541c0.392,0,0.709-0.321,0.709-0.716
																											c0-0.396-0.318-0.716-0.709-0.716h-2.55v-1.262c4.549-2.689,7.358-7.611,7.358-12.948
																											c0-8.266-6.658-14.991-14.843-14.991c-8.187,0-14.848,6.725-14.848,14.991
																											c0,5.345,2.811,10.267,7.364,12.949v1.261h-2.557c-0.392,0-0.709,0.321-0.709,0.716
																											c0,0.396,0.318,0.716,0.709,0.716h2.557v1.79h-2.557c-0.392,0-0.709,0.32-0.709,0.716
																											s0.318,0.716,0.709,0.716h2.557v2.126c0,0.396,0.318,0.716,0.709,0.716h1.051v2.103
																											c0,1.183,0.952,2.146,2.123,2.146h7.194c1.172,0,2.124-0.963,2.124-2.146v-2.103h1.057
																											c0.392,0,0.709-0.321,0.709-0.716v-2.126h2.55c0.392,0,0.709-0.321,0.709-0.716
																											c0-0.396-0.318-0.716-0.709-0.716h-2.55v-1.79H200.339L200.339,36.541L200.339,36.541z M183.871,32.8
																											c-4.315-2.378-6.995-6.938-6.995-11.902c0-7.476,6.024-13.558,13.429-13.558
																											c7.401,0,13.424,6.082,13.424,13.558c0,4.956-2.679,9.516-6.99,11.902
																											c-0.227,0.126-0.368,0.366-0.368,0.628v1.679h-12.13v-1.679C184.24,33.166,184.099,32.925,183.871,32.8
																											L183.871,32.8z M194.604,44.707c0,0.393-0.316,0.712-0.705,0.712h-7.194
																											c-0.389,0-0.705-0.319-0.705-0.712v-2.103h8.605L194.604,44.707L194.604,44.707L194.604,44.707z
																											 M196.37,41.172c-2.326,0-9.798,0-12.13,0v-1.41h12.13V41.172L196.37,41.172L196.37,41.172z
																											 M196.37,38.33h-12.13v-1.79h12.13V38.33L196.37,38.33L196.37,38.33z"/>
																									</g>
																								</g>
																							</g>
																							<g>
																								<g>
																									<g>
																										<path fill="#9B3467" d="M12.82,61.244c-1.058,0-1.587-0.744-1.587-2.232c0-1.103,0.165-2.194,0.496-3.276
																											c0.331-1.082,0.759-1.919,1.286-2.513c0.526-0.594,1.102-0.891,1.726-0.891
																											c0.365,0,0.671,0.11,0.917,0.332c0.246,0.222,0.401,0.512,0.464,0.871h0.048l0.992-4.765h0.754
																											l-2.619,12.315h-0.603l0.143-1.234h-0.032C14.201,60.78,13.54,61.244,12.82,61.244z M12.971,60.587
																											c0.476,0,0.92-0.27,1.333-0.811c0.413-0.541,0.762-1.333,1.048-2.375s0.428-2.041,0.428-2.996
																											c0-0.448-0.084-0.787-0.254-1.017s-0.441-0.345-0.817-0.345c-0.465,0-0.896,0.269-1.293,0.804
																											c-0.396,0.535-0.73,1.32-1,2.354c-0.27,1.034-0.405,2.008-0.405,2.921c0,0.48,0.07,0.845,0.21,1.092
																											C12.361,60.463,12.611,60.587,12.971,60.587z"/>
																										<path fill="#9B3467" d="M19.846,61.244c-0.635,0-1.129-0.22-1.484-0.661
																											c-0.354-0.44-0.532-1.057-0.532-1.848c0-1.129,0.16-2.188,0.48-3.178c0.32-0.989,0.754-1.774,1.302-2.355
																											c0.547-0.58,1.123-0.87,1.726-0.87c0.46,0,0.816,0.133,1.067,0.399c0.251,0.267,0.377,0.669,0.377,1.207
																											c0,0.649-0.157,1.217-0.472,1.702s-0.765,0.847-1.349,1.084s-1.281,0.356-2.091,0.356h-0.095
																											c-0.111,0.522-0.167,1.048-0.167,1.575c0,1.271,0.486,1.907,1.46,1.907c0.249,0,0.483-0.034,0.702-0.103
																											c0.22-0.068,0.47-0.185,0.75-0.349v0.76C21.076,61.12,20.518,61.244,19.846,61.244z M21.211,53.028
																											c-0.471,0-0.918,0.312-1.341,0.935c-0.423,0.622-0.757,1.445-1,2.469c2.111,0,3.167-0.836,3.167-2.509
																											c0-0.279-0.06-0.499-0.179-0.657S21.523,53.028,21.211,53.028z"/>
																										<path fill="#9B3467" d="M24.294,61.244c-0.296,0-0.606-0.037-0.929-0.11
																											c-0.323-0.074-0.542-0.156-0.659-0.246v-0.87c0.127,0.127,0.34,0.244,0.639,0.352
																											c0.299,0.108,0.599,0.163,0.9,0.163c0.513,0,0.913-0.149,1.198-0.447s0.429-0.722,0.429-1.271
																											c0-0.232-0.029-0.444-0.087-0.638c-0.058-0.192-0.134-0.37-0.226-0.534
																											c-0.093-0.163-0.298-0.419-0.615-0.768c-0.344-0.374-0.577-0.658-0.698-0.851s-0.217-0.399-0.286-0.621
																											s-0.103-0.478-0.103-0.769c0-0.686,0.211-1.241,0.635-1.666s0.971-0.637,1.643-0.637
																											c0.72,0,1.299,0.163,1.738,0.49l-0.405,0.681c-0.375-0.306-0.831-0.459-1.365-0.459
																											c-0.434,0-0.792,0.137-1.075,0.408c-0.283,0.271-0.424,0.635-0.424,1.088c0,0.312,0.057,0.594,0.17,0.847
																											c0.114,0.254,0.329,0.555,0.646,0.902c0.381,0.412,0.639,0.724,0.774,0.935s0.242,0.44,0.321,0.688
																											c0.08,0.248,0.119,0.522,0.119,0.823c0,0.802-0.202,1.421-0.607,1.855
																											C25.624,61.026,25.045,61.244,24.294,61.244z"/>
																										<path fill="#9B3467" d="M28.347,61.086h-0.746l1.833-8.588h0.746L28.347,61.086z M29.807,50.354
																											c0-0.27,0.061-0.502,0.183-0.697c0.122-0.194,0.278-0.292,0.468-0.292c0.249,0,0.373,0.152,0.373,0.459
																											c0,0.301-0.059,0.549-0.175,0.743c-0.116,0.195-0.27,0.293-0.46,0.293
																											C29.937,50.859,29.807,50.69,29.807,50.354z"/>
																										<path fill="#9B3467" d="M36.126,52.498l-0.111,0.53l-1.087,0.135c0.159,0.301,0.238,0.678,0.238,1.132
																											c0,0.575-0.118,1.167-0.353,1.776c-0.235,0.61-0.547,1.088-0.937,1.433
																											c-0.389,0.346-0.818,0.519-1.29,0.519h-0.198l-0.174-0.016c-0.662,0.459-0.992,0.876-0.992,1.251
																											c0,0.121,0.021,0.22,0.063,0.297c0.042,0.076,0.108,0.14,0.198,0.189c0.09,0.051,0.402,0.157,0.937,0.32
																											c0.667,0.206,1.135,0.466,1.405,0.78c0.27,0.313,0.405,0.734,0.405,1.263c0,0.849-0.281,1.54-0.841,2.073
																											c-0.561,0.533-1.283,0.8-2.167,0.8c-0.698,0-1.239-0.177-1.623-0.53
																											c-0.384-0.354-0.576-0.853-0.576-1.496c0-0.555,0.172-1.06,0.516-1.516
																											c0.344-0.457,0.833-0.827,1.468-1.112c-0.333-0.222-0.5-0.52-0.5-0.895c0-0.274,0.085-0.541,0.254-0.8
																											c0.169-0.258,0.473-0.543,0.913-0.854c-0.455-0.38-0.683-0.931-0.683-1.654
																											c0-0.648,0.131-1.283,0.393-1.903c0.262-0.62,0.593-1.09,0.992-1.409s0.842-0.479,1.329-0.479
																											c0.338,0,0.598,0.056,0.778,0.166H36.126z M29.738,62.898c0,0.518,0.131,0.891,0.393,1.12
																											c0.262,0.229,0.646,0.344,1.154,0.344c0.646,0,1.181-0.195,1.607-0.585
																											c0.426-0.391,0.639-0.9,0.639-1.528c0-0.337-0.107-0.63-0.321-0.878s-0.541-0.436-0.98-0.563
																											l-0.714-0.189c-0.508,0.169-0.931,0.467-1.27,0.895C29.908,61.94,29.738,62.402,29.738,62.898z
																											 M31.722,56.242c0,0.391,0.075,0.688,0.226,0.891s0.369,0.305,0.655,0.305
																											c0.328,0,0.625-0.139,0.893-0.416s0.488-0.693,0.663-1.25c0.175-0.558,0.262-1.092,0.262-1.604
																											c0-0.813-0.286-1.219-0.857-1.219c-0.323,0-0.62,0.147-0.893,0.443s-0.499,0.729-0.678,1.302
																											C31.812,55.268,31.722,55.783,31.722,56.242z"/>
																										<path fill="#9B3467" d="M38.684,61.086l1.365-6.451c0.053-0.211,0.079-0.433,0.079-0.664
																											c0-0.597-0.265-0.895-0.793-0.895c-0.555,0-1.021,0.267-1.396,0.799c-0.376,0.533-0.68,1.364-0.913,2.493
																											l-1.008,4.718h-0.746l1.817-8.588h0.635l-0.198,1.195h0.032c0.492-0.907,1.132-1.361,1.92-1.361
																											c0.444,0,0.788,0.128,1.031,0.384c0.244,0.256,0.365,0.624,0.365,1.104c0,0.295-0.037,0.614-0.111,0.957
																											l-1.333,6.309H38.684z"/>
																									</g>
																								</g>
																								<g>
																									<g>
																										<g>
																											<path fill="#9B3467" d="M85.642,60.453v0.633c-0.296,0.105-0.574,0.158-0.833,0.158
																												c-0.672,0-1.008-0.398-1.008-1.195c0-0.2,0.035-0.464,0.103-0.791l1.294-6.095H84.42l0.095-0.443
																												l0.817-0.222l0.635-2.042h0.547l-0.436,2.042h1.135l-0.143,0.665h-1.135l-1.254,5.881
																												c-0.074,0.338-0.111,0.617-0.111,0.839c0,0.237,0.043,0.407,0.131,0.511
																												c0.087,0.103,0.226,0.154,0.417,0.154C85.282,60.548,85.457,60.516,85.642,60.453z"/>
																											<path fill="#9B3467" d="M89.051,61.244c-0.635,0-1.129-0.22-1.484-0.661
																												c-0.354-0.44-0.532-1.057-0.532-1.848c0-1.129,0.16-2.188,0.48-3.178
																												c0.32-0.989,0.754-1.774,1.302-2.355c0.547-0.58,1.123-0.87,1.726-0.87c0.46,0,0.816,0.133,1.067,0.399
																												c0.251,0.267,0.377,0.669,0.377,1.207c0,0.649-0.157,1.217-0.472,1.702s-0.765,0.847-1.349,1.084
																												s-1.281,0.356-2.091,0.356h-0.095c-0.111,0.522-0.167,1.048-0.167,1.575c0,1.271,0.486,1.907,1.46,1.907
																												c0.249,0,0.483-0.034,0.702-0.103c0.22-0.068,0.47-0.185,0.75-0.349v0.76
																												C90.281,61.12,89.723,61.244,89.051,61.244z M90.416,53.028c-0.471,0-0.918,0.312-1.341,0.935
																												c-0.423,0.622-0.757,1.445-1,2.469c2.111,0,3.167-0.836,3.167-2.509c0-0.279-0.06-0.499-0.179-0.657
																												S90.728,53.028,90.416,53.028z"/>
																											<path fill="#9B3467" d="M94.523,61.244c-0.614,0-1.083-0.211-1.409-0.633
																												c-0.325-0.423-0.488-1.032-0.488-1.829c0-1.145,0.167-2.235,0.5-3.272
																												c0.333-1.037,0.764-1.825,1.293-2.366c0.529-0.541,1.122-0.812,1.777-0.812
																												c0.455,0,0.836,0.087,1.143,0.261l-0.31,0.681c-0.281-0.152-0.58-0.229-0.897-0.229
																												c-0.487,0-0.932,0.256-1.337,0.769c-0.405,0.512-0.738,1.242-1,2.192
																												c-0.262,0.949-0.393,1.881-0.393,2.794c0,1.177,0.423,1.765,1.27,1.765c0.333,0,0.711-0.105,1.135-0.316
																												v0.681C95.412,61.139,94.983,61.244,94.523,61.244z"/>
																											<path fill="#9B3467" d="M100.266,61.086l1.365-6.451c0.053-0.211,0.08-0.433,0.08-0.664
																												c0-0.597-0.265-0.895-0.793-0.895c-0.556,0-1.021,0.267-1.397,0.799
																												c-0.375,0.533-0.68,1.364-0.913,2.493L97.6,61.086h-0.746l2.611-12.315h0.753l-0.785,3.593l-0.326,1.33
																												h0.032c0.492-0.907,1.132-1.361,1.92-1.361c0.444,0,0.788,0.128,1.032,0.384
																												c0.243,0.256,0.365,0.624,0.365,1.104c0,0.295-0.037,0.614-0.111,0.957l-1.333,6.309H100.266z"/>
																											<path fill="#9B3467" d="M106.358,61.086l1.365-6.451c0.053-0.211,0.079-0.433,0.079-0.664
																												c0-0.597-0.265-0.895-0.793-0.895c-0.555,0-1.021,0.267-1.396,0.799
																												c-0.376,0.533-0.68,1.364-0.913,2.493l-1.008,4.718h-0.746l1.817-8.588h0.635l-0.198,1.195h0.032
																												c0.492-0.907,1.132-1.361,1.92-1.361c0.444,0,0.788,0.128,1.031,0.384
																												c0.244,0.256,0.365,0.624,0.365,1.104c0,0.295-0.037,0.614-0.111,0.957l-1.333,6.309H106.358z"/>
																											<path fill="#9B3467" d="M111.181,61.244c-0.566,0-1-0.211-1.302-0.633
																												c-0.301-0.423-0.452-1.021-0.452-1.797c0-0.749,0.095-1.554,0.286-2.414s0.439-1.59,0.746-2.188
																												c0.307-0.599,0.667-1.063,1.079-1.39s0.873-0.49,1.381-0.49c0.561,0,0.999,0.218,1.313,0.653
																												c0.314,0.435,0.472,1.048,0.472,1.84c0,0.733-0.097,1.521-0.29,2.362
																												c-0.193,0.842-0.446,1.564-0.758,2.169s-0.677,1.07-1.095,1.397
																												C112.143,61.081,111.683,61.244,111.181,61.244z M110.205,58.965c0,1.065,0.357,1.599,1.071,1.599
																												c0.471,0,0.904-0.268,1.301-0.804c0.397-0.535,0.721-1.291,0.972-2.268
																												c0.251-0.976,0.377-1.918,0.377-2.825c0-1.082-0.368-1.623-1.103-1.623c-0.444,0-0.861,0.259-1.25,0.776
																												c-0.389,0.517-0.714,1.271-0.976,2.264S110.205,58.036,110.205,58.965z"/>
																											<path fill="#9B3467" d="M115.908,61.086h-0.746l2.627-12.315h0.754L115.908,61.086z"/>
																											<path fill="#9B3467" d="M119.84,61.244c-0.566,0-1-0.211-1.302-0.633
																												c-0.302-0.423-0.452-1.021-0.452-1.797c0-0.749,0.096-1.554,0.286-2.414s0.438-1.59,0.745-2.188
																												s0.667-1.063,1.08-1.39c0.412-0.327,0.872-0.49,1.38-0.49c0.562,0,0.999,0.218,1.313,0.653
																												c0.315,0.435,0.473,1.048,0.473,1.84c0,0.733-0.097,1.521-0.29,2.362
																												c-0.193,0.842-0.445,1.564-0.758,2.169s-0.677,1.07-1.095,1.397S120.342,61.244,119.84,61.244z
																												 M118.863,58.965c0,1.065,0.357,1.599,1.071,1.599c0.471,0,0.905-0.268,1.302-0.804
																												c0.396-0.535,0.721-1.291,0.972-2.268c0.252-0.976,0.377-1.918,0.377-2.825
																												c0-1.082-0.367-1.623-1.103-1.623c-0.444,0-0.861,0.259-1.25,0.776
																												c-0.389,0.517-0.714,1.271-0.976,2.264C118.994,57.076,118.863,58.036,118.863,58.965z"/>
																											<path fill="#9B3467" d="M129.765,52.498l-0.11,0.53l-1.088,0.135c0.159,0.301,0.238,0.678,0.238,1.132
																												c0,0.575-0.117,1.167-0.353,1.776c-0.236,0.61-0.548,1.088-0.937,1.433
																												c-0.389,0.346-0.819,0.519-1.29,0.519h-0.198l-0.175-0.016c-0.661,0.459-0.991,0.876-0.991,1.251
																												c0,0.121,0.021,0.22,0.063,0.297c0.042,0.076,0.108,0.14,0.198,0.189c0.09,0.051,0.401,0.157,0.937,0.32
																												c0.666,0.206,1.135,0.466,1.404,0.78c0.27,0.313,0.404,0.734,0.404,1.263c0,0.849-0.28,1.54-0.841,2.073
																												s-1.283,0.8-2.166,0.8c-0.699,0-1.239-0.177-1.623-0.53s-0.575-0.853-0.575-1.496
																												c0-0.555,0.172-1.06,0.516-1.516c0.344-0.457,0.833-0.827,1.468-1.112c-0.333-0.222-0.5-0.52-0.5-0.895
																												c0-0.274,0.085-0.541,0.254-0.8c0.17-0.258,0.474-0.543,0.913-0.854
																												c-0.455-0.38-0.683-0.931-0.683-1.654c0-0.648,0.131-1.283,0.393-1.903s0.593-1.09,0.992-1.409
																												s0.843-0.479,1.329-0.479c0.339,0,0.598,0.056,0.777,0.166H129.765z M123.377,62.898
																												c0,0.518,0.131,0.891,0.393,1.12s0.647,0.344,1.155,0.344c0.645,0,1.181-0.195,1.606-0.585
																												c0.426-0.391,0.639-0.9,0.639-1.528c0-0.337-0.106-0.63-0.321-0.878
																												c-0.214-0.248-0.541-0.436-0.979-0.563l-0.715-0.189c-0.508,0.169-0.931,0.467-1.27,0.895
																												C123.546,61.94,123.377,62.402,123.377,62.898z M125.361,56.242c0,0.391,0.075,0.688,0.226,0.891
																												s0.369,0.305,0.654,0.305c0.328,0,0.626-0.139,0.894-0.416c0.267-0.277,0.487-0.693,0.662-1.25
																												c0.175-0.558,0.262-1.092,0.262-1.604c0-0.813-0.285-1.219-0.856-1.219c-0.323,0-0.62,0.147-0.893,0.443
																												c-0.273,0.296-0.499,0.729-0.679,1.302C125.451,55.268,125.361,55.783,125.361,56.242z"/>
																											<path fill="#9B3467" d="M127.8,64.98c-0.243,0-0.48-0.051-0.714-0.15v-0.681
																												c0.196,0.084,0.429,0.126,0.698,0.126c0.286,0,0.53-0.114,0.734-0.344
																												c0.203-0.229,0.453-0.688,0.75-1.373l0.563-1.346l-0.063-8.715h0.746v5.058
																												c0,0.85-0.032,1.702-0.096,2.557h0.048c0.28-0.828,0.537-1.524,0.77-2.09l2.285-5.524h0.786l-4.46,10.52
																												c-0.307,0.728-0.614,1.237-0.921,1.527S128.244,64.98,127.8,64.98z"/>
																										</g>
																									</g>
																									<g>
																										<g>
																											<g>
																												<path fill="#9B3467" d="M171.466,52.332c1.063,0,1.596,0.747,1.596,2.24c0,1.107-0.167,2.201-0.5,3.28
																													c-0.334,1.079-0.762,1.914-1.286,2.505c-0.523,0.592-1.098,0.887-1.722,0.887
																													c-0.359,0-0.664-0.108-0.912-0.324c-0.249-0.217-0.405-0.507-0.469-0.871h-0.048l-0.991,4.765h-0.754
																													l2.618-12.315h0.651l-0.199,1.227h0.04C170.094,52.796,170.752,52.332,171.466,52.332z M171.323,52.997
																													c-0.497,0-0.955,0.275-1.373,0.827c-0.418,0.551-0.762,1.327-1.031,2.327s-0.405,1.979-0.405,2.94
																													c0,0.981,0.357,1.472,1.071,1.472c0.466,0,0.898-0.273,1.298-0.819s0.732-1.336,1-2.37
																													c0.267-1.034,0.4-2.008,0.4-2.921c0-0.48-0.07-0.843-0.21-1.088
																													C171.933,53.119,171.683,52.997,171.323,52.997z"/>
																												<path fill="#9B3467" d="M175.892,61.244c-0.566,0-1-0.211-1.302-0.633
																													c-0.302-0.423-0.452-1.021-0.452-1.797c0-0.749,0.096-1.554,0.286-2.414s0.438-1.59,0.745-2.188
																													s0.667-1.063,1.08-1.39c0.412-0.327,0.872-0.49,1.38-0.49c0.562,0,0.999,0.218,1.313,0.653
																													c0.315,0.435,0.473,1.048,0.473,1.84c0,0.733-0.097,1.521-0.29,2.362
																													c-0.193,0.842-0.445,1.564-0.758,2.169s-0.677,1.07-1.095,1.397S176.394,61.244,175.892,61.244z
																													 M174.915,58.965c0,1.065,0.357,1.599,1.071,1.599c0.471,0,0.905-0.268,1.302-0.804
																													c0.396-0.535,0.721-1.291,0.972-2.268c0.252-0.976,0.377-1.918,0.377-2.825
																													c0-1.082-0.367-1.623-1.103-1.623c-0.444,0-0.861,0.259-1.25,0.776
																													c-0.389,0.517-0.714,1.271-0.976,2.264C175.046,57.076,174.915,58.036,174.915,58.965z"/>
																												<path fill="#9B3467" d="M181.119,61.244c-0.297,0-0.606-0.037-0.929-0.11
																													c-0.322-0.074-0.542-0.156-0.658-0.246v-0.87c0.127,0.127,0.34,0.244,0.639,0.352
																													c0.299,0.108,0.599,0.163,0.9,0.163c0.513,0,0.913-0.149,1.198-0.447
																													c0.286-0.298,0.429-0.722,0.429-1.271c0-0.232-0.029-0.444-0.087-0.638
																													c-0.059-0.192-0.134-0.37-0.227-0.534c-0.093-0.163-0.298-0.419-0.615-0.768
																													c-0.344-0.374-0.576-0.658-0.698-0.851s-0.217-0.399-0.285-0.621c-0.069-0.222-0.104-0.478-0.104-0.769
																													c0-0.686,0.212-1.241,0.635-1.666s0.971-0.637,1.643-0.637c0.72,0,1.299,0.163,1.738,0.49l-0.405,0.681
																													c-0.375-0.306-0.83-0.459-1.364-0.459c-0.435,0-0.793,0.137-1.075,0.408
																													c-0.283,0.271-0.425,0.635-0.425,1.088c0,0.312,0.057,0.594,0.17,0.847
																													c0.114,0.254,0.33,0.555,0.647,0.902c0.381,0.412,0.639,0.724,0.773,0.935s0.242,0.44,0.321,0.688
																													s0.119,0.522,0.119,0.823c0,0.802-0.202,1.421-0.607,1.855
																													C182.448,61.026,181.87,61.244,181.119,61.244z"/>
																												<path fill="#9B3467" d="M185.703,61.244c-0.297,0-0.606-0.037-0.929-0.11
																													c-0.322-0.074-0.542-0.156-0.658-0.246v-0.87c0.127,0.127,0.34,0.244,0.639,0.352
																													c0.299,0.108,0.599,0.163,0.9,0.163c0.513,0,0.913-0.149,1.198-0.447
																													c0.286-0.298,0.429-0.722,0.429-1.271c0-0.232-0.029-0.444-0.087-0.638
																													c-0.059-0.192-0.134-0.37-0.227-0.534c-0.093-0.163-0.298-0.419-0.615-0.768
																													c-0.344-0.374-0.576-0.658-0.698-0.851s-0.217-0.399-0.285-0.621c-0.069-0.222-0.104-0.478-0.104-0.769
																													c0-0.686,0.212-1.241,0.635-1.666s0.971-0.637,1.643-0.637c0.72,0,1.299,0.163,1.738,0.49l-0.405,0.681
																													c-0.375-0.306-0.83-0.459-1.364-0.459c-0.435,0-0.793,0.137-1.075,0.408
																													c-0.283,0.271-0.425,0.635-0.425,1.088c0,0.312,0.057,0.594,0.17,0.847
																													c0.114,0.254,0.33,0.555,0.647,0.902c0.381,0.412,0.639,0.724,0.773,0.935s0.242,0.44,0.321,0.688
																													s0.119,0.522,0.119,0.823c0,0.802-0.202,1.421-0.607,1.855
																													C187.032,61.026,186.454,61.244,185.703,61.244z"/>
																												<path fill="#9B3467" d="M189.755,61.086h-0.745l1.833-8.588h0.746L189.755,61.086z M191.216,50.354
																													c0-0.27,0.061-0.502,0.182-0.697c0.122-0.194,0.278-0.292,0.469-0.292c0.248,0,0.373,0.152,0.373,0.459
																													c0,0.301-0.059,0.549-0.175,0.743c-0.116,0.195-0.27,0.293-0.46,0.293
																													C191.345,50.859,191.216,50.69,191.216,50.354z"/>
																												<path fill="#9B3467" d="M195.876,52.332c1.063,0,1.595,0.747,1.595,2.24c0,1.113-0.166,2.209-0.5,3.288
																													c-0.333,1.079-0.763,1.913-1.289,2.501c-0.526,0.589-1.099,0.883-1.718,0.883
																													c-0.36,0-0.664-0.108-0.913-0.324c-0.248-0.217-0.404-0.507-0.468-0.871h-0.056l-0.357,1.037h-0.579
																													l2.595-12.315h0.754l-0.944,4.393l-0.166,0.641h0.031c0.275-0.479,0.587-0.845,0.937-1.096
																													S195.506,52.332,195.876,52.332z M195.733,52.997c-0.497,0-0.955,0.275-1.373,0.827
																													c-0.418,0.551-0.762,1.327-1.031,2.327c-0.271,1-0.405,1.979-0.405,2.94
																													c0,0.981,0.357,1.472,1.071,1.472c0.466,0,0.898-0.273,1.298-0.819s0.732-1.336,1-2.37
																													c0.267-1.034,0.4-2.008,0.4-2.921c0-0.48-0.07-0.843-0.21-1.088
																													C196.343,53.119,196.093,52.997,195.733,52.997z"/>
																												<path fill="#9B3467" d="M198.904,61.086h-0.745l1.833-8.588h0.746L198.904,61.086z M200.365,50.354
																													c0-0.27,0.061-0.502,0.182-0.697c0.122-0.194,0.278-0.292,0.469-0.292c0.248,0,0.373,0.152,0.373,0.459
																													c0,0.301-0.059,0.549-0.175,0.743c-0.116,0.195-0.27,0.293-0.46,0.293
																													C200.494,50.859,200.365,50.69,200.365,50.354z"/>
																												<path fill="#9B3467" d="M201.487,61.086h-0.746l2.627-12.315h0.754L201.487,61.086z"/>
																												<path fill="#9B3467" d="M204.006,61.086h-0.745l1.833-8.588h0.746L204.006,61.086z M205.467,50.354
																													c0-0.27,0.061-0.502,0.182-0.697c0.122-0.194,0.278-0.292,0.469-0.292c0.248,0,0.373,0.152,0.373,0.459
																													c0,0.301-0.059,0.549-0.175,0.743c-0.116,0.195-0.27,0.293-0.46,0.293
																													C205.596,50.859,205.467,50.69,205.467,50.354z"/>
																												<path fill="#9B3467" d="M207.873,60.453v0.633c-0.296,0.105-0.574,0.158-0.833,0.158
																													c-0.672,0-1.008-0.398-1.008-1.195c0-0.2,0.034-0.464,0.104-0.791l1.293-6.095h-0.777l0.095-0.443
																													l0.817-0.222l0.635-2.042h0.548l-0.437,2.042h1.135l-0.143,0.665h-1.135l-1.254,5.881
																													c-0.074,0.338-0.111,0.617-0.111,0.839c0,0.237,0.044,0.407,0.131,0.511
																													c0.088,0.103,0.227,0.154,0.417,0.154C207.514,60.548,207.688,60.516,207.873,60.453z"/>
																												<path fill="#9B3467" d="M207.782,64.98c-0.243,0-0.48-0.051-0.714-0.15v-0.681
																													c0.196,0.084,0.429,0.126,0.698,0.126c0.286,0,0.53-0.114,0.734-0.344
																													c0.203-0.229,0.453-0.688,0.75-1.373l0.563-1.346l-0.063-8.715h0.746v5.058
																													c0,0.85-0.032,1.702-0.096,2.557h0.048c0.28-0.828,0.537-1.524,0.77-2.09l2.285-5.524h0.786
																													l-4.46,10.52c-0.307,0.728-0.614,1.237-0.921,1.527S208.227,64.98,207.782,64.98z"/>
																											</g>
																										</g>
																									</g>
																								</g>
																							</g>
																						</g>
																					</g>
																				</g>
																			</g>
																		</g>
																	</g>
																</g>
															</g>
														</g>
													</g>
												</g>
											</g>
										</g>
									</g>
								</g>
							</g>
						</g>
					</g>
				</g>
			</g>
		</g>
	</g>
</g>
</svg>
