<?xml version="1.0" encoding="iso-8859-1"?>
<!-- Generator: Adobe Illustrator 16.0.0, SVG Export Plug-In . SVG Version: 6.00 Build 0)  -->
<!DOCTYPE svg PUBLIC "-//W3C//DTD SVG 1.1//EN" "http://www.w3.org/Graphics/SVG/1.1/DTD/svg11.dtd">
<svg version="1.1" id="Layer_1" xmlns="http://www.w3.org/2000/svg" xmlns:xlink="http://www.w3.org/1999/xlink" x="0px" y="0px"
	 width="352px" height="84px" viewBox="0 0 352 84" style="enable-background:new 0 0 352 84;" xml:space="preserve">
<g>
	<g>
		<g>
			<g>
				<path style="fill:#FFFFFF;" d="M9.441,50.873c1.063,0,1.595,0.747,1.595,2.24c0,1.107-0.167,2.201-0.5,3.28
					c-0.333,1.079-0.762,1.914-1.285,2.505c-0.524,0.592-1.098,0.887-1.722,0.887c-0.36,0-0.664-0.108-0.913-0.324
					c-0.249-0.217-0.405-0.507-0.468-0.871H6.1l-0.992,4.765H4.354l2.619-12.315h0.651l-0.198,1.227h0.04
					C8.068,51.337,8.727,50.873,9.441,50.873z M9.298,51.538c-0.497,0-0.955,0.275-1.373,0.827
					c-0.418,0.551-0.762,1.327-1.032,2.327c-0.27,1-0.405,1.979-0.405,2.94c0,0.981,0.357,1.472,1.071,1.472
					c0.465,0,0.898-0.273,1.297-0.819s0.733-1.336,1-2.37s0.401-2.008,0.401-2.921c0-0.48-0.07-0.843-0.21-1.088
					C9.908,51.66,9.658,51.538,9.298,51.538z"/>
				<path style="fill:#FFFFFF;" d="M14.128,59.785c-0.635,0-1.129-0.22-1.484-0.661c-0.354-0.44-0.532-1.057-0.532-1.848
					c0-1.129,0.16-2.188,0.48-3.178c0.32-0.989,0.754-1.774,1.302-2.355c0.547-0.58,1.123-0.87,1.726-0.87
					c0.46,0,0.816,0.133,1.067,0.399c0.251,0.267,0.377,0.669,0.377,1.207c0,0.649-0.157,1.217-0.472,1.702
					s-0.765,0.847-1.349,1.084s-1.281,0.356-2.091,0.356h-0.095c-0.111,0.522-0.167,1.048-0.167,1.575
					c0,1.271,0.486,1.907,1.46,1.907c0.249,0,0.483-0.034,0.702-0.103c0.22-0.068,0.47-0.185,0.75-0.349v0.76
					C15.358,59.661,14.8,59.785,14.128,59.785z M15.493,51.569c-0.471,0-0.918,0.312-1.341,0.935c-0.423,0.622-0.757,1.445-1,2.469
					c2.111,0,3.167-0.836,3.167-2.509c0-0.279-0.06-0.499-0.179-0.657S15.805,51.569,15.493,51.569z"/>
				<path style="fill:#FFFFFF;" d="M19.458,59.785c-0.566,0-1-0.211-1.302-0.633c-0.301-0.423-0.452-1.021-0.452-1.797
					c0-0.749,0.095-1.554,0.286-2.414s0.439-1.59,0.746-2.188c0.307-0.599,0.667-1.063,1.079-1.39s0.873-0.49,1.381-0.49
					c0.561,0,0.999,0.218,1.313,0.653c0.314,0.435,0.472,1.048,0.472,1.84c0,0.733-0.097,1.521-0.29,2.362
					c-0.193,0.842-0.446,1.564-0.758,2.169s-0.677,1.07-1.095,1.397C20.42,59.622,19.96,59.785,19.458,59.785z M18.481,57.506
					c0,1.065,0.357,1.599,1.071,1.599c0.471,0,0.904-0.268,1.301-0.804c0.397-0.535,0.721-1.291,0.972-2.268
					c0.251-0.976,0.377-1.918,0.377-2.825c0-1.082-0.368-1.623-1.103-1.623c-0.444,0-0.861,0.259-1.25,0.776
					c-0.389,0.517-0.714,1.271-0.976,2.264S18.481,56.577,18.481,57.506z"/>
				<path style="fill:#FFFFFF;" d="M27.74,50.873c1.063,0,1.595,0.747,1.595,2.24c0,1.107-0.167,2.201-0.5,3.28
					c-0.333,1.079-0.762,1.914-1.285,2.505c-0.524,0.592-1.098,0.887-1.722,0.887c-0.36,0-0.664-0.108-0.913-0.324
					c-0.249-0.217-0.405-0.507-0.468-0.871h-0.047l-0.992,4.765h-0.754l2.619-12.315h0.651l-0.198,1.227h0.04
					C26.367,51.337,27.026,50.873,27.74,50.873z M27.597,51.538c-0.497,0-0.955,0.275-1.373,0.827
					c-0.418,0.551-0.762,1.327-1.032,2.327c-0.27,1-0.405,1.979-0.405,2.94c0,0.981,0.357,1.472,1.071,1.472
					c0.465,0,0.898-0.273,1.297-0.819s0.733-1.336,1-2.37s0.401-2.008,0.401-2.921c0-0.48-0.07-0.843-0.21-1.088
					C28.207,51.66,27.957,51.538,27.597,51.538z"/>
				<path style="fill:#FFFFFF;" d="M30.785,59.627h-0.746l2.627-12.315h0.753L30.785,59.627z"/>
				<path style="fill:#FFFFFF;" d="M34.978,59.785c-0.635,0-1.129-0.22-1.484-0.661c-0.354-0.44-0.532-1.057-0.532-1.848
					c0-1.129,0.16-2.188,0.48-3.178c0.32-0.989,0.754-1.774,1.302-2.355c0.547-0.58,1.123-0.87,1.726-0.87
					c0.46,0,0.816,0.133,1.067,0.399c0.251,0.267,0.377,0.669,0.377,1.207c0,0.649-0.157,1.217-0.472,1.702
					s-0.765,0.847-1.349,1.084s-1.281,0.356-2.091,0.356h-0.095c-0.111,0.522-0.167,1.048-0.167,1.575
					c0,1.271,0.486,1.907,1.46,1.907c0.249,0,0.483-0.034,0.702-0.103c0.22-0.068,0.47-0.185,0.75-0.349v0.76
					C36.208,59.661,35.65,59.785,34.978,59.785z M36.343,51.569c-0.471,0-0.918,0.312-1.341,0.935c-0.423,0.622-0.757,1.445-1,2.469
					c2.111,0,3.167-0.836,3.167-2.509c0-0.279-0.06-0.499-0.179-0.657S36.655,51.569,36.343,51.569z"/>
				<path style="fill:#FFFFFF;" d="M45.032,50.873c1.063,0,1.595,0.747,1.595,2.24c0,1.107-0.167,2.201-0.5,3.28
					c-0.333,1.079-0.762,1.914-1.285,2.505c-0.524,0.592-1.098,0.887-1.722,0.887c-0.36,0-0.664-0.108-0.913-0.324
					c-0.249-0.217-0.405-0.507-0.468-0.871h-0.047l-0.992,4.765h-0.754l2.619-12.315h0.651l-0.198,1.227h0.04
					C43.659,51.337,44.318,50.873,45.032,50.873z M44.889,51.538c-0.497,0-0.955,0.275-1.373,0.827
					c-0.418,0.551-0.762,1.327-1.032,2.327c-0.27,1-0.405,1.979-0.405,2.94c0,0.981,0.357,1.472,1.071,1.472
					c0.465,0,0.898-0.273,1.297-0.819s0.733-1.336,1-2.37s0.401-2.008,0.401-2.921c0-0.48-0.07-0.843-0.21-1.088
					C45.499,51.66,45.249,51.538,44.889,51.538z"/>
				<path style="fill:#FFFFFF;" d="M49.72,59.785c-0.635,0-1.129-0.22-1.484-0.661c-0.354-0.44-0.532-1.057-0.532-1.848
					c0-1.129,0.16-2.188,0.48-3.178c0.32-0.989,0.754-1.774,1.302-2.355c0.547-0.58,1.123-0.87,1.726-0.87
					c0.46,0,0.816,0.133,1.067,0.399c0.251,0.267,0.377,0.669,0.377,1.207c0,0.649-0.157,1.217-0.472,1.702
					s-0.765,0.847-1.349,1.084s-1.281,0.356-2.091,0.356h-0.095c-0.111,0.522-0.167,1.048-0.167,1.575
					c0,1.271,0.486,1.907,1.46,1.907c0.249,0,0.483-0.034,0.702-0.103c0.22-0.068,0.47-0.185,0.75-0.349v0.76
					C50.95,59.661,50.392,59.785,49.72,59.785z M51.084,51.569c-0.471,0-0.918,0.312-1.341,0.935c-0.423,0.622-0.757,1.445-1,2.469
					c2.111,0,3.167-0.836,3.167-2.509c0-0.279-0.06-0.499-0.179-0.657S51.396,51.569,51.084,51.569z"/>
				<path style="fill:#FFFFFF;" d="M56.969,50.873c0.206,0,0.399,0.031,0.579,0.095l-0.207,0.768
					c-0.159-0.079-0.333-0.118-0.523-0.118c-0.45,0-0.868,0.309-1.254,0.926s-0.693,1.462-0.92,2.533l-0.976,4.551h-0.746
					l1.817-8.588h0.555l-0.23,1.504h0.032C55.562,51.43,56.186,50.873,56.969,50.873z"/>
			</g>
		</g>
		<g>
			<g>
				<g>
					<path style="fill:#FFFFFF;" d="M7.021,70.781l-0.111,0.53l-1.087,0.135c0.159,0.301,0.238,0.678,0.238,1.132
						c0,0.575-0.118,1.167-0.353,1.776c-0.235,0.61-0.547,1.088-0.937,1.433c-0.389,0.346-0.818,0.519-1.29,0.519H3.283L3.109,76.29
						c-0.662,0.459-0.992,0.876-0.992,1.251c0,0.121,0.021,0.22,0.063,0.297c0.042,0.076,0.108,0.14,0.198,0.189
						c0.09,0.051,0.402,0.157,0.937,0.32c0.667,0.206,1.135,0.466,1.405,0.78c0.27,0.313,0.405,0.734,0.405,1.263
						c0,0.849-0.281,1.54-0.841,2.073c-0.561,0.533-1.283,0.8-2.167,0.8c-0.698,0-1.239-0.177-1.623-0.53
						c-0.384-0.354-0.576-0.853-0.576-1.496c0-0.555,0.172-1.06,0.516-1.516c0.344-0.457,0.833-0.827,1.468-1.112
						c-0.333-0.222-0.5-0.52-0.5-0.895c0-0.274,0.085-0.541,0.254-0.8c0.169-0.258,0.473-0.543,0.913-0.854
						c-0.455-0.38-0.683-0.931-0.683-1.654c0-0.648,0.131-1.283,0.393-1.903c0.262-0.62,0.593-1.09,0.992-1.409
						s0.842-0.479,1.329-0.479c0.338,0,0.598,0.056,0.778,0.166H7.021z M0.633,81.182c0,0.518,0.131,0.891,0.393,1.12
						c0.262,0.229,0.646,0.344,1.154,0.344c0.646,0,1.181-0.195,1.607-0.585c0.426-0.391,0.639-0.9,0.639-1.528
						c0-0.337-0.107-0.63-0.321-0.878s-0.541-0.436-0.98-0.563L2.41,78.902c-0.508,0.169-0.931,0.467-1.27,0.895
						C0.802,80.224,0.633,80.686,0.633,81.182z M2.617,74.525c0,0.391,0.075,0.688,0.226,0.891s0.369,0.305,0.655,0.305
						c0.328,0,0.625-0.139,0.893-0.416s0.488-0.693,0.663-1.25c0.175-0.558,0.262-1.092,0.262-1.604
						c0-0.813-0.286-1.219-0.857-1.219c-0.323,0-0.62,0.147-0.893,0.443s-0.499,0.729-0.678,1.302
						C2.707,73.551,2.617,74.066,2.617,74.525z"/>
					<path style="fill:#FFFFFF;" d="M10.214,70.615c0.206,0,0.399,0.031,0.579,0.095l-0.207,0.768
						c-0.159-0.079-0.333-0.118-0.523-0.118c-0.45,0-0.868,0.309-1.254,0.926s-0.693,1.462-0.92,2.533l-0.976,4.551H6.167
						l1.817-8.588H8.54l-0.23,1.504h0.032C8.807,71.172,9.431,70.615,10.214,70.615z"/>
					<path style="fill:#FFFFFF;" d="M11.854,79.527c-0.566,0-1-0.211-1.302-0.633c-0.301-0.423-0.452-1.021-0.452-1.797
						c0-0.749,0.095-1.554,0.286-2.414s0.439-1.59,0.746-2.188c0.307-0.599,0.667-1.063,1.079-1.39s0.873-0.49,1.381-0.49
						c0.561,0,0.999,0.218,1.313,0.653c0.314,0.435,0.472,1.048,0.472,1.84c0,0.733-0.097,1.521-0.29,2.362
						c-0.193,0.842-0.446,1.564-0.758,2.169s-0.677,1.07-1.095,1.397C12.817,79.364,12.357,79.527,11.854,79.527z M10.878,77.248
						c0,1.065,0.357,1.599,1.071,1.599c0.471,0,0.904-0.268,1.301-0.804c0.397-0.535,0.721-1.291,0.972-2.268
						C14.474,74.8,14.6,73.857,14.6,72.95c0-1.082-0.368-1.623-1.103-1.623c-0.444,0-0.861,0.259-1.25,0.776
						c-0.389,0.517-0.714,1.271-0.976,2.264S10.878,76.319,10.878,77.248z"/>
					<path style="fill:#FFFFFF;" d="M18.399,70.781l-1.286,5.976c-0.095,0.412-0.143,0.769-0.143,1.069
						c0,0.648,0.249,0.973,0.746,0.973c1.105,0,1.891-1.1,2.357-3.3l1.008-4.718h0.746l-1.833,8.588h-0.587l0.063-1.068h-0.032
						c-0.535,0.817-1.167,1.227-1.897,1.227c-0.868,0-1.301-0.522-1.301-1.567c0-0.416,0.053-0.854,0.159-1.313l1.254-5.865H18.399z
						"/>
					<path style="fill:#FFFFFF;" d="M26.245,70.615c1.063,0,1.595,0.747,1.595,2.24c0,1.107-0.167,2.201-0.5,3.28
						c-0.333,1.079-0.762,1.914-1.285,2.505c-0.524,0.592-1.098,0.887-1.722,0.887c-0.36,0-0.664-0.108-0.913-0.324
						c-0.249-0.217-0.405-0.507-0.468-0.871h-0.047l-0.992,4.765h-0.754l2.619-12.315h0.651l-0.198,1.227h0.04
						C24.872,71.079,25.53,70.615,26.245,70.615z M26.102,71.28c-0.497,0-0.955,0.275-1.373,0.827
						c-0.418,0.551-0.762,1.327-1.032,2.327c-0.27,1-0.405,1.979-0.405,2.94c0,0.981,0.357,1.472,1.071,1.472
						c0.465,0,0.898-0.273,1.297-0.819s0.733-1.336,1-2.37s0.401-2.008,0.401-2.921c0-0.48-0.07-0.843-0.21-1.088
						C26.711,71.402,26.461,71.28,26.102,71.28z"/>
					<path style="fill:#FFFFFF;" d="M31.819,77.636c0-1.773,0.345-3.507,1.036-5.2s1.678-3.24,2.964-4.638h0.603
						c-1.243,1.514-2.182,3.101-2.817,4.761c-0.635,1.659-0.952,3.352-0.952,5.077c0,0.771,0.063,1.539,0.19,2.308
						c0.127,0.768,0.312,1.431,0.556,1.99h-0.603c-0.291-0.512-0.527-1.163-0.707-1.955C31.909,79.188,31.819,78.406,31.819,77.636z
						"/>
					<path style="fill:#FFFFFF;" d="M42.128,79.369l1.365-6.435c0.053-0.248,0.079-0.47,0.079-0.665c0-0.606-0.249-0.91-0.746-0.91
						c-0.434,0-0.82,0.188-1.159,0.565c-0.339,0.378-0.571,0.875-0.698,1.492l-1.246,5.952h-0.746l1.333-6.324
						c0.063-0.306,0.095-0.564,0.095-0.775c0-0.606-0.262-0.91-0.786-0.91c-0.535,0-0.979,0.253-1.333,0.76
						c-0.354,0.507-0.656,1.351-0.905,2.532l-1.008,4.718h-0.746l1.817-8.588h0.635l-0.198,1.195h0.032
						c0.481-0.907,1.116-1.361,1.904-1.361c0.386,0,0.689,0.095,0.909,0.285c0.219,0.189,0.356,0.49,0.409,0.902
						c0.27-0.396,0.553-0.693,0.849-0.891c0.296-0.198,0.643-0.297,1.04-0.297c0.407,0,0.722,0.132,0.944,0.396
						s0.333,0.657,0.333,1.18c0,0.301-0.037,0.62-0.111,0.957l-1.317,6.222H42.128z"/>
					<path style="fill:#FFFFFF;" d="M46.735,79.527c-1.058,0-1.587-0.744-1.587-2.232c0-1.103,0.165-2.194,0.496-3.276
						c0.331-1.082,0.759-1.919,1.286-2.513c0.526-0.594,1.102-0.891,1.726-0.891c0.709,0,1.169,0.396,1.381,1.188h0.048l0.31-1.021
						h0.635l-1.817,8.588h-0.603l0.143-1.234h-0.032C48.116,79.063,47.455,79.527,46.735,79.527z M46.886,78.87
						c0.476,0,0.92-0.274,1.333-0.823c0.413-0.548,0.762-1.351,1.048-2.405c0.286-1.056,0.428-2.051,0.428-2.984
						c0-0.438-0.094-0.769-0.282-0.993c-0.188-0.225-0.451-0.337-0.79-0.337c-0.465,0-0.896,0.269-1.293,0.804
						c-0.396,0.535-0.73,1.32-1,2.354c-0.27,1.034-0.405,2.008-0.405,2.921c0,0.48,0.07,0.845,0.21,1.092
						C46.276,78.746,46.526,78.87,46.886,78.87z"/>
					<path style="fill:#FFFFFF;" d="M53.285,74.85l-0.73-4.068h0.762l0.556,3.436l1.984-3.436h0.793l-2.595,4.259l0.857,4.329
						h-0.762l-0.635-3.648l-2.126,3.648h-0.802L53.285,74.85z"/>
					<path style="fill:#FFFFFF;" d="M59.821,72.087c0,1.758-0.34,3.48-1.02,5.169s-1.673,3.248-2.98,4.678h-0.603
						c1.243-1.515,2.183-3.102,2.817-4.761s0.952-3.354,0.952-5.086c0-0.775-0.065-1.55-0.194-2.322
						c-0.13-0.773-0.313-1.429-0.552-1.967h0.603c0.291,0.517,0.526,1.168,0.707,1.954C59.731,70.539,59.821,71.317,59.821,72.087z"
						/>
				</g>
			</g>
			<g>
				<g>
					<g>
						<path style="fill:#A3CB3E;" d="M34.628,27.126H17.955l-1.219-5.3L35.457,0.186h6.338v20.862h4.583v6.079h-4.583v7.343h-7.167
							V27.126z M34.628,21.048V10.447L25.56,21.048H34.628z"/>
					</g>
				</g>
				<g>
					<g>
						<g>
							<path style="fill:#FFFFFF;" d="M144.849,59.627l1.365-6.451c0.053-0.211,0.08-0.433,0.08-0.664
								c0-0.597-0.265-0.895-0.793-0.895c-0.556,0-1.021,0.267-1.397,0.799c-0.375,0.533-0.68,1.364-0.913,2.493l-1.008,4.718
								h-0.746l2.611-12.315h0.753l-0.785,3.593l-0.326,1.33h0.032c0.492-0.907,1.132-1.361,1.92-1.361
								c0.444,0,0.788,0.128,1.032,0.384c0.243,0.256,0.365,0.624,0.365,1.104c0,0.295-0.037,0.614-0.111,0.957l-1.333,6.309
								H144.849z"/>
							<path style="fill:#FFFFFF;" d="M149.656,59.785c-0.566,0-1-0.211-1.302-0.633c-0.301-0.423-0.452-1.021-0.452-1.797
								c0-0.749,0.095-1.554,0.286-2.414s0.439-1.59,0.746-2.188c0.307-0.599,0.667-1.063,1.079-1.39s0.873-0.49,1.381-0.49
								c0.561,0,0.999,0.218,1.313,0.653c0.314,0.435,0.472,1.048,0.472,1.84c0,0.733-0.097,1.521-0.29,2.362
								c-0.193,0.842-0.446,1.564-0.758,2.169s-0.677,1.07-1.095,1.397C150.618,59.622,150.158,59.785,149.656,59.785z
								 M148.68,57.506c0,1.065,0.357,1.599,1.071,1.599c0.471,0,0.904-0.268,1.301-0.804c0.397-0.535,0.721-1.291,0.972-2.268
								c0.251-0.976,0.377-1.918,0.377-2.825c0-1.082-0.368-1.623-1.103-1.623c-0.444,0-0.861,0.259-1.25,0.776
								c-0.389,0.517-0.714,1.271-0.976,2.264S148.68,56.577,148.68,57.506z"/>
							<path style="fill:#FFFFFF;" d="M156.201,51.039l-1.286,5.976c-0.095,0.412-0.143,0.769-0.143,1.069
								c0,0.648,0.249,0.973,0.746,0.973c1.105,0,1.891-1.1,2.357-3.3l1.008-4.718h0.746l-1.833,8.588h-0.587l0.063-1.068h-0.032
								c-0.535,0.817-1.167,1.227-1.897,1.227c-0.868,0-1.301-0.522-1.301-1.567c0-0.416,0.053-0.854,0.159-1.313l1.254-5.865
								H156.201z"/>
							<path style="fill:#FFFFFF;" d="M163.792,50.873c0.206,0,0.399,0.031,0.579,0.095l-0.207,0.768
								c-0.159-0.079-0.333-0.118-0.523-0.118c-0.45,0-0.868,0.309-1.254,0.926s-0.693,1.462-0.92,2.533l-0.976,4.551h-0.746
								l1.817-8.588h0.555l-0.23,1.504h0.032C162.384,51.43,163.008,50.873,163.792,50.873z"/>
							<path style="fill:#FFFFFF;" d="M165.039,59.785c-0.296,0-0.606-0.037-0.929-0.11c-0.323-0.074-0.542-0.156-0.659-0.246v-0.87
								c0.127,0.127,0.34,0.244,0.639,0.352c0.299,0.108,0.599,0.163,0.9,0.163c0.513,0,0.913-0.149,1.198-0.447
								s0.429-0.722,0.429-1.271c0-0.232-0.029-0.444-0.087-0.638c-0.058-0.192-0.134-0.37-0.226-0.534
								c-0.093-0.163-0.298-0.419-0.615-0.768c-0.344-0.374-0.577-0.658-0.698-0.851s-0.217-0.399-0.286-0.621
								s-0.103-0.478-0.103-0.769c0-0.686,0.211-1.241,0.635-1.666s0.971-0.637,1.643-0.637c0.719,0,1.299,0.163,1.738,0.49
								l-0.405,0.681c-0.375-0.306-0.831-0.459-1.365-0.459c-0.434,0-0.792,0.137-1.075,0.408c-0.283,0.271-0.424,0.635-0.424,1.088
								c0,0.312,0.057,0.594,0.17,0.847c0.114,0.254,0.329,0.555,0.646,0.902c0.381,0.412,0.639,0.724,0.774,0.935
								s0.242,0.44,0.321,0.688c0.08,0.248,0.119,0.522,0.119,0.823c0,0.802-0.202,1.421-0.607,1.855
								C166.368,59.567,165.79,59.785,165.039,59.785z"/>
						</g>
					</g>
					<g>
						<g>
							<g>
								<path style="fill:#FFFFFF;" d="M137.597,70.615c1.063,0,1.595,0.747,1.595,2.24c0,1.107-0.167,2.201-0.5,3.28
									c-0.333,1.079-0.762,1.914-1.285,2.505c-0.524,0.592-1.098,0.887-1.722,0.887c-0.36,0-0.664-0.108-0.913-0.324
									c-0.249-0.217-0.405-0.507-0.468-0.871h-0.047l-0.992,4.765h-0.754l2.619-12.315h0.651l-0.198,1.227h0.04
									C136.224,71.079,136.883,70.615,137.597,70.615z M137.454,71.28c-0.497,0-0.955,0.275-1.373,0.827
									c-0.418,0.551-0.762,1.327-1.032,2.327c-0.27,1-0.405,1.979-0.405,2.94c0,0.981,0.357,1.472,1.071,1.472
									c0.465,0,0.898-0.273,1.297-0.819s0.733-1.336,1-2.37s0.401-2.008,0.401-2.921c0-0.48-0.07-0.843-0.21-1.088
									C138.064,71.402,137.814,71.28,137.454,71.28z"/>
								<path style="fill:#FFFFFF;" d="M142.284,79.527c-0.635,0-1.129-0.22-1.484-0.661c-0.354-0.44-0.532-1.057-0.532-1.848
									c0-1.129,0.16-2.188,0.48-3.178c0.32-0.989,0.754-1.774,1.302-2.355c0.547-0.58,1.123-0.87,1.726-0.87
									c0.46,0,0.816,0.133,1.067,0.399c0.251,0.267,0.377,0.669,0.377,1.207c0,0.649-0.157,1.217-0.472,1.702
									s-0.765,0.847-1.349,1.084s-1.281,0.356-2.091,0.356h-0.095c-0.111,0.522-0.167,1.048-0.167,1.575
									c0,1.271,0.486,1.907,1.46,1.907c0.249,0,0.483-0.034,0.702-0.103c0.22-0.068,0.47-0.185,0.75-0.349v0.76
									C143.514,79.403,142.956,79.527,142.284,79.527z M143.649,71.312c-0.471,0-0.918,0.312-1.341,0.935
									c-0.423,0.622-0.757,1.445-1,2.469c2.111,0,3.167-0.836,3.167-2.509c0-0.279-0.06-0.499-0.179-0.657
									S143.961,71.312,143.649,71.312z"/>
								<path style="fill:#FFFFFF;" d="M149.534,70.615c0.206,0,0.399,0.031,0.579,0.095l-0.207,0.768
									c-0.159-0.079-0.333-0.118-0.523-0.118c-0.45,0-0.868,0.309-1.254,0.926s-0.693,1.462-0.92,2.533l-0.976,4.551h-0.746
									l1.817-8.588h0.555l-0.23,1.504h0.032C148.126,71.172,148.751,70.615,149.534,70.615z"/>
								<path style="fill:#FFFFFF;" d="M156.339,79.369l0.23-5.817l0.095-1.805c-0.212,0.623-0.354,1.039-0.429,1.25
									c-0.074,0.212-0.889,2.335-2.444,6.372h-0.928l0.159-8.588h0.754l-0.103,5.002c-0.021,0.93-0.08,1.8-0.175,2.612h0.032
									c0.042-0.147,0.147-0.451,0.313-0.91s1.025-2.693,2.575-6.704h0.865l-0.127,5.002c-0.016,0.476-0.056,1.167-0.119,2.074
									l-0.032,0.538h0.032l0.476-1.242l2.484-6.372h0.762l-3.46,8.588H156.339z"/>
								<path style="fill:#FFFFFF;" d="M162.586,79.527c-0.635,0-1.129-0.22-1.484-0.661c-0.354-0.44-0.532-1.057-0.532-1.848
									c0-1.129,0.16-2.188,0.48-3.178c0.32-0.989,0.754-1.774,1.302-2.355c0.547-0.58,1.123-0.87,1.726-0.87
									c0.46,0,0.816,0.133,1.067,0.399c0.251,0.267,0.377,0.669,0.377,1.207c0,0.649-0.157,1.217-0.472,1.702
									s-0.765,0.847-1.349,1.084s-1.281,0.356-2.091,0.356h-0.095c-0.111,0.522-0.167,1.048-0.167,1.575
									c0,1.271,0.486,1.907,1.46,1.907c0.249,0,0.483-0.034,0.702-0.103c0.22-0.068,0.47-0.185,0.75-0.349v0.76
									C163.816,79.403,163.258,79.527,162.586,79.527z M163.951,71.312c-0.471,0-0.918,0.312-1.341,0.935
									c-0.423,0.622-0.757,1.445-1,2.469c2.111,0,3.167-0.836,3.167-2.509c0-0.279-0.06-0.499-0.179-0.657
									S164.263,71.312,163.951,71.312z"/>
								<path style="fill:#FFFFFF;" d="M168.177,79.527c-0.635,0-1.129-0.22-1.484-0.661c-0.354-0.44-0.532-1.057-0.532-1.848
									c0-1.129,0.16-2.188,0.48-3.178c0.32-0.989,0.754-1.774,1.302-2.355c0.547-0.58,1.123-0.87,1.726-0.87
									c0.46,0,0.816,0.133,1.067,0.399c0.251,0.267,0.377,0.669,0.377,1.207c0,0.649-0.157,1.217-0.472,1.702
									s-0.765,0.847-1.349,1.084s-1.281,0.356-2.091,0.356h-0.095c-0.111,0.522-0.167,1.048-0.167,1.575
									c0,1.271,0.486,1.907,1.46,1.907c0.249,0,0.483-0.034,0.702-0.103c0.22-0.068,0.47-0.185,0.75-0.349v0.76
									C169.407,79.403,168.849,79.527,168.177,79.527z M169.542,71.312c-0.471,0-0.918,0.312-1.341,0.935
									c-0.423,0.622-0.757,1.445-1,2.469c2.111,0,3.167-0.836,3.167-2.509c0-0.279-0.06-0.499-0.179-0.657
									S169.854,71.312,169.542,71.312z"/>
								<path style="fill:#FFFFFF;" d="M172.999,75.023l0.381-0.467l0.65-0.831l2.143-2.944h0.81l-2.437,3.403l0.762,5.185h-0.777
									l-0.666-4.535l-1.008,1.1l-0.73,3.436h-0.746l2.627-12.315h0.754l-1.421,6.466c-0.042,0.212-0.161,0.713-0.357,1.504
									H172.999z"/>
							</g>
						</g>
						<g>
							<g>
								<g>
									<path style="fill:#A3CB3E;" d="M157.2,27.126h-16.673l-1.219-5.3l18.721-21.641h6.338v20.862h4.583v6.079h-4.583v7.343
										H157.2V27.126z M157.2,21.048V10.447l-9.068,10.601H157.2z"/>
								</g>
							</g>
							<g>
								<g>
									<g>
										<path style="fill:#FFFFFF;" d="M269.136,59.627l0.229-5.817l0.096-1.805c-0.212,0.623-0.354,1.039-0.429,1.25
											c-0.074,0.212-0.889,2.335-2.444,6.372h-0.929l0.159-8.588h0.754l-0.104,5.002c-0.021,0.93-0.079,1.8-0.175,2.612h0.032
											c0.042-0.147,0.146-0.451,0.313-0.91s1.024-2.693,2.575-6.704h0.865l-0.127,5.002c-0.017,0.476-0.056,1.167-0.119,2.074
											l-0.032,0.538h0.032l0.476-1.242l2.484-6.372h0.762l-3.46,8.588H269.136z"/>
										<path style="fill:#FFFFFF;" d="M275.383,59.785c-0.635,0-1.13-0.22-1.484-0.661c-0.354-0.44-0.531-1.057-0.531-1.848
											c0-1.129,0.16-2.188,0.48-3.178c0.319-0.989,0.754-1.774,1.301-2.355c0.548-0.58,1.123-0.87,1.727-0.87
											c0.46,0,0.815,0.133,1.067,0.399c0.251,0.267,0.377,0.669,0.377,1.207c0,0.649-0.158,1.217-0.473,1.702
											s-0.765,0.847-1.349,1.084c-0.585,0.237-1.282,0.356-2.092,0.356h-0.095c-0.111,0.522-0.167,1.048-0.167,1.575
											c0,1.271,0.487,1.907,1.461,1.907c0.248,0,0.482-0.034,0.702-0.103c0.219-0.068,0.469-0.185,0.75-0.349v0.76
											C276.613,59.661,276.055,59.785,275.383,59.785z M276.748,51.569c-0.472,0-0.918,0.312-1.342,0.935
											c-0.423,0.622-0.756,1.445-1,2.469c2.111,0,3.167-0.836,3.167-2.509c0-0.279-0.06-0.499-0.179-0.657
											S277.06,51.569,276.748,51.569z"/>
										<path style="fill:#FFFFFF;" d="M280.974,59.785c-0.635,0-1.13-0.22-1.484-0.661c-0.354-0.44-0.531-1.057-0.531-1.848
											c0-1.129,0.16-2.188,0.48-3.178c0.319-0.989,0.754-1.774,1.301-2.355c0.548-0.58,1.123-0.87,1.727-0.87
											c0.46,0,0.815,0.133,1.067,0.399c0.251,0.267,0.377,0.669,0.377,1.207c0,0.649-0.158,1.217-0.473,1.702
											s-0.765,0.847-1.349,1.084c-0.585,0.237-1.282,0.356-2.092,0.356h-0.095c-0.111,0.522-0.167,1.048-0.167,1.575
											c0,1.271,0.487,1.907,1.461,1.907c0.248,0,0.482-0.034,0.702-0.103c0.219-0.068,0.469-0.185,0.75-0.349v0.76
											C282.204,59.661,281.646,59.785,280.974,59.785z M282.339,51.569c-0.472,0-0.918,0.312-1.342,0.935
											c-0.423,0.622-0.756,1.445-1,2.469c2.111,0,3.167-0.836,3.167-2.509c0-0.279-0.06-0.499-0.179-0.657
											S282.65,51.569,282.339,51.569z"/>
										<path style="fill:#FFFFFF;" d="M285.795,55.281l0.381-0.467l0.65-0.831l2.143-2.944h0.81l-2.437,3.403l0.762,5.185h-0.777
											l-0.666-4.535l-1.008,1.1l-0.73,3.436h-0.746l2.627-12.315h0.754l-1.421,6.466c-0.042,0.212-0.161,0.713-0.356,1.504
											H285.795z"/>
										<path style="fill:#FFFFFF;" d="M290.493,59.785c-0.297,0-0.606-0.037-0.929-0.11c-0.322-0.074-0.542-0.156-0.658-0.246
											v-0.87c0.127,0.127,0.34,0.244,0.639,0.352c0.299,0.108,0.599,0.163,0.9,0.163c0.513,0,0.913-0.149,1.198-0.447
											c0.286-0.298,0.429-0.722,0.429-1.271c0-0.232-0.029-0.444-0.087-0.638c-0.059-0.192-0.134-0.37-0.227-0.534
											c-0.093-0.163-0.298-0.419-0.615-0.768c-0.344-0.374-0.576-0.658-0.698-0.851s-0.217-0.399-0.285-0.621
											c-0.069-0.222-0.104-0.478-0.104-0.769c0-0.686,0.212-1.241,0.635-1.666s0.971-0.637,1.643-0.637
											c0.72,0,1.299,0.163,1.738,0.49l-0.405,0.681c-0.375-0.306-0.83-0.459-1.364-0.459c-0.435,0-0.793,0.137-1.075,0.408
											c-0.283,0.271-0.425,0.635-0.425,1.088c0,0.312,0.057,0.594,0.17,0.847c0.114,0.254,0.33,0.555,0.647,0.902
											c0.381,0.412,0.639,0.724,0.773,0.935s0.242,0.44,0.321,0.688s0.119,0.522,0.119,0.823c0,0.802-0.202,1.421-0.607,1.855
											C291.822,59.567,291.244,59.785,290.493,59.785z"/>
									</g>
								</g>
								<g>
									<g>
										<g>
											<path style="fill:#A3CB3E;" d="M244.063,31.406c-2.486-2.48-4.046-6.127-4.046-12.887v-0.097
												c0-10.504,4.777-18.577,14.967-18.577c4.631,0,7.654,1.362,10.677,3.745l-3.949,5.787
												c-2.242-1.702-4.046-2.724-6.972-2.724c-5.119,0-6.63,4.912-6.874,7.878c1.804-1.216,3.949-2.188,7.069-2.188
												c6.776,0,11.993,3.745,11.993,10.844v0.097c0,6.954-5.606,11.769-13.017,11.769
												C249.476,35.054,246.452,33.789,244.063,31.406z M259.47,23.625v-0.098c0-2.869-2.243-4.96-5.948-4.96
												s-5.85,2.042-5.85,4.912v0.097c0,2.869,2.242,5.058,5.947,5.058S259.47,26.543,259.47,23.625z"/>
										</g>
									</g>
									<g>
										<g>
											<g>
												<path style="fill:#A3CB3E;" d="M272.322,15.845h15.016v7.1h-15.016V15.845z"/>
											</g>
										</g>
										<g>
											<g>
												<g>
													<path style="fill:#A3CB3E;" d="M291.883,25.133v-0.097c0-4.134,1.901-6.565,5.51-8.219
														c-2.633-1.604-4.339-3.793-4.339-7.44V9.279c0-5.203,4.777-9.337,11.992-9.337c7.216,0,11.993,4.085,11.993,9.337
														v0.098c0,3.647-1.706,5.835-4.339,7.44c3.462,1.799,5.509,3.988,5.509,8.024v0.098c0,6.322-5.606,10.018-13.163,10.018
														C297.49,34.956,291.883,31.065,291.883,25.133z M310.945,24.549v-0.097c0-2.626-2.486-4.182-5.899-4.182
														c-3.412,0-5.898,1.556-5.898,4.182v0.097c0,2.334,2.193,4.231,5.898,4.231S310.945,26.932,310.945,24.549z
														 M309.922,10.204v-0.097c0-2.091-1.805-3.988-4.876-3.988s-4.875,1.848-4.875,3.939v0.097
														c0,2.383,1.901,4.182,4.875,4.182C308.021,14.337,309.922,12.586,309.922,10.204z"/>
												</g>
											</g>
											<g>
												<g>
													<g>
														<path style="fill:#FFFFFF;" d="M101.443,26.049h-0.81l-1.738-5.319l-2.016,5.319h-0.786l2.428-6.142l-2.087-5.43
															h0.817l1.722,4.813l1.674-4.813h0.793l-2.047,5.604L101.443,26.049z"/>
													</g>
												</g>
												<g>
													<g>
														<g>
															<path style="fill:#FFFFFF;" d="M210.31,26.049h-0.809l-1.738-5.319l-2.016,5.319h-0.785l2.428-6.142l-2.087-5.43
																h0.817l1.722,4.813l1.675-4.813h0.793l-2.047,5.604L210.31,26.049z"/>
														</g>
													</g>
													<g>
														<g>
															<g>
																<path style="fill:#FFFFFF;" d="M346.122,18.965v-0.649h5.563v0.649H346.122z M346.122,22.368v-0.649h5.563v0.649
																	H346.122z"/>
															</g>
														</g>
													</g>
												</g>
											</g>
										</g>
									</g>
								</g>
							</g>
						</g>
					</g>
				</g>
			</g>
		</g>
	</g>
</g>
</svg>
