<?xml version="1.0" encoding="iso-8859-1"?>
<!-- Generator: Adobe Illustrator 16.0.0, SVG Export Plug-In . SVG Version: 6.00 Build 0)  -->
<!DOCTYPE svg PUBLIC "-//W3C//DTD SVG 1.1//EN" "http://www.w3.org/Graphics/SVG/1.1/DTD/svg11.dtd">
<svg version="1.1" id="Layer_1" xmlns="http://www.w3.org/2000/svg" xmlns:xlink="http://www.w3.org/1999/xlink" x="0px" y="0px"
	 width="281px" height="120px" viewBox="0 0 281 120" style="enable-background:new 0 0 281 120;" xml:space="preserve">
<g>
	<g>
		<g>
			<g>
				<path style="fill:#FFFFFF;" d="M0.533,42.218L8.731,3.525h2.601L3.664,39.73h9.526l-0.504,2.488H0.533z"/>
				<path style="fill:#FFFFFF;" d="M25.471,42.747c-2.123,0-3.777-0.736-4.962-2.21c-1.186-1.473-1.778-3.533-1.778-6.18
					c0-3.775,0.535-7.318,1.605-10.626s2.521-5.933,4.352-7.874c1.831-1.941,3.754-2.912,5.771-2.912
					c1.539,0,2.729,0.446,3.569,1.337s1.26,2.236,1.26,4.036c0,2.17-0.526,4.067-1.579,5.69c-1.053,1.624-2.556,2.832-4.511,3.626
					c-1.955,0.794-4.285,1.191-6.992,1.191h-0.318c-0.372,1.747-0.558,3.502-0.558,5.267c0,4.252,1.627,6.378,4.882,6.378
					c0.832,0,1.614-0.115,2.349-0.344c0.734-0.229,1.569-0.617,2.507-1.165v2.541C29.584,42.333,27.717,42.747,25.471,42.747z
					 M30.035,15.275c-1.575,0-3.069,1.042-4.484,3.123c-1.416,2.082-2.53,4.834-3.343,8.257c7.058,0,10.587-2.796,10.587-8.39
					c0-0.935-0.199-1.667-0.597-2.197C31.799,15.54,31.079,15.275,30.035,15.275z"/>
				<path style="fill:#FFFFFF;" d="M43.57,40.101v2.117c-0.991,0.353-1.919,0.529-2.786,0.529c-2.247,0-3.37-1.332-3.37-3.996
					c0-0.67,0.115-1.553,0.345-2.647l4.325-20.378h-2.6l0.318-1.482l2.733-0.741l2.123-6.828h1.831l-1.459,6.828h3.794l-0.478,2.223
					h-3.794L40.359,35.39c-0.248,1.129-0.372,2.064-0.372,2.805c0,0.794,0.146,1.363,0.438,1.707
					c0.292,0.344,0.756,0.516,1.393,0.516C42.367,40.418,42.951,40.312,43.57,40.101z"/>
				<path style="fill:#FFFFFF;" d="M58.718,4.107c-1.681,3.564-3.839,7.508-6.474,11.83h-1.725
					c2.105-4.499,3.786-8.636,5.042-12.412h2.945L58.718,4.107z"/>
				<path style="fill:#FFFFFF;" d="M58.709,42.747c-0.991,0-2.025-0.124-3.104-0.371c-1.079-0.247-1.813-0.52-2.202-0.82v-2.911
					c0.424,0.423,1.136,0.816,2.136,1.178c0.999,0.362,2.003,0.542,3.011,0.542c1.716,0,3.052-0.499,4.007-1.496
					c0.955-0.997,1.433-2.412,1.433-4.248c0-0.776-0.098-1.486-0.292-2.13c-0.195-0.644-0.447-1.239-0.756-1.787
					c-0.31-0.547-0.995-1.403-2.056-2.567c-1.15-1.252-1.929-2.201-2.335-2.845s-0.726-1.336-0.955-2.078
					c-0.23-0.741-0.345-1.597-0.345-2.567c0-2.293,0.707-4.15,2.123-5.571c1.415-1.42,3.246-2.131,5.493-2.131
					c2.405,0,4.342,0.547,5.811,1.641l-1.354,2.276c-1.256-1.023-2.777-1.535-4.563-1.535c-1.451,0-2.649,0.454-3.596,1.363
					c-0.946,0.909-1.419,2.122-1.419,3.639c0,1.041,0.19,1.985,0.57,2.832c0.38,0.847,1.101,1.853,2.163,3.018
					c1.274,1.376,2.136,2.417,2.587,3.123c0.451,0.706,0.81,1.474,1.075,2.303c0.266,0.83,0.398,1.747,0.398,2.752
					c0,2.682-0.676,4.75-2.03,6.206C63.154,42.019,61.221,42.747,58.709,42.747z"/>
				<path style="fill:#FFFFFF;" d="M86.04,42.747c-3.538,0-5.307-2.488-5.307-7.463c0-3.688,0.553-7.34,1.658-10.957
					c1.105-3.617,2.538-6.418,4.299-8.403c1.76-1.985,3.684-2.978,5.771-2.978c1.221,0,2.242,0.371,3.065,1.112
					c0.822,0.741,1.34,1.711,1.552,2.911h0.159l3.317-15.932h2.521l-8.756,41.181h-2.017l0.478-4.129h-0.106
					C90.657,41.195,88.446,42.747,86.04,42.747z M86.544,40.55c1.592,0,3.078-0.904,4.458-2.712c1.38-1.809,2.547-4.455,3.503-7.94
					c0.955-3.484,1.433-6.824,1.433-10.018c0-1.499-0.283-2.633-0.849-3.401c-0.566-0.767-1.477-1.151-2.733-1.151
					c-1.557,0-2.999,0.896-4.325,2.686c-1.327,1.791-2.441,4.416-3.343,7.874c-0.902,3.458-1.354,6.714-1.354,9.766
					c0,1.605,0.234,2.823,0.703,3.652C84.505,40.136,85.341,40.55,86.544,40.55z"/>
				<path style="fill:#FFFFFF;" d="M108.385,42.747c-1.893,0-3.343-0.706-4.352-2.117s-1.512-3.414-1.512-6.008
					c0-2.505,0.318-5.196,0.955-8.072c0.637-2.875,1.468-5.315,2.494-7.318c1.026-2.002,2.229-3.55,3.609-4.645
					c1.38-1.094,2.919-1.641,4.617-1.641c1.875,0,3.339,0.728,4.392,2.184c1.052,1.456,1.579,3.507,1.579,6.153
					c0,2.453-0.323,5.086-0.969,7.9c-0.646,2.815-1.49,5.232-2.534,7.252c-1.044,2.021-2.264,3.577-3.662,4.671
					C111.604,42.2,110.065,42.747,108.385,42.747z M105.121,35.125c0,3.564,1.194,5.346,3.583,5.346
					c1.574,0,3.025-0.896,4.352-2.687c1.327-1.791,2.41-4.318,3.25-7.583c0.84-3.264,1.26-6.413,1.26-9.448
					c0-3.617-1.229-5.425-3.688-5.425c-1.486,0-2.879,0.865-4.179,2.593c-1.3,1.729-2.388,4.252-3.264,7.569
					C105.559,28.809,105.121,32.02,105.121,35.125z"/>
				<path style="fill:#FFFFFF;" d="M138.306,42.747c-2.052,0-3.622-0.706-4.71-2.117s-1.632-3.449-1.632-6.114
					c0-3.828,0.557-7.477,1.671-10.943c1.115-3.467,2.556-6.104,4.325-7.914c1.769-1.808,3.75-2.713,5.944-2.713
					c1.521,0,2.795,0.292,3.821,0.874l-1.035,2.276c-0.938-0.512-1.937-0.768-2.999-0.768c-1.627,0-3.117,0.856-4.471,2.567
					c-1.353,1.712-2.467,4.155-3.343,7.331c-0.875,3.176-1.313,6.291-1.313,9.343c0,3.935,1.415,5.902,4.246,5.902
					c1.115,0,2.379-0.353,3.794-1.059v2.276C141.277,42.394,139.844,42.747,138.306,42.747z"/>
				<path style="fill:#FFFFFF;" d="M153.539,42.747c-1.894,0-3.344-0.706-4.352-2.117c-1.009-1.412-1.513-3.414-1.513-6.008
					c0-2.505,0.318-5.196,0.955-8.072c0.637-2.875,1.468-5.315,2.494-7.318c1.025-2.002,2.229-3.55,3.608-4.645
					c1.38-1.094,2.919-1.641,4.617-1.641c1.875,0,3.339,0.728,4.392,2.184s1.579,3.507,1.579,6.153c0,2.453-0.323,5.086-0.969,7.9
					c-0.646,2.815-1.49,5.232-2.534,7.252c-1.044,2.021-2.265,3.577-3.661,4.671C156.758,42.2,155.219,42.747,153.539,42.747z
					 M150.275,35.125c0,3.564,1.193,5.346,3.582,5.346c1.574,0,3.024-0.896,4.352-2.687c1.326-1.791,2.41-4.318,3.25-7.583
					c0.84-3.264,1.261-6.413,1.261-9.448c0-3.617-1.229-5.425-3.688-5.425c-1.485,0-2.879,0.865-4.179,2.593
					c-1.301,1.729-2.389,4.252-3.264,7.569C150.713,28.809,150.275,32.02,150.275,35.125z"/>
				<path style="fill:#FFFFFF;" d="M174.344,42.747c-1.893,0-3.343-0.706-4.352-2.117c-1.008-1.412-1.513-3.414-1.513-6.008
					c0-2.505,0.318-5.196,0.956-8.072c0.637-2.875,1.468-5.315,2.494-7.318c1.025-2.002,2.229-3.55,3.608-4.645
					c1.38-1.094,2.919-1.641,4.617-1.641c1.875,0,3.339,0.728,4.392,2.184c1.052,1.456,1.578,3.507,1.578,6.153
					c0,2.453-0.322,5.086-0.968,7.9c-0.646,2.815-1.491,5.232-2.534,7.252c-1.044,2.021-2.265,3.577-3.662,4.671
					C177.563,42.2,176.024,42.747,174.344,42.747z M171.08,35.125c0,3.564,1.194,5.346,3.582,5.346c1.574,0,3.025-0.896,4.352-2.687
					c1.327-1.791,2.41-4.318,3.251-7.583c0.84-3.264,1.26-6.413,1.26-9.448c0-3.617-1.229-5.425-3.688-5.425
					c-1.486,0-2.879,0.865-4.18,2.593c-1.3,1.729-2.388,4.252-3.264,7.569C171.518,28.809,171.08,32.02,171.08,35.125z"/>
				<path style="fill:#FFFFFF;" d="M190.532,42.218h-2.494l8.783-41.181h2.521L190.532,42.218z"/>
				<path style="fill:#FFFFFF;" d="M210.022,42.747c-0.99,0-2.025-0.124-3.104-0.371c-1.079-0.247-1.813-0.52-2.202-0.82v-2.911
					c0.425,0.423,1.137,0.816,2.136,1.178c0.999,0.362,2.004,0.542,3.012,0.542c1.716,0,3.052-0.499,4.007-1.496
					c0.955-0.997,1.433-2.412,1.433-4.248c0-0.776-0.097-1.486-0.292-2.13c-0.194-0.644-0.446-1.239-0.756-1.787
					c-0.31-0.547-0.995-1.403-2.057-2.567c-1.149-1.252-1.928-2.201-2.335-2.845s-0.726-1.336-0.955-2.078
					c-0.23-0.741-0.345-1.597-0.345-2.567c0-2.293,0.707-4.15,2.123-5.571c1.414-1.42,3.245-2.131,5.492-2.131
					c2.405,0,4.343,0.547,5.811,1.641l-1.353,2.276c-1.257-1.023-2.777-1.535-4.564-1.535c-1.45,0-2.649,0.454-3.595,1.363
					c-0.947,0.909-1.42,2.122-1.42,3.639c0,1.041,0.189,1.985,0.57,2.832c0.38,0.847,1.102,1.853,2.163,3.018
					c1.273,1.376,2.136,2.417,2.587,3.123c0.451,0.706,0.809,1.474,1.074,2.303c0.266,0.83,0.398,1.747,0.398,2.752
					c0,2.682-0.677,4.75-2.03,6.206S212.534,42.747,210.022,42.747z"/>
				<path style="fill:#FFFFFF;" d="M228.411,40.101v2.117c-0.991,0.353-1.919,0.529-2.786,0.529c-2.246,0-3.37-1.332-3.37-3.996
					c0-0.67,0.115-1.553,0.346-2.647l4.325-20.378h-2.601l0.318-1.482l2.732-0.741l2.123-6.828h1.831l-1.459,6.828h3.794
					l-0.478,2.223h-3.794L225.2,35.39c-0.247,1.129-0.371,2.064-0.371,2.805c0,0.794,0.146,1.363,0.438,1.707
					c0.292,0.344,0.757,0.516,1.394,0.516C227.208,40.418,227.792,40.312,228.411,40.101z"/>
				<path style="fill:#FFFFFF;" d="M240.883,13.502l-4.299,19.981c-0.318,1.376-0.478,2.567-0.478,3.573
					c0,2.17,0.831,3.255,2.494,3.255c3.697,0,6.324-3.679,7.881-11.036l3.37-15.773h2.494l-6.13,28.715h-1.964l0.213-3.573h-0.106
					c-1.787,2.735-3.9,4.102-6.342,4.102c-2.901,0-4.352-1.747-4.352-5.24c0-1.394,0.177-2.858,0.53-4.394l4.193-19.611H240.883z"/>
				<path style="fill:#FFFFFF;" d="M248.26,55.239c-0.902,0-1.681-0.097-2.335-0.291v-2.435c0.654,0.211,1.397,0.317,2.229,0.317
					c0.832,0,1.478-0.234,1.937-0.701c0.461-0.468,0.881-1.249,1.261-2.342c0.38-1.094,0.8-2.735,1.261-4.923l6.262-29.139h-3.211
					l0.266-1.429l3.477-1.085l0.557-2.594c0.513-2.523,1.075-4.49,1.686-5.902c0.609-1.412,1.321-2.426,2.136-3.044
					c0.813-0.617,1.928-0.926,3.343-0.926c1.168,0,2.149,0.221,2.945,0.662l-1.088,2.329c-0.742-0.371-1.468-0.556-2.176-0.556
					c-0.831,0-1.473,0.234-1.924,0.701c-0.45,0.468-0.866,1.257-1.247,2.369c-0.38,1.112-0.959,3.529-1.737,7.252h8.49
					c0.726-3.582,1.322-6.065,1.792-7.45c0.468-1.385,0.981-2.465,1.538-3.242c0.558-0.776,1.194-1.314,1.911-1.614
					c0.716-0.3,1.561-0.45,2.534-0.45c1.149,0,2.122,0.221,2.918,0.662l-1.088,2.329c-0.689-0.371-1.415-0.556-2.176-0.556
					c-0.796,0-1.415,0.212-1.857,0.635s-0.854,1.182-1.233,2.276c-0.381,1.094-0.978,3.564-1.791,7.411h3.821l-0.505,2.223h-3.794
					l-6.368,29.297c-0.602,2.823-1.177,4.923-1.725,6.299c-0.549,1.376-1.199,2.373-1.95,2.99c-0.753,0.618-1.792,0.926-3.118,0.926
					c-0.902,0-1.681-0.097-2.335-0.291v-2.435c0.654,0.211,1.397,0.317,2.229,0.317s1.477-0.234,1.938-0.701
					c0.46-0.468,0.88-1.249,1.26-2.342c0.381-1.094,0.801-2.735,1.261-4.923l6.235-29.139h-8.464l-6.369,29.297
					c-0.602,2.823-1.176,4.932-1.725,6.326c-0.548,1.394-1.193,2.391-1.937,2.991C250.647,54.939,249.604,55.239,248.26,55.239z"/>
				<path style="fill:#FFFFFF;" d="M275.587,40.815c0-1.076,0.247-1.98,0.743-2.712c0.494-0.732,1.158-1.099,1.989-1.099
					c0.479,0,0.85,0.186,1.115,0.556c0.265,0.371,0.397,0.856,0.397,1.456c0,1.076-0.243,1.95-0.729,2.62
					c-0.486,0.67-1.11,1.005-1.871,1.005c-0.442,0-0.827-0.155-1.154-0.463C275.75,41.87,275.587,41.415,275.587,40.815z"/>
			</g>
		</g>
		<g>
			<g>
				<g>
					<path style="fill:#FFFFFF;" d="M6.503,107.062h-2.68l7.668-36.152H4.698l0.558-2.541h16.239l-0.531,2.541h-6.792L6.503,107.062
						z"/>
					<path style="fill:#FFFFFF;" d="M21.009,107.591c-1.893,0-3.343-0.705-4.352-2.117c-1.008-1.411-1.512-3.414-1.512-6.008
						c0-2.505,0.318-5.196,0.955-8.072s1.468-5.314,2.494-7.317s2.229-3.551,3.609-4.645c1.38-1.095,2.919-1.642,4.617-1.642
						c1.875,0,3.339,0.729,4.392,2.184c1.052,1.456,1.579,3.507,1.579,6.153c0,2.453-0.323,5.086-0.969,7.9
						c-0.646,2.814-1.49,5.231-2.534,7.251c-1.044,2.021-2.264,3.578-3.662,4.672S22.689,107.591,21.009,107.591z M17.745,99.969
						c0,3.564,1.194,5.346,3.583,5.346c1.574,0,3.025-0.895,4.352-2.686s2.41-4.318,3.25-7.583c0.84-3.264,1.26-6.413,1.26-9.448
						c0-3.616-1.229-5.426-3.688-5.426c-1.486,0-2.879,0.865-4.179,2.594c-1.3,1.729-2.388,4.253-3.264,7.569
						C18.183,93.652,17.745,96.863,17.745,99.969z"/>
					<path style="fill:#FFFFFF;" d="M54.577,78.346l-0.372,1.773l-3.635,0.45c0.531,1.006,0.796,2.268,0.796,3.784
						c0,1.924-0.394,3.904-1.181,5.941c-0.788,2.038-1.831,3.636-3.131,4.791s-2.738,1.733-4.312,1.733H42.08l-0.584-0.053
						c-2.211,1.535-3.316,2.929-3.316,4.182c0,0.405,0.07,0.736,0.212,0.992s0.362,0.468,0.664,0.635
						c0.3,0.168,1.344,0.525,3.131,1.072c2.229,0.688,3.794,1.558,4.697,2.606c0.902,1.05,1.353,2.457,1.353,4.222
						c0,2.841-0.938,5.151-2.813,6.935c-1.875,1.781-4.29,2.673-7.244,2.673c-2.335,0-4.144-0.592-5.427-1.773
						c-1.282-1.183-1.923-2.85-1.923-5.002c0-1.853,0.575-3.542,1.725-5.068c1.149-1.526,2.786-2.766,4.909-3.719
						c-1.114-0.741-1.671-1.737-1.671-2.99c0-0.917,0.283-1.809,0.849-2.673c0.566-0.864,1.583-1.817,3.051-2.858
						c-1.521-1.271-2.282-3.114-2.282-5.531c0-2.171,0.438-4.292,1.313-6.365c0.875-2.073,1.981-3.644,3.316-4.711
						s2.817-1.602,4.445-1.602c1.132,0,1.999,0.186,2.6,0.556H54.577z M33.217,113.122c0,1.729,0.438,2.978,1.313,3.745
						c0.876,0.768,2.163,1.151,3.861,1.151c2.158,0,3.949-0.653,5.374-1.959c1.423-1.306,2.136-3.008,2.136-5.107
						c0-1.13-0.358-2.108-1.075-2.938c-0.716-0.83-1.809-1.456-3.277-1.88l-2.388-0.635c-1.698,0.564-3.114,1.562-4.246,2.99
						C33.783,109.92,33.217,111.464,33.217,113.122z M39.851,90.864c0,1.306,0.252,2.299,0.756,2.978
						c0.504,0.68,1.234,1.019,2.189,1.019c1.097,0,2.092-0.463,2.985-1.389c0.893-0.927,1.632-2.32,2.215-4.182
						c0.584-1.861,0.876-3.648,0.876-5.359c0-2.717-0.956-4.076-2.866-4.076c-1.08,0-2.074,0.494-2.985,1.482
						s-1.667,2.439-2.269,4.354C40.151,87.604,39.851,89.329,39.851,90.864z"/>
					<path style="fill:#FFFFFF;" d="M60.415,107.591c-2.123,0-3.777-0.736-4.962-2.21c-1.186-1.473-1.778-3.533-1.778-6.18
						c0-3.775,0.535-7.317,1.605-10.626s2.521-5.933,4.352-7.874c1.831-1.94,3.754-2.911,5.771-2.911
						c1.539,0,2.729,0.446,3.569,1.337s1.26,2.236,1.26,4.036c0,2.17-0.526,4.066-1.579,5.689c-1.053,1.624-2.556,2.832-4.511,3.626
						c-1.955,0.794-4.285,1.191-6.992,1.191h-0.318c-0.372,1.747-0.558,3.503-0.558,5.267c0,4.252,1.627,6.378,4.882,6.378
						c0.832,0,1.614-0.114,2.349-0.344c0.734-0.229,1.569-0.617,2.507-1.164v2.54C64.528,107.176,62.661,107.591,60.415,107.591z
						 M64.979,80.119c-1.575,0-3.069,1.041-4.484,3.123c-1.416,2.082-2.53,4.835-3.343,8.258c7.058,0,10.587-2.797,10.587-8.39
						c0-0.936-0.199-1.668-0.597-2.197C66.743,80.384,66.022,80.119,64.979,80.119z"/>
					<path style="fill:#FFFFFF;" d="M78.514,104.944v2.117c-0.991,0.353-1.919,0.529-2.786,0.529c-2.247,0-3.37-1.332-3.37-3.996
						c0-0.671,0.115-1.553,0.345-2.646l4.325-20.379h-2.6l0.318-1.482l2.733-0.741l2.123-6.828h1.831l-1.459,6.828h3.794
						l-0.478,2.224h-3.794l-4.192,19.664c-0.248,1.129-0.372,2.064-0.372,2.806c0,0.794,0.146,1.362,0.438,1.707
						c0.292,0.344,0.756,0.516,1.393,0.516C77.311,105.262,77.895,105.156,78.514,104.944z"/>
					<path style="fill:#FFFFFF;" d="M93.877,107.062l4.564-21.569c0.176-0.706,0.265-1.447,0.265-2.224
						c0-1.993-0.885-2.99-2.653-2.99c-1.857,0-3.415,0.891-4.67,2.673s-2.273,4.562-3.051,8.337l-3.37,15.773h-2.495l8.73-41.181
						h2.521l-2.627,12.016l-1.088,4.446h0.106c1.645-3.035,3.785-4.553,6.421-4.553c1.486,0,2.636,0.429,3.449,1.284
						s1.221,2.086,1.221,3.691c0,0.988-0.124,2.056-0.372,3.202l-4.458,21.094H93.877z"/>
					<path style="fill:#FFFFFF;" d="M111.205,107.591c-2.123,0-3.777-0.736-4.962-2.21c-1.186-1.473-1.778-3.533-1.778-6.18
						c0-3.775,0.535-7.317,1.605-10.626s2.521-5.933,4.352-7.874c1.831-1.94,3.754-2.911,5.771-2.911
						c1.539,0,2.729,0.446,3.569,1.337s1.26,2.236,1.26,4.036c0,2.17-0.526,4.066-1.579,5.689c-1.053,1.624-2.556,2.832-4.511,3.626
						c-1.955,0.794-4.285,1.191-6.992,1.191h-0.318c-0.372,1.747-0.558,3.503-0.558,5.267c0,4.252,1.627,6.378,4.882,6.378
						c0.832,0,1.614-0.114,2.349-0.344c0.734-0.229,1.569-0.617,2.507-1.164v2.54C115.317,107.176,113.451,107.591,111.205,107.591z
						 M115.769,80.119c-1.575,0-3.069,1.041-4.484,3.123c-1.416,2.082-2.53,4.835-3.343,8.258c7.058,0,10.587-2.797,10.587-8.39
						c0-0.936-0.199-1.668-0.597-2.197C117.533,80.384,116.812,80.119,115.769,80.119z"/>
					<path style="fill:#FFFFFF;" d="M136.043,77.79c0.69,0,1.335,0.106,1.937,0.317l-0.69,2.567
						c-0.53-0.265-1.114-0.396-1.751-0.396c-1.504,0-2.901,1.032-4.192,3.097c-1.292,2.063-2.318,4.887-3.078,8.469l-3.264,15.218
						h-2.494l6.076-28.716h1.857l-0.77,5.029h0.106C131.337,79.652,133.425,77.79,136.043,77.79z"/>
					<path style="fill:#FFFFFF;" d="M136.411,105.659c0-1.076,0.247-1.98,0.743-2.713c0.495-0.732,1.159-1.099,1.99-1.099
						c0.478,0,0.849,0.186,1.114,0.556c0.266,0.371,0.398,0.856,0.398,1.456c0,1.076-0.243,1.949-0.729,2.62
						c-0.487,0.67-1.11,1.006-1.871,1.006c-0.442,0-0.827-0.155-1.154-0.464C136.574,106.713,136.411,106.259,136.411,105.659z"/>
				</g>
			</g>
		</g>
	</g>
</g>
</svg>
