<?xml version="1.0" encoding="utf-8"?>
<!-- Generator: Adobe Illustrator 16.0.0, SVG Export Plug-In . SVG Version: 6.00 Build 0)  -->
<!DOCTYPE svg PUBLIC "-//W3C//DTD SVG 1.1//EN" "http://www.w3.org/Graphics/SVG/1.1/DTD/svg11.dtd">
<svg version="1.1" id="Layer_1" xmlns="http://www.w3.org/2000/svg" xmlns:xlink="http://www.w3.org/1999/xlink" x="0px" y="0px"
	 width="271px" height="367px" viewBox="0 0 271 367" enable-background="new 0 0 271 367" xml:space="preserve">
<g>
	<g>
		<path fill="#FFFFFF" d="M85.283,302.043c-1.823,0-3.649-0.041-5.48-0.125c-30.123-1.376-58.302-13.998-79.344-35.541l1.087-1.063
			c42.813,43.831,112.892,47.032,159.54,7.287c23.731-20.219,38.145-48.445,40.585-79.479c2.439-31.016-7.375-61.125-27.634-84.782
			C132.203,59.491,58.322,53.696,9.345,95.424L8.36,94.267c49.612-42.27,124.452-36.399,166.832,13.085
			c20.523,23.965,30.466,54.468,27.995,85.889c-2.473,31.439-17.074,60.034-41.114,80.517
			C140.537,292.105,113.453,302.043,85.283,302.043z"/>
		<g>
			<path fill="#FFFFFF" d="M87.501,27.991c-7.7,0-13.964-6.135-13.964-13.677S79.801,0.637,87.501,0.637s13.965,6.136,13.965,13.677
				S95.201,27.991,87.501,27.991z M87.501,2.157c-6.862,0-12.445,5.454-12.445,12.158s5.583,12.157,12.445,12.157
				c6.862,0,12.445-5.454,12.445-12.157S94.363,2.157,87.501,2.157z"/>
			<g>
				<rect x="87.25" y="27.231" fill="#FFFFFF" width="1.52" height="39.25"/>
				<g>
					<path fill="#FFFFFF" d="M87.501,366.881c-7.7,0-13.964-6.136-13.964-13.677s6.264-13.677,13.964-13.677
						s13.965,6.136,13.965,13.677S95.201,366.881,87.501,366.881z M87.501,341.047c-6.862,0-12.445,5.454-12.445,12.157
						s5.583,12.157,12.445,12.157c6.862,0,12.445-5.454,12.445-12.157S94.363,341.047,87.501,341.047z"/>
					<g>
						<rect x="85.726" y="300.774" fill="#FFFFFF" width="1.52" height="39.25"/>
						<g>
							<path fill="#FFFFFF" d="M257.385,197.185c-7.561,0-13.712-6.136-13.712-13.679s6.151-13.679,13.712-13.679
								c7.562,0,13.713,6.136,13.713,13.679S264.946,197.185,257.385,197.185z M257.385,171.35c-6.721,0-12.188,5.453-12.188,12.156
								c0,6.702,5.468,12.155,12.188,12.155c6.722,0,12.189-5.453,12.189-12.155C269.574,176.803,264.106,171.35,257.385,171.35z"/>
							<g>
								<rect x="204.82" y="183.504" fill="#FFFFFF" width="39.352" height="1.523"/>
								<g>
									<path fill="#FFFFFF" d="M206.268,316.979c-3.679,0-7.136-1.429-9.736-4.022c-2.602-2.595-4.034-6.045-4.034-9.715
										s1.433-7.12,4.034-9.715c2.601-2.594,6.058-4.022,9.736-4.022c3.678,0,7.136,1.429,9.736,4.022
										c2.602,2.595,4.034,6.045,4.034,9.715s-1.433,7.12-4.034,9.715C213.403,315.55,209.945,316.979,206.268,316.979z
										 M206.268,291.025c-3.272,0-6.349,1.271-8.662,3.579c-2.313,2.307-3.587,5.374-3.587,8.637s1.273,6.33,3.587,8.637
										c2.313,2.308,5.39,3.579,8.662,3.579c3.271,0,6.349-1.271,8.662-3.579c2.313-2.307,3.587-5.374,3.587-8.637
										s-1.273-6.33-3.587-8.637C212.616,292.297,209.539,291.025,206.268,291.025z"/>
									<g>
										
											<rect x="162.959" y="279.971" transform="matrix(0.708 0.7062 -0.7062 0.708 251.5668 -46.9896)" fill="#FFFFFF" width="39.301" height="1.522"/>
										<g>
											<path fill="#FFFFFF" d="M233.28,112.416c-4.91,0-9.484-2.632-11.938-6.87c-1.838-3.175-2.327-6.875-1.378-10.417
												c0.95-3.548,3.23-6.514,6.419-8.35c2.093-1.205,4.47-1.842,6.873-1.842c4.91,0,9.484,2.633,11.938,6.871
												c1.838,3.175,2.327,6.874,1.378,10.416c-0.95,3.549-3.23,6.514-6.419,8.351
												C238.061,111.779,235.684,112.416,233.28,112.416z M233.257,86.459c-2.138,0-4.251,0.566-6.113,1.639
												c-2.836,1.633-4.863,4.27-5.708,7.425c-0.844,3.149-0.409,6.438,1.226,9.26c2.182,3.769,6.251,6.11,10.619,6.11
												c2.138,0,4.251-0.567,6.113-1.639c2.836-1.633,4.863-4.27,5.708-7.425c0.844-3.148,0.408-6.437-1.226-9.259
												C241.695,88.8,237.626,86.459,233.257,86.459z"/>
											<g>
												
													<rect x="204.587" y="95.98" transform="matrix(0.499 0.8666 -0.8666 0.499 203.0858 -120.0178)" fill="#FFFFFF" width="1.522" height="39.326"/>
											</g>
										</g>
									</g>
								</g>
							</g>
						</g>
					</g>
				</g>
			</g>
		</g>
	</g>
</g>
</svg>
