<?xml version="1.0" encoding="iso-8859-1"?>
<!-- Generator: Adobe Illustrator 16.0.0, SVG Export Plug-In . SVG Version: 6.00 Build 0)  -->
<!DOCTYPE svg PUBLIC "-//W3C//DTD SVG 1.1//EN" "http://www.w3.org/Graphics/SVG/1.1/DTD/svg11.dtd">
<svg version="1.1" id="Layer_1" xmlns="http://www.w3.org/2000/svg" xmlns:xlink="http://www.w3.org/1999/xlink" x="0px" y="0px"
	 width="102px" height="47px" viewBox="0 0 102 47" style="enable-background:new 0 0 102 47;" xml:space="preserve">
<g>
	<g>
		<rect x="0.138" y="7.733" style="fill:#546A30;" width="34.897" height="0.507"/>
		<polygon style="fill-rule:evenodd;clip-rule:evenodd;fill:#546A30;" points="34.358,4.609 41.13,7.987 34.358,11.363 
			34.358,4.609 		"/>
		<g>
			<g>
				<g>
					<path style="fill:#546A30;" d="M46.358,0.236h1.76l1.546,5.041l1.674-5.062h1.408l1.675,5.062l1.547-5.041h1.717l-2.549,7.498
						h-1.43l-1.686-4.871l-1.685,4.871h-1.429L46.358,0.236z"/>
					<path style="fill:#546A30;" d="M61.15,0.236h1.643v2.946h3.029V0.236h1.643v7.445h-1.643V4.692h-3.029v2.989H61.15V0.236z"/>
					<path style="fill:#546A30;" d="M73.864,0.183h1.515l3.199,7.498h-1.717l-0.683-1.67h-3.157l-0.683,1.67h-1.675L73.864,0.183z
						 M75.592,4.565L74.6,2.151l-0.991,2.414H75.592z"/>
					<path style="fill:#546A30;" d="M82.685,1.747h-2.272v-1.51h6.187v1.51h-2.271v5.935h-1.643V1.747z"/>
				</g>
			</g>
			<g>
				<g>
					<g>
						<path style="fill:#546A30;" d="M46.934,13.416h1.643v3.254l3.029-3.254h1.984l-3.04,3.159l3.179,4.286h-1.974l-2.314-3.169
							l-0.864,0.894v2.276h-1.643V13.416z"/>
						<path style="fill:#546A30;" d="M56.575,13.416h5.632v1.457h-4v1.51h3.521v1.457h-3.521v1.563h4.054v1.457h-5.686V13.416z"/>
						<path style="fill:#546A30;" d="M65.715,13.416h5.632v1.457h-4v1.51h3.521v1.457h-3.521v1.563H71.4v1.457h-5.686V13.416z"/>
						<path style="fill:#546A30;" d="M74.855,13.416h3.051c1.781,0,2.858,1.053,2.858,2.574v0.021c0,1.723-1.344,2.616-3.019,2.616
							h-1.248v2.233h-1.643V13.416z M77.8,17.17c0.821,0,1.301-0.489,1.301-1.127v-0.021c0-0.734-0.512-1.127-1.333-1.127h-1.27
							v2.276H77.8z"/>
						<path style="fill:#546A30;" d="M83.484,19.776l0.971-1.159c0.672,0.553,1.376,0.904,2.229,0.904
							c0.672,0,1.077-0.266,1.077-0.702v-0.021c0-0.415-0.256-0.627-1.504-0.946c-1.504-0.383-2.475-0.798-2.475-2.276v-0.021
							c0-1.351,1.088-2.244,2.613-2.244c1.088,0,2.016,0.34,2.773,0.947l-0.854,1.233c-0.661-0.457-1.313-0.733-1.941-0.733
							s-0.96,0.287-0.96,0.648v0.021c0,0.489,0.32,0.648,1.61,0.979c1.515,0.394,2.368,0.936,2.368,2.233v0.021
							c0,1.479-1.131,2.308-2.741,2.308C85.521,20.967,84.381,20.574,83.484,19.776z"/>
					</g>
				</g>
				<g>
					<g>
						<g>
							<path style="fill:#546A30;" d="M46.817,30.834V26.58h1.643v4.211c0,1.213,0.608,1.84,1.61,1.84s1.61-0.605,1.61-1.785V26.58
								h1.642v4.201c0,2.254-1.269,3.361-3.274,3.361C48.043,34.143,46.817,33.025,46.817,30.834z"/>
							<path style="fill:#546A30;" d="M56.575,32.939l0.971-1.158c0.672,0.553,1.376,0.904,2.229,0.904
								c0.672,0,1.077-0.266,1.077-0.703v-0.021c0-0.414-0.256-0.627-1.504-0.945c-1.504-0.383-2.475-0.799-2.475-2.277v-0.02
								c0-1.352,1.088-2.244,2.613-2.244c1.088,0,2.016,0.34,2.773,0.945l-0.854,1.234c-0.661-0.457-1.313-0.734-1.941-0.734
								s-0.96,0.287-0.96,0.648v0.021c0,0.49,0.32,0.648,1.61,0.979c1.515,0.395,2.368,0.936,2.368,2.234v0.021
								c0,1.477-1.131,2.307-2.741,2.307C58.612,34.131,57.472,33.738,56.575,32.939z"/>
						</g>
					</g>
					<g>
						<g>
							<g>
								<path style="fill:#546A30;" d="M46.934,39.244h1.771l1.962,3.148l1.962-3.148H54.4v7.445h-1.633v-4.861l-2.101,3.18h-0.042
									l-2.08-3.146v4.828h-1.61V39.244z"/>
								<path style="fill:#546A30;" d="M57.771,42.988v-0.021c0-2.117,1.675-3.85,3.979-3.85s3.957,1.711,3.957,3.828v0.021
									c0,2.117-1.675,3.85-3.979,3.85S57.771,45.104,57.771,42.988z M63.988,42.988v-0.021c0-1.277-0.938-2.34-2.261-2.34
									s-2.24,1.043-2.24,2.318v0.021c0,1.275,0.938,2.34,2.262,2.34C63.071,45.307,63.988,44.264,63.988,42.988z"/>
								<path style="fill:#546A30;" d="M68.126,39.244h1.813l1.952,5.244l1.951-5.244h1.771l-3.019,7.498h-1.45L68.126,39.244z"/>
								<path style="fill:#546A30;" d="M78.994,39.244h1.643v7.445h-1.643V39.244z"/>
								<path style="fill:#546A30;" d="M84.497,39.244h1.515l3.499,4.584v-4.584h1.621v7.445h-1.397l-3.615-4.732v4.732h-1.622
									V39.244z"/>
								<path style="fill:#546A30;" d="M94.832,42.988v-0.021c0-2.117,1.653-3.85,3.914-3.85c1.344,0,2.154,0.361,2.934,1.02
									l-1.035,1.246c-0.575-0.479-1.088-0.756-1.951-0.756c-1.195,0-2.145,1.053-2.145,2.318v0.021
									c0,1.361,0.938,2.361,2.262,2.361c0.597,0,1.13-0.148,1.546-0.447v-1.063h-1.652v-1.416h3.242v3.234
									c-0.769,0.648-1.824,1.18-3.189,1.18C96.432,46.816,94.832,45.189,94.832,42.988z"/>
							</g>
						</g>
					</g>
				</g>
			</g>
		</g>
	</g>
</g>
</svg>
