<?xml version="1.0" encoding="iso-8859-1"?>
<!-- Generator: Adobe Illustrator 16.0.0, SVG Export Plug-In . SVG Version: 6.00 Build 0)  -->
<!DOCTYPE svg PUBLIC "-//W3C//DTD SVG 1.1//EN" "http://www.w3.org/Graphics/SVG/1.1/DTD/svg11.dtd">
<svg version="1.1" id="Layer_1" xmlns="http://www.w3.org/2000/svg" xmlns:xlink="http://www.w3.org/1999/xlink" x="0px" y="0px"
	 width="124px" height="111px" viewBox="0 0 124 111" style="enable-background:new 0 0 124 111;" xml:space="preserve">
<g>
	<g>
		<path style="fill:#546A30;" d="M123.955,110.969H0.044V0.031h123.911V110.969z M4.097,106.916h115.806V4.084H4.097V106.916z"/>
		<g>
			<polygon style="fill-rule:evenodd;clip-rule:evenodd;fill:#546A30;" points="2.07,2.564 71.648,2.564 2.07,71.963 2.07,2.564 			
				"/>
			<g>
				<g>
					<g>
						<path style="fill:#FFFFFF;" d="M29.117,66.33h-0.744l-3.291-7.783h-0.048c0.048,0.539,0.071,1.057,0.071,1.555v6.229h-0.571
							v-8.68h0.756l3.268,7.693h0.036c-0.032-0.648-0.047-1.191-0.047-1.627V57.65h0.571V66.33z"/>
						<path style="fill:#FFFFFF;" d="M34.679,63.094c0,1.086-0.172,1.914-0.515,2.49c-0.343,0.576-0.834,0.865-1.473,0.865
							c-0.631,0-1.114-0.289-1.449-0.865c-0.335-0.576-0.503-1.404-0.503-2.49c0-2.219,0.659-3.33,1.976-3.33
							c0.619,0,1.101,0.291,1.446,0.873S34.679,62.037,34.679,63.094z M31.328,63.094c0,0.93,0.111,1.633,0.333,2.107
							s0.569,0.713,1.042,0.713c0.924,0,1.387-0.939,1.387-2.82c0-1.863-0.462-2.795-1.387-2.795c-0.484,0-0.834,0.232-1.05,0.699
							C31.436,61.467,31.328,62.164,31.328,63.094z"/>
						<path style="fill:#FFFFFF;" d="M39.029,66.33v-4.441c0-1.068-0.317-1.602-0.952-1.602c-0.484,0-0.838,0.199-1.063,0.6
							c-0.224,0.398-0.336,1.035-0.336,1.904v3.539h-0.565v-6.441h0.477l0.047,0.896h0.054c0.135-0.324,0.329-0.576,0.583-0.754
							s0.526-0.268,0.815-0.268c0.5,0,0.875,0.168,1.125,0.502s0.375,0.871,0.375,1.611v4.453H39.029z"/>
					</g>
				</g>
				<g>
					<g>
						<g>
							<path style="fill:#FFFFFF;" d="M40.655,63.35v-0.605h2.44v0.605H40.655z"/>
						</g>
					</g>
					<g>
						<g>
							<g>
								<path style="fill:#FFFFFF;" d="M46.25,59.775c1.262,0,1.893,1.107,1.893,3.318c0,1.094-0.157,1.926-0.47,2.496
									c-0.313,0.572-0.766,0.859-1.357,0.859c-0.31,0-0.591-0.086-0.845-0.256s-0.464-0.422-0.631-0.754h-0.047l-0.078,0.891
									H44.25v-9.238h0.565v2.869l-0.023,0.777h0.047C45.18,60.096,45.65,59.775,46.25,59.775z M46.226,60.299
									c-0.496,0-0.855,0.217-1.077,0.652s-0.333,1.15-0.333,2.143v0.148c0,1.797,0.478,2.695,1.435,2.695
									c0.437,0,0.763-0.23,0.979-0.693c0.216-0.465,0.324-1.18,0.324-2.15c0-0.93-0.105-1.627-0.315-2.096
									C47.027,60.531,46.69,60.299,46.226,60.299z"/>
								<path style="fill:#FFFFFF;" d="M49.25,58.102c0-0.178,0.037-0.316,0.11-0.416c0.074-0.098,0.167-0.148,0.283-0.148
									c0.107,0,0.192,0.051,0.256,0.148c0.063,0.1,0.095,0.238,0.095,0.416c0,0.17-0.032,0.307-0.095,0.406
									c-0.063,0.102-0.148,0.152-0.256,0.152c-0.115,0-0.209-0.051-0.283-0.152C49.286,58.408,49.25,58.271,49.25,58.102z
									 M49.898,66.33h-0.565v-6.441h0.565V66.33z"/>
								<path style="fill:#FFFFFF;" d="M52.433,66.33h-0.565v-9.238h0.565V66.33z"/>
								<path style="fill:#FFFFFF;" d="M54.968,66.33h-0.565v-9.238h0.565V66.33z"/>
								<path style="fill:#FFFFFF;" d="M59.438,66.33l-0.071-0.902h-0.024c-0.31,0.68-0.778,1.021-1.405,1.021
									c-0.42,0-0.759-0.168-1.015-0.502s-0.384-0.783-0.384-1.346c0-0.613,0.185-1.098,0.553-1.457
									c0.369-0.357,0.887-0.553,1.554-0.584l0.696-0.035V61.99c0-0.602-0.076-1.039-0.226-1.314
									c-0.151-0.275-0.401-0.412-0.75-0.412c-0.369,0-0.746,0.119-1.131,0.361l-0.244-0.445c0.448-0.277,0.918-0.416,1.411-0.416
									c0.532,0,0.915,0.168,1.148,0.502c0.234,0.334,0.352,0.893,0.352,1.678v4.387H59.438z M58.063,65.967
									c0.405,0,0.719-0.197,0.943-0.596s0.336-0.961,0.336-1.689v-0.67l-0.673,0.035c-0.52,0.027-0.905,0.172-1.157,0.43
									c-0.252,0.26-0.378,0.639-0.378,1.137c0,0.467,0.083,0.811,0.25,1.027C57.551,65.859,57.777,65.967,58.063,65.967z"/>
								<path style="fill:#FFFFFF;" d="M63.519,59.775c1.262,0,1.893,1.107,1.893,3.318c0,1.094-0.156,1.926-0.47,2.496
									c-0.313,0.572-0.766,0.859-1.357,0.859c-0.309,0-0.591-0.086-0.845-0.256s-0.464-0.422-0.631-0.754h-0.048l-0.077,0.891
									H61.52v-9.238h0.565v2.869l-0.024,0.777h0.048C62.449,60.096,62.92,59.775,63.519,59.775z M63.495,60.299
									c-0.496,0-0.855,0.217-1.077,0.652c-0.223,0.436-0.333,1.15-0.333,2.143v0.148c0,1.797,0.478,2.695,1.434,2.695
									c0.437,0,0.763-0.23,0.979-0.693c0.216-0.465,0.324-1.18,0.324-2.15c0-0.93-0.105-1.627-0.315-2.096
									C64.297,60.531,63.959,60.299,63.495,60.299z"/>
								<path style="fill:#FFFFFF;" d="M67.168,66.33h-0.565v-9.238h0.565V66.33z"/>
								<path style="fill:#FFFFFF;" d="M70.971,66.449c-0.683,0-1.207-0.291-1.574-0.871s-0.551-1.387-0.551-2.424
									c0-1.102,0.164-1.941,0.491-2.521c0.327-0.578,0.798-0.869,1.413-0.869c0.536,0,0.959,0.254,1.268,0.764
									c0.31,0.508,0.465,1.193,0.465,2.057v0.521h-3.06c0.008,0.939,0.141,1.641,0.399,2.107c0.258,0.467,0.648,0.701,1.172,0.701
									c0.405,0,0.831-0.133,1.279-0.398v0.547C71.861,66.32,71.427,66.449,70.971,66.449z M70.715,60.275
									c-0.778,0-1.204,0.773-1.28,2.32h2.482c0-0.709-0.108-1.271-0.324-1.691C71.376,60.484,71.084,60.275,70.715,60.275z"/>
								<path style="fill:#FFFFFF;" d="M79.334,66.33l-0.893-4.363c-0.009-0.031-0.016-0.066-0.021-0.102s-0.068-0.416-0.188-1.139
									h-0.012l-0.083,0.504l-0.137,0.736l-0.923,4.363h-0.673l-1.404-6.441h0.565l0.804,3.752l0.375,1.959h0.035
									c0.071-0.566,0.187-1.223,0.346-1.971l0.803-3.74h0.596l0.81,3.752c0.063,0.281,0.176,0.934,0.339,1.959h0.036
									c0.012-0.131,0.07-0.459,0.175-0.986c0.105-0.525,0.441-2.102,1.009-4.725h0.56L80,66.33H79.334z"/>
								<path style="fill:#FFFFFF;" d="M85.985,63.094c0,1.086-0.171,1.914-0.515,2.49c-0.343,0.576-0.834,0.865-1.473,0.865
									c-0.631,0-1.114-0.289-1.449-0.865c-0.336-0.576-0.503-1.404-0.503-2.49c0-2.219,0.658-3.33,1.976-3.33
									c0.619,0,1.102,0.291,1.446,0.873C85.813,61.219,85.985,62.037,85.985,63.094z M82.635,63.094
									c0,0.93,0.111,1.633,0.334,2.107c0.222,0.475,0.569,0.713,1.041,0.713c0.925,0,1.387-0.939,1.387-2.82
									c0-1.863-0.462-2.795-1.387-2.795c-0.484,0-0.834,0.232-1.051,0.699C82.743,61.467,82.635,62.164,82.635,63.094z"/>
								<path style="fill:#FFFFFF;" d="M89.212,59.764c0.202,0,0.391,0.027,0.565,0.084l-0.137,0.563
									c-0.143-0.059-0.29-0.088-0.44-0.088c-0.219,0-0.422,0.111-0.61,0.336c-0.188,0.223-0.336,0.535-0.443,0.934
									c-0.106,0.4-0.16,0.842-0.16,1.324v3.414h-0.565v-6.441h0.464l0.06,1.129h0.042C88.287,60.182,88.696,59.764,89.212,59.764z
									"/>
								<path style="fill:#FFFFFF;" d="M91.544,63.143l0.363-0.654l1.595-2.6h0.613l-1.488,2.369l1.619,4.072H93.65l-1.404-3.551
									l-0.714,0.938v2.613h-0.565v-9.238h0.565v4.969l-0.042,1.082H91.544z"/>
								<path style="fill:#FFFFFF;" d="M98.408,62.281h-1.845v-0.486h1.845v-2.576h0.488v2.576h1.839v0.486h-1.839v2.564h-0.488
									V62.281z"/>
							</g>
						</g>
						<g>
							<g>
								<g>
									<path style="fill:#FFFFFF;" d="M22.882,80.525l-0.071-0.902h-0.024c-0.31,0.68-0.778,1.021-1.405,1.021
										c-0.42,0-0.759-0.168-1.015-0.502s-0.384-0.783-0.384-1.346c0-0.613,0.185-1.098,0.553-1.457
										c0.369-0.357,0.887-0.553,1.554-0.584l0.696-0.035v-0.535c0-0.602-0.076-1.039-0.226-1.314
										c-0.151-0.275-0.401-0.412-0.75-0.412c-0.369,0-0.746,0.119-1.131,0.361l-0.244-0.445c0.448-0.277,0.918-0.416,1.411-0.416
										c0.532,0,0.915,0.168,1.148,0.502c0.234,0.334,0.352,0.893,0.352,1.678v4.387H22.882z M21.507,80.162
										c0.405,0,0.719-0.197,0.943-0.596s0.336-0.961,0.336-1.689v-0.67l-0.673,0.035c-0.52,0.027-0.905,0.172-1.157,0.43
										c-0.252,0.26-0.378,0.639-0.378,1.137c0,0.467,0.083,0.811,0.25,1.027C20.996,80.055,21.222,80.162,21.507,80.162z"/>
									<path style="fill:#FFFFFF;" d="M26.54,80.645c-1.253,0-1.88-1.111-1.88-3.332c0-1.092,0.157-1.924,0.47-2.496
										c0.313-0.57,0.775-0.857,1.387-0.857c0.29,0,0.564,0.084,0.824,0.25s0.467,0.396,0.622,0.688h0.047l-0.024-0.717v-2.893
										h0.565v9.238h-0.464l-0.048-0.902h-0.054c-0.155,0.328-0.355,0.58-0.601,0.756S26.857,80.645,26.54,80.645z M26.576,80.15
										c0.452,0,0.8-0.209,1.044-0.625c0.244-0.418,0.366-1.033,0.366-1.844v-0.369c0-0.973-0.118-1.686-0.354-2.139
										c-0.236-0.453-0.596-0.68-1.08-0.68c-0.464,0-0.797,0.242-1,0.727c-0.202,0.484-0.304,1.186-0.304,2.105
										c0,0.926,0.105,1.627,0.315,2.107C25.774,79.912,26.112,80.15,26.576,80.15z"/>
									<path style="fill:#FFFFFF;" d="M30.767,80.525l-1.523-6.441h0.571l0.964,4.145c0.111,0.479,0.218,1,0.321,1.566h0.047
										c0.028-0.205,0.067-0.436,0.119-0.689c0.052-0.252,0.442-1.926,1.172-5.021h0.572l-1.571,6.441H30.767z"/>
									<path style="fill:#FFFFFF;" d="M36.604,80.525l-0.071-0.902h-0.024c-0.31,0.68-0.778,1.021-1.405,1.021
										c-0.42,0-0.759-0.168-1.015-0.502s-0.384-0.783-0.384-1.346c0-0.613,0.185-1.098,0.553-1.457
										c0.369-0.357,0.887-0.553,1.554-0.584l0.696-0.035v-0.535c0-0.602-0.076-1.039-0.226-1.314
										c-0.151-0.275-0.401-0.412-0.75-0.412c-0.369,0-0.746,0.119-1.131,0.361l-0.244-0.445c0.448-0.277,0.918-0.416,1.411-0.416
										c0.532,0,0.915,0.168,1.148,0.502c0.234,0.334,0.352,0.893,0.352,1.678v4.387H36.604z M35.229,80.162
										c0.405,0,0.719-0.197,0.943-0.596s0.336-0.961,0.336-1.689v-0.67l-0.673,0.035c-0.52,0.027-0.905,0.172-1.157,0.43
										c-0.252,0.26-0.378,0.639-0.378,1.137c0,0.467,0.083,0.811,0.25,1.027C34.717,80.055,34.943,80.162,35.229,80.162z"/>
									<path style="fill:#FFFFFF;" d="M41.601,80.525v-4.441c0-1.068-0.317-1.602-0.952-1.602c-0.484,0-0.838,0.199-1.063,0.6
										c-0.224,0.398-0.336,1.035-0.336,1.904v3.539h-0.565v-6.441h0.477l0.047,0.896h0.054c0.135-0.324,0.329-0.576,0.583-0.754
										s0.526-0.268,0.815-0.268c0.5,0,0.875,0.168,1.125,0.502s0.375,0.871,0.375,1.611v4.453H41.601z"/>
									<path style="fill:#FFFFFF;" d="M45.425,80.645c-0.646,0-1.134-0.281-1.461-0.842c-0.328-0.559-0.491-1.381-0.491-2.465
										c0-1.102,0.166-1.939,0.497-2.516c0.331-0.574,0.82-0.863,1.467-0.863c0.4,0,0.734,0.074,1,0.221l-0.22,0.498
										c-0.266-0.123-0.51-0.184-0.732-0.184c-0.948,0-1.422,0.943-1.422,2.832c0,1.871,0.474,2.807,1.422,2.807
										c0.282,0,0.587-0.063,0.917-0.189v0.475c-0.131,0.072-0.292,0.127-0.482,0.166S45.564,80.645,45.425,80.645z"/>
									<path style="fill:#FFFFFF;" d="M47.242,72.297c0-0.178,0.037-0.316,0.11-0.416c0.074-0.098,0.167-0.148,0.283-0.148
										c0.107,0,0.192,0.051,0.256,0.148c0.063,0.1,0.095,0.238,0.095,0.416c0,0.17-0.032,0.307-0.095,0.406
										c-0.063,0.102-0.148,0.152-0.256,0.152c-0.115,0-0.209-0.051-0.283-0.152C47.278,72.604,47.242,72.467,47.242,72.297z
										 M47.89,80.525h-0.565v-6.441h0.565V80.525z"/>
									<path style="fill:#FFFFFF;" d="M52.776,80.525v-4.441c0-1.068-0.317-1.602-0.952-1.602c-0.484,0-0.838,0.199-1.063,0.6
										c-0.224,0.398-0.336,1.035-0.336,1.904v3.539H49.86v-6.441h0.477l0.047,0.896h0.054c0.135-0.324,0.329-0.576,0.583-0.754
										s0.526-0.268,0.815-0.268c0.5,0,0.875,0.168,1.125,0.502s0.375,0.871,0.375,1.611v4.453H52.776z"/>
									<path style="fill:#FFFFFF;" d="M58.321,74.084v0.398l-0.881,0.1c0.119,0.154,0.216,0.375,0.292,0.662
										s0.113,0.582,0.113,0.883c0,0.625-0.142,1.131-0.426,1.52c-0.284,0.387-0.658,0.582-1.122,0.582h-0.143l-0.125-0.014
										c-0.19,0.135-0.34,0.27-0.449,0.404c-0.109,0.135-0.164,0.291-0.164,0.469c0,0.182,0.071,0.324,0.214,0.426
										c0.143,0.1,0.335,0.15,0.578,0.15h0.405c0.575,0,1.021,0.148,1.339,0.445s0.476,0.727,0.476,1.289
										c0,0.629-0.213,1.127-0.64,1.494c-0.427,0.369-0.989,0.553-1.688,0.553c-0.583,0-1.032-0.146-1.345-0.441
										c-0.313-0.295-0.47-0.721-0.47-1.273c0-0.404,0.103-0.75,0.309-1.037c0.207-0.287,0.53-0.514,0.97-0.68
										c-0.198-0.086-0.358-0.207-0.479-0.361s-0.182-0.338-0.182-0.553c0-0.193,0.064-0.367,0.193-0.52s0.313-0.314,0.551-0.488
										c-0.33-0.15-0.579-0.395-0.747-0.73s-0.253-0.732-0.253-1.188c0-0.686,0.145-1.225,0.435-1.621
										c0.29-0.395,0.687-0.594,1.19-0.594c0.27,0,0.496,0.041,0.678,0.125H58.321z M54.845,81.682
										c0,0.408,0.106,0.727,0.318,0.957c0.212,0.229,0.533,0.344,0.961,0.344c0.532,0,0.953-0.139,1.265-0.416
										s0.467-0.656,0.467-1.139c0-0.389-0.106-0.688-0.318-0.9c-0.212-0.211-0.521-0.316-0.925-0.316h-0.417
										c-0.389,0-0.711,0.135-0.967,0.406C54.973,80.889,54.845,81.244,54.845,81.682z M55.196,76.186
										c0,0.525,0.097,0.926,0.292,1.195c0.194,0.271,0.452,0.408,0.773,0.408c0.69,0,1.036-0.555,1.036-1.662
										c0-0.535-0.088-0.953-0.265-1.254c-0.177-0.301-0.434-0.451-0.771-0.451c-0.345,0-0.609,0.154-0.792,0.463
										S55.196,75.627,55.196,76.186z"/>
									<path style="fill:#FFFFFF;" d="M63.705,80.645c-0.647,0-1.134-0.281-1.462-0.842c-0.327-0.559-0.49-1.381-0.49-2.465
										c0-1.102,0.165-1.939,0.496-2.516c0.332-0.574,0.82-0.863,1.468-0.863c0.4,0,0.733,0.074,1,0.221l-0.221,0.498
										c-0.266-0.123-0.51-0.184-0.731-0.184c-0.949,0-1.423,0.943-1.423,2.832c0,1.871,0.474,2.807,1.423,2.807
										c0.281,0,0.587-0.063,0.916-0.189v0.475c-0.131,0.072-0.292,0.127-0.482,0.166S63.844,80.645,63.705,80.645z"/>
									<path style="fill:#FFFFFF;" d="M68.104,80.525l-0.071-0.902h-0.023c-0.31,0.68-0.778,1.021-1.404,1.021
										c-0.421,0-0.759-0.168-1.016-0.502c-0.256-0.334-0.384-0.783-0.384-1.346c0-0.613,0.185-1.098,0.554-1.457
										c0.369-0.357,0.887-0.553,1.554-0.584l0.696-0.035v-0.535c0-0.602-0.075-1.039-0.227-1.314
										c-0.15-0.275-0.4-0.412-0.75-0.412c-0.368,0-0.746,0.119-1.131,0.361l-0.243-0.445c0.448-0.277,0.918-0.416,1.41-0.416
										c0.531,0,0.914,0.168,1.148,0.502s0.352,0.893,0.352,1.678v4.387H68.104z M66.729,80.162c0.404,0,0.719-0.197,0.943-0.596
										c0.224-0.398,0.336-0.961,0.336-1.689v-0.67l-0.673,0.035c-0.52,0.027-0.905,0.172-1.157,0.43
										c-0.252,0.26-0.378,0.639-0.378,1.137c0,0.467,0.083,0.811,0.25,1.027C66.217,80.055,66.443,80.162,66.729,80.162z"/>
									<path style="fill:#FFFFFF;" d="M72.262,80.645c-0.326,0-0.622-0.092-0.89-0.271c-0.269-0.18-0.472-0.426-0.61-0.738h-0.054
										l0.042,0.707v3.104h-0.565v-9.361h0.464l0.06,0.885h0.054c0.158-0.324,0.362-0.574,0.61-0.748
										c0.247-0.174,0.519-0.262,0.812-0.262c1.262,0,1.893,1.111,1.893,3.33c0,1.072-0.154,1.9-0.464,2.482
										S72.853,80.645,72.262,80.645z M72.148,74.494c-0.473,0-0.823,0.207-1.054,0.623s-0.345,1.066-0.345,1.953v0.184
										c0,0.99,0.116,1.717,0.351,2.182s0.592,0.697,1.071,0.697c0.444,0,0.774-0.23,0.991-0.691
										c0.216-0.461,0.324-1.178,0.324-2.152c0-0.93-0.101-1.627-0.304-2.096C72.981,74.727,72.637,74.494,72.148,74.494z"/>
									<path style="fill:#FFFFFF;" d="M77.768,80.525l-0.071-0.902h-0.023c-0.31,0.68-0.778,1.021-1.404,1.021
										c-0.421,0-0.759-0.168-1.016-0.502c-0.256-0.334-0.384-0.783-0.384-1.346c0-0.613,0.185-1.098,0.554-1.457
										c0.369-0.357,0.887-0.553,1.554-0.584l0.696-0.035v-0.535c0-0.602-0.075-1.039-0.227-1.314
										c-0.15-0.275-0.4-0.412-0.75-0.412c-0.368,0-0.746,0.119-1.131,0.361l-0.243-0.445c0.448-0.277,0.918-0.416,1.41-0.416
										c0.531,0,0.914,0.168,1.148,0.502s0.352,0.893,0.352,1.678v4.387H77.768z M76.394,80.162c0.404,0,0.719-0.197,0.943-0.596
										c0.224-0.398,0.336-0.961,0.336-1.689v-0.67L77,77.242c-0.52,0.027-0.905,0.172-1.157,0.43
										c-0.252,0.26-0.378,0.639-0.378,1.137c0,0.467,0.083,0.811,0.25,1.027C75.881,80.055,76.107,80.162,76.394,80.162z"/>
									<path style="fill:#FFFFFF;" d="M81.848,73.971c1.262,0,1.893,1.107,1.893,3.318c0,1.094-0.156,1.926-0.47,2.496
										c-0.313,0.572-0.766,0.859-1.357,0.859c-0.309,0-0.591-0.086-0.845-0.256s-0.464-0.422-0.631-0.754H80.39l-0.077,0.891
										h-0.464v-9.238h0.565v2.869l-0.024,0.777h0.048C80.778,74.291,81.249,73.971,81.848,73.971z M81.824,74.494
										c-0.496,0-0.855,0.217-1.077,0.652c-0.223,0.436-0.333,1.15-0.333,2.143v0.148c0,1.797,0.478,2.695,1.434,2.695
										c0.437,0,0.763-0.23,0.979-0.693c0.216-0.465,0.324-1.18,0.324-2.15c0-0.93-0.105-1.627-0.315-2.096
										C82.626,74.727,82.288,74.494,81.824,74.494z"/>
									<path style="fill:#FFFFFF;" d="M84.849,72.297c0-0.178,0.037-0.316,0.11-0.416c0.073-0.098,0.168-0.148,0.283-0.148
										c0.106,0,0.192,0.051,0.256,0.148c0.063,0.1,0.095,0.238,0.095,0.416c0,0.17-0.031,0.307-0.095,0.406
										c-0.063,0.102-0.149,0.152-0.256,0.152c-0.115,0-0.21-0.051-0.283-0.152C84.886,72.604,84.849,72.467,84.849,72.297z
										 M85.498,80.525h-0.565v-6.441h0.565V80.525z"/>
									<path style="fill:#FFFFFF;" d="M88.033,80.525h-0.565v-9.238h0.565V80.525z"/>
									<path style="fill:#FFFFFF;" d="M89.919,72.297c0-0.178,0.037-0.316,0.11-0.416c0.073-0.098,0.168-0.148,0.283-0.148
										c0.106,0,0.192,0.051,0.256,0.148c0.063,0.1,0.095,0.238,0.095,0.416c0,0.17-0.031,0.307-0.095,0.406
										c-0.063,0.102-0.149,0.152-0.256,0.152c-0.115,0-0.21-0.051-0.283-0.152C89.956,72.604,89.919,72.467,89.919,72.297z
										 M90.568,80.525h-0.565v-6.441h0.565V80.525z"/>
									<path style="fill:#FFFFFF;" d="M93.723,80.121c0.174,0,0.329-0.023,0.464-0.07v0.475c-0.175,0.078-0.398,0.119-0.673,0.119
										c-0.666,0-1-0.498-1-1.49v-4.572h-0.583V74.25l0.571-0.166l0.185-1.531h0.393v1.531h1.024v0.498h-1.024v4.412
										c0,0.436,0.048,0.73,0.144,0.889C93.317,80.043,93.484,80.121,93.723,80.121z"/>
									<path style="fill:#FFFFFF;" d="M95.004,72.297c0-0.178,0.037-0.316,0.11-0.416c0.073-0.098,0.168-0.148,0.283-0.148
										c0.106,0,0.192,0.051,0.256,0.148c0.063,0.1,0.095,0.238,0.095,0.416c0,0.17-0.031,0.307-0.095,0.406
										c-0.063,0.102-0.149,0.152-0.256,0.152c-0.115,0-0.21-0.051-0.283-0.152C95.041,72.604,95.004,72.467,95.004,72.297z
										 M95.653,80.525h-0.565v-6.441h0.565V80.525z"/>
									<path style="fill:#FFFFFF;" d="M99.456,80.645c-0.683,0-1.207-0.291-1.574-0.871s-0.551-1.387-0.551-2.424
										c0-1.102,0.164-1.941,0.491-2.521c0.327-0.578,0.798-0.869,1.413-0.869c0.536,0,0.959,0.254,1.268,0.764
										c0.31,0.508,0.465,1.193,0.465,2.057v0.521h-3.06c0.008,0.939,0.141,1.641,0.399,2.107
										c0.258,0.467,0.648,0.701,1.172,0.701c0.405,0,0.831-0.133,1.279-0.398v0.547C100.347,80.516,99.912,80.645,99.456,80.645z
										 M99.2,74.471c-0.778,0-1.204,0.773-1.28,2.32h2.482c0-0.709-0.108-1.271-0.324-1.691
										C99.861,74.68,99.569,74.471,99.2,74.471z"/>
									<path style="fill:#FFFFFF;" d="M104.73,78.91c0,0.543-0.143,0.967-0.429,1.273c-0.285,0.307-0.698,0.461-1.238,0.461
										c-0.293,0-0.551-0.039-0.773-0.113c-0.222-0.076-0.395-0.158-0.518-0.25v-0.658c0.146,0.146,0.341,0.264,0.583,0.354
										c0.242,0.088,0.49,0.133,0.744,0.133c0.333,0,0.596-0.109,0.786-0.326c0.19-0.219,0.285-0.51,0.285-0.873
										c0-0.285-0.068-0.525-0.205-0.721c-0.137-0.197-0.398-0.42-0.783-0.668c-0.44-0.277-0.74-0.498-0.901-0.666
										c-0.16-0.166-0.285-0.352-0.375-0.557c-0.089-0.207-0.134-0.451-0.134-0.736c0-0.463,0.156-0.846,0.47-1.148
										s0.713-0.455,1.196-0.455c0.521,0,0.955,0.123,1.304,0.369l-0.291,0.492c-0.326-0.217-0.671-0.326-1.036-0.326
										c-0.333,0-0.599,0.098-0.798,0.293c-0.198,0.195-0.297,0.455-0.297,0.775c0,0.285,0.067,0.523,0.202,0.715
										s0.421,0.424,0.857,0.697c0.428,0.281,0.722,0.506,0.88,0.674c0.159,0.168,0.277,0.355,0.354,0.559
										S104.73,78.645,104.73,78.91z"/>
								</g>
							</g>
							<g>
								<path style="fill:#FFFFFF;" d="M17.665,26.186c0.402-0.414,0.659-0.868,0.769-1.361c0.11-0.494,0.092-0.98-0.055-1.459
									c-0.147-0.479-0.406-0.905-0.775-1.277l-0.011-0.011c-0.375-0.367-0.8-0.623-1.278-0.767s-0.962-0.161-1.452-0.048
									c-0.491,0.112-0.942,0.37-1.355,0.773c-0.402,0.414-0.659,0.868-0.769,1.361c-0.11,0.494-0.092,0.98,0.055,1.459
									c0.147,0.479,0.406,0.905,0.775,1.277l0.011,0.011c0.375,0.367,0.8,0.623,1.278,0.767c0.478,0.145,0.962,0.161,1.452,0.048
									C16.8,26.846,17.252,26.588,17.665,26.186L17.665,26.186z M17.406,25.906c-0.337,0.33-0.715,0.543-1.134,0.64
									c-0.418,0.096-0.838,0.083-1.257-0.042c-0.419-0.124-0.799-0.351-1.138-0.682l-0.011-0.011
									c-0.333-0.336-0.563-0.711-0.689-1.125c-0.126-0.414-0.142-0.828-0.047-1.243s0.307-0.791,0.637-1.128
									c0.337-0.33,0.715-0.543,1.134-0.64c0.419-0.096,0.838-0.083,1.257,0.042c0.419,0.124,0.798,0.351,1.137,0.682l0.012,0.011
									c0.333,0.336,0.563,0.711,0.689,1.125c0.126,0.414,0.142,0.828,0.047,1.243S17.735,25.568,17.406,25.906L17.406,25.906z
									 M23.328,20.51c0.261-0.27,0.42-0.547,0.477-0.833c0.056-0.286,0.044-0.564-0.037-0.836l0.546,0.542l0.28-0.281
									l-2.937-2.915l-0.28,0.281l1.698,1.686c0.305,0.315,0.458,0.663,0.461,1.041c0.003,0.379-0.14,0.718-0.427,1.018
									c-0.301,0.293-0.621,0.432-0.96,0.415c-0.339-0.017-0.663-0.177-0.971-0.479l-1.745-1.733l-0.28,0.281l1.797,1.784
									c0.36,0.353,0.751,0.537,1.175,0.554C22.548,21.052,22.949,20.877,23.328,20.51L23.328,20.51z M27.164,16.529l0.28-0.281
									l-1.204-1.195c-0.316-0.32-0.525-0.646-0.627-0.979c-0.102-0.332-0.114-0.649-0.035-0.952
									c0.079-0.302,0.232-0.568,0.46-0.797l0.029-0.029l-0.31-0.308c-0.299,0.288-0.48,0.625-0.544,1.014
									c-0.063,0.388-0.021,0.774,0.128,1.158l-0.834-0.828l-0.28,0.281L27.164,16.529L27.164,16.529z"/>
								<g>
									<path style="fill:#FFFFFF;" d="M22.144,35.978l0.768-0.77l-1.732-3.525l3.543,1.71l0.768-0.77l-2.689-5.403l-0.923,0.924
										l1.898,3.543l-3.641-1.82l-0.756,0.758l1.841,3.623l-3.561-1.877l-0.946,0.948L22.144,35.978L22.144,35.978z
										 M28.937,29.113l0.882-0.884L28.2,26.623l1.629-1.632l1.618,1.606l0.882-0.884l-4.031-4.002l-0.882,0.884l1.596,1.583
										l-1.629,1.632l-1.595-1.584l-0.882,0.884L28.937,29.113L28.937,29.113z M35.798,22.237l0.882-0.884l-1.606-1.595
										l-0.882-3.952l-1.003,1.005l0.644,2.583l-2.575-0.647l-1.032,1.034l3.984,0.879L35.798,22.237L35.798,22.237z"/>
								</g>
							</g>
						</g>
					</g>
				</g>
			</g>
		</g>
	</g>
</g>
</svg>
