<?xml version="1.0" encoding="iso-8859-1"?>
<!-- Generator: Adobe Illustrator 16.0.0, SVG Export Plug-In . SVG Version: 6.00 Build 0)  -->
<!DOCTYPE svg PUBLIC "-//W3C//DTD SVG 1.1//EN" "http://www.w3.org/Graphics/SVG/1.1/DTD/svg11.dtd">
<svg version="1.1" id="Layer_1" xmlns="http://www.w3.org/2000/svg" xmlns:xlink="http://www.w3.org/1999/xlink" x="0px" y="0px"
	 width="172px" height="87px" viewBox="0 0 172 87" style="enable-background:new 0 0 172 87;" xml:space="preserve">
<g>
	<g>
		<g>
			<g>
				<path style="fill:#FFFFFF;" d="M7.755,0.802h5.357c2.063,0,3.717,0.594,4.963,1.781c1.246,1.188,1.869,2.763,1.869,4.726
					c0,2.644-0.591,4.852-1.773,6.625c-1.183,1.773-2.805,2.858-4.868,3.253l-0.048,0.142c1.158,0.301,2.099,1.009,2.821,2.125
					c0.722,1.116,1.083,2.434,1.083,3.954c0,2.39-0.405,4.503-1.214,6.34c-0.809,1.836-1.984,3.257-3.523,4.262
					c-1.54,1.005-3.389,1.508-5.547,1.508H0.399L7.755,0.802z M6.375,18.445L3.208,33.286H6.97c2.444,0,4.348-0.851,5.713-2.553
					c1.365-1.702,2.047-4.017,2.047-6.945c0-1.646-0.405-2.948-1.214-3.906c-0.809-0.958-1.937-1.437-3.38-1.437H6.375z
					 M6.827,16.213h3.5c1.428,0,2.682-0.364,3.762-1.092c1.079-0.728,1.916-1.753,2.511-3.075c0.595-1.321,0.893-2.806,0.893-4.452
					c0-1.535-0.405-2.671-1.214-3.407c-0.81-0.736-2.04-1.104-3.69-1.104H9.66L6.827,16.213z"/>
				<path style="fill:#FFFFFF;" d="M27.012,35.993c-1.905,0-3.389-0.661-4.452-1.983c-1.063-1.322-1.595-3.17-1.595-5.544
					c0-3.387,0.48-6.565,1.44-9.534c0.96-2.968,2.261-5.323,3.904-7.064c1.643-1.741,3.369-2.612,5.178-2.612
					c1.381,0,2.448,0.4,3.202,1.199c0.753,0.8,1.131,2.006,1.131,3.621c0,1.947-0.473,3.649-1.417,5.105
					c-0.945,1.457-2.294,2.541-4.047,3.253c-1.754,0.712-3.845,1.068-6.273,1.068h-0.286c-0.333,1.567-0.5,3.143-0.5,4.726
					c0,3.815,1.46,5.722,4.38,5.722c0.746,0,1.448-0.103,2.107-0.309c0.658-0.206,1.408-0.554,2.25-1.044v2.279
					C30.702,35.62,29.027,35.993,27.012,35.993z M31.106,11.345c-1.413,0-2.754,0.934-4.023,2.802c-1.27,1.868-2.27,4.337-3,7.409
					c6.333,0,9.499-2.509,9.499-7.527c0-0.839-0.179-1.496-0.536-1.971C32.689,11.583,32.042,11.345,31.106,11.345z"/>
				<path style="fill:#FFFFFF;" d="M43.916,35.993c-1.841,0-3.25-0.633-4.226-1.9c-0.976-1.266-1.464-3.095-1.464-5.485
					c0-3.435,0.5-6.708,1.5-9.819c1-3.11,2.293-5.477,3.88-7.1c1.587-1.623,3.364-2.434,5.333-2.434
					c1.365,0,2.507,0.261,3.428,0.784l-0.929,2.042c-0.841-0.459-1.738-0.688-2.69-0.688c-1.46,0-2.797,0.768-4.011,2.303
					c-1.214,1.536-2.214,3.728-3,6.578c-0.785,2.849-1.178,5.644-1.178,8.382c0,3.53,1.27,5.295,3.809,5.295
					c1,0,2.134-0.316,3.404-0.95v2.042C46.582,35.676,45.296,35.993,43.916,35.993z"/>
				<path style="fill:#FFFFFF;" d="M57.18,35.993c-3.174,0-4.761-2.232-4.761-6.696c0-3.309,0.496-6.585,1.488-9.831
					c0.992-3.245,2.277-5.758,3.857-7.539c1.579-1.781,3.305-2.671,5.178-2.671c2.126,0,3.507,1.188,4.143,3.562h0.143l0.929-3.063
					h1.904l-5.452,25.763h-1.809l0.428-3.704h-0.095C61.323,34.6,59.338,35.993,57.18,35.993z M57.632,34.021
					c1.429,0,2.762-0.823,4-2.469c1.238-1.646,2.286-4.052,3.143-7.219c0.857-3.166,1.286-6.15,1.286-8.952
					c0-1.314-0.282-2.307-0.845-2.98s-1.353-1.009-2.369-1.009c-1.397,0-2.69,0.804-3.88,2.41c-1.19,1.607-2.19,3.962-3,7.064
					c-0.81,3.103-1.214,6.023-1.214,8.762c0,1.44,0.21,2.533,0.631,3.277C55.803,33.65,56.553,34.021,57.632,34.021z"/>
				<path style="fill:#FFFFFF;" d="M78.293,9.754l-3.857,17.927c-0.286,1.235-0.428,2.303-0.428,3.206
					c0,1.947,0.746,2.921,2.238,2.921c3.317,0,5.673-3.301,7.07-9.902L86.34,9.754h2.238l-5.5,25.763h-1.762l0.19-3.206h-0.095
					c-1.604,2.454-3.5,3.681-5.69,3.681c-2.603,0-3.904-1.567-3.904-4.702c0-1.25,0.159-2.564,0.476-3.942l3.762-17.595H78.293z"/>
				<path style="fill:#FFFFFF;" d="M93.102,35.993c-0.889,0-1.816-0.111-2.785-0.333c-0.968-0.222-1.627-0.467-1.976-0.736v-2.612
					c0.381,0.38,1.02,0.732,1.917,1.057c0.896,0.325,1.797,0.487,2.701,0.487c1.539,0,2.738-0.447,3.596-1.342
					c0.856-0.894,1.285-2.165,1.285-3.811c0-0.696-0.088-1.333-0.262-1.911c-0.176-0.578-0.401-1.112-0.679-1.603
					c-0.278-0.491-0.894-1.258-1.845-2.303c-1.032-1.124-1.73-1.975-2.096-2.553c-0.365-0.578-0.65-1.199-0.857-1.864
					c-0.205-0.665-0.309-1.433-0.309-2.303c0-2.058,0.635-3.724,1.904-4.999c1.27-1.274,2.912-1.912,4.928-1.912
					c2.158,0,3.896,0.491,5.214,1.472l-1.214,2.042c-1.127-0.918-2.492-1.377-4.096-1.377c-1.301,0-2.377,0.408-3.225,1.223
					c-0.85,0.816-1.273,1.904-1.273,3.265c0,0.934,0.17,1.781,0.512,2.541c0.34,0.76,0.987,1.663,1.939,2.707
					c1.143,1.235,1.916,2.169,2.321,2.802s0.726,1.322,0.964,2.065c0.238,0.745,0.357,1.567,0.357,2.47
					c0,2.406-0.607,4.262-1.821,5.568C97.09,35.339,95.355,35.993,93.102,35.993z"/>
				<path style="fill:#FFFFFF;" d="M110.72,35.993c-1.904,0-3.389-0.661-4.451-1.983c-1.063-1.322-1.596-3.17-1.596-5.544
					c0-3.387,0.48-6.565,1.44-9.534s2.262-5.323,3.904-7.064s3.369-2.612,5.179-2.612c1.38,0,2.447,0.4,3.201,1.199
					c0.754,0.8,1.131,2.006,1.131,3.621c0,1.947-0.472,3.649-1.416,5.105s-2.294,2.541-4.047,3.253
					c-1.754,0.712-3.845,1.068-6.273,1.068h-0.286c-0.333,1.567-0.499,3.143-0.499,4.726c0,3.815,1.46,5.722,4.38,5.722
					c0.746,0,1.448-0.103,2.107-0.309c0.658-0.206,1.408-0.554,2.249-1.044v2.279C114.41,35.62,112.735,35.993,110.72,35.993z
					 M114.814,11.345c-1.412,0-2.753,0.934-4.022,2.802c-1.271,1.868-2.271,4.337-3,7.409c6.333,0,9.499-2.509,9.499-7.527
					c0-0.839-0.179-1.496-0.536-1.971C116.398,11.583,115.751,11.345,114.814,11.345z"/>
				<path style="fill:#FFFFFF;" d="M131.098,35.518h-2.237l5.499-25.763h2.238L131.098,35.518z M135.479,3.319
					c0-0.808,0.182-1.504,0.547-2.09c0.365-0.585,0.834-0.878,1.405-0.878c0.745,0,1.119,0.459,1.119,1.377
					c0,0.902-0.175,1.646-0.524,2.232c-0.349,0.586-0.81,0.878-1.381,0.878C135.867,4.839,135.479,4.333,135.479,3.319z"/>
				<path style="fill:#FFFFFF;" d="M143.188,33.618v1.899c-0.889,0.316-1.723,0.475-2.5,0.475c-2.016,0-3.023-1.195-3.023-3.586
					c0-0.601,0.104-1.393,0.31-2.375l3.881-18.284h-2.333l0.285-1.33l2.452-0.665l1.904-6.126h1.644l-1.31,6.126h3.404l-0.429,1.994
					h-3.404l-3.762,17.643c-0.223,1.014-0.333,1.853-0.333,2.517c0,0.712,0.131,1.223,0.393,1.532s0.679,0.463,1.25,0.463
					C142.108,33.903,142.632,33.808,143.188,33.618z"/>
				<path style="fill:#FFFFFF;" d="M156.924,1.325c-1.508,3.198-3.443,6.736-5.809,10.614h-1.547
					c1.889-4.037,3.396-7.749,4.523-11.136h2.642L156.924,1.325z"/>
				<path style="fill:#FFFFFF;" d="M156.576,35.993c-0.89,0-1.818-0.111-2.786-0.333c-0.968-0.222-1.627-0.467-1.976-0.736v-2.612
					c0.381,0.38,1.02,0.732,1.916,1.057c0.896,0.325,1.798,0.487,2.702,0.487c1.539,0,2.738-0.447,3.595-1.342
					c0.857-0.894,1.286-2.165,1.286-3.811c0-0.696-0.088-1.333-0.262-1.911c-0.175-0.578-0.401-1.112-0.679-1.603
					c-0.278-0.491-0.893-1.258-1.845-2.303c-1.032-1.124-1.73-1.975-2.096-2.553c-0.365-0.578-0.65-1.199-0.856-1.864
					c-0.207-0.665-0.31-1.433-0.31-2.303c0-2.058,0.635-3.724,1.904-4.999c1.27-1.274,2.912-1.912,4.928-1.912
					c2.158,0,3.896,0.491,5.214,1.472l-1.214,2.042c-1.127-0.918-2.492-1.377-4.095-1.377c-1.302,0-2.377,0.408-3.226,1.223
					c-0.85,0.816-1.274,1.904-1.274,3.265c0,0.934,0.171,1.781,0.512,2.541c0.342,0.76,0.988,1.663,1.94,2.707
					c1.143,1.235,1.917,2.169,2.321,2.802s0.727,1.322,0.964,2.065c0.238,0.745,0.357,1.567,0.357,2.47
					c0,2.406-0.607,4.262-1.821,5.568C160.563,35.339,158.829,35.993,156.576,35.993z"/>
			</g>
		</g>
		<g>
			<g>
				<g>
					<path style="fill:#FFFFFF;" d="M13.303,86.171l0.69-17.452l0.286-5.414c-0.635,1.868-1.063,3.118-1.286,3.751
						c-0.223,0.634-2.667,7.005-7.333,19.115H2.875l0.476-25.764h2.261L5.304,75.414C5.24,78.201,5.065,80.813,4.78,83.25h0.095
						c0.127-0.442,0.44-1.354,0.94-2.73s3.075-8.081,7.725-20.112h2.595l-0.381,15.007c-0.047,1.425-0.167,3.499-0.357,6.222
						l-0.095,1.614h0.095l1.428-3.728l7.452-19.115h2.286l-10.38,25.764H13.303z"/>
					<path style="fill:#FFFFFF;" d="M34.724,86.171l4.095-19.353c0.159-0.633,0.238-1.298,0.238-1.994
						c0-1.789-0.794-2.684-2.381-2.684c-1.667,0-3.063,0.8-4.19,2.398c-1.127,1.6-2.04,4.093-2.738,7.479l-3.023,14.152h-2.238
						l7.833-36.947h2.261l-2.356,10.78l-0.976,3.989h0.095c1.476-2.723,3.396-4.084,5.761-4.084c1.333,0,2.364,0.384,3.095,1.151
						c0.73,0.768,1.095,1.872,1.095,3.313c0,0.887-0.111,1.844-0.333,2.873l-4,18.925H34.724z"/>
					<path style="fill:#FFFFFF;" d="M49.582,86.646c-1.698,0-3-0.633-3.904-1.899s-1.357-3.063-1.357-5.39
						c0-2.248,0.286-4.662,0.857-7.242s1.317-4.77,2.238-6.566c0.92-1.796,2-3.186,3.238-4.167s2.619-1.472,4.143-1.472
						c1.682,0,2.995,0.652,3.94,1.959c0.944,1.306,1.417,3.146,1.417,5.521c0,2.2-0.29,4.563-0.869,7.088
						c-0.58,2.525-1.337,4.693-2.273,6.506c-0.937,1.813-2.032,3.21-3.285,4.191C52.47,86.155,51.089,86.646,49.582,86.646z
						 M46.653,79.808c0,3.197,1.071,4.796,3.214,4.796c1.413,0,2.714-0.803,3.904-2.41c1.19-1.606,2.162-3.874,2.917-6.803
						c0.753-2.929,1.131-5.754,1.131-8.477c0-3.245-1.104-4.868-3.31-4.868c-1.333,0-2.583,0.775-3.75,2.327
						s-2.143,3.815-2.928,6.791C47.046,74.141,46.653,77.021,46.653,79.808z"/>
					<path style="fill:#FFFFFF;" d="M82.866,86.171l0.69-17.452l0.286-5.414c-0.635,1.868-1.063,3.118-1.286,3.751
						c-0.223,0.634-2.667,7.005-7.333,19.115h-2.785l0.476-25.764h2.261l-0.309,15.007c-0.064,2.787-0.238,5.398-0.524,7.836h0.095
						c0.127-0.442,0.44-1.354,0.94-2.73s3.075-8.081,7.725-20.112h2.595l-0.381,15.007c-0.047,1.425-0.167,3.499-0.357,6.222
						l-0.095,1.614h0.095l1.428-3.728l7.451-19.115h2.286l-10.38,25.764H82.866z"/>
					<path style="fill:#FFFFFF;" d="M101.168,86.646c-1.904,0-3.389-0.66-4.451-1.982c-1.064-1.321-1.596-3.17-1.596-5.545
						c0-3.387,0.48-6.565,1.44-9.533s2.261-5.322,3.904-7.064c1.643-1.741,3.368-2.611,5.178-2.611c1.381,0,2.448,0.399,3.202,1.199
						c0.754,0.799,1.131,2.006,1.131,3.621c0,1.946-0.473,3.648-1.417,5.104c-0.944,1.457-2.293,2.541-4.047,3.253
						c-1.754,0.713-3.845,1.069-6.272,1.069h-0.286c-0.333,1.566-0.5,3.143-0.5,4.725c0,3.815,1.46,5.723,4.38,5.723
						c0.746,0,1.448-0.103,2.107-0.309c0.658-0.205,1.408-0.554,2.25-1.045v2.279C104.858,86.273,103.184,86.646,101.168,86.646z
						 M105.263,61.998c-1.413,0-2.754,0.935-4.023,2.803c-1.271,1.867-2.27,4.337-2.999,7.408c6.332,0,9.498-2.509,9.498-7.527
						c0-0.839-0.179-1.496-0.535-1.971C106.846,62.236,106.199,61.998,105.263,61.998z"/>
					<path style="fill:#FFFFFF;" d="M125.283,86.646c-3.175,0-4.762-2.231-4.762-6.696c0-3.308,0.496-6.585,1.488-9.83
						c0.991-3.245,2.277-5.758,3.856-7.539s3.305-2.671,5.178-2.671c2.127,0,3.508,1.187,4.143,3.562h0.143l0.929-3.063h1.904
						l-5.452,25.764h-1.809l0.429-3.704h-0.096C129.425,85.253,127.441,86.646,125.283,86.646z M125.735,84.675
						c1.428,0,2.762-0.823,3.999-2.47c1.238-1.646,2.286-4.052,3.143-7.218c0.857-3.166,1.286-6.15,1.286-8.952
						c0-1.313-0.282-2.307-0.846-2.98c-0.563-0.672-1.354-1.009-2.368-1.009c-1.397,0-2.69,0.804-3.881,2.41s-2.19,3.962-3,7.064
						s-1.214,6.023-1.214,8.762c0,1.44,0.21,2.533,0.631,3.276C123.905,84.303,124.655,84.675,125.735,84.675z"/>
					<path style="fill:#FFFFFF;" d="M150.848,59.909c0.619,0,1.198,0.095,1.738,0.284l-0.619,2.304
						c-0.477-0.237-1-0.356-1.571-0.356c-1.35,0-2.604,0.927-3.762,2.778c-1.158,1.853-2.079,4.385-2.762,7.599l-2.928,13.653
						h-2.238l5.452-25.764h1.666l-0.69,4.512h0.096C146.626,61.579,148.499,59.909,150.848,59.909z"/>
					<path style="fill:#FFFFFF;" d="M157.091,86.646c-1.904,0-3.389-0.66-4.452-1.982c-1.063-1.321-1.595-3.17-1.595-5.545
						c0-3.387,0.479-6.565,1.44-9.533c0.96-2.968,2.262-5.322,3.904-7.064c1.643-1.741,3.368-2.611,5.178-2.611
						c1.381,0,2.448,0.399,3.202,1.199c0.754,0.799,1.131,2.006,1.131,3.621c0,1.946-0.473,3.648-1.417,5.104
						c-0.944,1.457-2.293,2.541-4.047,3.253c-1.754,0.713-3.845,1.069-6.273,1.069h-0.285c-0.333,1.566-0.5,3.143-0.5,4.725
						c0,3.815,1.46,5.723,4.381,5.723c0.745,0,1.447-0.103,2.106-0.309c0.658-0.205,1.408-0.554,2.25-1.045v2.279
						C160.781,86.273,159.106,86.646,157.091,86.646z M161.186,61.998c-1.413,0-2.754,0.935-4.023,2.803
						c-1.27,1.867-2.27,4.337-3,7.408c6.333,0,9.499-2.509,9.499-7.527c0-0.839-0.179-1.496-0.535-1.971
						C162.769,62.236,162.122,61.998,161.186,61.998z"/>
					<path style="fill:#FFFFFF;" d="M167.805,84.912c0-0.965,0.222-1.776,0.667-2.434c0.443-0.656,1.039-0.985,1.785-0.985
						c0.429,0,0.762,0.166,1,0.499c0.238,0.332,0.357,0.768,0.357,1.306c0,0.966-0.219,1.749-0.655,2.351s-0.996,0.902-1.679,0.902
						c-0.396,0-0.741-0.139-1.035-0.415C167.951,85.858,167.805,85.451,167.805,84.912z"/>
				</g>
			</g>
		</g>
	</g>
</g>
</svg>
