<?xml version="1.0" encoding="iso-8859-1"?>
<!-- Generator: Adobe Illustrator 16.0.0, SVG Export Plug-In . SVG Version: 6.00 Build 0)  -->
<!DOCTYPE svg PUBLIC "-//W3C//DTD SVG 1.1//EN" "http://www.w3.org/Graphics/SVG/1.1/DTD/svg11.dtd">
<svg version="1.1" id="Layer_1" xmlns="http://www.w3.org/2000/svg" xmlns:xlink="http://www.w3.org/1999/xlink" x="0px" y="0px"
	 width="261px" height="102px" viewBox="0 0 261 102" style="enable-background:new 0 0 261 102;" xml:space="preserve">
<g>
	<g>
		<g>
			<g>
				<path style="fill:#FFFFFF;" d="M9.641,17.316c0,1.907-0.507,3.403-1.522,4.487c-1.014,1.085-2.414,1.627-4.199,1.627
					c-0.771,0-1.493-0.083-2.166-0.248c-0.673-0.166-1.19-0.36-1.551-0.584v-1.576c1.18,0.691,2.458,1.036,3.833,1.036
					c1.297,0,2.307-0.42,3.029-1.262c0.722-0.841,1.083-1.992,1.083-3.451c0-0.623-0.078-1.182-0.234-1.678
					c-0.156-0.496-0.371-0.961-0.644-1.394c-0.273-0.433-0.81-1.073-1.61-1.919c-0.761-0.807-1.287-1.439-1.58-1.897
					C3.788,10,3.563,9.516,3.408,9.005c-0.156-0.511-0.234-1.077-0.234-1.7c0-1.109,0.237-2.113,0.71-3.013
					c0.473-0.9,1.136-1.591,1.99-2.072s1.851-0.723,2.992-0.723c0.634,0,1.297,0.088,1.99,0.263
					c0.692,0.175,1.209,0.379,1.551,0.613L11.63,3.745C10.743,3.19,9.772,2.913,8.719,2.913c-0.819,0-1.534,0.18-2.144,0.54
					c-0.609,0.36-1.08,0.861-1.412,1.503c-0.332,0.642-0.498,1.352-0.498,2.13c0,0.73,0.146,1.401,0.439,2.014
					c0.292,0.613,0.858,1.337,1.697,2.174c0.897,0.915,1.502,1.629,1.814,2.145s0.561,1.087,0.746,1.715
					C9.548,15.762,9.641,16.49,9.641,17.316z"/>
				<path style="fill:#FFFFFF;" d="M15.668,23.431c-1.044,0-1.844-0.389-2.399-1.167c-0.556-0.778-0.834-1.883-0.834-3.313
					c0-1.381,0.175-2.865,0.527-4.451c0.351-1.586,0.809-2.931,1.375-4.035c0.565-1.104,1.229-1.958,1.99-2.561
					c0.761-0.603,1.609-0.905,2.546-0.905c1.034,0,1.841,0.401,2.421,1.204c0.581,0.802,0.871,1.934,0.871,3.393
					c0,1.353-0.178,2.805-0.534,4.356c-0.356,1.552-0.822,2.884-1.397,3.999c-0.576,1.114-1.249,1.973-2.019,2.576
					C17.443,23.129,16.595,23.431,15.668,23.431z M13.869,19.228c0,1.965,0.659,2.948,1.976,2.948c0.868,0,1.667-0.494,2.399-1.481
					c0.731-0.987,1.329-2.381,1.792-4.181c0.463-1.8,0.695-3.536,0.695-5.209c0-1.995-0.678-2.992-2.034-2.992
					c-0.819,0-1.588,0.477-2.305,1.43s-1.317,2.345-1.799,4.173C14.11,15.745,13.869,17.516,13.869,19.228z"/>
				<path style="fill:#FFFFFF;" d="M35.854,23.139l0.424-10.726l0.176-3.327c-0.39,1.148-0.654,1.917-0.79,2.306
					c-0.137,0.389-1.639,4.305-4.506,11.748h-1.712l0.292-15.834h1.39l-0.19,9.223c-0.039,1.712-0.146,3.318-0.322,4.816h0.059
					c0.078-0.272,0.271-0.832,0.578-1.678c0.307-0.847,1.89-4.967,4.748-12.361h1.595l-0.234,9.223
					c-0.029,0.875-0.103,2.15-0.22,3.824l-0.059,0.992h0.059l0.878-2.291L42.6,7.305h1.405l-6.379,15.834H35.854z"/>
				<path style="fill:#FFFFFF;" d="M49.08,23.139l2.517-11.894c0.098-0.389,0.146-0.798,0.146-1.226
					c0-1.099-0.488-1.649-1.463-1.649c-1.024,0-1.882,0.492-2.575,1.474c-0.692,0.983-1.253,2.515-1.682,4.597l-1.858,8.698h-1.375
					l4.814-22.707h1.39l-1.448,6.625l-0.6,2.452h0.059c0.907-1.673,2.087-2.51,3.541-2.51c0.819,0,1.453,0.236,1.902,0.708
					c0.449,0.472,0.673,1.151,0.673,2.036c0,0.545-0.068,1.133-0.205,1.766l-2.458,11.631H49.08z"/>
				<path style="fill:#FFFFFF;" d="M52.391,30.319c-0.448,0-0.887-0.092-1.316-0.277v-1.255c0.361,0.156,0.79,0.234,1.287,0.234
					c0.527,0,0.978-0.212,1.354-0.635c0.375-0.423,0.836-1.267,1.383-2.532l1.039-2.481L56.02,7.305h1.375v9.325
					c0,1.567-0.059,3.138-0.175,4.714h0.088c0.517-1.527,0.99-2.812,1.419-3.853L62.94,7.305h1.448L56.166,26.7
					c-0.566,1.343-1.131,2.282-1.697,2.817C53.903,30.051,53.21,30.319,52.391,30.319z"/>
				<path style="fill:#FFFFFF;" d="M69.953,23.431c-0.546,0-1.117-0.068-1.712-0.205c-0.595-0.136-1-0.287-1.214-0.452v-1.605
					c0.234,0.233,0.626,0.45,1.178,0.649c0.551,0.2,1.104,0.299,1.661,0.299c0.946,0,1.683-0.275,2.209-0.825
					c0.526-0.549,0.79-1.33,0.79-2.342c0-0.428-0.054-0.819-0.161-1.175c-0.107-0.355-0.246-0.683-0.417-0.985
					c-0.171-0.301-0.548-0.773-1.134-1.416c-0.634-0.69-1.063-1.213-1.288-1.569c-0.225-0.355-0.4-0.737-0.527-1.146
					c-0.126-0.409-0.19-0.88-0.19-1.416c0-1.265,0.39-2.289,1.17-3.072s1.79-1.175,3.029-1.175c1.326,0,2.395,0.302,3.204,0.905
					l-0.746,1.255c-0.693-0.564-1.532-0.846-2.517-0.846c-0.8,0-1.461,0.25-1.982,0.751c-0.522,0.501-0.783,1.17-0.783,2.006
					c0,0.574,0.104,1.095,0.314,1.562c0.209,0.467,0.607,1.021,1.192,1.664c0.702,0.759,1.178,1.333,1.426,1.722
					c0.249,0.389,0.446,0.813,0.593,1.27c0.146,0.458,0.219,0.963,0.219,1.518c0,1.479-0.373,2.619-1.119,3.422
					S71.337,23.431,69.953,23.431z"/>
				<path style="fill:#FFFFFF;" d="M82.637,23.139l2.517-11.894c0.098-0.389,0.146-0.798,0.146-1.226
					c0-1.099-0.488-1.649-1.463-1.649c-1.024,0-1.882,0.492-2.575,1.474c-0.692,0.983-1.253,2.515-1.682,4.597l-1.858,8.698h-1.375
					L81.16,0.432h1.39l-1.448,6.625l-0.6,2.452h0.059c0.907-1.673,2.087-2.51,3.541-2.51c0.819,0,1.453,0.236,1.902,0.708
					c0.449,0.472,0.673,1.151,0.673,2.036c0,0.545-0.068,1.133-0.205,1.766l-2.458,11.631H82.637z"/>
				<path style="fill:#FFFFFF;" d="M91.918,23.431c-1.044,0-1.844-0.389-2.399-1.167c-0.556-0.778-0.834-1.883-0.834-3.313
					c0-1.381,0.175-2.865,0.527-4.451c0.351-1.586,0.809-2.931,1.375-4.035c0.565-1.104,1.229-1.958,1.99-2.561
					c0.761-0.603,1.609-0.905,2.546-0.905c1.034,0,1.841,0.401,2.421,1.204c0.581,0.802,0.871,1.934,0.871,3.393
					c0,1.353-0.178,2.805-0.534,4.356c-0.356,1.552-0.822,2.884-1.397,3.999c-0.576,1.114-1.249,1.973-2.019,2.576
					C93.693,23.129,92.845,23.431,91.918,23.431z M90.119,19.228c0,1.965,0.659,2.948,1.976,2.948c0.868,0,1.667-0.494,2.399-1.481
					c0.731-0.987,1.329-2.381,1.792-4.181c0.463-1.8,0.695-3.536,0.695-5.209c0-1.995-0.678-2.992-2.034-2.992
					c-0.819,0-1.588,0.477-2.305,1.43s-1.317,2.345-1.799,4.173C90.36,15.745,90.119,17.516,90.119,19.228z"/>
				<path style="fill:#FFFFFF;" d="M103.925,7.305l-2.37,11.018c-0.176,0.759-0.264,1.416-0.264,1.97
					c0,1.197,0.458,1.795,1.375,1.795c2.039,0,3.487-2.028,4.346-6.085l1.858-8.698h1.375l-3.38,15.834h-1.083l0.117-1.97h-0.059
					c-0.985,1.508-2.15,2.262-3.497,2.262c-1.6,0-2.399-0.963-2.399-2.89c0-0.769,0.097-1.576,0.292-2.422l2.312-10.814H103.925z"/>
				<path style="fill:#FFFFFF;" d="M112.255,23.139h-1.375l4.843-22.707h1.39L112.255,23.139z"/>
				<path style="fill:#FFFFFF;" d="M119.556,23.431c-1.951,0-2.926-1.372-2.926-4.115c0-2.034,0.305-4.047,0.915-6.042
					c0.609-1.994,1.399-3.539,2.37-4.633c0.97-1.094,2.031-1.642,3.182-1.642c0.673,0,1.236,0.204,1.69,0.613
					s0.739,0.944,0.856,1.605h0.088l1.829-8.785h1.39l-4.828,22.707h-1.112l0.264-2.276h-0.059
					C122.102,22.575,120.882,23.431,119.556,23.431z M119.833,22.22c0.878,0,1.697-0.499,2.458-1.496s1.405-2.457,1.931-4.378
					c0.527-1.921,0.79-3.763,0.79-5.524c0-0.827-0.156-1.452-0.468-1.875c-0.313-0.423-0.815-0.635-1.507-0.635
					c-0.858,0-1.653,0.494-2.385,1.481c-0.731,0.988-1.346,2.435-1.843,4.342c-0.498,1.907-0.747,3.702-0.747,5.385
					c0,0.885,0.129,1.557,0.388,2.014C118.709,21.991,119.17,22.22,119.833,22.22z"/>
			</g>
		</g>
		<g>
			<g>
				<g>
					<path style="fill:#FFFFFF;" d="M140.525,12.326h4.316l-2.225,10.332c-1.336,0.516-2.74,0.773-4.213,0.773
						c-3.561,0-5.34-2.228-5.34-6.684c0-1.79,0.248-3.682,0.746-5.677c0.496-1.994,1.172-3.73,2.025-5.209s1.824-2.581,2.912-3.306
						c1.088-0.725,2.26-1.087,3.518-1.087c1.658,0,3.127,0.457,4.404,1.372l-0.936,1.284c-0.664-0.486-1.271-0.817-1.822-0.992
						c-0.551-0.175-1.129-0.263-1.732-0.263c-1.084,0-2.08,0.35-2.992,1.051c-0.912,0.7-1.717,1.714-2.414,3.042
						c-0.699,1.328-1.252,2.89-1.662,4.685c-0.408,1.795-0.613,3.524-0.613,5.188c0,1.858,0.334,3.198,1.002,4.021
						s1.684,1.233,3.051,1.233c0.975,0,1.91-0.136,2.809-0.409l1.711-7.982h-2.838L140.525,12.326z"/>
					<path style="fill:#FFFFFF;" d="M150.271,23.431c-1.045,0-1.844-0.389-2.4-1.167c-0.555-0.778-0.834-1.883-0.834-3.313
						c0-1.381,0.176-2.865,0.527-4.451s0.809-2.931,1.375-4.035c0.566-1.104,1.229-1.958,1.99-2.561
						c0.76-0.603,1.609-0.905,2.545-0.905c1.035,0,1.842,0.401,2.422,1.204c0.58,0.802,0.871,1.934,0.871,3.393
						c0,1.353-0.178,2.805-0.535,4.356c-0.355,1.552-0.82,2.884-1.396,3.999c-0.576,1.114-1.248,1.973-2.02,2.576
						C152.047,23.129,151.197,23.431,150.271,23.431z M148.471,19.228c0,1.965,0.658,2.948,1.977,2.948
						c0.867,0,1.668-0.494,2.398-1.481c0.732-0.987,1.33-2.381,1.793-4.181c0.463-1.8,0.695-3.536,0.695-5.209
						c0-1.995-0.678-2.992-2.035-2.992c-0.818,0-1.586,0.477-2.303,1.43c-0.719,0.954-1.318,2.345-1.801,4.173
						C148.713,15.745,148.471,17.516,148.471,19.228z"/>
					<path style="fill:#FFFFFF;" d="M163.844,23.139l2.518-11.894c0.098-0.389,0.146-0.798,0.146-1.226
						c0-1.099-0.488-1.649-1.463-1.649c-1.025,0-1.883,0.492-2.576,1.474c-0.693,0.983-1.254,2.515-1.682,4.597l-1.859,8.698h-1.375
						l3.352-15.834h1.17l-0.365,2.204h0.059c0.906-1.673,2.086-2.51,3.539-2.51c0.82,0,1.453,0.236,1.902,0.708
						c0.449,0.472,0.674,1.151,0.674,2.036c0,0.545-0.068,1.133-0.205,1.766l-2.459,11.631H163.844z"/>
					<path style="fill:#FFFFFF;" d="M180.162,7.305l-0.203,0.978l-2.006,0.248c0.293,0.555,0.439,1.25,0.439,2.087
						c0,1.061-0.217,2.152-0.65,3.276c-0.436,1.124-1.01,2.004-1.727,2.642s-1.51,0.956-2.379,0.956h-0.365l-0.322-0.029
						c-1.219,0.846-1.828,1.615-1.828,2.306c0,0.224,0.039,0.406,0.117,0.547s0.199,0.258,0.365,0.35
						c0.166,0.093,0.742,0.29,1.727,0.591c1.229,0.379,2.092,0.858,2.59,1.437c0.498,0.579,0.746,1.355,0.746,2.328
						c0,1.566-0.518,2.841-1.551,3.824c-1.033,0.982-2.365,1.474-3.994,1.474c-1.287,0-2.285-0.326-2.992-0.978
						s-1.061-1.571-1.061-2.758c0-1.021,0.316-1.953,0.951-2.794c0.633-0.841,1.535-1.525,2.707-2.05
						c-0.615-0.409-0.922-0.958-0.922-1.649c0-0.506,0.156-0.998,0.467-1.474c0.313-0.477,0.873-1.002,1.684-1.576
						c-0.84-0.7-1.258-1.717-1.258-3.05c0-1.197,0.24-2.367,0.725-3.51c0.482-1.143,1.092-2.009,1.828-2.598
						c0.736-0.588,1.553-0.883,2.451-0.883c0.623,0,1.102,0.102,1.434,0.306H180.162z M168.385,26.481
						c0,0.954,0.242,1.642,0.725,2.065s1.191,0.635,2.129,0.635c1.189,0,2.178-0.36,2.963-1.08c0.785-0.72,1.178-1.659,1.178-2.817
						c0-0.623-0.197-1.163-0.594-1.62c-0.395-0.458-0.996-0.803-1.807-1.036l-1.316-0.35c-0.936,0.312-1.717,0.861-2.34,1.649
						C168.697,24.715,168.385,25.566,168.385,26.481z M172.043,14.208c0,0.72,0.139,1.268,0.416,1.642
						c0.279,0.375,0.682,0.562,1.207,0.562c0.605,0,1.154-0.255,1.646-0.766s0.9-1.279,1.223-2.306
						c0.32-1.026,0.482-2.012,0.482-2.955c0-1.498-0.527-2.248-1.58-2.248c-0.596,0-1.145,0.272-1.646,0.817s-0.92,1.345-1.25,2.4
						C172.209,12.411,172.043,13.362,172.043,14.208z"/>
					<path style="fill:#FFFFFF;" d="M182.779,23.431c-1.045,0-1.844-0.389-2.4-1.167c-0.555-0.778-0.834-1.883-0.834-3.313
						c0-1.381,0.176-2.865,0.527-4.451s0.809-2.931,1.375-4.035c0.566-1.104,1.229-1.958,1.99-2.561
						c0.76-0.603,1.609-0.905,2.545-0.905c1.035,0,1.842,0.401,2.422,1.204c0.58,0.802,0.871,1.934,0.871,3.393
						c0,1.353-0.178,2.805-0.535,4.356c-0.355,1.552-0.82,2.884-1.396,3.999c-0.576,1.114-1.248,1.973-2.02,2.576
						C184.555,23.129,183.705,23.431,182.779,23.431z M180.979,19.228c0,1.965,0.658,2.948,1.977,2.948
						c0.867,0,1.668-0.494,2.398-1.481c0.732-0.987,1.33-2.381,1.793-4.181c0.463-1.8,0.695-3.536,0.695-5.209
						c0-1.995-0.678-2.992-2.035-2.992c-0.818,0-1.586,0.477-2.303,1.43c-0.719,0.954-1.318,2.345-1.801,4.173
						C181.221,15.745,180.979,17.516,180.979,19.228z"/>
					<path style="fill:#FFFFFF;" d="M192.357,23.431c-0.547,0-1.117-0.068-1.713-0.205c-0.594-0.136-1-0.287-1.215-0.452v-1.605
						c0.234,0.233,0.627,0.45,1.18,0.649c0.551,0.2,1.104,0.299,1.66,0.299c0.945,0,1.682-0.275,2.209-0.825
						c0.527-0.549,0.789-1.33,0.789-2.342c0-0.428-0.053-0.819-0.16-1.175c-0.107-0.355-0.246-0.683-0.416-0.985
						c-0.172-0.301-0.549-0.773-1.135-1.416c-0.635-0.69-1.063-1.213-1.287-1.569c-0.225-0.355-0.4-0.737-0.527-1.146
						s-0.189-0.88-0.189-1.416c0-1.265,0.389-2.289,1.17-3.072c0.779-0.783,1.789-1.175,3.029-1.175
						c1.326,0,2.395,0.302,3.203,0.905l-0.746,1.255c-0.691-0.564-1.531-0.846-2.516-0.846c-0.801,0-1.461,0.25-1.982,0.751
						c-0.523,0.501-0.783,1.17-0.783,2.006c0,0.574,0.104,1.095,0.314,1.562c0.209,0.467,0.607,1.021,1.191,1.664
						c0.703,0.759,1.18,1.333,1.428,1.722s0.445,0.813,0.592,1.27c0.146,0.458,0.221,0.963,0.221,1.518
						c0,1.479-0.373,2.619-1.119,3.422C194.807,23.03,193.742,23.431,192.357,23.431z"/>
				</g>
			</g>
			<g>
				<g>
					<g>
						<path style="fill:#FFFFFF;" d="M205.084,23.139h-1.375l3.379-15.834h1.375L205.084,23.139z M207.775,3.351
							c0-0.496,0.113-0.924,0.336-1.284c0.225-0.36,0.514-0.54,0.863-0.54c0.459,0,0.689,0.282,0.689,0.847
							c0,0.554-0.107,1.012-0.322,1.372s-0.498,0.54-0.85,0.54C208.016,4.285,207.775,3.973,207.775,3.351z"/>
						<path style="fill:#FFFFFF;" d="M215.15,23.139l2.516-11.894c0.098-0.389,0.146-0.798,0.146-1.226
							c0-1.099-0.488-1.649-1.463-1.649c-1.023,0-1.883,0.492-2.574,1.474c-0.693,0.983-1.254,2.515-1.684,4.597l-1.857,8.698
							h-1.375l3.35-15.834h1.17l-0.365,2.204h0.059c0.908-1.673,2.088-2.51,3.541-2.51c0.818,0,1.453,0.236,1.902,0.708
							c0.447,0.472,0.672,1.151,0.672,2.036c0,0.545-0.068,1.133-0.205,1.766l-2.457,11.631H215.15z"/>
						<path style="fill:#FFFFFF;" d="M222.061,23.139V7.305h1.375v9.617c0,0.37-0.021,1.058-0.064,2.065
							c-0.045,1.007-0.102,1.793-0.17,2.357h0.088c0.205-0.603,0.455-1.289,0.746-2.058c0.293-0.769,1.941-4.762,4.945-11.981h1.449
							l-6.715,15.834H222.061z"/>
						<path style="fill:#FFFFFF;" d="M233.547,23.431c-1.17,0-2.082-0.406-2.736-1.219c-0.654-0.812-0.98-1.948-0.98-3.407
							c0-2.082,0.295-4.035,0.885-5.859c0.592-1.824,1.391-3.271,2.4-4.342c1.01-1.07,2.07-1.605,3.182-1.605
							c0.85,0,1.506,0.246,1.969,0.737s0.695,1.233,0.695,2.226c0,1.197-0.291,2.243-0.871,3.138s-1.41,1.562-2.488,1.999
							c-1.076,0.438-2.361,0.657-3.854,0.657h-0.176c-0.205,0.963-0.309,1.931-0.309,2.904c0,2.345,0.898,3.517,2.693,3.517
							c0.457,0,0.889-0.063,1.295-0.189c0.404-0.126,0.865-0.34,1.383-0.642v1.401C235.814,23.202,234.785,23.431,233.547,23.431z
							 M236.063,8.283c-0.867,0-1.691,0.574-2.473,1.722c-0.779,1.148-1.395,2.666-1.842,4.553c3.891,0,5.838-1.542,5.838-4.626
							c0-0.516-0.111-0.919-0.33-1.211C237.037,8.429,236.639,8.283,236.063,8.283z"/>
						<path style="fill:#FFFFFF;" d="M242.078,23.431c-0.547,0-1.117-0.068-1.711-0.205c-0.596-0.136-1-0.287-1.215-0.452v-1.605
							c0.234,0.233,0.627,0.45,1.178,0.649c0.551,0.2,1.105,0.299,1.66,0.299c0.947,0,1.684-0.275,2.209-0.825
							c0.527-0.549,0.791-1.33,0.791-2.342c0-0.428-0.055-0.819-0.16-1.175c-0.107-0.355-0.248-0.683-0.418-0.985
							c-0.17-0.301-0.549-0.773-1.135-1.416c-0.633-0.69-1.063-1.213-1.287-1.569c-0.225-0.355-0.4-0.737-0.525-1.146
							c-0.127-0.409-0.191-0.88-0.191-1.416c0-1.265,0.391-2.289,1.172-3.072c0.779-0.783,1.789-1.175,3.027-1.175
							c1.326,0,2.395,0.302,3.205,0.905l-0.746,1.255c-0.693-0.564-1.531-0.846-2.518-0.846c-0.799,0-1.461,0.25-1.982,0.751
							s-0.783,1.17-0.783,2.006c0,0.574,0.105,1.095,0.314,1.562c0.211,0.467,0.607,1.021,1.193,1.664
							c0.703,0.759,1.178,1.333,1.426,1.722c0.25,0.389,0.447,0.813,0.594,1.27c0.146,0.458,0.219,0.963,0.219,1.518
							c0,1.479-0.373,2.619-1.119,3.422S243.463,23.431,242.078,23.431z"/>
						<path style="fill:#FFFFFF;" d="M252.188,21.972v1.167c-0.547,0.194-1.059,0.292-1.537,0.292c-1.238,0-1.857-0.734-1.857-2.204
							c0-0.37,0.063-0.856,0.189-1.459l2.385-11.237h-1.434l0.176-0.817l1.508-0.409l1.17-3.765h1.01l-0.805,3.765h2.092
							l-0.264,1.226h-2.092l-2.313,10.843c-0.137,0.623-0.203,1.138-0.203,1.547c0,0.438,0.08,0.751,0.24,0.941
							c0.162,0.189,0.418,0.285,0.768,0.285C251.523,22.147,251.846,22.088,252.188,21.972z"/>
					</g>
				</g>
				<g>
					<g>
						<g>
							<path style="fill:#FFFFFF;" d="M2.427,59.092H1.052l3.379-15.833h1.375L2.427,59.092z M5.12,39.304
								c0-0.496,0.112-0.924,0.336-1.284c0.224-0.36,0.512-0.54,0.863-0.54c0.458,0,0.688,0.282,0.688,0.847
								c0,0.554-0.107,1.012-0.322,1.372c-0.215,0.36-0.498,0.54-0.849,0.54C5.358,40.238,5.12,39.926,5.12,39.304z"/>
							<path style="fill:#FFFFFF;" d="M12.494,59.092l2.517-11.893c0.098-0.389,0.146-0.798,0.146-1.226
								c0-1.099-0.488-1.649-1.463-1.649c-1.024,0-1.882,0.492-2.575,1.474c-0.693,0.983-1.254,2.515-1.683,4.597l-1.858,8.697
								H6.202l3.351-15.833h1.171l-0.366,2.204h0.059c0.907-1.673,2.087-2.51,3.541-2.51c0.819,0,1.453,0.236,1.902,0.708
								c0.449,0.472,0.673,1.151,0.673,2.036c0,0.545-0.068,1.133-0.205,1.766l-2.458,11.63H12.494z"/>
							<path style="fill:#FFFFFF;" d="M26.182,57.926v1.166c-0.546,0.195-1.058,0.293-1.536,0.293c-1.239,0-1.858-0.734-1.858-2.205
								c0-0.369,0.063-0.855,0.19-1.459l2.385-11.236h-1.434l0.175-0.817l1.507-0.409l1.17-3.765h1.009l-0.805,3.765h2.092
								l-0.263,1.226h-2.092l-2.312,10.844c-0.137,0.621-0.205,1.137-0.205,1.547c0,0.438,0.081,0.75,0.242,0.939
								c0.161,0.191,0.417,0.285,0.768,0.285C25.519,58.1,25.84,58.041,26.182,57.926z"/>
							<path style="fill:#FFFFFF;" d="M34.833,59.092l2.517-11.893c0.097-0.389,0.146-0.798,0.146-1.226
								c0-1.099-0.488-1.649-1.463-1.649c-1.024,0-1.882,0.492-2.575,1.474c-0.692,0.983-1.253,2.515-1.682,4.597l-1.858,8.697
								h-1.375l4.814-22.707h1.39l-1.448,6.625l-0.6,2.452h0.059c0.907-1.673,2.087-2.51,3.541-2.51
								c0.819,0,1.453,0.236,1.902,0.708c0.449,0.472,0.673,1.151,0.673,2.036c0,0.545-0.068,1.133-0.205,1.766l-2.458,11.63H34.833
								z"/>
							<path style="fill:#FFFFFF;" d="M41.51,59.092h-1.375l3.379-15.833h1.375L41.51,59.092z M44.202,39.304
								c0-0.496,0.112-0.924,0.336-1.284c0.224-0.36,0.512-0.54,0.863-0.54c0.458,0,0.688,0.282,0.688,0.847
								c0,0.554-0.107,1.012-0.322,1.372c-0.215,0.36-0.498,0.54-0.849,0.54C44.441,40.238,44.202,39.926,44.202,39.304z"/>
							<path style="fill:#FFFFFF;" d="M47.582,59.385c-0.546,0-1.117-0.068-1.712-0.205c-0.595-0.137-1-0.287-1.214-0.453v-1.604
								c0.234,0.232,0.626,0.449,1.178,0.648c0.551,0.199,1.104,0.299,1.661,0.299c0.946,0,1.683-0.273,2.209-0.824
								c0.526-0.549,0.79-1.33,0.79-2.342c0-0.428-0.054-0.82-0.161-1.176c-0.107-0.354-0.246-0.684-0.417-0.984
								s-0.548-0.773-1.134-1.416c-0.634-0.69-1.063-1.213-1.288-1.569c-0.225-0.355-0.4-0.737-0.527-1.146
								c-0.126-0.409-0.19-0.88-0.19-1.416c0-1.265,0.39-2.289,1.17-3.072s1.79-1.175,3.029-1.175c1.326,0,2.395,0.302,3.204,0.905
								l-0.746,1.255c-0.693-0.564-1.532-0.846-2.517-0.846c-0.8,0-1.461,0.25-1.982,0.751c-0.522,0.501-0.783,1.17-0.783,2.006
								c0,0.574,0.104,1.095,0.314,1.562c0.209,0.467,0.607,1.021,1.192,1.664c0.702,0.759,1.178,1.333,1.426,1.722
								c0.249,0.389,0.446,0.813,0.593,1.27s0.219,0.963,0.219,1.518c0,1.479-0.373,2.619-1.119,3.422S48.967,59.385,47.582,59.385z
								"/>
							<path style="fill:#FFFFFF;" d="M62.143,59.385c-1.951,0-2.926-1.373-2.926-4.115c0-2.033,0.305-4.048,0.915-6.042
								c0.609-1.994,1.399-3.539,2.37-4.633c0.97-1.094,2.031-1.642,3.182-1.642c1.307,0,2.156,0.729,2.546,2.189h0.088l0.57-1.883
								h1.171l-3.351,15.833h-1.112l0.264-2.275H65.8C64.688,58.527,63.469,59.385,62.143,59.385z M62.42,58.174
								c0.878,0,1.697-0.506,2.458-1.52c0.761-1.012,1.405-2.49,1.931-4.436c0.527-1.946,0.79-3.78,0.79-5.501
								c0-0.808-0.173-1.418-0.519-1.832c-0.347-0.414-0.832-0.62-1.456-0.62c-0.858,0-1.653,0.494-2.385,1.481
								c-0.731,0.988-1.346,2.435-1.843,4.342c-0.498,1.907-0.747,3.703-0.747,5.384c0,0.887,0.129,1.557,0.388,2.014
								C61.296,57.945,61.757,58.174,62.42,58.174z"/>
							<path style="fill:#FFFFFF;" d="M72.989,59.385c-0.546,0-1.117-0.068-1.712-0.205c-0.595-0.137-1-0.287-1.214-0.453v-1.604
								c0.234,0.232,0.626,0.449,1.178,0.648c0.551,0.199,1.104,0.299,1.661,0.299c0.946,0,1.683-0.273,2.209-0.824
								c0.526-0.549,0.79-1.33,0.79-2.342c0-0.428-0.054-0.82-0.161-1.176c-0.107-0.354-0.246-0.684-0.417-0.984
								s-0.548-0.773-1.134-1.416c-0.634-0.69-1.063-1.213-1.288-1.569c-0.225-0.355-0.4-0.737-0.527-1.146
								c-0.126-0.409-0.19-0.88-0.19-1.416c0-1.265,0.39-2.289,1.17-3.072s1.79-1.175,3.029-1.175c1.326,0,2.395,0.302,3.204,0.905
								l-0.746,1.255c-0.693-0.564-1.532-0.846-2.517-0.846c-0.8,0-1.461,0.25-1.982,0.751c-0.522,0.501-0.783,1.17-0.783,2.006
								c0,0.574,0.104,1.095,0.314,1.562c0.209,0.467,0.607,1.021,1.192,1.664c0.702,0.759,1.178,1.333,1.426,1.722
								c0.249,0.389,0.446,0.813,0.593,1.27s0.219,0.963,0.219,1.518c0,1.479-0.373,2.619-1.119,3.422S74.374,59.385,72.989,59.385z
								"/>
							<path style="fill:#FFFFFF;" d="M87.55,59.385c-1.951,0-2.926-1.373-2.926-4.115c0-2.033,0.305-4.048,0.915-6.042
								c0.609-1.994,1.399-3.539,2.37-4.633c0.97-1.094,2.031-1.642,3.182-1.642c1.307,0,2.156,0.729,2.546,2.189h0.088l0.57-1.883
								h1.171l-3.351,15.833h-1.112l0.264-2.275h-0.059C90.096,58.527,88.876,59.385,87.55,59.385z M87.828,58.174
								c0.878,0,1.697-0.506,2.458-1.52c0.761-1.012,1.405-2.49,1.931-4.436c0.527-1.946,0.79-3.78,0.79-5.501
								c0-0.808-0.173-1.418-0.519-1.832c-0.347-0.414-0.832-0.62-1.456-0.62c-0.858,0-1.653,0.494-2.385,1.481
								c-0.731,0.988-1.346,2.435-1.843,4.342c-0.498,1.907-0.747,3.703-0.747,5.384c0,0.887,0.129,1.557,0.388,2.014
								C86.703,57.945,87.164,58.174,87.828,58.174z"/>
							<path style="fill:#FFFFFF;" d="M102.391,59.092l2.517-11.893c0.098-0.389,0.146-0.798,0.146-1.226
								c0-1.099-0.488-1.649-1.463-1.649c-1.024,0-1.882,0.492-2.575,1.474c-0.693,0.983-1.254,2.515-1.683,4.597l-1.858,8.697
								h-1.375l3.351-15.833h1.171l-0.366,2.204h0.059c0.907-1.673,2.087-2.51,3.541-2.51c0.819,0,1.453,0.236,1.902,0.708
								c0.449,0.472,0.673,1.151,0.673,2.036c0,0.545-0.068,1.133-0.205,1.766l-2.458,11.63H102.391z"/>
							<path style="fill:#FFFFFF;" d="M113.65,59.092h-1.375l3.379-15.833h1.375L113.65,59.092z M116.342,39.304
								c0-0.496,0.112-0.924,0.336-1.284c0.224-0.36,0.512-0.54,0.863-0.54c0.458,0,0.688,0.282,0.688,0.847
								c0,0.554-0.107,1.012-0.322,1.372c-0.215,0.36-0.498,0.54-0.849,0.54C116.581,40.238,116.342,39.926,116.342,39.304z"/>
							<path style="fill:#FFFFFF;" d="M123.716,59.092l2.517-11.893c0.098-0.389,0.146-0.798,0.146-1.226
								c0-1.099-0.488-1.649-1.463-1.649c-1.024,0-1.882,0.492-2.575,1.474c-0.693,0.983-1.254,2.515-1.683,4.597l-1.858,8.697
								h-1.375l3.351-15.833h1.171l-0.366,2.204h0.059c0.907-1.673,2.087-2.51,3.541-2.51c0.819,0,1.453,0.236,1.902,0.708
								c0.449,0.472,0.673,1.151,0.673,2.036c0,0.545-0.068,1.133-0.205,1.766l-2.458,11.63H123.716z"/>
							<path style="fill:#FFFFFF;" d="M130.393,59.092h-1.375l3.38-15.833h1.375L130.393,59.092z M133.086,39.304
								c0-0.496,0.111-0.924,0.336-1.284s0.512-0.54,0.863-0.54c0.459,0,0.688,0.282,0.688,0.847c0,0.554-0.107,1.012-0.322,1.372
								s-0.496,0.54-0.848,0.54C133.324,40.238,133.086,39.926,133.086,39.304z"/>
							<path style="fill:#FFFFFF;" d="M137.914,57.926v1.166c-0.547,0.195-1.059,0.293-1.537,0.293
								c-1.238,0-1.857-0.734-1.857-2.205c0-0.369,0.063-0.855,0.189-1.459l2.385-11.236h-1.434l0.176-0.817l1.508-0.409l1.17-3.765
								h1.01l-0.805,3.765h2.092l-0.264,1.226h-2.092l-2.313,10.844c-0.137,0.621-0.203,1.137-0.203,1.547
								c0,0.438,0.08,0.75,0.24,0.939c0.162,0.191,0.418,0.285,0.768,0.285C137.25,58.1,137.572,58.041,137.914,57.926z"/>
							<path style="fill:#FFFFFF;" d="M141.561,59.092h-1.375l3.381-15.833h1.375L141.561,59.092z M144.254,39.304
								c0-0.496,0.111-0.924,0.336-1.284s0.512-0.54,0.863-0.54c0.459,0,0.688,0.282,0.688,0.847c0,0.554-0.107,1.012-0.322,1.372
								s-0.496,0.54-0.848,0.54C144.492,40.238,144.254,39.926,144.254,39.304z"/>
							<path style="fill:#FFFFFF;" d="M148.949,59.385c-1.949,0-2.926-1.373-2.926-4.115c0-2.033,0.305-4.048,0.914-6.042
								c0.609-1.994,1.4-3.539,2.371-4.633c0.971-1.094,2.031-1.642,3.182-1.642c1.307,0,2.156,0.729,2.547,2.189h0.088l0.57-1.883
								h1.17l-3.35,15.833h-1.113l0.264-2.275h-0.059C151.496,58.527,150.277,59.385,148.949,59.385z M149.229,58.174
								c0.877,0,1.697-0.506,2.457-1.52c0.762-1.012,1.404-2.49,1.932-4.436c0.527-1.946,0.791-3.78,0.791-5.501
								c0-0.808-0.174-1.418-0.52-1.832c-0.348-0.414-0.832-0.62-1.457-0.62c-0.857,0-1.652,0.494-2.385,1.481
								c-0.73,0.988-1.346,2.435-1.844,4.342c-0.496,1.907-0.746,3.703-0.746,5.384c0,0.887,0.129,1.557,0.389,2.014
								C148.104,57.945,148.564,58.174,149.229,58.174z"/>
							<path style="fill:#FFFFFF;" d="M161.244,57.926v1.166c-0.545,0.195-1.059,0.293-1.535,0.293c-1.24,0-1.859-0.734-1.859-2.205
								c0-0.369,0.064-0.855,0.191-1.459l2.385-11.236h-1.434l0.176-0.817l1.506-0.409l1.17-3.765h1.01l-0.805,3.765h2.094
								l-0.264,1.226h-2.092l-2.313,10.844c-0.137,0.621-0.205,1.137-0.205,1.547c0,0.438,0.08,0.75,0.242,0.939
								c0.16,0.191,0.416,0.285,0.768,0.285C160.582,58.1,160.902,58.041,161.244,57.926z"/>
							<path style="fill:#FFFFFF;" d="M164.893,59.092h-1.375l3.379-15.833h1.375L164.893,59.092z M167.584,39.304
								c0-0.496,0.113-0.924,0.336-1.284c0.225-0.36,0.514-0.54,0.863-0.54c0.459,0,0.689,0.282,0.689,0.847
								c0,0.554-0.107,1.012-0.322,1.372s-0.498,0.54-0.85,0.54C167.824,40.238,167.584,39.926,167.584,39.304z"/>
							<path style="fill:#FFFFFF;" d="M170.219,59.092V43.258h1.375v9.617c0,0.371-0.021,1.059-0.066,2.066
								c-0.043,1.006-0.1,1.791-0.168,2.355h0.088c0.205-0.604,0.453-1.289,0.746-2.057c0.293-0.77,1.941-4.763,4.945-11.982h1.449
								l-6.717,15.833H170.219z"/>
							<path style="fill:#FFFFFF;" d="M181.703,59.385c-1.17,0-2.082-0.406-2.734-1.219c-0.654-0.813-0.98-1.949-0.98-3.408
								c0-2.082,0.295-4.035,0.885-5.859s1.391-3.271,2.398-4.342c1.01-1.07,2.07-1.605,3.184-1.605
								c0.848,0,1.504,0.246,1.967,0.737s0.695,1.233,0.695,2.226c0,1.197-0.289,2.243-0.871,3.138
								c-0.58,0.895-1.408,1.562-2.486,1.999c-1.078,0.438-2.363,0.657-3.855,0.657h-0.176c-0.205,0.964-0.307,1.931-0.307,2.903
								c0,2.346,0.896,3.518,2.691,3.518c0.459,0,0.891-0.063,1.295-0.189s0.865-0.34,1.383-0.643v1.402
								C183.973,59.156,182.943,59.385,181.703,59.385z M184.221,44.236c-0.869,0-1.693,0.574-2.473,1.722
								c-0.781,1.148-1.395,2.666-1.844,4.553c3.893,0,5.838-1.542,5.838-4.626c0-0.516-0.109-0.919-0.33-1.211
								C185.193,44.382,184.797,44.236,184.221,44.236z"/>
							<path style="fill:#FFFFFF;" d="M195.248,57.926v1.166c-0.547,0.195-1.059,0.293-1.537,0.293
								c-1.238,0-1.857-0.734-1.857-2.205c0-0.369,0.063-0.855,0.189-1.459l2.385-11.236h-1.434l0.176-0.817l1.508-0.409l1.17-3.765
								h1.01l-0.805,3.765h2.092l-0.264,1.226h-2.092l-2.313,10.844c-0.137,0.621-0.203,1.137-0.203,1.547
								c0,0.438,0.08,0.75,0.24,0.939c0.162,0.191,0.418,0.285,0.768,0.285C194.584,58.1,194.906,58.041,195.248,57.926z"/>
							<path style="fill:#FFFFFF;" d="M201.5,59.385c-1.045,0-1.844-0.389-2.4-1.168c-0.555-0.779-0.834-1.883-0.834-3.313
								c0-1.381,0.176-2.865,0.527-4.451s0.809-2.931,1.375-4.035c0.566-1.104,1.229-1.958,1.99-2.561
								c0.76-0.603,1.609-0.905,2.545-0.905c1.035,0,1.842,0.401,2.422,1.204c0.58,0.802,0.871,1.934,0.871,3.393
								c0,1.353-0.178,2.805-0.535,4.356c-0.355,1.552-0.82,2.884-1.396,3.999c-0.576,1.113-1.248,1.973-2.02,2.574
								C203.275,59.082,202.426,59.385,201.5,59.385z M199.699,55.182c0,1.965,0.658,2.947,1.977,2.947
								c0.867,0,1.668-0.494,2.398-1.48c0.732-0.988,1.33-2.381,1.793-4.182c0.463-1.8,0.695-3.536,0.695-5.209
								c0-1.995-0.678-2.992-2.035-2.992c-0.818,0-1.586,0.477-2.303,1.43c-0.719,0.954-1.318,2.345-1.801,4.173
								C199.941,51.698,199.699,53.469,199.699,55.182z"/>
						</g>
					</g>
					<g>
						<g>
							<g>
								<path style="fill:#FFFFFF;" d="M4.725,94.863c-1.951,0-2.926-1.373-2.926-4.115c0-2.033,0.305-4.047,0.915-6.043
									c0.609-1.994,1.399-3.539,2.37-4.633c0.97-1.094,2.031-1.643,3.182-1.643c1.307,0,2.156,0.73,2.546,2.189h0.088l0.57-1.883
									h1.171L9.29,94.57H8.177l0.264-2.275H8.382C7.271,94.006,6.051,94.863,4.725,94.863z M5.002,93.652
									c0.878,0,1.697-0.506,2.458-1.52c0.761-1.012,1.405-2.49,1.931-4.436c0.527-1.945,0.79-3.779,0.79-5.502
									c0-0.807-0.173-1.418-0.519-1.832c-0.347-0.412-0.832-0.619-1.456-0.619c-0.858,0-1.653,0.494-2.385,1.48
									c-0.731,0.988-1.346,2.436-1.843,4.342c-0.498,1.908-0.747,3.703-0.747,5.385c0,0.887,0.129,1.557,0.388,2.014
									C3.878,93.424,4.339,93.652,5.002,93.652z"/>
								<path style="fill:#FFFFFF;" d="M16.888,94.863c-1.951,0-2.926-1.373-2.926-4.115c0-2.033,0.305-4.047,0.915-6.043
									c0.609-1.994,1.399-3.539,2.37-4.633c0.97-1.094,2.031-1.643,3.182-1.643c0.673,0,1.236,0.205,1.69,0.613
									s0.739,0.943,0.856,1.605h0.088l1.829-8.785h1.39L21.453,94.57h-1.112l0.264-2.275h-0.059
									C19.434,94.006,18.214,94.863,16.888,94.863z M17.166,93.652c0.878,0,1.697-0.5,2.458-1.496
									c0.761-0.998,1.405-2.457,1.931-4.379c0.527-1.922,0.79-3.762,0.79-5.523c0-0.826-0.156-1.451-0.468-1.875
									c-0.313-0.424-0.815-0.635-1.507-0.635c-0.858,0-1.653,0.494-2.385,1.48c-0.731,0.988-1.346,2.436-1.843,4.342
									c-0.498,1.908-0.747,3.703-0.747,5.385c0,0.887,0.129,1.557,0.388,2.014C16.042,93.424,16.502,93.652,17.166,93.652z"/>
								<path style="fill:#FFFFFF;" d="M26.988,94.57V78.736h1.375v9.617c0,0.371-0.022,1.059-0.065,2.066
									c-0.044,1.006-0.101,1.791-0.168,2.355h0.088c0.205-0.604,0.454-1.289,0.746-2.057c0.292-0.77,1.941-4.764,4.945-11.982
									h1.448L28.642,94.57H26.988z"/>
								<path style="fill:#FFFFFF;" d="M37.685,94.863c-1.951,0-2.926-1.373-2.926-4.115c0-2.033,0.305-4.047,0.915-6.043
									c0.609-1.994,1.399-3.539,2.37-4.633c0.97-1.094,2.031-1.643,3.182-1.643c1.307,0,2.156,0.73,2.546,2.189h0.088l0.57-1.883
									H45.6L42.25,94.57h-1.112l0.264-2.275h-0.059C40.23,94.006,39.011,94.863,37.685,94.863z M37.962,93.652
									c0.878,0,1.697-0.506,2.458-1.52c0.761-1.012,1.405-2.49,1.931-4.436c0.527-1.945,0.79-3.779,0.79-5.502
									c0-0.807-0.173-1.418-0.519-1.832c-0.347-0.412-0.832-0.619-1.456-0.619c-0.858,0-1.653,0.494-2.385,1.48
									c-0.731,0.988-1.346,2.436-1.843,4.342c-0.498,1.908-0.747,3.703-0.747,5.385c0,0.887,0.129,1.557,0.388,2.014
									C36.838,93.424,37.299,93.652,37.962,93.652z"/>
								<path style="fill:#FFFFFF;" d="M52.525,94.57l2.517-11.893c0.098-0.389,0.146-0.799,0.146-1.227
									c0-1.1-0.488-1.648-1.463-1.648c-1.024,0-1.882,0.49-2.575,1.473c-0.693,0.984-1.254,2.516-1.683,4.598l-1.858,8.697h-1.375
									l3.351-15.834h1.171l-0.366,2.205h0.059c0.907-1.674,2.087-2.512,3.541-2.512c0.819,0,1.453,0.236,1.902,0.709
									s0.673,1.15,0.673,2.035c0,0.545-0.068,1.133-0.205,1.766L53.9,94.57H52.525z"/>
								<path style="fill:#FFFFFF;" d="M62.069,94.863c-1.131,0-1.997-0.389-2.597-1.168c-0.6-0.779-0.9-1.902-0.9-3.371
									c0-2.111,0.307-4.123,0.922-6.035c0.614-1.91,1.409-3.365,2.385-4.363c0.975-0.996,2.068-1.496,3.277-1.496
									c0.839,0,1.541,0.162,2.107,0.482l-0.571,1.256c-0.517-0.283-1.068-0.424-1.653-0.424c-0.897,0-1.719,0.473-2.465,1.416
									s-1.361,2.291-1.843,4.041c-0.483,1.752-0.725,3.469-0.725,5.152c0,2.17,0.78,3.254,2.341,3.254
									c0.614,0,1.312-0.193,2.092-0.584v1.256C63.708,94.668,62.918,94.863,62.069,94.863z"/>
								<path style="fill:#FFFFFF;" d="M70.922,94.863c-1.17,0-2.083-0.406-2.736-1.219c-0.653-0.813-0.98-1.949-0.98-3.408
									c0-2.082,0.295-4.035,0.885-5.859c0.59-1.824,1.39-3.271,2.399-4.342c1.009-1.07,2.07-1.605,3.182-1.605
									c0.849,0,1.504,0.246,1.968,0.738c0.463,0.49,0.695,1.232,0.695,2.225c0,1.197-0.291,2.242-0.871,3.139
									c-0.581,0.895-1.41,1.561-2.487,1.998c-1.078,0.438-2.363,0.658-3.855,0.658h-0.175c-0.205,0.963-0.308,1.93-0.308,2.902
									c0,2.346,0.897,3.518,2.692,3.518c0.458,0,0.89-0.063,1.295-0.189c0.404-0.127,0.865-0.34,1.382-0.643v1.402
									C73.19,94.635,72.161,94.863,70.922,94.863z M73.439,79.715c-0.869,0-1.692,0.574-2.473,1.723
									c-0.781,1.146-1.395,2.666-1.844,4.553c3.892,0,5.838-1.543,5.838-4.627c0-0.516-0.11-0.918-0.329-1.211
									C74.412,79.861,74.014,79.715,73.439,79.715z"/>
								<path style="fill:#FFFFFF;" d="M82.508,94.863c-0.546,0-1.117-0.068-1.712-0.205c-0.595-0.137-1-0.287-1.214-0.453v-1.604
									c0.234,0.232,0.626,0.449,1.178,0.648c0.551,0.199,1.104,0.299,1.661,0.299c0.946,0,1.683-0.273,2.209-0.824
									c0.526-0.549,0.79-1.33,0.79-2.342c0-0.428-0.054-0.82-0.161-1.176c-0.107-0.354-0.246-0.684-0.417-0.984
									s-0.548-0.773-1.134-1.416c-0.634-0.689-1.063-1.213-1.288-1.568c-0.225-0.355-0.4-0.736-0.527-1.145
									c-0.126-0.41-0.19-0.881-0.19-1.416c0-1.266,0.39-2.289,1.17-3.072s1.79-1.176,3.029-1.176c1.326,0,2.395,0.303,3.204,0.906
									l-0.746,1.254c-0.693-0.564-1.532-0.846-2.517-0.846c-0.8,0-1.461,0.25-1.982,0.752c-0.522,0.5-0.783,1.17-0.783,2.006
									c0,0.574,0.104,1.094,0.314,1.563c0.209,0.467,0.607,1.021,1.192,1.662c0.702,0.76,1.178,1.334,1.426,1.723
									c0.249,0.389,0.446,0.813,0.593,1.27s0.219,0.963,0.219,1.518c0,1.479-0.373,2.619-1.119,3.422S83.893,94.863,82.508,94.863
									z"/>
								<path style="fill:#FFFFFF;" d="M92.617,93.404v1.166c-0.546,0.195-1.058,0.293-1.536,0.293
									c-1.239,0-1.858-0.734-1.858-2.205c0-0.369,0.063-0.855,0.19-1.459l2.385-11.236h-1.434l0.175-0.816l1.507-0.41l1.17-3.764
									h1.009l-0.805,3.764h2.092l-0.263,1.227h-2.092l-2.312,10.844c-0.137,0.621-0.205,1.137-0.205,1.547
									c0,0.438,0.081,0.75,0.242,0.939c0.161,0.191,0.417,0.285,0.768,0.285C91.954,93.578,92.276,93.52,92.617,93.404z"/>
								<path style="fill:#FFFFFF;" d="M102.41,78.43c0.38,0,0.736,0.059,1.068,0.176l-0.38,1.416
									c-0.293-0.146-0.615-0.219-0.966-0.219c-0.829,0-1.6,0.568-2.312,1.707c-0.712,1.139-1.278,2.695-1.697,4.67l-1.8,8.391
									h-1.375l3.351-15.834h1.024l-0.424,2.773h0.059C99.815,79.457,100.966,78.43,102.41,78.43z"/>
								<path style="fill:#FFFFFF;" d="M105.697,94.863c-1.951,0-2.926-1.373-2.926-4.115c0-2.033,0.305-4.047,0.915-6.043
									c0.609-1.994,1.399-3.539,2.37-4.633c0.97-1.094,2.031-1.643,3.182-1.643c1.307,0,2.156,0.73,2.546,2.189h0.088l0.57-1.883
									h1.171l-3.351,15.834h-1.112l0.264-2.275h-0.059C108.243,94.006,107.023,94.863,105.697,94.863z M105.975,93.652
									c0.878,0,1.697-0.506,2.458-1.52c0.761-1.012,1.405-2.49,1.931-4.436c0.527-1.945,0.79-3.779,0.79-5.502
									c0-0.807-0.173-1.418-0.519-1.832c-0.347-0.412-0.832-0.619-1.456-0.619c-0.858,0-1.653,0.494-2.385,1.48
									c-0.731,0.988-1.346,2.436-1.843,4.342c-0.498,1.908-0.747,3.703-0.747,5.385c0,0.887,0.129,1.557,0.388,2.014
									C104.85,93.424,105.311,93.652,105.975,93.652z"/>
								<path style="fill:#FFFFFF;" d="M117.991,93.404v1.166c-0.546,0.195-1.058,0.293-1.536,0.293
									c-1.239,0-1.858-0.734-1.858-2.205c0-0.369,0.063-0.855,0.19-1.459l2.385-11.236h-1.434l0.175-0.816l1.507-0.41l1.17-3.764
									h1.009l-0.805,3.764h2.092l-0.263,1.227h-2.092l-2.312,10.844c-0.137,0.621-0.205,1.137-0.205,1.547
									c0,0.438,0.081,0.75,0.242,0.939c0.161,0.191,0.417,0.285,0.768,0.285C117.328,93.578,117.65,93.52,117.991,93.404z"/>
								<path style="fill:#FFFFFF;" d="M124.726,94.863c-1.17,0-2.083-0.406-2.736-1.219c-0.653-0.813-0.98-1.949-0.98-3.408
									c0-2.082,0.295-4.035,0.885-5.859c0.59-1.824,1.39-3.271,2.399-4.342c1.009-1.07,2.07-1.605,3.182-1.605
									c0.849,0,1.504,0.246,1.968,0.738c0.463,0.49,0.694,1.232,0.694,2.225c0,1.197-0.29,2.242-0.87,3.139
									c-0.581,0.895-1.41,1.561-2.487,1.998c-1.078,0.438-2.363,0.658-3.855,0.658h-0.175c-0.205,0.963-0.308,1.93-0.308,2.902
									c0,2.346,0.897,3.518,2.692,3.518c0.458,0,0.89-0.063,1.295-0.189c0.404-0.127,0.865-0.34,1.382-0.643v1.402
									C126.994,94.635,125.964,94.863,124.726,94.863z M127.243,79.715c-0.869,0-1.692,0.574-2.473,1.723
									c-0.781,1.146-1.395,2.666-1.844,4.553c3.892,0,5.838-1.543,5.838-4.627c0-0.516-0.11-0.918-0.329-1.211
									C128.215,79.861,127.818,79.715,127.243,79.715z"/>
								<path style="fill:#FFFFFF;" d="M141.918,78.736l-0.203,0.979l-2.006,0.248c0.293,0.555,0.439,1.25,0.439,2.086
									c0,1.061-0.217,2.154-0.65,3.277c-0.436,1.123-1.01,2.004-1.727,2.641c-0.717,0.639-1.51,0.957-2.379,0.957h-0.365
									l-0.322-0.029c-1.219,0.846-1.828,1.615-1.828,2.305c0,0.225,0.039,0.406,0.117,0.547c0.078,0.143,0.199,0.26,0.365,0.352
									s0.742,0.289,1.727,0.59c1.229,0.381,2.092,0.859,2.59,1.438c0.498,0.58,0.746,1.355,0.746,2.328
									c0,1.566-0.518,2.842-1.551,3.824s-2.365,1.473-3.994,1.473c-1.287,0-2.285-0.326-2.992-0.977
									c-0.708-0.652-1.061-1.572-1.061-2.758c0-1.021,0.317-1.953,0.951-2.795s1.536-1.525,2.708-2.051
									c-0.615-0.408-0.922-0.959-0.922-1.648c0-0.506,0.156-0.998,0.467-1.475c0.313-0.477,0.873-1.002,1.684-1.576
									c-0.84-0.701-1.258-1.717-1.258-3.051c0-1.195,0.24-2.365,0.725-3.51c0.482-1.143,1.092-2.008,1.828-2.598
									c0.736-0.588,1.553-0.883,2.451-0.883c0.623,0,1.102,0.104,1.434,0.307H141.918z M130.141,97.912
									c0,0.953,0.241,1.643,0.724,2.066c0.483,0.422,1.192,0.635,2.129,0.635c1.189,0,2.178-0.361,2.963-1.08
									c0.785-0.721,1.178-1.66,1.178-2.816c0-0.623-0.197-1.164-0.594-1.621c-0.395-0.457-0.996-0.803-1.807-1.035l-1.316-0.352
									c-0.936,0.313-1.717,0.861-2.34,1.65C130.453,96.146,130.141,96.998,130.141,97.912z M133.799,85.641
									c0,0.719,0.139,1.266,0.416,1.641c0.279,0.375,0.682,0.563,1.207,0.563c0.605,0,1.154-0.256,1.646-0.768
									c0.492-0.51,0.9-1.277,1.223-2.305c0.32-1.027,0.482-2.012,0.482-2.955c0-1.498-0.527-2.248-1.58-2.248
									c-0.596,0-1.145,0.273-1.646,0.818s-0.92,1.344-1.25,2.4C133.965,83.842,133.799,84.793,133.799,85.641z"/>
								<path style="fill:#FFFFFF;" d="M141.932,94.57h-1.375l3.379-15.834h1.375L141.932,94.57z M144.623,74.783
									c0-0.498,0.113-0.926,0.336-1.285c0.225-0.359,0.514-0.539,0.863-0.539c0.459,0,0.689,0.281,0.689,0.846
									c0,0.555-0.107,1.012-0.322,1.371c-0.215,0.361-0.498,0.541-0.85,0.541C144.863,75.717,144.623,75.404,144.623,74.783z"/>
								<path style="fill:#FFFFFF;" d="M149.891,94.863c-1.133,0-1.998-0.389-2.598-1.168s-0.9-1.902-0.9-3.371
									c0-2.111,0.309-4.123,0.922-6.035c0.615-1.91,1.41-3.365,2.385-4.363c0.977-0.996,2.068-1.496,3.277-1.496
									c0.84,0,1.541,0.162,2.107,0.482l-0.57,1.256c-0.518-0.283-1.068-0.424-1.654-0.424c-0.896,0-1.719,0.473-2.465,1.416
									s-1.361,2.291-1.844,4.041c-0.482,1.752-0.725,3.469-0.725,5.152c0,2.17,0.781,3.254,2.342,3.254
									c0.615,0,1.313-0.193,2.092-0.584v1.256C151.529,94.668,150.738,94.863,149.891,94.863z"/>
								<path style="fill:#FFFFFF;" d="M159.729,94.57h-1.375l3.381-15.834h1.375L159.729,94.57z M162.422,74.783
									c0-0.498,0.111-0.926,0.336-1.285s0.512-0.539,0.863-0.539c0.459,0,0.688,0.281,0.688,0.846
									c0,0.555-0.107,1.012-0.322,1.371c-0.215,0.361-0.496,0.541-0.848,0.541C162.66,75.717,162.422,75.404,162.422,74.783z"/>
								<path style="fill:#FFFFFF;" d="M169.795,94.57l2.518-11.893c0.098-0.389,0.146-0.799,0.146-1.227
									c0-1.1-0.488-1.648-1.463-1.648c-1.025,0-1.883,0.49-2.576,1.473c-0.693,0.984-1.254,2.516-1.682,4.598l-1.859,8.697h-1.375
									l3.352-15.834h1.17l-0.365,2.205h0.059c0.906-1.674,2.086-2.512,3.539-2.512c0.82,0,1.453,0.236,1.902,0.709
									s0.674,1.15,0.674,2.035c0,0.545-0.068,1.133-0.205,1.766L171.17,94.57H169.795z"/>
								<path style="fill:#FFFFFF;" d="M181.447,94.57l2.516-11.893c0.098-0.389,0.146-0.799,0.146-1.227
									c0-1.1-0.488-1.648-1.463-1.648c-1.023,0-1.883,0.49-2.574,1.473c-0.693,0.984-1.254,2.516-1.684,4.598l-1.857,8.697h-1.375
									l3.35-15.834h1.17l-0.365,2.205h0.059c0.908-1.674,2.088-2.512,3.541-2.512c0.818,0,1.453,0.236,1.902,0.709
									c0.447,0.473,0.672,1.15,0.672,2.035c0,0.545-0.068,1.133-0.205,1.766l-2.457,11.631H181.447z"/>
								<path style="fill:#FFFFFF;" d="M190.729,94.863c-1.045,0-1.844-0.389-2.4-1.168c-0.555-0.779-0.834-1.883-0.834-3.313
									c0-1.381,0.176-2.865,0.527-4.451s0.809-2.932,1.375-4.035s1.229-1.957,1.99-2.561c0.76-0.604,1.609-0.906,2.545-0.906
									c1.035,0,1.842,0.402,2.422,1.205s0.871,1.934,0.871,3.393c0,1.352-0.178,2.805-0.535,4.355
									c-0.355,1.553-0.82,2.885-1.396,4c-0.576,1.113-1.248,1.973-2.02,2.574C192.504,94.561,191.654,94.863,190.729,94.863z
									 M188.928,90.66c0,1.965,0.658,2.947,1.977,2.947c0.867,0,1.668-0.494,2.398-1.48c0.732-0.988,1.33-2.381,1.793-4.182
									c0.463-1.799,0.695-3.537,0.695-5.209c0-1.994-0.678-2.992-2.035-2.992c-0.818,0-1.586,0.477-2.303,1.43
									c-0.719,0.953-1.318,2.346-1.801,4.174C189.17,87.178,188.928,88.947,188.928,90.66z"/>
								<path style="fill:#FFFFFF;" d="M199.051,94.57V78.736h1.375v9.617c0,0.371-0.021,1.059-0.066,2.066
									c-0.043,1.006-0.1,1.791-0.168,2.355h0.088c0.205-0.604,0.453-1.289,0.746-2.057c0.293-0.77,1.941-4.764,4.945-11.982h1.449
									l-6.717,15.834H199.051z"/>
								<path style="fill:#FFFFFF;" d="M209.746,94.863c-1.949,0-2.926-1.373-2.926-4.115c0-2.033,0.305-4.047,0.914-6.043
									c0.609-1.994,1.4-3.539,2.371-4.633s2.031-1.643,3.182-1.643c1.307,0,2.156,0.73,2.547,2.189h0.088l0.57-1.883h1.17
									l-3.35,15.834h-1.113l0.264-2.275h-0.059C212.293,94.006,211.074,94.863,209.746,94.863z M210.025,93.652
									c0.877,0,1.697-0.506,2.457-1.52c0.762-1.012,1.404-2.49,1.932-4.436s0.791-3.779,0.791-5.502
									c0-0.807-0.174-1.418-0.52-1.832c-0.348-0.412-0.832-0.619-1.457-0.619c-0.857,0-1.652,0.494-2.385,1.48
									c-0.73,0.988-1.346,2.436-1.844,4.342c-0.496,1.908-0.746,3.703-0.746,5.385c0,0.887,0.129,1.557,0.389,2.014
									C208.9,93.424,209.361,93.652,210.025,93.652z"/>
								<path style="fill:#FFFFFF;" d="M222.041,93.404v1.166c-0.545,0.195-1.059,0.293-1.535,0.293
									c-1.24,0-1.859-0.734-1.859-2.205c0-0.369,0.064-0.855,0.191-1.459l2.385-11.236h-1.434l0.176-0.816l1.506-0.41l1.17-3.764
									h1.01l-0.805,3.764h2.094l-0.264,1.227h-2.092l-2.313,10.844c-0.137,0.621-0.205,1.137-0.205,1.547
									c0,0.438,0.08,0.75,0.242,0.939c0.16,0.191,0.416,0.285,0.768,0.285C221.379,93.578,221.699,93.52,222.041,93.404z"/>
								<path style="fill:#FFFFFF;" d="M225.689,94.57h-1.375l3.379-15.834h1.375L225.689,94.57z M228.381,74.783
									c0-0.498,0.113-0.926,0.336-1.285c0.225-0.359,0.514-0.539,0.863-0.539c0.459,0,0.689,0.281,0.689,0.846
									c0,0.555-0.107,1.012-0.322,1.371c-0.215,0.361-0.498,0.541-0.85,0.541C228.621,75.717,228.381,75.404,228.381,74.783z"/>
								<path style="fill:#FFFFFF;" d="M233.385,94.863c-1.043,0-1.844-0.389-2.398-1.168c-0.557-0.779-0.834-1.883-0.834-3.313
									c0-1.381,0.176-2.865,0.525-4.451c0.352-1.586,0.811-2.932,1.377-4.035c0.564-1.104,1.229-1.957,1.988-2.561
									c0.762-0.604,1.609-0.906,2.547-0.906c1.033,0,1.84,0.402,2.422,1.205c0.58,0.803,0.869,1.934,0.869,3.393
									c0,1.352-0.178,2.805-0.533,4.355c-0.355,1.553-0.822,2.885-1.398,4c-0.574,1.113-1.248,1.973-2.018,2.574
									C235.16,94.561,234.313,94.863,233.385,94.863z M231.586,90.66c0,1.965,0.658,2.947,1.975,2.947
									c0.869,0,1.668-0.494,2.4-1.48c0.73-0.988,1.328-2.381,1.791-4.182c0.463-1.799,0.695-3.537,0.695-5.209
									c0-1.994-0.678-2.992-2.033-2.992c-0.82,0-1.588,0.477-2.305,1.43s-1.316,2.346-1.799,4.174
									C231.826,87.178,231.586,88.947,231.586,90.66z"/>
								<path style="fill:#FFFFFF;" d="M246.957,94.57l2.518-11.893c0.098-0.389,0.146-0.799,0.146-1.227
									c0-1.1-0.488-1.648-1.463-1.648c-1.025,0-1.883,0.49-2.576,1.473c-0.693,0.984-1.254,2.516-1.682,4.598l-1.859,8.697h-1.375
									l3.352-15.834h1.17l-0.365,2.205h0.059c0.906-1.674,2.086-2.512,3.539-2.512c0.82,0,1.453,0.236,1.902,0.709
									s0.674,1.15,0.674,2.035c0,0.545-0.068,1.133-0.205,1.766l-2.459,11.631H246.957z"/>
								<path style="fill:#FFFFFF;" d="M252.318,93.797c0-0.584,0.131-1.08,0.395-1.488s0.629-0.613,1.098-0.613
									c0.264,0,0.467,0.104,0.613,0.307c0.146,0.205,0.221,0.473,0.221,0.803c0,0.594-0.135,1.076-0.402,1.445
									c-0.27,0.369-0.613,0.555-1.031,0.555c-0.244,0-0.455-0.086-0.631-0.256C252.406,94.379,252.318,94.129,252.318,93.797z
									 M253.664,89.215l0.146-0.744c0.389-1.936,1.248-3.799,2.574-5.59l1.025-1.371c0.848-1.148,1.408-2.086,1.682-2.816
									s0.41-1.504,0.41-2.32c0-0.74-0.174-1.279-0.52-1.619c-0.348-0.342-0.783-0.512-1.311-0.512
									c-0.389,0-0.746,0.053-1.066,0.16c-0.322,0.107-0.768,0.365-1.332,0.773l-0.557-1.139c1.043-0.738,2.068-1.107,3.072-1.107
									c1.016,0,1.801,0.291,2.355,0.875c0.557,0.584,0.834,1.391,0.834,2.422c0,0.682-0.09,1.32-0.27,1.92
									c-0.182,0.598-0.432,1.182-0.754,1.75c-0.322,0.57-0.971,1.486-1.945,2.752c-0.811,1.031-1.398,1.857-1.764,2.48
									s-0.678,1.27-0.936,1.941c-0.26,0.67-0.447,1.387-0.564,2.145H253.664z"/>
							</g>
						</g>
					</g>
				</g>
			</g>
		</g>
	</g>
</g>
</svg>
