<?xml version="1.0" encoding="iso-8859-1"?>
<!-- Generator: Adobe Illustrator 16.0.0, SVG Export Plug-In . SVG Version: 6.00 Build 0)  -->
<!DOCTYPE svg PUBLIC "-//W3C//DTD SVG 1.1//EN" "http://www.w3.org/Graphics/SVG/1.1/DTD/svg11.dtd">
<svg version="1.1" id="Layer_1" xmlns="http://www.w3.org/2000/svg" xmlns:xlink="http://www.w3.org/1999/xlink" x="0px" y="0px"
	 width="273px" height="104px" viewBox="0 0 273 104" style="enable-background:new 0 0 273 104;" xml:space="preserve">
<g>
	<g>
		<g>
			<g>
				<path style="fill:#FFFFFF;" d="M11.764,6.474c0,3.271-0.416,6.427-1.246,9.466c-0.831,3.039-1.934,5.342-3.31,6.91
					S4.278,25.2,2.543,25.2c-1.037,0-1.852-0.116-2.444-0.348v-1.488c0.518,0.232,1.333,0.348,2.444,0.348
					c1.619,0,3.029-0.873,4.23-2.62c1.201-1.746,2.161-4.298,2.88-7.654H9.558c-0.487,0.781-1.103,1.409-1.849,1.884
					c-0.746,0.475-1.526,0.712-2.341,0.712c-1.005,0-1.815-0.448-2.428-1.345c-0.614-0.897-0.92-2.068-0.92-3.515
					c0-1.751,0.288-3.421,0.865-5.01c0.577-1.588,1.32-2.778,2.23-3.569c0.91-0.792,1.947-1.188,3.111-1.188
					c1.153,0,2.031,0.433,2.634,1.298C11.463,3.571,11.764,4.827,11.764,6.474z M8.035,2.864c-0.836,0-1.587,0.354-2.254,1.061
					S4.564,5.669,4.13,7.036c-0.434,1.367-0.651,2.688-0.651,3.965c0,1.14,0.196,2.021,0.587,2.644
					c0.391,0.623,0.941,0.934,1.65,0.934c0.889,0,1.695-0.327,2.42-0.981c0.725-0.654,1.267-1.564,1.627-2.731
					c0.359-1.166,0.54-2.567,0.54-4.203c0-1.192-0.193-2.124-0.58-2.794C9.338,3.199,8.775,2.864,8.035,2.864z"/>
				<path style="fill:#FFFFFF;" d="M23.572,6.236c0,2.079-0.225,4.354-0.675,6.823c-0.45,2.47-1.053,4.652-1.809,6.546
					c-0.757,1.895-1.59,3.301-2.5,4.219S16.716,25.2,15.7,25.2c-1.08,0-1.881-0.406-2.405-1.219
					c-0.523-0.813-0.786-2.037-0.786-3.672c0-2.628,0.392-5.567,1.175-8.817c0.783-3.25,1.756-5.744,2.92-7.48
					c1.164-1.736,2.423-2.604,3.777-2.604c1.026,0,1.814,0.409,2.365,1.227S23.572,4.653,23.572,6.236z M20.287,2.896
					c-1.016,0-1.981,0.863-2.896,2.588c-0.915,1.726-1.696,4.087-2.341,7.084c-0.646,2.998-0.968,5.578-0.968,7.741
					c0,1.15,0.135,2.005,0.405,2.564c0.27,0.56,0.717,0.839,1.341,0.839c1.016,0,1.979-0.829,2.888-2.485
					c0.91-1.657,1.685-3.992,2.325-7.005c0.64-3.013,0.96-5.675,0.96-7.986c0-1.055-0.13-1.875-0.389-2.461
					S20.911,2.896,20.287,2.896z"/>
				<path style="fill:#FFFFFF;" d="M32.174,4.59c0,1.762-0.249,3.575-0.746,5.438c-0.498,1.863-1.125,3.314-1.881,4.353
					c-0.757,1.04-1.558,1.56-2.404,1.56c-0.646,0-1.143-0.28-1.492-0.839c-0.349-0.559-0.523-1.351-0.523-2.375
					c0-1.646,0.238-3.4,0.714-5.263s1.092-3.337,1.849-4.425c0.756-1.086,1.568-1.63,2.436-1.63c0.646,0,1.148,0.283,1.508,0.847
					S32.174,3.598,32.174,4.59z M38.809,1.74L27.144,24.884h-1.413L37.476,1.74H38.809z M29.905,2.643
					c-0.508,0-1.021,0.506-1.54,1.52s-0.979,2.417-1.38,4.211c-0.402,1.794-0.604,3.256-0.604,4.385
					c0,1.235,0.328,1.852,0.984,1.852c0.561,0,1.103-0.517,1.626-1.551c0.524-1.034,0.968-2.409,1.333-4.124
					c0.365-1.715,0.547-3.153,0.547-4.314C30.873,3.302,30.55,2.643,29.905,2.643z M39.65,13.866c0,1.752-0.246,3.554-0.738,5.406
					c-0.492,1.852-1.116,3.303-1.873,4.354c-0.757,1.05-1.563,1.575-2.42,1.575c-0.667,0-1.169-0.285-1.508-0.854
					c-0.339-0.57-0.508-1.351-0.508-2.343c0-1.667,0.241-3.438,0.722-5.311c0.481-1.874,1.1-3.343,1.857-4.409
					c0.756-1.066,1.563-1.599,2.42-1.599c0.667,0,1.174,0.291,1.523,0.871C39.475,12.135,39.65,12.906,39.65,13.866z M37.38,11.919
					c-0.508,0-1.021,0.507-1.54,1.52c-0.519,1.013-0.979,2.417-1.381,4.211c-0.402,1.794-0.603,3.256-0.603,4.385
					c0,1.235,0.328,1.853,0.984,1.853c0.561,0,1.103-0.517,1.627-1.552c0.523-1.034,0.968-2.409,1.333-4.124
					s0.547-3.153,0.547-4.313C38.348,12.579,38.025,11.919,37.38,11.919z"/>
				<path style="fill:#FFFFFF;" d="M50.919,25.2c-1.132,0-2-0.422-2.603-1.266s-0.905-2.042-0.905-3.594
					c0-1.498,0.19-3.107,0.571-4.828c0.381-1.72,0.878-3.179,1.492-4.377c0.614-1.197,1.333-2.124,2.159-2.778
					s1.746-0.981,2.762-0.981c1.121,0,1.997,0.435,2.626,1.306s0.944,2.098,0.944,3.681c0,1.467-0.193,3.042-0.579,4.725
					c-0.387,1.684-0.892,3.129-1.516,4.337c-0.625,1.208-1.354,2.14-2.19,2.794C52.845,24.874,51.925,25.2,50.919,25.2z
					 M48.967,20.641c0,2.132,0.714,3.198,2.143,3.198c0.942,0,1.81-0.535,2.603-1.606s1.441-2.583,1.944-4.536
					c0.502-1.952,0.754-3.836,0.754-5.651c0-2.163-0.736-3.245-2.206-3.245c-0.889,0-1.722,0.518-2.5,1.551
					c-0.777,1.035-1.428,2.543-1.952,4.528C49.229,16.863,48.967,18.784,48.967,20.641z"/>
				<path style="fill:#FFFFFF;" d="M55.947,32.672c-0.54,0-1.005-0.058-1.396-0.174v-1.457c0.392,0.127,0.836,0.19,1.333,0.19
					c0.498,0,0.884-0.14,1.159-0.419c0.275-0.28,0.526-0.747,0.754-1.401c0.227-0.654,0.479-1.636,0.754-2.944l3.746-17.429h-1.92
					l0.159-0.855l2.079-0.649l0.333-1.551c0.307-1.509,0.643-2.686,1.008-3.53c0.365-0.844,0.791-1.451,1.278-1.82
					c0.486-0.37,1.153-0.554,2-0.554c0.699,0,1.286,0.132,1.762,0.396l-0.65,1.393c-0.444-0.221-0.878-0.332-1.302-0.332
					c-0.497,0-0.881,0.14-1.15,0.419c-0.27,0.28-0.519,0.752-0.746,1.417c-0.228,0.665-0.574,2.111-1.04,4.337h2.286l-0.302,1.33
					h-2.27L60.01,26.562c-0.36,1.688-0.704,2.949-1.032,3.783c-0.328,0.833-0.714,1.43-1.158,1.789
					C57.375,32.493,56.751,32.672,55.947,32.672z"/>
				<path style="fill:#FFFFFF;" d="M79.614,7.376c2.127,0,3.19,1.493,3.19,4.479c0,2.216-0.333,4.404-1,6.562
					c-0.667,2.159-1.523,3.829-2.571,5.01c-1.047,1.182-2.195,1.773-3.444,1.773c-0.72,0-1.328-0.216-1.825-0.649
					c-0.498-0.433-0.81-1.013-0.937-1.741h-0.095l-1.984,9.53h-1.508l5.238-24.632h1.301l-0.397,2.454h0.08
					C76.869,8.305,78.186,7.376,79.614,7.376z M79.329,8.706c-0.995,0-1.91,0.551-2.746,1.654c-0.836,1.103-1.523,2.654-2.063,4.654
					c-0.54,2-0.81,3.96-0.81,5.881c0,1.963,0.714,2.944,2.143,2.944c0.931,0,1.796-0.546,2.595-1.638s1.465-2.673,2-4.741
					c0.534-2.068,0.801-4.015,0.801-5.841c0-0.96-0.14-1.686-0.42-2.177S80.048,8.706,79.329,8.706z"/>
				<path style="fill:#FFFFFF;" d="M88.501,25.2c-1.27,0-2.259-0.44-2.968-1.322c-0.709-0.881-1.063-2.113-1.063-3.696
					c0-2.258,0.32-4.377,0.96-6.355c0.64-1.979,1.508-3.548,2.603-4.709s2.246-1.741,3.452-1.741c0.92,0,1.632,0.267,2.134,0.799
					s0.754,1.337,0.754,2.414c0,1.298-0.315,2.433-0.944,3.403c-0.629,0.971-1.529,1.694-2.698,2.169
					c-1.169,0.475-2.563,0.712-4.182,0.712h-0.19c-0.222,1.044-0.333,2.095-0.333,3.15c0,2.543,0.974,3.815,2.92,3.815
					c0.497,0,0.965-0.068,1.405-0.206c0.439-0.137,0.938-0.369,1.5-0.697v1.52C90.961,24.952,89.845,25.2,88.501,25.2z
					 M91.231,8.769c-0.942,0-1.836,0.623-2.683,1.868c-0.846,1.246-1.513,2.892-2,4.939c4.222,0,6.333-1.672,6.333-5.018
					c0-0.559-0.119-0.998-0.357-1.314C92.287,8.927,91.855,8.769,91.231,8.769z"/>
				<path style="fill:#FFFFFF;" d="M99.647,25.2c-1.132,0-2-0.422-2.603-1.266s-0.905-2.042-0.905-3.594
					c0-1.498,0.19-3.107,0.571-4.828c0.381-1.72,0.878-3.179,1.492-4.377c0.614-1.197,1.333-2.124,2.159-2.778
					s1.746-0.981,2.762-0.981c1.121,0,1.997,0.435,2.626,1.306s0.944,2.098,0.944,3.681c0,1.467-0.193,3.042-0.579,4.725
					c-0.387,1.684-0.892,3.129-1.516,4.337c-0.625,1.208-1.354,2.14-2.19,2.794C101.573,24.874,100.653,25.2,99.647,25.2z
					 M97.695,20.641c0,2.132,0.714,3.198,2.143,3.198c0.942,0,1.81-0.535,2.603-1.606s1.441-2.583,1.944-4.536
					c0.502-1.952,0.754-3.836,0.754-5.651c0-2.163-0.736-3.245-2.206-3.245c-0.889,0-1.722,0.518-2.5,1.551
					c-0.777,1.035-1.428,2.543-1.952,4.528C97.958,16.863,97.695,18.784,97.695,20.641z"/>
				<path style="fill:#FFFFFF;" d="M116.213,7.376c2.127,0,3.19,1.493,3.19,4.479c0,2.216-0.333,4.404-1,6.562
					c-0.667,2.159-1.523,3.829-2.571,5.01c-1.047,1.182-2.195,1.773-3.444,1.773c-0.72,0-1.328-0.216-1.825-0.649
					c-0.498-0.433-0.81-1.013-0.937-1.741h-0.095l-1.984,9.53h-1.508l5.238-24.632h1.301l-0.397,2.454h0.08
					C113.467,8.305,114.785,7.376,116.213,7.376z M115.927,8.706c-0.995,0-1.91,0.551-2.746,1.654
					c-0.836,1.103-1.523,2.654-2.063,4.654c-0.54,2-0.81,3.96-0.81,5.881c0,1.963,0.714,2.944,2.143,2.944
					c0.931,0,1.796-0.546,2.595-1.638s1.465-2.673,2-4.741c0.534-2.068,0.801-4.015,0.801-5.841c0-0.96-0.14-1.686-0.42-2.177
					S116.647,8.706,115.927,8.706z"/>
				<path style="fill:#FFFFFF;" d="M121.815,24.884h-1.492l5.253-24.631h1.508L121.815,24.884z"/>
				<path style="fill:#FFFFFF;" d="M130.657,25.2c-1.27,0-2.259-0.44-2.968-1.322c-0.709-0.881-1.063-2.113-1.063-3.696
					c0-2.258,0.32-4.377,0.96-6.355c0.64-1.979,1.508-3.548,2.603-4.709s2.246-1.741,3.452-1.741c0.92,0,1.632,0.267,2.134,0.799
					s0.754,1.337,0.754,2.414c0,1.298-0.315,2.433-0.944,3.403c-0.629,0.971-1.529,1.694-2.698,2.169
					c-1.169,0.475-2.563,0.712-4.182,0.712h-0.19c-0.222,1.044-0.333,2.095-0.333,3.15c0,2.543,0.974,3.815,2.92,3.815
					c0.497,0,0.965-0.068,1.405-0.206c0.439-0.137,0.938-0.369,1.5-0.697v1.52C133.117,24.952,132,25.2,130.657,25.2z
					 M133.387,8.769c-0.942,0-1.836,0.623-2.683,1.868c-0.846,1.246-1.513,2.892-2,4.939c4.222,0,6.333-1.672,6.333-5.018
					c0-0.559-0.119-0.998-0.357-1.314C134.442,8.927,134.011,8.769,133.387,8.769z"/>
				<path style="fill:#FFFFFF;" d="M151.157,24.884l0.461-11.635l0.19-3.609c-0.424,1.245-0.709,2.079-0.857,2.501
					c-0.148,0.422-1.777,4.67-4.889,12.743h-1.856l0.317-17.176h1.508l-0.206,10.005c-0.043,1.857-0.159,3.599-0.35,5.224h0.063
					c0.085-0.295,0.294-0.902,0.627-1.82s2.05-5.387,5.15-13.408h1.729l-0.254,10.005c-0.031,0.95-0.111,2.333-0.238,4.147
					l-0.063,1.076h0.063l0.952-2.485l4.968-12.743h1.524l-6.92,17.176H151.157z"/>
				<path style="fill:#FFFFFF;" d="M165.73,24.884l2.729-12.901c0.106-0.422,0.159-0.865,0.159-1.33
					c0-1.192-0.529-1.789-1.587-1.789c-1.111,0-2.043,0.533-2.794,1.599c-0.751,1.066-1.359,2.729-1.825,4.987l-2.016,9.435h-1.491
					l5.222-24.631h1.507l-1.57,7.187l-0.651,2.66h0.063c0.984-1.815,2.265-2.723,3.841-2.723c0.889,0,1.576,0.256,2.063,0.768
					c0.486,0.512,0.73,1.248,0.73,2.208c0,0.591-0.074,1.23-0.223,1.916l-2.666,12.617H165.73z"/>
				<path style="fill:#FFFFFF;" d="M175.799,25.2c-1.133,0-2-0.422-2.604-1.266c-0.603-0.844-0.904-2.042-0.904-3.594
					c0-1.498,0.19-3.107,0.571-4.828c0.381-1.72,0.878-3.179,1.492-4.377c0.613-1.197,1.333-2.124,2.158-2.778
					s1.746-0.981,2.762-0.981c1.121,0,1.997,0.435,2.627,1.306c0.629,0.871,0.944,2.098,0.944,3.681c0,1.467-0.193,3.042-0.58,4.725
					c-0.386,1.684-0.892,3.129-1.516,4.337c-0.624,1.208-1.354,2.14-2.189,2.794C177.724,24.874,176.804,25.2,175.799,25.2z
					 M173.847,20.641c0,2.132,0.714,3.198,2.143,3.198c0.941,0,1.809-0.535,2.603-1.606s1.441-2.583,1.944-4.536
					c0.502-1.952,0.754-3.836,0.754-5.651c0-2.163-0.735-3.245-2.206-3.245c-0.889,0-1.723,0.518-2.5,1.551
					c-0.777,1.035-1.429,2.543-1.952,4.528C174.108,16.863,173.847,18.784,173.847,20.641z"/>
				<path style="fill:#FFFFFF;" d="M196.175,24.884l2.729-12.901c0.106-0.422,0.159-0.865,0.159-1.33
					c0-1.192-0.529-1.789-1.587-1.789c-1.111,0-2.043,0.533-2.794,1.599c-0.751,1.066-1.359,2.729-1.825,4.987l-2.016,9.435h-1.491
					l5.222-24.631h1.507l-1.57,7.187l-0.651,2.66h0.063c0.984-1.815,2.265-2.723,3.841-2.723c0.889,0,1.576,0.256,2.063,0.768
					c0.486,0.512,0.73,1.248,0.73,2.208c0,0.591-0.074,1.23-0.223,1.916l-2.666,12.617H196.175z"/>
				<path style="fill:#FFFFFF;" d="M205.908,25.2c-2.116,0-3.174-1.488-3.174-4.464c0-2.206,0.33-4.39,0.992-6.554
					c0.661-2.163,1.518-3.839,2.571-5.026c1.053-1.188,2.203-1.781,3.451-1.781c1.418,0,2.339,0.792,2.762,2.375h0.096l0.619-2.042
					h1.27l-3.635,17.176h-1.206l0.285-2.47h-0.063C208.67,24.272,207.348,25.2,205.908,25.2z M206.21,23.887
					c0.952,0,1.841-0.549,2.666-1.646c0.826-1.098,1.524-2.702,2.096-4.813c0.571-2.11,0.856-4.1,0.856-5.968
					c0-0.876-0.188-1.538-0.563-1.987c-0.375-0.448-0.901-0.673-1.579-0.673c-0.931,0-1.793,0.536-2.587,1.607
					c-0.793,1.071-1.46,2.641-1.999,4.709c-0.54,2.068-0.81,4.016-0.81,5.841c0,0.96,0.14,1.688,0.42,2.185
					S205.49,23.887,206.21,23.887z"/>
				<path style="fill:#FFFFFF;" d="M216.865,24.884V7.708h1.492V18.14c0,0.401-0.024,1.148-0.072,2.24
					c-0.047,1.092-0.108,1.944-0.182,2.556h0.095c0.223-0.654,0.492-1.398,0.81-2.232c0.317-0.833,2.105-5.166,5.364-12.997h1.571
					l-7.285,17.176H216.865z"/>
				<path style="fill:#FFFFFF;" d="M229.13,25.2c-1.27,0-2.259-0.44-2.968-1.322c-0.709-0.881-1.063-2.113-1.063-3.696
					c0-2.258,0.32-4.377,0.96-6.355c0.641-1.979,1.508-3.548,2.604-4.709c1.095-1.161,2.245-1.741,3.451-1.741
					c0.921,0,1.633,0.267,2.135,0.799c0.503,0.533,0.754,1.337,0.754,2.414c0,1.298-0.314,2.433-0.944,3.403
					c-0.63,0.971-1.529,1.694-2.698,2.169c-1.169,0.475-2.563,0.712-4.182,0.712h-0.19c-0.223,1.044-0.333,2.095-0.333,3.15
					c0,2.543,0.973,3.815,2.92,3.815c0.497,0,0.966-0.068,1.404-0.206c0.439-0.137,0.939-0.369,1.5-0.697v1.52
					C231.59,24.952,230.474,25.2,229.13,25.2z M231.859,8.769c-0.941,0-1.836,0.623-2.682,1.868c-0.847,1.246-1.514,2.892-2,4.939
					c4.222,0,6.333-1.672,6.333-5.018c0-0.559-0.119-0.998-0.357-1.314S232.483,8.769,231.859,8.769z"/>
			</g>
		</g>
		<g>
			<g>
				<g>
					<path style="fill:#FFFFFF;" d="M7.32,63.884l2.73-12.901c0.105-0.422,0.159-0.865,0.159-1.33c0-1.192-0.529-1.789-1.587-1.789
						c-1.111,0-2.042,0.533-2.793,1.599c-0.751,1.066-1.36,2.729-1.825,4.987l-2.016,9.435H0.496l5.222-24.631h1.508l-1.571,7.187
						l-0.651,2.66h0.063c0.984-1.815,2.264-2.723,3.841-2.723c0.889,0,1.577,0.256,2.063,0.768c0.486,0.512,0.73,1.248,0.73,2.208
						c0,0.591-0.074,1.23-0.222,1.916L8.812,63.884H7.32z"/>
					<path style="fill:#FFFFFF;" d="M17.912,64.2c-1.27,0-2.259-0.44-2.968-1.321c-0.709-0.882-1.063-2.113-1.063-3.696
						c0-2.259,0.32-4.378,0.96-6.356c0.64-1.979,1.508-3.548,2.603-4.709s2.246-1.741,3.452-1.741c0.92,0,1.632,0.267,2.134,0.799
						s0.754,1.337,0.754,2.414c0,1.298-0.315,2.433-0.944,3.403c-0.629,0.971-1.529,1.694-2.698,2.169
						c-1.169,0.475-2.563,0.712-4.182,0.712h-0.19c-0.222,1.044-0.333,2.095-0.333,3.15c0,2.543,0.974,3.814,2.92,3.814
						c0.497,0,0.965-0.068,1.405-0.206c0.439-0.137,0.938-0.369,1.5-0.696v1.52C20.372,63.952,19.255,64.2,17.912,64.2z
						 M20.642,47.769c-0.942,0-1.836,0.623-2.683,1.868c-0.846,1.246-1.513,2.892-2,4.939c4.222,0,6.333-1.673,6.333-5.019
						c0-0.559-0.119-0.998-0.357-1.314C21.697,47.927,21.266,47.769,20.642,47.769z"/>
					<path style="fill:#FFFFFF;" d="M28.725,64.2c-2.116,0-3.174-1.488-3.174-4.464c0-2.205,0.331-4.391,0.992-6.554
						s1.519-3.839,2.571-5.026c1.053-1.188,2.204-1.781,3.452-1.781c1.417,0,2.338,0.792,2.761,2.375h0.095l0.619-2.042h1.27
						l-3.634,17.176H32.47l0.286-2.47h-0.063C31.486,63.271,30.163,64.2,28.725,64.2z M29.026,62.887
						c0.953,0,1.841-0.549,2.667-1.646s1.523-2.701,2.095-4.813c0.571-2.11,0.857-4.1,0.857-5.968c0-0.876-0.188-1.538-0.563-1.987
						c-0.376-0.448-0.902-0.673-1.579-0.673c-0.931,0-1.793,0.536-2.587,1.607c-0.794,1.071-1.46,2.641-2,4.71
						c-0.54,2.068-0.81,4.015-0.81,5.841c0,0.96,0.14,1.688,0.421,2.185C27.807,62.639,28.306,62.887,29.026,62.887z"/>
					<path style="fill:#FFFFFF;" d="M46.092,46.376c0.413,0,0.799,0.063,1.159,0.19l-0.413,1.535
						c-0.317-0.158-0.667-0.237-1.047-0.237c-0.899,0-1.735,0.617-2.508,1.852s-1.386,2.923-1.841,5.065l-1.952,9.103h-1.492
						l3.635-17.176h1.111l-0.46,3.008h0.063C43.278,47.489,44.526,46.376,46.092,46.376z"/>
					<path style="fill:#FFFFFF;" d="M49.56,64.2c-2.116,0-3.174-1.488-3.174-4.464c0-2.205,0.331-4.391,0.992-6.554
						s1.519-3.839,2.571-5.026c1.053-1.188,2.204-1.781,3.452-1.781c0.73,0,1.341,0.221,1.833,0.665s0.801,1.024,0.928,1.741h0.095
						l1.984-9.529h1.508l-5.237,24.631h-1.206l0.286-2.47h-0.063C52.321,63.271,50.999,64.2,49.56,64.2z M49.861,62.887
						c0.953,0,1.841-0.541,2.667-1.623c0.825-1.081,1.523-2.664,2.095-4.748c0.571-2.085,0.857-4.082,0.857-5.992
						c0-0.897-0.169-1.575-0.508-2.034c-0.339-0.459-0.884-0.689-1.635-0.689c-0.931,0-1.793,0.536-2.587,1.607
						c-0.794,1.071-1.46,2.641-2,4.71c-0.54,2.068-0.81,4.015-0.81,5.841c0,0.96,0.14,1.688,0.421,2.185
						C48.642,62.639,49.142,62.887,49.861,62.887z"/>
					<path style="fill:#FFFFFF;" d="M67.478,62.617v1.267c-0.593,0.211-1.148,0.316-1.667,0.316c-1.344,0-2.016-0.797-2.016-2.391
						c0-0.4,0.069-0.928,0.207-1.583l2.587-12.188h-1.555l0.19-0.887l1.635-0.443l1.27-4.084h1.095l-0.873,4.084h2.27l-0.286,1.33
						h-2.27L65.558,59.8c-0.148,0.676-0.222,1.234-0.222,1.678c0,0.475,0.087,0.815,0.262,1.021
						c0.174,0.205,0.452,0.309,0.833,0.309C66.758,62.808,67.108,62.744,67.478,62.617z"/>
					<path style="fill:#FFFFFF;" d="M76.863,63.884l2.73-12.901c0.105-0.422,0.159-0.865,0.159-1.33
						c0-1.192-0.529-1.789-1.587-1.789c-1.111,0-2.042,0.533-2.793,1.599c-0.751,1.066-1.36,2.729-1.825,4.987l-2.016,9.435h-1.492
						l5.222-24.631h1.508l-1.571,7.187l-0.651,2.66h0.063c0.984-1.815,2.264-2.723,3.841-2.723c0.889,0,1.577,0.256,2.063,0.768
						c0.486,0.512,0.73,1.248,0.73,2.208c0,0.591-0.074,1.23-0.222,1.916l-2.667,12.617H76.863z"/>
					<path style="fill:#FFFFFF;" d="M87.454,64.2c-1.27,0-2.259-0.44-2.968-1.321c-0.709-0.882-1.063-2.113-1.063-3.696
						c0-2.259,0.32-4.378,0.96-6.356c0.64-1.979,1.508-3.548,2.603-4.709s2.246-1.741,3.452-1.741c0.92,0,1.632,0.267,2.134,0.799
						s0.754,1.337,0.754,2.414c0,1.298-0.315,2.433-0.944,3.403c-0.629,0.971-1.529,1.694-2.698,2.169
						c-1.169,0.475-2.563,0.712-4.182,0.712h-0.19c-0.222,1.044-0.333,2.095-0.333,3.15c0,2.543,0.974,3.814,2.92,3.814
						c0.497,0,0.965-0.068,1.405-0.206c0.439-0.137,0.938-0.369,1.5-0.696v1.52C89.914,63.952,88.798,64.2,87.454,64.2z
						 M90.184,47.769c-0.942,0-1.836,0.623-2.683,1.868c-0.846,1.246-1.513,2.892-2,4.939c4.222,0,6.333-1.673,6.333-5.019
						c0-0.559-0.119-0.998-0.357-1.314C91.239,47.927,90.808,47.769,90.184,47.769z"/>
					<path style="fill:#FFFFFF;" d="M100.356,63.884h-1.492l3.667-17.176h1.492L100.356,63.884z M103.276,42.418
						c0-0.539,0.122-1.003,0.365-1.393c0.243-0.391,0.556-0.586,0.937-0.586c0.497,0,0.746,0.306,0.746,0.918
						c0,0.602-0.116,1.098-0.349,1.488c-0.233,0.391-0.54,0.585-0.92,0.585C103.536,43.431,103.276,43.094,103.276,42.418z"/>
					<path style="fill:#FFFFFF;" d="M108.404,64.2c-2.116,0-3.174-1.488-3.174-4.464c0-2.205,0.331-4.391,0.992-6.554
						s1.519-3.839,2.571-5.026c1.053-1.188,2.204-1.781,3.452-1.781c0.73,0,1.341,0.221,1.833,0.665s0.801,1.024,0.928,1.741h0.095
						l1.984-9.529h1.508l-5.237,24.631h-1.206l0.286-2.47h-0.063C111.165,63.271,109.842,64.2,108.404,64.2z M108.705,62.887
						c0.953,0,1.841-0.541,2.667-1.623c0.825-1.081,1.523-2.664,2.095-4.748c0.571-2.085,0.857-4.082,0.857-5.992
						c0-0.897-0.169-1.575-0.508-2.034c-0.339-0.459-0.884-0.689-1.635-0.689c-0.931,0-1.793,0.536-2.587,1.607
						c-0.794,1.071-1.46,2.641-2,4.71c-0.54,2.068-0.81,4.015-0.81,5.841c0,0.96,0.14,1.688,0.421,2.185
						C107.486,62.639,107.985,62.887,108.705,62.887z"/>
					<path style="fill:#FFFFFF;" d="M122.455,64.2c-1.27,0-2.259-0.44-2.968-1.321c-0.709-0.882-1.063-2.113-1.063-3.696
						c0-2.259,0.32-4.378,0.96-6.356c0.64-1.979,1.508-3.548,2.603-4.709s2.246-1.741,3.452-1.741c0.92,0,1.632,0.267,2.134,0.799
						s0.754,1.337,0.754,2.414c0,1.298-0.315,2.433-0.944,3.403c-0.629,0.971-1.529,1.694-2.698,2.169
						c-1.169,0.475-2.563,0.712-4.182,0.712h-0.19c-0.222,1.044-0.333,2.095-0.333,3.15c0,2.543,0.974,3.814,2.92,3.814
						c0.497,0,0.965-0.068,1.405-0.206c0.439-0.137,0.938-0.369,1.5-0.696v1.52C124.915,63.952,123.799,64.2,122.455,64.2z
						 M125.185,47.769c-0.942,0-1.836,0.623-2.683,1.868c-0.846,1.246-1.513,2.892-2,4.939c4.222,0,6.333-1.673,6.333-5.019
						c0-0.559-0.119-0.998-0.357-1.314C126.24,47.927,125.809,47.769,125.185,47.769z"/>
					<path style="fill:#FFFFFF;" d="M133.268,64.2c-2.116,0-3.174-1.488-3.174-4.464c0-2.205,0.331-4.391,0.992-6.554
						s1.519-3.839,2.571-5.026c1.053-1.188,2.204-1.781,3.452-1.781c1.418,0,2.338,0.792,2.762,2.375h0.095l0.619-2.042h1.27
						l-3.635,17.176h-1.205l0.285-2.47h-0.063C136.029,63.271,134.706,64.2,133.268,64.2z M133.569,62.887
						c0.953,0,1.841-0.549,2.667-1.646s1.523-2.701,2.095-4.813c0.571-2.11,0.857-4.1,0.857-5.968c0-0.876-0.188-1.538-0.563-1.987
						c-0.376-0.448-0.902-0.673-1.579-0.673c-0.931,0-1.793,0.536-2.587,1.607c-0.794,1.071-1.46,2.641-2,4.71
						c-0.54,2.068-0.81,4.015-0.81,5.841c0,0.96,0.14,1.688,0.421,2.185C132.35,62.639,132.849,62.887,133.569,62.887z"/>
					<path style="fill:#FFFFFF;" d="M151.563,64.2c-2.116,0-3.174-1.488-3.174-4.464c0-2.205,0.33-4.391,0.992-6.554
						c0.661-2.163,1.518-3.839,2.571-5.026c1.053-1.188,2.203-1.781,3.451-1.781c1.418,0,2.339,0.792,2.762,2.375h0.096l0.619-2.042
						h1.27l-3.635,17.176h-1.206l0.285-2.47h-0.063C154.324,63.271,153.002,64.2,151.563,64.2z M151.864,62.887
						c0.952,0,1.841-0.549,2.666-1.646c0.826-1.098,1.524-2.701,2.096-4.813c0.571-2.11,0.856-4.1,0.856-5.968
						c0-0.876-0.188-1.538-0.563-1.987c-0.375-0.448-0.901-0.673-1.579-0.673c-0.931,0-1.793,0.536-2.587,1.607
						c-0.793,1.071-1.46,2.641-1.999,4.71c-0.54,2.068-0.81,4.015-0.81,5.841c0,0.96,0.14,1.688,0.42,2.185
						S151.145,62.887,151.864,62.887z"/>
					<path style="fill:#FFFFFF;" d="M172.725,46.708l-0.223,1.061l-2.174,0.27c0.317,0.602,0.476,1.356,0.476,2.264
						c0,1.15-0.235,2.335-0.706,3.554s-1.095,2.174-1.873,2.865c-0.777,0.691-1.637,1.037-2.579,1.037h-0.396l-0.349-0.031
						c-1.323,0.917-1.984,1.751-1.984,2.5c0,0.243,0.042,0.441,0.127,0.594c0.085,0.153,0.217,0.28,0.396,0.38
						c0.181,0.101,0.805,0.314,1.873,0.642c1.333,0.411,2.27,0.932,2.81,1.56c0.539,0.627,0.81,1.469,0.81,2.524
						c0,1.699-0.562,3.081-1.683,4.147c-1.122,1.065-2.566,1.599-4.333,1.599c-1.396,0-2.479-0.354-3.245-1.061
						c-0.768-0.707-1.151-1.704-1.151-2.991c0-1.108,0.345-2.119,1.032-3.032c0.688-0.912,1.666-1.654,2.936-2.224
						c-0.666-0.443-1-1.039-1-1.789c0-0.549,0.17-1.081,0.509-1.599c0.338-0.517,0.946-1.087,1.825-1.71
						c-0.91-0.76-1.365-1.862-1.365-3.308c0-1.299,0.262-2.567,0.785-3.808c0.524-1.24,1.186-2.179,1.984-2.818
						c0.799-0.638,1.685-0.958,2.658-0.958c0.677,0,1.195,0.11,1.556,0.332H172.725z M159.948,67.509
						c0,1.034,0.262,1.781,0.786,2.24c0.523,0.459,1.293,0.688,2.309,0.688c1.291,0,2.362-0.391,3.214-1.172
						c0.852-0.78,1.277-1.799,1.277-3.055c0-0.676-0.214-1.262-0.643-1.757c-0.429-0.497-1.082-0.871-1.96-1.124l-1.429-0.38
						c-1.016,0.338-1.862,0.934-2.539,1.788C160.287,65.594,159.948,66.517,159.948,67.509z M163.916,54.195
						c0,0.781,0.15,1.375,0.452,1.781s0.738,0.609,1.31,0.609c0.656,0,1.251-0.277,1.785-0.831s0.977-1.388,1.325-2.501
						c0.35-1.113,0.524-2.182,0.524-3.206c0-1.625-0.571-2.438-1.715-2.438c-0.646,0-1.24,0.296-1.785,0.887
						s-0.997,1.459-1.356,2.604C164.096,52.246,163.916,53.277,163.916,54.195z"/>
					<path style="fill:#FFFFFF;" d="M179.566,46.376c0.412,0,0.799,0.063,1.158,0.19l-0.413,1.535
						c-0.317-0.158-0.666-0.237-1.047-0.237c-0.899,0-1.735,0.617-2.508,1.852s-1.386,2.923-1.841,5.065l-1.952,9.103h-1.492
						l3.635-17.176h1.11l-0.46,3.008h0.063C176.751,47.489,178,46.376,179.566,46.376z"/>
					<path style="fill:#FFFFFF;" d="M183.891,64.2c-1.27,0-2.259-0.44-2.968-1.321c-0.709-0.882-1.063-2.113-1.063-3.696
						c0-2.259,0.32-4.378,0.96-6.356c0.641-1.979,1.508-3.548,2.604-4.709c1.095-1.161,2.245-1.741,3.451-1.741
						c0.921,0,1.633,0.267,2.135,0.799c0.503,0.533,0.754,1.337,0.754,2.414c0,1.298-0.314,2.433-0.944,3.403
						c-0.63,0.971-1.529,1.694-2.698,2.169c-1.169,0.475-2.563,0.712-4.182,0.712h-0.19c-0.223,1.044-0.333,2.095-0.333,3.15
						c0,2.543,0.973,3.814,2.92,3.814c0.497,0,0.966-0.068,1.404-0.206c0.439-0.137,0.939-0.369,1.5-0.696v1.52
						C186.351,63.952,185.234,64.2,183.891,64.2z M186.62,47.769c-0.941,0-1.836,0.623-2.682,1.868
						c-0.847,1.246-1.514,2.892-2,4.939c4.222,0,6.333-1.673,6.333-5.019c0-0.559-0.119-0.998-0.357-1.314
						S187.244,47.769,186.62,47.769z"/>
					<path style="fill:#FFFFFF;" d="M195.56,64.2c-1.27,0-2.259-0.44-2.968-1.321c-0.709-0.882-1.063-2.113-1.063-3.696
						c0-2.259,0.32-4.378,0.96-6.356c0.641-1.979,1.508-3.548,2.604-4.709c1.095-1.161,2.245-1.741,3.451-1.741
						c0.921,0,1.633,0.267,2.135,0.799c0.503,0.533,0.754,1.337,0.754,2.414c0,1.298-0.314,2.433-0.944,3.403
						c-0.63,0.971-1.529,1.694-2.698,2.169c-1.169,0.475-2.563,0.712-4.182,0.712h-0.19c-0.223,1.044-0.333,2.095-0.333,3.15
						c0,2.543,0.973,3.814,2.92,3.814c0.497,0,0.966-0.068,1.404-0.206c0.439-0.137,0.939-0.369,1.5-0.696v1.52
						C198.02,63.952,196.903,64.2,195.56,64.2z M198.289,47.769c-0.941,0-1.836,0.623-2.682,1.868c-0.847,1.246-1.514,2.892-2,4.939
						c4.222,0,6.333-1.673,6.333-5.019c0-0.559-0.119-0.998-0.357-1.314S198.913,47.769,198.289,47.769z"/>
					<path style="fill:#FFFFFF;" d="M211.098,62.617v1.267c-0.593,0.211-1.148,0.316-1.667,0.316c-1.344,0-2.016-0.797-2.016-2.391
						c0-0.4,0.069-0.928,0.206-1.583l2.588-12.188h-1.556l0.19-0.887l1.635-0.443l1.27-4.084h1.095l-0.872,4.084h2.27l-0.286,1.33
						h-2.27L209.177,59.8c-0.148,0.676-0.222,1.234-0.222,1.678c0,0.475,0.087,0.815,0.262,1.021
						c0.175,0.205,0.452,0.309,0.833,0.309C210.378,62.808,210.727,62.744,211.098,62.617z"/>
					<path style="fill:#FFFFFF;" d="M220.481,63.884l2.729-12.901c0.106-0.422,0.159-0.865,0.159-1.33
						c0-1.192-0.529-1.789-1.587-1.789c-1.111,0-2.043,0.533-2.794,1.599c-0.751,1.066-1.359,2.729-1.825,4.987l-2.016,9.435h-1.491
						l5.222-24.631h1.507l-1.57,7.187l-0.651,2.66h0.063c0.984-1.815,2.265-2.723,3.841-2.723c0.889,0,1.576,0.256,2.063,0.768
						c0.486,0.512,0.73,1.248,0.73,2.208c0,0.591-0.074,1.23-0.223,1.916l-2.666,12.617H220.481z"/>
					<path style="fill:#FFFFFF;" d="M227.724,63.884h-1.492l3.666-17.176h1.492L227.724,63.884z M230.644,42.418
						c0-0.539,0.122-1.003,0.365-1.393c0.243-0.391,0.556-0.586,0.937-0.586c0.497,0,0.746,0.306,0.746,0.918
						c0,0.602-0.117,1.098-0.35,1.488c-0.232,0.391-0.539,0.585-0.92,0.585C230.903,43.431,230.644,43.094,230.644,42.418z"/>
					<path style="fill:#FFFFFF;" d="M234.343,64.2c-0.593,0-1.212-0.074-1.857-0.222s-1.085-0.311-1.317-0.49v-1.741
						c0.254,0.253,0.68,0.488,1.278,0.704c0.598,0.217,1.198,0.324,1.801,0.324c1.026,0,1.825-0.298,2.396-0.895
						c0.571-0.596,0.857-1.442,0.857-2.54c0-0.465-0.059-0.89-0.175-1.274s-0.268-0.741-0.452-1.068
						c-0.186-0.327-0.596-0.84-1.23-1.535c-0.688-0.75-1.153-1.316-1.396-1.703c-0.243-0.385-0.434-0.799-0.571-1.242
						c-0.138-0.443-0.206-0.955-0.206-1.535c0-1.372,0.423-2.483,1.27-3.333c0.847-0.849,1.941-1.274,3.285-1.274
						c1.438,0,2.598,0.327,3.476,0.981l-0.81,1.361c-0.751-0.612-1.661-0.918-2.729-0.918c-0.867,0-1.585,0.272-2.15,0.815
						c-0.566,0.543-0.849,1.269-0.849,2.177c0,0.623,0.113,1.187,0.341,1.694c0.228,0.506,0.658,1.107,1.293,1.805
						c0.763,0.822,1.278,1.445,1.548,1.867c0.27,0.423,0.484,0.882,0.643,1.378c0.159,0.496,0.238,1.045,0.238,1.646
						c0,1.604-0.404,2.841-1.214,3.712C237.001,63.765,235.845,64.2,234.343,64.2z"/>
				</g>
			</g>
			<g>
				<g>
					<g>
						<path style="fill:#FFFFFF;" d="M8.971,102.892l0.46-11.635l0.19-3.609c-0.423,1.245-0.709,2.079-0.857,2.501
							c-0.148,0.422-1.778,4.67-4.888,12.743H2.02l0.317-17.176h1.508L3.638,95.721c-0.042,1.857-0.159,3.599-0.349,5.224h0.063
							c0.084-0.295,0.293-0.902,0.627-1.82c0.333-0.918,2.05-5.388,5.15-13.408h1.73l-0.254,10.005
							c-0.032,0.949-0.111,2.332-0.238,4.147l-0.063,1.076h0.063l0.952-2.485l4.968-12.743h1.523l-6.92,17.176H8.971z"/>
						<path style="fill:#FFFFFF;" d="M20.941,103.208c-1.132,0-2-0.422-2.603-1.267c-0.603-0.844-0.905-2.042-0.905-3.593
							c0-1.499,0.19-3.108,0.571-4.828c0.381-1.721,0.878-3.18,1.492-4.377c0.614-1.198,1.333-2.124,2.159-2.778
							s1.746-0.981,2.762-0.981c1.121,0,1.997,0.436,2.626,1.306c0.629,0.871,0.944,2.098,0.944,3.681
							c0,1.467-0.193,3.042-0.579,4.726c-0.387,1.683-0.892,3.129-1.516,4.337c-0.625,1.209-1.354,2.14-2.19,2.794
							S21.947,103.208,20.941,103.208z M18.989,98.649c0,2.132,0.714,3.197,2.143,3.197c0.942,0,1.81-0.535,2.603-1.606
							s1.441-2.583,1.944-4.535c0.502-1.952,0.754-3.836,0.754-5.651c0-2.163-0.736-3.245-2.206-3.245
							c-0.889,0-1.722,0.517-2.5,1.551c-0.777,1.034-1.428,2.544-1.952,4.527C19.251,94.871,18.989,96.792,18.989,98.649z"/>
						<path style="fill:#FFFFFF;" d="M34.031,85.716L31.46,97.668c-0.19,0.823-0.286,1.535-0.286,2.137
							c0,1.298,0.498,1.947,1.492,1.947c2.211,0,3.782-2.2,4.713-6.602l2.016-9.435h1.492l-3.667,17.176h-1.174l0.127-2.137H36.11
							c-1.069,1.636-2.333,2.453-3.793,2.453c-1.735,0-2.603-1.045-2.603-3.134c0-0.834,0.105-1.71,0.317-2.628l2.508-11.73H34.031z
							"/>
						<path style="fill:#FFFFFF;" d="M43.067,102.892h-1.492l5.253-24.632h1.508L43.067,102.892z"/>
						<path style="fill:#FFFFFF;" d="M51.051,103.208c-2.116,0-3.174-1.488-3.174-4.464c0-2.206,0.331-4.39,0.992-6.554
							c0.661-2.163,1.519-3.839,2.571-5.026c1.053-1.187,2.204-1.78,3.452-1.78c0.73,0,1.341,0.222,1.833,0.665
							c0.492,0.442,0.801,1.023,0.928,1.741h0.095l1.984-9.53h1.508l-5.237,24.632h-1.206l0.286-2.47h-0.063
							C53.813,102.279,52.49,103.208,51.051,103.208z M51.353,101.895c0.953,0,1.841-0.541,2.667-1.623
							c0.825-1.081,1.523-2.664,2.095-4.749c0.571-2.084,0.857-4.081,0.857-5.991c0-0.897-0.169-1.575-0.508-2.034
							c-0.339-0.459-0.884-0.688-1.635-0.688c-0.931,0-1.793,0.535-2.587,1.606c-0.794,1.071-1.46,2.642-2,4.709
							c-0.54,2.069-0.81,4.016-0.81,5.842c0,0.96,0.14,1.688,0.421,2.185C50.133,101.646,50.633,101.895,51.353,101.895z"/>
						<path style="fill:#FFFFFF;" d="M73.997,85.384c2.127,0,3.19,1.493,3.19,4.479c0,2.227-0.333,4.42-1,6.577
							c-0.667,2.159-1.526,3.826-2.579,5.003s-2.198,1.765-3.436,1.765c-0.72,0-1.328-0.216-1.825-0.648
							c-0.498-0.433-0.81-1.014-0.937-1.742h-0.111l-0.714,2.074h-1.159l5.19-24.632h1.508l-1.889,8.786l-0.333,1.282h0.063
							c0.55-0.96,1.175-1.691,1.873-2.192S73.256,85.384,73.997,85.384z M73.711,86.713c-0.995,0-1.91,0.552-2.746,1.654
							c-0.836,1.104-1.523,2.654-2.063,4.654s-0.81,3.96-0.81,5.881c0,1.963,0.714,2.944,2.143,2.944
							c0.931,0,1.796-0.546,2.595-1.639c0.799-1.092,1.465-2.672,2-4.74c0.534-2.068,0.801-4.016,0.801-5.842
							c0-0.96-0.14-1.686-0.42-2.177C74.931,86.959,74.431,86.713,73.711,86.713z"/>
						<path style="fill:#FFFFFF;" d="M82.916,103.208c-1.27,0-2.259-0.44-2.968-1.321c-0.709-0.882-1.063-2.113-1.063-3.696
							c0-2.259,0.32-4.377,0.96-6.356c0.64-1.979,1.508-3.548,2.603-4.709s2.246-1.741,3.452-1.741c0.92,0,1.632,0.267,2.134,0.799
							c0.502,0.533,0.754,1.338,0.754,2.414c0,1.299-0.315,2.433-0.944,3.404c-0.629,0.971-1.529,1.693-2.698,2.168
							c-1.169,0.476-2.563,0.713-4.182,0.713h-0.19c-0.222,1.045-0.333,2.095-0.333,3.15c0,2.543,0.974,3.814,2.92,3.814
							c0.497,0,0.965-0.068,1.405-0.206c0.439-0.137,0.938-0.369,1.5-0.696v1.52C85.375,102.96,84.259,103.208,82.916,103.208z
							 M85.646,86.776c-0.942,0-1.836,0.623-2.683,1.868c-0.846,1.245-1.513,2.892-2,4.939c4.222,0,6.333-1.673,6.333-5.019
							c0-0.56-0.119-0.997-0.357-1.313C86.701,86.935,86.27,86.776,85.646,86.776z"/>
						<path style="fill:#FFFFFF;" d="M98.83,103.208c-2.116,0-3.174-1.488-3.174-4.464c0-2.206,0.331-4.39,0.992-6.554
							c0.661-2.163,1.519-3.839,2.571-5.026c1.053-1.187,2.204-1.78,3.452-1.78c1.417,0,2.338,0.791,2.761,2.374h0.095l0.619-2.042
							h1.27l-3.634,17.176h-1.206l0.286-2.47h-0.063C101.591,102.279,100.269,103.208,98.83,103.208z M99.131,101.895
							c0.953,0,1.841-0.549,2.667-1.646s1.523-2.701,2.095-4.813c0.571-2.11,0.857-4.1,0.857-5.968c0-0.876-0.188-1.538-0.563-1.986
							c-0.376-0.449-0.902-0.673-1.579-0.673c-0.931,0-1.793,0.535-2.587,1.606c-0.794,1.071-1.46,2.642-2,4.709
							c-0.54,2.069-0.81,4.016-0.81,5.842c0,0.96,0.14,1.688,0.421,2.185C97.912,101.646,98.412,101.895,99.131,101.895z"/>
						<path style="fill:#FFFFFF;" d="M115.343,102.892V85.716h1.492v10.433c0,0.4-0.024,1.147-0.071,2.239
							c-0.048,1.093-0.109,1.945-0.183,2.557h0.095c0.222-0.654,0.492-1.398,0.81-2.231c0.317-0.834,2.105-5.166,5.364-12.997h1.571
							l-7.285,17.176H115.343z"/>
						<path style="fill:#FFFFFF;" d="M126.75,103.208c-2.116,0-3.174-1.488-3.174-4.464c0-2.206,0.331-4.39,0.992-6.554
							c0.661-2.163,1.519-3.839,2.571-5.026c1.053-1.187,2.204-1.78,3.452-1.78c1.417,0,2.338,0.791,2.761,2.374h0.095l0.619-2.042
							h1.27l-3.634,17.176h-1.206l0.286-2.47h-0.063C129.511,102.279,128.188,103.208,126.75,103.208z M127.051,101.895
							c0.953,0,1.841-0.549,2.667-1.646s1.523-2.701,2.095-4.813c0.571-2.11,0.857-4.1,0.857-5.968c0-0.876-0.188-1.538-0.563-1.986
							c-0.376-0.449-0.902-0.673-1.579-0.673c-0.931,0-1.793,0.535-2.587,1.606c-0.794,1.071-1.46,2.642-2,4.709
							c-0.54,2.069-0.81,4.016-0.81,5.842c0,0.96,0.14,1.688,0.421,2.185C125.832,101.646,126.332,101.895,127.051,101.895z"/>
						<path style="fill:#FFFFFF;" d="M137.516,102.892h-1.492l5.253-24.632h1.508L137.516,102.892z"/>
						<path style="fill:#FFFFFF;" d="M146.707,85.716l-2.571,11.952c-0.19,0.823-0.286,1.535-0.286,2.137
							c0,1.298,0.497,1.947,1.492,1.947c2.211,0,3.782-2.2,4.714-6.602l2.016-9.435h1.491l-3.666,17.176h-1.174l0.127-2.137h-0.063
							c-1.069,1.636-2.334,2.453-3.794,2.453c-1.735,0-2.603-1.045-2.603-3.134c0-0.834,0.105-1.71,0.317-2.628l2.508-11.73H146.707
							z"/>
						<path style="fill:#FFFFFF;" d="M158.17,103.208c-2.116,0-3.174-1.488-3.174-4.464c0-2.206,0.33-4.39,0.992-6.554
							c0.661-2.163,1.518-3.839,2.571-5.026c1.053-1.187,2.203-1.78,3.451-1.78c1.418,0,2.339,0.791,2.762,2.374h0.096l0.619-2.042
							h1.27l-3.635,17.176h-1.206l0.285-2.47h-0.063C160.932,102.279,159.609,103.208,158.17,103.208z M158.472,101.895
							c0.952,0,1.841-0.549,2.666-1.646c0.826-1.098,1.524-2.701,2.096-4.813c0.571-2.11,0.856-4.1,0.856-5.968
							c0-0.876-0.188-1.538-0.563-1.986c-0.375-0.449-0.901-0.673-1.579-0.673c-0.931,0-1.793,0.535-2.587,1.606
							c-0.793,1.071-1.46,2.642-1.999,4.709c-0.54,2.069-0.81,4.016-0.81,5.842c0,0.96,0.14,1.688,0.42,2.185
							S157.752,101.895,158.472,101.895z"/>
						<path style="fill:#FFFFFF;" d="M176.015,85.384c2.127,0,3.19,1.493,3.19,4.479c0,2.227-0.333,4.42-1,6.577
							c-0.667,2.159-1.526,3.826-2.579,5.003s-2.198,1.765-3.437,1.765c-0.719,0-1.327-0.216-1.824-0.648
							c-0.498-0.433-0.81-1.014-0.937-1.742h-0.111l-0.714,2.074h-1.159l5.19-24.632h1.507l-1.889,8.786l-0.333,1.282h0.063
							c0.55-0.96,1.175-1.691,1.873-2.192S175.274,85.384,176.015,85.384z M175.729,86.713c-0.995,0-1.91,0.552-2.746,1.654
							c-0.836,1.104-1.523,2.654-2.063,4.654c-0.539,2-0.81,3.96-0.81,5.881c0,1.963,0.715,2.944,2.143,2.944
							c0.932,0,1.796-0.546,2.596-1.639c0.799-1.092,1.465-2.672,1.999-4.74s0.802-4.016,0.802-5.842
							c0-0.96-0.141-1.686-0.421-2.177C176.948,86.959,176.448,86.713,175.729,86.713z"/>
						<path style="fill:#FFFFFF;" d="M181.648,102.892h-1.492l5.254-24.632h1.507L181.648,102.892z"/>
						<path style="fill:#FFFFFF;" d="M190.49,103.208c-1.27,0-2.259-0.44-2.968-1.321c-0.709-0.882-1.063-2.113-1.063-3.696
							c0-2.259,0.32-4.377,0.96-6.356c0.641-1.979,1.508-3.548,2.604-4.709c1.095-1.161,2.245-1.741,3.451-1.741
							c0.921,0,1.633,0.267,2.135,0.799c0.503,0.533,0.754,1.338,0.754,2.414c0,1.299-0.314,2.433-0.944,3.404
							c-0.63,0.971-1.529,1.693-2.698,2.168c-1.169,0.476-2.563,0.713-4.182,0.713h-0.19c-0.223,1.045-0.333,2.095-0.333,3.15
							c0,2.543,0.973,3.814,2.92,3.814c0.497,0,0.966-0.068,1.404-0.206c0.439-0.137,0.939-0.369,1.5-0.696v1.52
							C192.95,102.96,191.834,103.208,190.49,103.208z M193.22,86.776c-0.941,0-1.836,0.623-2.682,1.868
							c-0.847,1.245-1.514,2.892-2,4.939c4.222,0,6.333-1.673,6.333-5.019c0-0.56-0.119-0.997-0.357-1.313
							C194.275,86.935,193.844,86.776,193.22,86.776z"/>
						<path style="fill:#FFFFFF;" d="M203.646,102.892V85.716h1.492v10.433c0,0.4-0.024,1.147-0.072,2.239
							c-0.047,1.093-0.108,1.945-0.182,2.557h0.095c0.223-0.654,0.492-1.398,0.81-2.231c0.317-0.834,2.105-5.166,5.364-12.997h1.571
							l-7.285,17.176H203.646z"/>
						<path style="fill:#FFFFFF;" d="M215.91,103.208c-1.27,0-2.259-0.44-2.968-1.321c-0.709-0.882-1.063-2.113-1.063-3.696
							c0-2.259,0.32-4.377,0.96-6.356c0.641-1.979,1.508-3.548,2.604-4.709c1.095-1.161,2.245-1.741,3.451-1.741
							c0.921,0,1.633,0.267,2.135,0.799c0.503,0.533,0.754,1.338,0.754,2.414c0,1.299-0.314,2.433-0.944,3.404
							c-0.63,0.971-1.529,1.693-2.698,2.168c-1.169,0.476-2.563,0.713-4.182,0.713h-0.19c-0.223,1.045-0.333,2.095-0.333,3.15
							c0,2.543,0.973,3.814,2.92,3.814c0.497,0,0.966-0.068,1.404-0.206c0.439-0.137,0.939-0.369,1.5-0.696v1.52
							C218.37,102.96,217.254,103.208,215.91,103.208z M218.64,86.776c-0.941,0-1.836,0.623-2.682,1.868
							c-0.847,1.245-1.514,2.892-2,4.939c4.222,0,6.333-1.673,6.333-5.019c0-0.56-0.119-0.997-0.357-1.313
							C219.695,86.935,219.264,86.776,218.64,86.776z"/>
						<path style="fill:#FFFFFF;" d="M229.627,102.892l2.73-12.901c0.105-0.422,0.158-0.865,0.158-1.33
							c0-1.192-0.529-1.788-1.587-1.788c-1.11,0-2.042,0.532-2.793,1.599c-0.752,1.065-1.36,2.728-1.825,4.986l-2.016,9.435h-1.492
							l3.635-17.176h1.27l-0.396,2.391h0.063c0.983-1.815,2.264-2.723,3.841-2.723c0.889,0,1.576,0.256,2.063,0.768
							c0.487,0.512,0.73,1.248,0.73,2.208c0,0.592-0.074,1.229-0.222,1.916l-2.667,12.616H229.627z"/>
						<path style="fill:#FFFFFF;" d="M239.083,101.625v1.267c-0.593,0.211-1.148,0.316-1.667,0.316
							c-1.344,0-2.016-0.797-2.016-2.391c0-0.4,0.069-0.928,0.206-1.583l2.588-12.188h-1.556l0.19-0.887l1.635-0.443l1.27-4.084
							h1.095l-0.872,4.084h2.27l-0.286,1.33h-2.27l-2.508,11.762c-0.148,0.676-0.222,1.234-0.222,1.678
							c0,0.475,0.087,0.815,0.262,1.021c0.175,0.205,0.452,0.309,0.833,0.309C238.363,101.815,238.712,101.752,239.083,101.625z"/>
						<path style="fill:#FFFFFF;" d="M246.737,85.716l-2.571,11.952c-0.19,0.823-0.286,1.535-0.286,2.137
							c0,1.298,0.497,1.947,1.492,1.947c2.211,0,3.782-2.2,4.714-6.602l2.016-9.435h1.491l-3.666,17.176h-1.174l0.127-2.137h-0.063
							c-1.069,1.636-2.334,2.453-3.794,2.453c-1.735,0-2.603-1.045-2.603-3.134c0-0.834,0.105-1.71,0.317-2.628l2.508-11.73H246.737
							z"/>
						<path style="fill:#FFFFFF;" d="M262.375,85.384c0.412,0,0.799,0.063,1.158,0.189l-0.413,1.536
							c-0.317-0.158-0.666-0.237-1.047-0.237c-0.899,0-1.735,0.617-2.508,1.852s-1.386,2.924-1.841,5.065l-1.952,9.103h-1.492
							l3.635-17.176h1.11l-0.46,3.008h0.063C259.56,86.497,260.809,85.384,262.375,85.384z"/>
						<path style="fill:#FFFFFF;" d="M266.698,103.208c-1.27,0-2.259-0.44-2.968-1.321c-0.709-0.882-1.063-2.113-1.063-3.696
							c0-2.259,0.32-4.377,0.96-6.356c0.641-1.979,1.508-3.548,2.604-4.709c1.095-1.161,2.245-1.741,3.451-1.741
							c0.921,0,1.633,0.267,2.135,0.799c0.503,0.533,0.754,1.338,0.754,2.414c0,1.299-0.314,2.433-0.944,3.404
							c-0.63,0.971-1.529,1.693-2.698,2.168c-1.169,0.476-2.563,0.713-4.182,0.713h-0.19c-0.223,1.045-0.333,2.095-0.333,3.15
							c0,2.543,0.973,3.814,2.92,3.814c0.497,0,0.966-0.068,1.404-0.206c0.439-0.137,0.939-0.369,1.5-0.696v1.52
							C269.158,102.96,268.042,103.208,266.698,103.208z M269.428,86.776c-0.941,0-1.836,0.623-2.682,1.868
							c-0.847,1.245-1.514,2.892-2,4.939c4.222,0,6.333-1.673,6.333-5.019c0-0.56-0.119-0.997-0.357-1.313
							C270.483,86.935,270.052,86.776,269.428,86.776z"/>
					</g>
				</g>
			</g>
		</g>
	</g>
</g>
</svg>
