<?xml version="1.0" encoding="utf-8"?>
<!-- Generator: Adobe Illustrator 16.0.0, SVG Export Plug-In . SVG Version: 6.00 Build 0)  -->
<!DOCTYPE svg PUBLIC "-//W3C//DTD SVG 1.1//EN" "http://www.w3.org/Graphics/SVG/1.1/DTD/svg11.dtd">
<svg version="1.1" id="Layer_1" xmlns="http://www.w3.org/2000/svg" xmlns:xlink="http://www.w3.org/1999/xlink" x="0px" y="0px"
	 width="511px" height="33px" viewBox="0 0 511 33" enable-background="new 0 0 511 33" xml:space="preserve">
<g>
	<g>
		<g>
			<g>
				<path fill="#9D3921" d="M1.395,0.563h4.458c1.098,0,1.962,0.301,2.511,0.848c0.438,0.438,0.658,0.971,0.658,1.627v0.027
					c0,1.08-0.576,1.682-1.262,2.064C8.871,5.553,9.557,6.195,9.557,7.48v0.027c0,1.75-1.427,2.625-3.594,2.625H1.395V0.563z
					 M6.923,3.393c0-0.629-0.494-0.984-1.386-0.984H3.452v2.023H5.4c0.933,0,1.523-0.301,1.523-1.012V3.393z M5.894,6.182H3.452
					v2.105h2.51c0.933,0,1.495-0.328,1.495-1.039V7.221C7.458,6.578,6.978,6.182,5.894,6.182z"/>
				<path fill="#9D3921" d="M11.391,6.031V0.563h2.112v5.414c0,1.559,0.782,2.365,2.071,2.365c1.29,0,2.072-0.779,2.072-2.297V0.563
					h2.112v5.4c0,2.898-1.632,4.32-4.211,4.32C12.968,10.283,11.391,8.848,11.391,6.031z"/>
				<path fill="#9D3921" d="M24.432,2.504H21.51V0.563h7.957v1.941h-2.922v7.629h-2.113V2.504z"/>
				<path fill="#9D3921" d="M37.006,0.563h2.112v9.57h-2.112V0.563z"/>
				<path fill="#9D3921" d="M44.219,2.504h-2.922V0.563h7.957v1.941h-2.922v7.629h-2.113V2.504z"/>
			</g>
		</g>
		<g>
			<g>
				<g>
					<path fill="#9D3921" d="M0.969,21.586v-0.027c0-2.721,2.058-4.949,5.007-4.949c1.811,0,2.895,0.602,3.786,1.477l-1.344,1.545
						c-0.741-0.67-1.495-1.08-2.456-1.08c-1.619,0-2.785,1.34-2.785,2.98v0.027c0,1.641,1.139,3.008,2.785,3.008
						c1.098,0,1.77-0.438,2.524-1.121l1.345,1.354c-0.988,1.053-2.085,1.709-3.937,1.709C3.068,26.508,0.969,24.334,0.969,21.586z"
						/>
					<path fill="#9D3921" d="M15.341,16.705h1.948l4.115,9.639h-2.208l-0.878-2.146h-4.061l-0.878,2.146h-2.154L15.341,16.705z
						 M17.564,22.338l-1.276-3.104l-1.276,3.104H17.564z"/>
					<path fill="#9D3921" d="M23.211,16.773h1.948l4.5,5.893v-5.893h2.085v9.57h-1.797l-4.65-6.084v6.084h-2.085V16.773z"/>
					<path fill="#9D3921" d="M34.373,16.773h1.948l4.5,5.893v-5.893h2.085v9.57h-1.797l-4.65-6.084v6.084h-2.085V16.773z"/>
					<path fill="#9D3921" d="M45.11,21.586v-0.027c0-2.721,2.154-4.949,5.117-4.949s5.089,2.201,5.089,4.922v0.027
						c0,2.721-2.154,4.949-5.117,4.949S45.11,24.307,45.11,21.586z M53.107,21.586v-0.027c0-1.641-1.208-3.008-2.908-3.008
						c-1.701,0-2.881,1.34-2.881,2.98v0.027c0,1.641,1.207,3.008,2.908,3.008S53.107,23.227,53.107,21.586z"/>
					<path fill="#9D3921" d="M59.44,18.715h-2.922v-1.941h7.957v1.941h-2.922v7.629H59.44V18.715z"/>
					<path fill="#9D3921" d="M64.527,24.211h2.167v2.133h-2.167V24.211z M68.354,24.211h2.167v2.133h-2.167V24.211z M72.181,24.211
						h2.167v2.133h-2.167V24.211z"/>
				</g>
			</g>
			<g>
				<g>
					<g>
						<path fill="#EA5324" d="M129.029,4.154l-7.605,11.089l7.93,11.608h-5.85l-5.103-7.782l-5.135,7.782h-5.688l7.931-11.543
							l-7.605-11.154h5.85l4.745,7.36l4.843-7.36H129.029z"/>
					</g>
				</g>
				<g>
					<g>
						<g>
							<path fill="#FFFFFF" d="M143.605,8.642c0,3.317-1.038,4.975-3.114,4.975h-1.741V3.854h1.781c1.008,0,1.773,0.406,2.293,1.219
								S143.605,7.075,143.605,8.642z M142.916,8.682c0-1.376-0.203-2.424-0.609-3.146c-0.406-0.722-1.006-1.082-1.801-1.082h-1.098
								v8.562h1.044c0.848,0,1.471-0.37,1.868-1.108C142.717,11.168,142.916,10.093,142.916,8.682z"/>
							<path fill="#FFFFFF" d="M145.164,4.361c0-0.2,0.042-0.356,0.124-0.467s0.188-0.167,0.318-0.167
								c0.121,0,0.217,0.056,0.288,0.167s0.107,0.267,0.107,0.467c0,0.192-0.036,0.344-0.107,0.458
								c-0.071,0.114-0.167,0.17-0.288,0.17c-0.129,0-0.235-0.057-0.318-0.17C145.206,4.705,145.164,4.553,145.164,4.361z
								 M145.894,13.617h-0.636V6.371h0.636V13.617z"/>
							<path fill="#FFFFFF" d="M150.661,11.801c0,0.61-0.161,1.087-0.482,1.433c-0.322,0.345-0.786,0.518-1.393,0.518
								c-0.33,0-0.62-0.042-0.87-0.127s-0.444-0.178-0.583-0.281v-0.741c0.165,0.165,0.384,0.297,0.656,0.397
								c0.272,0.1,0.551,0.15,0.837,0.15c0.375,0,0.669-0.123,0.884-0.368c0.214-0.245,0.321-0.572,0.321-0.981
								c0-0.321-0.077-0.591-0.231-0.812c-0.154-0.22-0.448-0.471-0.88-0.751c-0.496-0.312-0.834-0.561-1.015-0.748
								c-0.181-0.187-0.321-0.396-0.422-0.628c-0.1-0.231-0.15-0.508-0.15-0.828c0-0.521,0.176-0.952,0.529-1.292
								c0.353-0.34,0.801-0.511,1.346-0.511c0.585,0,1.074,0.138,1.466,0.414l-0.328,0.554c-0.366-0.245-0.754-0.367-1.165-0.367
								c-0.375,0-0.674,0.11-0.897,0.331s-0.335,0.511-0.335,0.872c0,0.32,0.076,0.589,0.228,0.805
								c0.151,0.216,0.473,0.478,0.964,0.785c0.482,0.316,0.813,0.569,0.991,0.758c0.178,0.189,0.311,0.399,0.398,0.628
								C150.617,11.239,150.661,11.502,150.661,11.801z"/>
							<path fill="#FFFFFF" d="M154.389,6.231c0.228,0,0.439,0.031,0.636,0.094l-0.154,0.634c-0.161-0.067-0.326-0.1-0.496-0.1
								c-0.245,0-0.474,0.125-0.686,0.377c-0.212,0.252-0.378,0.603-0.499,1.052s-0.181,0.946-0.181,1.489v3.84h-0.636V6.371h0.522
								l0.067,1.269h0.047C153.349,6.701,153.809,6.231,154.389,6.231z"/>
							<path fill="#FFFFFF" d="M156.547,6.371V11.1c0,0.717,0.086,1.24,0.258,1.569s0.437,0.494,0.793,0.494
								c0.549,0,0.952-0.222,1.208-0.665s0.385-1.159,0.385-2.147v-3.98h0.629v7.246h-0.536l-0.081-1.015h-0.054
								c-0.156,0.37-0.373,0.653-0.649,0.852s-0.578,0.297-0.904,0.297c-0.585,0-1.012-0.207-1.282-0.621s-0.405-1.091-0.405-2.03
								V6.371H156.547z"/>
							<path fill="#FFFFFF" d="M163.867,13.751c-0.366,0-0.7-0.102-1.001-0.304s-0.53-0.479-0.687-0.832h-0.06l0.047,0.795v3.493
								h-0.636V6.371h0.522l0.067,0.995h0.06c0.179-0.365,0.408-0.646,0.687-0.841s0.583-0.294,0.914-0.294
								c1.419,0,2.129,1.249,2.129,3.747c0,1.207-0.174,2.137-0.522,2.792S164.532,13.751,163.867,13.751z M163.74,6.832
								c-0.531,0-0.926,0.234-1.185,0.701c-0.259,0.468-0.388,1.2-0.388,2.197v0.207c0,1.113,0.132,1.931,0.395,2.454
								c0.263,0.523,0.665,0.785,1.205,0.785c0.5,0,0.872-0.259,1.115-0.778c0.244-0.519,0.365-1.326,0.365-2.421
								c0-1.046-0.114-1.832-0.342-2.357C164.677,7.095,164.289,6.832,163.74,6.832z"/>
							<path fill="#FFFFFF" d="M168.952,13.163c0.196,0,0.371-0.027,0.522-0.08v0.534c-0.197,0.089-0.449,0.134-0.757,0.134
								c-0.75,0-1.125-0.559-1.125-1.676V6.932h-0.656V6.558l0.643-0.187l0.208-1.723h0.442v1.723h1.152v0.561h-1.152v4.962
								c0,0.49,0.054,0.824,0.161,1.002C168.497,13.074,168.684,13.163,168.952,13.163z"/>
							<path fill="#FFFFFF" d="M174.711,6.231c0.228,0,0.439,0.031,0.636,0.094l-0.154,0.634c-0.161-0.067-0.326-0.1-0.496-0.1
								c-0.245,0-0.474,0.125-0.686,0.377c-0.212,0.252-0.378,0.603-0.499,1.052s-0.181,0.946-0.181,1.489v3.84h-0.636V6.371h0.522
								l0.067,1.269h0.047C173.671,6.701,174.131,6.231,174.711,6.231z"/>
							<path fill="#FFFFFF" d="M177.815,13.751c-0.768,0-1.358-0.326-1.771-0.979c-0.413-0.652-0.62-1.562-0.62-2.728
								c0-1.238,0.185-2.183,0.553-2.835s0.898-0.979,1.59-0.979c0.603,0,1.078,0.286,1.426,0.858
								c0.348,0.572,0.522,1.343,0.522,2.314v0.587h-3.441c0.009,1.055,0.158,1.846,0.448,2.371s0.73,0.788,1.319,0.788
								c0.455,0,0.935-0.149,1.439-0.448v0.615C178.817,13.606,178.329,13.751,177.815,13.751z M177.527,6.805
								c-0.875,0-1.354,0.871-1.439,2.611h2.792c0-0.797-0.122-1.431-0.365-1.903C178.271,7.042,177.942,6.805,177.527,6.805z"/>
							<path fill="#FFFFFF" d="M185.139,6.371v0.448l-0.991,0.113c0.134,0.174,0.243,0.422,0.328,0.745
								c0.084,0.323,0.127,0.653,0.127,0.992c0,0.704-0.16,1.273-0.479,1.71c-0.319,0.436-0.74,0.654-1.262,0.654h-0.161
								l-0.141-0.013c-0.214,0.151-0.383,0.303-0.506,0.454c-0.123,0.151-0.184,0.327-0.184,0.527c0,0.205,0.081,0.364,0.241,0.478
								c0.161,0.114,0.377,0.17,0.649,0.17h0.456c0.647,0,1.149,0.167,1.506,0.501c0.357,0.333,0.536,0.817,0.536,1.449
								c0,0.708-0.24,1.269-0.72,1.683c-0.48,0.414-1.113,0.621-1.898,0.621c-0.656,0-1.161-0.166-1.513-0.498
								s-0.529-0.809-0.529-1.433c0-0.454,0.116-0.842,0.348-1.165s0.596-0.578,1.091-0.765c-0.223-0.098-0.403-0.234-0.539-0.408
								c-0.136-0.173-0.204-0.38-0.204-0.621c0-0.218,0.073-0.413,0.218-0.584s0.352-0.355,0.619-0.551
								c-0.371-0.169-0.65-0.443-0.84-0.821c-0.189-0.378-0.285-0.824-0.285-1.335c0-0.771,0.163-1.378,0.489-1.823
								c0.326-0.445,0.772-0.668,1.339-0.668c0.304,0,0.558,0.047,0.763,0.14H185.139z M181.229,14.919
								c0,0.458,0.119,0.817,0.358,1.075c0.238,0.258,0.599,0.387,1.081,0.387c0.598,0,1.072-0.156,1.423-0.467
								s0.526-0.739,0.526-1.282c0-0.437-0.12-0.773-0.358-1.012s-0.586-0.357-1.041-0.357h-0.469c-0.438,0-0.8,0.153-1.088,0.458
								C181.373,14.025,181.229,14.425,181.229,14.919z M181.624,8.735c0,0.592,0.109,1.041,0.328,1.346s0.509,0.458,0.871,0.458
								c0.776,0,1.165-0.624,1.165-1.87c0-0.601-0.1-1.071-0.298-1.409c-0.199-0.338-0.488-0.507-0.867-0.507
								c-0.389,0-0.686,0.173-0.891,0.521C181.726,7.62,181.624,8.107,181.624,8.735z"/>
							<path fill="#FFFFFF" d="M187.016,6.371V11.1c0,0.717,0.086,1.24,0.258,1.569s0.437,0.494,0.793,0.494
								c0.549,0,0.952-0.222,1.208-0.665s0.385-1.159,0.385-2.147v-3.98h0.629v7.246h-0.536l-0.081-1.015h-0.054
								c-0.156,0.37-0.373,0.653-0.649,0.852s-0.578,0.297-0.904,0.297c-0.585,0-1.012-0.207-1.282-0.621s-0.405-1.091-0.405-2.03
								V6.371H187.016z"/>
							<path fill="#FFFFFF" d="M192.635,13.617h-0.636V3.226h0.636V13.617z"/>
							<path fill="#FFFFFF" d="M197.361,13.617l-0.081-1.015h-0.027c-0.348,0.766-0.875,1.149-1.58,1.149
								c-0.473,0-0.854-0.188-1.142-0.564c-0.288-0.376-0.432-0.88-0.432-1.513c0-0.69,0.208-1.236,0.623-1.64
								c0.415-0.403,0.998-0.622,1.748-0.658l0.783-0.04V8.735c0-0.677-0.085-1.17-0.254-1.479c-0.169-0.31-0.451-0.464-0.844-0.464
								c-0.415,0-0.839,0.136-1.272,0.407l-0.274-0.501c0.504-0.312,1.033-0.467,1.587-0.467c0.598,0,1.029,0.188,1.292,0.564
								c0.263,0.376,0.395,1.005,0.395,1.887v4.935H197.361z M195.814,13.21c0.455,0,0.809-0.224,1.061-0.671
								c0.252-0.447,0.378-1.081,0.378-1.9V9.884l-0.756,0.041c-0.585,0.031-1.019,0.192-1.302,0.484
								c-0.284,0.292-0.425,0.718-0.425,1.279c0,0.525,0.094,0.911,0.281,1.155C195.239,13.087,195.493,13.21,195.814,13.21z"/>
							<path fill="#FFFFFF" d="M201.649,6.231c0.228,0,0.439,0.031,0.636,0.094l-0.154,0.634c-0.161-0.067-0.326-0.1-0.496-0.1
								c-0.245,0-0.474,0.125-0.686,0.377c-0.212,0.252-0.378,0.603-0.499,1.052s-0.181,0.946-0.181,1.489v3.84h-0.636V6.371h0.522
								l0.067,1.269h0.047C200.609,6.701,201.069,6.231,201.649,6.231z"/>
						</g>
					</g>
					<g>
						<g>
							<g>
								<path fill="#FFFFFF" d="M140.987,29.962c-0.366,0-0.7-0.102-1.001-0.304c-0.301-0.203-0.53-0.48-0.687-0.832h-0.06
									l0.047,0.795v3.493h-0.636V22.582h0.522l0.067,0.995h0.06c0.179-0.365,0.408-0.646,0.687-0.842
									c0.279-0.195,0.583-0.293,0.914-0.293c1.419,0,2.129,1.248,2.129,3.746c0,1.207-0.174,2.137-0.522,2.792
									C142.159,29.635,141.652,29.962,140.987,29.962z M140.86,23.043c-0.531,0-0.926,0.233-1.185,0.701s-0.388,1.2-0.388,2.197
									v0.207c0,1.113,0.132,1.931,0.395,2.454s0.665,0.785,1.205,0.785c0.5,0,0.872-0.26,1.115-0.778
									c0.244-0.519,0.365-1.325,0.365-2.421c0-1.046-0.114-1.832-0.342-2.357C141.797,23.306,141.409,23.043,140.86,23.043z"/>
								<path fill="#FFFFFF" d="M146.755,22.442c0.228,0,0.439,0.03,0.636,0.093l-0.154,0.635c-0.161-0.066-0.326-0.101-0.496-0.101
									c-0.245,0-0.474,0.126-0.686,0.378c-0.212,0.251-0.378,0.602-0.499,1.052c-0.121,0.449-0.181,0.946-0.181,1.489v3.84h-0.636
									v-7.246h0.522l0.067,1.269h0.047C145.715,22.912,146.174,22.442,146.755,22.442z"/>
								<path fill="#FFFFFF" d="M151.888,26.188c0,1.22-0.193,2.153-0.579,2.802c-0.386,0.647-0.939,0.972-1.657,0.972
									c-0.71,0-1.253-0.324-1.63-0.972c-0.377-0.648-0.566-1.582-0.566-2.802c0-2.498,0.741-3.746,2.223-3.746
									c0.696,0,1.238,0.327,1.627,0.981C151.693,24.078,151.888,25,151.888,26.188z M148.118,26.188
									c0,1.046,0.125,1.837,0.375,2.371s0.641,0.801,1.172,0.801c1.04,0,1.56-1.057,1.56-3.172c0-2.097-0.52-3.146-1.56-3.146
									c-0.544,0-0.938,0.263-1.182,0.788S148.118,25.143,148.118,26.188z"/>
								<path fill="#FFFFFF" d="M152.843,33.114c-0.188,0-0.337-0.038-0.449-0.114v-0.601c0.143,0.071,0.284,0.106,0.422,0.106
									c0.21,0,0.358-0.101,0.445-0.304c0.087-0.202,0.13-0.516,0.13-0.938v-8.682h0.636v8.589c0,0.663-0.096,1.152-0.288,1.469
									S153.249,33.114,152.843,33.114z M153.298,20.572c0-0.201,0.042-0.356,0.124-0.468s0.188-0.167,0.318-0.167
									c0.121,0,0.217,0.056,0.288,0.167s0.107,0.267,0.107,0.468c0,0.191-0.036,0.344-0.107,0.457S153.86,21.2,153.74,21.2
									c-0.129,0-0.235-0.058-0.318-0.171S153.298,20.764,153.298,20.572z"/>
								<path fill="#FFFFFF" d="M158.004,29.962c-0.768,0-1.358-0.326-1.771-0.979c-0.413-0.652-0.62-1.562-0.62-2.729
									c0-1.237,0.185-2.183,0.553-2.835c0.368-0.651,0.898-0.978,1.59-0.978c0.603,0,1.078,0.286,1.426,0.857
									c0.348,0.572,0.522,1.344,0.522,2.314v0.588h-3.441c0.009,1.055,0.158,1.845,0.448,2.37s0.73,0.788,1.319,0.788
									c0.455,0,0.935-0.148,1.439-0.447v0.614C159.006,29.817,158.518,29.962,158.004,29.962z M157.716,23.017
									c-0.875,0-1.354,0.87-1.439,2.611h2.792c0-0.798-0.122-1.432-0.365-1.903C158.46,23.252,158.131,23.017,157.716,23.017z"/>
								<path fill="#FFFFFF" d="M163.393,29.962c-0.728,0-1.275-0.315-1.644-0.945s-0.553-1.555-0.553-2.774
									c0-1.238,0.187-2.181,0.559-2.828c0.373-0.648,0.923-0.972,1.651-0.972c0.451,0,0.826,0.082,1.125,0.247l-0.248,0.561
									c-0.299-0.138-0.574-0.207-0.824-0.207c-1.067,0-1.6,1.062-1.6,3.186c0,2.106,0.533,3.159,1.6,3.159
									c0.317,0,0.661-0.071,1.031-0.214v0.534c-0.147,0.08-0.328,0.143-0.542,0.187C163.734,29.939,163.549,29.962,163.393,29.962
									z"/>
								<path fill="#FFFFFF" d="M166.93,29.374c0.196,0,0.371-0.026,0.522-0.08v0.534c-0.197,0.089-0.449,0.134-0.757,0.134
									c-0.75,0-1.125-0.559-1.125-1.677v-5.142h-0.656V22.77l0.643-0.188l0.208-1.723h0.442v1.723h1.152v0.562h-1.152v4.962
									c0,0.489,0.054,0.823,0.161,1.001C166.475,29.285,166.663,29.374,166.93,29.374z"/>
								<path fill="#FFFFFF" d="M175.22,29.828l-1.004-4.908c-0.009-0.036-0.017-0.074-0.023-0.114s-0.077-0.467-0.211-1.282h-0.013
									l-0.094,0.568l-0.154,0.828l-1.038,4.908h-0.757l-1.58-7.246h0.636l0.904,4.221l0.422,2.204h0.04
									c0.081-0.637,0.21-1.376,0.389-2.218l0.904-4.207h0.669l0.911,4.221c0.071,0.316,0.199,1.051,0.382,2.204h0.04
									c0.013-0.147,0.079-0.517,0.197-1.108c0.119-0.593,0.497-2.364,1.135-5.316h0.629l-1.634,7.246H175.22z"/>
								<path fill="#FFFFFF" d="M182.881,26.188c0,1.22-0.193,2.153-0.579,2.802c-0.386,0.647-0.939,0.972-1.657,0.972
									c-0.71,0-1.253-0.324-1.63-0.972c-0.377-0.648-0.566-1.582-0.566-2.802c0-2.498,0.741-3.746,2.223-3.746
									c0.696,0,1.238,0.327,1.627,0.981C182.687,24.078,182.881,25,182.881,26.188z M179.112,26.188
									c0,1.046,0.125,1.837,0.375,2.371s0.641,0.801,1.172,0.801c1.04,0,1.56-1.057,1.56-3.172c0-2.097-0.52-3.146-1.56-3.146
									c-0.544,0-0.938,0.263-1.182,0.788S179.112,25.143,179.112,26.188z"/>
								<path fill="#FFFFFF" d="M186.401,22.442c0.228,0,0.439,0.03,0.636,0.093l-0.154,0.635c-0.161-0.066-0.326-0.101-0.496-0.101
									c-0.245,0-0.474,0.126-0.686,0.378c-0.212,0.251-0.378,0.602-0.499,1.052c-0.121,0.449-0.181,0.946-0.181,1.489v3.84h-0.636
									v-7.246h0.522l0.067,1.269h0.047C185.361,22.912,185.82,22.442,186.401,22.442z"/>
								<path fill="#FFFFFF" d="M188.599,26.242l0.409-0.735l1.794-2.925h0.689l-1.674,2.665l1.821,4.581h-0.669l-1.58-3.993
									l-0.804,1.055v2.938h-0.636V19.437h0.636v5.59l-0.047,1.216H188.599z"/>
								<path fill="#FFFFFF" d="M194.387,23.144h-1.138v6.685h-0.629v-6.685h-0.924v-0.361l0.924-0.273v-0.548
									c0-0.922,0.109-1.585,0.328-1.99c0.218-0.404,0.598-0.607,1.138-0.607c0.312,0,0.596,0.056,0.85,0.167l-0.221,0.587
									c-0.237-0.11-0.451-0.166-0.643-0.166c-0.219,0-0.384,0.064-0.496,0.193c-0.111,0.129-0.194,0.338-0.248,0.628
									c-0.054,0.289-0.08,0.69-0.08,1.202v0.607h1.138V23.144z M196.202,29.828h-0.636V19.437h0.636V29.828z"/>
								<path fill="#FFFFFF" d="M202.207,26.188c0,1.22-0.193,2.153-0.579,2.802c-0.386,0.647-0.939,0.972-1.657,0.972
									c-0.71,0-1.253-0.324-1.63-0.972c-0.377-0.648-0.566-1.582-0.566-2.802c0-2.498,0.741-3.746,2.223-3.746
									c0.696,0,1.238,0.327,1.627,0.981C202.013,24.078,202.207,25,202.207,26.188z M198.438,26.188
									c0,1.046,0.125,1.837,0.375,2.371s0.641,0.801,1.172,0.801c1.04,0,1.56-1.057,1.56-3.172c0-2.097-0.52-3.146-1.56-3.146
									c-0.544,0-0.938,0.263-1.182,0.788S198.438,25.143,198.438,26.188z"/>
								<path fill="#FFFFFF" d="M207.241,29.828l-1.004-4.908c-0.009-0.036-0.017-0.074-0.023-0.114s-0.077-0.467-0.211-1.282
									h-0.013l-0.094,0.568l-0.154,0.828l-1.038,4.908h-0.757l-1.58-7.246h0.636l0.904,4.221l0.422,2.204h0.04
									c0.081-0.637,0.21-1.376,0.389-2.218l0.904-4.207h0.669l0.911,4.221c0.071,0.316,0.199,1.051,0.382,2.204h0.04
									c0.013-0.147,0.079-0.517,0.197-1.108c0.119-0.593,0.497-2.364,1.135-5.316h0.629l-1.634,7.246H207.241z"/>
							</g>
						</g>
						<g>
							<g>
								<g>
									<path fill="#EA5324" d="M272.427,4.154l-7.604,11.089l7.93,11.608h-5.85l-5.104-7.782l-5.135,7.782h-5.688l7.93-11.543
										l-7.605-11.154h5.85l4.745,7.36l4.843-7.36H272.427z"/>
								</g>
							</g>
							<g>
								<g>
									<g>
										<path fill="#FFFFFF" d="M282.149,13.617V3.854h0.656v9.764H282.149z"/>
										<path fill="#FFFFFF" d="M288.376,13.617V8.622c0-1.202-0.357-1.803-1.071-1.803c-0.545,0-0.943,0.225-1.195,0.674
											s-0.378,1.165-0.378,2.144v3.98h-0.637V6.371h0.536l0.054,1.009h0.06c0.152-0.365,0.371-0.648,0.656-0.848
											c0.286-0.201,0.592-0.301,0.917-0.301c0.563,0,0.984,0.188,1.266,0.564c0.281,0.376,0.422,0.98,0.422,1.813v5.009H288.376
											z"/>
										<path fill="#FFFFFF" d="M292.02,13.163c0.196,0,0.37-0.027,0.521-0.08v0.534c-0.196,0.089-0.448,0.134-0.756,0.134
											c-0.75,0-1.125-0.559-1.125-1.676V6.932h-0.656V6.558l0.643-0.187l0.208-1.723h0.441v1.723h1.151v0.561h-1.151v4.962
											c0,0.49,0.054,0.824,0.161,1.002C291.563,13.074,291.751,13.163,292.02,13.163z"/>
										<path fill="#FFFFFF" d="M295.782,13.751c-0.768,0-1.358-0.326-1.771-0.979c-0.412-0.652-0.619-1.562-0.619-2.728
											c0-1.238,0.185-2.183,0.553-2.835s0.898-0.979,1.59-0.979c0.603,0,1.078,0.286,1.427,0.858
											c0.348,0.572,0.521,1.343,0.521,2.314v0.587h-3.441c0.009,1.055,0.158,1.846,0.449,2.371
											c0.29,0.525,0.729,0.788,1.318,0.788c0.456,0,0.936-0.149,1.439-0.448v0.615
											C296.784,13.606,296.295,13.751,295.782,13.751z M295.494,6.805c-0.875,0-1.354,0.871-1.439,2.611h2.792
											c0-0.797-0.122-1.431-0.365-1.903C296.238,7.042,295.909,6.805,295.494,6.805z"/>
										<path fill="#FFFFFF" d="M301.318,6.231c0.228,0,0.439,0.031,0.636,0.094l-0.153,0.634c-0.161-0.067-0.326-0.1-0.496-0.1
											c-0.245,0-0.475,0.125-0.687,0.377c-0.212,0.252-0.378,0.603-0.498,1.052c-0.121,0.45-0.181,0.946-0.181,1.489v3.84
											h-0.637V6.371h0.522l0.067,1.269h0.047C300.278,6.701,300.738,6.231,301.318,6.231z"/>
										<path fill="#FFFFFF" d="M304.722,6.932h-1.138v6.685h-0.63V6.932h-0.924v-0.36l0.924-0.274V5.75
											c0-0.921,0.109-1.585,0.328-1.99c0.219-0.405,0.599-0.608,1.139-0.608c0.313,0,0.596,0.056,0.851,0.167l-0.222,0.587
											c-0.236-0.111-0.45-0.167-0.643-0.167c-0.219,0-0.384,0.065-0.495,0.194c-0.112,0.129-0.194,0.338-0.248,0.628
											s-0.08,0.69-0.08,1.202v0.607h1.138V6.932z"/>
										<path fill="#FFFFFF" d="M307.977,13.751c-0.768,0-1.358-0.326-1.771-0.979c-0.412-0.652-0.619-1.562-0.619-2.728
											c0-1.238,0.185-2.183,0.553-2.835s0.898-0.979,1.59-0.979c0.603,0,1.078,0.286,1.427,0.858
											c0.348,0.572,0.521,1.343,0.521,2.314v0.587h-3.441c0.009,1.055,0.158,1.846,0.449,2.371
											c0.29,0.525,0.729,0.788,1.318,0.788c0.456,0,0.936-0.149,1.439-0.448v0.615
											C308.979,13.606,308.489,13.751,307.977,13.751z M307.688,6.805c-0.875,0-1.354,0.871-1.439,2.611h2.792
											c0-0.797-0.122-1.431-0.365-1.903C308.433,7.042,308.104,6.805,307.688,6.805z"/>
										<path fill="#FFFFFF" d="M313.512,6.231c0.228,0,0.439,0.031,0.636,0.094l-0.153,0.634c-0.161-0.067-0.326-0.1-0.496-0.1
											c-0.245,0-0.475,0.125-0.687,0.377c-0.212,0.252-0.378,0.603-0.498,1.052c-0.121,0.45-0.181,0.946-0.181,1.489v3.84
											h-0.637V6.371h0.522l0.067,1.269h0.047C312.472,6.701,312.932,6.231,313.512,6.231z"/>
										<path fill="#FFFFFF" d="M316.616,13.751c-0.768,0-1.358-0.326-1.771-0.979c-0.412-0.652-0.619-1.562-0.619-2.728
											c0-1.238,0.185-2.183,0.553-2.835s0.898-0.979,1.59-0.979c0.603,0,1.078,0.286,1.427,0.858
											c0.348,0.572,0.521,1.343,0.521,2.314v0.587h-3.441c0.009,1.055,0.158,1.846,0.449,2.371
											c0.29,0.525,0.729,0.788,1.318,0.788c0.456,0,0.936-0.149,1.439-0.448v0.615
											C317.618,13.606,317.129,13.751,316.616,13.751z M316.328,6.805c-0.875,0-1.354,0.871-1.439,2.611h2.792
											c0-0.797-0.122-1.431-0.365-1.903C317.072,7.042,316.743,6.805,316.328,6.805z"/>
										<path fill="#FFFFFF" d="M326.217,13.617l-1.005-4.909c-0.009-0.036-0.017-0.073-0.023-0.113s-0.077-0.468-0.211-1.282
											h-0.014L324.87,7.88l-0.153,0.828l-1.038,4.909h-0.757l-1.58-7.246h0.636l0.904,4.221l0.422,2.204h0.04
											c0.08-0.637,0.21-1.376,0.389-2.217l0.903-4.208h0.67l0.911,4.221c0.071,0.316,0.198,1.051,0.381,2.204h0.04
											c0.014-0.147,0.08-0.517,0.198-1.109c0.118-0.592,0.496-2.364,1.135-5.316h0.629l-1.634,7.246H326.217z"/>
										<path fill="#FFFFFF" d="M329.693,4.361c0-0.2,0.041-0.356,0.124-0.467s0.188-0.167,0.318-0.167
											c0.12,0,0.216,0.056,0.288,0.167c0.071,0.111,0.106,0.267,0.106,0.467c0,0.192-0.035,0.344-0.106,0.458
											c-0.072,0.114-0.168,0.17-0.288,0.17c-0.13,0-0.235-0.057-0.318-0.17C329.734,4.705,329.693,4.553,329.693,4.361z
											 M330.424,13.617h-0.637V6.371h0.637V13.617z"/>
										<path fill="#FFFFFF" d="M333.67,13.163c0.196,0,0.37-0.027,0.521-0.08v0.534c-0.196,0.089-0.448,0.134-0.756,0.134
											c-0.75,0-1.125-0.559-1.125-1.676V6.932h-0.656V6.558l0.643-0.187l0.208-1.723h0.441v1.723h1.151v0.561h-1.151v4.962
											c0,0.49,0.054,0.824,0.161,1.002C333.214,13.074,333.401,13.163,333.67,13.163z"/>
										<path fill="#FFFFFF" d="M338.652,13.617V8.622c0-0.654-0.086-1.118-0.258-1.392s-0.452-0.411-0.841-0.411
											c-0.513,0-0.899,0.227-1.158,0.681s-0.388,1.171-0.388,2.15v3.967h-0.637V3.226h0.637v3.373
											c0,0.307-0.01,0.563-0.027,0.768h0.054c0.143-0.36,0.358-0.64,0.646-0.838c0.287-0.198,0.588-0.297,0.9-0.297
											c0.616,0,1.053,0.2,1.313,0.601c0.259,0.401,0.388,0.998,0.388,1.79v4.996H338.652z"/>
									</g>
								</g>
								<g>
									<g>
										<g>
											<path fill="#FFFFFF" d="M283.917,29.962c-0.728,0-1.275-0.315-1.644-0.945s-0.553-1.555-0.553-2.774
												c0-1.238,0.187-2.181,0.56-2.828c0.372-0.648,0.923-0.972,1.65-0.972c0.45,0,0.825,0.082,1.125,0.247l-0.248,0.561
												c-0.299-0.138-0.573-0.207-0.823-0.207c-1.067,0-1.601,1.062-1.601,3.186c0,2.106,0.533,3.159,1.601,3.159
												c0.316,0,0.66-0.071,1.031-0.214v0.534c-0.147,0.08-0.328,0.143-0.543,0.187
												C284.259,29.939,284.073,29.962,283.917,29.962z"/>
											<path fill="#FFFFFF" d="M286.759,29.828h-0.637V19.437h0.637V29.828z"/>
											<path fill="#FFFFFF" d="M288.579,20.572c0-0.201,0.041-0.356,0.124-0.468s0.188-0.167,0.318-0.167
												c0.12,0,0.216,0.056,0.288,0.167c0.071,0.111,0.106,0.267,0.106,0.468c0,0.191-0.035,0.344-0.106,0.457
												c-0.072,0.113-0.168,0.171-0.288,0.171c-0.13,0-0.235-0.058-0.318-0.171S288.579,20.764,288.579,20.572z M289.31,29.828
												h-0.637v-7.246h0.637V29.828z"/>
											<path fill="#FFFFFF" d="M293.285,29.962c-0.768,0-1.358-0.326-1.771-0.979c-0.412-0.652-0.619-1.562-0.619-2.729
												c0-1.237,0.185-2.183,0.553-2.835c0.368-0.651,0.898-0.978,1.59-0.978c0.603,0,1.078,0.286,1.427,0.857
												c0.348,0.572,0.521,1.344,0.521,2.314v0.588h-3.441c0.009,1.055,0.158,1.845,0.449,2.37
												c0.29,0.525,0.729,0.788,1.318,0.788c0.456,0,0.936-0.148,1.439-0.447v0.614
												C294.287,29.817,293.798,29.962,293.285,29.962z M292.997,23.017c-0.875,0-1.354,0.87-1.439,2.611h2.792
												c0-0.798-0.122-1.432-0.365-1.903C293.741,23.252,293.412,23.017,292.997,23.017z"/>
											<path fill="#FFFFFF" d="M300.087,29.828v-4.995c0-1.202-0.357-1.804-1.071-1.804c-0.545,0-0.943,0.226-1.195,0.675
												c-0.252,0.45-0.378,1.164-0.378,2.144v3.98h-0.637v-7.246h0.536l0.054,1.009h0.06c0.152-0.365,0.371-0.648,0.656-0.849
												c0.286-0.2,0.592-0.3,0.917-0.3c0.563,0,0.984,0.188,1.266,0.563c0.281,0.377,0.422,0.981,0.422,1.813v5.009H300.087z"/>
											<path fill="#FFFFFF" d="M303.73,29.374c0.196,0,0.37-0.026,0.521-0.08v0.534c-0.196,0.089-0.448,0.134-0.756,0.134
												c-0.75,0-1.125-0.559-1.125-1.677v-5.142h-0.656V22.77l0.643-0.188l0.208-1.723h0.441v1.723h1.151v0.562h-1.151v4.962
												c0,0.489,0.054,0.823,0.161,1.001C303.274,29.285,303.462,29.374,303.73,29.374z"/>
											<path fill="#FFFFFF" d="M310.318,29.962c-0.366,0-0.699-0.102-1.001-0.304c-0.302-0.203-0.53-0.48-0.687-0.832h-0.06
												l0.047,0.795v3.493h-0.637V22.582h0.522l0.067,0.995h0.06c0.179-0.365,0.407-0.646,0.687-0.842
												c0.279-0.195,0.584-0.293,0.914-0.293c1.419,0,2.129,1.248,2.129,3.746c0,1.207-0.174,2.137-0.522,2.792
												C311.49,29.635,310.983,29.962,310.318,29.962z M310.191,23.043c-0.531,0-0.927,0.233-1.186,0.701
												s-0.388,1.2-0.388,2.197v0.207c0,1.113,0.131,1.931,0.395,2.454s0.665,0.785,1.205,0.785c0.5,0,0.872-0.26,1.115-0.778
												s0.364-1.325,0.364-2.421c0-1.046-0.113-1.832-0.341-2.357S310.74,23.043,310.191,23.043z"/>
											<path fill="#FFFFFF" d="M316.086,22.442c0.228,0,0.439,0.03,0.636,0.093l-0.153,0.635
												c-0.161-0.066-0.326-0.101-0.496-0.101c-0.245,0-0.475,0.126-0.687,0.378c-0.212,0.251-0.378,0.602-0.498,1.052
												c-0.121,0.449-0.181,0.946-0.181,1.489v3.84h-0.637v-7.246h0.522l0.067,1.269h0.047
												C315.046,22.912,315.506,22.442,316.086,22.442z"/>
											<path fill="#FFFFFF" d="M317.541,20.572c0-0.201,0.041-0.356,0.124-0.468s0.188-0.167,0.318-0.167
												c0.12,0,0.216,0.056,0.288,0.167c0.071,0.111,0.106,0.267,0.106,0.468c0,0.191-0.035,0.344-0.106,0.457
												c-0.072,0.113-0.168,0.171-0.288,0.171c-0.13,0-0.235-0.058-0.318-0.171S317.541,20.764,317.541,20.572z M318.271,29.828
												h-0.637v-7.246h0.637V29.828z"/>
											<path fill="#FFFFFF" d="M324.276,26.188c0,1.22-0.192,2.153-0.579,2.802c-0.386,0.647-0.938,0.972-1.657,0.972
												c-0.709,0-1.253-0.324-1.63-0.972c-0.377-0.648-0.566-1.582-0.566-2.802c0-2.498,0.741-3.746,2.224-3.746
												c0.696,0,1.238,0.327,1.627,0.981S324.276,25,324.276,26.188z M320.507,26.188c0,1.046,0.125,1.837,0.375,2.371
												s0.641,0.801,1.172,0.801c1.04,0,1.561-1.057,1.561-3.172c0-2.097-0.521-3.146-1.561-3.146
												c-0.545,0-0.938,0.263-1.182,0.788S320.507,25.143,320.507,26.188z"/>
											<path fill="#FFFFFF" d="M327.796,22.442c0.228,0,0.439,0.03,0.636,0.093l-0.153,0.635
												c-0.161-0.066-0.326-0.101-0.496-0.101c-0.245,0-0.475,0.126-0.687,0.378c-0.212,0.251-0.378,0.602-0.498,1.052
												c-0.121,0.449-0.181,0.946-0.181,1.489v3.84h-0.637v-7.246h0.522l0.067,1.269h0.047
												C326.756,22.912,327.216,22.442,327.796,22.442z"/>
											<path fill="#FFFFFF" d="M329.251,20.572c0-0.201,0.041-0.356,0.124-0.468s0.188-0.167,0.318-0.167
												c0.12,0,0.216,0.056,0.288,0.167c0.071,0.111,0.106,0.267,0.106,0.468c0,0.191-0.035,0.344-0.106,0.457
												c-0.072,0.113-0.168,0.171-0.288,0.171c-0.13,0-0.235-0.058-0.318-0.171S329.251,20.764,329.251,20.572z M329.981,29.828
												h-0.637v-7.246h0.637V29.828z"/>
											<path fill="#FFFFFF" d="M333.229,29.374c0.196,0,0.37-0.026,0.521-0.08v0.534c-0.196,0.089-0.448,0.134-0.756,0.134
												c-0.75,0-1.125-0.559-1.125-1.677v-5.142h-0.656V22.77l0.643-0.188l0.208-1.723h0.441v1.723h1.151v0.562h-1.151v4.962
												c0,0.489,0.054,0.823,0.161,1.001C332.772,29.285,332.96,29.374,333.229,29.374z"/>
											<path fill="#FFFFFF" d="M334.836,20.572c0-0.201,0.041-0.356,0.124-0.468s0.188-0.167,0.318-0.167
												c0.12,0,0.216,0.056,0.288,0.167c0.071,0.111,0.106,0.267,0.106,0.468c0,0.191-0.035,0.344-0.106,0.457
												c-0.072,0.113-0.168,0.171-0.288,0.171c-0.13,0-0.235-0.058-0.318-0.171S334.836,20.764,334.836,20.572z M335.566,29.828
												h-0.637v-7.246h0.637V29.828z"/>
											<path fill="#FFFFFF" d="M339.542,29.962c-0.768,0-1.358-0.326-1.771-0.979c-0.412-0.652-0.619-1.562-0.619-2.729
												c0-1.237,0.185-2.183,0.553-2.835c0.368-0.651,0.898-0.978,1.59-0.978c0.603,0,1.078,0.286,1.427,0.857
												c0.348,0.572,0.521,1.344,0.521,2.314v0.588h-3.441c0.009,1.055,0.158,1.845,0.449,2.37
												c0.29,0.525,0.729,0.788,1.318,0.788c0.456,0,0.936-0.148,1.439-0.447v0.614
												C340.544,29.817,340.055,29.962,339.542,29.962z M339.254,23.017c-0.875,0-1.354,0.87-1.439,2.611h2.792
												c0-0.798-0.122-1.432-0.365-1.903C339.998,23.252,339.669,23.017,339.254,23.017z"/>
											<path fill="#FFFFFF" d="M345.914,28.012c0,0.61-0.161,1.088-0.482,1.433s-0.785,0.518-1.393,0.518
												c-0.33,0-0.62-0.043-0.87-0.127c-0.25-0.085-0.444-0.178-0.583-0.28v-0.741c0.165,0.164,0.384,0.297,0.656,0.396
												c0.272,0.101,0.552,0.15,0.837,0.15c0.375,0,0.67-0.122,0.884-0.367c0.215-0.244,0.321-0.572,0.321-0.981
												c0-0.32-0.076-0.591-0.23-0.812s-0.447-0.471-0.881-0.751c-0.495-0.312-0.833-0.562-1.014-0.748
												c-0.182-0.188-0.322-0.396-0.422-0.628c-0.101-0.231-0.151-0.508-0.151-0.828c0-0.521,0.177-0.952,0.529-1.292
												c0.353-0.341,0.801-0.511,1.346-0.511c0.585,0,1.073,0.138,1.467,0.414L345.6,23.41
												c-0.366-0.245-0.755-0.367-1.165-0.367c-0.375,0-0.675,0.11-0.897,0.331c-0.224,0.22-0.335,0.511-0.335,0.871
												c0,0.32,0.076,0.589,0.228,0.805c0.152,0.216,0.474,0.478,0.965,0.785c0.481,0.315,0.812,0.568,0.99,0.758
												s0.312,0.398,0.398,0.628C345.87,27.449,345.914,27.714,345.914,28.012z"/>
										</g>
									</g>
									<g>
										<g>
											<g>
												<path fill="#EA5324" d="M408.286,4.154l-7.604,11.089l7.93,11.608h-5.85l-5.104-7.782l-5.135,7.782h-5.688l7.93-11.543
													l-7.604-11.154h5.85l4.745,7.36l4.843-7.36H408.286z"/>
											</g>
										</g>
										<g>
											<g>
												<g>
													<path fill="#FFFFFF" d="M418.017,3.854h1.875c0.768,0,1.357,0.196,1.771,0.588c0.413,0.392,0.619,0.97,0.619,1.736
														c0,1.322-0.484,2.079-1.452,2.271v0.053c0.558,0.116,0.973,0.364,1.245,0.745c0.272,0.381,0.408,0.912,0.408,1.593
														c0,0.873-0.194,1.554-0.582,2.044c-0.389,0.49-0.934,0.734-1.634,0.734h-2.25V3.854z M418.673,8.201h1.231
														c0.612,0,1.048-0.168,1.31-0.504c0.261-0.336,0.392-0.847,0.392-1.533c0-0.552-0.144-0.975-0.432-1.269
														c-0.288-0.294-0.716-0.441-1.282-0.441h-1.219V8.201z M418.673,8.802v4.214h1.507c1.08,0,1.62-0.73,1.62-2.19
														c0-0.65-0.158-1.15-0.476-1.5c-0.317-0.349-0.761-0.524-1.332-0.524H418.673z"/>
													<path fill="#FFFFFF" d="M426.065,13.751c-0.768,0-1.358-0.326-1.771-0.979c-0.412-0.652-0.619-1.562-0.619-2.728
														c0-1.238,0.185-2.183,0.553-2.835s0.898-0.979,1.59-0.979c0.603,0,1.078,0.286,1.427,0.858
														c0.348,0.572,0.521,1.343,0.521,2.314v0.587h-3.441c0.009,1.055,0.158,1.846,0.449,2.371
														c0.29,0.525,0.729,0.788,1.318,0.788c0.456,0,0.936-0.149,1.439-0.448v0.615
														C427.067,13.606,426.578,13.751,426.065,13.751z M425.777,6.805c-0.875,0-1.354,0.871-1.439,2.611h2.792
														c0-0.797-0.122-1.431-0.365-1.903C426.521,7.042,426.192,6.805,425.777,6.805z"/>
													<path fill="#FFFFFF" d="M434.44,13.617l-0.08-1.015h-0.027c-0.348,0.766-0.875,1.149-1.58,1.149
														c-0.474,0-0.854-0.188-1.142-0.564c-0.288-0.376-0.432-0.88-0.432-1.513c0-0.69,0.207-1.236,0.622-1.64
														c0.416-0.403,0.998-0.622,1.748-0.658l0.783-0.04V8.735c0-0.677-0.085-1.17-0.254-1.479
														c-0.17-0.31-0.451-0.464-0.844-0.464c-0.415,0-0.84,0.136-1.272,0.407l-0.274-0.501
														c0.504-0.312,1.033-0.467,1.587-0.467c0.598,0,1.028,0.188,1.292,0.564c0.264,0.376,0.396,1.005,0.396,1.887v4.935
														H434.44z M432.894,13.21c0.455,0,0.809-0.224,1.062-0.671c0.252-0.447,0.378-1.081,0.378-1.9V9.884l-0.757,0.041
														c-0.585,0.031-1.019,0.192-1.302,0.484c-0.284,0.292-0.426,0.718-0.426,1.279c0,0.525,0.094,0.911,0.281,1.155
														C432.317,13.087,432.572,13.21,432.894,13.21z"/>
													<path fill="#FFFFFF" d="M439.994,13.617V8.622c0-1.202-0.357-1.803-1.071-1.803c-0.545,0-0.943,0.225-1.195,0.674
														s-0.378,1.165-0.378,2.144v3.98h-0.637V6.371h0.536l0.054,1.009h0.06c0.152-0.365,0.371-0.648,0.656-0.848
														c0.286-0.201,0.592-0.301,0.917-0.301c0.563,0,0.984,0.188,1.266,0.564c0.281,0.376,0.422,0.98,0.422,1.813v5.009
														H439.994z"/>
													<path fill="#FFFFFF" d="M447.411,13.751c-0.768,0-1.358-0.326-1.771-0.979c-0.412-0.652-0.619-1.562-0.619-2.728
														c0-1.238,0.185-2.183,0.553-2.835s0.898-0.979,1.59-0.979c0.603,0,1.078,0.286,1.427,0.858
														c0.348,0.572,0.521,1.343,0.521,2.314v0.587h-3.441c0.009,1.055,0.158,1.846,0.449,2.371
														c0.29,0.525,0.729,0.788,1.318,0.788c0.456,0,0.936-0.149,1.439-0.448v0.615
														C448.413,13.606,447.924,13.751,447.411,13.751z M447.123,6.805c-0.875,0-1.354,0.871-1.439,2.611h2.792
														c0-0.797-0.122-1.431-0.365-1.903C447.867,7.042,447.538,6.805,447.123,6.805z"/>
													<path fill="#FFFFFF" d="M454.212,13.617V8.622c0-1.202-0.357-1.803-1.071-1.803c-0.545,0-0.943,0.225-1.195,0.674
														s-0.378,1.165-0.378,2.144v3.98h-0.637V6.371h0.536l0.054,1.009h0.06c0.152-0.365,0.371-0.648,0.656-0.848
														c0.286-0.201,0.592-0.301,0.917-0.301c0.563,0,0.984,0.188,1.266,0.564c0.281,0.376,0.422,0.98,0.422,1.813v5.009
														H454.212z"/>
													<path fill="#FFFFFF" d="M458.298,13.751c-1.41,0-2.116-1.249-2.116-3.747c0-1.229,0.177-2.165,0.529-2.809
														c0.353-0.643,0.873-0.965,1.561-0.965c0.325,0,0.635,0.094,0.927,0.28c0.293,0.187,0.525,0.445,0.7,0.775h0.054
														l-0.027-0.808V3.226h0.637v10.392h-0.522l-0.054-1.015h-0.061c-0.174,0.37-0.399,0.653-0.676,0.852
														C458.972,13.652,458.655,13.751,458.298,13.751z M458.338,13.196c0.509,0,0.9-0.234,1.176-0.705
														c0.274-0.469,0.411-1.161,0.411-2.073v-0.414c0-1.095-0.133-1.898-0.398-2.408s-0.671-0.765-1.215-0.765
														c-0.522,0-0.897,0.273-1.125,0.818c-0.228,0.545-0.342,1.335-0.342,2.368c0,1.042,0.118,1.832,0.355,2.371
														C457.437,12.927,457.815,13.196,458.338,13.196z"/>
													<path fill="#FFFFFF" d="M463.249,13.617h-0.637V3.226h0.637V13.617z"/>
													<path fill="#FFFFFF" d="M467.225,13.751c-0.768,0-1.358-0.326-1.771-0.979c-0.412-0.652-0.619-1.562-0.619-2.728
														c0-1.238,0.185-2.183,0.553-2.835s0.898-0.979,1.59-0.979c0.603,0,1.078,0.286,1.427,0.858
														c0.348,0.572,0.521,1.343,0.521,2.314v0.587h-3.441c0.009,1.055,0.158,1.846,0.449,2.371
														c0.29,0.525,0.729,0.788,1.318,0.788c0.456,0,0.936-0.149,1.439-0.448v0.615
														C468.227,13.606,467.737,13.751,467.225,13.751z M466.937,6.805c-0.875,0-1.354,0.871-1.439,2.611h2.792
														c0-0.797-0.122-1.431-0.365-1.903C467.681,7.042,467.352,6.805,466.937,6.805z"/>
													<path fill="#FFFFFF" d="M473.597,11.801c0,0.61-0.161,1.087-0.482,1.433c-0.321,0.345-0.785,0.518-1.393,0.518
														c-0.33,0-0.62-0.042-0.87-0.127s-0.444-0.178-0.583-0.281v-0.741c0.165,0.165,0.384,0.297,0.656,0.397
														s0.552,0.15,0.837,0.15c0.375,0,0.67-0.123,0.884-0.368c0.215-0.245,0.321-0.572,0.321-0.981
														c0-0.321-0.076-0.591-0.23-0.812s-0.447-0.471-0.881-0.751c-0.495-0.312-0.833-0.561-1.014-0.748
														c-0.182-0.187-0.322-0.396-0.422-0.628c-0.101-0.231-0.151-0.508-0.151-0.828c0-0.521,0.177-0.952,0.529-1.292
														c0.353-0.34,0.801-0.511,1.346-0.511c0.585,0,1.073,0.138,1.467,0.414l-0.328,0.554
														c-0.366-0.245-0.755-0.367-1.165-0.367c-0.375,0-0.675,0.11-0.897,0.331c-0.224,0.22-0.335,0.511-0.335,0.872
														c0,0.32,0.076,0.589,0.228,0.805c0.152,0.216,0.474,0.478,0.965,0.785c0.481,0.316,0.812,0.569,0.99,0.758
														c0.179,0.189,0.312,0.399,0.398,0.628C473.553,11.239,473.597,11.502,473.597,11.801z"/>
													<path fill="#FFFFFF" d="M478.163,11.801c0,0.61-0.161,1.087-0.482,1.433c-0.321,0.345-0.785,0.518-1.393,0.518
														c-0.33,0-0.62-0.042-0.87-0.127s-0.444-0.178-0.583-0.281v-0.741c0.165,0.165,0.384,0.297,0.656,0.397
														s0.552,0.15,0.837,0.15c0.375,0,0.67-0.123,0.884-0.368c0.215-0.245,0.321-0.572,0.321-0.981
														c0-0.321-0.076-0.591-0.23-0.812s-0.447-0.471-0.881-0.751c-0.495-0.312-0.833-0.561-1.014-0.748
														c-0.182-0.187-0.322-0.396-0.422-0.628c-0.101-0.231-0.151-0.508-0.151-0.828c0-0.521,0.177-0.952,0.529-1.292
														c0.353-0.34,0.801-0.511,1.346-0.511c0.585,0,1.073,0.138,1.467,0.414l-0.328,0.554
														c-0.366-0.245-0.755-0.367-1.165-0.367c-0.375,0-0.675,0.11-0.897,0.331c-0.224,0.22-0.335,0.511-0.335,0.872
														c0,0.32,0.076,0.589,0.228,0.805c0.152,0.216,0.474,0.478,0.965,0.785c0.481,0.316,0.812,0.569,0.99,0.758
														c0.179,0.189,0.312,0.399,0.398,0.628C478.119,11.239,478.163,11.502,478.163,11.801z"/>
													<path fill="#FFFFFF" d="M482.048,13.617h-0.637V3.226h0.637V13.617z"/>
													<path fill="#FFFFFF" d="M488.053,9.978c0,1.22-0.192,2.154-0.579,2.802c-0.386,0.647-0.938,0.972-1.657,0.972
														c-0.709,0-1.253-0.324-1.63-0.972c-0.377-0.648-0.566-1.582-0.566-2.802c0-2.498,0.741-3.747,2.224-3.747
														c0.696,0,1.238,0.327,1.627,0.982C487.859,7.867,488.053,8.789,488.053,9.978z M484.283,9.978
														c0,1.046,0.125,1.836,0.375,2.371c0.25,0.535,0.641,0.802,1.172,0.802c1.04,0,1.561-1.058,1.561-3.172
														c0-2.097-0.521-3.146-1.561-3.146c-0.545,0-0.938,0.263-1.182,0.788S484.283,8.931,484.283,9.978z"/>
													<path fill="#FFFFFF" d="M493.647,9.978c0,1.22-0.192,2.154-0.579,2.802c-0.386,0.647-0.938,0.972-1.657,0.972
														c-0.709,0-1.253-0.324-1.63-0.972c-0.377-0.648-0.566-1.582-0.566-2.802c0-2.498,0.741-3.747,2.224-3.747
														c0.696,0,1.238,0.327,1.627,0.982C493.454,7.867,493.647,8.789,493.647,9.978z M489.878,9.978
														c0,1.046,0.125,1.836,0.375,2.371c0.25,0.535,0.641,0.802,1.172,0.802c1.04,0,1.561-1.058,1.561-3.172
														c0-2.097-0.521-3.146-1.561-3.146c-0.545,0-0.938,0.263-1.182,0.788S489.878,8.931,489.878,9.978z"/>
													<path fill="#FFFFFF" d="M497.489,13.751c-0.366,0-0.699-0.102-1.001-0.304s-0.53-0.479-0.687-0.832h-0.06l0.047,0.795
														v3.493h-0.637V6.371h0.522l0.067,0.995h0.06c0.179-0.365,0.407-0.646,0.687-0.841s0.584-0.294,0.914-0.294
														c1.419,0,2.129,1.249,2.129,3.747c0,1.207-0.174,2.137-0.522,2.792C498.661,13.423,498.154,13.751,497.489,13.751z
														 M497.362,6.832c-0.531,0-0.927,0.234-1.186,0.701c-0.259,0.468-0.388,1.2-0.388,2.197v0.207
														c0,1.113,0.131,1.931,0.395,2.454c0.264,0.523,0.665,0.785,1.205,0.785c0.5,0,0.872-0.259,1.115-0.778
														s0.364-1.326,0.364-2.421c0-1.046-0.113-1.832-0.341-2.357S497.911,6.832,497.362,6.832z"/>
													<path fill="#FFFFFF" d="M507.375,9.978c0,1.22-0.192,2.154-0.579,2.802c-0.386,0.647-0.938,0.972-1.657,0.972
														c-0.709,0-1.253-0.324-1.63-0.972c-0.377-0.648-0.566-1.582-0.566-2.802c0-2.498,0.741-3.747,2.224-3.747
														c0.696,0,1.238,0.327,1.627,0.982C507.182,7.867,507.375,8.789,507.375,9.978z M503.605,9.978
														c0,1.046,0.125,1.836,0.375,2.371c0.25,0.535,0.641,0.802,1.172,0.802c1.04,0,1.561-1.058,1.561-3.172
														c0-2.097-0.521-3.146-1.561-3.146c-0.545,0-0.938,0.263-1.182,0.788S503.605,8.931,503.605,9.978z"/>
													<path fill="#FFFFFF" d="M510.733,6.932h-1.138v6.685h-0.63V6.932h-0.924v-0.36l0.924-0.274V5.75
														c0-0.921,0.109-1.585,0.328-1.99c0.219-0.405,0.599-0.608,1.139-0.608c0.313,0,0.596,0.056,0.851,0.167l-0.222,0.587
														c-0.236-0.111-0.45-0.167-0.643-0.167c-0.219,0-0.384,0.065-0.495,0.194c-0.112,0.129-0.194,0.338-0.248,0.628
														s-0.08,0.69-0.08,1.202v0.607h1.138V6.932z"/>
												</g>
											</g>
											<g>
												<g>
													<g>
														<path fill="#FFFFFF" d="M418.525,22.582v4.729c0,0.717,0.086,1.24,0.258,1.569s0.437,0.494,0.794,0.494
															c0.549,0,0.951-0.222,1.208-0.664c0.257-0.443,0.385-1.159,0.385-2.147v-3.98h0.63v7.246h-0.536l-0.08-1.015h-0.054
															c-0.156,0.369-0.373,0.653-0.649,0.851c-0.276,0.198-0.578,0.298-0.903,0.298c-0.585,0-1.013-0.207-1.282-0.621
															c-0.271-0.414-0.405-1.091-0.405-2.03v-4.729H418.525z"/>
														<path fill="#FFFFFF" d="M426.789,29.828v-4.995c0-1.202-0.357-1.804-1.071-1.804c-0.545,0-0.943,0.226-1.195,0.675
															c-0.252,0.45-0.378,1.164-0.378,2.144v3.98h-0.637v-7.246h0.536l0.054,1.009h0.06
															c0.152-0.365,0.371-0.648,0.656-0.849c0.286-0.2,0.592-0.3,0.917-0.3c0.563,0,0.984,0.188,1.266,0.563
															c0.281,0.377,0.422,0.981,0.422,1.813v5.009H426.789z"/>
														<path fill="#FFFFFF" d="M430.955,23.144h-1.138v6.685h-0.63v-6.685h-0.924v-0.361l0.924-0.273v-0.548
															c0-0.922,0.109-1.585,0.328-1.99c0.219-0.404,0.599-0.607,1.139-0.607c0.313,0,0.596,0.056,0.851,0.167l-0.222,0.587
															c-0.236-0.11-0.45-0.166-0.643-0.166c-0.219,0-0.384,0.064-0.495,0.193c-0.112,0.129-0.194,0.338-0.248,0.628
															c-0.054,0.289-0.08,0.69-0.08,1.202v0.607h1.138V23.144z M432.04,20.572c0-0.201,0.041-0.356,0.124-0.468
															c0.082-0.111,0.188-0.167,0.318-0.167c0.12,0,0.216,0.056,0.287,0.167s0.107,0.267,0.107,0.468
															c0,0.191-0.036,0.344-0.107,0.457s-0.167,0.171-0.287,0.171c-0.13,0-0.236-0.058-0.318-0.171
															C432.081,20.916,432.04,20.764,432.04,20.572z M432.77,29.828h-0.636v-7.246h0.636V29.828z"/>
														<path fill="#FFFFFF" d="M437.965,29.828v-4.995c0-1.202-0.357-1.804-1.071-1.804c-0.545,0-0.943,0.226-1.195,0.675
															c-0.252,0.45-0.378,1.164-0.378,2.144v3.98h-0.637v-7.246h0.536l0.054,1.009h0.06
															c0.152-0.365,0.371-0.648,0.656-0.849c0.286-0.2,0.592-0.3,0.917-0.3c0.563,0,0.984,0.188,1.266,0.563
															c0.281,0.377,0.422,0.981,0.422,1.813v5.009H437.965z"/>
														<path fill="#FFFFFF" d="M440.182,20.572c0-0.201,0.041-0.356,0.124-0.468s0.188-0.167,0.318-0.167
															c0.12,0,0.216,0.056,0.288,0.167c0.071,0.111,0.106,0.267,0.106,0.468c0,0.191-0.035,0.344-0.106,0.457
															c-0.072,0.113-0.168,0.171-0.288,0.171c-0.13,0-0.235-0.058-0.318-0.171S440.182,20.764,440.182,20.572z
															 M440.912,29.828h-0.637v-7.246h0.637V29.828z"/>
														<path fill="#FFFFFF" d="M445.679,28.012c0,0.61-0.161,1.088-0.482,1.433s-0.785,0.518-1.393,0.518
															c-0.33,0-0.62-0.043-0.87-0.127c-0.25-0.085-0.444-0.178-0.583-0.28v-0.741c0.165,0.164,0.384,0.297,0.656,0.396
															c0.272,0.101,0.552,0.15,0.837,0.15c0.375,0,0.67-0.122,0.884-0.367c0.215-0.244,0.321-0.572,0.321-0.981
															c0-0.32-0.076-0.591-0.23-0.812s-0.447-0.471-0.881-0.751c-0.495-0.312-0.833-0.562-1.014-0.748
															c-0.182-0.188-0.322-0.396-0.422-0.628c-0.101-0.231-0.151-0.508-0.151-0.828c0-0.521,0.177-0.952,0.529-1.292
															c0.353-0.341,0.801-0.511,1.346-0.511c0.585,0,1.073,0.138,1.467,0.414l-0.328,0.554
															c-0.366-0.245-0.755-0.367-1.165-0.367c-0.375,0-0.675,0.11-0.897,0.331c-0.224,0.22-0.335,0.511-0.335,0.871
															c0,0.32,0.076,0.589,0.228,0.805c0.152,0.216,0.474,0.478,0.965,0.785c0.481,0.315,0.812,0.568,0.99,0.758
															s0.312,0.398,0.398,0.628C445.635,27.449,445.679,27.714,445.679,28.012z"/>
														<path fill="#FFFFFF" d="M450.673,29.828v-4.995c0-0.654-0.086-1.119-0.258-1.393s-0.452-0.411-0.841-0.411
															c-0.513,0-0.899,0.228-1.158,0.682s-0.388,1.171-0.388,2.15v3.967h-0.637V19.437h0.637v3.373
															c0,0.307-0.01,0.563-0.027,0.768h0.054c0.143-0.36,0.358-0.64,0.646-0.838c0.287-0.198,0.588-0.297,0.9-0.297
															c0.616,0,1.053,0.2,1.313,0.601c0.259,0.4,0.388,0.997,0.388,1.79v4.995H450.673z"/>
														<path fill="#FFFFFF" d="M455.046,29.962c-0.768,0-1.358-0.326-1.771-0.979c-0.412-0.652-0.619-1.562-0.619-2.729
															c0-1.237,0.185-2.183,0.553-2.835c0.368-0.651,0.898-0.978,1.59-0.978c0.603,0,1.078,0.286,1.427,0.857
															c0.348,0.572,0.521,1.344,0.521,2.314v0.588h-3.441c0.009,1.055,0.158,1.845,0.449,2.37
															c0.29,0.525,0.729,0.788,1.318,0.788c0.456,0,0.936-0.148,1.439-0.447v0.614
															C456.048,29.817,455.559,29.962,455.046,29.962z M454.758,23.017c-0.875,0-1.354,0.87-1.439,2.611h2.792
															c0-0.798-0.122-1.432-0.365-1.903C455.502,23.252,455.173,23.017,454.758,23.017z"/>
														<path fill="#FFFFFF" d="M460.34,29.962c-1.41,0-2.116-1.249-2.116-3.747c0-1.229,0.177-2.164,0.529-2.808
															s0.873-0.965,1.561-0.965c0.325,0,0.635,0.093,0.927,0.28c0.293,0.187,0.525,0.445,0.7,0.774h0.054l-0.027-0.808
															v-3.253h0.637v10.392h-0.522l-0.054-1.015h-0.061c-0.174,0.369-0.399,0.653-0.676,0.851
															C461.014,29.862,460.697,29.962,460.34,29.962z M460.38,29.407c0.509,0,0.9-0.234,1.176-0.704
															c0.274-0.47,0.411-1.161,0.411-2.074v-0.414c0-1.095-0.133-1.897-0.398-2.407s-0.671-0.765-1.215-0.765
															c-0.522,0-0.897,0.272-1.125,0.818c-0.228,0.545-0.342,1.334-0.342,2.367c0,1.042,0.118,1.832,0.355,2.371
															C459.479,29.138,459.857,29.407,460.38,29.407z"/>
														<path fill="#FFFFFF" d="M469.542,29.962c-0.366,0-0.699-0.102-1.001-0.304c-0.302-0.203-0.53-0.48-0.687-0.832h-0.06
															l0.047,0.795v3.493h-0.637V22.582h0.522l0.067,0.995h0.06c0.179-0.365,0.407-0.646,0.687-0.842
															c0.279-0.195,0.584-0.293,0.914-0.293c1.419,0,2.129,1.248,2.129,3.746c0,1.207-0.174,2.137-0.522,2.792
															C470.714,29.635,470.207,29.962,469.542,29.962z M469.415,23.043c-0.531,0-0.927,0.233-1.186,0.701
															s-0.388,1.2-0.388,2.197v0.207c0,1.113,0.131,1.931,0.395,2.454s0.665,0.785,1.205,0.785
															c0.5,0,0.872-0.26,1.115-0.778s0.364-1.325,0.364-2.421c0-1.046-0.113-1.832-0.341-2.357
															S469.964,23.043,469.415,23.043z"/>
														<path fill="#FFFFFF" d="M475.31,22.442c0.228,0,0.439,0.03,0.636,0.093l-0.153,0.635
															c-0.161-0.066-0.326-0.101-0.496-0.101c-0.245,0-0.475,0.126-0.687,0.378c-0.212,0.251-0.378,0.602-0.498,1.052
															c-0.121,0.449-0.181,0.946-0.181,1.489v3.84h-0.637v-7.246h0.522l0.067,1.269h0.047
															C474.27,22.912,474.729,22.442,475.31,22.442z"/>
														<path fill="#FFFFFF" d="M480.442,26.188c0,1.22-0.192,2.153-0.579,2.802c-0.386,0.647-0.938,0.972-1.657,0.972
															c-0.709,0-1.253-0.324-1.63-0.972c-0.377-0.648-0.566-1.582-0.566-2.802c0-2.498,0.741-3.746,2.224-3.746
															c0.696,0,1.238,0.327,1.627,0.981S480.442,25,480.442,26.188z M476.673,26.188c0,1.046,0.125,1.837,0.375,2.371
															s0.641,0.801,1.172,0.801c1.04,0,1.561-1.057,1.561-3.172c0-2.097-0.521-3.146-1.561-3.146
															c-0.545,0-0.938,0.263-1.182,0.788S476.673,25.143,476.673,26.188z"/>
														<path fill="#FFFFFF" d="M481.397,33.114c-0.188,0-0.337-0.038-0.448-0.114v-0.601
															c0.143,0.071,0.283,0.106,0.422,0.106c0.209,0,0.357-0.101,0.444-0.304c0.088-0.202,0.131-0.516,0.131-0.938v-8.682
															h0.637v8.589c0,0.663-0.097,1.152-0.288,1.469C482.103,32.956,481.804,33.114,481.397,33.114z M481.853,20.572
															c0-0.201,0.041-0.356,0.124-0.468s0.188-0.167,0.318-0.167c0.12,0,0.216,0.056,0.288,0.167
															c0.071,0.111,0.106,0.267,0.106,0.468c0,0.191-0.035,0.344-0.106,0.457c-0.072,0.113-0.168,0.171-0.288,0.171
															c-0.13,0-0.235-0.058-0.318-0.171S481.853,20.764,481.853,20.572z"/>
														<path fill="#FFFFFF" d="M486.56,29.962c-0.768,0-1.358-0.326-1.771-0.979c-0.412-0.652-0.619-1.562-0.619-2.729
															c0-1.237,0.185-2.183,0.553-2.835c0.368-0.651,0.898-0.978,1.59-0.978c0.603,0,1.078,0.286,1.427,0.857
															c0.348,0.572,0.521,1.344,0.521,2.314v0.588h-3.441c0.009,1.055,0.158,1.845,0.449,2.37
															c0.29,0.525,0.729,0.788,1.318,0.788c0.456,0,0.936-0.148,1.439-0.447v0.614
															C487.562,29.817,487.072,29.962,486.56,29.962z M486.271,23.017c-0.875,0-1.354,0.87-1.439,2.611h2.792
															c0-0.798-0.122-1.432-0.365-1.903C487.016,23.252,486.687,23.017,486.271,23.017z"/>
														<path fill="#FFFFFF" d="M491.947,29.962c-0.728,0-1.275-0.315-1.644-0.945s-0.553-1.555-0.553-2.774
															c0-1.238,0.187-2.181,0.56-2.828c0.372-0.648,0.923-0.972,1.65-0.972c0.45,0,0.825,0.082,1.125,0.247l-0.248,0.561
															c-0.299-0.138-0.573-0.207-0.823-0.207c-1.067,0-1.601,1.062-1.601,3.186c0,2.106,0.533,3.159,1.601,3.159
															c0.316,0,0.66-0.071,1.031-0.214v0.534c-0.147,0.08-0.328,0.143-0.543,0.187
															C492.289,29.939,492.104,29.962,491.947,29.962z"/>
														<path fill="#FFFFFF" d="M495.485,29.374c0.196,0,0.37-0.026,0.521-0.08v0.534c-0.196,0.089-0.448,0.134-0.756,0.134
															c-0.75,0-1.125-0.559-1.125-1.677v-5.142h-0.656V22.77l0.643-0.188l0.208-1.723h0.441v1.723h1.151v0.562h-1.151v4.962
															c0,0.489,0.054,0.823,0.161,1.001C495.029,29.285,495.217,29.374,495.485,29.374z"/>
														<path fill="#FFFFFF" d="M500.039,28.012c0,0.61-0.161,1.088-0.482,1.433s-0.785,0.518-1.393,0.518
															c-0.33,0-0.62-0.043-0.87-0.127c-0.25-0.085-0.444-0.178-0.583-0.28v-0.741c0.165,0.164,0.384,0.297,0.656,0.396
															c0.272,0.101,0.552,0.15,0.837,0.15c0.375,0,0.67-0.122,0.884-0.367c0.215-0.244,0.321-0.572,0.321-0.981
															c0-0.32-0.076-0.591-0.23-0.812s-0.447-0.471-0.881-0.751c-0.495-0.312-0.833-0.562-1.014-0.748
															c-0.182-0.188-0.322-0.396-0.422-0.628c-0.101-0.231-0.151-0.508-0.151-0.828c0-0.521,0.177-0.952,0.529-1.292
															c0.353-0.341,0.801-0.511,1.346-0.511c0.585,0,1.073,0.138,1.467,0.414l-0.328,0.554
															c-0.366-0.245-0.755-0.367-1.165-0.367c-0.375,0-0.675,0.11-0.897,0.331c-0.224,0.22-0.335,0.511-0.335,0.871
															c0,0.32,0.076,0.589,0.228,0.805c0.152,0.216,0.474,0.478,0.965,0.785c0.481,0.315,0.812,0.568,0.99,0.758
															s0.312,0.398,0.398,0.628C499.995,27.449,500.039,27.714,500.039,28.012z"/>
													</g>
												</g>
											</g>
										</g>
									</g>
								</g>
							</g>
						</g>
					</g>
				</g>
			</g>
		</g>
	</g>
</g>
</svg>
