<?xml version="1.0" encoding="iso-8859-1"?>
<!-- Generator: Adobe Illustrator 16.0.0, SVG Export Plug-In . SVG Version: 6.00 Build 0)  -->
<!DOCTYPE svg PUBLIC "-//W3C//DTD SVG 1.1//EN" "http://www.w3.org/Graphics/SVG/1.1/DTD/svg11.dtd">
<svg version="1.1" id="Layer_1" xmlns="http://www.w3.org/2000/svg" xmlns:xlink="http://www.w3.org/1999/xlink" x="0px" y="0px"
	 width="124px" height="111px" viewBox="0 0 124 111" style="enable-background:new 0 0 124 111;" xml:space="preserve">
<g>
	<g>
		<path style="fill:#7D9F3E;" d="M121.584,109.617H1.218V2.225h120.366V109.617z M1.725,109.109h119.352V2.732H1.725V109.109z"/>
		<g>
			<polygon style="fill-rule:evenodd;clip-rule:evenodd;fill:#546A30;" points="1.217,2.226 70.796,2.226 1.217,71.118 1.217,2.226 
							"/>
			<g>
				<g>
					<g>
						<path style="fill:#FFFFFF;" d="M33.331,57.263h1.667c0.683,0,1.207,0.174,1.574,0.522c0.367,0.348,0.551,0.862,0.551,1.543
							c0,1.176-0.431,1.849-1.292,2.019v0.048c0.496,0.103,0.865,0.323,1.107,0.661c0.242,0.339,0.363,0.811,0.363,1.416
							c0,0.776-0.172,1.382-0.518,1.816c-0.345,0.436-0.83,0.653-1.452,0.653h-2V57.263z M33.915,61.127h1.095
							c0.543,0,0.931-0.149,1.163-0.448c0.232-0.299,0.349-0.753,0.349-1.362c0-0.49-0.128-0.866-0.384-1.128
							c-0.256-0.261-0.636-0.392-1.14-0.392h-1.083V61.127z M33.915,61.661v3.746h1.339c0.96,0,1.44-0.649,1.44-1.947
							c0-0.578-0.141-1.021-0.422-1.333c-0.282-0.311-0.677-0.466-1.185-0.466H33.915z"/>
						<path style="fill:#FFFFFF;" d="M38.74,57.714c0-0.178,0.037-0.316,0.11-0.416c0.074-0.099,0.167-0.148,0.283-0.148
							c0.107,0,0.192,0.05,0.256,0.148c0.063,0.1,0.095,0.238,0.095,0.416c0,0.17-0.032,0.306-0.095,0.406
							c-0.063,0.102-0.148,0.151-0.256,0.151c-0.115,0-0.209-0.05-0.283-0.151C38.776,58.02,38.74,57.884,38.74,57.714z
							 M39.388,65.941h-0.565v-6.44h0.565V65.941z"/>
						<path style="fill:#FFFFFF;" d="M41.923,65.941h-0.565v-9.237h0.565V65.941z"/>
						<path style="fill:#FFFFFF;" d="M44.458,65.941h-0.565v-9.237h0.565V65.941z"/>
						<path style="fill:#FFFFFF;" d="M48.928,65.941l-0.071-0.902h-0.024c-0.31,0.681-0.778,1.021-1.405,1.021
							c-0.42,0-0.759-0.168-1.015-0.502s-0.384-0.782-0.384-1.345c0-0.613,0.185-1.099,0.553-1.457
							c0.369-0.358,0.887-0.554,1.554-0.585l0.696-0.035v-0.535c0-0.602-0.076-1.039-0.226-1.314
							c-0.151-0.275-0.401-0.412-0.75-0.412c-0.369,0-0.746,0.12-1.131,0.361l-0.244-0.445c0.448-0.276,0.918-0.415,1.411-0.415
							c0.532,0,0.915,0.167,1.148,0.502c0.234,0.334,0.352,0.893,0.352,1.677v4.387H48.928z M47.553,65.579
							c0.405,0,0.719-0.198,0.943-0.597c0.224-0.397,0.336-0.96,0.336-1.688v-0.671l-0.673,0.035
							c-0.52,0.028-0.905,0.172-1.157,0.431c-0.252,0.26-0.378,0.639-0.378,1.137c0,0.467,0.083,0.81,0.25,1.027
							C47.042,65.471,47.268,65.579,47.553,65.579z"/>
						<path style="fill:#FFFFFF;" d="M53.009,59.388c1.262,0,1.893,1.106,1.893,3.318c0,1.093-0.157,1.925-0.47,2.496
							c-0.313,0.572-0.766,0.858-1.357,0.858c-0.31,0-0.591-0.086-0.845-0.256s-0.464-0.421-0.631-0.754h-0.047l-0.078,0.891h-0.464
							v-9.237h0.565v2.868l-0.023,0.777h0.047C51.939,59.708,52.41,59.388,53.009,59.388z M52.985,59.91
							c-0.496,0-0.855,0.218-1.077,0.653c-0.222,0.435-0.333,1.149-0.333,2.143v0.148c0,1.797,0.478,2.695,1.435,2.695
							c0.437,0,0.763-0.231,0.979-0.694c0.216-0.464,0.324-1.18,0.324-2.149c0-0.93-0.105-1.628-0.315-2.096
							C53.786,60.144,53.449,59.91,52.985,59.91z"/>
						<path style="fill:#FFFFFF;" d="M56.658,65.941h-0.565v-9.237h0.565V65.941z"/>
						<path style="fill:#FFFFFF;" d="M60.461,66.061c-0.683,0-1.207-0.29-1.574-0.87s-0.551-1.388-0.551-2.425
							c0-1.101,0.164-1.94,0.491-2.521c0.327-0.579,0.798-0.869,1.413-0.869c0.536,0,0.959,0.254,1.268,0.763
							c0.31,0.509,0.465,1.194,0.465,2.057v0.522h-3.06c0.008,0.938,0.141,1.641,0.399,2.107c0.258,0.467,0.648,0.7,1.172,0.7
							c0.405,0,0.831-0.132,1.279-0.397v0.546C61.352,65.932,60.917,66.061,60.461,66.061z M60.205,59.887
							c-0.778,0-1.205,0.773-1.28,2.32h2.482c0-0.708-0.108-1.271-0.324-1.691C60.866,60.097,60.574,59.887,60.205,59.887z"/>
						<path style="fill:#FFFFFF;" d="M68.324,65.941l-0.893-4.363c-0.009-0.031-0.016-0.065-0.021-0.101
							c-0.006-0.036-0.068-0.416-0.188-1.14h-0.012l-0.083,0.504l-0.137,0.736l-0.923,4.363h-0.673l-1.404-6.44h0.565l0.804,3.751
							l0.375,1.959h0.035c0.071-0.565,0.187-1.223,0.346-1.971l0.803-3.739h0.596l0.81,3.751c0.063,0.281,0.176,0.935,0.339,1.959
							h0.036c0.012-0.13,0.07-0.459,0.175-0.985c0.105-0.526,0.441-2.102,1.009-4.725h0.56l-1.452,6.44H68.324z"/>
						<path style="fill:#FFFFFF;" d="M74.976,62.706c0,1.085-0.171,1.914-0.515,2.49c-0.343,0.576-0.834,0.864-1.473,0.864
							c-0.631,0-1.114-0.288-1.449-0.864c-0.336-0.576-0.503-1.405-0.503-2.49c0-2.22,0.658-3.33,1.976-3.33
							c0.619,0,1.102,0.291,1.446,0.872C74.804,60.83,74.976,61.649,74.976,62.706z M71.625,62.706c0,0.93,0.111,1.633,0.334,2.107
							c0.222,0.475,0.569,0.712,1.041,0.712c0.925,0,1.387-0.939,1.387-2.819c0-1.864-0.462-2.796-1.387-2.796
							c-0.484,0-0.834,0.233-1.051,0.7C71.733,61.078,71.625,61.776,71.625,62.706z"/>
						<path style="fill:#FFFFFF;" d="M78.202,59.376c0.202,0,0.391,0.027,0.565,0.083l-0.137,0.563
							c-0.143-0.059-0.29-0.089-0.44-0.089c-0.219,0-0.422,0.112-0.61,0.336s-0.336,0.535-0.443,0.935
							c-0.106,0.4-0.16,0.841-0.16,1.324v3.413h-0.565v-6.44h0.464l0.06,1.128h0.042C77.277,59.794,77.687,59.376,78.202,59.376z"/>
						<path style="fill:#FFFFFF;" d="M80.534,62.754l0.363-0.653l1.595-2.6h0.613l-1.488,2.368l1.619,4.072h-0.596l-1.404-3.55
							l-0.714,0.938v2.612h-0.565v-9.237h0.565v4.969l-0.042,1.081H80.534z"/>
						<path style="fill:#FFFFFF;" d="M87.898,61.893h-1.845v-0.486h1.845V58.83h0.488v2.576h1.839v0.486h-1.839v2.564h-0.488V61.893
							z"/>
					</g>
				</g>
				<g>
					<g>
						<g>
							<path style="fill:#FFFFFF;" d="M22.031,80.121l-0.071-0.902h-0.024c-0.31,0.681-0.778,1.021-1.405,1.021
								c-0.42,0-0.759-0.168-1.015-0.502s-0.384-0.782-0.384-1.345c0-0.613,0.185-1.099,0.553-1.457
								c0.369-0.358,0.887-0.554,1.554-0.585l0.696-0.035v-0.535c0-0.602-0.076-1.039-0.226-1.314
								c-0.151-0.275-0.401-0.412-0.75-0.412c-0.369,0-0.746,0.12-1.131,0.361l-0.244-0.445c0.448-0.276,0.918-0.415,1.411-0.415
								c0.532,0,0.915,0.167,1.148,0.502c0.234,0.334,0.352,0.893,0.352,1.677v4.387H22.031z M20.656,79.759
								c0.405,0,0.719-0.198,0.943-0.597c0.224-0.397,0.336-0.96,0.336-1.688v-0.671l-0.673,0.035
								c-0.52,0.028-0.905,0.172-1.157,0.431c-0.252,0.26-0.378,0.639-0.378,1.137c0,0.467,0.083,0.81,0.25,1.027
								C20.144,79.65,20.37,79.759,20.656,79.759z"/>
							<path style="fill:#FFFFFF;" d="M25.688,80.24c-1.253,0-1.88-1.11-1.88-3.331c0-1.092,0.157-1.924,0.47-2.496
								c0.313-0.571,0.775-0.857,1.387-0.857c0.29,0,0.564,0.083,0.824,0.249s0.467,0.396,0.622,0.688h0.047l-0.024-0.718v-2.892
								H27.7v9.237h-0.464l-0.048-0.902h-0.054c-0.155,0.328-0.355,0.581-0.601,0.757S26.006,80.24,25.688,80.24z M25.725,79.747
								c0.452,0,0.8-0.209,1.044-0.626c0.244-0.418,0.366-1.032,0.366-1.844v-0.368c0-0.974-0.118-1.687-0.354-2.14
								c-0.236-0.453-0.596-0.68-1.08-0.68c-0.464,0-0.797,0.242-1,0.728c-0.202,0.484-0.304,1.186-0.304,2.104
								c0,0.926,0.105,1.628,0.315,2.107C24.923,79.508,25.26,79.747,25.725,79.747z"/>
							<path style="fill:#FFFFFF;" d="M29.915,80.121l-1.523-6.44h0.571l0.964,4.144c0.111,0.479,0.218,1.001,0.321,1.566h0.047
								c0.028-0.205,0.067-0.435,0.119-0.688c0.052-0.253,0.442-1.927,1.172-5.021h0.572l-1.571,6.44H29.915z"/>
							<path style="fill:#FFFFFF;" d="M35.752,80.121l-0.071-0.902h-0.024c-0.31,0.681-0.778,1.021-1.405,1.021
								c-0.42,0-0.759-0.168-1.015-0.502s-0.384-0.782-0.384-1.345c0-0.613,0.185-1.099,0.553-1.457
								c0.369-0.358,0.887-0.554,1.554-0.585l0.696-0.035v-0.535c0-0.602-0.076-1.039-0.226-1.314
								c-0.151-0.275-0.401-0.412-0.75-0.412c-0.369,0-0.746,0.12-1.131,0.361l-0.244-0.445c0.448-0.276,0.918-0.415,1.411-0.415
								c0.532,0,0.915,0.167,1.148,0.502c0.234,0.334,0.352,0.893,0.352,1.677v4.387H35.752z M34.377,79.759
								c0.405,0,0.719-0.198,0.943-0.597c0.224-0.397,0.336-0.96,0.336-1.688v-0.671l-0.673,0.035
								c-0.52,0.028-0.905,0.172-1.157,0.431c-0.252,0.26-0.378,0.639-0.378,1.137c0,0.467,0.083,0.81,0.25,1.027
								C33.865,79.65,34.091,79.759,34.377,79.759z"/>
							<path style="fill:#FFFFFF;" d="M40.749,80.121v-4.44c0-1.068-0.317-1.603-0.952-1.603c-0.484,0-0.838,0.2-1.063,0.6
								s-0.336,1.035-0.336,1.905v3.538h-0.565v-6.44h0.477l0.047,0.896h0.054c0.135-0.324,0.329-0.575,0.583-0.754
								c0.254-0.178,0.526-0.267,0.815-0.267c0.5,0,0.875,0.167,1.125,0.502c0.25,0.334,0.375,0.871,0.375,1.611v4.452H40.749z"/>
							<path style="fill:#FFFFFF;" d="M44.574,80.24c-0.646,0-1.134-0.28-1.461-0.841c-0.328-0.56-0.491-1.382-0.491-2.466
								c0-1.101,0.166-1.938,0.497-2.515c0.331-0.575,0.82-0.863,1.467-0.863c0.4,0,0.734,0.073,1,0.22l-0.22,0.498
								c-0.266-0.122-0.51-0.184-0.732-0.184c-0.948,0-1.422,0.944-1.422,2.832c0,1.871,0.474,2.808,1.422,2.808
								c0.282,0,0.587-0.063,0.917-0.19v0.476c-0.131,0.071-0.292,0.126-0.482,0.166C44.877,80.22,44.712,80.24,44.574,80.24z"/>
							<path style="fill:#FFFFFF;" d="M46.39,71.894c0-0.178,0.037-0.316,0.11-0.416c0.074-0.099,0.167-0.148,0.283-0.148
								c0.107,0,0.192,0.05,0.256,0.148c0.063,0.1,0.095,0.238,0.095,0.416c0,0.17-0.032,0.306-0.095,0.406
								c-0.063,0.102-0.148,0.151-0.256,0.151c-0.115,0-0.209-0.05-0.283-0.151C46.427,72.199,46.39,72.063,46.39,71.894z
								 M47.039,80.121h-0.565v-6.44h0.565V80.121z"/>
							<path style="fill:#FFFFFF;" d="M51.925,80.121v-4.44c0-1.068-0.317-1.603-0.952-1.603c-0.484,0-0.838,0.2-1.063,0.6
								s-0.336,1.035-0.336,1.905v3.538h-0.565v-6.44h0.477l0.047,0.896h0.054c0.135-0.324,0.329-0.575,0.583-0.754
								c0.254-0.178,0.526-0.267,0.815-0.267c0.5,0,0.875,0.167,1.125,0.502c0.25,0.334,0.375,0.871,0.375,1.611v4.452H51.925z"/>
							<path style="fill:#FFFFFF;" d="M57.469,73.681v0.397l-0.881,0.101c0.119,0.154,0.216,0.375,0.292,0.662
								s0.113,0.581,0.113,0.882c0,0.625-0.142,1.132-0.426,1.52s-0.658,0.582-1.122,0.582h-0.143l-0.125-0.013
								c-0.19,0.135-0.34,0.27-0.449,0.404c-0.109,0.135-0.164,0.291-0.164,0.469c0,0.182,0.071,0.323,0.214,0.425
								c0.143,0.101,0.335,0.151,0.578,0.151h0.405c0.575,0,1.021,0.148,1.339,0.444c0.317,0.297,0.476,0.727,0.476,1.289
								c0,0.629-0.213,1.128-0.64,1.495c-0.427,0.368-0.989,0.553-1.688,0.553c-0.583,0-1.032-0.147-1.345-0.442
								c-0.313-0.295-0.47-0.72-0.47-1.273c0-0.403,0.103-0.749,0.309-1.036c0.207-0.287,0.53-0.514,0.97-0.68
								c-0.198-0.087-0.358-0.208-0.479-0.362s-0.182-0.338-0.182-0.552c0-0.193,0.064-0.367,0.193-0.52s0.313-0.315,0.551-0.489
								c-0.33-0.15-0.579-0.394-0.747-0.73c-0.168-0.336-0.253-0.732-0.253-1.188c0-0.685,0.145-1.225,0.435-1.62
								s0.687-0.594,1.19-0.594c0.27,0,0.496,0.041,0.678,0.125H57.469z M53.993,81.278c0,0.408,0.106,0.727,0.318,0.956
								c0.212,0.229,0.533,0.345,0.961,0.345c0.532,0,0.953-0.139,1.265-0.416s0.467-0.657,0.467-1.14
								c0-0.388-0.106-0.688-0.318-0.899s-0.521-0.317-0.925-0.317h-0.417c-0.389,0-0.711,0.136-0.967,0.406
								C54.121,80.484,53.993,80.84,53.993,81.278z M54.345,75.781c0,0.526,0.097,0.926,0.292,1.196
								c0.194,0.271,0.452,0.407,0.773,0.407c0.69,0,1.036-0.555,1.036-1.662c0-0.534-0.088-0.952-0.265-1.253
								c-0.177-0.301-0.434-0.451-0.771-0.451c-0.345,0-0.609,0.154-0.792,0.463S54.345,75.224,54.345,75.781z"/>
							<path style="fill:#FFFFFF;" d="M62.853,80.24c-0.646,0-1.134-0.28-1.461-0.841c-0.327-0.56-0.491-1.382-0.491-2.466
								c0-1.101,0.166-1.938,0.497-2.515c0.331-0.575,0.82-0.863,1.467-0.863c0.401,0,0.734,0.073,1,0.22l-0.22,0.498
								c-0.267-0.122-0.51-0.184-0.732-0.184c-0.948,0-1.423,0.944-1.423,2.832c0,1.871,0.475,2.808,1.423,2.808
								c0.281,0,0.587-0.063,0.917-0.19v0.476c-0.132,0.071-0.292,0.126-0.482,0.166C63.156,80.22,62.991,80.24,62.853,80.24z"/>
							<path style="fill:#FFFFFF;" d="M67.252,80.121l-0.071-0.902h-0.023c-0.31,0.681-0.778,1.021-1.404,1.021
								c-0.421,0-0.759-0.168-1.016-0.502c-0.256-0.334-0.384-0.782-0.384-1.345c0-0.613,0.185-1.099,0.554-1.457
								s0.887-0.554,1.554-0.585l0.696-0.035v-0.535c0-0.602-0.075-1.039-0.227-1.314c-0.15-0.275-0.4-0.412-0.75-0.412
								c-0.368,0-0.746,0.12-1.131,0.361l-0.243-0.445c0.448-0.276,0.918-0.415,1.41-0.415c0.531,0,0.914,0.167,1.148,0.502
								c0.234,0.334,0.352,0.893,0.352,1.677v4.387H67.252z M65.878,79.759c0.404,0,0.719-0.198,0.943-0.597
								c0.224-0.397,0.336-0.96,0.336-1.688v-0.671l-0.673,0.035c-0.52,0.028-0.905,0.172-1.157,0.431
								c-0.252,0.26-0.378,0.639-0.378,1.137c0,0.467,0.083,0.81,0.25,1.027C65.365,79.65,65.592,79.759,65.878,79.759z"/>
							<path style="fill:#FFFFFF;" d="M71.41,80.24c-0.326,0-0.622-0.091-0.89-0.271c-0.269-0.18-0.472-0.427-0.61-0.739h-0.054
								l0.042,0.707v3.104h-0.565v-9.361h0.464l0.06,0.884h0.054c0.158-0.324,0.362-0.573,0.61-0.748
								c0.247-0.174,0.519-0.261,0.812-0.261c1.262,0,1.893,1.11,1.893,3.33c0,1.072-0.154,1.899-0.464,2.481
								S72.001,80.24,71.41,80.24z M71.297,74.09c-0.473,0-0.823,0.208-1.054,0.623c-0.23,0.416-0.345,1.066-0.345,1.953v0.185
								c0,0.989,0.116,1.716,0.351,2.182c0.234,0.465,0.592,0.697,1.071,0.697c0.444,0,0.774-0.23,0.991-0.691
								c0.216-0.461,0.324-1.179,0.324-2.152c0-0.93-0.101-1.628-0.304-2.096C72.13,74.323,71.785,74.09,71.297,74.09z"/>
							<path style="fill:#FFFFFF;" d="M76.916,80.121l-0.071-0.902h-0.023c-0.31,0.681-0.778,1.021-1.404,1.021
								c-0.421,0-0.759-0.168-1.016-0.502c-0.256-0.334-0.384-0.782-0.384-1.345c0-0.613,0.185-1.099,0.554-1.457
								s0.887-0.554,1.554-0.585l0.696-0.035v-0.535c0-0.602-0.075-1.039-0.227-1.314c-0.15-0.275-0.4-0.412-0.75-0.412
								c-0.368,0-0.746,0.12-1.131,0.361l-0.243-0.445c0.448-0.276,0.918-0.415,1.41-0.415c0.531,0,0.914,0.167,1.148,0.502
								c0.234,0.334,0.352,0.893,0.352,1.677v4.387H76.916z M75.542,79.759c0.404,0,0.719-0.198,0.943-0.597
								c0.224-0.397,0.336-0.96,0.336-1.688v-0.671l-0.673,0.035c-0.52,0.028-0.905,0.172-1.157,0.431
								c-0.252,0.26-0.378,0.639-0.378,1.137c0,0.467,0.083,0.81,0.25,1.027C75.029,79.65,75.256,79.759,75.542,79.759z"/>
							<path style="fill:#FFFFFF;" d="M80.996,73.567c1.262,0,1.893,1.106,1.893,3.318c0,1.093-0.156,1.925-0.47,2.496
								c-0.313,0.572-0.766,0.858-1.357,0.858c-0.309,0-0.591-0.086-0.845-0.256s-0.464-0.421-0.631-0.754h-0.048l-0.077,0.891
								h-0.464v-9.237h0.565v2.868l-0.024,0.777h0.048C79.927,73.888,80.397,73.567,80.996,73.567z M80.973,74.09
								c-0.496,0-0.855,0.218-1.077,0.653c-0.223,0.435-0.333,1.149-0.333,2.143v0.148c0,1.797,0.478,2.695,1.434,2.695
								c0.437,0,0.763-0.231,0.979-0.694c0.216-0.464,0.324-1.18,0.324-2.149c0-0.93-0.105-1.628-0.315-2.096
								C81.774,74.323,81.437,74.09,80.973,74.09z"/>
							<path style="fill:#FFFFFF;" d="M83.997,71.894c0-0.178,0.037-0.316,0.11-0.416c0.073-0.099,0.168-0.148,0.283-0.148
								c0.106,0,0.192,0.05,0.256,0.148c0.063,0.1,0.095,0.238,0.095,0.416c0,0.17-0.031,0.306-0.095,0.406
								c-0.063,0.102-0.149,0.151-0.256,0.151c-0.115,0-0.21-0.05-0.283-0.151C84.034,72.199,83.997,72.063,83.997,71.894z
								 M84.646,80.121h-0.565v-6.44h0.565V80.121z"/>
							<path style="fill:#FFFFFF;" d="M87.182,80.121h-0.565v-9.237h0.565V80.121z"/>
							<path style="fill:#FFFFFF;" d="M89.067,71.894c0-0.178,0.037-0.316,0.11-0.416c0.073-0.099,0.168-0.148,0.283-0.148
								c0.106,0,0.192,0.05,0.256,0.148c0.063,0.1,0.095,0.238,0.095,0.416c0,0.17-0.031,0.306-0.095,0.406
								c-0.063,0.102-0.149,0.151-0.256,0.151c-0.115,0-0.21-0.05-0.283-0.151C89.104,72.199,89.067,72.063,89.067,71.894z
								 M89.717,80.121h-0.565v-6.44h0.565V80.121z"/>
							<path style="fill:#FFFFFF;" d="M92.871,79.718c0.174,0,0.329-0.024,0.464-0.071v0.475c-0.175,0.079-0.398,0.119-0.673,0.119
								c-0.666,0-1-0.497-1-1.49v-4.571h-0.583v-0.332l0.571-0.166l0.185-1.532h0.393v1.532h1.024v0.498h-1.024v4.411
								c0,0.436,0.048,0.731,0.144,0.89C92.466,79.639,92.633,79.718,92.871,79.718z"/>
							<path style="fill:#FFFFFF;" d="M94.152,71.894c0-0.178,0.037-0.316,0.11-0.416c0.073-0.099,0.168-0.148,0.283-0.148
								c0.106,0,0.192,0.05,0.256,0.148c0.063,0.1,0.095,0.238,0.095,0.416c0,0.17-0.031,0.306-0.095,0.406
								c-0.063,0.102-0.149,0.151-0.256,0.151c-0.115,0-0.21-0.05-0.283-0.151C94.189,72.199,94.152,72.063,94.152,71.894z
								 M94.802,80.121h-0.565v-6.44h0.565V80.121z"/>
							<path style="fill:#FFFFFF;" d="M98.604,80.24c-0.683,0-1.207-0.29-1.574-0.87s-0.551-1.388-0.551-2.425
								c0-1.101,0.164-1.94,0.491-2.521c0.327-0.579,0.798-0.869,1.413-0.869c0.536,0,0.959,0.254,1.268,0.763
								c0.31,0.509,0.465,1.194,0.465,2.057v0.522h-3.06c0.008,0.938,0.141,1.641,0.399,2.107c0.258,0.467,0.648,0.7,1.172,0.7
								c0.405,0,0.831-0.132,1.279-0.397v0.546C99.495,80.111,99.061,80.24,98.604,80.24z M98.349,74.066
								c-0.778,0-1.204,0.773-1.28,2.32h2.482c0-0.708-0.108-1.271-0.324-1.691C99.01,74.276,98.718,74.066,98.349,74.066z"/>
							<path style="fill:#FFFFFF;" d="M103.879,78.507c0,0.542-0.143,0.966-0.429,1.272c-0.285,0.308-0.698,0.461-1.238,0.461
								c-0.293,0-0.551-0.038-0.773-0.113c-0.222-0.075-0.395-0.158-0.518-0.249v-0.659c0.146,0.146,0.341,0.265,0.583,0.354
								s0.49,0.133,0.744,0.133c0.333,0,0.596-0.108,0.786-0.326s0.285-0.509,0.285-0.872c0-0.285-0.068-0.525-0.205-0.722
								s-0.398-0.419-0.783-0.668c-0.44-0.276-0.74-0.498-0.901-0.665c-0.16-0.166-0.285-0.352-0.375-0.558
								c-0.089-0.206-0.134-0.451-0.134-0.736c0-0.463,0.156-0.846,0.47-1.148s0.713-0.454,1.196-0.454
								c0.521,0,0.955,0.123,1.304,0.368l-0.291,0.492c-0.326-0.217-0.671-0.326-1.036-0.326c-0.333,0-0.599,0.098-0.798,0.294
								c-0.198,0.195-0.297,0.454-0.297,0.774c0,0.285,0.067,0.523,0.202,0.716c0.135,0.191,0.421,0.424,0.857,0.697
								c0.428,0.281,0.722,0.506,0.88,0.674c0.159,0.168,0.277,0.354,0.354,0.558C103.84,78.007,103.879,78.241,103.879,78.507z"/>
						</g>
					</g>
					<g>
						<path style="fill:#FFFFFF;" d="M15.33,26.29c0.402-0.414,0.659-0.867,0.769-1.361c0.11-0.493,0.092-0.979-0.055-1.459
							c-0.147-0.479-0.406-0.905-0.775-1.277l-0.011-0.012c-0.375-0.367-0.8-0.623-1.278-0.767s-0.962-0.161-1.452-0.048
							c-0.491,0.112-0.942,0.37-1.355,0.773c-0.402,0.414-0.659,0.867-0.769,1.361c-0.11,0.493-0.092,0.979,0.055,1.459
							c0.147,0.479,0.406,0.905,0.775,1.277l0.011,0.012c0.375,0.367,0.8,0.623,1.278,0.767c0.478,0.144,0.962,0.16,1.452,0.048
							C14.466,26.951,14.917,26.693,15.33,26.29L15.33,26.29z M15.071,26.011c-0.337,0.33-0.715,0.543-1.134,0.64
							c-0.418,0.097-0.838,0.083-1.257-0.041c-0.419-0.124-0.798-0.352-1.137-0.683l-0.011-0.011
							c-0.333-0.336-0.563-0.711-0.689-1.125c-0.126-0.414-0.142-0.828-0.047-1.243s0.307-0.791,0.637-1.128
							c0.337-0.33,0.715-0.543,1.134-0.64c0.418-0.097,0.838-0.083,1.257,0.041c0.419,0.124,0.799,0.352,1.138,0.682l0.011,0.012
							c0.333,0.336,0.563,0.711,0.689,1.125c0.126,0.414,0.142,0.828,0.047,1.243S15.401,25.673,15.071,26.011L15.071,26.011z
							 M20.994,20.615c0.261-0.27,0.42-0.547,0.477-0.833c0.056-0.285,0.044-0.564-0.037-0.835l0.546,0.542l0.28-0.281l-2.937-2.916
							l-0.28,0.281l1.698,1.687c0.305,0.315,0.458,0.662,0.461,1.041c0.003,0.379-0.14,0.718-0.427,1.017
							c-0.301,0.294-0.621,0.432-0.96,0.415c-0.339-0.017-0.663-0.177-0.971-0.479l-1.745-1.732l-0.28,0.281l1.797,1.784
							c0.36,0.353,0.751,0.538,1.175,0.554C20.214,21.156,20.615,20.981,20.994,20.615L20.994,20.615z M24.829,16.634l0.28-0.281
							l-1.204-1.195c-0.316-0.32-0.525-0.646-0.627-0.979c-0.102-0.333-0.114-0.649-0.035-0.952c0.079-0.302,0.232-0.568,0.46-0.797
							l0.029-0.029l-0.31-0.308c-0.299,0.288-0.48,0.625-0.544,1.014c-0.063,0.389-0.021,0.775,0.128,1.159l-0.834-0.829
							l-0.28,0.281L24.829,16.634L24.829,16.634z"/>
						<g>
							<path style="fill:#FFFFFF;" d="M18.361,37.476l0.882-0.884l-1.619-1.607l1.629-1.632l1.618,1.606l0.882-0.884l-4.031-4.002
								l-0.882,0.884l1.595,1.584l-1.629,1.632l-1.595-1.584l-0.882,0.884L18.361,37.476L18.361,37.476z M26.112,29.847
								c0.412-0.422,0.685-0.885,0.819-1.391s0.136-1.005,0.005-1.499c-0.13-0.494-0.388-0.935-0.771-1.322l-0.012-0.011
								c-0.39-0.38-0.831-0.635-1.323-0.763c-0.492-0.128-0.989-0.124-1.492,0.012s-0.964,0.411-1.384,0.824
								c-0.412,0.421-0.685,0.885-0.819,1.391S21,28.092,21.13,28.586c0.131,0.494,0.388,0.935,0.771,1.322l0.012,0.012
								c0.39,0.38,0.831,0.635,1.323,0.763s0.99,0.124,1.492-0.012S25.691,30.26,26.112,29.847L26.112,29.847z M25.306,29.024
								c-0.242,0.236-0.51,0.39-0.806,0.459c-0.295,0.069-0.59,0.061-0.884-0.025s-0.558-0.244-0.793-0.474l-0.012-0.012
								c-0.349-0.358-0.533-0.764-0.552-1.217c-0.019-0.453,0.148-0.865,0.5-1.236c0.242-0.237,0.511-0.39,0.806-0.459
								c0.296-0.069,0.591-0.061,0.884,0.025c0.293,0.086,0.558,0.244,0.793,0.474l0.011,0.011c0.349,0.358,0.533,0.764,0.552,1.217
								C25.825,28.241,25.658,28.653,25.306,29.024L25.306,29.024z M31.274,24.594l0.768-0.77l-1.731-3.526l3.543,1.711l0.768-0.77
								l-2.689-5.403l-0.923,0.925l1.898,3.542l-3.641-1.819l-0.757,0.758l1.841,3.623l-3.561-1.877l-0.946,0.947L31.274,24.594
								L31.274,24.594z"/>
						</g>
					</g>
				</g>
			</g>
		</g>
	</g>
</g>
</svg>
