<?xml version="1.0" encoding="iso-8859-1"?>
<!-- Generator: Adobe Illustrator 16.0.0, SVG Export Plug-In . SVG Version: 6.00 Build 0)  -->
<!DOCTYPE svg PUBLIC "-//W3C//DTD SVG 1.1//EN" "http://www.w3.org/Graphics/SVG/1.1/DTD/svg11.dtd">
<svg version="1.1" id="Layer_1" xmlns="http://www.w3.org/2000/svg" xmlns:xlink="http://www.w3.org/1999/xlink" x="0px" y="0px"
	 width="190px" height="69px" viewBox="0 0 190 69" style="enable-background:new 0 0 190 69;" xml:space="preserve">
<g>
	<g>
		<g>
			<g>
				<path style="fill:#9B3467;" d="M55.362,37.533h2.682l2.356,7.681l2.551-7.714h2.145l2.551,7.714l2.356-7.681h2.616
					l-3.884,11.424h-2.178l-2.567-7.422l-2.568,7.422h-2.177L55.362,37.533z"/>
				<path style="fill:#9B3467;" d="M75.141,37.533h2.502v11.343h-2.502V37.533z"/>
				<path style="fill:#9B3467;" d="M81.122,37.533h2.502v9.074h5.671v2.269h-8.174V37.533z"/>
				<path style="fill:#9B3467;" d="M91.783,37.533h2.502v9.074h5.672v2.269h-8.174V37.533z"/>
				<path style="fill:#9B3467;" d="M111.739,44.403l-4.372-6.87h2.926l2.714,4.553l2.763-4.553h2.844l-4.371,6.821v4.521h-2.503
					V44.403z"/>
				<path style="fill:#9B3467;" d="M119.216,43.236v-0.032c0-3.225,2.552-5.866,6.062-5.866s6.029,2.609,6.029,5.834v0.032
					c0,3.225-2.552,5.866-6.062,5.866C121.734,49.07,119.216,46.462,119.216,43.236z M128.689,43.236v-0.032
					c0-1.944-1.43-3.565-3.444-3.565c-2.016,0-3.413,1.589-3.413,3.533v0.032c0,1.944,1.43,3.565,3.445,3.565
					C127.292,46.77,128.689,45.182,128.689,43.236z"/>
				<path style="fill:#9B3467;" d="M133.761,44.015v-6.481h2.502v6.417c0,1.847,0.927,2.803,2.454,2.803s2.454-0.924,2.454-2.723
					v-6.497h2.503v6.4c0,3.436-1.935,5.121-4.989,5.121C135.629,49.055,133.761,47.353,133.761,44.015z"/>
			</g>
		</g>
		<g>
			<g>
				<g>
					<path style="fill:#9B3467;" d="M56.24,56.79h2.697l2.99,4.797l2.99-4.797h2.697v11.344h-2.486v-7.405l-3.201,4.845h-0.065
						l-3.169-4.797v7.357H56.24V56.79z"/>
					<path style="fill:#9B3467;" d="M74.864,56.709h2.308l4.875,11.425h-2.616l-1.04-2.544h-4.81l-1.04,2.544h-2.551L74.864,56.709z
						 M77.497,63.386l-1.511-3.679l-1.512,3.679H77.497z"/>
					<path style="fill:#9B3467;" d="M84.161,56.79h2.502v4.959l4.615-4.959h3.022l-4.631,4.813l4.843,6.53h-3.006l-3.526-4.829
						l-1.316,1.361v3.468h-2.502V56.79z"/>
					<path style="fill:#9B3467;" d="M96.35,56.79h8.58v2.221h-6.094v2.301h5.362v2.22h-5.362v2.383h6.176v2.22H96.35V56.79z"/>
					<path style="fill:#9B3467;" d="M114.227,56.79h2.503v11.344h-2.503V56.79z"/>
					<path style="fill:#9B3467;" d="M122.855,59.092h-3.461V56.79h9.425v2.302h-3.461v9.042h-2.503V59.092z"/>
					<path style="fill:#9B3467;" d="M138.474,59.237l-1.982,0.486l-0.521-2.042l3.267-0.973h1.706v11.425h-2.47V59.237z"/>
					<path style="fill:#9B3467;" d="M144.065,62.494v-0.032c0-3.289,2.047-5.866,5.069-5.866c3.007,0,5.038,2.544,5.038,5.834v0.032
						c0,3.29-2.031,5.866-5.07,5.866S144.065,65.784,144.065,62.494z M151.605,62.494v-0.032c0-2.058-1.008-3.613-2.503-3.613
						s-2.47,1.507-2.47,3.581v0.032c0,2.074,0.991,3.614,2.502,3.614C150.646,66.076,151.605,64.553,151.605,62.494z"/>
					<path style="fill:#9B3467;" d="M156.254,62.494v-0.032c0-3.289,2.047-5.866,5.069-5.866c3.007,0,5.038,2.544,5.038,5.834v0.032
						c0,3.29-2.031,5.866-5.07,5.866S156.254,65.784,156.254,62.494z M163.794,62.494v-0.032c0-2.058-1.008-3.613-2.503-3.613
						s-2.47,1.507-2.47,3.581v0.032c0,2.074,0.991,3.614,2.502,3.614C162.835,66.076,163.794,64.553,163.794,62.494z"/>
					<path style="fill:#9B3467;" d="M168.297,59.594v-0.032c0-1.604,1.121-2.9,2.778-2.9c1.642,0,2.747,1.28,2.747,2.868v0.032
						c0,1.588-1.122,2.9-2.779,2.9C169.401,62.462,168.297,61.182,168.297,59.594z M177.738,56.79h1.934l-4.55,6.109l-3.754,5.234
						h-1.934l4.55-6.109L177.738,56.79z M170.003,59.529v0.032c0,0.762,0.423,1.426,1.072,1.426c0.683,0,1.04-0.664,1.04-1.394
						v-0.032c0-0.762-0.422-1.426-1.072-1.426C170.36,58.136,170.003,58.783,170.003,59.529z M175.284,65.396v-0.033
						c0-1.604,1.122-2.9,2.779-2.9c1.642,0,2.746,1.28,2.746,2.868v0.032c0,1.589-1.121,2.901-2.778,2.901
						C176.39,68.264,175.284,66.983,175.284,65.396z M179.104,65.396v-0.033c0-0.761-0.423-1.426-1.072-1.426
						c-0.683,0-1.04,0.648-1.04,1.394v0.032c0,0.762,0.422,1.427,1.072,1.427C178.746,66.789,179.104,66.124,179.104,65.396z"/>
					<path style="fill:#9B3467;" d="M185.116,61.651l0.082-0.08c2.047-0.081,2.844-0.616,2.844-1.475v-0.033
						c0-0.729-0.553-1.15-1.495-1.15c-0.91,0-1.69,0.373-2.438,1.118l-1.495-1.637c0.942-1.037,2.21-1.75,3.981-1.75
						c2.34,0,3.933,1.199,3.933,3.354v0.032c0,2.059-1.431,2.9-3.201,3.257l-0.179,0.989h-1.658L185.116,61.651z M184.954,65.541
						h2.633v2.593h-2.633V65.541z"/>
				</g>
			</g>
			<g>
				<polygon style="fill:#9B3467;" points="110.048,28.886 109.281,28.886 109.281,0.73 0.845,0.73 0.845,0.224 109.789,0.224 
					109.789,28.379 110.048,28.379 				"/>
			</g>
		</g>
	</g>
</g>
</svg>
