<?xml version="1.0" encoding="iso-8859-1"?>
<!-- Generator: Adobe Illustrator 16.0.0, SVG Export Plug-In . SVG Version: 6.00 Build 0)  -->
<!DOCTYPE svg PUBLIC "-//W3C//DTD SVG 1.1//EN" "http://www.w3.org/Graphics/SVG/1.1/DTD/svg11.dtd">
<svg version="1.1" id="Layer_1" xmlns="http://www.w3.org/2000/svg" xmlns:xlink="http://www.w3.org/1999/xlink" x="0px" y="0px"
	 width="181px" height="70px" viewBox="0 0 181 70" style="enable-background:new 0 0 181 70;" xml:space="preserve">
<g>
	<g>
		<g>
			<g>
				<path style="fill:#546A30;" d="M5.446,0.43H7.97l5.333,12.5h-2.862l-1.138-2.784H4.042L2.904,12.93H0.113L5.446,0.43z
					 M8.326,7.734L6.673,3.71L5.02,7.734H8.326z"/>
				<path style="fill:#546A30;" d="M15.4,0.518h2.524l5.831,7.642V0.518h2.702V12.93h-2.329l-6.026-7.89v7.89H15.4V0.518z"/>
				<path style="fill:#546A30;" d="M29.621,0.518h4.853c3.911,0,6.613,2.677,6.613,6.17v0.036c0,3.493-2.702,6.206-6.613,6.206
					h-4.853V0.518z M32.358,2.983v7.482h2.115c2.24,0,3.751-1.507,3.751-3.706V6.724c0-2.199-1.511-3.741-3.751-3.741H32.358z"/>
				<path style="fill:#546A30;" d="M48.054,0.518h2.738V12.93h-2.738V0.518z"/>
				<path style="fill:#546A30;" d="M56.906,3.036H53.12V0.518h10.31v2.518h-3.786v9.894h-2.738V3.036z"/>
				<path style="fill:#546A30;" d="M70.219,6.759V6.724c0-3.529,2.666-6.418,6.488-6.418c2.346,0,3.751,0.78,4.906,1.915
					l-1.742,2.004c-0.96-0.869-1.938-1.401-3.182-1.401c-2.098,0-3.608,1.737-3.608,3.865v0.036c0,2.127,1.476,3.9,3.608,3.9
					c1.422,0,2.293-0.567,3.271-1.454l1.742,1.755c-1.28,1.365-2.702,2.216-5.102,2.216C72.939,13.143,70.219,10.323,70.219,6.759z"
					/>
				<path style="fill:#546A30;" d="M88.226,0.43h2.524l5.333,12.5h-2.862l-1.137-2.784h-5.262l-1.138,2.784h-2.791L88.226,0.43z
					 M91.105,7.734L89.453,3.71l-1.653,4.024H91.105z"/>
				<path style="fill:#546A30;" d="M98.18,0.518h2.524l5.831,7.642V0.518h2.701V12.93h-2.328l-6.026-7.89v7.89H98.18V0.518z"/>
				<path style="fill:#546A30;" d="M116.471,0.518h2.737V5.43h5.049V0.518h2.737V12.93h-2.737V7.947h-5.049v4.982h-2.737V0.518z"/>
				<path style="fill:#546A30;" d="M130.176,0.518h9.386v2.429h-6.666v2.518h5.866v2.429h-5.866V10.5h6.755v2.429h-9.475V0.518z"/>
				<path style="fill:#546A30;" d="M141.872,0.518h2.737v9.929h6.204v2.482h-8.941V0.518z"/>
				<path style="fill:#546A30;" d="M153.035,0.518h5.084c2.969,0,4.765,1.755,4.765,4.291v0.036c0,2.872-2.24,4.361-5.031,4.361
					h-2.08v3.724h-2.737V0.518z M157.941,6.777c1.369,0,2.169-0.816,2.169-1.88V4.862c0-1.224-0.854-1.879-2.222-1.879h-2.116v3.794
					H157.941z"/>
			</g>
		</g>
		<g>
			<g>
				<g>
					<path style="fill:#546A30;" d="M0.984,35.976v-7.092h2.737v7.021c0,2.021,1.013,3.068,2.685,3.068
						c1.671,0,2.684-1.011,2.684-2.979v-7.11h2.737v7.004c0,3.758-2.115,5.603-5.457,5.603C3.028,41.49,0.984,39.628,0.984,35.976z"
						/>
					<path style="fill:#546A30;" d="M13.534,39.486l1.618-1.933c1.12,0.922,2.293,1.507,3.715,1.507c1.12,0,1.796-0.443,1.796-1.17
						v-0.035c0-0.691-0.427-1.047-2.507-1.578c-2.506-0.639-4.124-1.33-4.124-3.794v-0.036c0-2.252,1.813-3.741,4.355-3.741
						c1.813,0,3.359,0.567,4.622,1.578l-1.422,2.057c-1.103-0.762-2.187-1.223-3.235-1.223s-1.6,0.479-1.6,1.082v0.035
						c0,0.816,0.533,1.082,2.685,1.631c2.524,0.656,3.946,1.561,3.946,3.723v0.036c0,2.464-1.884,3.848-4.569,3.848
						C16.929,41.473,15.027,40.816,13.534,39.486z"/>
					<path style="fill:#546A30;" d="M30.296,39.486l1.618-1.933c1.12,0.922,2.293,1.507,3.715,1.507c1.12,0,1.795-0.443,1.795-1.17
						v-0.035c0-0.691-0.427-1.047-2.507-1.578c-2.506-0.639-4.124-1.33-4.124-3.794v-0.036c0-2.252,1.813-3.741,4.355-3.741
						c1.813,0,3.359,0.567,4.622,1.578l-1.422,2.057c-1.103-0.762-2.187-1.223-3.235-1.223s-1.6,0.479-1.6,1.082v0.035
						c0,0.816,0.533,1.082,2.684,1.631c2.524,0.656,3.947,1.561,3.947,3.723v0.036c0,2.464-1.884,3.848-4.569,3.848
						C33.691,41.473,31.789,40.816,30.296,39.486z"/>
					<path style="fill:#546A30;" d="M42.33,28.883h2.738v4.912h5.048v-4.912h2.738v12.412h-2.738v-4.982h-5.048v4.982H42.33V28.883z
						"/>
					<path style="fill:#546A30;" d="M60.301,28.795h2.524l5.333,12.5h-2.862l-1.138-2.784h-5.262l-1.138,2.784h-2.791L60.301,28.795
						z M63.181,36.1l-1.653-4.024L59.875,36.1H63.181z"/>
					<path style="fill:#546A30;" d="M70.255,28.883h5.084c2.969,0,4.764,1.755,4.764,4.291v0.036c0,2.872-2.24,4.361-5.031,4.361
						h-2.08v3.724h-2.738V28.883z M75.161,35.143c1.369,0,2.169-0.816,2.169-1.88v-0.035c0-1.224-0.854-1.879-2.222-1.879h-2.115
						v3.794H75.161z"/>
					<path style="fill:#546A30;" d="M81.951,28.883h9.387v2.429h-6.667v2.518h5.866v2.43h-5.866v2.606h6.755v2.429h-9.475V28.883z"
						/>
					<path style="fill:#546A30;" d="M97.273,28.883h2.934l2.577,8.405l2.791-8.44h2.347l2.791,8.44l2.577-8.405h2.862l-4.249,12.5
						h-2.382l-2.809-8.121l-2.809,8.121h-2.382L97.273,28.883z"/>
					<path style="fill:#546A30;" d="M118.053,28.883h2.737v4.912h5.049v-4.912h2.737v12.412h-2.737v-4.982h-5.049v4.982h-2.737
						V28.883z"/>
					<path style="fill:#546A30;" d="M131.207,35.125v-0.035c0-3.529,2.791-6.418,6.631-6.418c3.839,0,6.595,2.854,6.595,6.383v0.036
						c0,3.528-2.791,6.418-6.631,6.418S131.207,38.653,131.207,35.125z M141.57,35.125v-0.035c0-2.128-1.564-3.901-3.769-3.901
						s-3.733,1.737-3.733,3.865v0.036c0,2.127,1.564,3.901,3.77,3.901C140.042,38.99,141.57,37.252,141.57,35.125z"/>
					<path style="fill:#546A30;" d="M150.617,28.883h2.934l2.577,8.405l2.791-8.44h2.347l2.791,8.44l2.577-8.405h2.862l-4.249,12.5
						h-2.382l-2.809-8.121l-2.809,8.121h-2.382L150.617,28.883z"/>
					<path style="fill:#546A30;" d="M171.397,28.883h9.386v2.429h-6.666v2.518h5.866v2.43h-5.866v2.606h6.755v2.429h-9.475V28.883z"
						/>
				</g>
			</g>
			<g>
				<g>
					<g>
						<path style="fill:#546A30;" d="M0.22,57.237h2.933l2.578,8.404l2.791-8.44h2.347l2.791,8.44l2.578-8.404h2.862l-4.249,12.5
							h-2.382l-2.809-8.121l-2.809,8.121H4.468L0.22,57.237z"/>
						<path style="fill:#546A30;" d="M23.737,57.148h2.524l5.333,12.5h-2.862l-1.138-2.784h-5.262l-1.138,2.784h-2.791
							L23.737,57.148z M26.617,64.453l-1.653-4.024l-1.653,4.024H26.617z"/>
						<path style="fill:#546A30;" d="M33.691,57.237h2.524l5.831,7.642v-7.642h2.702v12.411h-2.329l-6.026-7.891v7.891h-2.702
							V57.237z"/>
						<path style="fill:#546A30;" d="M50.809,59.755h-3.786v-2.518h10.31v2.518h-3.786v9.894h-2.738V59.755z"/>
						<path style="fill:#546A30;" d="M66.558,59.755h-3.786v-2.518h10.31v2.518h-3.786v9.894h-2.738V59.755z"/>
						<path style="fill:#546A30;" d="M74.29,63.479v-0.036c0-3.528,2.791-6.418,6.63-6.418s6.595,2.854,6.595,6.383v0.035
							c0,3.528-2.791,6.419-6.631,6.419S74.29,67.007,74.29,63.479z M84.653,63.479v-0.036c0-2.127-1.564-3.9-3.769-3.9
							c-2.204,0-3.733,1.737-3.733,3.865v0.035c0,2.128,1.564,3.901,3.769,3.901S84.653,65.605,84.653,63.479z"/>
						<path style="fill:#546A30;" d="M95.158,57.237h5.777c1.422,0,2.542,0.39,3.253,1.099c0.569,0.567,0.854,1.259,0.854,2.11
							v0.035c0,1.401-0.747,2.181-1.636,2.678c1.44,0.55,2.329,1.383,2.329,3.05v0.035c0,2.27-1.849,3.404-4.657,3.404h-5.92V57.237
							z M102.322,60.907c0-0.815-0.64-1.276-1.796-1.276h-2.701v2.624h2.523c1.209,0,1.974-0.391,1.974-1.313V60.907z
							 M100.989,64.524h-3.164v2.73h3.253c1.209,0,1.938-0.426,1.938-1.348v-0.035C103.016,65.038,102.394,64.524,100.989,64.524z"
							/>
						<path style="fill:#546A30;" d="M107.867,57.237h9.386v2.429h-6.666v2.518h5.866v2.43h-5.866v2.606h6.755v2.429h-9.475V57.237z
							"/>
						<path style="fill:#546A30;" d="M119.013,63.479v-0.036c0-3.528,2.666-6.418,6.488-6.418c2.347,0,3.751,0.78,4.906,1.915
							l-1.742,2.003c-0.96-0.868-1.938-1.4-3.182-1.4c-2.098,0-3.609,1.737-3.609,3.865v0.035c0,2.128,1.476,3.901,3.609,3.901
							c1.422,0,2.293-0.567,3.271-1.454l1.742,1.755c-1.28,1.365-2.702,2.217-5.102,2.217
							C121.732,69.861,119.013,67.042,119.013,63.479z"/>
						<path style="fill:#546A30;" d="M131.723,63.479v-0.036c0-3.528,2.791-6.418,6.631-6.418c3.839,0,6.595,2.854,6.595,6.383
							v0.035c0,3.528-2.791,6.419-6.631,6.419S131.723,67.007,131.723,63.479z M142.086,63.479v-0.036c0-2.127-1.564-3.9-3.769-3.9
							s-3.733,1.737-3.733,3.865v0.035c0,2.128,1.564,3.901,3.77,3.901C140.558,67.344,142.086,65.605,142.086,63.479z"/>
						<path style="fill:#546A30;" d="M147.507,57.237h2.951l3.271,5.248L157,57.237h2.95v12.411h-2.72v-8.103l-3.502,5.301h-0.071
							l-3.466-5.248v8.05h-2.685V57.237z"/>
						<path style="fill:#546A30;" d="M162.758,57.237h9.386v2.429h-6.666v2.518h5.866v2.43h-5.866v2.606h6.755v2.429h-9.475V57.237z
							"/>
						<path style="fill:#546A30;" d="M174.063,66.812h2.879v2.837h-2.879V66.812z"/>
					</g>
				</g>
			</g>
		</g>
	</g>
</g>
</svg>
