<?xml version="1.0" encoding="utf-8"?>
<!-- Generator: Adobe Illustrator 16.0.0, SVG Export Plug-In . SVG Version: 6.00 Build 0)  -->
<!DOCTYPE svg PUBLIC "-//W3C//DTD SVG 1.1//EN" "http://www.w3.org/Graphics/SVG/1.1/DTD/svg11.dtd">
<svg version="1.1" id="Layer_1" xmlns="http://www.w3.org/2000/svg" xmlns:xlink="http://www.w3.org/1999/xlink" x="0px" y="0px"
	 width="200px" height="133px" viewBox="0 0 200 133" enable-background="new 0 0 200 133" xml:space="preserve">
<g>
	<g>
		<g>
			<g>
				<g>
					<path fill="#FFFFFF" d="M3.818,14.27H2.918V1.75h-2.67V0.89h6.239v0.86h-2.67V14.27z"/>
					<path fill="#FFFFFF" d="M12.546,14.27V7.424c0-0.896-0.118-1.533-0.354-1.908c-0.235-0.375-0.619-0.563-1.151-0.563
						c-0.704,0-1.233,0.311-1.587,0.934C9.099,6.509,8.921,7.492,8.921,8.834v5.436H8.05V0.03h0.872v4.622
						c0,0.421-0.012,0.772-0.037,1.053h0.073C9.154,5.21,9.449,4.827,9.843,4.556s0.806-0.408,1.234-0.408
						c0.844,0,1.443,0.275,1.798,0.824c0.354,0.549,0.532,1.367,0.532,2.453v6.846H12.546z"/>
					<path fill="#FFFFFF" d="M18.925,4.148c0.312,0,0.603,0.043,0.872,0.128l-0.211,0.869c-0.22-0.091-0.447-0.137-0.679-0.137
						c-0.336,0-0.65,0.172-0.94,0.517s-0.518,0.825-0.684,1.441c-0.165,0.616-0.248,1.297-0.248,2.041v5.262h-0.872V4.34h0.715
						l0.092,1.739h0.064C17.5,4.792,18.13,4.148,18.925,4.148z"/>
					<path fill="#FFFFFF" d="M26.354,9.282c0,1.672-0.265,2.952-0.793,3.839c-0.529,0.888-1.286,1.332-2.271,1.332
						c-0.973,0-1.717-0.444-2.234-1.332s-0.775-2.167-0.775-3.839c0-3.423,1.016-5.134,3.046-5.134c0.954,0,1.698,0.449,2.229,1.346
						C26.088,6.39,26.354,7.653,26.354,9.282z M21.188,9.282c0,1.434,0.171,2.517,0.514,3.249c0.342,0.732,0.878,1.098,1.606,1.098
						c1.425,0,2.138-1.449,2.138-4.347c0-2.874-0.713-4.311-2.138-4.311c-0.747,0-1.286,0.36-1.62,1.08
						C21.355,6.772,21.188,7.849,21.188,9.282z"/>
					<path fill="#FFFFFF" d="M29.213,4.34v6.479c0,0.982,0.118,1.699,0.353,2.151c0.235,0.451,0.598,0.677,1.087,0.677
						c0.752,0,1.304-0.303,1.656-0.91c0.352-0.607,0.527-1.588,0.527-2.942V4.34H33.7v9.93h-0.734l-0.11-1.391h-0.073
						c-0.214,0.506-0.511,0.896-0.89,1.167c-0.379,0.271-0.792,0.407-1.239,0.407c-0.801,0-1.387-0.284-1.757-0.851
						s-0.555-1.495-0.555-2.782V4.34H29.213z"/>
					<path fill="#FFFFFF" d="M41.704,4.34v0.613l-1.358,0.155c0.184,0.238,0.333,0.578,0.45,1.021s0.174,0.896,0.174,1.359
						c0,0.964-0.219,1.745-0.656,2.343c-0.437,0.598-1.014,0.897-1.729,0.897h-0.22l-0.192-0.019
						c-0.294,0.208-0.525,0.415-0.693,0.623c-0.168,0.208-0.252,0.448-0.252,0.723c0,0.281,0.11,0.499,0.331,0.654
						c0.22,0.156,0.517,0.233,0.89,0.233h0.624c0.887,0,1.575,0.229,2.064,0.687s0.734,1.12,0.734,1.986
						c0,0.97-0.329,1.739-0.986,2.306c-0.657,0.567-1.524,0.851-2.601,0.851c-0.899,0-1.59-0.227-2.074-0.682
						s-0.725-1.109-0.725-1.963c0-0.623,0.159-1.155,0.477-1.597c0.318-0.442,0.816-0.792,1.496-1.048
						c-0.306-0.134-0.552-0.32-0.739-0.558c-0.187-0.238-0.28-0.522-0.28-0.851c0-0.299,0.099-0.566,0.298-0.801
						c0.199-0.235,0.481-0.487,0.849-0.755c-0.508-0.231-0.892-0.607-1.151-1.125c-0.26-0.519-0.39-1.128-0.39-1.83
						c0-1.056,0.223-1.889,0.67-2.499c0.446-0.61,1.058-0.916,1.835-0.916c0.416,0,0.765,0.064,1.046,0.192H41.704z M36.345,16.055
						c0,0.628,0.164,1.12,0.491,1.473c0.327,0.354,0.821,0.531,1.482,0.531c0.82,0,1.47-0.214,1.95-0.641
						c0.48-0.427,0.721-1.013,0.721-1.757c0-0.598-0.164-1.06-0.491-1.387c-0.327-0.326-0.803-0.489-1.427-0.489h-0.642
						c-0.6,0-1.097,0.209-1.491,0.627C36.542,14.83,36.345,15.377,36.345,16.055z M36.887,7.58c0,0.812,0.15,1.426,0.45,1.844
						c0.299,0.418,0.697,0.627,1.192,0.627c1.064,0,1.597-0.854,1.597-2.563c0-0.824-0.136-1.467-0.408-1.931
						c-0.272-0.464-0.668-0.696-1.188-0.696c-0.532,0-0.939,0.238-1.22,0.714C37.027,6.052,36.887,6.72,36.887,7.58z"/>
					<path fill="#FFFFFF" d="M47.599,14.27V7.424c0-0.896-0.118-1.533-0.354-1.908c-0.235-0.375-0.619-0.563-1.151-0.563
						c-0.704,0-1.233,0.311-1.587,0.934c-0.355,0.622-0.532,1.604-0.532,2.947v5.436h-0.872V0.03h0.872v4.622
						c0,0.421-0.012,0.772-0.037,1.053h0.073c0.196-0.494,0.491-0.877,0.885-1.148s0.806-0.408,1.234-0.408
						c0.844,0,1.443,0.275,1.798,0.824c0.354,0.549,0.532,1.367,0.532,2.453v6.846H47.599z"/>
					<path fill="#FFFFFF" d="M59.129,14.27l-0.11-1.391h-0.037c-0.477,1.049-1.199,1.574-2.165,1.574
						c-0.648,0-1.17-0.258-1.564-0.773s-0.592-1.207-0.592-2.073c0-0.946,0.284-1.694,0.853-2.247
						c0.569-0.552,1.367-0.853,2.395-0.901l1.073-0.055V7.58c0-0.927-0.116-1.603-0.349-2.027c-0.232-0.424-0.618-0.636-1.156-0.636
						c-0.569,0-1.15,0.186-1.744,0.558l-0.376-0.687c0.691-0.427,1.416-0.641,2.174-0.641c0.82,0,1.41,0.258,1.771,0.773
						c0.361,0.516,0.542,1.377,0.542,2.585v6.763H59.129z M57.01,13.712c0.624,0,1.109-0.307,1.455-0.92
						c0.345-0.613,0.518-1.481,0.518-2.604V9.154l-1.037,0.055c-0.801,0.043-1.396,0.264-1.785,0.664
						c-0.389,0.4-0.583,0.984-0.583,1.752c0,0.72,0.128,1.248,0.385,1.583S56.569,13.712,57.01,13.712z"/>
					<path fill="#FFFFFF" d="M68.506,14.453c-0.998,0-1.748-0.432-2.253-1.295c-0.504-0.863-0.757-2.131-0.757-3.803
						c0-1.696,0.255-2.988,0.766-3.875s1.265-1.332,2.262-1.332c0.618,0,1.132,0.113,1.542,0.339l-0.339,0.769
						c-0.41-0.189-0.786-0.284-1.129-0.284c-1.462,0-2.193,1.455-2.193,4.366c0,2.886,0.731,4.329,2.193,4.329
						c0.435,0,0.905-0.098,1.413-0.293v0.732c-0.202,0.11-0.449,0.195-0.743,0.256C68.974,14.422,68.72,14.453,68.506,14.453z"/>
					<path fill="#FFFFFF" d="M77.153,9.282c0,1.672-0.265,2.952-0.793,3.839c-0.529,0.888-1.286,1.332-2.271,1.332
						c-0.973,0-1.717-0.444-2.234-1.332s-0.775-2.167-0.775-3.839c0-3.423,1.016-5.134,3.046-5.134c0.954,0,1.698,0.449,2.229,1.346
						C76.887,6.39,77.153,7.653,77.153,9.282z M71.987,9.282c0,1.434,0.171,2.517,0.514,3.249c0.342,0.732,0.878,1.098,1.606,1.098
						c1.425,0,2.138-1.449,2.138-4.347c0-2.874-0.713-4.311-2.138-4.311c-0.747,0-1.286,0.36-1.62,1.08
						C72.154,6.772,71.987,7.849,71.987,9.282z"/>
					<path fill="#FFFFFF" d="M80.048,14.27h-0.872V0.03h0.872V14.27z"/>
					<path fill="#FFFFFF" d="M83.6,14.27h-0.872V0.03H83.6V14.27z"/>
					<path fill="#FFFFFF" d="M90.133,14.27l-0.11-1.391h-0.037c-0.477,1.049-1.199,1.574-2.165,1.574
						c-0.648,0-1.17-0.258-1.564-0.773s-0.592-1.207-0.592-2.073c0-0.946,0.284-1.694,0.853-2.247
						c0.569-0.552,1.367-0.853,2.395-0.901l1.073-0.055V7.58c0-0.927-0.116-1.603-0.349-2.027c-0.232-0.424-0.618-0.636-1.156-0.636
						c-0.569,0-1.15,0.186-1.744,0.558l-0.376-0.687c0.691-0.427,1.416-0.641,2.174-0.641c0.82,0,1.41,0.258,1.771,0.773
						c0.361,0.516,0.542,1.377,0.542,2.585v6.763H90.133z M88.013,13.712c0.624,0,1.109-0.307,1.455-0.92
						c0.345-0.613,0.518-1.481,0.518-2.604V9.154l-1.037,0.055c-0.801,0.043-1.396,0.264-1.785,0.664
						c-0.389,0.4-0.583,0.984-0.583,1.752c0,0.72,0.128,1.248,0.385,1.583S87.573,13.712,88.013,13.712z"/>
					<path fill="#FFFFFF" d="M96.481,4.167c1.945,0,2.917,1.706,2.917,5.116c0,1.684-0.242,2.967-0.725,3.849
						c-0.483,0.881-1.181,1.322-2.092,1.322c-0.477,0-0.911-0.131-1.303-0.394s-0.716-0.65-0.973-1.162h-0.073l-0.12,1.373h-0.715
						V0.03h0.872v4.42l-0.037,1.199h0.073C94.832,4.661,95.557,4.167,96.481,4.167z M96.444,4.972c-0.765,0-1.318,0.336-1.661,1.007
						C94.44,6.65,94.27,7.751,94.27,9.282v0.229c0,2.77,0.737,4.155,2.211,4.155c0.673,0,1.176-0.357,1.509-1.071
						c0.333-0.714,0.5-1.818,0.5-3.313c0-1.434-0.162-2.51-0.486-3.23C97.68,5.332,97.16,4.972,96.444,4.972z"/>
					<path fill="#FFFFFF" d="M107.141,9.282c0,1.672-0.264,2.952-0.793,3.839s-1.286,1.332-2.271,1.332
						c-0.973,0-1.717-0.444-2.234-1.332c-0.517-0.888-0.775-2.167-0.775-3.839c0-3.423,1.016-5.134,3.047-5.134
						c0.954,0,1.697,0.449,2.229,1.346C106.875,6.39,107.141,7.653,107.141,9.282z M101.976,9.282c0,1.434,0.171,2.517,0.514,3.249
						c0.343,0.732,0.878,1.098,1.606,1.098c1.424,0,2.137-1.449,2.137-4.347c0-2.874-0.713-4.311-2.137-4.311
						c-0.747,0-1.287,0.36-1.62,1.08C102.143,6.772,101.976,7.849,101.976,9.282z"/>
					<path fill="#FFFFFF" d="M111.927,4.148c0.312,0,0.603,0.043,0.872,0.128l-0.211,0.869c-0.221-0.091-0.447-0.137-0.68-0.137
						c-0.336,0-0.65,0.172-0.94,0.517s-0.519,0.825-0.684,1.441s-0.247,1.297-0.247,2.041v5.262h-0.872V4.34h0.716l0.092,1.739
						h0.064C110.502,4.792,111.131,4.148,111.927,4.148z"/>
					<path fill="#FFFFFF" d="M117.603,14.27l-0.11-1.391h-0.037c-0.477,1.049-1.198,1.574-2.164,1.574
						c-0.648,0-1.17-0.258-1.564-0.773s-0.592-1.207-0.592-2.073c0-0.946,0.283-1.694,0.853-2.247
						c0.569-0.552,1.367-0.853,2.396-0.901l1.072-0.055V7.58c0-0.927-0.115-1.603-0.348-2.027c-0.232-0.424-0.618-0.636-1.156-0.636
						c-0.568,0-1.15,0.186-1.744,0.558l-0.375-0.687c0.69-0.427,1.416-0.641,2.174-0.641c0.82,0,1.41,0.258,1.771,0.773
						c0.36,0.516,0.541,1.377,0.541,2.585v6.763H117.603z M115.482,13.712c0.625,0,1.109-0.307,1.455-0.92s0.518-1.481,0.518-2.604
						V9.154l-1.036,0.055c-0.802,0.043-1.396,0.264-1.784,0.664c-0.389,0.4-0.583,0.984-0.583,1.752c0,0.72,0.128,1.248,0.386,1.583
						C114.693,13.544,115.043,13.712,115.482,13.712z"/>
					<path fill="#FFFFFF" d="M122.693,13.647c0.27,0,0.508-0.036,0.716-0.109v0.732c-0.269,0.122-0.614,0.183-1.036,0.183
						c-1.028,0-1.542-0.766-1.542-2.297V5.109h-0.899V4.597l0.881-0.256l0.285-2.361h0.605V4.34h1.578v0.769h-1.578v6.8
						c0,0.671,0.072,1.129,0.22,1.373C122.069,13.526,122.326,13.647,122.693,13.647z"/>
					<path fill="#FFFFFF" d="M124.803,1.586c0-0.275,0.057-0.488,0.17-0.641c0.113-0.153,0.258-0.229,0.436-0.229
						c0.165,0,0.297,0.076,0.395,0.229c0.098,0.152,0.146,0.366,0.146,0.641c0,0.262-0.049,0.471-0.146,0.626
						c-0.098,0.156-0.229,0.233-0.395,0.233c-0.178,0-0.322-0.078-0.436-0.233C124.859,2.057,124.803,1.848,124.803,1.586z
						 M125.803,14.27h-0.871V4.34h0.871V14.27z"/>
					<path fill="#FFFFFF" d="M129.592,14.27l-2.348-9.93h0.881l1.486,6.388c0.171,0.738,0.336,1.543,0.495,2.416h0.073
						c0.043-0.317,0.104-0.671,0.184-1.062c0.08-0.39,0.682-2.971,1.808-7.742h0.881l-2.423,9.93H129.592z"/>
					<path fill="#FFFFFF" d="M137.394,14.453c-1.052,0-1.86-0.447-2.427-1.341c-0.566-0.894-0.849-2.14-0.849-3.738
						c0-1.696,0.253-2.991,0.757-3.885c0.505-0.894,1.23-1.341,2.18-1.341c0.825,0,1.477,0.392,1.954,1.176s0.716,1.841,0.716,3.171
						v0.806h-4.717c0.013,1.446,0.217,2.529,0.615,3.249c0.397,0.72,1,1.08,1.808,1.08c0.624,0,1.281-0.204,1.973-0.613v0.842
						C138.768,14.255,138.098,14.453,137.394,14.453z M136.999,4.935c-1.198,0-1.856,1.193-1.973,3.579h3.826
						c0-1.092-0.167-1.961-0.5-2.608C138.02,5.259,137.568,4.935,136.999,4.935z"/>
					<path fill="#FFFFFF" d="M150.455,14.453c-0.501,0-0.959-0.139-1.371-0.417c-0.413-0.277-0.727-0.657-0.94-1.139h-0.083
						l0.064,1.089v4.786h-0.871V4.34h0.715l0.092,1.364h0.083c0.244-0.5,0.558-0.885,0.94-1.153
						c0.382-0.269,0.799-0.403,1.252-0.403c1.945,0,2.918,1.711,2.918,5.134c0,1.653-0.238,2.929-0.715,3.826
						C152.061,14.004,151.367,14.453,150.455,14.453z M150.281,4.972c-0.729,0-1.27,0.32-1.624,0.961s-0.532,1.645-0.532,3.011
						v0.284c0,1.525,0.18,2.646,0.541,3.363s0.912,1.075,1.652,1.075c0.685,0,1.193-0.355,1.527-1.066
						c0.333-0.71,0.5-1.816,0.5-3.317c0-1.434-0.156-2.51-0.468-3.23C151.566,5.332,151.033,4.972,150.281,4.972z"/>
					<path fill="#FFFFFF" d="M155.262,1.586c0-0.275,0.057-0.488,0.17-0.641c0.113-0.153,0.258-0.229,0.436-0.229
						c0.166,0,0.297,0.076,0.395,0.229c0.098,0.152,0.147,0.366,0.147,0.641c0,0.262-0.05,0.471-0.147,0.626
						c-0.098,0.156-0.229,0.233-0.395,0.233c-0.178,0-0.322-0.078-0.436-0.233C155.318,2.057,155.262,1.848,155.262,1.586z
						 M156.262,14.27h-0.871V4.34h0.871V14.27z"/>
					<path fill="#FFFFFF" d="M159.813,14.27h-0.872V0.03h0.872V14.27z"/>
					<path fill="#FFFFFF" d="M168.1,9.282c0,1.672-0.265,2.952-0.793,3.839c-0.529,0.888-1.287,1.332-2.271,1.332
						c-0.973,0-1.717-0.444-2.234-1.332s-0.775-2.167-0.775-3.839c0-3.423,1.016-5.134,3.047-5.134c0.953,0,1.697,0.449,2.229,1.346
						C167.834,6.39,168.1,7.653,168.1,9.282z M162.934,9.282c0,1.434,0.172,2.517,0.514,3.249c0.343,0.732,0.879,1.098,1.606,1.098
						c1.425,0,2.138-1.449,2.138-4.347c0-2.874-0.713-4.311-2.138-4.311c-0.747,0-1.286,0.36-1.62,1.08
						C163.101,6.772,162.934,7.849,162.934,9.282z"/>
					<path fill="#FFFFFF" d="M171.949,13.647c0.27,0,0.508-0.036,0.716-0.109v0.732c-0.269,0.122-0.614,0.183-1.036,0.183
						c-1.028,0-1.542-0.766-1.542-2.297V5.109h-0.899V4.597l0.881-0.256l0.285-2.361h0.605V4.34h1.578v0.769h-1.578v6.8
						c0,0.671,0.072,1.129,0.22,1.373C171.325,13.526,171.582,13.647,171.949,13.647z"/>
					<path fill="#FFFFFF" d="M180.071,13.647c0.269,0,0.508-0.036,0.716-0.109v0.732c-0.27,0.122-0.615,0.183-1.037,0.183
						c-1.027,0-1.541-0.766-1.541-2.297V5.109h-0.899V4.597l0.881-0.256l0.284-2.361h0.605V4.34h1.578v0.769h-1.578v6.8
						c0,0.671,0.074,1.129,0.221,1.373S179.705,13.647,180.071,13.647z"/>
					<path fill="#FFFFFF" d="M186.805,14.27V7.424c0-0.896-0.117-1.533-0.354-1.908c-0.234-0.375-0.619-0.563-1.15-0.563
						c-0.704,0-1.233,0.311-1.588,0.934c-0.355,0.622-0.532,1.604-0.532,2.947v5.436h-0.872V0.03h0.872v4.622
						c0,0.421-0.013,0.772-0.036,1.053h0.072c0.196-0.494,0.491-0.877,0.886-1.148s0.806-0.408,1.234-0.408
						c0.845,0,1.443,0.275,1.798,0.824c0.355,0.549,0.533,1.367,0.533,2.453v6.846H186.805z"/>
					<path fill="#FFFFFF" d="M194.277,14.27l-0.11-1.391h-0.037c-0.478,1.049-1.198,1.574-2.165,1.574
						c-0.648,0-1.17-0.258-1.564-0.773s-0.592-1.207-0.592-2.073c0-0.946,0.284-1.694,0.854-2.247
						c0.568-0.552,1.367-0.853,2.395-0.901l1.073-0.055V7.58c0-0.927-0.116-1.603-0.349-2.027c-0.232-0.424-0.617-0.636-1.156-0.636
						c-0.568,0-1.15,0.186-1.743,0.558l-0.376-0.687c0.691-0.427,1.416-0.641,2.174-0.641c0.82,0,1.41,0.258,1.771,0.773
						c0.361,0.516,0.541,1.377,0.541,2.585v6.763H194.277z M192.157,13.712c0.624,0,1.108-0.307,1.454-0.92s0.519-1.481,0.519-2.604
						V9.154l-1.036,0.055c-0.802,0.043-1.396,0.264-1.785,0.664c-0.389,0.4-0.582,0.984-0.582,1.752c0,0.72,0.128,1.248,0.385,1.583
						S191.717,13.712,192.157,13.712z"/>
					<path fill="#FFFFFF" d="M199.367,13.647c0.27,0,0.508-0.036,0.716-0.109v0.732c-0.269,0.122-0.614,0.183-1.036,0.183
						c-1.028,0-1.542-0.766-1.542-2.297V5.109h-0.899V4.597l0.881-0.256l0.285-2.361h0.605V4.34h1.578v0.769h-1.578v6.8
						c0,0.671,0.072,1.129,0.22,1.373C198.743,13.526,199,13.647,199.367,13.647z"/>
				</g>
			</g>
			<g>
				<g>
					<g>
						<path fill="#FFFFFF" d="M4.534,26.956c1.945,0,2.917,1.706,2.917,5.116c0,1.684-0.242,2.967-0.725,3.849
							c-0.483,0.881-1.181,1.322-2.092,1.322c-0.477,0-0.911-0.131-1.303-0.394s-0.716-0.65-0.973-1.162H2.286l-0.12,1.373H1.451
							v-14.24h0.872v4.42l-0.037,1.199h0.073C2.885,27.45,3.61,26.956,4.534,26.956z M4.497,27.761
							c-0.765,0-1.318,0.336-1.661,1.007c-0.343,0.671-0.514,1.772-0.514,3.304V32.3c0,2.77,0.737,4.155,2.211,4.155
							c0.673,0,1.176-0.357,1.509-1.071c0.333-0.714,0.5-1.818,0.5-3.313c0-1.434-0.162-2.51-0.486-3.23
							C5.732,28.121,5.212,27.761,4.497,27.761z"/>
						<path fill="#FFFFFF" d="M12.35,26.937c0.312,0,0.603,0.043,0.872,0.128l-0.211,0.869c-0.22-0.091-0.447-0.137-0.679-0.137
							c-0.336,0-0.65,0.172-0.94,0.517s-0.518,0.825-0.684,1.441c-0.165,0.616-0.248,1.297-0.248,2.041v5.262H9.588v-9.93h0.715
							l0.092,1.739h0.064C10.924,27.581,11.554,26.937,12.35,26.937z"/>
						<path fill="#FFFFFF" d="M14.551,24.375c0-0.275,0.056-0.488,0.169-0.641c0.113-0.153,0.258-0.229,0.436-0.229
							c0.165,0,0.296,0.076,0.395,0.229c0.098,0.152,0.147,0.366,0.147,0.641c0,0.262-0.049,0.471-0.147,0.626
							c-0.098,0.156-0.229,0.233-0.395,0.233c-0.178,0-0.323-0.078-0.436-0.233C14.607,24.846,14.551,24.637,14.551,24.375z
							 M15.551,37.059H14.68v-9.93h0.872V37.059z"/>
						<path fill="#FFFFFF" d="M22.727,37.059v-6.846c0-1.647-0.49-2.471-1.468-2.471c-0.747,0-1.292,0.308-1.638,0.924
							c-0.346,0.616-0.519,1.596-0.519,2.938v5.455h-0.872v-9.93h0.734l0.073,1.382h0.083c0.208-0.5,0.507-0.888,0.899-1.162
							s0.811-0.412,1.257-0.412c0.771,0,1.349,0.258,1.734,0.773c0.385,0.516,0.578,1.344,0.578,2.485v6.864H22.727z"/>
						<path fill="#FFFFFF" d="M31.557,27.129v0.613l-1.358,0.155c0.184,0.238,0.333,0.578,0.45,1.021s0.174,0.896,0.174,1.359
							c0,0.964-0.219,1.745-0.656,2.343c-0.437,0.598-1.014,0.897-1.729,0.897h-0.22l-0.192-0.019
							c-0.294,0.208-0.525,0.415-0.693,0.623c-0.168,0.208-0.252,0.448-0.252,0.723c0,0.281,0.11,0.499,0.331,0.654
							c0.22,0.156,0.517,0.233,0.89,0.233h0.624c0.887,0,1.575,0.229,2.064,0.687s0.734,1.12,0.734,1.986
							c0,0.97-0.329,1.739-0.986,2.306c-0.657,0.567-1.524,0.851-2.601,0.851c-0.899,0-1.59-0.227-2.074-0.682
							s-0.725-1.109-0.725-1.963c0-0.623,0.159-1.155,0.477-1.597c0.318-0.442,0.816-0.792,1.496-1.048
							c-0.306-0.134-0.552-0.32-0.739-0.558c-0.187-0.238-0.28-0.522-0.28-0.851c0-0.299,0.099-0.566,0.298-0.801
							c0.199-0.235,0.481-0.487,0.849-0.755c-0.508-0.231-0.892-0.607-1.151-1.125c-0.26-0.519-0.39-1.128-0.39-1.83
							c0-1.056,0.223-1.889,0.67-2.499c0.446-0.61,1.058-0.916,1.835-0.916c0.416,0,0.765,0.064,1.046,0.192H31.557z M26.198,38.844
							c0,0.628,0.164,1.12,0.491,1.473c0.327,0.354,0.821,0.531,1.482,0.531c0.82,0,1.47-0.214,1.95-0.641
							c0.48-0.427,0.721-1.013,0.721-1.757c0-0.598-0.164-1.06-0.491-1.387c-0.327-0.326-0.803-0.489-1.427-0.489h-0.642
							c-0.6,0-1.097,0.209-1.491,0.627C26.396,37.619,26.198,38.167,26.198,38.844z M26.74,30.369c0,0.812,0.15,1.426,0.45,1.844
							c0.299,0.418,0.697,0.627,1.192,0.627c1.064,0,1.597-0.854,1.597-2.563c0-0.824-0.136-1.467-0.408-1.931
							c-0.272-0.464-0.668-0.696-1.188-0.696c-0.532,0-0.939,0.238-1.22,0.714C26.88,28.841,26.74,29.509,26.74,30.369z"/>
						<path fill="#FFFFFF" d="M36.865,34.57c0,0.836-0.22,1.49-0.661,1.963c-0.44,0.473-1.077,0.709-1.909,0.709
							c-0.453,0-0.85-0.058-1.193-0.174c-0.342-0.116-0.608-0.244-0.798-0.384v-1.016c0.226,0.226,0.526,0.407,0.899,0.544
							s0.755,0.206,1.147,0.206c0.514,0,0.917-0.168,1.211-0.503c0.294-0.335,0.44-0.784,0.44-1.345c0-0.439-0.105-0.81-0.316-1.112
							c-0.211-0.302-0.613-0.646-1.207-1.03c-0.679-0.427-1.142-0.769-1.39-1.025c-0.248-0.256-0.44-0.543-0.578-0.86
							c-0.138-0.317-0.206-0.695-0.206-1.135c0-0.714,0.241-1.304,0.725-1.771s1.098-0.7,1.844-0.7c0.801,0,1.471,0.189,2.009,0.568
							l-0.449,0.759c-0.502-0.335-1.034-0.503-1.597-0.503c-0.514,0-0.924,0.151-1.229,0.453c-0.306,0.302-0.459,0.7-0.459,1.194
							c0,0.439,0.104,0.807,0.312,1.103s0.648,0.654,1.321,1.075c0.661,0.433,1.113,0.779,1.358,1.039s0.427,0.546,0.546,0.86
							C36.805,33.8,36.865,34.161,36.865,34.57z"/>
						<path fill="#FFFFFF" d="M44.928,36.437c0.269,0,0.508-0.036,0.716-0.109v0.732c-0.269,0.122-0.615,0.183-1.037,0.183
							c-1.028,0-1.542-0.766-1.542-2.297v-7.047h-0.899v-0.512l0.881-0.256l0.285-2.361h0.605v2.361h1.578v0.769h-1.578v6.8
							c0,0.671,0.073,1.129,0.22,1.373C44.304,36.315,44.561,36.437,44.928,36.437z"/>
						<path fill="#FFFFFF" d="M52.771,32.071c0,1.672-0.265,2.952-0.793,3.839c-0.529,0.888-1.286,1.332-2.271,1.332
							c-0.973,0-1.717-0.444-2.234-1.332s-0.775-2.167-0.775-3.839c0-3.423,1.016-5.134,3.046-5.134
							c0.954,0,1.698,0.449,2.229,1.346C52.505,29.179,52.771,30.442,52.771,32.071z M47.606,32.071
							c0,1.434,0.171,2.517,0.514,3.249c0.342,0.732,0.878,1.098,1.606,1.098c1.425,0,2.138-1.449,2.138-4.347
							c0-2.874-0.713-4.311-2.138-4.311c-0.747,0-1.286,0.36-1.62,1.08C47.772,29.561,47.606,30.638,47.606,32.071z"/>
						<path fill="#FFFFFF" d="M60.007,27.129v0.613l-1.358,0.155c0.184,0.238,0.333,0.578,0.45,1.021s0.174,0.896,0.174,1.359
							c0,0.964-0.219,1.745-0.656,2.343c-0.437,0.598-1.014,0.897-1.729,0.897h-0.22l-0.192-0.019
							c-0.294,0.208-0.525,0.415-0.693,0.623c-0.168,0.208-0.252,0.448-0.252,0.723c0,0.281,0.11,0.499,0.331,0.654
							c0.22,0.156,0.517,0.233,0.89,0.233h0.624c0.887,0,1.575,0.229,2.064,0.687s0.734,1.12,0.734,1.986
							c0,0.97-0.329,1.739-0.986,2.306c-0.657,0.567-1.524,0.851-2.601,0.851c-0.899,0-1.59-0.227-2.074-0.682
							s-0.725-1.109-0.725-1.963c0-0.623,0.159-1.155,0.477-1.597c0.318-0.442,0.816-0.792,1.496-1.048
							c-0.306-0.134-0.552-0.32-0.739-0.558c-0.187-0.238-0.28-0.522-0.28-0.851c0-0.299,0.099-0.566,0.298-0.801
							c0.199-0.235,0.481-0.487,0.849-0.755c-0.508-0.231-0.892-0.607-1.151-1.125c-0.26-0.519-0.39-1.128-0.39-1.83
							c0-1.056,0.223-1.889,0.67-2.499c0.446-0.61,1.058-0.916,1.835-0.916c0.416,0,0.765,0.064,1.046,0.192H60.007z M54.648,38.844
							c0,0.628,0.164,1.12,0.491,1.473c0.327,0.354,0.821,0.531,1.482,0.531c0.82,0,1.47-0.214,1.95-0.641
							c0.48-0.427,0.721-1.013,0.721-1.757c0-0.598-0.164-1.06-0.491-1.387c-0.327-0.326-0.803-0.489-1.427-0.489h-0.642
							c-0.6,0-1.097,0.209-1.491,0.627C54.846,37.619,54.648,38.167,54.648,38.844z M55.19,30.369c0,0.812,0.15,1.426,0.45,1.844
							c0.299,0.418,0.697,0.627,1.192,0.627c1.064,0,1.597-0.854,1.597-2.563c0-0.824-0.136-1.467-0.408-1.931
							c-0.272-0.464-0.668-0.696-1.188-0.696c-0.532,0-0.939,0.238-1.22,0.714C55.331,28.841,55.19,29.509,55.19,30.369z"/>
						<path fill="#FFFFFF" d="M64.232,37.242c-1.052,0-1.861-0.447-2.427-1.341c-0.566-0.894-0.849-2.14-0.849-3.738
							c0-1.696,0.252-2.991,0.757-3.885c0.505-0.894,1.231-1.341,2.179-1.341c0.826,0,1.478,0.392,1.955,1.176
							s0.715,1.841,0.715,3.171v0.806h-4.716c0.012,1.446,0.217,2.529,0.615,3.249c0.397,0.72,1,1.08,1.808,1.08
							c0.624,0,1.281-0.204,1.973-0.613v0.842C65.606,37.044,64.936,37.242,64.232,37.242z M63.838,27.724
							c-1.199,0-1.856,1.193-1.973,3.579h3.826c0-1.092-0.167-1.961-0.5-2.608C64.858,28.048,64.407,27.724,63.838,27.724z"/>
						<path fill="#FFFFFF" d="M70.844,36.437c0.269,0,0.508-0.036,0.716-0.109v0.732c-0.269,0.122-0.615,0.183-1.037,0.183
							c-1.028,0-1.542-0.766-1.542-2.297v-7.047h-0.899v-0.512l0.881-0.256l0.285-2.361h0.605v2.361h1.578v0.769h-1.578v6.8
							c0,0.671,0.073,1.129,0.22,1.373C70.22,36.315,70.478,36.437,70.844,36.437z"/>
						<path fill="#FFFFFF" d="M77.578,37.059v-6.846c0-0.896-0.118-1.533-0.354-1.908c-0.235-0.375-0.619-0.563-1.151-0.563
							c-0.704,0-1.233,0.311-1.587,0.934c-0.355,0.622-0.532,1.604-0.532,2.947v5.436h-0.872v-14.24h0.872v4.622
							c0,0.421-0.012,0.772-0.037,1.053h0.073c0.196-0.494,0.491-0.877,0.885-1.148s0.806-0.408,1.234-0.408
							c0.844,0,1.443,0.275,1.798,0.824c0.354,0.549,0.532,1.367,0.532,2.453v6.846H77.578z"/>
						<path fill="#FFFFFF" d="M84.022,37.242c-1.052,0-1.861-0.447-2.427-1.341c-0.566-0.894-0.849-2.14-0.849-3.738
							c0-1.696,0.252-2.991,0.757-3.885c0.505-0.894,1.231-1.341,2.179-1.341c0.826,0,1.478,0.392,1.955,1.176
							s0.715,1.841,0.715,3.171v0.806h-4.716c0.012,1.446,0.217,2.529,0.615,3.249c0.397,0.72,1,1.08,1.808,1.08
							c0.624,0,1.281-0.204,1.973-0.613v0.842C85.396,37.044,84.726,37.242,84.022,37.242z M83.627,27.724
							c-1.199,0-1.856,1.193-1.973,3.579h3.826c0-1.092-0.167-1.961-0.5-2.608C84.647,28.048,84.197,27.724,83.627,27.724z"/>
						<path fill="#FFFFFF" d="M91.57,26.937c0.312,0,0.603,0.043,0.872,0.128l-0.211,0.869c-0.22-0.091-0.447-0.137-0.679-0.137
							c-0.336,0-0.65,0.172-0.94,0.517s-0.518,0.825-0.684,1.441c-0.165,0.616-0.248,1.297-0.248,2.041v5.262h-0.872v-9.93h0.715
							l0.092,1.739h0.064C90.145,27.581,90.775,26.937,91.57,26.937z"/>
					</g>
				</g>
				<g>
					<g>
						<g>
							<path fill="#FFFFFF" d="M101.361,24.329c-1.009,0-1.812,0.532-2.408,1.597c-0.597,1.065-0.895,2.54-0.895,4.425
								c0,1.226,0.137,2.294,0.413,3.203c0.275,0.909,0.67,1.607,1.184,2.096c0.514,0.488,1.11,0.732,1.79,0.732
								c0.697,0,1.296-0.125,1.798-0.375v0.823c-0.478,0.275-1.104,0.412-1.882,0.412c-0.85,0-1.594-0.274-2.233-0.824
								s-1.133-1.344-1.482-2.384c-0.349-1.041-0.523-2.274-0.523-3.702c0-2.135,0.381-3.813,1.142-5.033
								c0.762-1.22,1.8-1.831,3.116-1.831c0.819,0,1.535,0.189,2.146,0.567l-0.412,0.787
								C102.601,24.494,102.017,24.329,101.361,24.329z"/>
							<path fill="#FFFFFF" d="M112.486,30.351c0,2.214-0.332,3.917-0.996,5.106s-1.623,1.785-2.877,1.785
								c-1.266,0-2.227-0.6-2.881-1.798s-0.981-2.902-0.981-5.111c0-2.306,0.324-4.023,0.973-5.152
								c0.647-1.129,1.62-1.693,2.917-1.693c1.248,0,2.201,0.594,2.859,1.78C112.156,26.454,112.486,28.148,112.486,30.351z
								 M105.688,30.351c0,1.989,0.248,3.491,0.747,4.507c0.499,1.016,1.226,1.524,2.179,1.524c0.961,0,1.69-0.503,2.189-1.51
								c0.498-1.006,0.747-2.513,0.747-4.521c0-1.983-0.245-3.479-0.733-4.489c-0.49-1.01-1.215-1.515-2.176-1.515
								c-0.984,0-1.723,0.511-2.215,1.533S105.688,28.393,105.688,30.351z"/>
							<path fill="#FFFFFF" d="M119.723,37.059h-4.863v-13.38h4.863v0.86h-3.964v5.079h3.743v0.86h-3.743v5.72h3.964V37.059z"/>
							<path fill="#FFFFFF" d="M125.748,34.57c0,0.836-0.221,1.49-0.66,1.963c-0.441,0.473-1.077,0.709-1.909,0.709
								c-0.452,0-0.851-0.058-1.192-0.174c-0.343-0.116-0.609-0.244-0.799-0.384v-1.016c0.227,0.226,0.526,0.407,0.899,0.544
								s0.755,0.206,1.147,0.206c0.514,0,0.917-0.168,1.211-0.503c0.293-0.335,0.439-0.784,0.439-1.345
								c0-0.439-0.105-0.81-0.316-1.112c-0.211-0.302-0.613-0.646-1.206-1.03c-0.679-0.427-1.142-0.769-1.39-1.025
								s-0.441-0.543-0.578-0.86c-0.139-0.317-0.207-0.695-0.207-1.135c0-0.714,0.242-1.304,0.725-1.771
								c0.484-0.467,1.099-0.7,1.845-0.7c0.802,0,1.472,0.189,2.009,0.568l-0.449,0.759c-0.502-0.335-1.033-0.503-1.596-0.503
								c-0.514,0-0.924,0.151-1.23,0.453c-0.306,0.302-0.459,0.7-0.459,1.194c0,0.439,0.104,0.807,0.313,1.103
								s0.648,0.654,1.321,1.075c0.661,0.433,1.113,0.779,1.358,1.039c0.244,0.259,0.426,0.546,0.545,0.86
								C125.688,33.8,125.748,34.161,125.748,34.57z"/>
						</g>
					</g>
					<g>
						<g>
							<g>
								<path fill="#FFFFFF" d="M133.792,36.437c0.269,0,0.508-0.036,0.716-0.109v0.732c-0.27,0.122-0.615,0.183-1.037,0.183
									c-1.027,0-1.541-0.766-1.541-2.297v-7.047h-0.899v-0.512l0.881-0.256l0.284-2.361h0.605v2.361h1.578v0.769h-1.578v6.8
									c0,0.671,0.074,1.129,0.221,1.373S133.426,36.437,133.792,36.437z"/>
								<path fill="#FFFFFF" d="M141.636,32.071c0,1.672-0.265,2.952-0.794,3.839s-1.285,1.332-2.271,1.332
									c-0.973,0-1.718-0.444-2.234-1.332s-0.775-2.167-0.775-3.839c0-3.423,1.016-5.134,3.046-5.134
									c0.955,0,1.698,0.449,2.23,1.346C141.369,29.179,141.636,30.442,141.636,32.071z M136.471,32.071
									c0,1.434,0.17,2.517,0.514,3.249c0.342,0.732,0.877,1.098,1.605,1.098c1.425,0,2.138-1.449,2.138-4.347
									c0-2.874-0.713-4.311-2.138-4.311c-0.746,0-1.286,0.36-1.619,1.08C136.637,29.561,136.471,30.638,136.471,32.071z"/>
								<path fill="#FFFFFF" d="M149.771,37.242c-0.998,0-1.748-0.432-2.254-1.295c-0.504-0.863-0.756-2.131-0.756-3.803
									c0-1.696,0.255-2.988,0.766-3.875s1.265-1.332,2.262-1.332c0.617,0,1.132,0.113,1.541,0.339l-0.339,0.769
									c-0.41-0.189-0.786-0.284-1.129-0.284c-1.462,0-2.192,1.455-2.192,4.366c0,2.886,0.73,4.329,2.192,4.329
									c0.435,0,0.905-0.098,1.413-0.293v0.732c-0.201,0.11-0.449,0.195-0.743,0.256S149.984,37.242,149.771,37.242z"/>
								<path fill="#FFFFFF" d="M155.574,26.937c0.312,0,0.602,0.043,0.871,0.128l-0.211,0.869c-0.221-0.091-0.447-0.137-0.68-0.137
									c-0.336,0-0.649,0.172-0.939,0.517c-0.291,0.345-0.519,0.825-0.684,1.441c-0.166,0.616-0.248,1.297-0.248,2.041v5.262
									h-0.871v-9.93h0.715l0.092,1.739h0.064C154.148,27.581,154.778,26.937,155.574,26.937z"/>
								<path fill="#FFFFFF" d="M161.25,37.059l-0.11-1.391h-0.037c-0.478,1.049-1.198,1.574-2.165,1.574
									c-0.648,0-1.17-0.258-1.564-0.773s-0.592-1.207-0.592-2.073c0-0.946,0.284-1.694,0.854-2.247
									c0.568-0.552,1.367-0.853,2.395-0.901l1.073-0.055v-0.824c0-0.927-0.116-1.603-0.349-2.027
									c-0.232-0.424-0.617-0.636-1.156-0.636c-0.568,0-1.15,0.186-1.743,0.558l-0.376-0.687c0.691-0.427,1.416-0.641,2.174-0.641
									c0.82,0,1.41,0.258,1.771,0.773c0.361,0.516,0.541,1.377,0.541,2.585v6.763H161.25z M159.13,36.501
									c0.624,0,1.108-0.307,1.454-0.92s0.519-1.481,0.519-2.604v-1.034l-1.036,0.055c-0.802,0.043-1.396,0.264-1.785,0.664
									c-0.389,0.4-0.582,0.984-0.582,1.752c0,0.72,0.128,1.248,0.385,1.583S158.689,36.501,159.13,36.501z"/>
								<path fill="#FFFFFF" d="M167.057,27.898h-1.561v9.161h-0.862v-9.161h-1.267v-0.494l1.267-0.375v-0.75
									c0-1.263,0.149-2.172,0.45-2.727c0.299-0.555,0.818-0.833,1.559-0.833c0.429,0,0.817,0.076,1.166,0.229l-0.303,0.805
									c-0.324-0.152-0.618-0.229-0.881-0.229c-0.3,0-0.526,0.089-0.68,0.266c-0.152,0.177-0.266,0.464-0.339,0.86
									s-0.11,0.946-0.11,1.647v0.833h1.561V27.898z"/>
								<path fill="#FFFFFF" d="M170.422,36.437c0.269,0,0.508-0.036,0.715-0.109v0.732c-0.269,0.122-0.614,0.183-1.036,0.183
									c-1.028,0-1.542-0.766-1.542-2.297v-7.047h-0.898v-0.512l0.881-0.256l0.284-2.361h0.605v2.361h1.578v0.769h-1.578v6.8
									c0,0.671,0.073,1.129,0.22,1.373S170.055,36.437,170.422,36.437z"/>
							</g>
						</g>
						<g>
							<g>
								<g>
									<path fill="#FFFFFF" d="M5.359,57.367c0,0.836-0.22,1.49-0.661,1.963c-0.44,0.473-1.077,0.709-1.909,0.709
										c-0.453,0-0.85-0.058-1.193-0.174c-0.342-0.116-0.608-0.244-0.798-0.384v-1.016c0.226,0.226,0.526,0.407,0.899,0.544
										s0.755,0.206,1.147,0.206c0.514,0,0.917-0.168,1.211-0.503c0.294-0.335,0.44-0.784,0.44-1.345
										c0-0.439-0.105-0.81-0.316-1.112c-0.211-0.302-0.613-0.646-1.207-1.03c-0.679-0.427-1.142-0.769-1.39-1.025
										c-0.248-0.256-0.44-0.543-0.578-0.86c-0.138-0.317-0.206-0.695-0.206-1.135c0-0.714,0.241-1.304,0.725-1.771
										s1.098-0.7,1.844-0.7c0.801,0,1.471,0.189,2.009,0.568l-0.449,0.759c-0.502-0.335-1.034-0.503-1.597-0.503
										c-0.514,0-0.924,0.151-1.229,0.453c-0.306,0.302-0.459,0.7-0.459,1.194c0,0.439,0.104,0.807,0.312,1.103
										s0.648,0.654,1.321,1.075c0.661,0.433,1.113,0.779,1.358,1.039s0.427,0.546,0.546,0.86
										C5.3,56.597,5.359,56.958,5.359,57.367z"/>
									<path fill="#FFFFFF" d="M15.998,59.856v-6.763c0-1.666-0.489-2.499-1.468-2.499c-0.673,0-1.158,0.292-1.455,0.874
										c-0.296,0.583-0.445,1.441-0.445,2.576v5.812h-0.862v-6.763c0-0.842-0.12-1.469-0.358-1.881
										c-0.239-0.412-0.609-0.618-1.11-0.618c-0.661,0-1.141,0.299-1.44,0.897c-0.3,0.598-0.45,1.568-0.45,2.91v5.455H7.538v-9.93
										h0.734l0.073,1.382h0.083c0.397-1.049,1.073-1.574,2.027-1.574c0.551,0,0.985,0.146,1.303,0.439
										c0.318,0.293,0.547,0.72,0.688,1.281c0.239-0.61,0.532-1.049,0.881-1.318s0.801-0.403,1.358-0.403
										c0.752,0,1.303,0.289,1.652,0.865c0.349,0.576,0.523,1.5,0.523,2.768v6.489H15.998z"/>
									<path fill="#FFFFFF" d="M23.573,59.856l-0.11-1.391h-0.037c-0.477,1.049-1.199,1.574-2.165,1.574
										c-0.648,0-1.17-0.258-1.564-0.773s-0.592-1.207-0.592-2.073c0-0.946,0.284-1.694,0.853-2.247
										c0.569-0.552,1.367-0.853,2.395-0.901l1.073-0.055v-0.824c0-0.927-0.116-1.603-0.349-2.027
										c-0.232-0.424-0.618-0.636-1.156-0.636c-0.569,0-1.15,0.186-1.744,0.558l-0.376-0.687c0.691-0.427,1.416-0.641,2.174-0.641
										c0.82,0,1.41,0.258,1.771,0.773c0.361,0.516,0.542,1.377,0.542,2.585v6.763H23.573z M21.453,59.298
										c0.624,0,1.109-0.307,1.455-0.92c0.345-0.613,0.518-1.481,0.518-2.604V54.74l-1.037,0.055
										c-0.801,0.043-1.396,0.264-1.785,0.664c-0.389,0.4-0.583,0.984-0.583,1.752c0,0.72,0.128,1.248,0.385,1.583
										S21.013,59.298,21.453,59.298z"/>
									<path fill="#FFFFFF" d="M27.709,59.856h-0.872v-14.24h0.872V59.856z"/>
									<path fill="#FFFFFF" d="M31.26,59.856h-0.872v-14.24h0.872V59.856z"/>
									<path fill="#FFFFFF" d="M35.426,58.19c-0.404,1.373-0.912,2.733-1.523,4.082h-0.578c0.458-1.556,0.765-2.986,0.917-4.292
										h1.055L35.426,58.19z"/>
									<path fill="#FFFFFF" d="M44.111,60.039c-0.998,0-1.748-0.432-2.253-1.295c-0.504-0.863-0.757-2.131-0.757-3.803
										c0-1.696,0.255-2.988,0.766-3.875s1.265-1.332,2.262-1.332c0.618,0,1.132,0.113,1.542,0.339l-0.339,0.769
										c-0.41-0.189-0.786-0.284-1.129-0.284c-1.462,0-2.193,1.455-2.193,4.366c0,2.886,0.731,4.329,2.193,4.329
										c0.435,0,0.905-0.098,1.413-0.293v0.732c-0.202,0.11-0.449,0.195-0.743,0.256C44.579,60.008,44.325,60.039,44.111,60.039z"
										/>
									<path fill="#FFFFFF" d="M51.006,59.856l-0.11-1.391h-0.037c-0.477,1.049-1.199,1.574-2.165,1.574
										c-0.648,0-1.17-0.258-1.564-0.773s-0.592-1.207-0.592-2.073c0-0.946,0.284-1.694,0.853-2.247
										c0.569-0.552,1.367-0.853,2.395-0.901l1.073-0.055v-0.824c0-0.927-0.116-1.603-0.349-2.027
										c-0.232-0.424-0.618-0.636-1.156-0.636c-0.569,0-1.15,0.186-1.744,0.558l-0.376-0.687c0.691-0.427,1.416-0.641,2.174-0.641
										c0.82,0,1.41,0.258,1.771,0.773c0.361,0.516,0.542,1.377,0.542,2.585v6.763H51.006z M48.886,59.298
										c0.624,0,1.109-0.307,1.455-0.92c0.345-0.613,0.518-1.481,0.518-2.604V54.74l-1.037,0.055
										c-0.801,0.043-1.396,0.264-1.785,0.664c-0.389,0.4-0.583,0.984-0.583,1.752c0,0.72,0.128,1.248,0.385,1.583
										S48.446,59.298,48.886,59.298z"/>
									<path fill="#FFFFFF" d="M57.032,49.734c0.312,0,0.603,0.043,0.872,0.128l-0.211,0.869c-0.22-0.091-0.447-0.137-0.679-0.137
										c-0.336,0-0.65,0.172-0.94,0.517s-0.518,0.825-0.684,1.441c-0.165,0.616-0.248,1.297-0.248,2.041v5.262h-0.872v-9.93h0.715
										l0.092,1.739h0.064C55.607,50.378,56.237,49.734,57.032,49.734z"/>
									<path fill="#FFFFFF" d="M61.681,60.039c-1.052,0-1.861-0.447-2.427-1.341c-0.566-0.894-0.849-2.14-0.849-3.738
										c0-1.696,0.252-2.991,0.757-3.885c0.505-0.894,1.231-1.341,2.179-1.341c0.826,0,1.478,0.392,1.955,1.176
										s0.715,1.841,0.715,3.171v0.806h-4.716c0.012,1.446,0.217,2.529,0.615,3.249c0.397,0.72,1,1.08,1.808,1.08
										c0.624,0,1.281-0.204,1.973-0.613v0.842C63.054,59.841,62.384,60.039,61.681,60.039z M61.286,50.521
										c-1.199,0-1.856,1.193-1.973,3.579h3.826c0-1.092-0.167-1.961-0.5-2.608C62.306,50.845,61.855,50.521,61.286,50.521z"/>
									<path fill="#FFFFFF" d="M69.009,50.695h-1.56v9.161h-0.862v-9.161H65.32v-0.494l1.266-0.375v-0.75
										c0-1.263,0.15-2.172,0.45-2.727c0.299-0.555,0.819-0.833,1.56-0.833c0.428,0,0.817,0.076,1.166,0.229l-0.303,0.805
										c-0.324-0.152-0.618-0.229-0.881-0.229c-0.3,0-0.526,0.089-0.679,0.266c-0.153,0.177-0.266,0.464-0.339,0.86
										s-0.11,0.946-0.11,1.647v0.833h1.56V50.695z"/>
									<path fill="#FFFFFF" d="M71.383,49.926v6.479c0,0.982,0.118,1.699,0.353,2.151c0.235,0.451,0.598,0.677,1.087,0.677
										c0.752,0,1.304-0.303,1.656-0.91c0.352-0.607,0.527-1.588,0.527-2.942v-5.455h0.863v9.93h-0.734l-0.11-1.391h-0.073
										c-0.214,0.506-0.511,0.896-0.89,1.167c-0.379,0.271-0.792,0.407-1.239,0.407c-0.801,0-1.387-0.284-1.757-0.851
										s-0.555-1.495-0.555-2.782v-6.479H71.383z"/>
									<path fill="#FFFFFF" d="M79.534,59.856h-0.872v-14.24h0.872V59.856z"/>
									<path fill="#FFFFFF" d="M83.085,59.856h-0.872v-14.24h0.872V59.856z"/>
									<path fill="#FFFFFF" d="M87.013,59.838l-2.486-9.912h0.881l1.505,6.196c0.177,0.745,0.349,1.583,0.514,2.517h0.073
										c0.116-0.811,0.278-1.656,0.486-2.535l1.468-6.177h0.881l-2.909,11.806c-0.214,0.873-0.494,1.528-0.839,1.968
										c-0.346,0.439-0.806,0.659-1.381,0.659c-0.232,0-0.495-0.052-0.789-0.155v-0.787c0.245,0.085,0.483,0.128,0.716,0.128
										c0.367,0,0.658-0.157,0.872-0.471c0.214-0.314,0.404-0.819,0.569-1.515L87.013,59.838z"/>
									<path fill="#FFFFFF" d="M99.818,57.367c0,0.836-0.22,1.49-0.661,1.963c-0.44,0.473-1.077,0.709-1.909,0.709
										c-0.453,0-0.85-0.058-1.193-0.174c-0.342-0.116-0.608-0.244-0.798-0.384v-1.016c0.226,0.226,0.526,0.407,0.899,0.544
										s0.755,0.206,1.147,0.206c0.514,0,0.917-0.168,1.211-0.503c0.294-0.335,0.44-0.784,0.44-1.345
										c0-0.439-0.105-0.81-0.316-1.112c-0.211-0.302-0.613-0.646-1.207-1.03c-0.679-0.427-1.142-0.769-1.39-1.025
										c-0.248-0.256-0.44-0.543-0.578-0.86c-0.138-0.317-0.206-0.695-0.206-1.135c0-0.714,0.241-1.304,0.725-1.771
										s1.098-0.7,1.844-0.7c0.801,0,1.471,0.189,2.009,0.568l-0.449,0.759c-0.502-0.335-1.034-0.503-1.597-0.503
										c-0.514,0-0.924,0.151-1.229,0.453c-0.306,0.302-0.459,0.7-0.459,1.194c0,0.439,0.104,0.807,0.312,1.103
										s0.648,0.654,1.321,1.075c0.661,0.433,1.113,0.779,1.358,1.039s0.427,0.546,0.546,0.86
										C99.759,56.597,99.818,56.958,99.818,57.367z"/>
									<path fill="#FFFFFF" d="M104.822,60.039c-1.052,0-1.861-0.447-2.427-1.341c-0.565-0.894-0.849-2.14-0.849-3.738
										c0-1.696,0.252-2.991,0.757-3.885c0.505-0.894,1.231-1.341,2.179-1.341c0.826,0,1.479,0.392,1.955,1.176
										s0.715,1.841,0.715,3.171v0.806h-4.715c0.012,1.446,0.217,2.529,0.614,3.249c0.397,0.72,1,1.08,1.808,1.08
										c0.623,0,1.281-0.204,1.973-0.613v0.842C106.195,59.841,105.525,60.039,104.822,60.039z M104.428,50.521
										c-1.199,0-1.856,1.193-1.973,3.579h3.826c0-1.092-0.166-1.961-0.5-2.608C105.447,50.845,104.997,50.521,104.428,50.521z"/>
									<path fill="#FFFFFF" d="M110.48,59.856h-0.871v-14.24h0.871V59.856z"/>
									<path fill="#FFFFFF" d="M115.986,60.039c-1.053,0-1.861-0.447-2.428-1.341c-0.565-0.894-0.848-2.14-0.848-3.738
										c0-1.696,0.252-2.991,0.756-3.885c0.506-0.894,1.231-1.341,2.18-1.341c0.826,0,1.478,0.392,1.955,1.176
										c0.477,0.784,0.715,1.841,0.715,3.171v0.806h-4.716c0.013,1.446,0.217,2.529,0.614,3.249c0.398,0.72,1,1.08,1.809,1.08
										c0.623,0,1.281-0.204,1.973-0.613v0.842C117.359,59.841,116.689,60.039,115.986,60.039z M115.592,50.521
										c-1.199,0-1.857,1.193-1.973,3.579h3.826c0-1.092-0.167-1.961-0.5-2.608C116.611,50.845,116.16,50.521,115.592,50.521z"/>
									<path fill="#FFFFFF" d="M123.332,60.039c-0.997,0-1.748-0.432-2.252-1.295c-0.505-0.863-0.758-2.131-0.758-3.803
										c0-1.696,0.256-2.988,0.767-3.875s1.265-1.332,2.262-1.332c0.618,0,1.132,0.113,1.542,0.339l-0.34,0.769
										c-0.41-0.189-0.786-0.284-1.129-0.284c-1.462,0-2.193,1.455-2.193,4.366c0,2.886,0.731,4.329,2.193,4.329
										c0.435,0,0.905-0.098,1.413-0.293v0.732c-0.202,0.11-0.449,0.195-0.743,0.256
										C123.801,60.008,123.547,60.039,123.332,60.039z"/>
									<path fill="#FFFFFF" d="M128.199,59.233c0.27,0,0.508-0.036,0.716-0.109v0.732c-0.269,0.122-0.614,0.183-1.036,0.183
										c-1.028,0-1.542-0.766-1.542-2.297v-7.047h-0.899v-0.512l0.881-0.256l0.285-2.361h0.605v2.361h1.578v0.769h-1.578v6.8
										c0,0.671,0.072,1.129,0.22,1.373C127.575,59.112,127.832,59.233,128.199,59.233z"/>
									<path fill="#FFFFFF" d="M133.262,60.039c-1.051,0-1.86-0.447-2.426-1.341c-0.566-0.894-0.85-2.14-0.85-3.738
										c0-1.696,0.253-2.991,0.758-3.885c0.504-0.894,1.23-1.341,2.179-1.341c0.825,0,1.478,0.392,1.954,1.176
										c0.478,0.784,0.716,1.841,0.716,3.171v0.806h-4.716c0.012,1.446,0.217,2.529,0.615,3.249c0.396,0.72,1,1.08,1.807,1.08
										c0.624,0,1.281-0.204,1.973-0.613v0.842C134.636,59.841,133.966,60.039,133.262,60.039z M132.867,50.521
										c-1.198,0-1.855,1.193-1.973,3.579h3.826c0-1.092-0.166-1.961-0.5-2.608C133.888,50.845,133.438,50.521,132.867,50.521z"/>
									<path fill="#FFFFFF" d="M140.48,60.039c-1.934,0-2.9-1.711-2.9-5.134c0-1.684,0.242-2.966,0.726-3.848
										s1.196-1.323,2.138-1.323c0.447,0,0.87,0.128,1.271,0.385c0.4,0.256,0.72,0.61,0.959,1.062h0.072l-0.036-1.107v-4.457
										h0.872v14.24h-0.717l-0.072-1.391h-0.083c-0.239,0.506-0.548,0.896-0.927,1.167S140.97,60.039,140.48,60.039z
										 M140.535,59.279c0.697,0,1.234-0.322,1.61-0.965s0.564-1.591,0.564-2.842v-0.567c0-1.501-0.183-2.601-0.546-3.299
										c-0.364-0.698-0.92-1.048-1.666-1.048c-0.715,0-1.229,0.374-1.541,1.121c-0.313,0.748-0.468,1.829-0.468,3.245
										c0,1.428,0.162,2.511,0.486,3.249C139.3,58.91,139.819,59.279,140.535,59.279z"/>
									<path fill="#FFFFFF" d="M151.074,59.233c0.27,0,0.508-0.036,0.717-0.109v0.732c-0.27,0.122-0.615,0.183-1.037,0.183
										c-1.027,0-1.541-0.766-1.541-2.297v-7.047h-0.9v-0.512l0.881-0.256l0.285-2.361h0.605v2.361h1.578v0.769h-1.578v6.8
										c0,0.671,0.073,1.129,0.221,1.373C150.451,59.112,150.708,59.233,151.074,59.233z"/>
									<path fill="#FFFFFF" d="M156.139,60.039c-1.053,0-1.861-0.447-2.428-1.341c-0.565-0.894-0.848-2.14-0.848-3.738
										c0-1.696,0.252-2.991,0.756-3.885c0.506-0.894,1.231-1.341,2.18-1.341c0.826,0,1.478,0.392,1.955,1.176
										c0.477,0.784,0.715,1.841,0.715,3.171v0.806h-4.716c0.013,1.446,0.217,2.529,0.614,3.249c0.398,0.72,1,1.08,1.809,1.08
										c0.623,0,1.281-0.204,1.973-0.613v0.842C157.512,59.841,156.842,60.039,156.139,60.039z M155.744,50.521
										c-1.199,0-1.857,1.193-1.973,3.579h3.826c0-1.092-0.167-1.961-0.5-2.608C156.764,50.845,156.313,50.521,155.744,50.521z"/>
									<path fill="#FFFFFF" d="M164.777,59.856l-0.109-1.391h-0.037c-0.477,1.049-1.199,1.574-2.165,1.574
										c-0.648,0-1.17-0.258-1.564-0.773s-0.592-1.207-0.592-2.073c0-0.946,0.284-1.694,0.853-2.247
										c0.569-0.552,1.367-0.853,2.396-0.901l1.073-0.055v-0.824c0-0.927-0.116-1.603-0.349-2.027
										c-0.232-0.424-0.618-0.636-1.155-0.636c-0.569,0-1.15,0.186-1.744,0.558l-0.376-0.687c0.69-0.427,1.416-0.641,2.175-0.641
										c0.819,0,1.41,0.258,1.771,0.773c0.36,0.516,0.542,1.377,0.542,2.585v6.763H164.777z M162.658,59.298
										c0.624,0,1.109-0.307,1.455-0.92c0.345-0.613,0.518-1.481,0.518-2.604V54.74l-1.037,0.055
										c-0.801,0.043-1.396,0.264-1.784,0.664c-0.389,0.4-0.583,0.984-0.583,1.752c0,0.72,0.129,1.248,0.386,1.583
										S162.218,59.298,162.658,59.298z"/>
									<path fill="#FFFFFF" d="M176.502,59.856v-6.763c0-1.666-0.488-2.499-1.467-2.499c-0.674,0-1.158,0.292-1.455,0.874
										c-0.297,0.583-0.445,1.441-0.445,2.576v5.812h-0.861v-6.763c0-0.842-0.12-1.469-0.358-1.881
										c-0.239-0.412-0.608-0.618-1.11-0.618c-0.66,0-1.141,0.299-1.44,0.897c-0.3,0.598-0.45,1.568-0.45,2.91v5.455h-0.871v-9.93
										h0.734l0.072,1.382h0.084c0.396-1.049,1.072-1.574,2.027-1.574c0.551,0,0.984,0.146,1.303,0.439s0.547,0.72,0.688,1.281
										c0.239-0.61,0.533-1.049,0.881-1.318c0.35-0.269,0.802-0.403,1.358-0.403c0.753,0,1.304,0.289,1.651,0.865
										c0.35,0.576,0.523,1.5,0.523,2.768v6.489H176.502z"/>
									<path fill="#FFFFFF" d="M184.133,57.367c0,0.836-0.221,1.49-0.66,1.963c-0.441,0.473-1.077,0.709-1.909,0.709
										c-0.452,0-0.851-0.058-1.192-0.174c-0.343-0.116-0.609-0.244-0.799-0.384v-1.016c0.227,0.226,0.526,0.407,0.899,0.544
										s0.755,0.206,1.147,0.206c0.514,0,0.917-0.168,1.211-0.503c0.293-0.335,0.439-0.784,0.439-1.345
										c0-0.439-0.105-0.81-0.316-1.112c-0.211-0.302-0.613-0.646-1.206-1.03c-0.679-0.427-1.142-0.769-1.39-1.025
										s-0.441-0.543-0.578-0.86c-0.139-0.317-0.207-0.695-0.207-1.135c0-0.714,0.242-1.304,0.725-1.771
										c0.484-0.467,1.099-0.7,1.845-0.7c0.802,0,1.472,0.189,2.009,0.568l-0.449,0.759c-0.502-0.335-1.033-0.503-1.596-0.503
										c-0.514,0-0.924,0.151-1.23,0.453c-0.306,0.302-0.459,0.7-0.459,1.194c0,0.439,0.104,0.807,0.313,1.103
										s0.648,0.654,1.321,1.075c0.661,0.433,1.113,0.779,1.358,1.039c0.244,0.259,0.426,0.546,0.545,0.86
										C184.073,56.597,184.133,56.958,184.133,57.367z"/>
								</g>
							</g>
							<g>
								<g>
									<g>
										<path fill="#FFFFFF" d="M4.212,72.523c0.312,0,0.603,0.043,0.872,0.128l-0.211,0.869c-0.22-0.091-0.447-0.138-0.679-0.138
											c-0.336,0-0.65,0.173-0.94,0.518s-0.518,0.825-0.684,1.441c-0.165,0.616-0.248,1.297-0.248,2.041v5.262H1.451v-9.93h0.715
											l0.092,1.739h0.064C2.787,73.167,3.417,72.523,4.212,72.523z"/>
										<path fill="#FFFFFF" d="M8.86,82.828c-1.052,0-1.861-0.447-2.427-1.341s-0.849-2.14-0.849-3.738
											c0-1.696,0.252-2.991,0.757-3.886c0.505-0.893,1.231-1.34,2.179-1.34c0.826,0,1.478,0.392,1.955,1.176
											s0.715,1.841,0.715,3.171v0.806H6.475c0.012,1.445,0.217,2.529,0.615,3.248c0.397,0.721,1,1.08,1.808,1.08
											c0.624,0,1.281-0.203,1.973-0.613v0.843C10.234,82.63,9.564,82.828,8.86,82.828z M8.466,73.311
											c-1.199,0-1.856,1.192-1.973,3.578h3.826c0-1.092-0.167-1.961-0.5-2.608C9.486,73.634,9.035,73.311,8.466,73.311z"/>
										<path fill="#FFFFFF" d="M17.556,80.156c0,0.836-0.22,1.49-0.661,1.963s-1.077,0.709-1.909,0.709
											c-0.453,0-0.85-0.059-1.193-0.174c-0.342-0.115-0.608-0.244-0.798-0.385v-1.016c0.226,0.227,0.526,0.407,0.899,0.545
											c0.373,0.137,0.755,0.205,1.147,0.205c0.514,0,0.917-0.168,1.211-0.503c0.294-0.335,0.44-0.784,0.44-1.345
											c0-0.439-0.105-0.811-0.316-1.112s-0.613-0.646-1.207-1.03c-0.679-0.426-1.142-0.768-1.39-1.024
											c-0.248-0.257-0.44-0.543-0.578-0.86c-0.138-0.316-0.206-0.695-0.206-1.135c0-0.714,0.241-1.305,0.725-1.771
											s1.098-0.699,1.844-0.699c0.801,0,1.471,0.189,2.009,0.567l-0.449,0.759c-0.502-0.335-1.034-0.503-1.597-0.503
											c-0.514,0-0.924,0.151-1.229,0.453c-0.306,0.302-0.459,0.7-0.459,1.194c0,0.439,0.104,0.807,0.312,1.104
											c0.208,0.295,0.648,0.654,1.321,1.074c0.661,0.434,1.113,0.779,1.358,1.039s0.427,0.547,0.546,0.86
											C17.496,79.386,17.556,79.747,17.556,80.156z"/>
										<path fill="#FFFFFF" d="M22.937,82.828c-0.501,0-0.959-0.139-1.372-0.416c-0.413-0.277-0.727-0.658-0.94-1.14h-0.083
											l0.064,1.089v4.786h-0.872V72.715h0.715l0.092,1.364h0.083c0.244-0.501,0.558-0.885,0.94-1.153
											c0.382-0.269,0.799-0.402,1.252-0.402c1.945,0,2.917,1.711,2.917,5.134c0,1.653-0.238,2.929-0.715,3.825
											C24.542,82.379,23.848,82.828,22.937,82.828z M22.762,73.347c-0.728,0-1.27,0.32-1.624,0.961
											c-0.355,0.641-0.532,1.645-0.532,3.011v0.284c0,1.525,0.18,2.646,0.542,3.363c0.361,0.717,0.911,1.075,1.651,1.075
											c0.685,0,1.194-0.355,1.528-1.066c0.333-0.711,0.5-1.816,0.5-3.317c0-1.434-0.156-2.511-0.468-3.23
											C24.047,73.707,23.515,73.347,22.762,73.347z"/>
										<path fill="#FFFFFF" d="M33.478,77.657c0,1.672-0.265,2.952-0.793,3.839c-0.529,0.889-1.286,1.332-2.271,1.332
											c-0.973,0-1.717-0.443-2.234-1.332c-0.517-0.887-0.775-2.167-0.775-3.839c0-3.423,1.016-5.134,3.046-5.134
											c0.954,0,1.698,0.448,2.229,1.346C33.211,74.766,33.478,76.028,33.478,77.657z M28.312,77.657
											c0,1.435,0.171,2.517,0.514,3.249c0.342,0.732,0.878,1.098,1.606,1.098c1.425,0,2.138-1.449,2.138-4.347
											c0-2.874-0.713-4.311-2.138-4.311c-0.747,0-1.286,0.36-1.62,1.08S28.312,76.224,28.312,77.657z"/>
										<path fill="#FFFFFF" d="M39.998,82.645v-6.846c0-1.646-0.49-2.471-1.468-2.471c-0.747,0-1.292,0.309-1.638,0.925
											c-0.346,0.616-0.519,1.596-0.519,2.938v5.454h-0.872v-9.93h0.734l0.073,1.383h0.083c0.208-0.5,0.507-0.889,0.899-1.162
											c0.392-0.275,0.811-0.412,1.257-0.412c0.771,0,1.349,0.258,1.734,0.773s0.578,1.344,0.578,2.484v6.863H39.998z"/>
										<path fill="#FFFFFF" d="M47.524,80.156c0,0.836-0.22,1.49-0.661,1.963s-1.077,0.709-1.909,0.709
											c-0.453,0-0.85-0.059-1.193-0.174c-0.342-0.115-0.608-0.244-0.798-0.385v-1.016c0.226,0.227,0.526,0.407,0.899,0.545
											c0.373,0.137,0.755,0.205,1.147,0.205c0.514,0,0.917-0.168,1.211-0.503c0.294-0.335,0.44-0.784,0.44-1.345
											c0-0.439-0.105-0.811-0.316-1.112s-0.613-0.646-1.207-1.03c-0.679-0.426-1.142-0.768-1.39-1.024
											c-0.248-0.257-0.44-0.543-0.578-0.86c-0.138-0.316-0.206-0.695-0.206-1.135c0-0.714,0.241-1.305,0.725-1.771
											s1.098-0.699,1.844-0.699c0.801,0,1.471,0.189,2.009,0.567l-0.449,0.759c-0.502-0.335-1.034-0.503-1.597-0.503
											c-0.514,0-0.924,0.151-1.229,0.453c-0.306,0.302-0.459,0.7-0.459,1.194c0,0.439,0.104,0.807,0.312,1.104
											c0.208,0.295,0.648,0.654,1.321,1.074c0.661,0.434,1.113,0.779,1.358,1.039s0.427,0.547,0.546,0.86
											C47.465,79.386,47.524,79.747,47.524,80.156z"/>
										<path fill="#FFFFFF" d="M49.575,69.961c0-0.275,0.056-0.488,0.169-0.641s0.258-0.229,0.436-0.229
											c0.165,0,0.296,0.076,0.395,0.229c0.098,0.152,0.147,0.365,0.147,0.641c0,0.262-0.049,0.471-0.147,0.627
											c-0.098,0.155-0.229,0.232-0.395,0.232c-0.178,0-0.323-0.077-0.436-0.232C49.631,70.432,49.575,70.223,49.575,69.961z
											 M50.575,82.645h-0.872v-9.93h0.872V82.645z"/>
										<path fill="#FFFFFF" d="M56.337,72.541c1.945,0,2.917,1.706,2.917,5.116c0,1.685-0.242,2.967-0.725,3.849
											c-0.483,0.881-1.181,1.322-2.092,1.322c-0.477,0-0.911-0.131-1.303-0.394s-0.716-0.649-0.973-1.162h-0.073l-0.12,1.372
											h-0.715v-14.24h0.872v4.421l-0.037,1.198h0.073C54.688,73.035,55.414,72.541,56.337,72.541z M56.3,73.347
											c-0.765,0-1.318,0.336-1.661,1.007c-0.343,0.672-0.514,1.772-0.514,3.304v0.229c0,2.77,0.737,4.154,2.211,4.154
											c0.673,0,1.176-0.357,1.509-1.07c0.333-0.715,0.5-1.818,0.5-3.313c0-1.434-0.162-2.511-0.486-3.23
											S57.016,73.347,56.3,73.347z"/>
										<path fill="#FFFFFF" d="M62.263,82.645h-0.872v-14.24h0.872V82.645z"/>
										<path fill="#FFFFFF" d="M67.769,82.828c-1.052,0-1.861-0.447-2.427-1.341s-0.849-2.14-0.849-3.738
											c0-1.696,0.252-2.991,0.757-3.886c0.505-0.893,1.231-1.34,2.179-1.34c0.826,0,1.478,0.392,1.955,1.176
											s0.715,1.841,0.715,3.171v0.806h-4.716c0.012,1.445,0.217,2.529,0.615,3.248c0.397,0.721,1,1.08,1.808,1.08
											c0.624,0,1.281-0.203,1.973-0.613v0.843C69.142,82.63,68.472,82.828,67.769,82.828z M67.374,73.311
											c-1.199,0-1.856,1.192-1.973,3.578h3.826c0-1.092-0.167-1.961-0.5-2.608C68.394,73.634,67.943,73.311,67.374,73.311z"/>
										<path fill="#FFFFFF" d="M78.648,73.484h-1.56v9.16h-0.862v-9.16h-1.266V72.99l1.266-0.375v-0.751
											c0-1.263,0.15-2.172,0.45-2.728c0.299-0.555,0.819-0.832,1.56-0.832c0.428,0,0.817,0.076,1.166,0.229l-0.303,0.805
											c-0.324-0.152-0.618-0.229-0.881-0.229c-0.3,0-0.526,0.089-0.679,0.266c-0.153,0.178-0.266,0.464-0.339,0.86
											s-0.11,0.946-0.11,1.647v0.832h1.56V73.484z"/>
										<path fill="#FFFFFF" d="M85.794,77.657c0,1.672-0.265,2.952-0.793,3.839c-0.529,0.889-1.286,1.332-2.271,1.332
											c-0.973,0-1.717-0.443-2.234-1.332c-0.517-0.887-0.775-2.167-0.775-3.839c0-3.423,1.016-5.134,3.046-5.134
											c0.954,0,1.698,0.448,2.229,1.346C85.528,74.766,85.794,76.028,85.794,77.657z M80.628,77.657
											c0,1.435,0.171,2.517,0.514,3.249c0.342,0.732,0.878,1.098,1.606,1.098c1.425,0,2.138-1.449,2.138-4.347
											c0-2.874-0.713-4.311-2.138-4.311c-0.747,0-1.286,0.36-1.62,1.08S80.628,76.224,80.628,77.657z"/>
										<path fill="#FFFFFF" d="M90.58,72.523c0.312,0,0.603,0.043,0.872,0.128l-0.211,0.869c-0.22-0.091-0.447-0.138-0.679-0.138
											c-0.336,0-0.65,0.173-0.94,0.518s-0.518,0.825-0.684,1.441c-0.165,0.616-0.248,1.297-0.248,2.041v5.262h-0.872v-9.93
											h0.715l0.092,1.739h0.064C89.154,73.167,89.784,72.523,90.58,72.523z"/>
										<path fill="#FFFFFF" d="M99.528,82.828c-0.998,0-1.748-0.432-2.253-1.295c-0.504-0.863-0.757-2.131-0.757-3.803
											c0-1.695,0.255-2.988,0.766-3.875c0.511-0.889,1.265-1.332,2.262-1.332c0.618,0,1.132,0.113,1.542,0.338l-0.339,0.77
											c-0.41-0.189-0.786-0.284-1.129-0.284c-1.462,0-2.193,1.455-2.193,4.366c0,2.885,0.731,4.328,2.193,4.328
											c0.435,0,0.905-0.098,1.414-0.293v0.732c-0.202,0.109-0.45,0.195-0.744,0.256C99.996,82.797,99.742,82.828,99.528,82.828z
											"/>
										<path fill="#FFFFFF" d="M105.33,72.523c0.313,0,0.604,0.043,0.872,0.128l-0.211,0.869
											c-0.22-0.091-0.446-0.138-0.679-0.138c-0.337,0-0.65,0.173-0.941,0.518c-0.29,0.345-0.518,0.825-0.684,1.441
											c-0.164,0.616-0.247,1.297-0.247,2.041v5.262h-0.872v-9.93h0.716l0.092,1.739h0.064
											C103.905,73.167,104.535,72.523,105.33,72.523z"/>
										<path fill="#FFFFFF" d="M109.979,82.828c-1.051,0-1.86-0.447-2.426-1.341c-0.566-0.894-0.85-2.14-0.85-3.738
											c0-1.696,0.253-2.991,0.758-3.886c0.504-0.893,1.23-1.34,2.179-1.34c0.825,0,1.478,0.392,1.954,1.176
											c0.478,0.784,0.716,1.841,0.716,3.171v0.806h-4.716c0.012,1.445,0.217,2.529,0.615,3.248c0.396,0.721,1,1.08,1.807,1.08
											c0.624,0,1.281-0.203,1.973-0.613v0.843C111.353,82.63,110.683,82.828,109.979,82.828z M109.584,73.311
											c-1.198,0-1.855,1.192-1.973,3.578h3.826c0-1.092-0.166-1.961-0.5-2.608C110.604,73.634,110.154,73.311,109.584,73.311z"
											/>
										<path fill="#FFFFFF" d="M118.619,82.645l-0.11-1.391h-0.037c-0.478,1.049-1.198,1.574-2.165,1.574
											c-0.648,0-1.17-0.258-1.564-0.773s-0.592-1.207-0.592-2.072c0-0.946,0.284-1.695,0.854-2.248
											c0.568-0.551,1.367-0.852,2.395-0.9l1.073-0.055v-0.824c0-0.928-0.116-1.604-0.349-2.027s-0.617-0.636-1.156-0.636
											c-0.568,0-1.15,0.187-1.743,0.558l-0.376-0.686c0.691-0.428,1.416-0.641,2.174-0.641c0.82,0,1.41,0.258,1.771,0.773
											s0.541,1.377,0.541,2.585v6.763H118.619z M116.499,82.087c0.624,0,1.108-0.307,1.454-0.92s0.519-1.481,0.519-2.604v-1.034
											l-1.036,0.055c-0.802,0.043-1.396,0.264-1.785,0.664c-0.389,0.399-0.582,0.983-0.582,1.752
											c0,0.721,0.128,1.248,0.385,1.584C115.71,81.919,116.059,82.087,116.499,82.087z"/>
										<path fill="#FFFFFF" d="M123.709,82.022c0.27,0,0.508-0.036,0.717-0.109v0.731c-0.27,0.123-0.615,0.184-1.037,0.184
											c-1.027,0-1.541-0.766-1.541-2.297v-7.047h-0.9v-0.513l0.881-0.257l0.285-2.361h0.605v2.361h1.578v0.77h-1.578v6.799
											c0,0.672,0.073,1.129,0.221,1.373C123.086,81.9,123.343,82.022,123.709,82.022z"/>
										<path fill="#FFFFFF" d="M125.818,69.961c0-0.275,0.057-0.488,0.17-0.641s0.258-0.229,0.436-0.229
											c0.166,0,0.297,0.076,0.395,0.229s0.147,0.365,0.147,0.641c0,0.262-0.05,0.471-0.147,0.627
											c-0.098,0.155-0.229,0.232-0.395,0.232c-0.178,0-0.322-0.077-0.436-0.232C125.875,70.432,125.818,70.223,125.818,69.961z
											 M126.818,82.645h-0.871v-9.93h0.871V82.645z"/>
										<path fill="#FFFFFF" d="M133.994,82.645v-6.846c0-1.646-0.489-2.471-1.468-2.471c-0.747,0-1.292,0.309-1.638,0.925
											s-0.519,1.596-0.519,2.938v5.454h-0.872v-9.93h0.734l0.073,1.383h0.083c0.207-0.5,0.508-0.889,0.898-1.162
											c0.393-0.275,0.811-0.412,1.258-0.412c0.771,0,1.349,0.258,1.734,0.773c0.385,0.516,0.578,1.344,0.578,2.484v6.863
											H133.994z"/>
										<path fill="#FFFFFF" d="M142.824,72.715v0.613l-1.357,0.156c0.184,0.238,0.333,0.578,0.449,1.02
											c0.116,0.443,0.174,0.896,0.174,1.359c0,0.965-0.219,1.745-0.656,2.344c-0.437,0.598-1.014,0.896-1.729,0.896h-0.221
											l-0.192-0.019c-0.294,0.208-0.524,0.415-0.692,0.622c-0.169,0.208-0.253,0.449-0.253,0.723c0,0.281,0.11,0.5,0.331,0.654
											c0.22,0.156,0.516,0.234,0.889,0.234h0.625c0.887,0,1.574,0.229,2.064,0.686c0.488,0.458,0.733,1.12,0.733,1.986
											c0,0.971-0.329,1.738-0.986,2.307c-0.657,0.566-1.524,0.851-2.601,0.851c-0.899,0-1.591-0.228-2.074-0.682
											s-0.725-1.108-0.725-1.963c0-0.622,0.158-1.155,0.477-1.597c0.318-0.443,0.816-0.792,1.496-1.049
											c-0.307-0.134-0.553-0.32-0.738-0.558c-0.188-0.238-0.28-0.522-0.28-0.851c0-0.299,0.099-0.566,0.298-0.801
											c0.199-0.235,0.482-0.487,0.85-0.756c-0.508-0.231-0.893-0.607-1.152-1.125c-0.26-0.52-0.39-1.129-0.39-1.83
											c0-1.057,0.224-1.889,0.67-2.499s1.058-0.915,1.835-0.915c0.416,0,0.765,0.064,1.046,0.191H142.824z M137.466,84.43
											c0,0.629,0.163,1.119,0.491,1.473c0.326,0.354,0.82,0.531,1.481,0.531c0.819,0,1.47-0.213,1.95-0.641
											c0.48-0.427,0.721-1.013,0.721-1.757c0-0.599-0.164-1.06-0.492-1.387c-0.326-0.326-0.803-0.489-1.426-0.489h-0.643
											c-0.6,0-1.097,0.209-1.491,0.627S137.466,83.752,137.466,84.43z M138.008,75.955c0,0.812,0.149,1.426,0.449,1.844
											c0.299,0.418,0.697,0.627,1.192,0.627c1.064,0,1.597-0.854,1.597-2.563c0-0.823-0.137-1.467-0.408-1.931
											c-0.272-0.464-0.668-0.696-1.188-0.696c-0.532,0-0.938,0.238-1.22,0.715C138.148,74.427,138.008,75.095,138.008,75.955z"
											/>
									</g>
								</g>
								<g>
									<g>
										<g>
											<path fill="#FFFFFF" d="M5.359,102.453c0,0.836-0.22,1.49-0.661,1.963s-1.077,0.709-1.909,0.709
												c-0.453,0-0.85-0.059-1.193-0.174c-0.342-0.115-0.608-0.244-0.798-0.385v-1.016c0.226,0.227,0.526,0.407,0.899,0.545
												c0.373,0.137,0.755,0.205,1.147,0.205c0.514,0,0.917-0.168,1.211-0.503c0.294-0.335,0.44-0.784,0.44-1.345
												c0-0.439-0.105-0.811-0.316-1.112s-0.613-0.646-1.207-1.03c-0.679-0.426-1.142-0.768-1.39-1.024
												c-0.248-0.257-0.44-0.543-0.578-0.86c-0.138-0.316-0.206-0.695-0.206-1.135c0-0.714,0.241-1.305,0.725-1.771
												s1.098-0.699,1.844-0.699c0.801,0,1.471,0.189,2.009,0.567l-0.449,0.759c-0.502-0.335-1.034-0.503-1.597-0.503
												c-0.514,0-0.924,0.151-1.229,0.453c-0.306,0.302-0.459,0.7-0.459,1.194c0,0.439,0.104,0.807,0.312,1.104
												c0.208,0.295,0.648,0.654,1.321,1.074c0.661,0.434,1.113,0.779,1.358,1.039s0.427,0.547,0.546,0.86
												C5.3,101.683,5.359,102.044,5.359,102.453z"/>
											<path fill="#FFFFFF" d="M13.144,99.954c0,1.672-0.265,2.952-0.793,3.839c-0.529,0.889-1.286,1.332-2.271,1.332
												c-0.973,0-1.717-0.443-2.234-1.332c-0.517-0.887-0.775-2.167-0.775-3.839c0-3.423,1.016-5.134,3.046-5.134
												c0.954,0,1.698,0.448,2.229,1.346C12.878,97.063,13.144,98.325,13.144,99.954z M7.979,99.954
												c0,1.435,0.171,2.517,0.514,3.249c0.342,0.732,0.878,1.098,1.606,1.098c1.425,0,2.138-1.449,2.138-4.347
												c0-2.874-0.713-4.311-2.138-4.311c-0.747,0-1.286,0.36-1.62,1.08S7.979,98.521,7.979,99.954z"/>
											<path fill="#FFFFFF" d="M16.04,104.941h-0.872v-14.24h0.872V104.941z"/>
											<path fill="#FFFFFF" d="M19.554,95.012v6.48c0,0.982,0.118,1.699,0.353,2.15s0.598,0.677,1.087,0.677
												c0.752,0,1.304-0.304,1.656-0.91c0.352-0.607,0.527-1.588,0.527-2.942v-5.455h0.863v9.93h-0.734l-0.11-1.391h-0.073
												c-0.214,0.506-0.511,0.896-0.89,1.167c-0.379,0.271-0.792,0.407-1.239,0.407c-0.801,0-1.387-0.283-1.757-0.852
												c-0.37-0.566-0.555-1.494-0.555-2.781v-6.48H19.554z"/>
											<path fill="#FFFFFF" d="M28.659,104.319c0.269,0,0.508-0.036,0.716-0.109v0.731c-0.269,0.123-0.615,0.184-1.037,0.184
												c-1.028,0-1.542-0.766-1.542-2.297v-7.047h-0.899v-0.513l0.881-0.257l0.285-2.361h0.605v2.361h1.578v0.77h-1.578v6.799
												c0,0.672,0.073,1.129,0.22,1.373C28.035,104.197,28.292,104.319,28.659,104.319z"/>
											<path fill="#FFFFFF" d="M30.769,92.258c0-0.275,0.056-0.488,0.169-0.641s0.258-0.229,0.436-0.229
												c0.165,0,0.296,0.076,0.395,0.229c0.098,0.152,0.147,0.365,0.147,0.641c0,0.262-0.049,0.471-0.147,0.627
												c-0.098,0.155-0.229,0.232-0.395,0.232c-0.178,0-0.323-0.077-0.436-0.232C30.825,92.729,30.769,92.52,30.769,92.258z
												 M31.769,104.941h-0.872v-9.93h0.872V104.941z"/>
											<path fill="#FFFFFF" d="M40.054,99.954c0,1.672-0.265,2.952-0.793,3.839c-0.529,0.889-1.286,1.332-2.271,1.332
												c-0.973,0-1.717-0.443-2.234-1.332c-0.517-0.887-0.775-2.167-0.775-3.839c0-3.423,1.016-5.134,3.046-5.134
												c0.954,0,1.698,0.448,2.229,1.346C39.788,97.063,40.054,98.325,40.054,99.954z M34.889,99.954
												c0,1.435,0.171,2.517,0.514,3.249c0.342,0.732,0.878,1.098,1.606,1.098c1.425,0,2.138-1.449,2.138-4.347
												c0-2.874-0.713-4.311-2.138-4.311c-0.747,0-1.286,0.36-1.62,1.08S34.889,98.521,34.889,99.954z"/>
											<path fill="#FFFFFF" d="M46.574,104.941v-6.846c0-1.646-0.49-2.471-1.468-2.471c-0.747,0-1.292,0.309-1.638,0.925
												c-0.346,0.616-0.519,1.596-0.519,2.938v5.454h-0.872v-9.93h0.734l0.073,1.383h0.083c0.208-0.5,0.507-0.889,0.899-1.162
												c0.392-0.275,0.811-0.412,1.257-0.412c0.771,0,1.349,0.258,1.734,0.773s0.578,1.344,0.578,2.484v6.863H46.574z"/>
											<path fill="#FFFFFF" d="M54.101,102.453c0,0.836-0.22,1.49-0.661,1.963s-1.077,0.709-1.909,0.709
												c-0.453,0-0.85-0.059-1.193-0.174c-0.342-0.115-0.608-0.244-0.798-0.385v-1.016c0.226,0.227,0.526,0.407,0.899,0.545
												c0.373,0.137,0.755,0.205,1.147,0.205c0.514,0,0.917-0.168,1.211-0.503c0.294-0.335,0.44-0.784,0.44-1.345
												c0-0.439-0.105-0.811-0.316-1.112s-0.613-0.646-1.207-1.03c-0.679-0.426-1.142-0.768-1.39-1.024
												c-0.248-0.257-0.44-0.543-0.578-0.86c-0.138-0.316-0.206-0.695-0.206-1.135c0-0.714,0.241-1.305,0.725-1.771
												s1.098-0.699,1.844-0.699c0.801,0,1.471,0.189,2.009,0.567l-0.449,0.759c-0.502-0.335-1.034-0.503-1.597-0.503
												c-0.514,0-0.924,0.151-1.229,0.453c-0.306,0.302-0.459,0.7-0.459,1.194c0,0.439,0.104,0.807,0.312,1.104
												c0.208,0.295,0.648,0.654,1.321,1.074c0.661,0.434,1.113,0.779,1.358,1.039s0.427,0.547,0.546,0.86
												C54.042,101.683,54.101,102.044,54.101,102.453z"/>
											<path fill="#FFFFFF" d="M61.657,104.319c0.269,0,0.508-0.036,0.716-0.109v0.731c-0.269,0.123-0.615,0.184-1.037,0.184
												c-1.028,0-1.542-0.766-1.542-2.297v-7.047h-0.899v-0.513l0.881-0.257l0.285-2.361h0.605v2.361h1.578v0.77h-1.578v6.799
												c0,0.672,0.073,1.129,0.22,1.373C61.033,104.197,61.29,104.319,61.657,104.319z"/>
											<path fill="#FFFFFF" d="M68.391,104.941v-6.846c0-0.896-0.118-1.532-0.354-1.907c-0.235-0.376-0.619-0.563-1.151-0.563
												c-0.704,0-1.233,0.312-1.587,0.934c-0.355,0.623-0.532,1.605-0.532,2.947v5.436h-0.872v-14.24h0.872v4.622
												c0,0.421-0.012,0.772-0.037,1.053h0.073c0.196-0.494,0.491-0.877,0.885-1.148s0.806-0.407,1.234-0.407
												c0.844,0,1.443,0.274,1.798,0.823c0.354,0.55,0.532,1.366,0.532,2.452v6.846H68.391z"/>
											<path fill="#FFFFFF" d="M75.862,104.941l-0.11-1.391h-0.037c-0.477,1.049-1.199,1.574-2.165,1.574
												c-0.648,0-1.17-0.258-1.564-0.773s-0.592-1.207-0.592-2.072c0-0.946,0.284-1.695,0.853-2.248
												c0.569-0.551,1.367-0.852,2.395-0.9l1.073-0.055v-0.824c0-0.928-0.116-1.604-0.349-2.027s-0.618-0.636-1.156-0.636
												c-0.569,0-1.15,0.187-1.744,0.558l-0.376-0.686c0.691-0.428,1.416-0.641,2.174-0.641c0.82,0,1.41,0.258,1.771,0.773
												s0.542,1.377,0.542,2.585v6.763H75.862z M73.743,104.384c0.624,0,1.109-0.307,1.455-0.92
												c0.345-0.613,0.518-1.481,0.518-2.604v-1.034l-1.037,0.055c-0.801,0.043-1.396,0.264-1.785,0.664
												c-0.389,0.399-0.583,0.983-0.583,1.752c0,0.721,0.128,1.248,0.385,1.584C72.954,104.216,73.302,104.384,73.743,104.384z"
												/>
											<path fill="#FFFFFF" d="M80.953,104.319c0.269,0,0.508-0.036,0.716-0.109v0.731c-0.269,0.123-0.615,0.184-1.037,0.184
												c-1.028,0-1.542-0.766-1.542-2.297v-7.047h-0.899v-0.513l0.881-0.257l0.285-2.361h0.605v2.361h1.578v0.77h-1.578v6.799
												c0,0.672,0.073,1.129,0.22,1.373C80.329,104.197,80.586,104.319,80.953,104.319z"/>
											<path fill="#FFFFFF" d="M89.68,105.125c-1.933,0-2.899-1.711-2.899-5.135c0-1.684,0.242-2.966,0.725-3.848
												c0.483-0.882,1.196-1.322,2.138-1.322c0.447,0,0.87,0.128,1.271,0.385c0.4,0.256,0.72,0.609,0.959,1.061h0.073
												l-0.037-1.107v-4.457h0.872v14.24h-0.716l-0.073-1.391H91.91c-0.239,0.506-0.548,0.896-0.927,1.167
												C90.604,104.989,90.17,105.125,89.68,105.125z M89.735,104.365c0.697,0,1.234-0.322,1.61-0.965
												c0.376-0.645,0.564-1.592,0.564-2.842V99.99c0-1.5-0.182-2.6-0.546-3.299c-0.364-0.698-0.919-1.048-1.666-1.048
												c-0.716,0-1.229,0.374-1.542,1.121s-0.468,1.829-0.468,3.245c0,1.428,0.162,2.51,0.486,3.248
												S89.02,104.365,89.735,104.365z"/>
											<path fill="#FFFFFF" d="M98.212,105.125c-1.052,0-1.861-0.447-2.427-1.341s-0.849-2.14-0.849-3.738
												c0-1.696,0.252-2.991,0.757-3.886c0.505-0.893,1.231-1.34,2.179-1.34c0.826,0,1.478,0.392,1.955,1.176
												s0.715,1.841,0.715,3.171v0.806h-4.716c0.012,1.445,0.217,2.529,0.615,3.248c0.397,0.721,1,1.08,1.808,1.08
												c0.624,0,1.281-0.203,1.973-0.613v0.843C99.585,104.927,98.916,105.125,98.212,105.125z M97.817,95.607
												c-1.199,0-1.856,1.192-1.973,3.578h3.826c0-1.092-0.167-1.961-0.5-2.608C98.837,95.931,98.387,95.607,97.817,95.607z"/>
											<path fill="#FFFFFF" d="M111.458,104.941v-6.763c0-1.665-0.489-2.499-1.468-2.499c-0.673,0-1.158,0.292-1.455,0.875
												c-0.296,0.582-0.444,1.441-0.444,2.576v5.811h-0.862v-6.763c0-0.842-0.119-1.469-0.357-1.881
												c-0.239-0.411-0.609-0.618-1.111-0.618c-0.66,0-1.141,0.3-1.439,0.897c-0.301,0.599-0.45,1.568-0.45,2.91v5.454h-0.872
												v-9.93h0.734l0.073,1.383h0.083c0.397-1.05,1.073-1.574,2.027-1.574c0.551,0,0.984,0.146,1.303,0.439
												s0.548,0.72,0.688,1.281c0.239-0.61,0.532-1.05,0.881-1.318s0.802-0.402,1.358-0.402c0.752,0,1.303,0.288,1.651,0.865
												c0.349,0.576,0.522,1.499,0.522,2.768v6.488H111.458z"/>
											<path fill="#FFFFFF" d="M120.785,99.954c0,1.672-0.264,2.952-0.793,3.839c-0.529,0.889-1.286,1.332-2.271,1.332
												c-0.973,0-1.717-0.443-2.234-1.332c-0.517-0.887-0.775-2.167-0.775-3.839c0-3.423,1.016-5.134,3.047-5.134
												c0.954,0,1.697,0.448,2.229,1.346C120.52,97.063,120.785,98.325,120.785,99.954z M115.62,99.954
												c0,1.435,0.171,2.517,0.514,3.249s0.878,1.098,1.606,1.098c1.424,0,2.137-1.449,2.137-4.347
												c0-2.874-0.713-4.311-2.137-4.311c-0.747,0-1.287,0.36-1.62,1.08S115.62,98.521,115.62,99.954z"/>
											<path fill="#FFFFFF" d="M127.306,104.941v-6.846c0-1.646-0.489-2.471-1.468-2.471c-0.747,0-1.293,0.309-1.639,0.925
												s-0.518,1.596-0.518,2.938v5.454h-0.872v-9.93h0.733l0.074,1.383h0.082c0.208-0.5,0.508-0.889,0.899-1.162
												c0.392-0.275,0.811-0.412,1.257-0.412c0.771,0,1.35,0.258,1.734,0.773s0.578,1.344,0.578,2.484v6.863H127.306z"/>
											<path fill="#FFFFFF" d="M134.832,102.453c0,0.836-0.22,1.49-0.66,1.963s-1.076,0.709-1.908,0.709
												c-0.453,0-0.851-0.059-1.193-0.174c-0.342-0.115-0.608-0.244-0.798-0.385v-1.016c0.226,0.227,0.526,0.407,0.899,0.545
												c0.373,0.137,0.755,0.205,1.146,0.205c0.514,0,0.918-0.168,1.211-0.503c0.294-0.335,0.44-0.784,0.44-1.345
												c0-0.439-0.105-0.811-0.316-1.112s-0.613-0.646-1.206-1.03c-0.68-0.426-1.143-0.768-1.391-1.024s-0.44-0.543-0.578-0.86
												c-0.138-0.316-0.206-0.695-0.206-1.135c0-0.714,0.241-1.305,0.725-1.771s1.099-0.699,1.845-0.699
												c0.801,0,1.471,0.189,2.009,0.567l-0.449,0.759c-0.502-0.335-1.034-0.503-1.597-0.503c-0.514,0-0.924,0.151-1.229,0.453
												s-0.459,0.7-0.459,1.194c0,0.439,0.104,0.807,0.312,1.104c0.209,0.295,0.648,0.654,1.322,1.074
												c0.66,0.434,1.113,0.779,1.357,1.039s0.427,0.547,0.546,0.86C134.773,101.683,134.832,102.044,134.832,102.453z"/>
											<path fill="#FFFFFF" d="M138.837,104.319c0.269,0,0.508-0.036,0.716-0.109v0.731c-0.27,0.123-0.615,0.184-1.037,0.184
												c-1.027,0-1.541-0.766-1.541-2.297v-7.047h-0.899v-0.513l0.881-0.257l0.284-2.361h0.605v2.361h1.578v0.77h-1.578v6.799
												c0,0.672,0.074,1.129,0.221,1.373S138.471,104.319,138.837,104.319z"/>
											<path fill="#FFFFFF" d="M143.836,94.82c0.313,0,0.604,0.043,0.872,0.128l-0.211,0.869
												c-0.22-0.091-0.446-0.138-0.679-0.138c-0.337,0-0.65,0.173-0.941,0.518c-0.29,0.345-0.518,0.825-0.684,1.441
												c-0.164,0.616-0.247,1.297-0.247,2.041v5.262h-0.872v-9.93h0.716l0.092,1.739h0.064
												C142.411,95.464,143.041,94.82,143.836,94.82z"/>
											<path fill="#FFFFFF" d="M149.512,104.941l-0.109-1.391h-0.037c-0.477,1.049-1.199,1.574-2.165,1.574
												c-0.648,0-1.17-0.258-1.564-0.773s-0.592-1.207-0.592-2.072c0-0.946,0.284-1.695,0.853-2.248
												c0.569-0.551,1.367-0.852,2.396-0.9l1.073-0.055v-0.824c0-0.928-0.116-1.604-0.349-2.027s-0.618-0.636-1.155-0.636
												c-0.569,0-1.15,0.187-1.744,0.558l-0.376-0.686c0.69-0.428,1.416-0.641,2.175-0.641c0.819,0,1.41,0.258,1.771,0.773
												s0.542,1.377,0.542,2.585v6.763H149.512z M147.393,104.384c0.624,0,1.109-0.307,1.455-0.92
												c0.345-0.613,0.518-1.481,0.518-2.604v-1.034l-1.037,0.055c-0.801,0.043-1.396,0.264-1.784,0.664
												c-0.389,0.399-0.583,0.983-0.583,1.752c0,0.721,0.129,1.248,0.386,1.584
												C146.604,104.216,146.952,104.384,147.393,104.384z"/>
											<path fill="#FFFFFF" d="M154.603,104.319c0.269,0,0.508-0.036,0.716-0.109v0.731c-0.27,0.123-0.615,0.184-1.037,0.184
												c-1.027,0-1.541-0.766-1.541-2.297v-7.047h-0.899v-0.513l0.881-0.257l0.284-2.361h0.605v2.361h1.578v0.77h-1.578v6.799
												c0,0.672,0.074,1.129,0.221,1.373S154.236,104.319,154.603,104.319z"/>
											<path fill="#FFFFFF" d="M159.666,105.125c-1.052,0-1.861-0.447-2.427-1.341s-0.849-2.14-0.849-3.738
												c0-1.696,0.252-2.991,0.757-3.886c0.505-0.893,1.231-1.34,2.179-1.34c0.826,0,1.479,0.392,1.955,1.176
												s0.715,1.841,0.715,3.171v0.806h-4.715c0.012,1.445,0.217,2.529,0.614,3.248c0.397,0.721,1,1.08,1.808,1.08
												c0.623,0,1.281-0.203,1.973-0.613v0.843C161.039,104.927,160.369,105.125,159.666,105.125z M159.271,95.607
												c-1.199,0-1.856,1.192-1.973,3.578h3.826c0-1.092-0.166-1.961-0.5-2.608C160.291,95.931,159.841,95.607,159.271,95.607z"
												/>
											<path fill="#FFFFFF" d="M174.117,99.954c0,1.672-0.265,2.952-0.793,3.839c-0.529,0.889-1.287,1.332-2.271,1.332
												c-0.973,0-1.717-0.443-2.234-1.332c-0.518-0.887-0.775-2.167-0.775-3.839c0-3.423,1.016-5.134,3.047-5.134
												c0.953,0,1.697,0.448,2.229,1.346C173.852,97.063,174.117,98.325,174.117,99.954z M168.951,99.954
												c0,1.435,0.172,2.517,0.514,3.249c0.343,0.732,0.879,1.098,1.606,1.098c1.425,0,2.138-1.449,2.138-4.347
												c0-2.874-0.713-4.311-2.138-4.311c-0.747,0-1.286,0.36-1.62,1.08C169.118,97.443,168.951,98.521,168.951,99.954z"/>
											<path fill="#FFFFFF" d="M176.977,95.012v6.48c0,0.982,0.117,1.699,0.353,2.15s0.599,0.677,1.087,0.677
												c0.753,0,1.305-0.304,1.656-0.91c0.352-0.607,0.527-1.588,0.527-2.942v-5.455h0.863v9.93h-0.734l-0.109-1.391h-0.074
												c-0.214,0.506-0.511,0.896-0.89,1.167c-0.38,0.271-0.792,0.407-1.239,0.407c-0.801,0-1.387-0.283-1.757-0.852
												c-0.37-0.566-0.555-1.494-0.555-2.781v-6.48H176.977z"/>
											<path fill="#FFFFFF" d="M187.018,94.82c0.312,0,0.602,0.043,0.871,0.128l-0.211,0.869
												c-0.221-0.091-0.447-0.138-0.68-0.138c-0.336,0-0.649,0.173-0.939,0.518c-0.291,0.345-0.519,0.825-0.684,1.441
												c-0.166,0.616-0.248,1.297-0.248,2.041v5.262h-0.871v-9.93h0.715l0.092,1.739h0.064
												C185.592,95.464,186.222,94.82,187.018,94.82z"/>
										</g>
									</g>
									<g>
										<g>
											<g>
												<path fill="#FFFFFF" d="M3.882,127.914c-1.933,0-2.899-1.711-2.899-5.135c0-1.684,0.242-2.967,0.725-3.848
													c0.483-0.881,1.196-1.322,2.138-1.322c0.447,0,0.87,0.127,1.271,0.385c0.4,0.256,0.72,0.609,0.959,1.061h0.073
													l-0.037-1.107v-4.457h0.872v14.24H6.268l-0.073-1.391H6.112c-0.239,0.506-0.548,0.895-0.927,1.166
													C4.806,127.777,4.372,127.914,3.882,127.914z M3.937,127.154c0.697,0,1.234-0.322,1.61-0.965
													c0.376-0.645,0.564-1.592,0.564-2.842v-0.568c0-1.5-0.182-2.6-0.546-3.299c-0.364-0.699-0.919-1.047-1.666-1.047
													c-0.716,0-1.229,0.373-1.542,1.121c-0.312,0.746-0.468,1.828-0.468,3.244c0,1.428,0.162,2.51,0.486,3.248
													S3.221,127.154,3.937,127.154z"/>
												<path fill="#FFFFFF" d="M12.414,127.914c-1.052,0-1.861-0.447-2.427-1.34c-0.566-0.895-0.849-2.141-0.849-3.74
													c0-1.695,0.252-2.99,0.757-3.885c0.505-0.893,1.231-1.34,2.179-1.34c0.826,0,1.478,0.393,1.955,1.176
													s0.715,1.842,0.715,3.172v0.805h-4.716c0.012,1.445,0.217,2.529,0.615,3.248c0.397,0.721,1,1.08,1.808,1.08
													c0.624,0,1.281-0.203,1.973-0.613v0.842C13.787,127.715,13.117,127.914,12.414,127.914z M12.019,118.396
													c-1.199,0-1.856,1.193-1.973,3.578h3.826c0-1.092-0.167-1.961-0.5-2.607C13.039,118.719,12.588,118.396,12.019,118.396z
													"/>
												<path fill="#FFFFFF" d="M21.109,125.242c0,0.836-0.22,1.49-0.661,1.963s-1.077,0.709-1.909,0.709
													c-0.453,0-0.85-0.059-1.193-0.174c-0.342-0.115-0.608-0.244-0.798-0.385v-1.016c0.226,0.227,0.526,0.408,0.899,0.545
													s0.755,0.205,1.147,0.205c0.514,0,0.917-0.168,1.211-0.502c0.294-0.336,0.44-0.785,0.44-1.346
													c0-0.439-0.105-0.811-0.316-1.113c-0.211-0.301-0.613-0.645-1.207-1.029c-0.679-0.426-1.142-0.768-1.39-1.025
													c-0.248-0.256-0.44-0.543-0.578-0.859s-0.206-0.695-0.206-1.135c0-0.713,0.241-1.305,0.725-1.771
													s1.098-0.699,1.844-0.699c0.801,0,1.471,0.189,2.009,0.566l-0.449,0.76c-0.502-0.334-1.034-0.502-1.597-0.502
													c-0.514,0-0.924,0.15-1.229,0.453c-0.306,0.301-0.459,0.699-0.459,1.193c0,0.439,0.104,0.807,0.312,1.104
													c0.208,0.295,0.648,0.654,1.321,1.074c0.661,0.434,1.113,0.779,1.358,1.039s0.427,0.547,0.546,0.859
													C21.049,124.471,21.109,124.832,21.109,125.242z"/>
												<path fill="#FFFFFF" d="M23.159,115.047c0-0.275,0.056-0.488,0.169-0.641s0.258-0.229,0.436-0.229
													c0.165,0,0.296,0.076,0.395,0.229c0.098,0.152,0.147,0.365,0.147,0.641c0,0.262-0.049,0.471-0.147,0.627
													c-0.098,0.156-0.229,0.232-0.395,0.232c-0.178,0-0.323-0.076-0.436-0.232S23.159,115.309,23.159,115.047z
													 M24.159,127.73h-0.872v-9.93h0.872V127.73z"/>
												<path fill="#FFFFFF" d="M32.05,117.801v0.613l-1.358,0.156c0.184,0.238,0.333,0.578,0.45,1.02
													c0.116,0.443,0.174,0.896,0.174,1.359c0,0.965-0.219,1.746-0.656,2.344c-0.437,0.598-1.014,0.896-1.729,0.896h-0.22
													l-0.192-0.018c-0.294,0.207-0.525,0.414-0.693,0.621c-0.168,0.207-0.252,0.449-0.252,0.723
													c0,0.281,0.11,0.5,0.331,0.654c0.22,0.156,0.517,0.234,0.89,0.234h0.624c0.887,0,1.575,0.229,2.064,0.686
													c0.489,0.459,0.734,1.119,0.734,1.986c0,0.971-0.329,1.738-0.986,2.307c-0.657,0.566-1.524,0.852-2.601,0.852
													c-0.899,0-1.59-0.229-2.074-0.682c-0.483-0.455-0.725-1.109-0.725-1.965c0-0.621,0.159-1.154,0.477-1.596
													c0.318-0.443,0.816-0.793,1.496-1.049c-0.306-0.133-0.552-0.32-0.739-0.559c-0.187-0.236-0.28-0.521-0.28-0.85
													c0-0.299,0.099-0.566,0.298-0.801c0.199-0.236,0.481-0.486,0.849-0.756c-0.508-0.232-0.892-0.607-1.151-1.125
													c-0.26-0.52-0.39-1.129-0.39-1.83c0-1.057,0.223-1.889,0.67-2.5c0.446-0.609,1.058-0.914,1.835-0.914
													c0.416,0,0.765,0.064,1.046,0.191H32.05z M26.692,129.516c0,0.629,0.164,1.119,0.491,1.473s0.821,0.531,1.482,0.531
													c0.82,0,1.47-0.213,1.95-0.641c0.48-0.428,0.721-1.012,0.721-1.758c0-0.598-0.164-1.059-0.491-1.385
													s-0.803-0.49-1.427-0.49h-0.642c-0.6,0-1.097,0.209-1.491,0.627S26.692,128.838,26.692,129.516z M27.233,121.041
													c0,0.811,0.15,1.426,0.45,1.844c0.299,0.418,0.697,0.627,1.192,0.627c1.064,0,1.597-0.854,1.597-2.563
													c0-0.824-0.136-1.467-0.408-1.932c-0.272-0.463-0.668-0.695-1.188-0.695c-0.532,0-0.939,0.238-1.22,0.715
													C27.374,119.512,27.233,120.182,27.233,121.041z"/>
												<path fill="#FFFFFF" d="M37.946,127.73v-6.846c0-1.646-0.49-2.471-1.468-2.471c-0.747,0-1.292,0.309-1.638,0.924
													c-0.346,0.617-0.519,1.596-0.519,2.939v5.453H33.45v-9.93h0.734l0.073,1.383h0.083c0.208-0.5,0.507-0.889,0.899-1.162
													c0.392-0.275,0.811-0.412,1.257-0.412c0.771,0,1.349,0.258,1.734,0.773s0.578,1.344,0.578,2.484v6.863H37.946z"/>
												<path fill="#FFFFFF" d="M50.455,127.73l-0.899-1.629c-0.447,0.672-0.881,1.141-1.303,1.41
													c-0.422,0.268-0.908,0.402-1.458,0.402c-0.747,0-1.334-0.303-1.762-0.906c-0.428-0.604-0.643-1.449-0.643-2.535
													c0-0.555,0.067-1.051,0.202-1.486c0.134-0.438,0.333-0.84,0.596-1.209s0.667-0.787,1.211-1.258
													c-0.453-0.83-0.748-1.508-0.886-2.037c-0.138-0.527-0.207-1.117-0.207-1.77c0-0.807,0.159-1.434,0.478-1.881
													c0.318-0.449,0.752-0.674,1.303-0.674c0.557,0,0.994,0.23,1.312,0.691s0.477,1.111,0.477,1.955
													c0,0.842-0.116,1.559-0.349,2.15s-0.618,1.156-1.156,1.693l2.166,3.861c0.349-0.721,0.523-1.613,0.523-2.682h0.863
													c0,0.574-0.089,1.195-0.266,1.867c-0.178,0.672-0.389,1.223-0.633,1.656l1.432,2.379H50.455z M45.271,124.492
													c0,0.822,0.146,1.455,0.436,1.898c0.291,0.441,0.677,0.664,1.161,0.664c0.44,0,0.841-0.141,1.202-0.422
													c0.361-0.281,0.706-0.715,1.037-1.299l-2.331-4.164c-0.581,0.537-0.977,1.047-1.188,1.531
													C45.376,123.188,45.271,123.783,45.271,124.492z M48.015,116.805c0-1.215-0.321-1.822-0.963-1.822
													c-0.282,0-0.499,0.156-0.651,0.467c-0.153,0.311-0.229,0.764-0.229,1.355c0,0.529,0.075,1.088,0.225,1.674
													s0.344,1.076,0.583,1.473c0.398-0.402,0.67-0.865,0.817-1.391C47.941,118.037,48.015,117.451,48.015,116.805z"/>
												<path fill="#FFFFFF" d="M58.126,127.109c0.269,0,0.508-0.037,0.716-0.111v0.732c-0.269,0.123-0.615,0.184-1.037,0.184
													c-1.028,0-1.542-0.766-1.542-2.297v-7.047h-0.899v-0.514l0.881-0.256l0.285-2.361h0.605v2.361h1.578v0.77h-1.578v6.799
													c0,0.672,0.073,1.129,0.22,1.373C57.502,126.986,57.759,127.109,58.126,127.109z"/>
												<path fill="#FFFFFF" d="M63.189,127.914c-1.052,0-1.861-0.447-2.427-1.34c-0.566-0.895-0.849-2.141-0.849-3.74
													c0-1.695,0.252-2.99,0.757-3.885c0.505-0.893,1.231-1.34,2.179-1.34c0.826,0,1.478,0.393,1.955,1.176
													s0.715,1.842,0.715,3.172v0.805h-4.716c0.012,1.445,0.217,2.529,0.615,3.248c0.397,0.721,1,1.08,1.808,1.08
													c0.624,0,1.281-0.203,1.973-0.613v0.842C64.563,127.715,63.893,127.914,63.189,127.914z M62.795,118.396
													c-1.199,0-1.856,1.193-1.973,3.578h3.826c0-1.092-0.167-1.961-0.5-2.607C63.815,118.719,63.364,118.396,62.795,118.396z
													"/>
												<path fill="#FFFFFF" d="M70.536,127.914c-0.998,0-1.748-0.432-2.253-1.295c-0.504-0.863-0.757-2.131-0.757-3.803
													c0-1.695,0.255-2.988,0.766-3.875c0.511-0.889,1.265-1.332,2.262-1.332c0.618,0,1.132,0.113,1.542,0.338l-0.339,0.77
													c-0.41-0.189-0.786-0.283-1.129-0.283c-1.462,0-2.193,1.455-2.193,4.365c0,2.885,0.731,4.328,2.193,4.328
													c0.435,0,0.905-0.098,1.413-0.293v0.732c-0.202,0.109-0.449,0.195-0.743,0.256
													C71.004,127.883,70.75,127.914,70.536,127.914z"/>
												<path fill="#FFFFFF" d="M78.073,127.73v-6.846c0-0.896-0.118-1.533-0.354-1.908s-0.619-0.563-1.151-0.563
													c-0.704,0-1.233,0.313-1.587,0.934c-0.355,0.623-0.532,1.605-0.532,2.947v5.436h-0.872v-14.24h0.872v4.623
													c0,0.42-0.012,0.771-0.037,1.051h0.073c0.196-0.494,0.491-0.877,0.885-1.148s0.806-0.406,1.234-0.406
													c0.844,0,1.443,0.273,1.798,0.824c0.354,0.549,0.532,1.365,0.532,2.451v6.846H78.073z"/>
												<path fill="#FFFFFF" d="M86.187,127.73v-6.846c0-1.646-0.49-2.471-1.468-2.471c-0.747,0-1.292,0.309-1.638,0.924
													c-0.346,0.617-0.519,1.596-0.519,2.939v5.453h-0.872v-9.93h0.734l0.073,1.383h0.083c0.208-0.5,0.507-0.889,0.899-1.162
													c0.392-0.275,0.811-0.412,1.257-0.412c0.771,0,1.349,0.258,1.734,0.773s0.578,1.344,0.578,2.484v6.863H86.187z"/>
												<path fill="#FFFFFF" d="M95.411,122.744c0,1.67-0.265,2.951-0.793,3.838c-0.529,0.889-1.286,1.332-2.271,1.332
													c-0.973,0-1.717-0.443-2.234-1.332c-0.517-0.887-0.775-2.168-0.775-3.838c0-3.424,1.016-5.135,3.046-5.135
													c0.954,0,1.698,0.447,2.229,1.346C95.145,119.852,95.411,121.113,95.411,122.744z M90.246,122.744
													c0,1.434,0.171,2.516,0.514,3.248c0.342,0.732,0.878,1.098,1.606,1.098c1.425,0,2.138-1.449,2.138-4.346
													c0-2.875-0.713-4.311-2.138-4.311c-0.747,0-1.286,0.359-1.62,1.078C90.412,120.232,90.246,121.311,90.246,122.744z"/>
												<path fill="#FFFFFF" d="M98.307,127.73h-0.872v-14.24h0.872V127.73z"/>
												<path fill="#FFFFFF" d="M106.592,122.744c0,1.67-0.264,2.951-0.793,3.838c-0.529,0.889-1.286,1.332-2.271,1.332
													c-0.973,0-1.717-0.443-2.234-1.332c-0.517-0.887-0.775-2.168-0.775-3.838c0-3.424,1.015-5.135,3.046-5.135
													c0.954,0,1.697,0.447,2.229,1.346C106.326,119.852,106.592,121.113,106.592,122.744z M101.427,122.744
													c0,1.434,0.171,2.516,0.514,3.248s0.878,1.098,1.606,1.098c1.424,0,2.137-1.449,2.137-4.346
													c0-2.875-0.713-4.311-2.137-4.311c-0.747,0-1.287,0.359-1.62,1.078C101.594,120.232,101.427,121.311,101.427,122.744z"
													/>
												<path fill="#FFFFFF" d="M113.828,117.801v0.613l-1.357,0.156c0.184,0.238,0.333,0.578,0.449,1.02
													c0.116,0.443,0.174,0.896,0.174,1.359c0,0.965-0.219,1.746-0.656,2.344c-0.437,0.598-1.014,0.896-1.729,0.896h-0.221
													l-0.192-0.018c-0.294,0.207-0.524,0.414-0.692,0.621c-0.169,0.207-0.253,0.449-0.253,0.723
													c0,0.281,0.11,0.5,0.331,0.654c0.22,0.156,0.516,0.234,0.889,0.234h0.625c0.887,0,1.574,0.229,2.064,0.686
													c0.488,0.459,0.733,1.119,0.733,1.986c0,0.971-0.329,1.738-0.986,2.307c-0.657,0.566-1.524,0.852-2.601,0.852
													c-0.899,0-1.591-0.229-2.074-0.682c-0.483-0.455-0.725-1.109-0.725-1.965c0-0.621,0.158-1.154,0.477-1.596
													c0.318-0.443,0.816-0.793,1.496-1.049c-0.307-0.133-0.553-0.32-0.738-0.559c-0.188-0.236-0.28-0.521-0.28-0.85
													c0-0.299,0.099-0.566,0.298-0.801c0.199-0.236,0.482-0.486,0.85-0.756c-0.508-0.232-0.893-0.607-1.152-1.125
													c-0.26-0.52-0.39-1.129-0.39-1.83c0-1.057,0.224-1.889,0.67-2.5c0.446-0.609,1.058-0.914,1.835-0.914
													c0.416,0,0.765,0.064,1.046,0.191H113.828z M108.47,129.516c0,0.629,0.163,1.119,0.491,1.473
													c0.326,0.354,0.82,0.531,1.481,0.531c0.819,0,1.47-0.213,1.95-0.641s0.721-1.012,0.721-1.758
													c0-0.598-0.164-1.059-0.492-1.385c-0.326-0.326-0.803-0.49-1.426-0.49h-0.643c-0.6,0-1.097,0.209-1.491,0.627
													S108.47,128.838,108.47,129.516z M109.012,121.041c0,0.811,0.149,1.426,0.449,1.844
													c0.299,0.418,0.697,0.627,1.192,0.627c1.064,0,1.597-0.854,1.597-2.563c0-0.824-0.137-1.467-0.408-1.932
													c-0.272-0.463-0.668-0.695-1.188-0.695c-0.532,0-0.938,0.238-1.22,0.715
													C109.152,119.512,109.012,120.182,109.012,121.041z"/>
												<path fill="#FFFFFF" d="M116.475,127.713l-2.486-9.912h0.881l1.506,6.195c0.177,0.746,0.348,1.584,0.514,2.518h0.072
													c0.117-0.811,0.279-1.656,0.486-2.535l1.469-6.178h0.881l-2.908,11.807c-0.215,0.871-0.494,1.527-0.84,1.967
													s-0.807,0.66-1.381,0.66c-0.232,0-0.496-0.053-0.789-0.156v-0.787c0.244,0.086,0.482,0.129,0.715,0.129
													c0.367,0,0.658-0.158,0.872-0.473s0.403-0.818,0.569-1.514L116.475,127.713z"/>
												<path fill="#FFFFFF" d="M128.439,127.914c-0.998,0-1.748-0.432-2.253-1.295s-0.757-2.131-0.757-3.803
													c0-1.695,0.256-2.988,0.766-3.875c0.512-0.889,1.266-1.332,2.262-1.332c0.618,0,1.133,0.113,1.542,0.338l-0.339,0.77
													c-0.41-0.189-0.787-0.283-1.129-0.283c-1.463,0-2.193,1.455-2.193,4.365c0,2.885,0.73,4.328,2.193,4.328
													c0.434,0,0.904-0.098,1.412-0.293v0.732c-0.201,0.109-0.449,0.195-0.742,0.256
													C128.907,127.883,128.653,127.914,128.439,127.914z"/>
												<path fill="#FFFFFF" d="M135.334,127.73l-0.11-1.391h-0.037c-0.478,1.049-1.198,1.574-2.165,1.574
													c-0.648,0-1.17-0.258-1.564-0.773s-0.592-1.207-0.592-2.072c0-0.945,0.284-1.695,0.854-2.248
													c0.568-0.551,1.367-0.852,2.395-0.9l1.073-0.055v-0.824c0-0.928-0.116-1.604-0.349-2.027s-0.617-0.637-1.156-0.637
													c-0.568,0-1.15,0.188-1.743,0.559l-0.376-0.686c0.691-0.428,1.416-0.641,2.174-0.641c0.82,0,1.41,0.258,1.771,0.773
													s0.541,1.377,0.541,2.586v6.762H135.334z M133.214,127.172c0.624,0,1.108-0.307,1.454-0.918
													c0.346-0.613,0.519-1.482,0.519-2.605v-1.033l-1.036,0.055c-0.802,0.043-1.396,0.264-1.785,0.664
													c-0.389,0.398-0.582,0.982-0.582,1.752c0,0.721,0.128,1.248,0.385,1.584S132.773,127.172,133.214,127.172z"/>
												<path fill="#FFFFFF" d="M141.801,127.914c-0.502,0-0.959-0.139-1.371-0.416c-0.414-0.277-0.727-0.658-0.941-1.141
													h-0.082l0.064,1.09v4.787h-0.872v-14.434h0.716l0.092,1.363h0.082c0.244-0.5,0.559-0.883,0.941-1.152
													c0.381-0.268,0.799-0.402,1.252-0.402c1.945,0,2.918,1.711,2.918,5.135c0,1.652-0.238,2.928-0.716,3.824
													S142.712,127.914,141.801,127.914z M141.627,118.434c-0.729,0-1.27,0.32-1.625,0.961
													c-0.354,0.641-0.531,1.643-0.531,3.01v0.283c0,1.525,0.18,2.646,0.541,3.363c0.361,0.719,0.911,1.076,1.651,1.076
													c0.685,0,1.194-0.355,1.528-1.066c0.332-0.711,0.5-1.816,0.5-3.316c0-1.434-0.156-2.512-0.469-3.232
													C142.911,118.793,142.379,118.434,141.627,118.434z"/>
												<path fill="#FFFFFF" d="M150.59,127.73l-0.11-1.391h-0.037c-0.478,1.049-1.198,1.574-2.165,1.574
													c-0.648,0-1.17-0.258-1.564-0.773s-0.592-1.207-0.592-2.072c0-0.945,0.284-1.695,0.854-2.248
													c0.568-0.551,1.367-0.852,2.395-0.9l1.073-0.055v-0.824c0-0.928-0.116-1.604-0.349-2.027s-0.617-0.637-1.156-0.637
													c-0.568,0-1.15,0.188-1.743,0.559l-0.376-0.686c0.691-0.428,1.416-0.641,2.174-0.641c0.82,0,1.41,0.258,1.771,0.773
													s0.541,1.377,0.541,2.586v6.762H150.59z M148.47,127.172c0.624,0,1.108-0.307,1.454-0.918
													c0.346-0.613,0.519-1.482,0.519-2.605v-1.033l-1.036,0.055c-0.802,0.043-1.396,0.264-1.785,0.664
													c-0.389,0.398-0.582,0.982-0.582,1.752c0,0.721,0.128,1.248,0.385,1.584S148.029,127.172,148.47,127.172z"/>
												<path fill="#FFFFFF" d="M156.938,117.627c1.944,0,2.917,1.705,2.917,5.117c0,1.684-0.241,2.967-0.725,3.848
													s-1.181,1.322-2.093,1.322c-0.477,0-0.91-0.131-1.303-0.395c-0.391-0.262-0.715-0.648-0.973-1.162h-0.072l-0.12,1.373
													h-0.716v-14.24h0.872v4.42l-0.036,1.199h0.072C155.288,118.121,156.014,117.627,156.938,117.627z M156.9,118.434
													c-0.766,0-1.318,0.334-1.661,1.006s-0.514,1.771-0.514,3.305v0.229c0,2.77,0.737,4.154,2.212,4.154
													c0.672,0,1.176-0.357,1.509-1.07c0.333-0.715,0.5-1.818,0.5-3.313c0-1.434-0.162-2.512-0.486-3.232
													C158.136,118.793,157.615,118.434,156.9,118.434z"/>
												<path fill="#FFFFFF" d="M161.863,115.047c0-0.275,0.057-0.488,0.17-0.641s0.258-0.229,0.436-0.229
													c0.165,0,0.297,0.076,0.395,0.229s0.146,0.365,0.146,0.641c0,0.262-0.049,0.471-0.146,0.627s-0.229,0.232-0.395,0.232
													c-0.178,0-0.322-0.076-0.436-0.232S161.863,115.309,161.863,115.047z M162.863,127.73h-0.871v-9.93h0.871V127.73z"/>
												<path fill="#FFFFFF" d="M166.414,127.73h-0.871v-14.24h0.871V127.73z"/>
												<path fill="#FFFFFF" d="M168.966,115.047c0-0.275,0.056-0.488,0.169-0.641s0.259-0.229,0.437-0.229
													c0.165,0,0.296,0.076,0.395,0.229c0.098,0.152,0.147,0.365,0.147,0.641c0,0.262-0.05,0.471-0.147,0.627
													c-0.099,0.156-0.229,0.232-0.395,0.232c-0.178,0-0.323-0.076-0.437-0.232S168.966,115.309,168.966,115.047z
													 M169.966,127.73h-0.872v-9.93h0.872V127.73z"/>
												<path fill="#FFFFFF" d="M174.471,127.109c0.27,0,0.508-0.037,0.717-0.111v0.732c-0.27,0.123-0.615,0.184-1.037,0.184
													c-1.027,0-1.541-0.766-1.541-2.297v-7.047h-0.9v-0.514l0.881-0.256l0.285-2.361h0.605v2.361h1.578v0.77h-1.578v6.799
													c0,0.672,0.073,1.129,0.221,1.373C173.848,126.986,174.104,127.109,174.471,127.109z"/>
												<path fill="#FFFFFF" d="M176.58,115.047c0-0.275,0.057-0.488,0.17-0.641s0.258-0.229,0.436-0.229
													c0.166,0,0.297,0.076,0.395,0.229s0.147,0.365,0.147,0.641c0,0.262-0.05,0.471-0.147,0.627s-0.229,0.232-0.395,0.232
													c-0.178,0-0.322-0.076-0.436-0.232S176.58,115.309,176.58,115.047z M177.58,127.73h-0.871v-9.93h0.871V127.73z"/>
												<path fill="#FFFFFF" d="M183.086,127.914c-1.052,0-1.861-0.447-2.427-1.34c-0.565-0.895-0.849-2.141-0.849-3.74
													c0-1.695,0.252-2.99,0.757-3.885c0.505-0.893,1.231-1.34,2.179-1.34c0.826,0,1.479,0.393,1.955,1.176
													s0.715,1.842,0.715,3.172v0.805h-4.715c0.012,1.445,0.217,2.529,0.614,3.248c0.397,0.721,1,1.08,1.808,1.08
													c0.623,0,1.281-0.203,1.973-0.613v0.842C184.459,127.715,183.789,127.914,183.086,127.914z M182.691,118.396
													c-1.199,0-1.856,1.193-1.973,3.578h3.826c0-1.092-0.166-1.961-0.5-2.607
													C183.711,118.719,183.261,118.396,182.691,118.396z"/>
												<path fill="#FFFFFF" d="M191.781,125.242c0,0.836-0.221,1.49-0.66,1.963c-0.441,0.473-1.077,0.709-1.909,0.709
													c-0.452,0-0.851-0.059-1.192-0.174c-0.343-0.115-0.609-0.244-0.799-0.385v-1.016c0.227,0.227,0.526,0.408,0.899,0.545
													s0.755,0.205,1.147,0.205c0.514,0,0.917-0.168,1.211-0.502c0.293-0.336,0.439-0.785,0.439-1.346
													c0-0.439-0.105-0.811-0.316-1.113c-0.211-0.301-0.613-0.645-1.206-1.029c-0.679-0.426-1.142-0.768-1.39-1.025
													c-0.248-0.256-0.441-0.543-0.578-0.859c-0.139-0.316-0.207-0.695-0.207-1.135c0-0.713,0.242-1.305,0.725-1.771
													c0.484-0.467,1.099-0.699,1.845-0.699c0.802,0,1.472,0.189,2.009,0.566l-0.449,0.76
													c-0.502-0.334-1.033-0.502-1.596-0.502c-0.514,0-0.924,0.15-1.23,0.453c-0.306,0.301-0.459,0.699-0.459,1.193
													c0,0.439,0.104,0.807,0.313,1.104c0.208,0.295,0.648,0.654,1.321,1.074c0.661,0.434,1.113,0.779,1.358,1.039
													c0.244,0.26,0.426,0.547,0.545,0.859C191.722,124.471,191.781,124.832,191.781,125.242z"/>
											</g>
										</g>
									</g>
								</g>
							</g>
						</g>
					</g>
				</g>
			</g>
		</g>
	</g>
</g>
</svg>
