<?xml version="1.0" encoding="utf-8"?>
<!-- Generator: Adobe Illustrator 16.0.0, SVG Export Plug-In . SVG Version: 6.00 Build 0)  -->
<!DOCTYPE svg PUBLIC "-//W3C//DTD SVG 1.1//EN" "http://www.w3.org/Graphics/SVG/1.1/DTD/svg11.dtd">
<svg version="1.1" id="Layer_1" xmlns="http://www.w3.org/2000/svg" xmlns:xlink="http://www.w3.org/1999/xlink" x="0px" y="0px"
	 width="210px" height="60px" viewBox="0 0 210 60" enable-background="new 0 0 210 60" xml:space="preserve">
<g>
	<g>
		<g>
			<g>
				<path fill="#FFFFFF" d="M20.72,16.879c5.084,0,7.626,3.57,7.626,10.709c0,5.323-0.797,10.565-2.39,15.724
					c-1.594,5.16-3.649,9.146-6.166,11.959c-2.518,2.813-5.255,4.22-8.215,4.22c-1.72,0-3.174-0.518-4.363-1.552
					s-1.935-2.422-2.238-4.163H4.709l-1.708,4.958h-2.77L12.639-0.15h3.604l-4.515,21.003l-0.797,3.065h0.152
					c1.315-2.295,2.808-4.042,4.477-5.241C17.229,17.479,18.95,16.879,20.72,16.879z M20.038,20.058
					c-2.378,0-4.566,1.319-6.564,3.955c-1.999,2.637-3.643,6.345-4.933,11.126c-1.29,4.781-1.935,9.468-1.935,14.06
					c0,4.692,1.708,7.038,5.122,7.038c2.226,0,4.293-1.306,6.204-3.916c1.91-2.611,3.503-6.39,4.781-11.334
					c1.277-4.945,1.916-9.6,1.916-13.965c0-2.295-0.335-4.03-1.005-5.204C22.953,20.645,21.757,20.058,20.038,20.058z"/>
				<path fill="#FFFFFF" d="M42.954,17.674l-6.146,28.572c-0.455,1.968-0.683,3.671-0.683,5.108c0,3.104,1.188,4.655,3.566,4.655
					c5.286,0,9.042-5.261,11.269-15.781l4.819-22.555h3.566l-8.765,41.061h-2.808l0.304-5.109h-0.152
					c-2.555,3.911-5.578,5.866-9.068,5.866c-4.148,0-6.222-2.498-6.222-7.493c0-1.992,0.252-4.087,0.759-6.282l5.995-28.042H42.954z
					"/>
				<path fill="#FFFFFF" d="M70.312,55.707v3.027c-1.417,0.504-2.745,0.757-3.984,0.757c-3.212,0-4.818-1.904-4.818-5.715
					c0-0.958,0.164-2.22,0.493-3.784l6.185-29.139h-3.718l0.455-2.12l3.908-1.06l3.035-9.764h2.618l-2.087,9.764h5.426l-0.683,3.179
					h-5.426l-5.995,28.118c-0.354,1.615-0.531,2.952-0.531,4.012c0,1.135,0.208,1.948,0.626,2.44s1.082,0.738,1.992,0.738
					C68.592,56.161,69.426,56.01,70.312,55.707z"/>
				<path fill="#FFFFFF" d="M105.408,58.734l6.525-30.843c0.254-1.009,0.381-2.068,0.381-3.179c0-2.851-1.266-4.276-3.795-4.276
					c-2.656,0-4.883,1.274-6.678,3.822c-1.796,2.548-3.25,6.522-4.363,11.921L92.66,58.734h-3.566L101.576-0.15h3.604l-3.756,17.181
					l-1.555,6.357h0.152c2.353-4.339,5.413-6.509,9.183-6.509c2.125,0,3.768,0.612,4.932,1.835s1.746,2.983,1.746,5.279
					c0,1.414-0.178,2.939-0.531,4.579l-6.375,30.162H105.408z"/>
				<path fill="#FFFFFF" d="M129.088,59.491c-2.707,0-4.781-1.009-6.223-3.027s-2.163-4.882-2.163-8.591
					c0-3.582,0.456-7.43,1.366-11.542c0.911-4.112,2.1-7.6,3.566-10.464c1.467-2.863,3.188-5.077,5.16-6.642
					c1.973-1.564,4.174-2.346,6.602-2.346c2.682,0,4.774,1.041,6.28,3.122c1.504,2.081,2.257,5.014,2.257,8.798
					c0,3.507-0.462,7.272-1.385,11.296c-0.924,4.025-2.131,7.481-3.623,10.37c-1.493,2.889-3.238,5.115-5.236,6.679
					C133.691,58.71,131.49,59.491,129.088,59.491z M124.421,48.592c0,5.097,1.707,7.645,5.122,7.645c2.251,0,4.325-1.28,6.223-3.841
					c1.896-2.561,3.446-6.175,4.647-10.843c1.201-4.666,1.803-9.17,1.803-13.51c0-5.171-1.759-7.758-5.274-7.758
					c-2.124,0-4.116,1.236-5.976,3.708c-1.859,2.473-3.415,6.081-4.667,10.824S124.421,44.152,124.421,48.592z"/>
				<path fill="#FFFFFF" d="M167.219,58.734l1.101-27.815l0.455-8.628c-1.012,2.977-1.694,4.97-2.049,5.979
					c-0.354,1.01-4.249,11.164-11.686,30.464h-4.439l0.759-41.061h3.604l-0.493,23.918c-0.102,4.44-0.38,8.603-0.835,12.488h0.152
					c0.202-0.706,0.701-2.157,1.498-4.353s4.9-12.88,12.313-32.054h4.136l-0.607,23.918c-0.076,2.27-0.266,5.575-0.569,9.914
					l-0.151,2.574h0.151l2.276-5.942l11.876-30.464h3.643L171.81,58.734H167.219z"/>
				<path fill="#FFFFFF" d="M186.988,56.729c0-1.514,0.342-2.8,1.024-3.86c0.684-1.06,1.632-1.589,2.846-1.589
					c0.684,0,1.215,0.265,1.594,0.795c0.38,0.529,0.569,1.224,0.569,2.081c0,1.539-0.348,2.788-1.044,3.746
					c-0.695,0.959-1.587,1.438-2.675,1.438c-0.632,0-1.176-0.221-1.631-0.662C187.216,58.236,186.988,57.587,186.988,56.729z
					 M190.479,44.846l0.379-1.93c1.012-5.021,3.238-9.852,6.678-14.495l2.656-3.557c2.2-2.977,3.655-5.412,4.363-7.304
					s1.063-3.898,1.063-6.017c0-1.917-0.449-3.317-1.347-4.201c-0.898-0.883-2.03-1.325-3.396-1.325
					c-1.012,0-1.935,0.139-2.77,0.417c-0.835,0.278-1.986,0.946-3.452,2.005l-1.442-2.952c2.706-1.917,5.362-2.876,7.968-2.876
					c2.631,0,4.667,0.757,6.108,2.271c1.442,1.514,2.163,3.608,2.163,6.282c0,1.766-0.234,3.425-0.702,4.976
					c-0.468,1.552-1.119,3.065-1.954,4.542c-0.834,1.476-2.517,3.854-5.046,7.133c-2.1,2.675-3.623,4.819-4.572,6.434
					c-0.948,1.614-1.758,3.292-2.428,5.033c-0.671,1.74-1.157,3.595-1.461,5.563H190.479z"/>
			</g>
		</g>
	</g>
</g>
</svg>
