<?xml version="1.0" encoding="iso-8859-1"?>
<!-- Generator: Adobe Illustrator 16.0.0, SVG Export Plug-In . SVG Version: 6.00 Build 0)  -->
<!DOCTYPE svg PUBLIC "-//W3C//DTD SVG 1.1//EN" "http://www.w3.org/Graphics/SVG/1.1/DTD/svg11.dtd">
<svg version="1.1" id="Layer_1" xmlns="http://www.w3.org/2000/svg" xmlns:xlink="http://www.w3.org/1999/xlink" x="0px" y="0px"
	 width="280px" height="38px" viewBox="0 0 280 38" style="enable-background:new 0 0 280 38;" xml:space="preserve">
<g>
	<g>
		<g>
			<g>
				<path style="fill:#FFFFFF;" d="M18.888,9.94c0,2.486-0.453,4.726-1.357,6.72c-0.904,1.995-2.206,3.554-3.904,4.677
					c-1.699,1.125-3.683,1.687-5.952,1.687H5.39L2.366,37.366H0.033L7.389,2.651h4.047c2.301,0,4.119,0.661,5.452,1.983
					S18.888,7.725,18.888,9.94z M5.866,20.792h1.667c2.825,0,5.011-0.914,6.559-2.742c1.547-1.829,2.321-4.405,2.321-7.729
					c0-1.694-0.464-3.016-1.393-3.966c-0.929-0.95-2.242-1.424-3.94-1.424H9.246L5.866,20.792z"/>
				<path style="fill:#FFFFFF;" d="M24.886,37.841c-1.698,0-3-0.633-3.904-1.899s-1.357-3.063-1.357-5.39
					c0-2.248,0.286-4.662,0.857-7.243c0.571-2.58,1.317-4.768,2.238-6.565c0.92-1.796,2-3.186,3.238-4.167
					c1.238-0.981,2.619-1.472,4.143-1.472c1.682,0,2.995,0.653,3.94,1.959c0.944,1.306,1.417,3.146,1.417,5.521
					c0,2.2-0.29,4.563-0.869,7.088c-0.58,2.525-1.337,4.693-2.273,6.506c-0.937,1.813-2.032,3.21-3.285,4.191
					C27.774,37.351,26.394,37.841,24.886,37.841z M21.958,31.003c0,3.197,1.071,4.796,3.214,4.796c1.413,0,2.714-0.803,3.904-2.41
					c1.19-1.606,2.162-3.874,2.917-6.803c0.753-2.928,1.131-5.754,1.131-8.477c0-3.245-1.104-4.868-3.31-4.868
					c-1.333,0-2.583,0.776-3.75,2.327s-2.143,3.815-2.928,6.791C22.351,25.336,21.958,28.217,21.958,31.003z"/>
				<path style="fill:#FFFFFF;" d="M43.365,35.467v1.899c-0.889,0.316-1.722,0.475-2.5,0.475c-2.016,0-3.023-1.194-3.023-3.585
					c0-0.602,0.103-1.393,0.309-2.375l3.881-18.284h-2.333l0.286-1.33l2.452-0.665l1.905-6.126h1.643l-1.309,6.126h3.404
					l-0.429,1.994h-3.404L40.484,31.24c-0.222,1.013-0.333,1.852-0.333,2.517c0,0.713,0.131,1.223,0.393,1.531
					c0.262,0.31,0.679,0.464,1.25,0.464C42.285,35.752,42.809,35.656,43.365,35.467z"/>
				<path style="fill:#FFFFFF;" d="M54.079,37.841c-1.905,0-3.389-0.66-4.452-1.982c-1.063-1.321-1.595-3.17-1.595-5.545
					c0-3.387,0.48-6.565,1.44-9.533c0.96-2.968,2.261-5.323,3.904-7.064c1.643-1.741,3.369-2.612,5.178-2.612
					c1.381,0,2.448,0.4,3.202,1.199c0.753,0.8,1.131,2.006,1.131,3.621c0,1.947-0.473,3.649-1.417,5.105
					c-0.945,1.457-2.294,2.541-4.047,3.254c-1.754,0.712-3.845,1.068-6.273,1.068h-0.286c-0.333,1.566-0.5,3.143-0.5,4.725
					c0,3.815,1.46,5.723,4.38,5.723c0.746,0,1.448-0.103,2.107-0.309c0.658-0.205,1.408-0.554,2.25-1.045v2.279
					C57.769,37.469,56.094,37.841,54.079,37.841z M58.173,13.194c-1.413,0-2.754,0.934-4.023,2.802c-1.27,1.868-2.27,4.337-3,7.409
					c6.333,0,9.499-2.509,9.499-7.527c0-0.839-0.179-1.496-0.536-1.971C59.756,13.431,59.109,13.194,58.173,13.194z"/>
				<path style="fill:#FFFFFF;" d="M74.411,37.366l4.095-19.352c0.159-0.633,0.238-1.298,0.238-1.995
					c0-1.789-0.794-2.683-2.381-2.683c-1.666,0-3.063,0.799-4.19,2.398c-1.127,1.599-2.04,4.092-2.738,7.48l-3.023,14.151h-2.238
					l5.452-25.763h1.904l-0.595,3.585h0.095c1.476-2.723,3.396-4.084,5.761-4.084c1.333,0,2.365,0.384,3.095,1.152
					c0.73,0.768,1.095,1.872,1.095,3.313c0,0.887-0.111,1.844-0.333,2.873l-4,18.925H74.411z"/>
				<path style="fill:#FFFFFF;" d="M89.031,35.467v1.899c-0.889,0.316-1.722,0.475-2.5,0.475c-2.016,0-3.023-1.194-3.023-3.585
					c0-0.602,0.103-1.393,0.309-2.375l3.881-18.284h-2.333l0.286-1.33l2.452-0.665l1.905-6.126h1.643l-1.309,6.126h3.404
					l-0.429,1.994h-3.404L86.15,31.24c-0.222,1.013-0.333,1.852-0.333,2.517c0,0.713,0.131,1.223,0.393,1.531
					c0.262,0.31,0.679,0.464,1.25,0.464C87.952,35.752,88.476,35.656,89.031,35.467z"/>
				<path style="fill:#FFFFFF;" d="M94.722,37.366h-2.238l5.5-25.763h2.238L94.722,37.366z M99.103,5.168
					c0-0.808,0.182-1.504,0.547-2.09c0.365-0.585,0.833-0.878,1.405-0.878c0.746,0,1.119,0.459,1.119,1.377
					c0,0.902-0.175,1.646-0.524,2.232c-0.349,0.586-0.809,0.878-1.38,0.878C99.492,6.688,99.103,6.181,99.103,5.168z"/>
				<path style="fill:#FFFFFF;" d="M106.598,37.841c-3.174,0-4.761-2.231-4.761-6.696c0-3.309,0.496-6.584,1.488-9.83
					c0.992-3.245,2.277-5.758,3.857-7.539c1.579-1.781,3.305-2.671,5.178-2.671c2.126,0,3.507,1.188,4.143,3.562h0.143l0.929-3.063
					h1.904l-5.452,25.763h-1.809l0.428-3.704h-0.095C110.741,36.448,108.756,37.841,106.598,37.841z M107.05,35.87
					c1.429,0,2.762-0.823,4-2.47c1.238-1.646,2.286-4.052,3.143-7.219c0.857-3.165,1.286-6.149,1.286-8.951
					c0-1.314-0.282-2.307-0.845-2.98s-1.353-1.009-2.369-1.009c-1.397,0-2.69,0.804-3.88,2.41c-1.19,1.607-2.19,3.962-3,7.063
					c-0.81,3.104-1.214,6.024-1.214,8.763c0,1.44,0.21,2.533,0.631,3.276C105.221,35.498,105.971,35.87,107.05,35.87z"/>
				<path style="fill:#FFFFFF;" d="M122.259,37.366h-2.238l7.88-36.947h2.261L122.259,37.366z"/>
				<path style="fill:#FFFFFF;" d="M158.679,2.651l-5.118,23.816c-0.873,4.006-2.075,6.902-3.606,8.691
					c-1.532,1.789-3.599,2.683-6.201,2.683c-1.984,0-3.496-0.617-4.535-1.852c-1.04-1.235-1.56-2.96-1.56-5.177
					c0-1.188,0.143-2.485,0.429-3.895l5.237-24.267h2.333l-5.262,24.552c-0.302,1.267-0.452,2.47-0.452,3.609
					c0,3.198,1.365,4.797,4.095,4.797c1.81,0,3.289-0.713,4.44-2.138c1.15-1.425,2.059-3.743,2.726-6.957l5.118-23.864H158.679z"/>
				<path style="fill:#FFFFFF;" d="M161.873,37.841c-0.89,0-1.818-0.11-2.786-0.332s-1.627-0.467-1.976-0.736V34.16
					c0.381,0.381,1.02,0.732,1.916,1.057c0.896,0.325,1.798,0.487,2.702,0.487c1.539,0,2.738-0.447,3.595-1.342
					c0.857-0.894,1.286-2.164,1.286-3.811c0-0.697-0.088-1.334-0.262-1.912c-0.175-0.577-0.401-1.112-0.679-1.603
					c-0.278-0.49-0.893-1.258-1.845-2.303c-1.032-1.125-1.73-1.975-2.096-2.553s-0.65-1.199-0.856-1.864
					c-0.207-0.665-0.31-1.433-0.31-2.303c0-2.058,0.635-3.724,1.904-4.999c1.27-1.274,2.912-1.912,4.928-1.912
					c2.158,0,3.896,0.491,5.214,1.472l-1.214,2.042c-1.127-0.918-2.492-1.377-4.095-1.377c-1.302,0-2.377,0.408-3.226,1.223
					c-0.85,0.816-1.274,1.904-1.274,3.265c0,0.934,0.171,1.781,0.512,2.541c0.342,0.76,0.988,1.662,1.94,2.707
					c1.143,1.234,1.917,2.169,2.321,2.803c0.404,0.633,0.727,1.321,0.964,2.064c0.238,0.745,0.357,1.567,0.357,2.47
					c0,2.407-0.607,4.263-1.821,5.568C165.86,37.188,164.126,37.841,161.873,37.841z"/>
				<path style="fill:#FFFFFF;" d="M179.49,37.841c-1.904,0-3.389-0.66-4.452-1.982c-1.063-1.321-1.595-3.17-1.595-5.545
					c0-3.387,0.479-6.565,1.44-9.533c0.96-2.968,2.262-5.323,3.904-7.064s3.368-2.612,5.178-2.612c1.381,0,2.448,0.4,3.202,1.199
					c0.754,0.8,1.131,2.006,1.131,3.621c0,1.947-0.473,3.649-1.417,5.105c-0.944,1.457-2.293,2.541-4.047,3.254
					c-1.754,0.712-3.845,1.068-6.273,1.068h-0.285c-0.333,1.566-0.5,3.143-0.5,4.725c0,3.815,1.46,5.723,4.381,5.723
					c0.745,0,1.447-0.103,2.106-0.309c0.658-0.205,1.408-0.554,2.25-1.045v2.279C183.181,37.469,181.506,37.841,179.49,37.841z
					 M183.585,13.194c-1.413,0-2.754,0.934-4.023,2.802c-1.27,1.868-2.27,4.337-3,7.409c6.333,0,9.499-2.509,9.499-7.527
					c0-0.839-0.179-1.496-0.535-1.971C185.168,13.431,184.521,13.194,183.585,13.194z"/>
				<path style="fill:#FFFFFF;" d="M213.116,4.384c-2.063,0-4.011,1.021-5.844,3.063c-1.834,2.042-3.325,4.856-4.477,8.441
					c-1.15,3.585-1.726,7.049-1.726,10.389c0,3.229,0.408,5.6,1.227,7.111c0.816,1.512,2.186,2.268,4.106,2.268
					c1.206,0,2.571-0.309,4.095-0.926v2.256c-1.492,0.57-2.977,0.854-4.452,0.854c-2.428,0-4.254-0.914-5.476-2.742
					c-1.223-1.828-1.833-4.626-1.833-8.394c0-4.053,0.679-8.046,2.035-11.98c1.357-3.933,3.15-7.02,5.381-9.26
					c2.229-2.24,4.638-3.36,7.225-3.36c1.937,0,3.492,0.491,4.667,1.472l-1.453,2.042C215.64,4.796,214.481,4.384,213.116,4.384z"/>
				<path style="fill:#FFFFFF;" d="M220.426,37.841c-3.175,0-4.762-2.231-4.762-6.696c0-3.309,0.496-6.584,1.488-9.83
					c0.991-3.245,2.277-5.758,3.856-7.539s3.305-2.671,5.178-2.671c2.127,0,3.508,1.188,4.143,3.562h0.143l0.929-3.063h1.904
					l-5.452,25.763h-1.809l0.429-3.704h-0.096C224.567,36.448,222.584,37.841,220.426,37.841z M220.878,35.87
					c1.428,0,2.762-0.823,3.999-2.47c1.238-1.646,2.286-4.052,3.143-7.219c0.857-3.165,1.286-6.149,1.286-8.951
					c0-1.314-0.282-2.307-0.846-2.98s-1.354-1.009-2.368-1.009c-1.397,0-2.69,0.804-3.881,2.41c-1.19,1.607-2.19,3.962-3,7.063
					c-0.81,3.104-1.214,6.024-1.214,8.763c0,1.44,0.21,2.533,0.631,3.276C219.048,35.498,219.798,35.87,220.878,35.87z"/>
				<path style="fill:#FFFFFF;" d="M237.587,37.841c-0.89,0-1.818-0.11-2.786-0.332s-1.627-0.467-1.976-0.736V34.16
					c0.381,0.381,1.02,0.732,1.916,1.057c0.896,0.325,1.798,0.487,2.702,0.487c1.539,0,2.738-0.447,3.595-1.342
					c0.857-0.894,1.286-2.164,1.286-3.811c0-0.697-0.088-1.334-0.262-1.912c-0.175-0.577-0.401-1.112-0.679-1.603
					c-0.278-0.49-0.893-1.258-1.845-2.303c-1.032-1.125-1.73-1.975-2.096-2.553s-0.65-1.199-0.856-1.864
					c-0.207-0.665-0.31-1.433-0.31-2.303c0-2.058,0.635-3.724,1.904-4.999c1.27-1.274,2.912-1.912,4.928-1.912
					c2.158,0,3.896,0.491,5.214,1.472l-1.214,2.042c-1.127-0.918-2.492-1.377-4.095-1.377c-1.302,0-2.377,0.408-3.226,1.223
					c-0.85,0.816-1.274,1.904-1.274,3.265c0,0.934,0.171,1.781,0.512,2.541c0.342,0.76,0.988,1.662,1.94,2.707
					c1.143,1.234,1.917,2.169,2.321,2.803c0.404,0.633,0.727,1.321,0.964,2.064c0.238,0.745,0.357,1.567,0.357,2.47
					c0,2.407-0.607,4.263-1.821,5.568C241.574,37.188,239.84,37.841,237.587,37.841z"/>
				<path style="fill:#FFFFFF;" d="M255.204,37.841c-1.904,0-3.389-0.66-4.452-1.982c-1.063-1.321-1.595-3.17-1.595-5.545
					c0-3.387,0.479-6.565,1.44-9.533c0.96-2.968,2.262-5.323,3.904-7.064s3.368-2.612,5.178-2.612c1.381,0,2.448,0.4,3.202,1.199
					c0.754,0.8,1.131,2.006,1.131,3.621c0,1.947-0.473,3.649-1.417,5.105c-0.944,1.457-2.293,2.541-4.047,3.254
					c-1.754,0.712-3.845,1.068-6.273,1.068h-0.285c-0.333,1.566-0.5,3.143-0.5,4.725c0,3.815,1.46,5.723,4.381,5.723
					c0.745,0,1.447-0.103,2.106-0.309c0.658-0.205,1.408-0.554,2.25-1.045v2.279C258.895,37.469,257.22,37.841,255.204,37.841z
					 M259.299,13.194c-1.413,0-2.754,0.934-4.023,2.802c-1.27,1.868-2.27,4.337-3,7.409c6.333,0,9.499-2.509,9.499-7.527
					c0-0.839-0.179-1.496-0.535-1.971C260.882,13.431,260.235,13.194,259.299,13.194z"/>
				<path style="fill:#FFFFFF;" d="M269.038,37.841c-0.89,0-1.818-0.11-2.786-0.332s-1.627-0.467-1.976-0.736V34.16
					c0.381,0.381,1.02,0.732,1.916,1.057c0.896,0.325,1.798,0.487,2.702,0.487c1.539,0,2.738-0.447,3.595-1.342
					c0.857-0.894,1.286-2.164,1.286-3.811c0-0.697-0.088-1.334-0.262-1.912c-0.175-0.577-0.401-1.112-0.679-1.603
					c-0.278-0.49-0.893-1.258-1.845-2.303c-1.032-1.125-1.73-1.975-2.096-2.553s-0.65-1.199-0.856-1.864
					c-0.207-0.665-0.31-1.433-0.31-2.303c0-2.058,0.635-3.724,1.904-4.999c1.27-1.274,2.912-1.912,4.928-1.912
					c2.158,0,3.896,0.491,5.214,1.472l-1.214,2.042c-1.127-0.918-2.492-1.377-4.095-1.377c-1.302,0-2.377,0.408-3.226,1.223
					c-0.85,0.816-1.274,1.904-1.274,3.265c0,0.934,0.171,1.781,0.512,2.541c0.342,0.76,0.988,1.662,1.94,2.707
					c1.143,1.234,1.917,2.169,2.321,2.803c0.404,0.633,0.727,1.321,0.964,2.064c0.238,0.745,0.357,1.567,0.357,2.47
					c0,2.407-0.607,4.263-1.821,5.568C273.025,37.188,271.291,37.841,269.038,37.841z"/>
			</g>
		</g>
	</g>
</g>
</svg>
