<?xml version="1.0" encoding="iso-8859-1"?>
<!-- Generator: Adobe Illustrator 16.0.0, SVG Export Plug-In . SVG Version: 6.00 Build 0)  -->
<!DOCTYPE svg PUBLIC "-//W3C//DTD SVG 1.1//EN" "http://www.w3.org/Graphics/SVG/1.1/DTD/svg11.dtd">
<svg version="1.1" id="Layer_1" xmlns="http://www.w3.org/2000/svg" xmlns:xlink="http://www.w3.org/1999/xlink" x="0px" y="0px"
	 width="236px" height="66px" viewBox="0 0 236 66" style="enable-background:new 0 0 236 66;" xml:space="preserve">
<g>
	<g>
		<g>
			<g>
				<path style="fill:#FFFFFF;" d="M17.466,1.674h1.478L10.341,23.01H8.571L9.258,7.044l0.234-3.488L8.336,7.016L2.104,23.01h-1.77
					l0.38-21.335h1.478L1.796,16.37c-0.068,2.053-0.156,3.727-0.263,5.021l0.38-1.08l1.448-3.882L9.054,1.674h1.58L10.166,15.83
					c-0.107,2.461-0.229,4.314-0.366,5.56c0.829-2.345,1.448-4.018,1.858-5.021L17.466,1.674z"/>
				<path style="fill:#FFFFFF;" d="M21.104,23.302c-1.17,0-2.083-0.406-2.736-1.219c-0.653-0.812-0.98-1.948-0.98-3.407
					c0-2.082,0.295-4.035,0.885-5.859c0.59-1.824,1.39-3.271,2.399-4.342c1.009-1.07,2.07-1.605,3.182-1.605
					c0.849,0,1.504,0.246,1.968,0.737s0.695,1.233,0.695,2.226c0,1.197-0.291,2.243-0.871,3.138
					c-0.581,0.895-1.41,1.562-2.487,1.999c-1.078,0.438-2.363,0.657-3.855,0.657h-0.175c-0.205,0.963-0.308,1.931-0.308,2.904
					c0,2.345,0.897,3.517,2.692,3.517c0.458,0,0.89-0.063,1.295-0.189c0.404-0.126,0.865-0.34,1.382-0.642v1.401
					C23.371,23.073,22.342,23.302,21.104,23.302z M23.62,8.154c-0.869,0-1.692,0.574-2.473,1.722
					c-0.781,1.148-1.395,2.666-1.844,4.553c3.892,0,5.838-1.542,5.838-4.626c0-0.516-0.11-0.919-0.329-1.211
					C24.593,8.3,24.195,8.154,23.62,8.154z"/>
				<path style="fill:#FFFFFF;" d="M35.535,23.302c-1.951,0-2.926-1.372-2.926-4.115c0-2.034,0.305-4.047,0.915-6.042
					c0.609-1.994,1.399-3.539,2.37-4.633c0.97-1.094,2.031-1.642,3.182-1.642c1.307,0,2.156,0.729,2.546,2.189h0.088l0.57-1.883
					h1.171L40.1,23.01h-1.112l0.264-2.276h-0.059C38.081,22.446,36.861,23.302,35.535,23.302z M35.813,22.09
					c0.878,0,1.697-0.506,2.458-1.518s1.405-2.491,1.931-4.437c0.527-1.946,0.79-3.78,0.79-5.501c0-0.808-0.173-1.418-0.519-1.832
					c-0.347-0.414-0.832-0.62-1.456-0.62c-0.858,0-1.653,0.494-2.385,1.481c-0.731,0.988-1.346,2.435-1.843,4.342
					c-0.498,1.907-0.747,3.702-0.747,5.385c0,0.885,0.129,1.557,0.388,2.014C34.688,21.862,35.149,22.09,35.813,22.09z"/>
				<path style="fill:#FFFFFF;" d="M51.545,6.87c0.38,0,0.736,0.058,1.068,0.175l-0.38,1.416c-0.293-0.146-0.615-0.219-0.966-0.219
					c-0.829,0-1.6,0.569-2.312,1.708c-0.712,1.138-1.278,2.695-1.697,4.67l-1.8,8.391h-1.375l3.351-15.834h1.024l-0.424,2.773h0.059
					C48.951,7.896,50.102,6.87,51.545,6.87z"/>
				<path style="fill:#FFFFFF;" d="M55.622,23.302c-1.17,0-2.083-0.406-2.736-1.219c-0.653-0.812-0.98-1.948-0.98-3.407
					c0-2.082,0.295-4.035,0.885-5.859c0.59-1.824,1.39-3.271,2.399-4.342c1.009-1.07,2.07-1.605,3.182-1.605
					c0.849,0,1.504,0.246,1.968,0.737s0.695,1.233,0.695,2.226c0,1.197-0.291,2.243-0.871,3.138
					c-0.581,0.895-1.41,1.562-2.487,1.999c-1.078,0.438-2.363,0.657-3.855,0.657h-0.175c-0.205,0.963-0.308,1.931-0.308,2.904
					c0,2.345,0.897,3.517,2.692,3.517c0.458,0,0.89-0.063,1.295-0.189c0.404-0.126,0.865-0.34,1.382-0.642v1.401
					C57.89,23.073,56.86,23.302,55.622,23.302z M58.139,8.154c-0.869,0-1.692,0.574-2.473,1.722
					c-0.781,1.148-1.395,2.666-1.844,4.553c3.892,0,5.838-1.542,5.838-4.626c0-0.516-0.11-0.919-0.329-1.211
					C59.111,8.3,58.714,8.154,58.139,8.154z"/>
				<path style="fill:#FFFFFF;" d="M73.86,6.87c1.96,0,2.941,1.376,2.941,4.13c0,2.043-0.307,4.06-0.922,6.049
					c-0.614,1.99-1.404,3.529-2.37,4.619c-0.966,1.09-2.024,1.635-3.175,1.635c-0.664,0-1.224-0.2-1.683-0.599
					c-0.458-0.398-0.746-0.934-0.863-1.605H67.7l-1.829,8.785h-1.39L69.31,7.176h1.2l-0.366,2.262h0.073
					C71.329,7.726,72.543,6.87,73.86,6.87z M73.597,8.095c-0.917,0-1.761,0.509-2.531,1.525s-1.405,2.447-1.902,4.29
					c-0.498,1.844-0.747,3.651-0.747,5.421c0,1.81,0.659,2.714,1.976,2.714c0.858,0,1.655-0.503,2.392-1.51
					c0.736-1.007,1.351-2.464,1.843-4.371s0.739-3.702,0.739-5.385c0-0.885-0.129-1.554-0.388-2.007
					C74.721,8.322,74.26,8.095,73.597,8.095z"/>
				<path style="fill:#FFFFFF;" d="M82.023,23.302c-1.17,0-2.083-0.406-2.736-1.219c-0.653-0.812-0.98-1.948-0.98-3.407
					c0-2.082,0.295-4.035,0.885-5.859c0.59-1.824,1.39-3.271,2.399-4.342c1.009-1.07,2.07-1.605,3.182-1.605
					c0.849,0,1.504,0.246,1.968,0.737s0.695,1.233,0.695,2.226c0,1.197-0.291,2.243-0.871,3.138
					c-0.581,0.895-1.41,1.562-2.487,1.999c-1.078,0.438-2.363,0.657-3.855,0.657h-0.175c-0.205,0.963-0.308,1.931-0.308,2.904
					c0,2.345,0.897,3.517,2.692,3.517c0.458,0,0.89-0.063,1.295-0.189c0.404-0.126,0.865-0.34,1.382-0.642v1.401
					C84.291,23.073,83.261,23.302,82.023,23.302z M84.54,8.154c-0.869,0-1.692,0.574-2.473,1.722
					c-0.781,1.148-1.395,2.666-1.844,4.553c3.892,0,5.838-1.542,5.838-4.626c0-0.516-0.11-0.919-0.329-1.211
					C85.512,8.3,85.115,8.154,84.54,8.154z"/>
				<path style="fill:#FFFFFF;" d="M92.178,23.302c-1.044,0-1.844-0.389-2.399-1.167c-0.556-0.778-0.834-1.883-0.834-3.313
					c0-1.381,0.175-2.865,0.527-4.451c0.351-1.586,0.809-2.931,1.375-4.035c0.565-1.104,1.229-1.958,1.99-2.561
					c0.761-0.603,1.609-0.905,2.546-0.905c1.034,0,1.841,0.401,2.421,1.204c0.581,0.802,0.871,1.934,0.871,3.393
					c0,1.353-0.178,2.805-0.534,4.356c-0.356,1.552-0.822,2.884-1.397,3.999c-0.576,1.114-1.249,1.973-2.019,2.576
					C93.953,23,93.105,23.302,92.178,23.302z M90.378,19.099c0,1.965,0.659,2.948,1.976,2.948c0.868,0,1.667-0.494,2.399-1.481
					c0.731-0.987,1.329-2.381,1.792-4.181c0.463-1.8,0.695-3.536,0.695-5.209c0-1.995-0.678-2.992-2.034-2.992
					c-0.819,0-1.588,0.477-2.305,1.43s-1.317,2.345-1.799,4.173C90.62,15.616,90.378,17.387,90.378,19.099z"/>
				<path style="fill:#FFFFFF;" d="M107.39,6.87c1.96,0,2.941,1.376,2.941,4.13c0,2.043-0.307,4.06-0.922,6.049
					c-0.614,1.99-1.404,3.529-2.37,4.619c-0.966,1.09-2.024,1.635-3.175,1.635c-0.664,0-1.224-0.2-1.683-0.599
					c-0.458-0.398-0.746-0.934-0.863-1.605h-0.088l-1.829,8.785h-1.39l4.828-22.708h1.2l-0.366,2.262h0.073
					C104.858,7.726,106.073,6.87,107.39,6.87z M107.126,8.095c-0.917,0-1.761,0.509-2.531,1.525s-1.405,2.447-1.902,4.29
					c-0.498,1.844-0.747,3.651-0.747,5.421c0,1.81,0.659,2.714,1.976,2.714c0.858,0,1.655-0.503,2.392-1.51
					c0.736-1.007,1.351-2.464,1.843-4.371s0.739-3.702,0.739-5.385c0-0.885-0.129-1.554-0.388-2.007
					C108.25,8.322,107.79,8.095,107.126,8.095z"/>
				<path style="fill:#FFFFFF;" d="M112.524,23.01h-1.375l4.843-22.707h1.39L112.524,23.01z"/>
				<path style="fill:#FFFFFF;" d="M120.615,23.302c-1.171,0-2.083-0.406-2.737-1.219c-0.653-0.812-0.98-1.948-0.98-3.407
					c0-2.082,0.295-4.035,0.885-5.859c0.59-1.824,1.39-3.271,2.4-4.342c1.009-1.07,2.069-1.605,3.182-1.605
					c0.849,0,1.505,0.246,1.968,0.737s0.695,1.233,0.695,2.226c0,1.197-0.29,2.243-0.871,3.138c-0.58,0.895-1.409,1.562-2.487,1.999
					c-1.078,0.438-2.362,0.657-3.855,0.657h-0.175c-0.205,0.963-0.308,1.931-0.308,2.904c0,2.345,0.897,3.517,2.692,3.517
					c0.458,0,0.89-0.063,1.295-0.189c0.404-0.126,0.865-0.34,1.383-0.642v1.401C122.883,23.073,121.854,23.302,120.615,23.302z
					 M123.131,8.154c-0.868,0-1.691,0.574-2.473,1.722c-0.78,1.148-1.395,2.666-1.843,4.553c3.892,0,5.838-1.542,5.838-4.626
					c0-0.516-0.11-0.919-0.33-1.211C124.104,8.3,123.707,8.154,123.131,8.154z"/>
				<path style="fill:#FFFFFF;" d="M139.274,23.01l0.425-10.726l0.176-3.327c-0.391,1.148-0.654,1.917-0.791,2.306
					s-1.639,4.305-4.506,11.748h-1.712l0.293-15.834h1.39l-0.19,9.223c-0.039,1.712-0.146,3.318-0.321,4.816h0.059
					c0.077-0.272,0.271-0.832,0.577-1.678c0.308-0.847,1.89-4.967,4.748-12.361h1.595l-0.234,9.223
					c-0.029,0.875-0.102,2.15-0.219,3.824l-0.059,0.992h0.059l0.878-2.291l4.579-11.748h1.404l-6.379,15.834H139.274z"/>
				<path style="fill:#FFFFFF;" d="M152.499,23.01l2.517-11.894c0.098-0.389,0.146-0.798,0.146-1.226
					c0-1.099-0.488-1.649-1.463-1.649c-1.024,0-1.883,0.492-2.575,1.474c-0.693,0.983-1.254,2.515-1.683,4.597l-1.858,8.698h-1.375
					l4.813-22.707h1.39l-1.448,6.625l-0.6,2.452h0.059c0.906-1.673,2.087-2.51,3.54-2.51c0.819,0,1.453,0.236,1.902,0.708
					c0.448,0.472,0.673,1.151,0.673,2.036c0,0.545-0.068,1.133-0.205,1.766l-2.458,11.631H152.499z"/>
				<path style="fill:#FFFFFF;" d="M161.78,23.302c-1.044,0-1.844-0.389-2.399-1.167s-0.834-1.883-0.834-3.313
					c0-1.381,0.176-2.865,0.526-4.451c0.352-1.586,0.81-2.931,1.376-4.035c0.565-1.104,1.229-1.958,1.989-2.561
					s1.609-0.905,2.546-0.905c1.034,0,1.841,0.401,2.422,1.204c0.58,0.802,0.87,1.934,0.87,3.393c0,1.353-0.178,2.805-0.534,4.356
					c-0.355,1.552-0.821,2.884-1.397,3.999c-0.575,1.114-1.248,1.973-2.019,2.576S162.707,23.302,161.78,23.302z M159.98,19.099
					c0,1.965,0.658,2.948,1.976,2.948c0.868,0,1.668-0.494,2.399-1.481s1.329-2.381,1.792-4.181c0.463-1.8,0.695-3.536,0.695-5.209
					c0-1.995-0.678-2.992-2.034-2.992c-0.819,0-1.587,0.477-2.304,1.43c-0.718,0.954-1.317,2.345-1.8,4.173
					C160.222,15.616,159.98,17.387,159.98,19.099z"/>
				<path style="fill:#FFFFFF;" d="M177.737,23.302c-1.95,0-2.926-1.372-2.926-4.115c0-2.034,0.305-4.047,0.914-6.042
					c0.609-1.994,1.399-3.539,2.37-4.633c0.971-1.094,2.031-1.642,3.183-1.642c1.307,0,2.155,0.729,2.546,2.189h0.088l0.57-1.883
					h1.171l-3.351,15.834h-1.112l0.264-2.276h-0.059C180.283,22.446,179.064,23.302,177.737,23.302z M178.016,22.09
					c0.878,0,1.697-0.506,2.458-1.518s1.404-2.491,1.932-4.437c0.526-1.946,0.79-3.78,0.79-5.501c0-0.808-0.174-1.418-0.52-1.832
					c-0.347-0.414-0.832-0.62-1.456-0.62c-0.858,0-1.653,0.494-2.385,1.481c-0.731,0.988-1.346,2.435-1.844,4.342
					c-0.497,1.907-0.746,3.702-0.746,5.385c0,0.885,0.129,1.557,0.388,2.014C176.892,21.862,177.353,22.09,178.016,22.09z"/>
				<path style="fill:#FFFFFF;" d="M187.663,23.01h-1.375l4.843-22.707h1.39L187.663,23.01z"/>
				<path style="fill:#FFFFFF;" d="M199.192,23.01l0.425-10.726l0.176-3.327c-0.391,1.148-0.654,1.917-0.791,2.306
					s-1.639,4.305-4.506,11.748h-1.712l0.293-15.834h1.39l-0.19,9.223c-0.039,1.712-0.146,3.318-0.321,4.816h0.059
					c0.077-0.272,0.271-0.832,0.577-1.678c0.308-0.847,1.89-4.967,4.748-12.361h1.595l-0.234,9.223
					c-0.029,0.875-0.102,2.15-0.219,3.824l-0.059,0.992h0.059l0.878-2.291l4.579-11.748h1.404l-6.379,15.834H199.192z"/>
				<path style="fill:#FFFFFF;" d="M209.71,23.302c-1.95,0-2.926-1.372-2.926-4.115c0-2.034,0.305-4.047,0.914-6.042
					c0.609-1.994,1.399-3.539,2.37-4.633c0.971-1.094,2.031-1.642,3.183-1.642c1.307,0,2.155,0.729,2.546,2.189h0.088l0.57-1.883
					h1.171l-3.351,15.834h-1.112l0.264-2.276h-0.059C212.256,22.446,211.037,23.302,209.71,23.302z M209.988,22.09
					c0.878,0,1.697-0.506,2.458-1.518s1.404-2.491,1.932-4.437c0.526-1.946,0.79-3.78,0.79-5.501c0-0.808-0.174-1.418-0.52-1.832
					c-0.347-0.414-0.832-0.62-1.456-0.62c-0.858,0-1.653,0.494-2.385,1.481c-0.731,0.988-1.346,2.435-1.844,4.342
					c-0.497,1.907-0.746,3.702-0.746,5.385c0,0.885,0.129,1.557,0.388,2.014C208.864,21.862,209.325,22.09,209.988,22.09z"/>
				<path style="fill:#FFFFFF;" d="M216.212,30.189c-0.448,0-0.888-0.092-1.316-0.277v-1.255c0.36,0.156,0.79,0.234,1.287,0.234
					c0.527,0,0.979-0.212,1.354-0.635c0.375-0.423,0.836-1.267,1.383-2.532l1.039-2.481l-0.117-16.067h1.375v9.325
					c0,1.567-0.059,3.138-0.176,4.714h0.088c0.518-1.527,0.99-2.812,1.42-3.853l4.213-10.187h1.449l-8.223,19.395
					c-0.566,1.343-1.132,2.282-1.697,2.817C217.724,29.922,217.031,30.189,216.212,30.189z"/>
				<path style="fill:#FFFFFF;" d="M229.19,23.302c-0.547,0-1.117-0.068-1.712-0.205c-0.595-0.136-1-0.287-1.215-0.452V21.04
					c0.234,0.233,0.627,0.45,1.179,0.649c0.551,0.2,1.104,0.299,1.66,0.299c0.946,0,1.683-0.275,2.209-0.825
					c0.527-0.549,0.79-1.33,0.79-2.342c0-0.428-0.054-0.819-0.16-1.175c-0.107-0.355-0.247-0.683-0.417-0.985
					c-0.171-0.301-0.549-0.773-1.135-1.416c-0.634-0.69-1.063-1.213-1.287-1.569c-0.225-0.355-0.4-0.737-0.526-1.146
					c-0.127-0.409-0.19-0.88-0.19-1.416c0-1.265,0.39-2.289,1.171-3.072c0.779-0.783,1.789-1.175,3.028-1.175
					c1.326,0,2.395,0.302,3.204,0.905l-0.746,1.255c-0.692-0.564-1.531-0.846-2.517-0.846c-0.8,0-1.461,0.25-1.982,0.751
					c-0.522,0.501-0.783,1.17-0.783,2.006c0,0.574,0.104,1.095,0.314,1.562c0.21,0.467,0.607,1.021,1.192,1.664
					c0.703,0.759,1.179,1.333,1.427,1.722c0.249,0.389,0.446,0.813,0.593,1.27c0.146,0.458,0.22,0.963,0.22,1.518
					c0,1.479-0.373,2.619-1.119,3.422C231.641,22.9,230.575,23.302,229.19,23.302z"/>
			</g>
		</g>
		<g>
			<g>
				<g>
					<path style="fill:#FFFFFF;" d="M6.229,58.985l0.424-10.727l0.176-3.327c-0.39,1.148-0.654,1.917-0.79,2.306
						c-0.137,0.39-1.639,4.306-4.506,11.748h-1.712l0.292-15.834h1.39l-0.19,9.224c-0.039,1.712-0.146,3.317-0.322,4.815H1.05
						c0.078-0.272,0.271-0.832,0.578-1.679c0.307-0.846,1.89-4.966,4.748-12.36h1.595l-0.234,9.224
						c-0.029,0.875-0.103,2.149-0.22,3.823L7.458,57.19h0.059l0.878-2.291l4.58-11.748h1.405L8,58.985H6.229z"/>
					<path style="fill:#FFFFFF;" d="M16.748,59.277c-1.951,0-2.926-1.372-2.926-4.115c0-2.033,0.305-4.047,0.915-6.042
						c0.609-1.994,1.399-3.539,2.37-4.633c0.97-1.095,2.031-1.643,3.182-1.643c1.307,0,2.156,0.73,2.546,2.189h0.088l0.57-1.883
						h1.171l-3.351,15.834h-1.112l0.264-2.276h-0.059C19.294,58.421,18.074,59.277,16.748,59.277z M17.026,58.066
						c0.878,0,1.697-0.506,2.458-1.519c0.761-1.012,1.405-2.49,1.931-4.436c0.527-1.946,0.79-3.78,0.79-5.502
						c0-0.808-0.173-1.418-0.519-1.832c-0.347-0.413-0.832-0.62-1.456-0.62c-0.858,0-1.653,0.494-2.385,1.481
						s-1.346,2.435-1.843,4.342c-0.498,1.907-0.747,3.702-0.747,5.385c0,0.886,0.129,1.557,0.388,2.014
						C15.901,57.838,16.362,58.066,17.026,58.066z"/>
					<path style="fill:#FFFFFF;" d="M31.589,58.985l2.517-11.894c0.098-0.389,0.146-0.798,0.146-1.226
						c0-1.1-0.488-1.649-1.463-1.649c-1.024,0-1.882,0.491-2.575,1.474c-0.693,0.983-1.254,2.516-1.683,4.598l-1.858,8.697h-1.375
						l3.351-15.834h1.171l-0.366,2.204h0.059c0.907-1.674,2.087-2.511,3.541-2.511c0.819,0,1.453,0.236,1.902,0.708
						c0.449,0.473,0.673,1.15,0.673,2.036c0,0.545-0.068,1.133-0.205,1.766l-2.458,11.631H31.589z"/>
					<path style="fill:#FFFFFF;" d="M40.694,57.818v1.167c-0.546,0.194-1.058,0.292-1.536,0.292c-1.239,0-1.858-0.734-1.858-2.204
						c0-0.369,0.063-0.855,0.19-1.459l2.385-11.237h-1.434l0.175-0.816l1.507-0.409l1.17-3.765h1.009l-0.805,3.765h2.092
						l-0.263,1.226h-2.092l-2.312,10.844c-0.137,0.622-0.205,1.138-0.205,1.547c0,0.438,0.081,0.751,0.242,0.94
						c0.161,0.19,0.417,0.285,0.768,0.285C40.031,57.993,40.353,57.935,40.694,57.818z"/>
					<path style="fill:#FFFFFF;" d="M50.844,57.818v1.167c-0.546,0.194-1.058,0.292-1.536,0.292c-1.239,0-1.858-0.734-1.858-2.204
						c0-0.369,0.063-0.855,0.19-1.459l2.385-11.237h-1.434l0.175-0.816l1.507-0.409l1.17-3.765h1.009l-0.805,3.765h2.092
						l-0.263,1.226h-2.092l-2.312,10.844c-0.137,0.622-0.205,1.138-0.205,1.547c0,0.438,0.081,0.751,0.242,0.94
						c0.161,0.19,0.417,0.285,0.768,0.285C50.181,57.993,50.502,57.935,50.844,57.818z"/>
					<path style="fill:#FFFFFF;" d="M57.096,59.277c-1.044,0-1.844-0.389-2.399-1.168c-0.556-0.778-0.834-1.882-0.834-3.313
						c0-1.381,0.175-2.865,0.527-4.451c0.351-1.585,0.809-2.931,1.375-4.034c0.565-1.104,1.229-1.958,1.99-2.562
						c0.761-0.604,1.609-0.905,2.546-0.905c1.034,0,1.841,0.401,2.421,1.204c0.581,0.803,0.871,1.934,0.871,3.394
						c0,1.352-0.178,2.804-0.534,4.355c-0.356,1.552-0.822,2.885-1.397,3.999c-0.576,1.114-1.249,1.973-2.019,2.575
						C58.871,58.976,58.022,59.277,57.096,59.277z M55.296,55.074c0,1.966,0.659,2.948,1.976,2.948c0.868,0,1.667-0.494,2.399-1.481
						c0.731-0.987,1.329-2.381,1.792-4.181s0.695-3.537,0.695-5.21c0-1.994-0.678-2.992-2.034-2.992
						c-0.819,0-1.588,0.478-2.305,1.431s-1.317,2.345-1.799,4.174C55.538,51.592,55.296,53.362,55.296,55.074z"/>
					<path style="fill:#FFFFFF;" d="M77.37,42.845c1.96,0,2.941,1.377,2.941,4.13c0,2.044-0.307,4.06-0.922,6.05
						c-0.614,1.989-1.404,3.529-2.37,4.618c-0.966,1.09-2.024,1.635-3.175,1.635c-0.664,0-1.224-0.199-1.683-0.599
						c-0.458-0.398-0.746-0.934-0.863-1.605H71.21l-1.829,8.785h-1.39l4.828-22.707h1.2l-0.366,2.262h0.073
						C74.838,43.701,76.053,42.845,77.37,42.845z M77.106,44.071c-0.917,0-1.761,0.508-2.531,1.524s-1.405,2.447-1.902,4.291
						c-0.498,1.844-0.747,3.65-0.747,5.421c0,1.81,0.659,2.715,1.976,2.715c0.858,0,1.655-0.504,2.392-1.511
						c0.736-1.007,1.351-2.464,1.843-4.371c0.493-1.906,0.739-3.701,0.739-5.385c0-0.885-0.129-1.554-0.388-2.006
						C78.23,44.297,77.77,44.071,77.106,44.071z"/>
					<path style="fill:#FFFFFF;" d="M85.854,43.151l-2.37,11.019c-0.176,0.759-0.264,1.415-0.264,1.97
						c0,1.196,0.458,1.795,1.375,1.795c2.039,0,3.487-2.028,4.346-6.085l1.858-8.698h1.375l-3.38,15.834h-1.083l0.117-1.97h-0.059
						c-0.985,1.508-2.15,2.262-3.497,2.262c-1.6,0-2.399-0.963-2.399-2.89c0-0.769,0.097-1.576,0.292-2.423l2.312-10.813H85.854z"/>
					<path style="fill:#FFFFFF;" d="M95.105,59.277c-0.546,0-1.117-0.068-1.712-0.204c-0.595-0.137-1-0.287-1.214-0.453v-1.604
						c0.234,0.233,0.626,0.45,1.178,0.649c0.551,0.199,1.104,0.299,1.661,0.299c0.946,0,1.683-0.274,2.209-0.824
						c0.526-0.55,0.79-1.331,0.79-2.343c0-0.428-0.054-0.819-0.161-1.175c-0.107-0.354-0.246-0.684-0.417-0.984
						c-0.171-0.302-0.548-0.773-1.134-1.416c-0.634-0.69-1.063-1.214-1.288-1.568c-0.225-0.355-0.4-0.737-0.527-1.146
						c-0.126-0.409-0.19-0.881-0.19-1.416c0-1.265,0.39-2.289,1.17-3.072c0.78-0.782,1.79-1.175,3.029-1.175
						c1.326,0,2.395,0.302,3.204,0.905l-0.746,1.255c-0.693-0.564-1.532-0.847-2.517-0.847c-0.8,0-1.461,0.251-1.982,0.752
						c-0.522,0.501-0.783,1.17-0.783,2.007c0,0.574,0.104,1.094,0.314,1.562c0.209,0.467,0.607,1.021,1.192,1.663
						c0.702,0.759,1.178,1.333,1.426,1.723c0.249,0.389,0.446,0.812,0.593,1.27c0.146,0.457,0.219,0.963,0.219,1.518
						c0,1.479-0.373,2.619-1.119,3.422S96.49,59.277,95.105,59.277z"/>
					<path style="fill:#FFFFFF;" d="M107.79,58.985l2.517-11.894c0.097-0.389,0.146-0.798,0.146-1.226
						c0-1.1-0.488-1.649-1.463-1.649c-1.024,0-1.882,0.491-2.575,1.474c-0.692,0.983-1.253,2.516-1.682,4.598l-1.858,8.697h-1.375
						l4.814-22.707h1.39l-1.448,6.625l-0.6,2.452h0.059c0.907-1.674,2.087-2.511,3.541-2.511c0.819,0,1.453,0.236,1.902,0.708
						c0.449,0.473,0.673,1.15,0.673,2.036c0,0.545-0.068,1.133-0.205,1.766l-2.458,11.631H107.79z"/>
					<path style="fill:#FFFFFF;" d="M120.969,57.818v1.167c-0.547,0.194-1.059,0.292-1.536,0.292c-1.239,0-1.858-0.734-1.858-2.204
						c0-0.369,0.063-0.855,0.19-1.459l2.385-11.237h-1.434l0.175-0.816l1.507-0.409l1.17-3.765h1.01l-0.805,3.765h2.093
						l-0.264,1.226h-2.093l-2.311,10.844c-0.137,0.622-0.206,1.138-0.206,1.547c0,0.438,0.081,0.751,0.242,0.94
						c0.161,0.19,0.417,0.285,0.769,0.285C120.306,57.993,120.627,57.935,120.969,57.818z"/>
					<path style="fill:#FFFFFF;" d="M129.62,58.985l2.517-11.894c0.098-0.389,0.146-0.798,0.146-1.226
						c0-1.1-0.488-1.649-1.463-1.649c-1.024,0-1.883,0.491-2.575,1.474c-0.693,0.983-1.254,2.516-1.683,4.598l-1.858,8.697h-1.375
						l4.813-22.707h1.39l-1.448,6.625l-0.6,2.452h0.059c0.906-1.674,2.087-2.511,3.54-2.511c0.819,0,1.453,0.236,1.902,0.708
						c0.448,0.473,0.673,1.15,0.673,2.036c0,0.545-0.068,1.133-0.205,1.766l-2.458,11.631H129.62z"/>
					<path style="fill:#FFFFFF;" d="M139.384,59.277c-1.17,0-2.082-0.406-2.735-1.219c-0.654-0.813-0.98-1.948-0.98-3.407
						c0-2.082,0.295-4.035,0.885-5.859c0.591-1.824,1.391-3.271,2.399-4.342c1.01-1.07,2.07-1.605,3.183-1.605
						c0.849,0,1.505,0.246,1.968,0.737s0.695,1.233,0.695,2.226c0,1.196-0.29,2.242-0.871,3.138
						c-0.58,0.896-1.409,1.562-2.487,1.999c-1.077,0.438-2.362,0.657-3.854,0.657h-0.176c-0.205,0.963-0.308,1.931-0.308,2.903
						c0,2.345,0.897,3.518,2.692,3.518c0.458,0,0.89-0.063,1.295-0.19c0.404-0.126,0.865-0.34,1.383-0.642v1.401
						C141.652,59.049,140.623,59.277,139.384,59.277z M141.9,44.129c-0.868,0-1.692,0.574-2.473,1.723
						c-0.78,1.147-1.395,2.666-1.843,4.553c3.892,0,5.838-1.542,5.838-4.626c0-0.516-0.11-0.919-0.33-1.211
						C142.874,44.275,142.477,44.129,141.9,44.129z"/>
					<path style="fill:#FFFFFF;" d="M151.576,58.985h-1.375l4.843-22.707h1.39L151.576,58.985z"/>
					<path style="fill:#FFFFFF;" d="M156.58,58.985h-1.375l3.38-15.834h1.375L156.58,58.985z M159.272,39.197
						c0-0.497,0.112-0.925,0.336-1.285c0.225-0.359,0.513-0.539,0.863-0.539c0.459,0,0.688,0.282,0.688,0.846
						c0,0.555-0.107,1.013-0.322,1.372c-0.215,0.36-0.497,0.54-0.849,0.54C159.512,40.131,159.272,39.819,159.272,39.197z"/>
					<path style="fill:#FFFFFF;" d="M172.338,58.985l2.517-11.864c0.098-0.457,0.146-0.866,0.146-1.226
						c0-1.119-0.459-1.679-1.375-1.679c-0.8,0-1.513,0.348-2.137,1.044c-0.624,0.695-1.053,1.612-1.287,2.75l-2.297,10.975h-1.376
						l2.458-11.66c0.117-0.564,0.176-1.041,0.176-1.43c0-1.119-0.482-1.679-1.448-1.679c-0.985,0-1.805,0.467-2.458,1.401
						c-0.653,0.934-1.21,2.49-1.668,4.67l-1.858,8.697h-1.375l3.351-15.834h1.17l-0.365,2.204h0.059
						c0.887-1.674,2.058-2.511,3.511-2.511c0.712,0,1.271,0.176,1.676,0.525c0.404,0.351,0.655,0.905,0.753,1.664
						c0.498-0.729,1.02-1.277,1.566-1.642c0.546-0.365,1.185-0.548,1.916-0.548c0.751,0,1.332,0.244,1.741,0.73
						c0.41,0.486,0.614,1.211,0.614,2.174c0,0.555-0.068,1.144-0.204,1.766l-2.429,11.471H172.338z"/>
					<path style="fill:#FFFFFF;" d="M178.925,58.985h-1.375l3.38-15.834h1.375L178.925,58.985z M181.617,39.197
						c0-0.497,0.112-0.925,0.336-1.285c0.225-0.359,0.513-0.539,0.863-0.539c0.459,0,0.688,0.282,0.688,0.846
						c0,0.555-0.107,1.013-0.322,1.372c-0.215,0.36-0.497,0.54-0.849,0.54C181.856,40.131,181.617,39.819,181.617,39.197z"/>
					<path style="fill:#FFFFFF;" d="M186.445,57.818v1.167c-0.546,0.194-1.059,0.292-1.536,0.292c-1.239,0-1.858-0.734-1.858-2.204
						c0-0.369,0.063-0.855,0.19-1.459l2.385-11.237h-1.434l0.176-0.816l1.507-0.409l1.17-3.765h1.01l-0.805,3.765h2.093
						l-0.264,1.226h-2.092l-2.313,10.844c-0.137,0.622-0.204,1.138-0.204,1.547c0,0.438,0.08,0.751,0.241,0.94
						c0.161,0.19,0.417,0.285,0.768,0.285C185.782,57.993,186.104,57.935,186.445,57.818z"/>
					<path style="fill:#FFFFFF;" d="M191.073,59.277c-0.547,0-1.117-0.068-1.712-0.204c-0.595-0.137-1-0.287-1.215-0.453v-1.604
						c0.234,0.233,0.627,0.45,1.179,0.649c0.551,0.199,1.104,0.299,1.66,0.299c0.946,0,1.683-0.274,2.209-0.824
						c0.527-0.55,0.79-1.331,0.79-2.343c0-0.428-0.054-0.819-0.16-1.175c-0.107-0.354-0.247-0.684-0.417-0.984
						c-0.171-0.302-0.549-0.773-1.135-1.416c-0.634-0.69-1.063-1.214-1.287-1.568c-0.225-0.355-0.4-0.737-0.526-1.146
						c-0.127-0.409-0.19-0.881-0.19-1.416c0-1.265,0.39-2.289,1.171-3.072c0.779-0.782,1.789-1.175,3.028-1.175
						c1.326,0,2.395,0.302,3.204,0.905l-0.746,1.255c-0.692-0.564-1.531-0.847-2.517-0.847c-0.8,0-1.461,0.251-1.982,0.752
						c-0.522,0.501-0.783,1.17-0.783,2.007c0,0.574,0.104,1.094,0.314,1.562c0.21,0.467,0.607,1.021,1.192,1.663
						c0.703,0.759,1.179,1.333,1.427,1.723c0.249,0.389,0.446,0.812,0.593,1.27c0.146,0.457,0.22,0.963,0.22,1.518
						c0,1.479-0.373,2.619-1.119,3.422C193.523,58.876,192.458,59.277,191.073,59.277z"/>
					<path style="fill:#FFFFFF;" d="M197.817,58.212c0-0.594,0.137-1.092,0.41-1.496c0.272-0.403,0.639-0.605,1.097-0.605
						c0.264,0,0.469,0.103,0.615,0.307s0.219,0.472,0.219,0.803c0,0.594-0.134,1.075-0.402,1.444
						c-0.268,0.37-0.611,0.555-1.031,0.555c-0.244,0-0.456-0.085-0.637-0.255C197.907,58.793,197.817,58.543,197.817,58.212z"/>
				</g>
			</g>
		</g>
	</g>
</g>
</svg>
