<?xml version="1.0" encoding="iso-8859-1"?>
<!-- Generator: Adobe Illustrator 16.0.0, SVG Export Plug-In . SVG Version: 6.00 Build 0)  -->
<!DOCTYPE svg PUBLIC "-//W3C//DTD SVG 1.1//EN" "http://www.w3.org/Graphics/SVG/1.1/DTD/svg11.dtd">
<svg version="1.1" id="Layer_1" xmlns="http://www.w3.org/2000/svg" xmlns:xlink="http://www.w3.org/1999/xlink" x="0px" y="0px"
	 width="270px" height="32px" viewBox="0 0 270 32" style="enable-background:new 0 0 270 32;" xml:space="preserve">
<g>
	<g>
		<g>
			<g>
				<path style="fill:#053C42;" d="M1.796,6.849h-2.483V4.962h2.483V2.501h1.948v2.461h2.483v1.887H3.745V9.31H1.796V6.849z"/>
				<path style="fill:#053C42;" d="M13.739,1.147h3.923c2.291,0,3.676,1.354,3.676,3.309v0.027c0,2.215-1.729,3.363-3.882,3.363
					h-1.605v2.871h-2.112V1.147z M17.525,5.974c1.056,0,1.673-0.629,1.673-1.449V4.497c0-0.943-0.658-1.449-1.715-1.449h-1.632
					v2.926H17.525z"/>
				<path style="fill:#053C42;" d="M22.954,5.96V5.933c0-2.721,2.154-4.949,5.117-4.949s5.089,2.201,5.089,4.922v0.027
					c0,2.721-2.154,4.949-5.117,4.949C25.08,10.882,22.954,8.681,22.954,5.96z M30.952,5.96V5.933c0-1.641-1.208-3.008-2.908-3.008
					c-1.701,0-2.881,1.34-2.881,2.98v0.027c0,1.641,1.207,3.008,2.908,3.008S30.952,7.601,30.952,5.96z"/>
				<path style="fill:#053C42;" d="M37.284,3.089h-2.922V1.147h7.957v1.941h-2.922v7.629h-2.113V3.089z"/>
				<path style="fill:#053C42;" d="M44.181,1.147h7.243v1.873H46.28v1.941h4.527v1.873H46.28v2.01h5.213v1.873h-7.312V1.147z"/>
				<path style="fill:#053C42;" d="M53.821,1.147h1.948l4.5,5.893V1.147h2.085v9.57h-1.797l-4.65-6.084v6.084h-2.085V1.147z"/>
				<path style="fill:#053C42;" d="M67.219,3.089h-2.922V1.147h7.957v1.941h-2.922v7.629h-2.113V3.089z"/>
				<path style="fill:#053C42;" d="M74.211,1.147h2.112v9.57h-2.112V1.147z"/>
				<path style="fill:#053C42;" d="M82.481,1.079h1.948l4.115,9.639h-2.208l-0.878-2.146h-4.061l-0.878,2.146h-2.154L82.481,1.079z
					 M84.704,6.712l-1.276-3.104l-1.276,3.104H84.704z"/>
				<path style="fill:#053C42;" d="M90.351,1.147h2.112v7.656h4.788v1.914h-6.9V1.147z"/>
				<path style="fill:#053C42;" d="M108.864,1.079h1.948l4.115,9.639h-2.208l-0.878-2.146h-4.061l-0.878,2.146h-2.154L108.864,1.079
					z M111.086,6.712l-1.276-3.104l-1.276,3.104H111.086z"/>
				<path style="fill:#053C42;" d="M116.733,1.147h3.745c3.018,0,5.103,2.064,5.103,4.758v0.027c0,2.693-2.085,4.785-5.103,4.785
					h-3.745V1.147z M118.846,3.048v5.77h1.632c1.729,0,2.895-1.162,2.895-2.857V5.933c0-1.695-1.166-2.885-2.895-2.885H118.846z"/>
				<path style="fill:#053C42;" d="M127.896,1.147h3.745c3.018,0,5.103,2.064,5.103,4.758v0.027c0,2.693-2.085,4.785-5.103,4.785
					h-3.745V1.147z M130.008,3.048v5.77h1.632c1.729,0,2.895-1.162,2.895-2.857V5.933c0-1.695-1.166-2.885-2.895-2.885H130.008z"/>
				<path style="fill:#053C42;" d="M139.154,1.147h2.111v9.57h-2.111V1.147z"/>
				<path style="fill:#053C42;" d="M146.367,3.089h-2.922V1.147h7.956v1.941h-2.921v7.629h-2.113V3.089z"/>
				<path style="fill:#053C42;" d="M153.359,1.147h2.112v9.57h-2.112V1.147z"/>
				<path style="fill:#053C42;" d="M157.912,5.96V5.933c0-2.721,2.154-4.949,5.117-4.949s5.089,2.201,5.089,4.922v0.027
					c0,2.721-2.153,4.949-5.116,4.949S157.912,8.681,157.912,5.96z M165.91,5.96V5.933c0-1.641-1.207-3.008-2.908-3.008
					s-2.881,1.34-2.881,2.98v0.027c0,1.641,1.207,3.008,2.908,3.008S165.91,7.601,165.91,5.96z"/>
				<path style="fill:#053C42;" d="M170.514,1.147h1.948l4.499,5.893V1.147h2.085v9.57h-1.797l-4.65-6.084v6.084h-2.085V1.147z"/>
				<path style="fill:#053C42;" d="M184.968,1.079h1.948l4.115,9.639h-2.209l-0.878-2.146h-4.061l-0.878,2.146h-2.153L184.968,1.079
					z M187.19,6.712l-1.276-3.104l-1.275,3.104H187.19z"/>
				<path style="fill:#053C42;" d="M192.838,1.147h2.112v7.656h4.788v1.914h-6.9V1.147z"/>
				<path style="fill:#053C42;" d="M207.633,5.96V5.933c0-2.721,2.127-4.949,5.035-4.949c1.729,0,2.771,0.465,3.772,1.313
					l-1.331,1.6c-0.74-0.615-1.399-0.971-2.511-0.971c-1.536,0-2.757,1.354-2.757,2.98v0.027c0,1.75,1.207,3.035,2.908,3.035
					c0.769,0,1.454-0.191,1.989-0.574V7.026h-2.126V5.208h4.17v4.156c-0.988,0.834-2.346,1.518-4.102,1.518
					C209.691,10.882,207.633,8.79,207.633,5.96z"/>
				<path style="fill:#053C42;" d="M219.221,1.147h4.39c1.221,0,2.167,0.342,2.798,0.971c0.535,0.533,0.823,1.285,0.823,2.188v0.027
					c0,1.545-0.837,2.516-2.058,2.967l2.346,3.418h-2.469l-2.058-3.063h-1.66v3.063h-2.112V1.147z M223.473,5.796
					c1.029,0,1.619-0.547,1.619-1.354V4.415c0-0.902-0.631-1.367-1.66-1.367h-2.099v2.748H223.473z"/>
				<path style="fill:#053C42;" d="M229.449,5.96V5.933c0-2.721,2.154-4.949,5.117-4.949s5.089,2.201,5.089,4.922v0.027
					c0,2.721-2.153,4.949-5.116,4.949S229.449,8.681,229.449,5.96z M237.447,5.96V5.933c0-1.641-1.207-3.008-2.908-3.008
					s-2.881,1.34-2.881,2.98v0.027c0,1.641,1.207,3.008,2.908,3.008S237.447,7.601,237.447,5.96z"/>
				<path style="fill:#053C42;" d="M241.9,6.616V1.147h2.113v5.414c0,1.559,0.781,2.365,2.071,2.365
					c1.289,0,2.071-0.779,2.071-2.297V1.147h2.112v5.4c0,2.898-1.633,4.32-4.211,4.32C243.479,10.868,241.9,9.433,241.9,6.616z"/>
				<path style="fill:#053C42;" d="M252.707,1.147h3.923c2.291,0,3.677,1.354,3.677,3.309v0.027c0,2.215-1.729,3.363-3.882,3.363
					h-1.605v2.871h-2.112V1.147z M256.493,5.974c1.056,0,1.674-0.629,1.674-1.449V4.497c0-0.943-0.659-1.449-1.715-1.449h-1.633
					v2.926H256.493z"/>
				<path style="fill:#053C42;" d="M261.688,9.323l1.248-1.49c0.864,0.711,1.77,1.162,2.867,1.162c0.864,0,1.385-0.342,1.385-0.902
					V8.065c0-0.533-0.329-0.807-1.934-1.217c-1.935-0.492-3.183-1.025-3.183-2.926V3.896c0-1.736,1.399-2.885,3.36-2.885
					c1.399,0,2.593,0.438,3.567,1.217l-1.098,1.586c-0.851-0.588-1.688-0.943-2.497-0.943c-0.809,0-1.234,0.369-1.234,0.834v0.027
					c0,0.629,0.412,0.834,2.071,1.258c1.948,0.506,3.046,1.203,3.046,2.871v0.027c0,1.9-1.454,2.967-3.525,2.967
					C264.309,10.854,262.841,10.349,261.688,9.323z"/>
			</g>
		</g>
		<g>
			<g>
				<g>
					<path style="fill:#FFFFFF;" d="M1.884,29.515h-0.56l1.375-6.44h0.559L1.884,29.515z M2.979,21.465
						c0-0.201,0.046-0.376,0.137-0.522s0.208-0.22,0.351-0.22c0.187,0,0.28,0.115,0.28,0.345c0,0.226-0.044,0.411-0.131,0.558
						c-0.087,0.146-0.203,0.22-0.345,0.22C3.076,21.845,2.979,21.719,2.979,21.465z"/>
					<path style="fill:#FFFFFF;" d="M4.038,29.2c0-0.241,0.055-0.444,0.167-0.608c0.111-0.164,0.26-0.247,0.446-0.247
						c0.107,0,0.19,0.042,0.25,0.125s0.089,0.192,0.089,0.326c0,0.242-0.055,0.438-0.164,0.588c-0.109,0.15-0.249,0.226-0.42,0.226
						c-0.099,0-0.186-0.034-0.259-0.104S4.038,29.335,4.038,29.2z"/>
					<path style="fill:#FFFFFF;" d="M8.21,29.634c-0.476,0-0.847-0.166-1.113-0.496s-0.399-0.793-0.399-1.386
						c0-0.848,0.12-1.642,0.36-2.384c0.24-0.742,0.565-1.331,0.976-1.766c0.411-0.436,0.842-0.653,1.294-0.653
						c0.345,0,0.612,0.1,0.8,0.3s0.283,0.502,0.283,0.905c0,0.486-0.118,0.912-0.354,1.276c-0.236,0.364-0.573,0.635-1.012,0.813
						c-0.438,0.178-0.961,0.267-1.568,0.267H7.407c-0.083,0.392-0.125,0.786-0.125,1.182c0,0.954,0.365,1.431,1.095,1.431
						c0.187,0,0.362-0.026,0.527-0.077c0.165-0.052,0.352-0.139,0.562-0.262v0.57C9.133,29.54,8.714,29.634,8.21,29.634z
						 M9.234,23.472c-0.353,0-0.688,0.233-1.006,0.7s-0.567,1.085-0.75,1.853c1.583,0,2.375-0.628,2.375-1.882
						c0-0.21-0.045-0.374-0.134-0.493C9.63,23.531,9.468,23.472,9.234,23.472z"/>
					<path style="fill:#FFFFFF;" d="M11.133,29.2c0-0.241,0.055-0.444,0.167-0.608c0.111-0.164,0.26-0.247,0.446-0.247
						c0.107,0,0.19,0.042,0.25,0.125s0.089,0.192,0.089,0.326c0,0.242-0.055,0.438-0.164,0.588c-0.109,0.15-0.249,0.226-0.42,0.226
						c-0.099,0-0.186-0.034-0.259-0.104S11.133,29.335,11.133,29.2z"/>
					<path style="fill:#FFFFFF;" d="M18.875,29.515h-0.601l1.72-8.109h-1.524l0.125-0.569h3.643l-0.119,0.569h-1.523L18.875,29.515z
						"/>
					<path style="fill:#FFFFFF;" d="M24.167,22.949c0.155,0,0.299,0.023,0.435,0.071l-0.155,0.575
						c-0.119-0.059-0.25-0.089-0.393-0.089c-0.337,0-0.65,0.231-0.94,0.695c-0.29,0.463-0.52,1.096-0.69,1.899l-0.732,3.413h-0.559
						l1.363-6.44h0.417l-0.172,1.128h0.023C23.111,23.367,23.579,22.949,24.167,22.949z"/>
					<path style="fill:#FFFFFF;" d="M26.471,29.634c-0.476,0-0.847-0.166-1.113-0.496s-0.399-0.793-0.399-1.386
						c0-0.848,0.12-1.642,0.36-2.384c0.24-0.742,0.565-1.331,0.976-1.766c0.411-0.436,0.842-0.653,1.294-0.653
						c0.345,0,0.612,0.1,0.8,0.3s0.283,0.502,0.283,0.905c0,0.486-0.118,0.912-0.354,1.276c-0.236,0.364-0.573,0.635-1.012,0.813
						c-0.438,0.178-0.961,0.267-1.568,0.267h-0.071c-0.083,0.392-0.125,0.786-0.125,1.182c0,0.954,0.365,1.431,1.095,1.431
						c0.187,0,0.362-0.026,0.527-0.077c0.165-0.052,0.352-0.139,0.562-0.262v0.57C27.394,29.54,26.975,29.634,26.471,29.634z
						 M27.495,23.472c-0.353,0-0.688,0.233-1.006,0.7s-0.567,1.085-0.75,1.853c1.583,0,2.375-0.628,2.375-1.882
						c0-0.21-0.045-0.374-0.134-0.493C27.891,23.531,27.729,23.472,27.495,23.472z"/>
					<path style="fill:#FFFFFF;" d="M31.798,29.515l1.023-4.838c0.04-0.158,0.06-0.324,0.06-0.499c0-0.447-0.198-0.671-0.595-0.671
						c-0.417,0-0.766,0.2-1.047,0.6c-0.282,0.4-0.51,1.023-0.685,1.87l-0.756,3.538h-0.559l1.363-6.44h0.476l-0.149,0.896h0.024
						c0.369-0.681,0.849-1.021,1.44-1.021c0.333,0,0.591,0.096,0.773,0.288c0.183,0.191,0.274,0.468,0.274,0.828
						c0,0.222-0.028,0.461-0.083,0.718l-1,4.731H31.798z"/>
					<path style="fill:#FFFFFF;" d="M35.777,29.634c-0.793,0-1.19-0.559-1.19-1.675c0-0.827,0.124-1.646,0.372-2.457
						s0.569-1.439,0.964-1.885c0.395-0.445,0.826-0.668,1.294-0.668c0.274,0,0.503,0.083,0.688,0.249s0.3,0.384,0.348,0.653h0.036
						l0.744-3.574h0.565l-1.964,9.237h-0.452l0.107-0.926h-0.023C36.813,29.285,36.316,29.634,35.777,29.634z M35.89,29.141
						c0.357,0,0.69-0.203,1-0.608c0.309-0.405,0.571-0.999,0.786-1.781c0.214-0.781,0.321-1.53,0.321-2.246
						c0-0.337-0.063-0.591-0.19-0.764c-0.127-0.172-0.332-0.258-0.613-0.258c-0.349,0-0.672,0.201-0.97,0.603
						c-0.297,0.401-0.547,0.99-0.75,1.766c-0.203,0.776-0.304,1.506-0.304,2.19c0,0.36,0.053,0.634,0.158,0.819
						C35.433,29.048,35.62,29.141,35.89,29.141z"/>
					<path style="fill:#FFFFFF;" d="M40.823,29.634c-0.222,0-0.454-0.028-0.696-0.084c-0.242-0.055-0.407-0.116-0.494-0.184v-0.653
						c0.096,0.096,0.255,0.184,0.479,0.265s0.449,0.121,0.675,0.121c0.385,0,0.685-0.111,0.899-0.335
						c0.214-0.224,0.321-0.541,0.321-0.953c0-0.174-0.022-0.333-0.065-0.478c-0.044-0.145-0.101-0.278-0.17-0.4
						c-0.069-0.123-0.223-0.314-0.461-0.576c-0.258-0.281-0.433-0.493-0.524-0.638s-0.163-0.3-0.214-0.467
						c-0.051-0.166-0.077-0.357-0.077-0.575c0-0.515,0.159-0.931,0.476-1.25c0.317-0.318,0.728-0.478,1.232-0.478
						c0.54,0,0.974,0.123,1.304,0.368l-0.304,0.511c-0.282-0.229-0.623-0.345-1.024-0.345c-0.325,0-0.594,0.102-0.806,0.306
						c-0.212,0.204-0.318,0.476-0.318,0.816c0,0.233,0.042,0.445,0.128,0.635c0.085,0.19,0.247,0.416,0.485,0.677
						c0.286,0.309,0.479,0.543,0.581,0.701c0.101,0.158,0.181,0.33,0.241,0.516c0.06,0.187,0.089,0.393,0.089,0.618
						c0,0.602-0.152,1.065-0.455,1.392C41.82,29.47,41.387,29.634,40.823,29.634z"/>
					<path style="fill:#FFFFFF;" d="M50.53,29.515l-0.28-0.985c-0.306,0.428-0.579,0.718-0.821,0.873
						c-0.242,0.154-0.51,0.231-0.803,0.231c-0.413,0-0.735-0.137-0.967-0.41c-0.232-0.272-0.348-0.643-0.348-1.11
						c0-0.652,0.142-1.244,0.425-1.774s0.755-1.045,1.414-1.544c-0.163-0.562-0.244-1.092-0.244-1.591
						c0-0.779,0.129-1.39,0.387-1.831c0.258-0.441,0.613-0.662,1.065-0.662c0.246,0,0.445,0.091,0.598,0.273
						c0.153,0.182,0.229,0.447,0.229,0.795c0,0.57-0.125,1.133-0.375,1.689c-0.25,0.556-0.603,1.048-1.06,1.475l0.703,2.493
						c0.27-0.494,0.494-1.078,0.672-1.751h0.5c-0.08,0.376-0.226,0.803-0.438,1.279c-0.212,0.478-0.4,0.828-0.563,1.054l0.488,1.496
						H50.53z M49.286,25.259c-0.944,0.752-1.416,1.668-1.416,2.748c0,0.721,0.264,1.08,0.792,1.08c0.238,0,0.459-0.073,0.664-0.22
						c0.204-0.146,0.459-0.444,0.765-0.896L49.286,25.259z M49.613,24.457c0.341-0.316,0.603-0.701,0.786-1.154
						c0.182-0.453,0.274-0.928,0.274-1.422c0-0.424-0.137-0.636-0.411-0.636c-0.258,0-0.463,0.167-0.616,0.499
						s-0.229,0.783-0.229,1.354C49.417,23.584,49.482,24.037,49.613,24.457z"/>
					<path style="fill:#FFFFFF;" d="M55.578,29.515l1.839-8.679H58l-1.839,8.679H55.578z"/>
					<path style="fill:#FFFFFF;" d="M61.21,29.515l1.023-4.838c0.04-0.158,0.06-0.324,0.06-0.499c0-0.447-0.198-0.671-0.595-0.671
						c-0.417,0-0.766,0.2-1.047,0.6c-0.282,0.4-0.51,1.023-0.685,1.87l-0.756,3.538h-0.559l1.363-6.44h0.476l-0.149,0.896h0.024
						c0.369-0.681,0.849-1.021,1.44-1.021c0.333,0,0.591,0.096,0.773,0.288c0.183,0.191,0.274,0.468,0.274,0.828
						c0,0.222-0.028,0.461-0.083,0.718l-1,4.731H61.21z"/>
					<path style="fill:#FFFFFF;" d="M65.243,29.04v0.475c-0.222,0.079-0.431,0.119-0.625,0.119c-0.504,0-0.756-0.299-0.756-0.896
						c0-0.15,0.026-0.349,0.078-0.594l0.97-4.571h-0.583l0.071-0.332l0.613-0.166l0.476-1.532h0.411l-0.328,1.532h0.851
						l-0.107,0.498h-0.851l-0.94,4.411c-0.056,0.253-0.083,0.463-0.083,0.629c0,0.178,0.033,0.306,0.099,0.383
						s0.169,0.116,0.313,0.116C64.973,29.111,65.104,29.087,65.243,29.04z"/>
					<path style="fill:#FFFFFF;" d="M68.555,29.634c-0.476,0-0.847-0.166-1.113-0.496s-0.399-0.793-0.399-1.386
						c0-0.848,0.12-1.642,0.36-2.384c0.24-0.742,0.565-1.331,0.976-1.766c0.411-0.436,0.842-0.653,1.294-0.653
						c0.345,0,0.612,0.1,0.8,0.3s0.283,0.502,0.283,0.905c0,0.486-0.118,0.912-0.354,1.276c-0.236,0.364-0.573,0.635-1.012,0.813
						c-0.438,0.178-0.961,0.267-1.568,0.267h-0.071c-0.083,0.392-0.125,0.786-0.125,1.182c0,0.954,0.365,1.431,1.095,1.431
						c0.187,0,0.362-0.026,0.527-0.077c0.165-0.052,0.352-0.139,0.562-0.262v0.57C69.478,29.54,69.059,29.634,68.555,29.634z
						 M69.579,23.472c-0.353,0-0.688,0.233-1.006,0.7s-0.567,1.085-0.75,1.853c1.583,0,2.375-0.628,2.375-1.882
						c0-0.21-0.045-0.374-0.134-0.493C69.975,23.531,69.813,23.472,69.579,23.472z"/>
					<path style="fill:#FFFFFF;" d="M75.78,23.074l-0.083,0.397l-0.815,0.101c0.119,0.226,0.178,0.509,0.178,0.849
						c0,0.432-0.088,0.876-0.265,1.333c-0.177,0.457-0.411,0.815-0.702,1.074c-0.292,0.26-0.614,0.39-0.967,0.39h-0.149
						l-0.131-0.013c-0.496,0.345-0.744,0.657-0.744,0.938c0,0.091,0.016,0.165,0.048,0.223s0.081,0.104,0.149,0.143
						c0.067,0.037,0.301,0.117,0.702,0.24c0.5,0.154,0.851,0.35,1.053,0.585c0.203,0.235,0.304,0.551,0.304,0.946
						c0,0.638-0.21,1.155-0.631,1.556c-0.42,0.399-0.962,0.6-1.625,0.6c-0.523,0-0.929-0.133-1.217-0.398
						c-0.288-0.265-0.432-0.639-0.432-1.121c0-0.416,0.129-0.795,0.387-1.137c0.258-0.343,0.625-0.621,1.101-0.835
						c-0.25-0.166-0.375-0.39-0.375-0.67c0-0.206,0.063-0.406,0.19-0.6c0.127-0.194,0.355-0.408,0.685-0.642
						c-0.341-0.285-0.512-0.698-0.512-1.24c0-0.487,0.098-0.963,0.294-1.428s0.444-0.817,0.744-1.057
						c0.299-0.239,0.632-0.359,0.997-0.359c0.253,0,0.448,0.041,0.583,0.125H75.78z M70.989,30.874c0,0.388,0.098,0.668,0.294,0.84
						c0.197,0.172,0.485,0.259,0.866,0.259c0.484,0,0.886-0.146,1.205-0.439s0.479-0.675,0.479-1.146
						c0-0.254-0.08-0.474-0.241-0.659c-0.161-0.187-0.406-0.326-0.735-0.422l-0.536-0.143c-0.381,0.127-0.698,0.351-0.952,0.671
						C71.116,30.156,70.989,30.502,70.989,30.874z M72.477,25.882c0,0.293,0.057,0.516,0.17,0.668
						c0.113,0.152,0.276,0.229,0.491,0.229c0.246,0,0.469-0.104,0.67-0.312c0.2-0.208,0.366-0.521,0.497-0.938
						c0.131-0.417,0.197-0.818,0.197-1.202c0-0.609-0.214-0.914-0.643-0.914c-0.242,0-0.465,0.111-0.669,0.332
						c-0.205,0.222-0.374,0.548-0.509,0.977C72.544,25.15,72.477,25.537,72.477,25.882z"/>
					<path style="fill:#FFFFFF;" d="M78.919,22.949c0.155,0,0.299,0.023,0.435,0.071l-0.155,0.575
						c-0.119-0.059-0.25-0.089-0.393-0.089c-0.337,0-0.65,0.231-0.94,0.695c-0.29,0.463-0.52,1.096-0.69,1.899l-0.732,3.413h-0.559
						l1.363-6.44h0.417l-0.172,1.128h0.023C77.863,23.367,78.332,22.949,78.919,22.949z"/>
					<path style="fill:#FFFFFF;" d="M80.901,29.634c-0.793,0-1.19-0.559-1.19-1.675c0-0.827,0.124-1.646,0.372-2.457
						s0.569-1.439,0.964-1.885c0.395-0.445,0.826-0.668,1.294-0.668c0.532,0,0.877,0.297,1.036,0.891h0.036l0.232-0.766h0.477
						l-1.363,6.44h-0.452l0.107-0.926H82.39C81.937,29.285,81.441,29.634,80.901,29.634z M81.015,29.141c0.357,0,0.69-0.206,1-0.617
						c0.309-0.412,0.571-1.014,0.786-1.805c0.214-0.792,0.321-1.537,0.321-2.238c0-0.328-0.071-0.576-0.211-0.745
						c-0.141-0.168-0.338-0.252-0.592-0.252c-0.349,0-0.672,0.201-0.97,0.603c-0.297,0.401-0.547,0.99-0.75,1.766
						c-0.203,0.776-0.304,1.506-0.304,2.19c0,0.36,0.053,0.634,0.158,0.819C80.557,29.048,80.745,29.141,81.015,29.141z"/>
					<path style="fill:#FFFFFF;" d="M86.537,29.04v0.475c-0.222,0.079-0.431,0.119-0.625,0.119c-0.504,0-0.756-0.299-0.756-0.896
						c0-0.15,0.026-0.349,0.078-0.594l0.97-4.571H85.62l0.071-0.332l0.613-0.166l0.476-1.532h0.411l-0.328,1.532h0.851l-0.107,0.498
						h-0.851l-0.94,4.411c-0.056,0.253-0.083,0.463-0.083,0.629c0,0.178,0.033,0.306,0.099,0.383s0.169,0.116,0.313,0.116
						C86.267,29.111,86.397,29.087,86.537,29.04z"/>
					<path style="fill:#FFFFFF;" d="M88.594,29.515h-0.56l1.375-6.44h0.559L88.594,29.515z M89.688,21.465
						c0-0.201,0.046-0.376,0.137-0.522s0.208-0.22,0.351-0.22c0.187,0,0.28,0.115,0.28,0.345c0,0.226-0.044,0.411-0.131,0.558
						c-0.087,0.146-0.203,0.22-0.345,0.22C89.786,21.845,89.688,21.719,89.688,21.465z"/>
					<path style="fill:#FFFFFF;" d="M92.187,29.634c-0.424,0-0.75-0.158-0.976-0.476c-0.226-0.316-0.339-0.766-0.339-1.348
						c0-0.562,0.072-1.165,0.214-1.811c0.143-0.645,0.33-1.191,0.56-1.641s0.5-0.797,0.81-1.042s0.655-0.368,1.036-0.368
						c0.42,0,0.749,0.163,0.985,0.489c0.236,0.327,0.354,0.787,0.354,1.381c0,0.55-0.072,1.141-0.217,1.771
						c-0.145,0.632-0.334,1.174-0.568,1.627c-0.234,0.453-0.508,0.802-0.821,1.048C92.909,29.511,92.564,29.634,92.187,29.634z
						 M91.455,27.924c0,0.8,0.268,1.199,0.804,1.199c0.353,0,0.678-0.201,0.976-0.603c0.297-0.401,0.541-0.969,0.729-1.701
						c0.188-0.731,0.283-1.438,0.283-2.119c0-0.812-0.276-1.217-0.828-1.217c-0.333,0-0.646,0.194-0.937,0.582
						c-0.292,0.388-0.536,0.953-0.732,1.697C91.553,26.507,91.455,27.228,91.455,27.924z"/>
					<path style="fill:#FFFFFF;" d="M98.22,29.515l1.023-4.838c0.04-0.158,0.06-0.324,0.06-0.499c0-0.447-0.198-0.671-0.595-0.671
						c-0.417,0-0.766,0.2-1.047,0.6c-0.282,0.4-0.51,1.023-0.685,1.87l-0.756,3.538h-0.559l1.363-6.44H97.5l-0.149,0.896h0.024
						c0.369-0.681,0.849-1.021,1.44-1.021c0.333,0,0.591,0.096,0.773,0.288c0.183,0.191,0.274,0.468,0.274,0.828
						c0,0.222-0.028,0.461-0.083,0.718l-1,4.731H98.22z"/>
					<path style="fill:#FFFFFF;" d="M102.021,28.435c-0.405,0.847-0.889,1.729-1.452,2.647h-0.387
						c0.163-0.349,0.354-0.792,0.574-1.33s0.398-1.022,0.533-1.454h0.685L102.021,28.435z"/>
					<path style="fill:#FFFFFF;" d="M110.347,29.515l-0.309-7.901h-0.036l-0.262,1.425l-1.369,6.477H107.8l1.839-8.679h0.952
						l0.203,6.577l0.023,0.974l-0.012,0.522h0.012c0.067-0.198,0.28-0.692,0.637-1.484l2.94-6.589h1.006l-1.839,8.679h-0.595
						l1.416-6.66l0.292-1.229h-0.024l-3.547,7.89H110.347z"/>
					<path style="fill:#FFFFFF;" d="M117.421,29.634c-0.793,0-1.19-0.559-1.19-1.675c0-0.827,0.124-1.646,0.372-2.457
						s0.569-1.439,0.964-1.885c0.395-0.445,0.826-0.668,1.294-0.668c0.532,0,0.877,0.297,1.036,0.891h0.036l0.232-0.766h0.477
						l-1.363,6.44h-0.452l0.107-0.926h-0.023C118.457,29.285,117.96,29.634,117.421,29.634z M117.534,29.141
						c0.357,0,0.69-0.206,1-0.617c0.309-0.412,0.571-1.014,0.786-1.805c0.214-0.792,0.321-1.537,0.321-2.238
						c0-0.328-0.071-0.576-0.211-0.745c-0.141-0.168-0.338-0.252-0.592-0.252c-0.349,0-0.672,0.201-0.97,0.603
						c-0.297,0.401-0.547,0.99-0.75,1.766c-0.203,0.776-0.304,1.506-0.304,2.19c0,0.36,0.053,0.634,0.158,0.819
						C117.077,29.048,117.264,29.141,117.534,29.141z"/>
					<path style="fill:#FFFFFF;" d="M124.568,22.949c0.155,0,0.299,0.023,0.435,0.071l-0.155,0.575
						c-0.119-0.059-0.25-0.089-0.393-0.089c-0.337,0-0.65,0.231-0.94,0.695c-0.29,0.463-0.52,1.096-0.69,1.899l-0.732,3.413h-0.559
						l1.363-6.44h0.417l-0.172,1.128h0.023C123.512,23.367,123.98,22.949,124.568,22.949z"/>
					<path style="fill:#FFFFFF;" d="M126.295,26.256l0.286-0.351l0.488-0.623l1.607-2.208h0.607l-1.827,2.552l0.571,3.889h-0.583
						l-0.5-3.401l-0.756,0.825l-0.548,2.576h-0.559l1.97-9.237h0.565l-1.065,4.851c-0.032,0.158-0.121,0.534-0.268,1.128H126.295z"
						/>
					<path style="fill:#FFFFFF;" d="M130.931,29.634c-0.476,0-0.847-0.166-1.113-0.496s-0.399-0.793-0.399-1.386
						c0-0.848,0.12-1.642,0.36-2.384c0.24-0.742,0.565-1.331,0.976-1.766c0.411-0.436,0.842-0.653,1.294-0.653
						c0.345,0,0.612,0.1,0.8,0.3s0.283,0.502,0.283,0.905c0,0.486-0.118,0.912-0.354,1.276c-0.236,0.364-0.573,0.635-1.012,0.813
						c-0.438,0.178-0.961,0.267-1.568,0.267h-0.071c-0.083,0.392-0.125,0.786-0.125,1.182c0,0.954,0.365,1.431,1.095,1.431
						c0.187,0,0.362-0.026,0.527-0.077c0.165-0.052,0.352-0.139,0.562-0.262v0.57C131.854,29.54,131.435,29.634,130.931,29.634z
						 M131.955,23.472c-0.353,0-0.688,0.233-1.006,0.7s-0.567,1.085-0.75,1.853c1.583,0,2.375-0.628,2.375-1.882
						c0-0.21-0.045-0.374-0.134-0.493C132.351,23.531,132.189,23.472,131.955,23.472z"/>
					<path style="fill:#FFFFFF;" d="M135.223,29.04v0.475c-0.222,0.079-0.431,0.119-0.625,0.119c-0.504,0-0.756-0.299-0.756-0.896
						c0-0.15,0.026-0.349,0.078-0.594l0.97-4.571h-0.583l0.071-0.332l0.613-0.166l0.476-1.532h0.411l-0.328,1.532h0.851
						l-0.106,0.498h-0.851l-0.94,4.411c-0.056,0.253-0.083,0.463-0.083,0.629c0,0.178,0.033,0.306,0.099,0.383
						s0.169,0.116,0.313,0.116C134.953,29.111,135.083,29.087,135.223,29.04z"/>
					<path style="fill:#FFFFFF;" d="M137.279,29.515h-0.56l1.375-6.44h0.56L137.279,29.515z M138.374,21.465
						c0-0.201,0.046-0.376,0.138-0.522c0.091-0.146,0.207-0.22,0.351-0.22c0.187,0,0.28,0.115,0.28,0.345
						c0,0.226-0.045,0.411-0.131,0.558c-0.088,0.146-0.203,0.22-0.346,0.22C138.471,21.845,138.374,21.719,138.374,21.465z"/>
					<path style="fill:#FFFFFF;" d="M141.837,29.515l1.023-4.838c0.04-0.158,0.06-0.324,0.06-0.499c0-0.447-0.198-0.671-0.596-0.671
						c-0.416,0-0.766,0.2-1.047,0.6c-0.281,0.4-0.51,1.023-0.685,1.87l-0.756,3.538h-0.56l1.363-6.44h0.477l-0.149,0.896h0.024
						c0.369-0.681,0.849-1.021,1.439-1.021c0.334,0,0.592,0.096,0.773,0.288c0.184,0.191,0.274,0.468,0.274,0.828
						c0,0.222-0.028,0.461-0.083,0.718l-1,4.731H141.837z"/>
					<path style="fill:#FFFFFF;" d="M148.805,23.074l-0.084,0.397l-0.814,0.101c0.118,0.226,0.178,0.509,0.178,0.849
						c0,0.432-0.088,0.876-0.265,1.333s-0.411,0.815-0.702,1.074c-0.292,0.26-0.614,0.39-0.967,0.39h-0.149l-0.131-0.013
						c-0.496,0.345-0.744,0.657-0.744,0.938c0,0.091,0.017,0.165,0.048,0.223s0.081,0.104,0.148,0.143
						c0.068,0.037,0.302,0.117,0.703,0.24c0.5,0.154,0.851,0.35,1.053,0.585c0.203,0.235,0.304,0.551,0.304,0.946
						c0,0.638-0.21,1.155-0.631,1.556c-0.421,0.399-0.962,0.6-1.625,0.6c-0.523,0-0.929-0.133-1.217-0.398
						c-0.288-0.265-0.432-0.639-0.432-1.121c0-0.416,0.129-0.795,0.387-1.137c0.258-0.343,0.625-0.621,1.101-0.835
						c-0.25-0.166-0.375-0.39-0.375-0.67c0-0.206,0.064-0.406,0.191-0.6c0.127-0.194,0.355-0.408,0.684-0.642
						c-0.341-0.285-0.512-0.698-0.512-1.24c0-0.487,0.099-0.963,0.295-1.428s0.444-0.817,0.744-1.057
						c0.299-0.239,0.632-0.359,0.997-0.359c0.253,0,0.448,0.041,0.583,0.125H148.805z M144.014,30.874
						c0,0.388,0.098,0.668,0.294,0.84s0.485,0.259,0.866,0.259c0.484,0,0.886-0.146,1.205-0.439s0.479-0.675,0.479-1.146
						c0-0.254-0.08-0.474-0.24-0.659c-0.16-0.187-0.406-0.326-0.735-0.422l-0.536-0.143c-0.381,0.127-0.697,0.351-0.951,0.671
						C144.141,30.156,144.014,30.502,144.014,30.874z M145.501,25.882c0,0.293,0.057,0.516,0.17,0.668
						c0.112,0.152,0.276,0.229,0.491,0.229c0.246,0,0.469-0.104,0.67-0.312c0.199-0.208,0.365-0.521,0.496-0.938
						c0.131-0.417,0.197-0.818,0.197-1.202c0-0.609-0.215-0.914-0.644-0.914c-0.242,0-0.466,0.111-0.669,0.332
						c-0.205,0.222-0.375,0.548-0.51,0.977C145.568,25.15,145.501,25.537,145.501,25.882z"/>
					<path style="fill:#FFFFFF;" d="M150.198,28.435c-0.404,0.847-0.889,1.729-1.452,2.647h-0.387
						c0.162-0.349,0.354-0.792,0.574-1.33s0.398-1.022,0.533-1.454h0.685L150.198,28.435z"/>
					<path style="fill:#FFFFFF;" d="M157.305,20.836h1.34c0.516,0,0.929,0.148,1.24,0.445s0.468,0.69,0.468,1.181
						c0,0.661-0.148,1.214-0.443,1.656c-0.296,0.443-0.701,0.715-1.218,0.813l-0.012,0.036c0.29,0.075,0.525,0.252,0.705,0.531
						c0.181,0.278,0.271,0.608,0.271,0.988c0,0.598-0.102,1.126-0.304,1.585s-0.496,0.814-0.881,1.065s-0.848,0.377-1.387,0.377
						h-1.619L157.305,20.836z M156.96,25.246l-0.792,3.711h0.94c0.611,0,1.088-0.213,1.429-0.639
						c0.341-0.425,0.512-1.004,0.512-1.736c0-0.411-0.101-0.737-0.304-0.977c-0.202-0.239-0.483-0.359-0.845-0.359H156.96z
						 M157.073,24.688h0.875c0.356,0,0.67-0.091,0.94-0.273c0.27-0.182,0.479-0.438,0.628-0.769c0.148-0.33,0.223-0.701,0.223-1.113
						c0-0.384-0.102-0.667-0.304-0.852c-0.202-0.184-0.51-0.276-0.922-0.276h-0.732L157.073,24.688z"/>
					<path style="fill:#FFFFFF;" d="M163.005,23.074l-0.964,4.481c-0.071,0.309-0.107,0.576-0.107,0.802
						c0,0.486,0.187,0.729,0.56,0.729c0.829,0,1.419-0.825,1.768-2.476l0.756-3.537h0.56l-1.375,6.44h-0.44l0.048-0.802h-0.023
						c-0.401,0.614-0.875,0.921-1.423,0.921c-0.65,0-0.976-0.393-0.976-1.176c0-0.313,0.039-0.642,0.119-0.985l0.939-4.398H163.005z
						"/>
					<path style="fill:#FFFFFF;" d="M167.086,29.634c-0.223,0-0.455-0.028-0.696-0.084c-0.242-0.055-0.407-0.116-0.494-0.184v-0.653
						c0.095,0.096,0.255,0.184,0.479,0.265c0.225,0.081,0.449,0.121,0.676,0.121c0.385,0,0.685-0.111,0.898-0.335
						c0.215-0.224,0.321-0.541,0.321-0.953c0-0.174-0.021-0.333-0.065-0.478c-0.043-0.145-0.1-0.278-0.169-0.4
						c-0.069-0.123-0.224-0.314-0.462-0.576c-0.258-0.281-0.433-0.493-0.523-0.638s-0.163-0.3-0.214-0.467
						c-0.052-0.166-0.078-0.357-0.078-0.575c0-0.515,0.159-0.931,0.477-1.25c0.317-0.318,0.729-0.478,1.232-0.478
						c0.539,0,0.974,0.123,1.303,0.368l-0.304,0.511c-0.281-0.229-0.622-0.345-1.023-0.345c-0.325,0-0.594,0.102-0.807,0.306
						c-0.212,0.204-0.318,0.476-0.318,0.816c0,0.233,0.043,0.445,0.128,0.635c0.086,0.19,0.247,0.416,0.485,0.677
						c0.286,0.309,0.479,0.543,0.58,0.701c0.102,0.158,0.182,0.33,0.241,0.516c0.06,0.187,0.09,0.393,0.09,0.618
						c0,0.602-0.152,1.065-0.456,1.392S167.649,29.634,167.086,29.634z"/>
					<path style="fill:#FFFFFF;" d="M170.746,29.515h-0.56l1.375-6.44h0.56L170.746,29.515z M171.842,21.465
						c0-0.201,0.045-0.376,0.137-0.522c0.091-0.146,0.208-0.22,0.351-0.22c0.187,0,0.28,0.115,0.28,0.345
						c0,0.226-0.044,0.411-0.131,0.558c-0.088,0.146-0.202,0.22-0.346,0.22C171.938,21.845,171.842,21.719,171.842,21.465z"/>
					<path style="fill:#FFFFFF;" d="M175.304,29.515l1.024-4.838c0.039-0.158,0.06-0.324,0.06-0.499
						c0-0.447-0.199-0.671-0.596-0.671c-0.416,0-0.766,0.2-1.047,0.6c-0.282,0.4-0.511,1.023-0.685,1.87l-0.756,3.538h-0.56
						l1.362-6.44h0.477l-0.148,0.896h0.023c0.369-0.681,0.849-1.021,1.44-1.021c0.333,0,0.591,0.096,0.773,0.288
						c0.183,0.191,0.274,0.468,0.274,0.828c0,0.222-0.028,0.461-0.084,0.718l-1,4.731H175.304z"/>
					<path style="fill:#FFFFFF;" d="M179.604,29.634c-0.476,0-0.847-0.166-1.112-0.496c-0.267-0.33-0.399-0.793-0.399-1.386
						c0-0.848,0.12-1.642,0.36-2.384s0.565-1.331,0.976-1.766c0.411-0.436,0.843-0.653,1.295-0.653c0.345,0,0.612,0.1,0.801,0.3
						s0.282,0.502,0.282,0.905c0,0.486-0.118,0.912-0.354,1.276c-0.236,0.364-0.574,0.635-1.012,0.813
						c-0.438,0.178-0.962,0.267-1.568,0.267h-0.072c-0.083,0.392-0.124,0.786-0.124,1.182c0,0.954,0.364,1.431,1.095,1.431
						c0.187,0,0.362-0.026,0.526-0.077c0.165-0.052,0.353-0.139,0.563-0.262v0.57C180.527,29.54,180.108,29.634,179.604,29.634z
						 M180.628,23.472c-0.353,0-0.688,0.233-1.005,0.7c-0.318,0.467-0.568,1.085-0.75,1.853c1.583,0,2.374-0.628,2.374-1.882
						c0-0.21-0.044-0.374-0.134-0.493C181.024,23.531,180.862,23.472,180.628,23.472z"/>
					<path style="fill:#FFFFFF;" d="M183.308,29.634c-0.223,0-0.455-0.028-0.696-0.084c-0.242-0.055-0.407-0.116-0.494-0.184v-0.653
						c0.095,0.096,0.255,0.184,0.479,0.265c0.225,0.081,0.449,0.121,0.676,0.121c0.385,0,0.685-0.111,0.898-0.335
						c0.215-0.224,0.321-0.541,0.321-0.953c0-0.174-0.021-0.333-0.065-0.478c-0.043-0.145-0.1-0.278-0.169-0.4
						c-0.069-0.123-0.224-0.314-0.462-0.576c-0.258-0.281-0.433-0.493-0.523-0.638s-0.163-0.3-0.214-0.467
						c-0.052-0.166-0.078-0.357-0.078-0.575c0-0.515,0.159-0.931,0.477-1.25c0.317-0.318,0.729-0.478,1.232-0.478
						c0.539,0,0.974,0.123,1.303,0.368l-0.304,0.511c-0.281-0.229-0.622-0.345-1.023-0.345c-0.325,0-0.594,0.102-0.807,0.306
						c-0.212,0.204-0.318,0.476-0.318,0.816c0,0.233,0.043,0.445,0.128,0.635c0.086,0.19,0.247,0.416,0.485,0.677
						c0.286,0.309,0.479,0.543,0.58,0.701c0.102,0.158,0.182,0.33,0.241,0.516c0.06,0.187,0.09,0.393,0.09,0.618
						c0,0.602-0.152,1.065-0.456,1.392S183.871,29.634,183.308,29.634z"/>
					<path style="fill:#FFFFFF;" d="M187.367,29.634c-0.223,0-0.455-0.028-0.696-0.084c-0.242-0.055-0.407-0.116-0.494-0.184v-0.653
						c0.095,0.096,0.255,0.184,0.479,0.265c0.225,0.081,0.449,0.121,0.676,0.121c0.385,0,0.685-0.111,0.898-0.335
						c0.215-0.224,0.321-0.541,0.321-0.953c0-0.174-0.021-0.333-0.065-0.478c-0.043-0.145-0.1-0.278-0.169-0.4
						c-0.069-0.123-0.224-0.314-0.462-0.576c-0.258-0.281-0.433-0.493-0.523-0.638s-0.163-0.3-0.214-0.467
						c-0.052-0.166-0.078-0.357-0.078-0.575c0-0.515,0.159-0.931,0.477-1.25c0.317-0.318,0.729-0.478,1.232-0.478
						c0.539,0,0.974,0.123,1.303,0.368l-0.304,0.511c-0.281-0.229-0.622-0.345-1.023-0.345c-0.325,0-0.594,0.102-0.807,0.306
						c-0.212,0.204-0.318,0.476-0.318,0.816c0,0.233,0.043,0.445,0.128,0.635c0.086,0.19,0.247,0.416,0.485,0.677
						c0.286,0.309,0.479,0.543,0.58,0.701c0.102,0.158,0.182,0.33,0.241,0.516c0.06,0.187,0.09,0.393,0.09,0.618
						c0,0.602-0.152,1.065-0.456,1.392S187.931,29.634,187.367,29.634z"/>
					<path style="fill:#FFFFFF;" d="M199.555,23.3c0,1.187-0.163,2.265-0.491,3.231c-0.327,0.968-0.783,1.707-1.368,2.218
						c-0.586,0.511-1.269,0.766-2.051,0.766h-1.131l1.839-8.679h1.292c0.611,0,1.082,0.208,1.413,0.623
						C199.39,21.875,199.555,22.488,199.555,23.3z M195.764,28.957c0.6,0,1.136-0.229,1.61-0.689
						c0.474-0.459,0.853-1.142,1.137-2.048c0.283-0.906,0.425-1.88,0.425-2.92c0-1.263-0.458-1.895-1.374-1.895h-0.732l-1.613,7.552
						H195.764z"/>
					<path style="fill:#FFFFFF;" d="M201.924,29.634c-0.476,0-0.847-0.166-1.112-0.496c-0.267-0.33-0.399-0.793-0.399-1.386
						c0-0.848,0.12-1.642,0.36-2.384s0.565-1.331,0.976-1.766c0.411-0.436,0.843-0.653,1.295-0.653c0.345,0,0.612,0.1,0.801,0.3
						s0.282,0.502,0.282,0.905c0,0.486-0.118,0.912-0.354,1.276c-0.236,0.364-0.574,0.635-1.012,0.813
						c-0.438,0.178-0.962,0.267-1.568,0.267h-0.072c-0.083,0.392-0.124,0.786-0.124,1.182c0,0.954,0.364,1.431,1.095,1.431
						c0.187,0,0.362-0.026,0.526-0.077c0.165-0.052,0.353-0.139,0.563-0.262v0.57C202.847,29.54,202.428,29.634,201.924,29.634z
						 M202.947,23.472c-0.353,0-0.688,0.233-1.005,0.7c-0.318,0.467-0.568,1.085-0.75,1.853c1.583,0,2.374-0.628,2.374-1.882
						c0-0.21-0.044-0.374-0.134-0.493C203.344,23.531,203.182,23.472,202.947,23.472z"/>
					<path style="fill:#FFFFFF;" d="M205.322,29.515v-6.44h0.56v3.911c0,0.151-0.009,0.431-0.027,0.841
						c-0.018,0.409-0.04,0.729-0.068,0.958h0.036c0.083-0.245,0.185-0.524,0.304-0.837c0.118-0.313,0.789-1.937,2.012-4.873h0.589
						l-2.732,6.44H205.322z"/>
					<path style="fill:#FFFFFF;" d="M210.543,29.634c-0.476,0-0.847-0.166-1.112-0.496c-0.267-0.33-0.399-0.793-0.399-1.386
						c0-0.848,0.12-1.642,0.36-2.384s0.565-1.331,0.976-1.766c0.411-0.436,0.843-0.653,1.295-0.653c0.345,0,0.612,0.1,0.801,0.3
						s0.282,0.502,0.282,0.905c0,0.486-0.118,0.912-0.354,1.276c-0.236,0.364-0.574,0.635-1.012,0.813
						c-0.438,0.178-0.962,0.267-1.568,0.267h-0.072c-0.083,0.392-0.124,0.786-0.124,1.182c0,0.954,0.364,1.431,1.095,1.431
						c0.187,0,0.362-0.026,0.526-0.077c0.165-0.052,0.353-0.139,0.563-0.262v0.57C211.466,29.54,211.047,29.634,210.543,29.634z
						 M211.566,23.472c-0.353,0-0.688,0.233-1.005,0.7c-0.318,0.467-0.568,1.085-0.75,1.853c1.583,0,2.374-0.628,2.374-1.882
						c0-0.21-0.044-0.374-0.134-0.493C211.963,23.531,211.801,23.472,211.566,23.472z"/>
					<path style="fill:#FFFFFF;" d="M213.87,29.515h-0.56l1.97-9.237h0.565L213.87,29.515z"/>
					<path style="fill:#FFFFFF;" d="M217.44,29.634c-0.425,0-0.75-0.158-0.976-0.476c-0.227-0.316-0.34-0.766-0.34-1.348
						c0-0.562,0.071-1.165,0.215-1.811c0.143-0.645,0.329-1.191,0.56-1.641c0.229-0.449,0.499-0.797,0.809-1.042
						s0.655-0.368,1.036-0.368c0.42,0,0.749,0.163,0.984,0.489c0.236,0.327,0.354,0.787,0.354,1.381c0,0.55-0.072,1.141-0.217,1.771
						c-0.146,0.632-0.335,1.174-0.568,1.627c-0.234,0.453-0.509,0.802-0.821,1.048C218.163,29.511,217.817,29.634,217.44,29.634z
						 M216.709,27.924c0,0.8,0.268,1.199,0.803,1.199c0.354,0,0.679-0.201,0.977-0.603c0.297-0.401,0.54-0.969,0.729-1.701
						c0.188-0.731,0.283-1.438,0.283-2.119c0-0.812-0.276-1.217-0.827-1.217c-0.334,0-0.646,0.194-0.938,0.582
						c-0.292,0.388-0.536,0.953-0.732,1.697S216.709,27.228,216.709,27.924z"/>
					<path style="fill:#FFFFFF;" d="M224.14,22.949c0.798,0,1.196,0.56,1.196,1.68c0,0.831-0.125,1.651-0.375,2.461
						s-0.571,1.436-0.964,1.879s-0.823,0.665-1.292,0.665c-0.27,0-0.498-0.082-0.685-0.244s-0.303-0.38-0.351-0.652h-0.036
						l-0.744,3.573h-0.565l1.965-9.236h0.487l-0.148,0.92h0.029C223.11,23.298,223.604,22.949,224.14,22.949z M224.032,23.448
						c-0.373,0-0.716,0.206-1.029,0.62c-0.313,0.413-0.571,0.995-0.773,1.745c-0.203,0.75-0.304,1.485-0.304,2.205
						c0,0.736,0.268,1.104,0.804,1.104c0.349,0,0.673-0.205,0.973-0.614c0.3-0.41,0.55-1.003,0.75-1.778s0.301-1.506,0.301-2.19
						c0-0.36-0.053-0.632-0.158-0.816C224.49,23.54,224.303,23.448,224.032,23.448z"/>
					<path style="fill:#FFFFFF;" d="M230.86,29.515l1.023-4.826c0.04-0.186,0.06-0.353,0.06-0.499c0-0.455-0.187-0.683-0.559-0.683
						c-0.326,0-0.615,0.142-0.869,0.425s-0.429,0.656-0.524,1.119l-0.934,4.464h-0.56l1-4.743c0.047-0.229,0.071-0.423,0.071-0.582
						c0-0.455-0.196-0.683-0.59-0.683c-0.4,0-0.733,0.19-1,0.57c-0.266,0.38-0.491,1.013-0.678,1.899l-0.756,3.538h-0.56l1.362-6.44
						h0.477l-0.148,0.896h0.023c0.361-0.681,0.837-1.021,1.429-1.021c0.289,0,0.517,0.071,0.682,0.214
						c0.164,0.143,0.267,0.368,0.306,0.677c0.203-0.297,0.415-0.52,0.637-0.668c0.223-0.148,0.482-0.223,0.78-0.223
						c0.306,0,0.541,0.099,0.708,0.297s0.25,0.492,0.25,0.885c0,0.226-0.027,0.465-0.083,0.718l-0.988,4.666H230.86z"/>
					<path style="fill:#FFFFFF;" d="M235.393,29.634c-0.476,0-0.847-0.166-1.112-0.496c-0.267-0.33-0.399-0.793-0.399-1.386
						c0-0.848,0.12-1.642,0.36-2.384s0.565-1.331,0.976-1.766c0.411-0.436,0.843-0.653,1.295-0.653c0.345,0,0.612,0.1,0.801,0.3
						s0.282,0.502,0.282,0.905c0,0.486-0.118,0.912-0.354,1.276c-0.236,0.364-0.574,0.635-1.012,0.813
						c-0.438,0.178-0.962,0.267-1.568,0.267h-0.072c-0.083,0.392-0.124,0.786-0.124,1.182c0,0.954,0.364,1.431,1.095,1.431
						c0.187,0,0.362-0.026,0.526-0.077c0.165-0.052,0.353-0.139,0.563-0.262v0.57C236.315,29.54,235.896,29.634,235.393,29.634z
						 M236.416,23.472c-0.353,0-0.688,0.233-1.005,0.7c-0.318,0.467-0.568,1.085-0.75,1.853c1.583,0,2.374-0.628,2.374-1.882
						c0-0.21-0.044-0.374-0.134-0.493C236.813,23.531,236.65,23.472,236.416,23.472z"/>
					<path style="fill:#FFFFFF;" d="M240.719,29.515l1.024-4.838c0.039-0.158,0.06-0.324,0.06-0.499
						c0-0.447-0.199-0.671-0.596-0.671c-0.416,0-0.766,0.2-1.047,0.6c-0.282,0.4-0.511,1.023-0.685,1.87l-0.756,3.538h-0.56
						l1.362-6.44h0.477l-0.148,0.896h0.023c0.369-0.681,0.849-1.021,1.44-1.021c0.333,0,0.591,0.096,0.773,0.288
						c0.183,0.191,0.274,0.468,0.274,0.828c0,0.222-0.028,0.461-0.084,0.718l-1,4.731H240.719z"/>
					<path style="fill:#FFFFFF;" d="M244.752,29.04v0.475c-0.223,0.079-0.431,0.119-0.625,0.119c-0.504,0-0.756-0.299-0.756-0.896
						c0-0.15,0.025-0.349,0.077-0.594l0.971-4.571h-0.584l0.072-0.332l0.612-0.166l0.477-1.532h0.41l-0.327,1.532h0.852
						l-0.107,0.498h-0.852l-0.939,4.411c-0.056,0.253-0.084,0.463-0.084,0.629c0,0.178,0.033,0.306,0.099,0.383
						s0.169,0.116,0.313,0.116C244.482,29.111,244.613,29.087,244.752,29.04z"/>
				</g>
			</g>
		</g>
	</g>
</g>
</svg>
